<?xml version="1.0" standalone="no"?>
<!DOCTYPE svg PUBLIC "-//W3C//DTD SVG 1.1//EN" "http://www.w3.org/Graphics/SVG/1.1/DTD/svg11.dtd" >
<svg>
<metadata>
Created by FontForge 20090914 at Wed Mar 26 14:03:27 2014
 By www-data
Copyright (c) 2013, Sorkin Type Co (www.sorkintype.com) with Reserved Font Name 'Merriweather'
</metadata>
<defs>
<font id="MerriweatherSans-BoldItalic" horiz-adv-x="0" >
  <font-face 
    font-family="Merriweather Sans"
    font-weight="700"
    font-style="italic"
    font-stretch="normal"
    units-per-em="2048"
    panose-1="2 0 8 3 6 0 0 9 0 4"
    ascent="1638"
    descent="-410"
    x-height="1140"
    cap-height="1530"
    bbox="-252 -559.999 2702 2009"
    underline-thickness="201"
    underline-position="-88"
    slope="-7"
    unicode-range="U+0001-U+FB04"
  />
<missing-glyph horiz-adv-x="1872" 
d="M221 1416h1416v-1416h-1416v1416zM579 219l347 368l362 -368l122 122l-363 368l363 358l-128 124l-352 -366l-357 368l-123 -125l359 -363l-358 -342z" />
    <glyph glyph-name="f_f" unicode="ff" horiz-adv-x="1460" 
d="M865 1451c-34 26.667 -73.667 40 -119 40c-92 0 -148 -65.333 -168 -196l-24 -155h200l-20 -186h-203l-130 -954h-272l130 954h-130l34 186h122l16 100c17.333 131.333 65.666 236 144.999 314c82 81.333 185.667 122 311 122c70.667 0 125.334 -8.66699 164.001 -26z
M1595 1451c-34 26.667 -73.667 40 -119 40c-92 0 -148 -65.333 -168 -196l-24 -155h200l-20 -186h-203l-130 -954h-272l130 954h-130l34 186h122l16 100c17.333 131.333 65.666 236 144.999 314c82 81.333 185.667 122 311 122c70.667 0 125.334 -8.66699 164.001 -26z" />
    <glyph glyph-name="f_i" unicode="fi" horiz-adv-x="1354" 
d="M988 1140h277l-157 -1140h-276zM1237.5 1365c-22.333 -9.33301 -45.333 -13.999 -69 -13.999s-44.167 3.66699 -61.5 11c-36 14.667 -61.667 40 -77 76c-6.66699 16 -10 34.833 -10 56.5s4.83301 43.167 14.5 64.5s22.5 39.666 38.5 54.999c34 34.667 75.333 52 124 52
c70 0 116.667 -28.667 140 -86c6.66699 -16 10 -34.5 10 -55.5s-4.66699 -42.5 -14 -64.5s-22 -41 -38 -57s-35.167 -28.667 -57.5 -38zM865 1451c-34 26.667 -73.667 40 -119 40c-92 0 -148 -65.333 -168 -196l-24 -155h200l-20 -186h-203l-130 -954h-272l130 954h-130
l34 186h122l16 100c17.333 131.333 65.666 236 144.999 314c82 81.333 185.667 122 311 122c70.667 0 125.334 -8.66699 164.001 -26z" />
    <glyph glyph-name="f_l" unicode="fl" horiz-adv-x="1355" 
d="M1056 1636h277l-223 -1634h-276zM865 1451c-34 26.667 -73.667 40 -119 40c-92 0 -148 -65.333 -168 -196l-24 -155h200l-20 -186h-203l-130 -954h-272l130 954h-130l34 186h122l16 100c17.333 131.333 65.666 236 144.999 314c82 81.333 185.667 122 311 122
c70.667 0 125.334 -8.66699 164.001 -26z" />
    <glyph glyph-name="f_f_i" unicode="ffi" horiz-adv-x="2084" 
d="M1718 1140h277l-157 -1140h-276zM1967.5 1365c-22.333 -9.33301 -45.333 -13.999 -69 -13.999s-44.167 3.66699 -61.5 11c-36 14.667 -61.667 40 -77 76c-6.66699 16 -10 34.833 -10 56.5s4.83301 43.167 14.5 64.5s22.5 39.666 38.5 54.999c34 34.667 75.333 52 124 52
c70 0 116.667 -28.667 140 -86c6.66699 -16 10 -34.5 10 -55.5s-4.66699 -42.5 -14 -64.5s-22 -41 -38 -57s-35.167 -28.667 -57.5 -38zM865 1451c-34 26.667 -73.667 40 -119 40c-92 0 -148 -65.333 -168 -196l-24 -155h200l-20 -186h-203l-130 -954h-272l130 954h-130
l34 186h122l16 100c17.333 131.333 65.666 236 144.999 314c82 81.333 185.667 122 311 122c70.667 0 125.334 -8.66699 164.001 -26zM1595 1451c-34 26.667 -73.667 40 -119 40c-92 0 -148 -65.333 -168 -196l-24 -155h200l-20 -186h-203l-130 -954h-272l130 954h-130
l34 186h122l16 100c17.333 131.333 65.666 236 144.999 314c82 81.333 185.667 122 311 122c70.667 0 125.334 -8.66699 164.001 -26z" />
    <glyph glyph-name="f_f_l" unicode="ffl" horiz-adv-x="2085" 
d="M1786 1636h277l-223 -1634h-276zM865 1451c-34 26.667 -73.667 40 -119 40c-92 0 -148 -65.333 -168 -196l-24 -155h200l-20 -186h-203l-130 -954h-272l130 954h-130l34 186h122l16 100c17.333 131.333 65.666 236 144.999 314c82 81.333 185.667 122 311 122
c70.667 0 125.334 -8.66699 164.001 -26zM1595 1451c-34 26.667 -73.667 40 -119 40c-92 0 -148 -65.333 -168 -196l-24 -155h200l-20 -186h-203l-130 -954h-272l130 954h-130l34 186h122l16 100c17.333 131.333 65.666 236 144.999 314c82 81.333 185.667 122 311 122
c70.667 0 125.334 -8.66699 164.001 -26z" />
    <glyph glyph-name=".notdef" horiz-adv-x="1872" 
d="M221 1416h1416v-1416h-1416v1416zM579 219l347 368l362 -368l122 122l-363 368l363 358l-128 124l-352 -366l-357 368l-123 -125l359 -363l-358 -342z" />
    <glyph glyph-name="uni0001" 
 />
    <glyph glyph-name="uni0002" 
 />
    <glyph glyph-name="uni0003" 
 />
    <glyph glyph-name="uni0004" 
 />
    <glyph glyph-name="uni0005" 
 />
    <glyph glyph-name="uni0006" 
 />
    <glyph glyph-name="uni0007" 
 />
    <glyph glyph-name="uni0008" 
 />
    <glyph glyph-name="HT" unicode="&#x9;" 
 />
    <glyph glyph-name="LF" unicode="&#xa;" 
 />
    <glyph glyph-name="DLE" 
 />
    <glyph glyph-name="DC1" 
 />
    <glyph glyph-name="DC2" 
 />
    <glyph glyph-name="DC3" 
 />
    <glyph glyph-name="DC4" 
 />
    <glyph glyph-name="uni0015" 
 />
    <glyph glyph-name="uni0016" 
 />
    <glyph glyph-name="uni0017" 
 />
    <glyph glyph-name="uni0018" 
 />
    <glyph glyph-name="uni0019" 
 />
    <glyph glyph-name="RS" 
 />
    <glyph glyph-name="US" 
 />
    <glyph glyph-name="space" unicode=" " horiz-adv-x="485" 
 />
    <glyph glyph-name="exclam" unicode="!" horiz-adv-x="686" 
d="M369 1778h295l-233 -1290h-208zM147 12c-12 12.667 -20.834 26.835 -26.501 42.502s-8.5 34.667 -8.5 57s5.5 45.166 16.5 68.499s25.167 43.333 42.5 60c36.667 36 81.334 54 134.001 54c93.333 0 140 -43.333 140 -130c0 -56.667 -19.667 -103.334 -59 -140.001
c-36 -33.333 -81.333 -50 -136 -50c-42.667 0 -77 12.667 -103 38z" />
    <glyph glyph-name="quotedbl" unicode="&#x22;" horiz-adv-x="1068" 
d="M301 1687h277l-174 -721h-184zM825 1687h277l-174 -721h-184z" />
    <glyph glyph-name="numbersign" unicode="#" horiz-adv-x="1405" 
d="M304 343h-194l14 178h206l57 353h-200l13 174h212l50 309h205l-48 -309h271l53 309h205l-51 -309h212l-13 -174h-224l-58 -353h207l-14 -178h-219l-56 -343h-200l50 343h-272l-61 -343h-202zM808 521l57 353h-271l-58 -353h272z" />
    <glyph glyph-name="dollar" unicode="$" horiz-adv-x="1204" 
d="M186 294c44 -39.333 113.998 -68.6689 209.998 -88.002c30 -6 61.833 -9 95.5 -9s66.834 3.83301 99.501 11.5s60.667 19.167 84 34.5c50 32.667 75 80.667 75 144c0 51.333 -11.333 93.333 -34 126c-38 54.667 -94.667 108 -170 160
c-85.333 58.667 -146.333 112 -183 160c-72.667 94.667 -109 192.334 -109 293.001c0 107.333 34.667 197.666 104 270.999c70.667 74 165.667 120.333 285 139l38 225h211l-37 -220c109.333 -11.333 193 -38 251 -80l-86 -216c-38.667 40.667 -104.667 67.667 -198 81
c-25.333 3.33301 -51 5 -77 5s-53 -3 -81 -9s-52.667 -15.333 -74 -28c-48.667 -30 -73 -75.333 -73 -136c0 -57.333 16.333 -106.666 49 -147.999c30 -37.333 74 -77.166 132 -119.499s104.333 -77.5 139 -105.5s66.334 -59.333 95.001 -94
c66.667 -80.667 100 -167.667 100 -261c0 -188.667 -80.667 -319.667 -242 -393c-51.333 -23.333 -109 -39.333 -173 -48l-42 -242h-210l41 238c-99.333 10 -186.333 31 -261 63c-20 8.66699 -34.667 17 -44 25z" />
    <glyph glyph-name="percent" unicode="%" horiz-adv-x="1957" 
d="M1303 1530h204l-827 -1530h-214zM638.5 750c-55 -27.333 -112 -40.999 -171 -40.999s-107.333 8.16699 -145 24.5s-69.167 39.166 -94.5 68.499c-50.667 58.667 -76 139.667 -76 243c0 119.333 42.333 225 127 317c88.667 96 195.667 144 321 144
c200.667 0 301 -106.333 301 -319c0 -125.333 -40.333 -235 -121 -329c-39.333 -44.667 -86.5 -80.667 -141.5 -108zM500 874.001c28.667 0 55.834 10.334 81.501 31.001s46.5 46 62.5 76c32.667 59.333 49 118.833 49 178.5s-11.167 105.167 -33.5 136.5
s-52.833 47 -91.5 47s-71.334 -9.83301 -98.001 -29.5s-49 -44.167 -67 -73.5c-35.333 -56.667 -53 -118.334 -53 -185.001c0 -120.667 50 -181 150 -181zM1105 404.002c0 53.333 11.166 107.667 33.499 163s53.5 104.666 93.5 147.999c88.667 96 196 144 322 144
c200 0 300 -106.667 300 -320c0 -125.333 -40.333 -234.666 -121 -327.999c-86 -99.333 -194.667 -149 -326 -149c-97.333 0 -172.666 31 -225.999 93c-50.667 58.667 -76 141.667 -76 249zM1316 499.503c-8.66699 -33.667 -12.999 -64.167 -12.999 -91.5
s3.16699 -52 9.5 -74s15.5 -41 27.5 -57c25.333 -33.333 59.666 -50 102.999 -50c84 0 145 56.667 183 170c14 42 21 86.667 21 134s-11.167 86.5 -33.5 117.5s-52.833 46.5 -91.5 46.5s-71.5 -9.66699 -98.5 -29s-49.5 -43.5 -67.5 -72.5s-31.333 -60.333 -40 -94z" />
    <glyph glyph-name="ampersand" unicode="&#x26;" horiz-adv-x="1550" 
d="M975 41c-102.667 -38.667 -206.501 -57.9951 -311.501 -57.9951s-192.667 7.16699 -263 21.5s-131.5 36.833 -183.5 67.5c-111.333 65.333 -167 163 -167 293c0 129.333 68.667 241.666 206 336.999c40.667 28 83 54.333 127 79c-56 121.333 -84 233.666 -84 336.999
c0 123.333 40.333 224.666 121 303.999c84 82.667 195 124 333 124c128 0 226.333 -34.333 295 -103c56.667 -56.667 85 -120.5 85 -191.5s-12.833 -131 -38.5 -180s-59 -93.333 -100 -133s-87.5 -75.834 -139.5 -108.501l-157 -94c105.333 -174.667 215 -315 329 -421
c50 60 75 132.333 75 217c0 33.333 -4 68.333 -12 105c-45.333 -4 -79 -12.667 -101 -26l10 179c23.333 26.667 74 40 152 40l367 -1l-14 -190h-151c2 -16 3 -33.667 3 -53c0 -160.667 -50.333 -293.334 -151 -398.001c58 -24.667 132.333 -37 223 -37h29l-31 -150
c-43.333 -12.667 -109.666 -19 -198.999 -19s-173.333 19.667 -252 59zM606.999 902.005c88.667 49.333 148.667 90 180 122c60.667 61.333 91 119.666 91 174.999c0 114 -49.333 171 -148 171c-52.667 0 -95.667 -22.667 -129 -68
c-31.333 -43.333 -47 -92.666 -47 -147.999c0 -86.667 17.667 -170.667 53 -252zM479.999 607.005c-103.333 -72 -155 -147.001 -155 -225.001c0 -75.333 33 -130.666 99 -165.999c54.667 -30 129.667 -45 225 -45c53.333 0 103.333 5.33301 150 16
c-100.667 98.667 -185 203 -253 313z" />
    <glyph glyph-name="quotesingle" unicode="'" horiz-adv-x="544" 
d="M301 1687h277l-174 -721h-184z" />
    <glyph glyph-name="parenleft" unicode="(" horiz-adv-x="854" 
d="M186 286c-12.667 72 -18.999 140.665 -18.999 205.998c0 214.667 28.333 401.334 85 560.001c76 215.333 189.333 400.666 340 555.999c71.333 73.333 136 126 194 158l133 -89c-190 -174 -327.667 -392.333 -413 -655c-21.333 -66 -37.333 -129 -48 -189
c-18.667 -110 -28 -216.5 -28 -319.5s8.83301 -196.167 26.5 -279.5s38.834 -156.666 63.501 -219.999c41.333 -105.333 92.666 -193.333 153.999 -264l-142 -85h-17c-74.667 58.667 -144.334 146.334 -209.001 263.001c-54.667 98 -94.667 217.333 -120 358z" />
    <glyph glyph-name="parenright" unicode=")" horiz-adv-x="854" 
d="M704.012 1142.02c12.665 -71.9951 18.998 -140.658 18.998 -205.987c0 -214.653 -28.3311 -401.309 -84.9941 -559.966c-75.9951 -215.32 -189.321 -400.643 -339.979 -555.967c-71.3291 -73.3291 -135.992 -125.992 -193.989 -157.99l-132.992 88.9951
c189.989 173.989 327.647 392.31 412.976 654.961c21.332 65.9961 37.3311 128.992 47.9971 188.988c18.665 109.993 27.998 216.486 27.998 319.479s-8.83301 196.154 -26.498 279.483c-17.666 83.3281 -38.832 156.657 -63.4971 219.986
c-41.3311 105.327 -92.6611 193.321 -153.99 263.983l141.991 84.9951h16.999c74.6621 -58.6631 144.324 -146.324 208.987 -262.983c54.6631 -97.9941 94.6611 -217.32 119.993 -357.979z" />
    <glyph glyph-name="asterisk" unicode="*" horiz-adv-x="1366" 
d="M635 925l35 141l-116 -91l-270 -188l-92 189l303 123l136 51l-125 50l-277 125l122 187l238 -187l99 -88l-6 139l-3 311h215l-68 -311l-38 -139l121 88l274 188l87 -188l-303 -125l-135 -51l125 -50l277 -123l-133 -187l-229 186l-102 91l11 -141l7 -312l-221 1z" />
    <glyph glyph-name="plus" unicode="+" horiz-adv-x="1359" 
d="M556 531l25 150l-132 -7h-237l26 210h238l127 -11l11 152l29 255h225l-26 -255l-27 -151l106 10h265l-26 -210h-265l-104 7l-8 -150l-31 -258h-226z" />
    <glyph glyph-name="comma" unicode="," horiz-adv-x="526" 
d="M61 122l131.002 157.998c69.333 -26.667 121.333 -74 156 -142c26.667 -53.333 40 -109.5 40 -168.5s-7.83301 -113.667 -23.5 -164s-37.834 -96.166 -66.501 -137.499c-58.667 -85.333 -137.667 -144.666 -237 -177.999l-83 108l3 21c76 38 126.667 100.333 152 187
c8 26.667 12 52.334 12 77.001s-2.33301 47 -7 67s-11.334 38 -20.001 54c-16.667 33.333 -38 54.666 -64 63.999z" />
    <glyph glyph-name="hyphen" unicode="-" horiz-adv-x="1266" 
d="M248 874h839l-28 -203h-838z" />
    <glyph glyph-name="period" unicode="." horiz-adv-x="526" 
d="M98 11c-25.333 24.667 -37.999 52.832 -37.999 84.499s4.16699 58.834 12.5 81.501s20.5 42.667 36.5 60c35.333 38 79.666 57 132.999 57c71.333 0 115.333 -26.667 132 -80c5.33301 -16 8 -32.667 8 -50c0 -58.667 -16.667 -105 -50 -139s-74.333 -51 -123 -51
s-85.667 12.333 -111 37z" />
    <glyph glyph-name="slash" unicode="/" horiz-adv-x="854" 
d="M-118 -362l862 1959h224l-863 -1959h-223z" />
    <glyph glyph-name="zero" unicode="0" horiz-adv-x="1278" 
d="M123.5 275c-17 56 -25.5 116.002 -25.5 180.002s7.66699 126.5 23 187.5s37 117.667 65 170s61.667 99.666 101 141.999s82.333 78.166 129 107.499c99.333 62.667 205.333 94 318 94c148 0 259.333 -44.667 334 -134c68 -80 102 -190.333 102 -331
c0 -190.667 -60 -355.667 -180 -495c-76 -88.667 -168.667 -150.667 -278 -186c-54.667 -17.333 -116.5 -26 -185.5 -26s-131.167 13 -186.5 39s-101 60.5 -137 103.5s-62.5 92.5 -79.5 148.5zM369 472.002c0 -34.667 4.33203 -68.999 12.999 -102.999
s21.667 -63.667 39 -89c37.333 -56 86.833 -84 148.5 -84s112.834 14 153.501 42s74 64.333 100 109c51.333 88 77 192.667 77 314c0 190 -65.667 285 -197 285c-116 0 -203.333 -54.333 -262 -163c-48 -88.667 -72 -192.334 -72 -311.001z" />
    <glyph glyph-name="one" unicode="1" horiz-adv-x="983" 
d="M434 847c-54.667 -17.333 -100.167 -28.833 -136.5 -34.5s-65.5 -10.5 -87.5 -14.5l-31 162c99.333 22.667 208 70.667 326 144l90 58l162 -15l-165 -1147h-279z" />
    <glyph glyph-name="two" unicode="2" horiz-adv-x="1269" 
d="M57 136c197.333 102 361.667 210.667 493 326c142.667 125.333 214 233.333 214 324c0 101.333 -53.667 152 -161 152c-74 0 -157.667 -29.667 -251 -89c-24.667 -16 -46.334 -32 -65.001 -48l-96 151c80.667 86 188.334 148 323.001 186c48.667 14 103.667 21 165 21
s117.333 -9.33301 168 -28s92.334 -43.667 125.001 -75c64.667 -60 97 -137.667 97 -233c0 -184.667 -127 -355.667 -381 -513c-72.667 -44.667 -147.334 -87 -224.001 -127l661 30l-36 -213h-993z" />
    <glyph glyph-name="three" unicode="3" horiz-adv-x="1136" 
d="M70 -116c49.333 -6.66699 101 -10.002 155 -10.002s109.5 6.33301 166.5 19s105.833 31.334 146.5 56.001c86.667 52 130 124 130 216c0 88 -40.667 146.667 -122 176c-29.333 10.667 -65.333 16.334 -108 17.001l-164 -36l22 214c174 28 293.333 83.333 358 166
c24 30.667 36 66.334 36 107.001c0 84.667 -55 127 -165 127c-96 0 -192.333 -37.667 -289 -113l-80 177c69.333 66.667 172.333 114.667 309 144c48.667 10 98.334 15 149.001 15s98 -5.66699 142 -17s82.667 -28.666 116 -51.999c73.333 -52.667 110 -125 110 -217
c0 -88.667 -35 -170.334 -105 -245.001c-68 -73.333 -154.333 -126.333 -259 -159c110 -2.66699 197.667 -34.334 263 -95.001c61.333 -57.333 92 -125.5 92 -204.5s-20.5 -149 -61.5 -210s-96.5 -112.833 -166.5 -155.5c-143.333 -87.333 -322 -131 -536 -131
c-46.667 0 -101.334 4 -164.001 12z" />
    <glyph glyph-name="four" unicode="4" horiz-adv-x="1284" 
d="M11 129l315.001 547c143.333 258 247.666 451.333 312.999 580h172l112 -89l-553 -885l-79 -105l410 17l55 420l258 35l-55 -446l226 15l-29 -218h-225l-47 -375h-259l49 375h-606z" />
    <glyph glyph-name="five" unicode="5" horiz-adv-x="1146" 
d="M70 -153c26.667 -4.66699 56.8311 -7.00195 90.498 -7.00195s71.834 2.83301 114.501 8.5s84.167 14.334 124.5 26.001s78.333 26.667 114 45s66.834 40.5 93.501 66.5c57.333 54.667 86 121.334 86 200.001c0 144 -73 216 -219 216
c-85.333 0 -166.666 -17.667 -243.999 -53l-99 105l157 689h567l22 16h188l-60 -238h-507l-97 -360c67.333 21.333 141.666 32 222.999 32c120.667 0 214.167 -31.167 280.5 -93.5s99.5 -153.833 99.5 -274.5c0 -175.333 -79.667 -317 -239 -425
c-154.667 -104 -353 -156 -595 -156c-52.667 0 -96 5.66699 -130 17z" />
    <glyph glyph-name="six" unicode="6" horiz-adv-x="1278" 
d="M155 301.5c-18 63 -27.002 133.331 -27.002 210.998s9.83301 156.834 29.5 237.501s48 157.834 85 231.501s81.667 143 134 208s110.833 124.167 175.5 177.5c134.667 110 287 187 457 231l62 -163c-142 -50 -270.333 -128.667 -385 -236
c-99.333 -94 -165.666 -187 -198.999 -279c80.667 62 184.334 93 311.001 93c118 0 208.667 -41.667 272 -125c55.333 -72.667 83 -166.667 83 -282c0 -162 -46 -302 -138 -420c-64.667 -83.333 -149.667 -142 -255 -176c-54 -17.333 -117 -26 -189 -26
s-136.333 13.667 -193 41s-103.5 64.5 -140.5 111.5s-64.5 102 -82.5 165zM421.998 698.998c-20.667 -74.667 -31.001 -138.333 -31.001 -191s4.83301 -99 14.5 -139s23.834 -74.667 42.501 -104c40.667 -62 97 -93 169 -93c116.667 0 197.667 76.333 243 229
c17.333 56.667 26 110.5 26 161.5s-5 91.5 -15 121.5s-23.667 54.667 -41 74c-32.667 37.333 -72 56 -118 56s-84 -4 -114 -12s-56.667 -18 -80 -30c-39.333 -20 -71.333 -44.333 -96 -73z" />
    <glyph glyph-name="seven" unicode="7" horiz-adv-x="1116" 
d="M782 928l-693 -2l49 217h922l41 -54l-614 -1424l-238 87z" />
    <glyph glyph-name="eight" unicode="8" horiz-adv-x="1330" 
d="M494 796c-123.333 104.667 -185.001 217.998 -185.001 339.998c0 132 45.667 236 137 312c88 74 204.667 111 350 111c121.333 0 222 -30.333 302 -91c80.667 -62 121 -143 121 -243c0 -100.667 -34.667 -189.667 -104 -267c-60 -67.333 -137.333 -117.333 -232 -150
c84.667 -63.333 143 -116.666 175 -159.999c60.667 -82.667 91 -160.5 91 -233.5s-14.167 -135.667 -42.5 -188s-67.166 -96.5 -116.499 -132.5c-102 -74.667 -232.667 -112 -392 -112c-131.333 0 -241.333 31.333 -330 94c-95.333 68 -143 159.667 -143 275
c0 106 37.333 199.667 112 281c64 68.667 149.667 123.334 257 164.001zM765.999 896.998c92.667 48.667 154 117.333 184 206c10 30.667 15 62.667 15 96s-5.16699 61.666 -15.5 84.999s-24.166 42.666 -41.499 57.999c-35.333 32 -73.833 48 -115.5 48
s-75 -5.66699 -100 -17s-46.167 -27 -63.5 -47c-36.667 -41.333 -55 -93.666 -55 -156.999c0 -73.333 38.667 -143.666 116 -210.999c23.333 -20.667 48.666 -41 75.999 -61zM607.999 706.997c-137.333 -78.667 -207.333 -185 -210 -319c0 -66.667 23.333 -122 70 -166
c45.333 -42.667 101 -64 167 -64c68.667 0 124.167 19.833 166.5 59.5s63.5 91.167 63.5 154.5c0 86 -51.667 171.333 -155 256c-31.333 26 -65.333 52.333 -102 79z" />
    <glyph glyph-name="nine" unicode="9" horiz-adv-x="1278" 
d="M787 219c-79.333 -62 -173.003 -92.999 -281.003 -92.999c-123.333 0 -220.333 42 -291 126c-63.333 75.333 -95 170.666 -95 285.999c0 162 46 302 138 420c64.667 83.333 150 142 256 176c54 17.333 116.833 26 188.5 26s135.834 -13.667 192.501 -41
s103.667 -64.333 141 -111c72.667 -93.333 109 -215.666 109 -366.999c0 -252 -83 -481.333 -249 -688c-106 -132.667 -235.333 -238.334 -388 -317.001c-77.333 -40 -158.666 -71 -243.999 -93l-61 163c142.667 50 270.334 128.667 383.001 236c102 96 169 188.333 201 277
zM511.497 339.001c24.333 -9.33301 52.167 -13.999 83.5 -13.999s61.166 4.16699 89.499 12.5s53.5 18.5 75.5 30.5c36 18.667 66.667 42.667 92 72c20.667 82.667 31 149.167 31 199.5s-4.83301 95.5 -14.5 135.5s-24.167 74.667 -43.5 104c-40.667 62 -97 93 -169 93
c-116.667 0 -198 -76.333 -244 -229c-16.667 -56.667 -25 -110.667 -25 -162s5.33301 -92.333 16 -123s25.334 -55.834 44.001 -75.501s40.167 -34.167 64.5 -43.5z" />
    <glyph glyph-name="colon" unicode=":" horiz-adv-x="526" 
d="M78 11c-25.333 24.667 -37.999 52.832 -37.999 84.499s4.16699 58.834 12.5 81.501s20.5 42.667 36.5 60c35.333 38 79.666 57 132.999 57c71.333 0 115.333 -26.667 132 -80c5.33301 -16 8 -32.667 8 -50c0 -58.667 -16.667 -105 -50 -139s-74.333 -51 -123 -51
s-85.667 12.333 -111 37zM170.001 819.998c-25.333 24.667 -37.999 52.832 -37.999 84.499s4.16699 58.834 12.5 81.501s20.5 42.667 36.5 60c35.333 38 79.666 57 132.999 57c71.333 0 115.333 -26.667 132 -80c5.33301 -16 8 -32.667 8 -50
c0 -58.667 -16.667 -105 -50 -139s-74.333 -51 -123 -51s-85.667 12.333 -111 37z" />
    <glyph glyph-name="semicolon" unicode=";" horiz-adv-x="526" 
d="M61 122l131.002 157.998c69.333 -26.667 121.333 -74 156 -142c26.667 -53.333 40 -109.5 40 -168.5s-7.83301 -113.667 -23.5 -164s-37.834 -96.166 -66.501 -137.499c-58.667 -85.333 -137.667 -144.666 -237 -177.999l-83 108l3 21c76 38 126.667 100.333 152 187
c8 26.667 12 52.334 12 77.001s-2.33301 47 -7 67s-11.334 38 -20.001 54c-16.667 33.333 -38 54.666 -64 63.999zM173.002 819.998c-25.333 24.667 -37.999 52.832 -37.999 84.499s4.16699 58.834 12.5 81.501s20.5 42.667 36.5 60c35.333 38 79.666 57 132.999 57
c71.333 0 115.333 -26.667 132 -80c5.33301 -16 8 -32.667 8 -50c0 -58.667 -16.667 -105 -50 -139s-74.333 -51 -123 -51s-85.667 12.333 -111 37z" />
    <glyph glyph-name="less" unicode="&#x3c;" horiz-adv-x="1382" 
d="M213 822l1019 515l-30 -252l-699 -338l616 -339l-23 -230l-899 515z" />
    <glyph glyph-name="equal" unicode="=" horiz-adv-x="1074" 
d="M191 1031h828l-28 -203h-827zM129 530h827l-27 -203h-828z" />
    <glyph glyph-name="greater" unicode="&#x3e;" horiz-adv-x="1382" 
d="M1271.01 696.05l-1018.94 -514.968l29.998 251.984l698.957 337.979l-615.962 338.979l22.998 229.985l898.945 -514.969z" />
    <glyph glyph-name="question" unicode="?" horiz-adv-x="1040" 
d="M354 464c-46 34 -78.665 89.3359 -97.998 166.003c-6 23.333 -9 48.333 -9 75s4.83301 52.667 14.5 78s25.167 50 46.5 74c40.667 45.333 110.667 94 210 146c149.333 72 235 138.333 257 199c10.667 40.667 16 79.167 16 115.5s-8.33301 70.333 -25 102
s-39.334 58.5 -68.001 80.5c-60.667 46 -136 69 -226 69c-78.667 0 -149.334 -9.33301 -212.001 -28l42 185c25.333 23.333 74.666 39.666 147.999 48.999c20.667 2.66699 41 4 61 4c179.333 0 315.333 -43 408 -129c82 -76.667 123 -177.334 123 -302.001
c0 -154 -59.667 -274.667 -179 -362c-34 -25.333 -69 -48 -105 -68l-104 -58c-73.333 -38 -124.666 -77.333 -153.999 -118c-16.667 -22.667 -25 -45 -25 -67s1.83301 -40 5.5 -54s8.16699 -27 13.5 -39l14 -35c4.66699 -10.667 8 -19.334 10 -26.001l-147 -58z
M369.002 11.0029c-25.333 24.667 -37.998 52.832 -37.998 84.499s4.16699 58.834 12.5 81.501s20.5 42.667 36.5 60c35.333 38 79.666 57 132.999 57c71.333 0 115.666 -26.667 132.999 -80c4.66699 -16 7 -32.667 7 -50c0 -58.667 -16.667 -105 -50 -139
s-74.333 -51 -123 -51s-85.667 12.333 -111 37z" />
    <glyph glyph-name="at" unicode="@" horiz-adv-x="1998" 
d="M172.5 28.5c-40.333 101 -60.5029 213.999 -60.5029 338.999s13 239.833 39 344.5s62.5 200.334 109.5 287.001s103.833 164 170.5 232s140.334 125 221.001 171c166.667 95.333 351.334 143 554.001 143c218.667 0 392 -58.333 520 -175c128 -116 192 -273 192 -471
c0 -265.333 -69.333 -484 -208 -656c-81.333 -100.667 -172.666 -169 -273.999 -205c-49.333 -18 -90.833 -27 -124.5 -27s-57.334 4.66699 -71.001 14s-24.5 22.333 -32.5 39c-13.333 30 -20 65 -20 105c0 64 4 131.333 12 202c-73.333 -172.667 -160.333 -285 -261 -337
c-34.667 -18 -69.667 -27 -105 -27s-70.666 8.33301 -105.999 25c-75.333 36.667 -130 108 -164 214c-16.667 50.667 -25 110 -25 178c0 176 47 330 141 462c64 88.667 145.333 151.334 244 188.001c51.333 18.667 96 28 134 28s66.667 -1 86 -3s39.333 -5 60 -9
c49.333 -10.667 86 -24.667 110 -42l180 30c-33.333 -127.333 -66.333 -353.333 -99 -678l-7 -64c-2.66699 -30.667 -4 -53.334 -4 -68.001v-37c0 -18 4.33301 -27 13 -27c51.333 0 102.333 33.333 153 100c74.667 100 125.334 232.667 152.001 398
c8 52.667 12 117.834 12 195.501s-14.833 150.167 -44.5 217.5s-69.834 120.666 -120.501 159.999c-91.333 70.667 -220.666 106 -387.999 106c-168.667 0 -320.334 -48.333 -455.001 -145c-124.667 -90 -222 -210.333 -292 -361c-69.333 -147.333 -104 -303 -104 -467
c0 -300.667 106 -502 318 -604c89.333 -43.333 192.333 -65 309 -65c104 0 203.667 15.667 299 47c26 8 47 16 63 24l46 -134c-72.667 -54 -173 -90 -301 -108c-40.667 -5.33301 -82.334 -8 -125.001 -8c-238.667 0 -431.667 71 -579 213
c-71.333 69.333 -127.166 154.5 -167.499 255.5zM775.997 465.999c0 -158.667 35.999 -238.001 107.999 -238.001c54.667 0 122.334 81.333 203.001 244c74.667 150 119.667 281.333 135 394c-21.333 28 -59.333 46.667 -114 56c-14 2 -32 3 -54 3
s-46.5 -6.83301 -73.5 -20.5s-51.333 -32.167 -73 -55.5s-40.667 -50.333 -57 -81s-29.833 -63 -40.5 -97c-22.667 -69.333 -34 -137.666 -34 -204.999z" />
    <glyph glyph-name="A" unicode="A" horiz-adv-x="1305" 
d="M644 1530h334l257 -1530l-277 -1l-48 342h-561l-148 -341l-301 -1zM882 537l-95 682l-10 118l-47 -121l-296 -679h448z" />
    <glyph glyph-name="B" unicode="B" horiz-adv-x="1296" 
d="M297 1530l141.001 0.00195312c48 0.666992 97.167 3.5 147.5 8.5s111.666 7.5 183.999 7.5s139.166 -9.33301 200.499 -28s110.333 -43.334 147 -74.001c67.333 -57.333 101 -136 101 -236v-42.5c0 -25.667 -6.5 -59.834 -19.5 -102.501s-32.5 -81 -58.5 -115
c-54 -72 -129 -120.333 -225 -145c134.667 -23.333 223.667 -89 267 -197c14 -35.333 21 -64 21 -86v-35c0 -171.333 -64.667 -299 -194 -383c-119.333 -78 -290.666 -117 -513.999 -117c-20 0 -42.333 1 -67 3l-150 10c-24 1.33301 -45 2 -63 2h-124zM486.001 886.002
c21.333 -1.33301 43.334 -1.99902 66.001 -1.99902h65c153.333 0 252.666 54.333 297.999 163c14.667 35.333 22 76.666 22 123.999c0 68 -21 115.5 -63 142.5s-105 40.5 -189 40.5c-59.333 0 -105 -2 -137 -6zM393.002 192.003c32 -8 78.1689 -12.001 138.502 -12.001
s113.166 4.66699 158.499 14c146.667 28.667 220 119 220 271c0 84.667 -24.833 144.334 -74.5 179.001s-122.834 52 -219.501 52c-62.667 0 -114.667 -1.66699 -156 -5z" />
    <glyph glyph-name="C" unicode="C" horiz-adv-x="1167" 
d="M781 -2c-49.333 -9.33301 -105.499 -14 -168.499 -14s-120.167 8.5 -171.5 25.5s-96.333 40.667 -135 71s-71.334 66 -98.001 107s-48.334 85.167 -65.001 132.5c-32.667 92.667 -49 189.5 -49 290.5s8.16699 190.333 24.5 268s40.333 150.5 72 218.5
s70.334 129.667 116.001 185s96.834 102.666 153.501 141.999c118.667 81.333 250.334 122 395.001 122c91.333 0 169.666 -11.333 234.999 -34l50 -18l54 -16l-86 -250l-37 25c-60.667 40.667 -140 61 -238 61c-158.667 0 -278 -76 -358 -228
c-66 -124 -99 -269.333 -99 -436c0 -215.333 56.333 -352.666 169 -411.999c38 -20.667 80 -31 126 -31s86.667 3.5 122 10.5s67.333 15.833 96 26.5c54.667 19.333 96.667 40 126 62l38 -208c-54.667 -44 -145.334 -77.333 -272.001 -100z" />
    <glyph glyph-name="D" unicode="D" horiz-adv-x="1400" 
d="M436 1530l342 16.001c386 0 579 -210 579 -630c0 -262 -69.333 -480.333 -208 -655c-94 -118.667 -214.333 -200.334 -361 -245.001c-70.667 -21.333 -146.667 -32 -228 -32c-43.333 0 -81.5 1.33301 -114.5 4l-76 6c-17.667 1.33301 -35.5 2.33301 -53.5 3l-54 2
c-17.333 0.666992 -33.333 1 -48 1h-123l206 1530h139zM396 214.001c49.333 -16.667 106.668 -25 172.001 -25h24c157.333 2 279.333 79 366 231c76 132 114 294.667 114 488c0 166.667 -29 282 -87 346c-54 59.333 -145 89 -273 89
c-54.667 0 -110.334 -5.66699 -167.001 -17z" />
    <glyph glyph-name="E" unicode="E" horiz-adv-x="1171" 
d="M297 1530h841l-22 -216l-572 5l-57 -432l428 6l-24 -221l-432 12l-63 -474l666 13l-25 -223h-946z" />
    <glyph glyph-name="F" unicode="F" horiz-adv-x="1069" 
d="M297 1530h824l-28 -216l-549 6l-59 -449l449 7l-24 -230l-454 12l-89 -660h-276z" />
    <glyph glyph-name="G" unicode="G" horiz-adv-x="1384" 
d="M215 186c-82.667 116.667 -124.002 263.665 -124.002 440.998c0 269.333 74 490 222 662c94 110 208 185.667 342 227c66.667 20 129.834 30 189.501 30s108.5 -2 146.5 -6s72 -8.66699 102 -14c45.333 -8.66699 90.666 -20.667 135.999 -36l66 -22l-68 -250
c-60 43.333 -140.667 74.333 -242 93c-39.333 7.33301 -85.5 11 -138.5 11s-103.333 -10 -151 -30s-89.667 -47.167 -126 -81.5s-67.166 -74.5 -92.499 -120.5c-70.667 -127.333 -106 -274 -106 -440v-55c0 -32.667 5.83301 -76 17.5 -130s30.167 -101 55.5 -141
c54.667 -86.667 135.334 -130 242.001 -130c99.333 0 186.333 18 261 54l46 322h-240l27 220h501l-94 -703c-28.667 -3.33301 -63 -10.666 -103 -21.999l-105 -31c-116 -33.333 -218 -50 -306 -50s-158.667 8.66699 -212 26c-103.333 32.667 -185.333 91.334 -246 176.001z
" />
    <glyph glyph-name="H" unicode="H" horiz-adv-x="1455" 
d="M291 1530h276l-91 -675h568l91 675h278l-206 -1530h-278l88 658h-568l-88 -658h-276z" />
    <glyph glyph-name="I" unicode="I" horiz-adv-x="643" 
d="M319 1530h276l-206 -1530h-276z" />
    <glyph glyph-name="J" unicode="J" horiz-adv-x="640" 
d="M122 110c10.667 49.333 22.166 112.166 34.499 188.499s24.333 156 36 239s22.834 167.833 33.501 254.5l89 738h277l-124 -945l-34 -240c-22.667 -149.333 -41.5 -250.833 -56.5 -304.5s-40.833 -106 -77.5 -157s-78 -92.167 -124 -123.5
c-82.667 -54.667 -186.667 -86.667 -312 -96l-39 103c78 22.667 144 65.334 198 128.001c48 55.333 81 127 99 215z" />
    <glyph glyph-name="K" unicode="K" horiz-adv-x="1291" 
d="M297 1530l276 0.000976562l-97 -719l600 719h318l-610 -677l140 -255c163.333 -308.667 274 -508.334 332 -599.001l-328 2c-4.66699 6.66699 -12 19.667 -22 39l-140 283c-8 14 -18 34 -30 60l-130 272l-178 -197l-61 -458h-276z" />
    <glyph glyph-name="L" unicode="L" horiz-adv-x="1023" 
d="M297 1530h276l-176 -1309l534 8l-32 -229h-808z" />
    <glyph glyph-name="M" unicode="M" horiz-adv-x="1890" 
d="M408 1530h385l114 -1056l11 -197l49 197l391 1056h402l-30 -1530h-277l69 1080l26 308l-105 -284l-437 -1107l-265 -15l-140 1109l-19 297l-56 -302l-243 -1086h-274z" />
    <glyph glyph-name="N" unicode="N" horiz-adv-x="1450" 
d="M297 1530h257l398 -927l71 -233l16 254l110 906h265l-206 -1530h-245l-402 954l-76 254l-12 -287l-120 -921h-262z" />
    <glyph glyph-name="O" unicode="O" horiz-adv-x="1386" 
d="M218 164c-88 112.667 -132.001 259.667 -132.001 441c0 264 65.667 484.667 197 662c88 118 196.667 199.667 326 245c64.667 22.667 137 34 217 34s152 -16.167 216 -48.5s117.667 -76.166 161 -131.499c87.333 -114 131 -261.667 131 -443
c0 -261.333 -65 -481 -195 -659c-86.667 -119.333 -194 -201.333 -322 -246c-65.333 -22.667 -138.166 -34 -218.499 -34s-153 16.167 -218 48.5s-119.167 76.166 -162.5 131.499zM522.999 216c32.667 -15.333 70.5 -23.001 113.5 -23.001s83 9.5 120 28.5
s70.833 45 101.5 78s57.667 72.5 81 118.5c73.333 140.667 110 300 110 478c0 230.667 -50.667 369.334 -152 416.001c-32.667 15.333 -70.5 23 -113.5 23s-83 -9.66699 -120 -29s-70.833 -45.833 -101.5 -79.5s-57.667 -73.167 -81 -118.5
c-73.333 -141.333 -110 -299 -110 -473c0 -231.333 50.667 -371 152 -419z" />
    <glyph glyph-name="P" unicode="P" horiz-adv-x="1239" 
d="M873 550.5c-78.667 -31 -162.17 -46.5 -250.503 -46.5s-150.5 2 -186.5 6l-69 -510h-276l206 1530h136c44 0 91.833 2.66699 143.5 8s112.334 8 182.001 8s135.334 -8.5 197.001 -25.5s113.834 -42.5 156.501 -76.5c86.667 -70.667 130 -176.667 130 -318
c0 -183.333 -56 -332 -168 -446c-55.333 -55.333 -122.333 -98.5 -201 -129.5zM464.997 727c32 -8.66699 79.501 -12.833 142.501 -12.5s116.167 9.33301 159.5 27s79.666 43.167 108.999 76.5c60.667 70 91 171.667 91 305c0 150.667 -90 226 -270 226
c-25.333 0 -47.333 -1 -66 -3l-49 -6c-13.333 -2 -25.333 -4 -36 -6z" />
    <glyph glyph-name="Q" unicode="Q" horiz-adv-x="1387" 
d="M881 -154c32.667 -3.33301 86.501 -5.00098 161.501 -5.00098s139.5 9 193.5 27v-178c-40.667 -34.667 -124 -59.334 -250 -74.001c-34.667 -4 -68.334 -6 -101.001 -6s-66.167 2.83301 -100.5 8.5s-66.333 14.667 -96 27s-56.5 28.5 -80.5 48.5
c-56.667 47.333 -85 112.333 -85 195c0 30 4.33301 63 13 99c-143.333 16.667 -255.333 83.334 -336 200.001c-76 110 -114 249 -114 417c0 264 65.667 484.667 197 662c88 118 196.667 199.667 326 245c64.667 22.667 137 34 217 34s152 -16.167 216 -48.5
s117.667 -76.166 161 -131.499c87.333 -114 131 -260.667 131 -440c0 -240.667 -55 -446.667 -165 -618c-114.667 -178.667 -265.667 -283.667 -453 -315c-2 -88 53 -137 165 -147zM523.001 215.999c32.667 -15.333 70.5 -23.001 113.5 -23.001s83 9.5 120 28.5
s70.833 45 101.5 78s57.667 72.5 81 118.5c73.333 140.667 110 300 110 478c0 230.667 -50.667 369.334 -152 416.001c-32.667 15.333 -70.5 23 -113.5 23s-83 -9.66699 -120 -29s-70.833 -45.833 -101.5 -79.5s-57.667 -73.167 -81 -118.5
c-73.333 -141.333 -110 -299 -110 -473c0 -231.333 50.667 -371 152 -419z" />
    <glyph glyph-name="R" unicode="R" horiz-adv-x="1307" 
d="M564 612l-114.001 1.00195l-84 -613h-276l206 1530h152l299 16c339.333 0 509 -127 509 -381c0 -188.667 -63 -331.334 -189 -428.001c-43.333 -33.333 -94.666 -59 -153.999 -77c56.667 -50.667 104 -139.667 142 -267c71.333 -192 114.333 -302.167 129 -330.5
s27 -49.5 37 -63.5l-309 2c-11.333 16.667 -23.333 43.334 -36 80.001c-28 85.333 -50 155.166 -66 209.499s-31 100 -45 137s-28.333 69.167 -43 96.5c-31.333 57.333 -62 86.666 -92 87.999h-66zM477.999 830.002c13.333 -0.666992 29.667 -1.33301 49 -2h59
c20.667 -0.666992 40 -1 58 -1h43c99.333 0 175 35 227 105c41.333 56.667 62 128 62 214c0 74 -22.167 126 -66.5 156s-107.833 45 -190.5 45c-59.333 0 -117 -4.33301 -173 -13z" />
    <glyph glyph-name="S" unicode="S" horiz-adv-x="1051" 
d="M100 302c45.333 -40.667 116.668 -70.6689 214.001 -90.002c30.667 -6 62.834 -9 96.501 -9s66.5 4 98.5 12s59.667 20 83 36c48 33.333 72 82 72 146c0 52 -11.333 93.333 -34 124c-36 50 -92.333 102 -169 156c-84.667 60 -144.667 113.333 -180 160
c-70 92 -105 185.667 -105 281c0 130.667 45.667 234.667 137 312s212 116 362 116c158 0 275.333 -28.333 352 -85l-87 -216c-40.667 40.667 -104.667 67.667 -192 81c-25.333 3.33301 -51.333 5 -78 5s-53.834 -3.16699 -81.501 -9.5s-51.834 -16.5 -72.501 -30.5
c-48 -32 -72 -79.667 -72 -143c0 -78 39.667 -149.667 119 -215c26.667 -22 57 -45.333 91 -70s68.333 -51.167 103 -79.5s66 -59.5 94 -93.5c64.667 -79.333 97 -160.166 97 -242.499s-13.5 -151.666 -40.5 -207.999s-65.167 -103.5 -114.5 -141.5
c-98.667 -76 -232 -114 -400 -114c-116.667 0 -225 21.333 -325 64c-26 10.667 -44.667 20.667 -56 30z" />
    <glyph glyph-name="T" unicode="T" horiz-adv-x="1138" 
d="M526 1325l-393 -11l33 216h1055l-30 -216l-386 11l-178 -1325h-279z" />
    <glyph glyph-name="U" unicode="U" horiz-adv-x="1402" 
d="M399 15c-179.333 62 -269 205.667 -269 431c0 33.333 4.33301 83 13 149l125 935h276l-120 -895c-8 -62.667 -11.667 -132 -11 -208c1.33301 -151.333 81 -227 239 -227c96 0 169.667 32.333 221 97c54 67.333 92.333 181.333 115 342l119 891h273l-122 -918
c-30 -224 -97.667 -385.667 -203 -485c-101.333 -95.333 -249.333 -143 -444 -143c-81.333 0 -152 10.333 -212 31z" />
    <glyph glyph-name="V" unicode="V" horiz-adv-x="1201" 
d="M116 1530h276l140 -1040l21 -242l82 242l416 1040h292l-678 -1530h-311z" />
    <glyph glyph-name="W" unicode="W" horiz-adv-x="1788" 
d="M112 1530h277l100 -1037l26 -219l64 219l300 758l-30 279h268l107 -1256l63 219l376 1037h282l-612 -1535h-308l-76 703l-16 169l-58 -169l-265 -703h-290z" />
    <glyph glyph-name="X" unicode="X" horiz-adv-x="1201" 
d="M482 801l-320 729h299l203 -545l353 545h305l-540 -786l347 -744l-307 -1l-225 576l-358 -575h-318z" />
    <glyph glyph-name="Y" unicode="Y" horiz-adv-x="1124" 
d="M429 590l-346 940h292l195 -608l28 -105l48 105l348 608h303l-597 -940l-80 -590h-271z" />
    <glyph glyph-name="Z" unicode="Z" horiz-adv-x="1158" 
d="M-27 89l777 1114l114 113l-639 -12l34 226h937l24 -86l-761 -1114l-104 -110l685 11l-37 -231h-1002z" />
    <glyph glyph-name="bracketleft" unicode="[" horiz-adv-x="854" 
d="M340 -225c-123.333 0 -185.002 54.335 -185.002 163.002c0 33.333 1.33301 65.666 4 96.999s6.83398 70.833 12.501 118.5s12.834 103.167 21.501 166.5l171 1178c14 98.667 38 168 72 208c36.667 42 93.667 63 171 63c60.667 0 159 -15.667 295 -47l-20 -131h-265
l-218 -1634h79l108 -1h78c-1.33301 -8 -3.5 -24.333 -6.5 -49s-5.33301 -43.334 -7 -56.001s-2.5 -20.667 -2.5 -24l-68 -19c-81.333 -22 -161.333 -33 -240 -33z" />
    <glyph glyph-name="backslash" unicode="\" horiz-adv-x="854" 
d="M16 1597h221l577 -1959h-222z" />
    <glyph glyph-name="bracketright" unicode="]" horiz-adv-x="854" 
d="M576.021 1780.99c123.326 0 184.989 -54.3311 184.989 -162.991c0 -33.3311 -1.33301 -65.6621 -4 -96.9932s-6.83301 -70.8281 -12.499 -118.491c-5.66699 -47.6641 -12.833 -103.161 -21.499 -166.49l-170.989 -1177.93
c-13.999 -98.6611 -37.998 -167.99 -71.9961 -207.987c-36.6641 -41.998 -93.6602 -62.9971 -170.989 -62.9971c-60.6631 0 -158.99 15.666 -294.982 46.998l19.999 130.992h264.984l217.986 1633.9h-78.9951l-107.993 1h-77.9951
c1.33301 7.99902 3.49902 24.3311 6.49902 48.9961l7 55.9971c1.66602 12.666 2.49902 20.665 2.49902 23.998l67.9961 18.999c81.3291 21.999 161.324 32.998 239.985 32.998z" />
    <glyph glyph-name="asciicircum" unicode="^" horiz-adv-x="1364" 
d="M672 1531h232l262 -1021h-221l-181 739l-388 -739h-225z" />
    <glyph glyph-name="underscore" unicode="_" horiz-adv-x="1335" 
d="M1287 -187l-20 -176h-1378l20 176h1378z" />
    <glyph glyph-name="grave" unicode="`" horiz-adv-x="544" 
d="M407 1234c-49.333 19.333 -120.333 70 -213 152c-94.667 83.333 -153 146.333 -175 189l181 169l311 -426z" />
    <glyph glyph-name="a" unicode="a" horiz-adv-x="1207" 
d="M537 1124c62.667 21.333 130.333 31.998 203 31.998s153.667 -13 243 -39l149 39l-159 -1156h-246l14 217c-60 -104.667 -136.667 -175.667 -230 -213c-34.667 -13.333 -76.5 -20 -125.5 -20s-94 10.833 -135 32.5s-74.5 51.834 -100.5 90.501
c-49.333 74.667 -74 177 -74 307c0 189.333 54.333 355.333 163 498c76 100.667 175.333 171.334 298 212.001zM362.999 436.998c0 -171.333 38.665 -257.001 115.998 -257.001c54 0 109.667 35.333 167 106c44 52.667 84 119.334 120 200.001l67 480
c-30 9.33301 -67 14 -111 14s-82.667 -7.83301 -116 -23.5s-63.166 -37 -89.499 -64s-49.166 -58.5 -68.499 -94.5s-35.333 -74 -48 -114c-24.667 -78 -37 -160.333 -37 -247z" />
    <glyph glyph-name="b" unicode="b" horiz-adv-x="1227" 
d="M467 -16c-78.667 0 -159 13.668 -241 41.001l-146 -33l222 1644h264l-70 -574l-27 -147c60 107.333 139 180.333 237 219c36 14.667 78.833 22 128.5 22s95 -11 136 -33s74.167 -52.333 99.5 -91c50 -74.667 75 -177.334 75 -308.001c0 -188.667 -55 -354.667 -165 -498
c-124.667 -161.333 -295.667 -242 -513 -242zM857 702.001c0 170.667 -38.335 255.997 -115.002 255.997c-74 0 -150.333 -60.667 -229 -182c-28 -42.667 -52.333 -88 -73 -136l-60 -466c28 -8.66699 64.667 -13 110 -13s85 7.83301 119 23.5s64.333 36.834 91 63.501
s49.834 57.834 69.501 93.501s35.834 73.834 48.501 114.501c26 79.333 39 161.333 39 246z" />
    <glyph glyph-name="c" unicode="c" horiz-adv-x="931" 
d="M538 187c81.333 0 164.331 42.334 248.998 127.001l77 -138c-56.667 -82 -140 -139.667 -250 -173c-42 -12.667 -93 -19 -153 -19s-114.833 12 -164.5 36s-90.5 56.667 -122.5 98c-62.667 80 -94 186.667 -94 320c0 192 53.333 357.333 160 496
c52 67.333 115 121.166 189 161.499s157.667 60.5 251 60.5c100.667 0 180.334 -13.333 239.001 -40l-68 -255c-64.667 55.333 -129 83 -193 83c-77.333 0 -145 -41.333 -203 -124c-62.667 -89.333 -94 -204 -94 -344c0 -150.667 32.333 -241.667 97 -273
c22.667 -10.667 49.334 -16 80.001 -16z" />
    <glyph glyph-name="d" unicode="d" horiz-adv-x="1218" 
d="M540 1124c63.333 21.333 123.167 31.998 179.5 31.998s103.833 -3.33301 142.5 -10l67 490h270l-216 -1636h-247l15 230c-59.333 -109.333 -138.333 -184 -237 -224c-36 -14.667 -78.833 -22 -128.5 -22s-95 10.833 -136 32.5s-74.167 51.834 -99.5 90.501
c-50 74.667 -75 177 -75 307c0 188 55 354 165 498c77.333 100.667 177.333 171.334 300 212.001zM362.001 436.998c0 -170 38.666 -255 115.999 -255c54.667 0 112.334 36 173.001 108c44.667 54 85.334 121.667 122.001 203l64 469c-37.333 12 -76.166 18 -116.499 18
s-77.333 -7.83301 -111 -23.5s-63.834 -37 -90.501 -64s-49.834 -58.5 -69.501 -94.5s-36.167 -74 -49.5 -114c-25.333 -78.667 -38 -161 -38 -247z" />
    <glyph glyph-name="e" unicode="e" horiz-adv-x="1074" 
d="M370 392c0 -140 59 -209.999 177 -209.999c84 0 170 33.333 258 100c26 19.333 49.333 39.666 70 60.999l73 -141c-37.333 -52.667 -92.333 -99.334 -165 -140.001c-92 -52 -182 -78 -270 -78s-158.333 12.667 -211 38c-148.667 72.667 -223 209 -223 409
c0 102.667 16 198.834 48 288.501s75.5 166.5 130.5 230.5s120.167 114.333 195.5 151s148.5 55 219.5 55s126 -6.33301 165 -19s71.5 -30.334 97.5 -53.001c50 -43.333 75 -104.666 75 -183.999c0 -221.333 -165 -376 -495 -464c-50 -13.333 -98.333 -24 -145 -32v-12z
M638 984.001c-98 0 -174.666 -80.667 -229.999 -242c-20.667 -60 -33.334 -119.667 -38.001 -179c78 4.66699 157 35 237 91c88.667 62 133 132.5 133 211.5s-34 118.5 -102 118.5z" />
    <glyph glyph-name="f" unicode="f" horiz-adv-x="730" 
d="M865 1451c-34 26.667 -73.667 40 -119 40c-92 0 -148 -65.333 -168 -196l-24 -155h200l-20 -186h-203l-130 -954h-272l130 954h-130l34 186h122l16 100c17.333 131.333 65.666 236 144.999 314c82 81.333 185.667 122 311 122c70.667 0 125.334 -8.66699 164.001 -26z
" />
    <glyph glyph-name="g" unicode="g" horiz-adv-x="1213" 
d="M540 1124c63.333 21.333 131.332 31.9961 203.999 31.9961s153.667 -13 243 -39l152 39l-167 -1217c-30.667 -207.333 -142 -344.666 -334 -411.999c-72.667 -25.333 -154.667 -38 -246 -38c-72.667 0 -133.334 5.5 -182.001 16.5s-78 18.833 -88 23.5l51 210
c48 -27.333 98.333 -46 151 -56s95.834 -15 129.501 -15s64.334 5.5 92.001 16.5s51.167 26.833 70.5 47.5c33.333 36.667 58 93.667 74 171l55 316c-62.667 -105.333 -141 -176.666 -235 -213.999c-34.667 -14 -76.5 -21 -125.5 -21s-94 10.833 -135 32.5
s-74.167 51.834 -99.5 90.501c-50 74.667 -75 177 -75 307c0 188 55 354 165 498c77.333 100.667 177.333 171.334 300 212.001zM361.999 436.996c0 -170 38.6709 -254.999 116.004 -254.999c53.333 0 110 35 170 105c45.333 53.333 85.666 119.666 120.999 198.999l67 481
c-34 8.66699 -71.833 13 -113.5 13s-79.334 -7.83301 -113.001 -23.5s-63.834 -37 -90.501 -64s-49.834 -58.5 -69.501 -94.5s-36.167 -74 -49.5 -114c-25.333 -78.667 -38 -161 -38 -247z" />
    <glyph glyph-name="h" unicode="h" horiz-adv-x="1256" 
d="M297 1636l271.998 0.000976562l-64 -520l-35 -199c83.333 112 182 185.667 296 221c38 12 77 18 117 18c124.667 0 202.334 -52.667 233.001 -158c11.333 -38 17 -73.833 17 -107.5s-1 -62 -3 -85s-4.83301 -49.5 -8.5 -79.5s-8.16699 -63 -13.5 -99
c-13.333 -102.667 -24 -180.334 -32 -233.001l-58 -394h-276l54 384c6.66699 44 13.667 93 21 147c26.667 198 35 313 25 345c-10.667 36.667 -39.667 55 -87 55c-45.333 0 -97.333 -21 -156 -63c-57.333 -42 -106.666 -93.667 -147.999 -155l-97 -713h-271z" />
    <glyph glyph-name="i" unicode="i" horiz-adv-x="624" 
d="M258 1140h277l-157 -1140h-276zM509.5 1367c-22.333 -9.33301 -45.333 -13.999 -69 -13.999s-44.167 3.66699 -61.5 11c-36 14.667 -61.667 40 -77 76c-6.66699 16 -10 34.833 -10 56.5s4.83301 43.167 14.5 64.5s22.5 39.666 38.5 54.999c34 34.667 75.333 52 124 52
c70 0 116.667 -28.667 140 -86c6.66699 -16 10 -34.5 10 -55.5s-4.66699 -42.5 -14 -64.5s-22 -41 -38 -57s-35.167 -28.667 -57.5 -38z" />
    <glyph glyph-name="j" unicode="j" horiz-adv-x="622" 
d="M-182 -339c9.33301 -7.33301 30.499 -11.001 63.499 -11.001s63.667 11.333 92 34s51.166 53.334 68.499 92.001c24.667 53.333 47.334 150.333 68.001 291l147 1073h277l-156 -1138c-22 -163.333 -77.333 -292 -166 -386c-86 -91.333 -188.333 -137 -307 -137
c-71.333 0 -123.666 12 -156.999 36zM506.499 1367c-22.333 -9.33301 -45.333 -13.999 -69 -13.999s-44.167 3.66699 -61.5 11c-36 14.667 -61.667 40 -77 76c-6.66699 16 -10 34.833 -10 56.5s4.83301 43.167 14.5 64.5s22.5 39.666 38.5 54.999
c34 34.667 75.333 52 124 52c70 0 116.667 -28.667 140 -86c6.66699 -16 10 -34.5 10 -55.5s-4.66699 -42.5 -14 -64.5s-22 -41 -38 -57s-35.167 -28.667 -57.5 -38z" />
    <glyph glyph-name="k" unicode="k" horiz-adv-x="1134" 
d="M297 1636h272l-214 -1636h-272zM473 632h1.99902l-2 1c57.333 32 107.333 70.833 150 116.5s83.334 99.5 122.001 161.5c56 78 96 154.333 120 229h270c-6 -74.667 -34 -150.667 -84 -228c-58.667 -102 -135 -186.667 -229 -254c-26.667 -19.333 -51.667 -35 -75 -47
l345 -609h-318z" />
    <glyph glyph-name="l" unicode="l" horiz-adv-x="625" 
d="M326 1636h277l-223 -1634h-276z" />
    <glyph glyph-name="m" unicode="m" horiz-adv-x="1867" 
d="M235 1140h265.001l-18 -207c81.333 105.333 174.666 174.333 279.999 207c36 10.667 73 16 111 16c68 0 122.667 -16.667 164 -50s67 -89.333 77 -168c80.667 102 173.334 169.333 278.001 202c36 10.667 73.167 16 111.5 16s72.666 -5.33301 102.999 -16
s56.166 -27.667 77.499 -51c42 -47.333 63 -123.666 63 -228.999c0 -26.667 -3 -63 -9 -109l-15 -124c-4.66699 -36 -10 -74.667 -16 -116l-74 -509h-276l72 510c29.333 209.333 39 330.666 29 363.999c-11.333 36.667 -40.666 55 -87.999 55
c-58.667 0 -124.667 -35.667 -198 -107c-22.667 -22 -43.334 -45.667 -62.001 -71c-3.33301 -32 -7.66602 -68.333 -12.999 -109l-55 -391l-37 -251h-276l55 382l20 147c26.667 196 34.667 311 24 345c-10.667 36.667 -39.667 55 -87 55c-68 0 -142 -43.333 -222 -130
c-24 -26 -45.667 -54 -65 -84l-98 -715h-276z" />
    <glyph glyph-name="n" unicode="n" horiz-adv-x="1257" 
d="M235 1140h263l-16 -212c83.333 108 180 178.333 290 211c37.333 11.333 75.833 17 115.5 17s75 -5.33301 106 -16s57.167 -27.667 78.5 -51c42.667 -48 64 -124.333 64 -229c0 -26.667 -2.66699 -63 -8 -109l-16 -124c-4.66699 -36 -10 -74.667 -16 -116l-74 -509h-276
l54 382c6.66699 44 13.667 93 21 147c26.667 195.333 35 310.333 25 345c-10 36.667 -39.333 55 -88 55c-71.333 0 -150 -45 -236 -135c-26 -26.667 -49 -55 -69 -85l-97 -709h-276z" />
    <glyph glyph-name="o" unicode="o" horiz-adv-x="1158" 
d="M301 19c-150 69.333 -225 218.333 -225 447c0 184 53 342.667 159 476c71.333 90 160.666 152.667 267.999 188c54.667 17.333 115 26 181 26s124 -11.667 174 -35s91 -55.666 123 -96.999c64.667 -83.333 97 -200 97 -350c0 -184.667 -52.333 -343.334 -157 -476.001
c-111.333 -142.667 -258.666 -214 -441.999 -214c-68.667 0 -128 11.667 -178 35zM355 452c0 -191.333 54.335 -287 163.002 -287c91.333 0 162.666 59 213.999 177c42.667 97.333 64 211.333 64 342c0 102.667 -12.833 177 -38.5 223s-65.5 69 -119.5 69
c-90.667 0 -162.334 -60 -215.001 -180c-45.333 -101.333 -68 -216 -68 -344z" />
    <glyph glyph-name="p" unicode="p" horiz-adv-x="1227" 
d="M285 -503l-272.999 0.000976562l221 1643h251l-10 -210c62 101.333 139.667 170 233 206c34.667 13.333 76.5 20 125.5 20s94 -10.833 135 -32.5s74.5 -51.5 100.5 -89.5c49.333 -73.333 74 -175.333 74 -306c0 -188 -55.333 -354.667 -166 -500
c-76 -100.667 -176 -171.334 -300 -212.001c-63.333 -21.333 -122.833 -32 -178.5 -32s-103.834 3.66699 -144.501 11zM854.001 705.001c0 168.667 -38.333 253.001 -115 253.001c-56 0 -113.667 -35.333 -173 -106c-48.667 -56.667 -89.334 -122.667 -122.001 -198
l-66 -480c28 -8.66699 64.5 -13 109.5 -13s84.5 7.83301 118.5 23.5s64.333 37 91 64s49.834 58.5 69.501 94.5s36.167 74.333 49.5 115c25.333 79.333 38 161.666 38 246.999z" />
    <glyph glyph-name="q" unicode="q" horiz-adv-x="1219" 
d="M540 1124c63.333 21.333 131.667 31.998 205 31.998s153.333 -12.667 240 -38l151 41l-220 -1658h-273l67 501l38 224c-60.667 -108 -139.334 -181.333 -236.001 -220c-35.333 -14.667 -77.666 -22 -126.999 -22s-94.5 10.833 -135.5 32.5s-74.167 51.834 -99.5 90.501
c-50 74.667 -75 177 -75 307c0 188 55 354 165 498c77.333 100.667 177.333 171.334 300 212.001zM362.001 436.998c0 -170 38.6689 -255 116.002 -255c52.667 0 108.334 34 167.001 102c44 50.667 84.667 116 122 196l66 488c-34 8 -71.333 12 -112 12
s-77.834 -7.83301 -111.501 -23.5s-63.834 -37 -90.501 -64s-49.834 -58.5 -69.501 -94.5s-36.167 -74 -49.5 -114c-25.333 -78.667 -38 -161 -38 -247z" />
    <glyph glyph-name="r" unicode="r" horiz-adv-x="846" 
d="M816 858c-16 13.333 -42.001 20 -78.001 20s-65.833 -4.16699 -89.5 -12.5s-47.167 -20.5 -70.5 -36.5c-48 -33.333 -90.333 -80.333 -127 -141l-95 -688h-276l156 1140h265l-18 -216c26.667 58 66.334 109.333 119.001 154c62 52 129.333 78 202 78
c34 0 56 -4.33301 66 -13z" />
    <glyph glyph-name="s" unicode="s" horiz-adv-x="925" 
d="M364 182c111.333 0 166.998 37.6689 166.998 113.002c0 47.333 -38.333 101 -115 161c-97.333 75.333 -162.666 138.666 -195.999 189.999c-35.333 55.333 -53 113.333 -53 174s10.667 111 32 151s50.666 73.667 87.999 101c76.667 56 177 84 301 84
c114 0 201.333 -12.667 262 -38l-38 -241c-28.667 32 -77.334 56.333 -146.001 73c-25.333 6 -57.166 9 -95.499 9s-72 -9.33301 -101 -28s-43.5 -42.5 -43.5 -71.5s3.83301 -51.667 11.5 -68s18.5 -32.166 32.5 -47.499s30.667 -31 50 -47l66 -54
c70.667 -56 118 -100.667 142 -134c46 -62.667 69 -125.667 69 -189s-11.667 -115.833 -35 -157.5s-54.666 -75.834 -93.999 -102.501c-77.333 -50.667 -179 -76 -305 -76c-101.333 0 -190.333 14 -267 42c-21.333 7.33301 -36.666 14.666 -45.999 21.999l47 226
c46 -36.667 108 -64 186 -82c27.333 -6.66699 54.333 -10 81 -10z" />
    <glyph glyph-name="t" unicode="t" horiz-adv-x="790" 
d="M424 268c0 -57.333 21 -86 63 -86c35.333 0 86.333 20 153 60c16.667 10.667 30.334 20.667 41.001 30l39 -139c-65.333 -62.667 -151.333 -108 -258 -136c-37.333 -10 -73.333 -15 -108 -15s-64.834 3.83301 -90.501 11.5s-47.5 19.5 -65.5 35.5
c-39.333 34 -59 84 -59 150c0 34 5.66699 90 17 168l78 607h-100l39 186h105l80 278h216l-37 -278h242l-23 -186h-244l-84 -629c-2.66699 -20 -4 -39 -4 -57z" />
    <glyph glyph-name="u" unicode="u" horiz-adv-x="1233" 
d="M382 -20c-180.667 0 -270.996 91.001 -270.996 273.001v33c0 28.667 5 82.667 15 162c18 137.333 30 225.666 36 264.999l60 427h274c-22.667 -167.333 -36.334 -270.666 -41.001 -309.999l-38 -287c-15.333 -107.333 -23 -184.333 -23 -231s9.16699 -78.167 27.5 -94.5
s41.166 -24.5 68.499 -24.5s53.666 6.16699 78.999 18.5s50.666 28.833 75.999 49.5c46.667 39.333 91 91.666 133 156.999l98 722h276l-153 -1140h-250l13 205c-74 -104 -162.667 -173 -266 -207c-36.667 -12 -74.667 -18 -114 -18z" />
    <glyph glyph-name="v" unicode="v" horiz-adv-x="1073" 
d="M1045 1140c4 -45.333 6 -76.6689 6 -94.002c0 -255.333 -100.333 -508.666 -301 -759.999c-55.333 -69.333 -113 -132.666 -173 -189.999l-90 -103l-227 -12l-56 376l-106 783h284l65 -723l12 -202l96 127c134 210.667 211 453.334 231 728.001
c1.33301 21.333 2 37.166 2 47.499v22.5h257z" />
    <glyph glyph-name="w" unicode="w" horiz-adv-x="1713" 
d="M209 357l-109.001 783h290l65 -723l11 -207l97 132c112 180 184.667 355 218 525l-33 273h278l61 -723l12 -207l95 129c100.667 158 165.334 323.667 194.001 497l10 65c14 94.667 21 157 21 187v52h254l2 -23c2 -24 3 -44.333 3 -61c0 -262.667 -97.333 -517 -292 -763
c-56 -71.333 -116.667 -138 -182 -200l-86 -100l-217 -12l-57 376l-13 107c-77.333 -151.333 -162.333 -274 -255 -368l-86 -103l-225 -12z" />
    <glyph glyph-name="x" unicode="x" horiz-adv-x="1003" 
d="M360 597l-278 543h321l136 -363l234 363h284l-423 -578l300 -560h-319l-158 381l-248 -381h-289z" />
    <glyph glyph-name="y" unicode="y" horiz-adv-x="1095" 
d="M-71 -255c50.667 -30.667 95.333 -46 134 -46s72 4.33301 100 13s56.333 24 85 46c56.667 42.667 121 117.334 193 224.001h-164l-60 375l-112 783h284l115 -1045c10 18 20 37.667 30 59l31 63c21.333 46 38 86.667 50 122
c53.333 105.333 89.666 195.666 108.999 270.999c42.667 165.333 64.667 318 66 458l2 72h256c2 -25.333 3 -50.333 3 -75c0 -151.333 -19.667 -291.5 -59 -420.5s-82.666 -243.5 -129.999 -343.5c-82 -173.333 -172 -324 -270 -452l-99 -128
c-120 -153.333 -265 -230 -435 -230c-66.667 0 -134 17 -202 51z" />
    <glyph glyph-name="z" unicode="z" horiz-adv-x="975" 
d="M-37 52l567 773l111 104h-488l29 211h773l41 -48l-571 -787l-99 -91h533l-22 -214h-827z" />
    <glyph glyph-name="braceleft" unicode="{" horiz-adv-x="1024" 
d="M238 -35l85.002 598.001c0 24.667 -14 46.667 -42 66c-41.333 27.333 -99.666 50.333 -174.999 69l25 163l101 26c63.333 17.333 108.333 39.666 135 66.999c12 12 19 23.667 21 35l82 528c16 98.667 42.333 166.334 79 203.001c36.667 36 97 54 181 54
c67.333 0 165.666 -17.333 294.999 -52c-4.66699 -22.667 -8.33398 -42.667 -11.001 -60l-8 -47c-2 -14 -3 -22.333 -3 -25h-276l-95 -625c-4 -27.333 -13.833 -49.833 -29.5 -67.5s-32 -31.834 -49 -42.501s-34.833 -19.667 -53.5 -27l-136 -54
c14.667 -8 30.167 -16 46.5 -24l47.5 -24c36 -20 60.667 -36.667 74 -50c32 -32 45 -67.667 39 -107l-93 -612h275c-1.33301 -4 -3 -12.667 -5 -26l-5 -43c-2.66699 -17.333 -5 -36.333 -7 -57c-124 -41.333 -225.333 -62 -304 -62s-131.334 12.833 -158.001 38.5
s-40 65.167 -40 118.5c0 6 1.33301 19 4 39z" />
    <glyph glyph-name="bar" unicode="|" horiz-adv-x="854" 
d="M337 1780h213v-1966h-213v1966z" />
    <glyph glyph-name="braceright" unicode="}" horiz-adv-x="1024" 
d="M835.015 1581l-84.9951 -597.964c0 -24.665 13.999 -46.6641 41.998 -65.9971c41.3311 -27.3311 99.6611 -50.3291 174.99 -68.9941l-24.999 -162.99l-100.994 -25.999c-63.3291 -17.332 -108.326 -39.6641 -134.991 -66.9951
c-11.999 -11.999 -18.999 -23.665 -20.999 -34.998l-81.9951 -527.968c-15.999 -98.6611 -42.3311 -166.323 -78.9961 -202.987c-36.6641 -35.998 -96.9932 -53.9971 -180.988 -53.9971c-67.3291 0 -165.656 17.332 -294.981 51.9971
c4.66699 22.665 8.33301 42.6641 10.999 59.9961l8 46.9971c2 13.999 3 22.332 3 24.998h275.982l94.9951 624.962c3.99902 27.332 13.832 49.8311 29.498 67.4961c15.665 17.665 31.9971 31.8311 48.9961 42.4971s34.8311 19.666 53.4961 26.999l135.992 53.9961
c-14.666 8 -30.165 16 -46.4971 23.999l-47.4971 23.998c-35.998 19.999 -60.6631 36.665 -73.9961 49.9971c-31.998 31.998 -44.9971 67.6631 -38.9971 106.994l92.9941 611.962h-274.983c1.33301 4 3 12.666 5 25.999l4.99902 42.9971c2.66699 17.332 5 36.3311 7 56.9971
c123.992 41.3311 225.319 61.9961 303.981 61.9961s131.325 -12.833 157.99 -38.498s39.998 -65.1631 39.998 -118.493c0 -5.99902 -1.33301 -18.998 -4 -38.9971z" />
    <glyph glyph-name="asciitilde" unicode="~" horiz-adv-x="1137" 
d="M401 873c-70 0 -132.332 -37.667 -186.999 -113l-110 107c16.667 52 56.667 100.333 120 145c66 46.667 135 70 207 70c65.333 0 133.666 -28.667 204.999 -86c46.667 -36.667 81.167 -60.167 103.5 -70.5s43.5 -15.5 63.5 -15.5c77.333 0 141.333 37.333 192 112
l103 -106c-15.333 -56 -54 -106.333 -116 -151c-64.667 -46 -133.334 -69 -206.001 -69c-65.333 0 -133.333 29.333 -204 88c-45.333 38 -79.666 62.333 -102.999 73s-46 16 -68 16z" />
    <glyph glyph-name="DEL" 
 />
    <glyph glyph-name="nonbreakingspace" unicode="&#xa0;" horiz-adv-x="485" 
 />
    <glyph glyph-name="exclamdown" unicode="&#xa1;" horiz-adv-x="686" 
d="M351.022 -433.892h-294.981l232.985 1289.92h207.987zM573.009 1332c11.999 -12.666 20.832 -26.832 26.499 -42.498c5.66602 -15.665 8.49902 -34.6641 8.49902 -56.9961s-5.5 -45.1641 -16.499 -68.4961c-10.999 -23.3311 -25.165 -43.3301 -42.4971 -59.9961
c-36.665 -35.998 -81.3291 -53.9971 -133.992 -53.9971c-93.3271 0 -139.991 43.3311 -139.991 129.992c0 56.6631 19.665 103.327 58.9961 139.992c35.998 33.3311 81.3291 49.9961 135.992 49.9961c42.6641 0 76.9951 -12.666 102.993 -37.9971z" />
    <glyph glyph-name="cent" unicode="&#xa2;" horiz-adv-x="1067" 
d="M572 187c81.333 0 164.332 42.334 248.999 127.001l77 -138c-50 -72.667 -122 -126.334 -216 -161.001c-35.333 -13.333 -74.333 -22.333 -117 -27l-42 -233h-195l45 248c-85.333 26.667 -151 80.667 -197 162c-41.333 73.333 -62 157.166 -62 251.499
s10.667 179.833 32 256.5s52 146.334 92 209.001c86.667 137.333 201 223.333 343 258l60 253h195l-58 -240c78 -6.66699 136.333 -19 175 -37l-68 -255c-64.667 55.333 -129 83 -193 83c-77.333 0 -145 -41.333 -203 -124c-62.667 -89.333 -94 -204 -94 -344
c0 -150.667 32.333 -241.667 97 -273c22.667 -10.667 49.334 -16 80.001 -16z" />
    <glyph glyph-name="sterling" unicode="&#xa3;" horiz-adv-x="1397" 
d="M69 -20c-28 0 -52.332 9.49902 -72.999 28.499s-31 43.5 -31 73.5c0 4.66699 0.5 14.167 1.5 28.5s9.66699 32.333 26 54s36.833 40.834 61.5 57.501c54 35.333 109.667 53 167 53c44.667 42 74.667 112.667 90 212l41 245h-173l24 181h180l21 120
c36 230.667 142.333 386.667 319 468c63.333 29.333 128.333 44 195 44s118 -2.83301 154 -8.5s67.667 -13.167 95 -22.5c46.667 -16 85.667 -39 117 -69l-132 -198c-8.66699 21.333 -25.667 41 -51 59c-52 35.333 -98.833 53 -140.5 53s-76.5 -5.5 -104.5 -16.5
s-53.667 -29.833 -77 -56.5c-50.667 -57.333 -86 -145.333 -106 -264l-19 -109h308l-23 -181h-315l-19 -111c-24 -139.333 -53.333 -240.333 -88 -303c-12 -22 -26 -44 -42 -66l73 -23c107.333 -34 204.166 -51 290.499 -51s150.5 15.667 192.5 47s63 73.333 63 126
c0 40 -18.333 78.667 -55 116c-9.33301 10 -18.333 17.667 -27 23l183 144c70.667 -43.333 118.667 -110.666 144 -201.999c7.33301 -27.333 11 -53.333 11 -78s-2 -50.667 -6 -78s-11.667 -54.833 -23 -82.5s-27.666 -54.334 -48.999 -80.001s-49.333 -48.167 -84 -67.5
c-76.667 -44 -179.334 -66 -308.001 -66c-98 0 -187.167 10.333 -267.5 31s-141.5 37.5 -183.5 50.5s-83 23.833 -123 32.5c-60.667 -76 -139.667 -114 -237 -114z" />
    <glyph glyph-name="currency" unicode="&#xa4;" horiz-adv-x="1540" 
d="M1023 323c-72.667 -47.333 -152.499 -71 -239.499 -71s-165.5 22 -235.5 66l-202 -202l-128 127l200 200c-50.667 74.667 -76 156.5 -76 245.5s24.667 170.833 74 245.5l-201 201l127 128l203 -204c73.333 46 153.666 69 240.999 69s168.333 -25.333 243 -76l199 198
l127 -128l-200 -200c44.667 -71.333 67 -149.5 67 -234.5s-24 -164.167 -72 -237.5l203 -202l-128 -127zM533.001 690c0 -35.333 6.5 -68.832 19.5 -100.499s30.833 -59.5 53.5 -83.5c48 -50.667 106.667 -76 176 -76c68.667 0 127.334 25.333 176.001 76
c48.667 51.333 73 112.666 73 183.999c0 72 -24.333 133.333 -73 184c-48.667 51.333 -107.334 77 -176.001 77c-69.333 0 -128 -25.667 -176 -77c-48.667 -50.667 -73 -112 -73 -184z" />
    <glyph glyph-name="yen" unicode="&#xa5;" horiz-adv-x="1476" 
d="M186 506h408l25 200h-407l18 156h331l-287 668h274l211 -557l34 -110l56 114l322 553h308l-479 -668h330l-18 -156h-417l-25 -200h415l-17 -156h-418l-45 -350h-272l42 350h-407z" />
    <glyph glyph-name="brokenbar" unicode="&#xa6;" horiz-adv-x="854" 
d="M337 1780h213v-879h-213v879zM337 693h213v-879h-213v879z" />
    <glyph glyph-name="section" unicode="&#xa7;" horiz-adv-x="1194" 
d="M976 375c40 -52 60.001 -108.503 60.001 -169.503s-11.833 -114.833 -35.5 -161.5s-58.834 -87.334 -105.501 -122.001c-99.333 -72.667 -233.666 -109 -402.999 -109c-80.667 0 -150.667 10.333 -210 31c-94.667 32 -155.667 61 -183 87l56 201
c40 -49.333 125 -84.666 255 -105.999c34 -6 64 -9 90 -9c183.333 0 275 51.333 275 154c0 52 -46.333 102.333 -139 151c-31.333 16 -69.666 34.5 -114.999 55.5s-90.333 46 -135 75s-84.334 61.833 -119.001 98.5c-76.667 81.333 -115 174.333 -115 279
s59.333 191 178 259c-56 66.667 -84 144.667 -84 234c0 101.333 44 184 132 248c93.333 68 222 102 386 102c126 0 230.333 -23.667 313 -71c21.333 -12.667 37.666 -24 48.999 -34l-65 -186c-36 48.667 -113.667 79.334 -233 92.001c-28 2.66699 -51 4 -69 4
c-78 0 -138.333 -13.333 -181 -40c-44.667 -28 -67 -63.667 -67 -107c0 -49.333 21 -90.666 63 -123.999c22 -17.333 49.667 -34.333 83 -51l115 -59c236 -120 354 -264.333 354 -433c0 -117.333 -50 -213.666 -150 -288.999zM456.001 983.997
c-36.667 -36.667 -55.001 -82.3311 -55.001 -136.998s19.667 -101.667 59 -141c32 -32 82.333 -66 151 -102s116.834 -60.333 144.501 -73s54.167 -26.334 79.5 -41.001c30 34.667 45.667 78.667 47 132c0 51.333 -12.333 91.333 -37 120
c-42 49.333 -114 99.666 -216 150.999l-87 43c-29.333 14.667 -58 30.667 -86 48z" />
    <glyph glyph-name="dieresis" unicode="&#xa8;" horiz-adv-x="813" 
d="M674.5 1377c-21 -9.33301 -42.499 -14.001 -64.499 -14.001s-41.167 4 -57.5 12s-30.5 18.667 -42.5 32c-41.333 46 -49 101 -23 165c16.667 42 44.667 72 84 90c20 9.33301 41.167 14 63.5 14s42.5 -4 60.5 -12c33.333 -14.667 57.333 -39.334 72 -74.001
c6 -15.333 9 -33.166 9 -53.499s-4.33301 -41.666 -13 -63.999s-20.334 -41.5 -35.001 -57.5s-32.5 -28.667 -53.5 -38zM164.001 1363c-22 0 -41 4 -57 12c-33.333 16 -57.333 42 -72 78c-6 16 -9 34.167 -9 54.5s4.33301 41.333 13 63s20.334 40.167 35.001 55.5
c32 33.333 70.667 50 116 50c41.333 0 75.666 -14 102.999 -42c24 -26 36 -56.333 36 -91c0 -51.333 -15.667 -94 -47 -128c-32 -34.667 -71.333 -52 -118 -52z" />
    <glyph glyph-name="copyright" unicode="&#xa9;" horiz-adv-x="2110" 
d="M185 962c0 81.333 10.166 159.501 30.499 234.501s49.333 144.833 87 209.5s82.834 123.667 135.501 177s111.334 99 176.001 137c134 79.333 281 119 441 119c159.333 0 306.666 -39.667 441.999 -119c130.667 -76.667 234.334 -181.334 311.001 -314.001
c78.667 -136 118 -283.667 118 -443s-39.333 -307.666 -118 -444.999c-118 -204.667 -291.333 -339.334 -520 -404.001c-74.667 -20.667 -152.334 -31 -233.001 -31c-158.667 0 -305.667 40 -441 120c-130 76.667 -234 181.667 -312 315c-78 135.333 -117 283.333 -117 444z
M326.999 963.001c0 -136 32.001 -262.335 96.001 -379.002c96.667 -175.333 241 -290.333 433 -345c62.667 -18 129 -27 199 -27c136.667 0 261.667 34.333 375 103c166.667 100.667 276 250.334 328 449.001c16.667 63.333 25 129.5 25 198.5s-8.33301 135.5 -25 199.5
s-40.334 123.667 -71.001 179s-67.667 105.833 -111 151.5s-92 84.834 -146 117.501c-113.333 68.667 -238.333 103 -375 103s-261.667 -34.333 -375 -103c-108 -65.333 -193.667 -155 -257 -269c-64 -115.333 -96 -241.333 -96 -378zM1094 659.999
c90.667 0 169.335 20.668 236.002 62.001l44 -148c-54 -44.667 -127.667 -75 -221 -91c-31.333 -5.33301 -72.666 -8 -123.999 -8s-104.333 13.167 -159 39.5s-101.334 61.5 -140.001 105.5c-80 91.333 -120 203 -120 335c0 147.333 42 265.666 126 354.999
c89.333 95.333 212.666 143 369.999 143c98.667 0 180.667 -18.667 246 -56l-35 -184c-56.667 39.333 -129.667 59 -219 59c-80.667 0 -145.334 -27.333 -194.001 -82c-47.333 -54 -71 -123.333 -71 -208c0 -160 51.667 -260.667 155 -302c32.667 -13.333 68 -20 106 -20z
" />
    <glyph glyph-name="ordfeminine" unicode="&#xaa;" horiz-adv-x="909" 
d="M621 871c-84 -90.667 -176.332 -136 -276.999 -136c-121.333 0 -199.333 55.667 -234 167c-11.333 34.667 -17 74.667 -17 120s6.16699 90.833 18.5 136.5s30.166 89.167 53.499 130.5s51.5 79.5 84.5 114.5s69.833 65.167 110.5 90.5c87.333 55.333 182.333 83 285 83
c68 0 130.333 -10 187 -30l130 27l-153 -839h-193zM704.001 1436c-22.667 12 -49.166 18 -79.499 18s-59.5 -6.5 -87.5 -19.5s-53 -30.333 -75 -52s-41.333 -46.5 -58 -74.5s-30.667 -57.333 -42 -88c-21.333 -59.333 -32 -109.833 -32 -151.5s1.66699 -72 5 -91
s9 -34.833 17 -47.5c17.333 -27.333 46.333 -41 87 -41c53.333 0 114.666 41.333 183.999 124z" />
    <glyph glyph-name="guillemotleft" unicode="&#xab;" horiz-adv-x="1937" 
d="M236 705l717 396l48 -160l-470 -331l389 -326l-90 -142l-621 388zM977 705l717 396l48 -160l-470 -331l389 -326l-90 -142l-621 388z" />
    <glyph glyph-name="logicalnot" unicode="&#xac;" horiz-adv-x="1370" 
d="M228 853h960l-62 -531h-217l41 342h-743z" />
    <glyph glyph-name="uni00AD" unicode="&#xad;" horiz-adv-x="1706" 
 />
    <glyph glyph-name="registered" unicode="&#xae;" horiz-adv-x="2110" 
d="M183 962c0 81.333 10.335 159.5 31.002 234.5s49.667 144.833 87 209.5s82.5 123.667 135.5 177s111.833 99 176.5 137c135.333 79.333 282.666 119 441.999 119s306.666 -39.667 441.999 -119c131.333 -77.333 235.666 -182 312.999 -314
c78.667 -135.333 118 -283 118 -443s-39.333 -308.333 -118 -445c-77.333 -132.667 -181.666 -237.667 -312.999 -315c-136 -80 -283.333 -120 -442 -120s-306 40 -442 120c-131.333 77.333 -235.333 182.333 -312 315c-78.667 137.333 -118 285.333 -118 444zM325.002 963
c0 -208 69.666 -384.998 208.999 -530.998c88.667 -92.667 196 -157 322 -193c63.333 -18 129.666 -27 198.999 -27c135.333 0 260.333 34.333 375 103c108.667 65.333 194.667 155 258 269c64.667 116 97 242.333 97 379c0 207.333 -69.667 383.666 -209 528.999
c-87.333 92 -194.666 156.333 -321.999 193c-63.333 18 -129.666 27 -198.999 27c-134.667 0 -259.667 -34 -375 -102c-108 -64.667 -194 -154.334 -258 -269.001c-64.667 -114.667 -97 -240.667 -97 -378zM1028 842.002l-48 -0.996094h-60v-358h-201v962h87l261 7
c119.333 0 211 -26.667 275 -80c58.667 -48.667 88 -113.667 88 -195c0 -168.667 -64.333 -272 -193 -310c36.667 -24 65.667 -54.667 87 -92s37.666 -68 48.999 -92s21.333 -43.833 30 -59.5s15.5 -27.667 20.5 -36s10.833 -17.5 17.5 -27.5l23 -33
c8 -12.667 18 -27.334 30 -44.001l-230 1c-13.333 16 -24.666 33 -33.999 51l-30 61c-10 21.333 -20.333 44.666 -31 69.999s-22.667 49.666 -36 72.999c-31.333 55.333 -66.333 89.666 -105 102.999zM1123 1294.01c-24.667 6 -58.166 9 -100.499 9
s-76.5 -3.66699 -102.5 -11v-303c18.667 -3.33301 42 -5 70 -5h55c59.333 0 104.166 13.167 134.499 39.5s45.5 68.833 45.5 127.5c0 77.333 -34 125 -102 143z" />
    <glyph glyph-name="macron" unicode="&#xaf;" horiz-adv-x="617" 
d="M45 1594h543l-11 -179h-543z" />
    <glyph glyph-name="degree" unicode="&#xb0;" horiz-adv-x="928" 
d="M513 935c-50 0 -96 8.99805 -138 26.998c-84 36 -143 96.667 -177 182c-16 40 -24 82.667 -24 128c0 98.667 34.333 181.334 103 248.001c68 64.667 153 97 255 97c96.667 0 178.334 -33.333 245.001 -100c63.333 -63.333 95 -141.666 95 -234.999
c0 -100 -35 -183.333 -105 -250c-68.667 -64.667 -153.334 -97 -254.001 -97zM520 1089c25.333 0 49 4.66797 71 14.001s41 22.333 57 39c34.667 37.333 52 82.333 52 135v22c0 12.667 -4.33301 30 -13 52s-20.667 41.667 -36 59c-34 36 -75.667 54 -125 54
c-51.333 0 -94 -17.667 -128 -53c-34.667 -36 -52 -82.333 -52 -139c0 -48.667 16.333 -91.334 49 -128.001c33.333 -36.667 75 -55 125 -55z" />
    <glyph glyph-name="plusminus" unicode="&#xb1;" horiz-adv-x="1361" 
d="M556 531l25 150l-132 -7h-237l26 210h237l128 -11l12 152l28 255h225l-26 -255l-27 -151l106 10h265l-26 -210h-265l-104 7l-9 -150l-30 -258h-226zM185 194h887l-17 -179h-887z" />
    <glyph glyph-name="twosuperior" unicode="&#xb2;" horiz-adv-x="1163" 
d="M1046 1373c0 -209.333 -168.333 -412.001 -505 -608.001l504 29l-12 -202h-813l-59 135c122.667 66 246.334 150.667 371.001 254c164 136.667 246 249.5 246 338.5s-51 133.5 -153 133.5c-116.667 0 -215 -39.333 -295 -118l-91 119c34.667 47.333 89 89.333 163 126
c87.333 44.667 176.666 67 267.999 67h49c30 0 67.833 -7.16699 113.5 -21.5s84.5 -34.166 116.5 -59.499c64.667 -50 97 -114.333 97 -193z" />
    <glyph glyph-name="threesuperior" unicode="&#xb3;" horiz-adv-x="1071" 
d="M228 1523c115.333 80.667 248.666 121 399.999 121c109.333 0 192.666 -24.667 249.999 -74c46.667 -39.333 70 -91.833 70 -157.5s-20.5 -124.334 -61.5 -176.001s-95.5 -90.167 -163.5 -115.5c84.667 -6 147.334 -36.333 188.001 -91c29.333 -39.333 44 -88 44 -146
c0 -118 -53.333 -212 -160 -282c-95.333 -62 -212.333 -93 -351 -93c-89.333 0 -175 15 -257 45c-26.667 9.33301 -49.667 20 -69 32l30 149c68 -36.667 147.667 -55 239 -55h35.5c19 0 45.833 3.66699 80.5 11s66.334 19 95.001 35c64.667 35.333 97 88.333 97 159
c0 39.333 -13 70 -39 92s-60.333 33.667 -103 35l-199 -47l28 177c96 22 162.167 44.833 198.5 68.5s61.5 46.334 75.5 68.001s21 43 21 64s-2.5 37.833 -7.5 50.5s-13.167 23.667 -24.5 33c-24.667 21.333 -60.667 32 -108 32c-88 -1.33301 -170.667 -28.333 -248 -81z" />
    <glyph glyph-name="acute" unicode="&#xb4;" horiz-adv-x="562" 
d="M34 1319l321 425l180 -169c-20 -37.333 -75.667 -97 -167 -179c-99.333 -88 -176 -142 -230 -162z" />
    <glyph glyph-name="mu" unicode="&#xb5;" horiz-adv-x="1364" 
d="M1306 127c-84.667 -96.667 -178.67 -144.999 -282.003 -144.999s-162.333 46.667 -177 140c-38 -46.667 -71 -78.334 -99 -95.001c-52 -30 -109 -45 -171 -45c-49.333 0 -94.333 13.333 -135 40c-14 10 -24.667 22 -32 36l-64 -430h-260l173 1198
c7.33301 50 4.33301 84.667 -9 104c-4 6 -9.33301 9 -16 9c-27.333 0 -57.666 -16.667 -90.999 -50l-56 140c40 46 101.667 82.333 185 109c33.333 11.333 65.833 17 97.5 17s58.834 -3.66699 81.501 -11c67.333 -23.333 101 -74.333 101 -153c0 -14.667 -2 -36 -6 -64
s-7.66699 -55.667 -11 -83l-37 -284c-4.66699 -34.667 -8.5 -64.167 -11.5 -88.5s-5.5 -43.833 -7.5 -58.5l-3 -22c-1.33301 -16 -2 -30.667 -2 -44c0 -98.667 43.333 -148 130 -148c38.667 0 81.334 17.667 128.001 53c45.333 35.333 77 75.333 95 120l101 768h273
l-112 -882c-3.33301 -26 -1.33301 -46.333 6 -61s16.333 -22 27 -22c36 0 74 24 114 72z" />
    <glyph glyph-name="paragraph" unicode="&#xb6;" horiz-adv-x="1364" 
d="M478 726c-107.333 2.66699 -193.001 37.334 -257.001 104.001c-67.333 70 -101 162.333 -101 277c0 217.333 105.667 359.666 317 426.999c76 24.667 168.667 37 278 37c56.667 0 113.334 -2.33301 170.001 -7c108 -8 179.333 -12 214 -12h304l-18 -147l-167 -33
l-177 -1372h-235l173 1368h-194l-175 -1368h-234z" />
    <glyph glyph-name="periodcentered" unicode="&#xb7;" horiz-adv-x="686" 
d="M217 657c-25.333 24.667 -37.999 52.832 -37.999 84.499s4.16699 58.834 12.5 81.501s20.5 42.667 36.5 60c35.333 38 79.666 57 132.999 57c71.333 0 115.333 -26.667 132 -80c5.33301 -16 8 -32.667 8 -50c0 -58.667 -16.667 -105 -50 -139s-74.333 -51 -123 -51
s-85.667 12.333 -111 37z" />
    <glyph glyph-name="cedilla" unicode="&#xb8;" horiz-adv-x="482" 
d="M232 -199c9.33301 20 14.3369 41.999 15.0039 65.999s1 52 1 84s-2.33301 58.333 -7 79l89 4l71 -4c22 -31.333 38.333 -86.333 49 -165c2.66699 -23.333 4 -45.666 4 -66.999c0 -177.333 -96.333 -266 -289 -266c-54.667 0 -99.334 4.33301 -134.001 13s-55 15 -61 19
l31 177c18.667 -10 41.667 -15 69 -15s51.166 2 71.499 6s38.166 11.5 53.499 22.5s27.666 26.5 36.999 46.5z" />
    <glyph glyph-name="onesuperior" unicode="&#xb9;" horiz-adv-x="1020" 
d="M536 1378l-245.999 -52.001l-10 140c96 24.667 201.333 65.334 316 122.001c47.333 23.333 80.666 42.333 99.999 57l119 -21l-141 -1033h-245z" />
    <glyph glyph-name="ordmasculine" unicode="&#xba;" horiz-adv-x="900" 
d="M445 725c-96 0 -177 32.332 -243 96.999c-68.667 68 -103 156.667 -103 266c0 153.333 51 277.333 153 372c92 86 200.333 129 325 129h5c105.333 0 190 -33 254 -99c64.667 -67.333 97 -156 97 -266c0 -155.333 -49.667 -279.666 -149 -372.999
c-90.667 -84 -201.667 -126 -333 -126h-6zM694 1221c0 152.667 -44 229 -132 229c-78 0 -137.333 -42.667 -178 -128c-32 -66.667 -48 -137.834 -48 -213.501s11 -134 33 -175s51.333 -61.667 88 -62s67 4.83398 91 15.501s44.5 25.167 61.5 43.5s31 39.333 42 63
s19.833 48.5 26.5 74.5c10.667 45.333 16 96.333 16 153z" />
    <glyph glyph-name="guillemotright" unicode="&#xbb;" horiz-adv-x="1937" 
d="M980.014 533.043l-716.956 -395.976l-47.9971 159.99l469.972 330.979l-388.977 325.98l89.9951 141.991l620.962 -387.977zM1721.01 533.043l-716.956 -395.976l-47.9971 159.99l469.972 330.979l-388.977 325.98l89.9951 141.991l620.962 -387.977z" />
    <glyph glyph-name="onequarter" unicode="&#xbc;" horiz-adv-x="2560" 
d="M1852 112h-512l-49 112l578 888l58 1l173 -104l-468 -639l-73 -89l318 12l35 251l235 23l-34 -265l227 9l-22 -199h-230l-40 -318h-240zM566 1378l-245.999 -52.001l-10 140c96 24.667 201.333 65.334 316 122.001c47.333 23.333 80.666 42.333 99.999 57l119 -21
l-141 -1033h-245zM1398 1530h209l-681 -1530h-209z" />
    <glyph glyph-name="onehalf" unicode="&#xbd;" horiz-adv-x="2560" 
d="M2280 659c0 -209.333 -168.333 -412.001 -505 -608.001l504 29l-12 -202h-813l-59 135c122.667 66 246.334 150.667 371.001 254c164 136.667 246 249.5 246 338.5s-51 133.5 -153 133.5c-116.667 0 -215 -39.333 -295 -118l-91 119c34.667 47.333 89 89.333 163 126
c87.333 44.667 176.666 67 267.999 67h49c30 0 67.833 -7.16699 113.5 -21.5s84.5 -34.166 116.5 -59.499c64.667 -50 97 -114.333 97 -193zM566 1378l-245.999 -52.001l-10 140c96 24.667 201.333 65.334 316 122.001c47.333 23.333 80.666 42.333 99.999 57l119 -21
l-141 -1033h-245zM1397 1530h209l-681 -1530h-209z" />
    <glyph glyph-name="threequarters" unicode="&#xbe;" horiz-adv-x="2560" 
d="M1852 112h-512l-49 112l578 888l58 1l173 -104l-468 -639l-73 -89l318 12l35 251l235 23l-34 -265l227 9l-22 -199h-230l-40 -318h-240zM201 1551c115.333 80.667 248.666 121 399.999 121c109.333 0 192.666 -24.667 249.999 -74c46.667 -39.333 70 -91.833 70 -157.5
s-20.5 -124.334 -61.5 -176.001s-95.5 -90.167 -163.5 -115.5c84.667 -6 147.334 -36.333 188.001 -91c29.333 -39.333 44 -88 44 -146c0 -118 -53.333 -212 -160 -282c-95.333 -62 -212.333 -93 -351 -93c-89.333 0 -175 15 -257 45c-26.667 9.33301 -49.667 20 -69 32
l30 149c68 -36.667 147.667 -55 239 -55h35.5c19 0 45.833 3.66699 80.5 11s66.334 19 95.001 35c64.667 35.333 97 88.333 97 159c0 39.333 -13 70 -39 92s-60.333 33.667 -103 35l-199 -47l28 177c96 22 162.167 44.833 198.5 68.5s61.5 46.334 75.5 68.001s21 43 21 64
s-2.5 37.833 -7.5 50.5s-13.167 23.667 -24.5 33c-24.667 21.333 -60.667 32 -108 32c-88 -1.33301 -170.667 -28.333 -248 -81zM1397 1530h209l-681 -1530h-209z" />
    <glyph glyph-name="questiondown" unicode="&#xbf;" horiz-adv-x="1048" 
d="M671.5 1145.5c-22.333 -10.333 -46.833 -15.499 -73.5 -15.499s-49 3.5 -67 10.5s-32.333 16.5 -43 28.5c-21.333 22.667 -32 58.167 -32 106.5s16.667 89.5 50 123.5s74.333 51 123 51s85.667 -12.333 111 -37s38 -52.834 38 -84.501s-4.16699 -58.834 -12.5 -81.501
s-20.5 -42.667 -36.5 -60s-35.167 -31.166 -57.5 -41.499zM67 79.001c0 58.667 8.16699 110.331 24.5 154.998s37.666 83.834 63.999 117.501s56.5 63 90.5 88s68.667 47.5 104 67.5l105 57c74 38 125.667 77.333 155 118c16 23.333 24 46 24 68s-1.83301 39.833 -5.5 53.5
s-8 26.667 -13 39s-9.83301 23.666 -14.5 33.999s-8 19.166 -10 26.499l147 58l17 -1c46 -34.667 78.667 -90 98 -166c6 -23.333 9 -48.166 9 -74.499s-4.83301 -52.333 -14.5 -78s-25.167 -50.5 -46.5 -74.5c-39.333 -44.667 -109.333 -93 -210 -145
c-149.333 -71.333 -235 -138 -257 -200c-10.667 -38.667 -16 -76.667 -16 -114s8.33301 -71.833 25 -103.5s39.667 -58.5 69 -80.5c60 -46 135 -69 225 -69c78.667 0 149.334 9.33301 212.001 28l-42 -185c-25.333 -23.333 -74.333 -39.666 -147 -48.999
c-21.333 -2.66699 -42 -4 -62 -4c-179.333 0 -315.333 43 -408 129c-82 76.667 -123 178.334 -123 305.001z" />
    <glyph glyph-name="Agrave" unicode="&#xc0;" horiz-adv-x="1305" 
d="M644 1530h334l257 -1530l-277 -1l-48 342h-561l-148 -341l-301 -1zM882 537l-95 682l-10 118l-47 -121l-296 -679h448zM812 1572c-50.667 18.667 -102 48.667 -154 90c-96 77.333 -156.667 140 -182 188l167 157l277 -342z" />
    <glyph glyph-name="Aacute" unicode="&#xc1;" horiz-adv-x="1305" 
d="M644 1530h334l257 -1530l-277 -1l-48 342h-561l-148 -341l-301 -1zM882 537l-95 682l-10 118l-47 -121l-296 -679h448zM736 1665l277 342.001l167 -157c-25.333 -48 -76.666 -103 -153.999 -165c-70.667 -56.667 -131.334 -94.334 -182.001 -113.001z" />
    <glyph glyph-name="Acircumflex" unicode="&#xc2;" horiz-adv-x="1305" 
d="M644 1530h334l257 -1530l-277 -1l-48 342h-561l-148 -341l-301 -1zM882 537l-95 682l-10 118l-47 -121l-296 -679h448zM459 1661l349 346h179l201 -340l-119 -73l-197 200l-300 -205z" />
    <glyph glyph-name="Atilde" unicode="&#xc3;" horiz-adv-x="1305" 
d="M644 1530h334l257 -1530l-277 -1l-48 342h-561l-148 -341l-301 -1zM882 537l-95 682l-10 118l-47 -121l-296 -679h448zM435 1792c22 45.333 62.334 86.999 121.001 124.999c60.667 38.667 117.667 58 171 58c46 0 82.5 -8.83301 109.5 -26.5s46.833 -32.5 59.5 -44.5
l39 -34c29.333 -24.667 55.666 -37 78.999 -37s42.5 3.33301 57.5 10s28.667 15.334 41 26.001s23.5 22.334 33.5 35.001l31 39l102 -117c-18.667 -50 -56.334 -94.667 -113.001 -134c-58 -41.333 -115 -62 -171 -62c-69.333 0 -129 23.333 -179 70
c-30.667 29.333 -55.667 48.5 -75 57.5s-38.166 13.667 -56.499 14s-34.5 -2.16699 -48.5 -7.5s-27 -12.333 -39 -21s-23.333 -18.334 -34 -29.001l-31 -32z" />
    <glyph glyph-name="Adieresis" unicode="&#xc4;" horiz-adv-x="1305" 
d="M644 1530h334l257 -1530l-277 -1l-48 342h-561l-148 -341l-301 -1zM882 537l-95 682l-10 118l-47 -121l-296 -679h448zM1102.5 1678c-21 -9.33301 -42.499 -14.002 -64.499 -14.002s-41 4 -57 12s-30 18.667 -42 32c-25.333 28 -38 57.333 -38 88s4.5 56.334 13.5 77.001
s20.833 38.667 35.5 54c32 33.333 70 50 114 50c64 0 107.667 -29 131 -87c6 -14.667 9 -32.167 9 -52.5s-4.33301 -41.666 -13 -63.999s-20.334 -41.5 -35.001 -57.5s-32.5 -28.667 -53.5 -38zM593.001 1664c-22 0 -41 4.00098 -57 12.001c-33.333 16 -57.333 42 -72 78
c-6 16 -9 34.333 -9 55s4.66699 41.667 14 63s21.333 39.666 36 54.999c32 33.333 70 50 114 50c42 0 76 -14.333 102 -43c24 -26 36 -56 36 -90c0 -51.333 -15.667 -94 -47 -128c-32 -34.667 -71 -52 -117 -52z" />
    <glyph glyph-name="Aring" unicode="&#xc5;" horiz-adv-x="1305" 
d="M1152 1758c0 -119.333 -56.667 -203.667 -170 -253l253 -1505l-277 -1l-48 342h-561l-148 -341l-301 -1l729 1501c-91.333 40 -137 112.667 -137 218c0 96 41.667 170.667 125 224c68.667 43.333 150 65 244 65c136 0 225.667 -47 269 -141
c14.667 -31.333 22 -67.333 22 -108zM806 1592c118 0 176.997 53.667 176.997 161c0 59.333 -29 100 -87 122c-17.333 6.66699 -36.166 10 -56.499 10s-41.166 -2.5 -62.499 -7.5s-40.666 -13.5 -57.999 -25.5c-39.333 -27.333 -59 -69 -59 -125
c0 -37.333 14.667 -69.333 44 -96c28.667 -26 62.667 -39 102 -39zM881.997 536.999l-95 682l-10 118l-47 -121l-296 -679h448z" />
    <glyph glyph-name="AE" unicode="&#xc6;" horiz-adv-x="1874" 
d="M642 1368l-267 27l21 135h1444l-22 -216l-571 5l-58 -432l429 6l-24 -221l-432 12l-64 -474l667 13l-26 -223h-945l48 356h-475l-189 -356h-303zM869 557l104 771l-86 8l-414 -779h396z" />
    <glyph glyph-name="Ccedilla" unicode="&#xc7;" horiz-adv-x="1173" 
d="M299 -257c18.667 -10 41.6699 -15.002 69.0029 -15.002s51.166 2 71.499 6s38.166 11.333 53.499 22c33.333 24 50.666 65.333 51.999 124c0.666992 18.667 1 37.5 1 56.5s-0.666992 36.5 -2 52.5c-153.333 18.667 -268.666 93.667 -345.999 225
c-65.333 110.667 -98 251.334 -98 422.001c0 258.667 71 474 213 646c92 112 204.667 189.333 338 232c66 21.333 126.333 32 181 32s96.334 -1.66699 125.001 -5s54.5 -7.5 77.5 -12.5s43.5 -10.5 61.5 -16.5l50 -18l54 -16l-86 -250l-37 25
c-60.667 40.667 -140 61 -238 61c-158.667 0 -278 -76 -358 -228c-66 -124 -99 -269.333 -99 -436c0 -215.333 56.333 -352.666 169 -411.999c38 -20.667 80 -31 126 -31s86.667 3.5 122 10.5s67.333 15.833 96 26.5c54.667 19.333 96.667 40 126 62l38 -208
c-46.667 -36 -117.334 -65.667 -212.001 -89c-38 -9.33301 -80.333 -16 -127 -20c21.333 -58 32 -121 32 -189c0 -177.333 -96.333 -266 -289 -266c-54.667 0 -99.334 4.33301 -134.001 13s-55 15 -61 19z" />
    <glyph glyph-name="Egrave" unicode="&#xc8;" horiz-adv-x="1171" 
d="M735 1572c-50.667 18.667 -102 48.667 -154 90c-96 77.333 -156.667 140 -182 188l167 157l277 -342zM297 1530h841l-22 -216l-572 5l-57 -432l428 6l-24 -221l-432 12l-63 -474l666 13l-25 -223h-946z" />
    <glyph glyph-name="Eacute" unicode="&#xc9;" horiz-adv-x="1171" 
d="M659 1665l277 342.001l167 -157c-25.333 -48 -76.666 -103 -153.999 -165c-70.667 -56.667 -131.334 -94.334 -182.001 -113.001zM297 1530h841l-22 -216l-572 5l-57 -432l428 6l-24 -221l-432 12l-63 -474l666 13l-25 -223h-946z" />
    <glyph glyph-name="Ecircumflex" unicode="&#xca;" horiz-adv-x="1171" 
d="M297 1530h841l-22 -216l-572 5l-57 -432l428 6l-24 -221l-432 12l-63 -474l666 13l-25 -223h-946zM382 1661l349 346h179l201 -340l-119 -73l-197 200l-300 -205z" />
    <glyph glyph-name="Edieresis" unicode="&#xcb;" horiz-adv-x="1171" 
d="M1025.5 1678c-21 -9.33301 -42.499 -14.002 -64.499 -14.002s-41 4 -57 12s-30 18.667 -42 32c-25.333 28 -38 57.333 -38 88s4.5 56.334 13.5 77.001s20.833 38.667 35.5 54c32 33.333 70 50 114 50c64 0 107.667 -29 131 -87c6 -14.667 9 -32.167 9 -52.5
s-4.33301 -41.666 -13 -63.999s-20.334 -41.5 -35.001 -57.5s-32.5 -28.667 -53.5 -38zM516.001 1664c-22 0 -41 4.00098 -57 12.001c-33.333 16 -57.333 42 -72 78c-6 16 -9 34.333 -9 55s4.66699 41.667 14 63s21.333 39.666 36 54.999c32 33.333 70 50 114 50
c42 0 76 -14.333 102 -43c24 -26 36 -56 36 -90c0 -51.333 -15.667 -94 -47 -128c-32 -34.667 -71 -52 -117 -52zM297.001 1530h841l-22 -216l-572 5l-57 -432l428 6l-24 -221l-432 12l-63 -474l666 13l-25 -223h-946z" />
    <glyph glyph-name="Igrave" unicode="&#xcc;" horiz-adv-x="643" 
d="M319 1530h276l-206 -1530h-276zM471 1572c-50.667 18.667 -102 48.667 -154 90c-96 77.333 -156.667 140 -182 188l167 157l277 -342z" />
    <glyph glyph-name="Iacute" unicode="&#xcd;" horiz-adv-x="643" 
d="M319 1530h276l-206 -1530h-276zM395 1665l277 342.001l167 -157c-25.333 -48 -76.666 -103 -153.999 -165c-70.667 -56.667 -131.334 -94.334 -182.001 -113.001z" />
    <glyph glyph-name="Icircumflex" unicode="&#xce;" horiz-adv-x="643" 
d="M319 1530h276l-206 -1530h-276zM118 1661l349 346h179l201 -340l-119 -73l-197 200l-300 -205z" />
    <glyph glyph-name="Idieresis" unicode="&#xcf;" horiz-adv-x="643" 
d="M319 1530h276l-206 -1530h-276zM761.5 1678c-21 -9.33301 -42.499 -14.002 -64.499 -14.002s-41 4 -57 12s-30 18.667 -42 32c-25.333 28 -38 57.333 -38 88s4.5 56.334 13.5 77.001s20.833 38.667 35.5 54c32 33.333 70 50 114 50c64 0 107.667 -29 131 -87
c6 -14.667 9 -32.167 9 -52.5s-4.33301 -41.666 -13 -63.999s-20.334 -41.5 -35.001 -57.5s-32.5 -28.667 -53.5 -38zM252.001 1664c-22 0 -41 4.00098 -57 12.001c-33.333 16 -57.333 42 -72 78c-6 16 -9 34.333 -9 55s4.66699 41.667 14 63s21.333 39.666 36 54.999
c32 33.333 70 50 114 50c42 0 76 -14.333 102 -43c24 -26 36 -56 36 -90c0 -51.333 -15.667 -94 -47 -128c-32 -34.667 -71 -52 -117 -52z" />
    <glyph glyph-name="Eth" unicode="&#xd0;" horiz-adv-x="1408" 
d="M552 -15l-309 16.001h-146l94 697h-155l20 190h160l87 643h139l342 16c386 0 579 -210 579 -630c0 -262 -69.333 -480.333 -208 -655c-94 -118.667 -214.333 -200.334 -361 -245.001c-70.667 -21.333 -146.667 -32 -228 -32h-14zM402 215.001
c49.333 -16.667 106.668 -25 172.001 -25h24c157.333 2 279.333 79 366 231c76 132 114 294.667 114 488c0 166.667 -29 281.667 -87 345c-54 60 -145 90 -273 90c-54.667 0 -110.334 -5.66699 -167.001 -17l-59 -439h339l-21 -190h-343z" />
    <glyph glyph-name="Ntilde" unicode="&#xd1;" horiz-adv-x="1456" 
d="M493 1792c22 45.333 62.334 86.999 121.001 124.999c60.667 38.667 117.667 58 171 58c46 0 82.5 -8.83301 109.5 -26.5s46.833 -32.5 59.5 -44.5l39 -34c29.333 -24.667 55.666 -37 78.999 -37s42.5 3.33301 57.5 10s28.667 15.334 41 26.001s23.5 22.334 33.5 35.001
l31 39l102 -117c-18.667 -50 -56.334 -94.667 -113.001 -134c-58 -41.333 -115 -62 -171 -62c-69.333 0 -129 23.333 -179 70c-30.667 29.333 -55.667 48.5 -75 57.5s-38.166 13.667 -56.499 14s-34.5 -2.16699 -48.5 -7.5s-27 -12.333 -39 -21s-23.333 -18.334 -34 -29.001
l-31 -32zM303.001 1530h257l398 -927l71 -233l16 254l110 906h265l-206 -1530h-245l-402 954l-76 254l-12 -287l-120 -921h-262z" />
    <glyph glyph-name="Ograve" unicode="&#xd2;" horiz-adv-x="1386" 
d="M852 1572c-50.667 18.667 -102 48.667 -154 90c-96 77.333 -156.667 140 -182 188l167 157l277 -342zM218 164c-88 112.667 -132.001 259.667 -132.001 441c0 264 65.667 484.667 197 662c88 118 196.667 199.667 326 245c64.667 22.667 137 34 217 34
s152 -16.167 216 -48.5s117.667 -76.166 161 -131.499c87.333 -114 131 -261.667 131 -443c0 -261.333 -65 -481 -195 -659c-86.667 -119.333 -194 -201.333 -322 -246c-65.333 -22.667 -138.166 -34 -218.499 -34s-153 16.167 -218 48.5s-119.167 76.166 -162.5 131.499z
M522.999 216c32.667 -15.333 70.5 -23.001 113.5 -23.001s83 9.5 120 28.5s70.833 45 101.5 78s57.667 72.5 81 118.5c73.333 140.667 110 300 110 478c0 230.667 -50.667 369.334 -152 416.001c-32.667 15.333 -70.5 23 -113.5 23s-83 -9.66699 -120 -29
s-70.833 -45.833 -101.5 -79.5s-57.667 -73.167 -81 -118.5c-73.333 -141.333 -110 -299 -110 -473c0 -231.333 50.667 -371 152 -419z" />
    <glyph glyph-name="Oacute" unicode="&#xd3;" horiz-adv-x="1386" 
d="M776 1665l277 342.001l167 -157c-25.333 -48 -76.666 -103 -153.999 -165c-70.667 -56.667 -131.334 -94.334 -182.001 -113.001zM218 164.001c-88 112.667 -132.001 259.667 -132.001 441c0 264 65.667 484.667 197 662c88 118 196.667 199.667 326 245
c64.667 22.667 137 34 217 34s152 -16.167 216 -48.5s117.667 -76.166 161 -131.499c87.333 -114 131 -261.667 131 -443c0 -261.333 -65 -481 -195 -659c-86.667 -119.333 -194 -201.333 -322 -246c-65.333 -22.667 -138.166 -34 -218.499 -34s-153 16.167 -218 48.5
s-119.167 76.166 -162.5 131.499zM522.999 216.001c32.667 -15.333 70.5 -23.001 113.5 -23.001s83 9.5 120 28.5s70.833 45 101.5 78s57.667 72.5 81 118.5c73.333 140.667 110 300 110 478c0 230.667 -50.667 369.334 -152 416.001c-32.667 15.333 -70.5 23 -113.5 23
s-83 -9.66699 -120 -29s-70.833 -45.833 -101.5 -79.5s-57.667 -73.167 -81 -118.5c-73.333 -141.333 -110 -299 -110 -473c0 -231.333 50.667 -371 152 -419z" />
    <glyph glyph-name="Ocircumflex" unicode="&#xd4;" horiz-adv-x="1386" 
d="M218 164c-88 112.667 -132.001 259.667 -132.001 441c0 264 65.667 484.667 197 662c88 118 196.667 199.667 326 245c64.667 22.667 137 34 217 34s152 -16.167 216 -48.5s117.667 -76.166 161 -131.499c87.333 -114 131 -261.667 131 -443
c0 -261.333 -65 -481 -195 -659c-86.667 -119.333 -194 -201.333 -322 -246c-65.333 -22.667 -138.166 -34 -218.499 -34s-153 16.167 -218 48.5s-119.167 76.166 -162.5 131.499zM522.999 216c32.667 -15.333 70.5 -23.001 113.5 -23.001s83 9.5 120 28.5
s70.833 45 101.5 78s57.667 72.5 81 118.5c73.333 140.667 110 300 110 478c0 230.667 -50.667 369.334 -152 416.001c-32.667 15.333 -70.5 23 -113.5 23s-83 -9.66699 -120 -29s-70.833 -45.833 -101.5 -79.5s-57.667 -73.167 -81 -118.5
c-73.333 -141.333 -110 -299 -110 -473c0 -231.333 50.667 -371 152 -419zM497.999 1661l349 346h179l201 -340l-119 -73l-197 200l-300 -205z" />
    <glyph glyph-name="Otilde" unicode="&#xd5;" horiz-adv-x="1386" 
d="M474 1792c22 45.333 62.334 86.999 121.001 124.999c60.667 38.667 117.667 58 171 58c46 0 82.5 -8.83301 109.5 -26.5s46.833 -32.5 59.5 -44.5l39 -34c29.333 -24.667 55.666 -37 78.999 -37s42.5 3.33301 57.5 10s28.667 15.334 41 26.001s23.5 22.334 33.5 35.001
l31 39l102 -117c-18.667 -50 -56.334 -94.667 -113.001 -134c-58 -41.333 -115 -62 -171 -62c-69.333 0 -129 23.333 -179 70c-30.667 29.333 -55.667 48.5 -75 57.5s-38.166 13.667 -56.499 14s-34.5 -2.16699 -48.5 -7.5s-27 -12.333 -39 -21s-23.333 -18.334 -34 -29.001
l-31 -32zM218.001 163.999c-88 112.667 -132.001 259.667 -132.001 441c0 264 65.667 484.667 197 662c88 118 196.667 199.667 326 245c64.667 22.667 137 34 217 34s152 -16.167 216 -48.5s117.667 -76.166 161 -131.499c87.333 -114 131 -261.667 131 -443
c0 -261.333 -65 -481 -195 -659c-86.667 -119.333 -194 -201.333 -322 -246c-65.333 -22.667 -138.166 -34 -218.499 -34s-153 16.167 -218 48.5s-119.167 76.166 -162.5 131.499zM523 215.999c32.667 -15.333 70.5 -23.001 113.5 -23.001s83 9.5 120 28.5
s70.833 45 101.5 78s57.667 72.5 81 118.5c73.333 140.667 110 300 110 478c0 230.667 -50.667 369.334 -152 416.001c-32.667 15.333 -70.5 23 -113.5 23s-83 -9.66699 -120 -29s-70.833 -45.833 -101.5 -79.5s-57.667 -73.167 -81 -118.5
c-73.333 -141.333 -110 -299 -110 -473c0 -231.333 50.667 -371 152 -419z" />
    <glyph glyph-name="Odieresis" unicode="&#xd6;" horiz-adv-x="1386" 
d="M1141.5 1678c-21 -9.33301 -42.499 -14.002 -64.499 -14.002s-41 4 -57 12s-30 18.667 -42 32c-25.333 28 -38 57.333 -38 88s4.5 56.334 13.5 77.001s20.833 38.667 35.5 54c32 33.333 70 50 114 50c64 0 107.667 -29 131 -87c6 -14.667 9 -32.167 9 -52.5
s-4.33301 -41.666 -13 -63.999s-20.334 -41.5 -35.001 -57.5s-32.5 -28.667 -53.5 -38zM632.001 1664c-22 0 -41 4.00098 -57 12.001c-33.333 16 -57.333 42 -72 78c-6 16 -9 34.333 -9 55s4.66699 41.667 14 63s21.333 39.666 36 54.999c32 33.333 70 50 114 50
c42 0 76 -14.333 102 -43c24 -26 36 -56 36 -90c0 -51.333 -15.667 -94 -47 -128c-32 -34.667 -71 -52 -117 -52zM218.001 163.999c-88 112.667 -132.001 259.667 -132.001 441c0 264 65.667 484.667 197 662c88 118 196.667 199.667 326 245c64.667 22.667 137 34 217 34
s152 -16.167 216 -48.5s117.667 -76.166 161 -131.499c87.333 -114 131 -261.667 131 -443c0 -261.333 -65 -481 -195 -659c-86.667 -119.333 -194 -201.333 -322 -246c-65.333 -22.667 -138.166 -34 -218.499 -34s-153 16.167 -218 48.5s-119.167 76.166 -162.5 131.499z
M523 215.999c32.667 -15.333 70.5 -23.001 113.5 -23.001s83 9.5 120 28.5s70.833 45 101.5 78s57.667 72.5 81 118.5c73.333 140.667 110 300 110 478c0 230.667 -50.667 369.334 -152 416.001c-32.667 15.333 -70.5 23 -113.5 23s-83 -9.66699 -120 -29
s-70.833 -45.833 -101.5 -79.5s-57.667 -73.167 -81 -118.5c-73.333 -141.333 -110 -299 -110 -473c0 -231.333 50.667 -371 152 -419z" />
    <glyph glyph-name="multiply" unicode="&#xd7;" horiz-adv-x="1384" 
d="M199 446l384 332l-307 332l170 154l286 -356l374 356l138 -165l-388 -332l311 -332l-171 -154l-290 356l-370 -355z" />
    <glyph glyph-name="Oslash" unicode="&#xd8;" horiz-adv-x="1386" 
d="M608 -15c-112.667 0 -209.668 28.334 -291.001 85.001l-130 -202l-89 49l144 220c-104 113.333 -156 269.666 -156 468.999c0 264 65.667 484.667 197 662c88 118 196.667 199.667 326 245c64.667 22.667 141.334 34 230.001 34s173 -26 253 -78l125 201l89 -49
l-136 -217c109.333 -114.667 164 -274.667 164 -480c0 -261.333 -65 -481 -195 -659c-86.667 -119.333 -194 -201.333 -322 -246c-65.333 -22.667 -135 -34 -209 -34zM950.999 1274c-41.333 41.333 -97.668 61.998 -169.001 61.998c-80.667 0 -154 -36 -220 -108
c-59.333 -65.333 -106.666 -154.666 -141.999 -267.999c-32.667 -104 -49 -212 -49 -324c0 -113.333 11.333 -202.666 34 -267.999zM458.997 266.999c42 -48.667 101.667 -73 179 -73c80.667 0 154 35.333 220 106c58.667 63.333 106 152 142 266
c32.667 104.667 49 215 49 331c0 118 -13 211.333 -39 280z" />
    <glyph glyph-name="Ugrave" unicode="&#xd9;" horiz-adv-x="1402" 
d="M835 1572c-50.667 18.667 -102 48.667 -154 90c-96 77.333 -156.667 140 -182 188l167 157l277 -342zM399 15c-179.333 62 -269 205.667 -269 431c0 33.333 4.33301 83 13 149l125 935h276l-120 -895c-8 -62.667 -11.667 -132 -11 -208
c1.33301 -151.333 81 -227 239 -227c96 0 169.667 32.333 221 97c54 67.333 92.333 181.333 115 342l119 891h273l-122 -918c-30 -224 -97.667 -385.667 -203 -485c-101.333 -95.333 -249.333 -143 -444 -143c-81.333 0 -152 10.333 -212 31z" />
    <glyph glyph-name="Uacute" unicode="&#xda;" horiz-adv-x="1402" 
d="M759 1665l277 342.001l167 -157c-25.333 -48 -76.666 -103 -153.999 -165c-70.667 -56.667 -131.334 -94.334 -182.001 -113.001zM399 15.001c-179.333 62 -269 205.667 -269 431c0 33.333 4.33301 83 13 149l125 935h276l-120 -895c-8 -62.667 -11.667 -132 -11 -208
c1.33301 -151.333 81 -227 239 -227c96 0 169.667 32.333 221 97c54 67.333 92.333 181.333 115 342l119 891h273l-122 -918c-30 -224 -97.667 -385.667 -203 -485c-101.333 -95.333 -249.333 -143 -444 -143c-81.333 0 -152 10.333 -212 31z" />
    <glyph glyph-name="Ucircumflex" unicode="&#xdb;" horiz-adv-x="1402" 
d="M399 15c-179.333 62 -269 205.667 -269 431c0 33.333 4.33301 83 13 149l125 935h276l-120 -895c-8 -62.667 -11.667 -132 -11 -208c1.33301 -151.333 81 -227 239 -227c96 0 169.667 32.333 221 97c54 67.333 92.333 181.333 115 342l119 891h273l-122 -918
c-30 -224 -97.667 -385.667 -203 -485c-101.333 -95.333 -249.333 -143 -444 -143c-81.333 0 -152 10.333 -212 31zM482 1661l349 346h179l201 -340l-119 -73l-197 200l-300 -205z" />
    <glyph glyph-name="Udieresis" unicode="&#xdc;" horiz-adv-x="1402" 
d="M1125.5 1678c-21 -9.33301 -42.499 -14.002 -64.499 -14.002s-41 4 -57 12s-30 18.667 -42 32c-25.333 28 -38 57.333 -38 88s4.5 56.334 13.5 77.001s20.833 38.667 35.5 54c32 33.333 70 50 114 50c64 0 107.667 -29 131 -87c6 -14.667 9 -32.167 9 -52.5
s-4.33301 -41.666 -13 -63.999s-20.334 -41.5 -35.001 -57.5s-32.5 -28.667 -53.5 -38zM616.001 1664c-22 0 -41 4.00098 -57 12.001c-33.333 16 -57.333 42 -72 78c-6 16 -9 34.333 -9 55s4.66699 41.667 14 63s21.333 39.666 36 54.999c32 33.333 70 50 114 50
c42 0 76 -14.333 102 -43c24 -26 36 -56 36 -90c0 -51.333 -15.667 -94 -47 -128c-32 -34.667 -71 -52 -117 -52zM399.001 14.999c-179.333 62 -269 205.667 -269 431c0 33.333 4.33301 83 13 149l125 935h276l-120 -895c-8 -62.667 -11.667 -132 -11 -208
c1.33301 -151.333 81 -227 239 -227c96 0 169.667 32.333 221 97c54 67.333 92.333 181.333 115 342l119 891h273l-122 -918c-30 -224 -97.667 -385.667 -203 -485c-101.333 -95.333 -249.333 -143 -444 -143c-81.333 0 -152 10.333 -212 31z" />
    <glyph glyph-name="Yacute" unicode="&#xdd;" horiz-adv-x="1130" 
d="M435 590l-346 940h292l195 -608l28 -105l48 105l348 608h303l-597 -940l-80 -590h-271zM622 1665l277 342.001l167 -157c-25.333 -48 -76.666 -103 -153.999 -165c-70.667 -56.667 -131.334 -94.334 -182.001 -113.001z" />
    <glyph glyph-name="Thorn" unicode="&#xde;" horiz-adv-x="1258" 
d="M543 1284c60 6 117.667 8.99902 173 8.99902c158 0 280 -33.667 366 -101c87.333 -69.333 131 -173.666 131 -312.999c0 -180.667 -56.333 -327 -169 -439c-116.667 -117.333 -272 -176 -466 -176c-40 0 -74.667 1.33301 -104 4l-65 7l-36 -275h-280l204 1530h279z
M665 1095c-52.667 0 -102 -4.33301 -148 -13h-1l-79 -595c29.333 -8 76 -12 140 -12s117.833 8.66699 161.5 26s80.167 42.333 109.5 75c60.667 70 91 169.667 91 299c0 146.667 -91.333 220 -274 220z" />
    <glyph glyph-name="germandbls" unicode="&#xdf;" horiz-adv-x="1255" 
d="M192 929c38 271.333 123.999 456 257.999 554c74.667 54.667 158.667 87 252 97c42.667 4.66699 87.167 7 133.5 7s91.833 -6.33301 136.5 -19s83.334 -31.334 116.001 -56.001c68 -53.333 102 -127.333 102 -222c0 -115.333 -40.667 -211 -122 -287
c-52 -48.667 -85.333 -84.667 -100 -108s-22 -46.833 -22 -70.5s9.33301 -50.5 28 -80.5s39.167 -60 61.5 -90s41 -56.5 56 -79.5s28.5 -47.5 40.5 -73.5c26.667 -58 40 -115.333 40 -172s-9.5 -105.834 -28.5 -147.501s-46.833 -77.167 -83.5 -106.5
c-74.667 -60.667 -178.667 -91 -312 -91c-79.333 0 -152 10 -218 30c-18 5.33301 -32.333 11 -43 17l25 226c28.667 -31.333 74.667 -54.333 138 -69c19.333 -4.66699 41.5 -7 66.5 -7s49.167 2.5 72.5 7.5s43 12.833 59 23.5c30.667 22 46 59.333 46 112
c0 45.333 -21.333 98 -64 158l-32 45c-82.667 107.333 -124 194.666 -124 261.999c0 60.667 24 118.334 72 173.001l45 49c67.333 64.667 109 125.667 125 183c6 23.333 9 46.333 9 69s-3.33301 42.334 -10 59.001s-16.334 31.334 -29.001 44.001c-28 26.667 -63 40 -105 40
s-79.333 -8.33301 -112 -25s-62.667 -45.667 -90 -87c-57.333 -86 -98.666 -227.667 -123.999 -425l-113 -867h-271z" />
    <glyph glyph-name="agrave" unicode="&#xe0;" horiz-adv-x="1207" 
d="M537 1124c62.667 21.333 130.333 31.998 203 31.998s153.667 -13 243 -39l149 39l-159 -1156h-246l14 217c-60 -104.667 -136.667 -175.667 -230 -213c-34.667 -13.333 -76.5 -20 -125.5 -20s-94 10.833 -135 32.5s-74.5 51.834 -100.5 90.501
c-49.333 74.667 -74 177 -74 307c0 189.333 54.333 355.333 163 498c76 100.667 175.333 171.334 298 212.001zM362.999 436.998c0 -171.333 38.665 -257.001 115.998 -257.001c54 0 109.667 35.333 167 106c44 52.667 84 119.334 120 200.001l67 480
c-30 9.33301 -67 14 -111 14s-82.667 -7.83301 -116 -23.5s-63.166 -37 -89.499 -64s-49.166 -58.5 -68.499 -94.5s-35.333 -74 -48 -114c-24.667 -78 -37 -160.333 -37 -247zM724.997 1234c-49.333 19.333 -120.333 70 -213 152c-94.667 83.333 -153 146.333 -175 189
l181 169l311 -426z" />
    <glyph glyph-name="aacute" unicode="&#xe1;" horiz-adv-x="1207" 
d="M537 1124c62.667 21.333 130.333 31.998 203 31.998s153.667 -13 243 -39l149 39l-159 -1156h-246l14 217c-60 -104.667 -136.667 -175.667 -230 -213c-34.667 -13.333 -76.5 -20 -125.5 -20s-94 10.833 -135 32.5s-74.5 51.834 -100.5 90.501
c-49.333 74.667 -74 177 -74 307c0 189.333 54.333 355.333 163 498c76 100.667 175.333 171.334 298 212.001zM362.999 436.998c0 -171.333 38.665 -257.001 115.998 -257.001c54 0 109.667 35.333 167 106c44 52.667 84 119.334 120 200.001l67 480
c-30 9.33301 -67 14 -111 14s-82.667 -7.83301 -116 -23.5s-63.166 -37 -89.499 -64s-49.166 -58.5 -68.499 -94.5s-35.333 -74 -48 -114c-24.667 -78 -37 -160.333 -37 -247zM630.997 1319l321 425l180 -169c-20 -37.333 -75.667 -97 -167 -179
c-99.333 -88 -176 -142 -230 -162z" />
    <glyph glyph-name="acircumflex" unicode="&#xe2;" horiz-adv-x="1207" 
d="M537 1124c62.667 21.333 130.333 31.998 203 31.998s153.667 -13 243 -39l149 39l-159 -1156h-246l14 217c-60 -104.667 -136.667 -175.667 -230 -213c-34.667 -13.333 -76.5 -20 -125.5 -20s-94 10.833 -135 32.5s-74.5 51.834 -100.5 90.501
c-49.333 74.667 -74 177 -74 307c0 189.333 54.333 355.333 163 498c76 100.667 175.333 171.334 298 212.001zM362.999 436.998c0 -171.333 38.665 -257.001 115.998 -257.001c54 0 109.667 35.333 167 106c44 52.667 84 119.334 120 200.001l67 480
c-30 9.33301 -67 14 -111 14s-82.667 -7.83301 -116 -23.5s-63.166 -37 -89.499 -64s-49.166 -58.5 -68.499 -94.5s-35.333 -74 -48 -114c-24.667 -78 -37 -160.333 -37 -247zM382.997 1286l349 374h179l201 -374l-124 -68l-196 219l-301 -223z" />
    <glyph glyph-name="atilde" unicode="&#xe3;" horiz-adv-x="1207" 
d="M537 1124c62.667 21.333 130.333 31.998 203 31.998s153.667 -13 243 -39l149 39l-159 -1156h-246l14 217c-60 -104.667 -136.667 -175.667 -230 -213c-34.667 -13.333 -76.5 -20 -125.5 -20s-94 10.833 -135 32.5s-74.5 51.834 -100.5 90.501
c-49.333 74.667 -74 177 -74 307c0 189.333 54.333 355.333 163 498c76 100.667 175.333 171.334 298 212.001zM362.999 436.998c0 -171.333 38.665 -257.001 115.998 -257.001c54 0 109.667 35.333 167 106c44 52.667 84 119.334 120 200.001l67 480
c-30 9.33301 -67 14 -111 14s-82.667 -7.83301 -116 -23.5s-63.166 -37 -89.499 -64s-49.166 -58.5 -68.499 -94.5s-35.333 -74 -48 -114c-24.667 -78 -37 -160.333 -37 -247zM343.997 1491c24 46 64.6641 87.668 121.997 125.001c60.667 38.667 117.334 58 170.001 58
c64 0 120.5 -24.5 169.5 -73.5s86.833 -73.5 113.5 -73.5s47.5 3.33301 62.5 10s28.5 15.334 40.5 26.001s23.333 22.334 34 35.001l30 39l102 -117c-19.333 -50.667 -56.666 -95.334 -111.999 -134.001c-58 -41.333 -115.333 -62 -172 -62c-68.667 0 -128 24.333 -178 73
c-30.667 30 -55.667 49.667 -75 59s-38.166 14.166 -56.499 14.499s-34.5 -2.16699 -48.5 -7.5s-27.167 -12.333 -39.5 -21s-23.833 -18.334 -34.5 -29.001l-31 -32z" />
    <glyph glyph-name="adieresis" unicode="&#xe4;" horiz-adv-x="1207" 
d="M537 1124c62.667 21.333 130.333 31.998 203 31.998s153.667 -13 243 -39l149 39l-159 -1156h-246l14 217c-60 -104.667 -136.667 -175.667 -230 -213c-34.667 -13.333 -76.5 -20 -125.5 -20s-94 10.833 -135 32.5s-74.5 51.834 -100.5 90.501
c-49.333 74.667 -74 177 -74 307c0 189.333 54.333 355.333 163 498c76 100.667 175.333 171.334 298 212.001zM362.999 436.998c0 -171.333 38.665 -257.001 115.998 -257.001c54 0 109.667 35.333 167 106c44 52.667 84 119.334 120 200.001l67 480
c-30 9.33301 -67 14 -111 14s-82.667 -7.83301 -116 -23.5s-63.166 -37 -89.499 -64s-49.166 -58.5 -68.499 -94.5s-35.333 -74 -48 -114c-24.667 -78 -37 -160.333 -37 -247zM1049.5 1377c-21 -9.33301 -42.499 -14.001 -64.499 -14.001s-41.167 4 -57.5 12
s-30.5 18.667 -42.5 32c-41.333 46 -49 101 -23 165c16.667 42 44.667 72 84 90c20 9.33301 41.167 14 63.5 14s42.5 -4 60.5 -12c33.333 -14.667 57.333 -39.334 72 -74.001c6 -15.333 9 -33.166 9 -53.499s-4.33301 -41.666 -13 -63.999s-20.334 -41.5 -35.001 -57.5
s-32.5 -28.667 -53.5 -38zM538.998 1363c-22 0 -41 4 -57 12c-33.333 16 -57.333 42 -72 78c-6 16 -9 34.167 -9 54.5s4.33301 41.333 13 63s20.334 40.167 35.001 55.5c32 33.333 70.667 50 116 50c41.333 0 75.666 -14 102.999 -42c24 -26 36 -56.333 36 -91
c0 -51.333 -15.667 -94 -47 -128c-32 -34.667 -71.333 -52 -118 -52z" />
    <glyph glyph-name="aring" unicode="&#xe5;" horiz-adv-x="1207" 
d="M537 1124c62.667 21.333 130.333 31.998 203 31.998s153.667 -13 243 -39l149 39l-159 -1156h-246l14 217c-60 -104.667 -136.667 -175.667 -230 -213c-34.667 -13.333 -76.5 -20 -125.5 -20s-94 10.833 -135 32.5s-74.5 51.834 -100.5 90.501
c-49.333 74.667 -74 177 -74 307c0 189.333 54.333 355.333 163 498c76 100.667 175.333 171.334 298 212.001zM362.999 436.998c0 -171.333 38.665 -257.001 115.998 -257.001c54 0 109.667 35.333 167 106c44 52.667 84 119.334 120 200.001l67 480
c-30 9.33301 -67 14 -111 14s-82.667 -7.83301 -116 -23.5s-63.166 -37 -89.499 -64s-49.166 -58.5 -68.499 -94.5s-35.333 -74 -48 -114c-24.667 -78 -37 -160.333 -37 -247zM902.997 1271c-43.333 -12 -87.834 -18.002 -133.501 -18.002s-87 5.5 -124 16.5
s-68.5 27.167 -94.5 48.5c-53.333 44 -80 106 -80 186c0 95.333 41.667 170 125 224c68.667 44.667 149.667 67 243 67c138 0 228 -47.333 270 -142c14 -31.333 21 -69.666 21 -114.999s-10.333 -86.166 -31 -122.499s-47.667 -66.5 -81 -90.5s-71.666 -42 -114.999 -54z
M783.996 1378c118.667 0 177.999 53.667 177.999 161c0 59.333 -29 100 -87 122c-17.333 6.66699 -36.333 10 -57 10s-41.667 -2.5 -63 -7.5s-40.666 -13.5 -57.999 -25.5c-39.333 -27.333 -59 -69 -59 -125c0 -37.333 14.667 -69.333 44 -96c28.667 -26 62.667 -39 102 -39
z" />
    <glyph glyph-name="ae" unicode="&#xe6;" horiz-adv-x="1702" 
d="M999 392c0 -140 58.998 -209.999 176.998 -209.999c84 0 170 33.333 258 100c26 19.333 49.333 39.666 70 60.999l73 -141c-37.333 -52.667 -92.333 -99.334 -165 -140.001c-92 -52 -189 -78 -291 -78c-158.667 0 -273.667 59.333 -345 178
c-21.333 35.333 -37.666 73.666 -48.999 114.999c-60.667 -130.667 -137 -219.667 -229 -267c-35.333 -17.333 -73.666 -26 -114.999 -26c-205.333 0 -308 143.333 -308 430c0 189.333 56.333 355.333 169 498c79.333 100.667 182.333 171.334 309 212.001
c65.333 21.333 144.5 32 237.5 32s177.833 -24 254.5 -72c86.667 48 181 72 283 72s180.667 -24 236 -72c50 -43.333 75 -104.666 75 -183.999c0 -221.333 -165 -376 -495 -464c-50 -13.333 -98.333 -24 -145 -32v-12zM1267 984.001c-98 0 -174.666 -80.667 -229.999 -242
c-20.667 -60 -33.334 -119.667 -38.001 -179c78 4.66699 157 35 237 91c88.667 62 133 132.5 133 211.5s-34 118.5 -102 118.5zM882.999 950.001c-46.667 20 -92.832 30 -138.499 30s-86.334 -7.83301 -122.001 -23.5s-67.667 -37 -96 -64s-52.833 -58.5 -73.5 -94.5
s-37.667 -74 -51 -114c-26.667 -80 -40 -163.167 -40 -249.5s8.33301 -148.5 25 -186.5s43.667 -57 81 -57c41.333 0 85.333 30 132 90c38 47.333 74.333 110 109 188c8 192.667 66 353 174 481z" />
    <glyph glyph-name="ccedilla" unicode="&#xe7;" horiz-adv-x="931" 
d="M163 -259c18.667 -10 41.667 -14.999 69 -14.999s51.166 2 71.499 6s38.166 11.333 53.499 22c33.333 24 50.666 65.333 51.999 124c0.666992 19.333 1 38.666 1 57.999s-0.666992 37 -2 53c-109.333 14 -192.666 64 -249.999 150c-52 78 -78 170.333 -78 277
s13.833 203 41.5 289s67.334 162.5 119.001 229.5s114.5 120.667 188.5 161s157.667 60.5 251 60.5c100.667 0 180.334 -13.333 239.001 -40l-68 -255c-64.667 55.333 -129 83 -193 83c-77.333 0 -145 -41.333 -203 -124c-62.667 -89.333 -94 -204 -94 -344
c0 -150.667 32.333 -241.667 97 -273c22.667 -10.667 49.334 -16 80.001 -16c81.333 0 164.333 42.333 249 127l77 -138c-40 -60 -101.333 -109.667 -184 -149c-30 -14 -63 -24.667 -99 -32c23.333 -59.333 35 -125 35 -197c0 -177.333 -96.333 -266 -289 -266
c-54.667 0 -99.334 4.33301 -134.001 13s-55 15 -61 19z" />
    <glyph glyph-name="egrave" unicode="&#xe8;" horiz-adv-x="1074" 
d="M370 392c0 -140 59 -209.999 177 -209.999c84 0 170 33.333 258 100c26 19.333 49.333 39.666 70 60.999l73 -141c-37.333 -52.667 -92.333 -99.334 -165 -140.001c-92 -52 -182 -78 -270 -78s-158.333 12.667 -211 38c-148.667 72.667 -223 209 -223 409
c0 102.667 16 198.834 48 288.501s75.5 166.5 130.5 230.5s120.167 114.333 195.5 151s148.5 55 219.5 55s126 -6.33301 165 -19s71.5 -30.334 97.5 -53.001c50 -43.333 75 -104.666 75 -183.999c0 -221.333 -165 -376 -495 -464c-50 -13.333 -98.333 -24 -145 -32v-12z
M638 984.001c-98 0 -174.666 -80.667 -229.999 -242c-20.667 -60 -33.334 -119.667 -38.001 -179c78 4.66699 157 35 237 91c88.667 62 133 132.5 133 211.5s-34 118.5 -102 118.5zM654.001 1234c-49.333 19.333 -120.333 70 -213 152c-94.667 83.333 -153 146.333 -175 189
l181 169l311 -426z" />
    <glyph glyph-name="eacute" unicode="&#xe9;" horiz-adv-x="1074" 
d="M560 1319l321 425l180 -169c-20 -37.333 -75.667 -97 -167 -179c-99.333 -88 -176 -142 -230 -162zM370 392c0 -140 59 -209.999 177 -209.999c84 0 170 33.333 258 100c26 19.333 49.333 39.666 70 60.999l73 -141c-37.333 -52.667 -92.333 -99.334 -165 -140.001
c-92 -52 -182 -78 -270 -78s-158.333 12.667 -211 38c-148.667 72.667 -223 209 -223 409c0 102.667 16 198.834 48 288.501s75.5 166.5 130.5 230.5s120.167 114.333 195.5 151s148.5 55 219.5 55s126 -6.33301 165 -19s71.5 -30.334 97.5 -53.001
c50 -43.333 75 -104.666 75 -183.999c0 -221.333 -165 -376 -495 -464c-50 -13.333 -98.333 -24 -145 -32v-12zM638 984.001c-98 0 -174.666 -80.667 -229.999 -242c-20.667 -60 -33.334 -119.667 -38.001 -179c78 4.66699 157 35 237 91c88.667 62 133 132.5 133 211.5
s-34 118.5 -102 118.5z" />
    <glyph glyph-name="ecircumflex" unicode="&#xea;" horiz-adv-x="1074" 
d="M312 1286l349 374h179l201 -374l-124 -68l-196 219l-301 -223zM370 392c0 -140 59 -209.999 177 -209.999c84 0 170 33.333 258 100c26 19.333 49.333 39.666 70 60.999l73 -141c-37.333 -52.667 -92.333 -99.334 -165 -140.001c-92 -52 -182 -78 -270 -78
s-158.333 12.667 -211 38c-148.667 72.667 -223 209 -223 409c0 102.667 16 198.834 48 288.501s75.5 166.5 130.5 230.5s120.167 114.333 195.5 151s148.5 55 219.5 55s126 -6.33301 165 -19s71.5 -30.334 97.5 -53.001c50 -43.333 75 -104.666 75 -183.999
c0 -221.333 -165 -376 -495 -464c-50 -13.333 -98.333 -24 -145 -32v-12zM638 984.001c-98 0 -174.666 -80.667 -229.999 -242c-20.667 -60 -33.334 -119.667 -38.001 -179c78 4.66699 157 35 237 91c88.667 62 133 132.5 133 211.5s-34 118.5 -102 118.5z" />
    <glyph glyph-name="edieresis" unicode="&#xeb;" horiz-adv-x="1074" 
d="M978.5 1377c-21 -9.33301 -42.499 -14.001 -64.499 -14.001s-41.167 4 -57.5 12s-30.5 18.667 -42.5 32c-41.333 46 -49 101 -23 165c16.667 42 44.667 72 84 90c20 9.33301 41.167 14 63.5 14s42.5 -4 60.5 -12c33.333 -14.667 57.333 -39.334 72 -74.001
c6 -15.333 9 -33.166 9 -53.499s-4.33301 -41.666 -13 -63.999s-20.334 -41.5 -35.001 -57.5s-32.5 -28.667 -53.5 -38zM468.001 1363c-22 0 -41 4 -57 12c-33.333 16 -57.333 42 -72 78c-6 16 -9 34.167 -9 54.5s4.33301 41.333 13 63s20.334 40.167 35.001 55.5
c32 33.333 70.667 50 116 50c41.333 0 75.666 -14 102.999 -42c24 -26 36 -56.333 36 -91c0 -51.333 -15.667 -94 -47 -128c-32 -34.667 -71.333 -52 -118 -52zM370.001 391.999c0 -140 59 -209.999 177 -209.999c84 0 170 33.333 258 100
c26 19.333 49.333 39.666 70 60.999l73 -141c-37.333 -52.667 -92.333 -99.334 -165 -140.001c-92 -52 -182 -78 -270 -78s-158.333 12.667 -211 38c-148.667 72.667 -223 209 -223 409c0 102.667 16 198.834 48 288.501s75.5 166.5 130.5 230.5s120.167 114.333 195.5 151
s148.5 55 219.5 55s126 -6.33301 165 -19s71.5 -30.334 97.5 -53.001c50 -43.333 75 -104.666 75 -183.999c0 -221.333 -165 -376 -495 -464c-50 -13.333 -98.333 -24 -145 -32v-12zM638.001 984c-98 0 -174.666 -80.667 -229.999 -242
c-20.667 -60 -33.334 -119.667 -38.001 -179c78 4.66699 157 35 237 91c88.667 62 133 132.5 133 211.5s-34 118.5 -102 118.5z" />
    <glyph glyph-name="igrave" unicode="&#xec;" horiz-adv-x="624" 
d="M258 1140h277l-157 -1140h-276zM403 1234c-49.333 19.333 -120.333 70 -213 152c-94.667 83.333 -153 146.333 -175 189l181 169l311 -426z" />
    <glyph glyph-name="iacute" unicode="&#xed;" horiz-adv-x="624" 
d="M308 1319l321 425l180 -169c-20 -37.333 -75.667 -97 -167 -179c-99.333 -88 -176 -142 -230 -162zM258 1140h277l-157 -1140h-276z" />
    <glyph glyph-name="icircumflex" unicode="&#xee;" horiz-adv-x="624" 
d="M60 1286l349 374h179l201 -374l-124 -68l-196 219l-301 -223zM258 1140h277l-157 -1140h-276z" />
    <glyph glyph-name="idieresis" unicode="&#xef;" horiz-adv-x="624" 
d="M726.5 1377c-21 -9.33301 -42.499 -14.001 -64.499 -14.001s-41.167 4 -57.5 12s-30.5 18.667 -42.5 32c-41.333 46 -49 101 -23 165c16.667 42 44.667 72 84 90c20 9.33301 41.167 14 63.5 14s42.5 -4 60.5 -12c33.333 -14.667 57.333 -39.334 72 -74.001
c6 -15.333 9 -33.166 9 -53.499s-4.33301 -41.666 -13 -63.999s-20.334 -41.5 -35.001 -57.5s-32.5 -28.667 -53.5 -38zM216.001 1363c-22 0 -41 4 -57 12c-33.333 16 -57.333 42 -72 78c-6 16 -9 34.167 -9 54.5s4.33301 41.333 13 63s20.334 40.167 35.001 55.5
c32 33.333 70.667 50 116 50c41.333 0 75.666 -14 102.999 -42c24 -26 36 -56.333 36 -91c0 -51.333 -15.667 -94 -47 -128c-32 -34.667 -71.333 -52 -118 -52zM258.001 1140h277l-157 -1140h-276z" />
    <glyph glyph-name="eth" unicode="&#xf0;" horiz-adv-x="1197" 
d="M411 1798c97.333 -24.667 197.665 -72.665 300.998 -143.998c86.667 99.333 134.334 154.333 143.001 165l108 -102l-137 -155c194 -184 291 -426 291 -726c0 -246.667 -51.667 -447.334 -155 -602.001c-110.667 -166.667 -262.667 -250 -456 -250
c-136.667 0 -244.667 48.667 -324 146c-69.333 85.333 -104 186 -104 302s14.5 218.667 43.5 308s68.5 164.666 118.5 225.999c104 127.333 235.667 191 395 191c107.333 0 180 -26.667 218 -80c-13.333 130.667 -64.666 245 -153.999 343l-128 -143l-116 101l138 141
c-79.333 66 -157.333 109.333 -234 130zM463.999 174.002c20.667 -14.667 46.001 -22 76.001 -22s59.833 11.167 89.5 33.5s56.5 52.5 80.5 90.5c61.333 98 102.666 263.333 123.999 496c2 22 3 39.5 3 52.5s-3.66699 29 -11 48s-19.333 37.5 -36 55.5
c-40 44.667 -89.667 67 -149 67c-114.667 0 -195.667 -103 -243 -309c-18.667 -82.667 -28 -156.167 -28 -220.5s3.5 -112.833 10.5 -145.5s17.5 -61.5 31.5 -86.5s31.333 -44.833 52 -59.5z" />
    <glyph glyph-name="ntilde" unicode="&#xf1;" horiz-adv-x="1257" 
d="M235 1140h263l-16 -212c83.333 108 180 178.333 290 211c37.333 11.333 75.833 17 115.5 17s75 -5.33301 106 -16s57.167 -27.667 78.5 -51c42.667 -48 64 -124.333 64 -229c0 -26.667 -2.66699 -63 -8 -109l-16 -124c-4.66699 -36 -10 -74.667 -16 -116l-74 -509h-276
l54 382c6.66699 44 13.667 93 21 147c26.667 195.333 35 310.333 25 345c-10 36.667 -39.333 55 -88 55c-71.333 0 -150 -45 -236 -135c-26 -26.667 -49 -55 -69 -85l-97 -709h-276zM346 1491c24 46 64.6641 87.668 121.997 125.001c60.667 38.667 117.334 58 170.001 58
c64 0 120.5 -24.5 169.5 -73.5s86.833 -73.5 113.5 -73.5s47.5 3.33301 62.5 10s28.5 15.334 40.5 26.001s23.333 22.334 34 35.001l30 39l102 -117c-19.333 -50.667 -56.666 -95.334 -111.999 -134.001c-58 -41.333 -115.333 -62 -172 -62c-68.667 0 -128 24.333 -178 73
c-30.667 30 -55.667 49.667 -75 59s-38.166 14.166 -56.499 14.499s-34.5 -2.16699 -48.5 -7.5s-27.167 -12.333 -39.5 -21s-23.833 -18.334 -34.5 -29.001l-31 -32z" />
    <glyph glyph-name="ograve" unicode="&#xf2;" horiz-adv-x="1158" 
d="M301 19c-150 69.333 -225 218.333 -225 447c0 184 53 342.667 159 476c71.333 90 160.666 152.667 267.999 188c54.667 17.333 115 26 181 26s124 -11.667 174 -35s91 -55.666 123 -96.999c64.667 -83.333 97 -200 97 -350c0 -184.667 -52.333 -343.334 -157 -476.001
c-111.333 -142.667 -258.666 -214 -441.999 -214c-68.667 0 -128 11.667 -178 35zM355 452c0 -191.333 54.335 -287 163.002 -287c91.333 0 162.666 59 213.999 177c42.667 97.333 64 211.333 64 342c0 102.667 -12.833 177 -38.5 223s-65.5 69 -119.5 69
c-90.667 0 -162.334 -60 -215.001 -180c-45.333 -101.333 -68 -216 -68 -344zM660.002 1234c-49.333 19.333 -120.333 70 -213 152c-94.667 83.333 -153 146.333 -175 189l181 169l311 -426z" />
    <glyph glyph-name="oacute" unicode="&#xf3;" horiz-adv-x="1158" 
d="M566 1319l321 425l180 -169c-20 -37.333 -75.667 -97 -167 -179c-99.333 -88 -176 -142 -230 -162zM301 19c-150 69.333 -225 218.333 -225 447c0 184 53 342.667 159 476c71.333 90 160.666 152.667 267.999 188c54.667 17.333 115 26 181 26s124 -11.667 174 -35
s91 -55.666 123 -96.999c64.667 -83.333 97 -200 97 -350c0 -184.667 -52.333 -343.334 -157 -476.001c-111.333 -142.667 -258.666 -214 -441.999 -214c-68.667 0 -128 11.667 -178 35zM355 452c0 -191.333 54.335 -287 163.002 -287c91.333 0 162.666 59 213.999 177
c42.667 97.333 64 211.333 64 342c0 102.667 -12.833 177 -38.5 223s-65.5 69 -119.5 69c-90.667 0 -162.334 -60 -215.001 -180c-45.333 -101.333 -68 -216 -68 -344z" />
    <glyph glyph-name="ocircumflex" unicode="&#xf4;" horiz-adv-x="1158" 
d="M318 1286l349 374h179l201 -374l-124 -68l-196 219l-301 -223zM301 19c-150 69.333 -225 218.333 -225 447c0 184 53 342.667 159 476c71.333 90 160.666 152.667 267.999 188c54.667 17.333 115 26 181 26s124 -11.667 174 -35s91 -55.666 123 -96.999
c64.667 -83.333 97 -200 97 -350c0 -184.667 -52.333 -343.334 -157 -476.001c-111.333 -142.667 -258.666 -214 -441.999 -214c-68.667 0 -128 11.667 -178 35zM355 452c0 -191.333 54.335 -287 163.002 -287c91.333 0 162.666 59 213.999 177
c42.667 97.333 64 211.333 64 342c0 102.667 -12.833 177 -38.5 223s-65.5 69 -119.5 69c-90.667 0 -162.334 -60 -215.001 -180c-45.333 -101.333 -68 -216 -68 -344z" />
    <glyph glyph-name="otilde" unicode="&#xf5;" horiz-adv-x="1158" 
d="M301 19c-150 69.333 -225 218.333 -225 447c0 184 53 342.667 159 476c71.333 90 160.666 152.667 267.999 188c54.667 17.333 115 26 181 26s124 -11.667 174 -35s91 -55.666 123 -96.999c64.667 -83.333 97 -200 97 -350c0 -184.667 -52.333 -343.334 -157 -476.001
c-111.333 -142.667 -258.666 -214 -441.999 -214c-68.667 0 -128 11.667 -178 35zM355 452c0 -191.333 54.335 -287 163.002 -287c91.333 0 162.666 59 213.999 177c42.667 97.333 64 211.333 64 342c0 102.667 -12.833 177 -38.5 223s-65.5 69 -119.5 69
c-90.667 0 -162.334 -60 -215.001 -180c-45.333 -101.333 -68 -216 -68 -344zM279.002 1491c24 46 64.6641 87.668 121.997 125.001c60.667 38.667 117.334 58 170.001 58c64 0 120.5 -24.5 169.5 -73.5s86.833 -73.5 113.5 -73.5s47.5 3.33301 62.5 10
s28.5 15.334 40.5 26.001s23.333 22.334 34 35.001l30 39l102 -117c-19.333 -50.667 -56.666 -95.334 -111.999 -134.001c-58 -41.333 -115.333 -62 -172 -62c-68.667 0 -128 24.333 -178 73c-30.667 30 -55.667 49.667 -75 59s-38.166 14.166 -56.499 14.499
s-34.5 -2.16699 -48.5 -7.5s-27.167 -12.333 -39.5 -21s-23.833 -18.334 -34.5 -29.001l-31 -32z" />
    <glyph glyph-name="odieresis" unicode="&#xf6;" horiz-adv-x="1158" 
d="M984.5 1377c-21 -9.33301 -42.499 -14.001 -64.499 -14.001s-41.167 4 -57.5 12s-30.5 18.667 -42.5 32c-41.333 46 -49 101 -23 165c16.667 42 44.667 72 84 90c20 9.33301 41.167 14 63.5 14s42.5 -4 60.5 -12c33.333 -14.667 57.333 -39.334 72 -74.001
c6 -15.333 9 -33.166 9 -53.499s-4.33301 -41.666 -13 -63.999s-20.334 -41.5 -35.001 -57.5s-32.5 -28.667 -53.5 -38zM474.001 1363c-22 0 -41 4 -57 12c-33.333 16 -57.333 42 -72 78c-6 16 -9 34.167 -9 54.5s4.33301 41.333 13 63s20.334 40.167 35.001 55.5
c32 33.333 70.667 50 116 50c41.333 0 75.666 -14 102.999 -42c24 -26 36 -56.333 36 -91c0 -51.333 -15.667 -94 -47 -128c-32 -34.667 -71.333 -52 -118 -52zM301.001 18.999c-150 69.333 -225 218.333 -225 447c0 184 53 342.667 159 476
c71.333 90 160.666 152.667 267.999 188c54.667 17.333 115 26 181 26s124 -11.667 174 -35s91 -55.666 123 -96.999c64.667 -83.333 97 -200 97 -350c0 -184.667 -52.333 -343.334 -157 -476.001c-111.333 -142.667 -258.666 -214 -441.999 -214
c-68.667 0 -128 11.667 -178 35zM355.001 451.999c0 -191.333 54.335 -287 163.002 -287c91.333 0 162.666 59 213.999 177c42.667 97.333 64 211.333 64 342c0 102.667 -12.833 177 -38.5 223s-65.5 69 -119.5 69c-90.667 0 -162.334 -60 -215.001 -180
c-45.333 -101.333 -68 -216 -68 -344z" />
    <glyph glyph-name="divide" unicode="&#xf7;" horiz-adv-x="1368" 
d="M809 1054c-22.667 -8.66699 -45.667 -13.002 -69 -13.002s-43.666 3.33301 -60.999 10s-32.333 16 -45 28c-27.333 26 -40 55.333 -38 88s8.33301 59.834 19 81.501s24.667 40.834 42 57.501c37.333 36 81.333 54 132 54c74 0 119 -28 135 -84
c12 -42.667 10.333 -80.167 -5 -112.5s-31.833 -56.5 -49.5 -72.5s-37.834 -28.333 -60.501 -37zM260 885.998l914 -1l-26 -210h-915zM530 235.998c-12.667 12 -21.999 25.834 -27.999 41.501s-9 34.667 -9 57s5.5 45.166 16.5 68.499s25.167 43.333 42.5 60
c37.333 36 81.666 54 132.999 54c93.333 0 140 -43.333 140 -130c0 -56 -19.667 -102.333 -59 -139c-36 -33.333 -80.667 -50 -134 -50c-42 0 -76 12.667 -102 38z" />
    <glyph glyph-name="oslash" unicode="&#xf8;" horiz-adv-x="1158" 
d="M939 1070c92.667 -82 139 -213.332 139 -393.999c0 -184.667 -52.333 -343.334 -157 -476.001c-111.333 -142.667 -258.666 -214 -441.999 -214c-77.333 0 -143.333 14.667 -198 44l-107 -162l-89 49l115 174c-82.667 84 -124 209.667 -124 377c0 184 53 342.667 159 476
c71.333 90 160.666 152.667 267.999 188c54.667 17.333 114.167 26 178.5 26s121.833 -11.333 172.5 -34l113 179l89 -49zM724 950.001c-22.667 18.667 -50.832 28.001 -84.499 28.001s-63.834 -7.83301 -90.501 -23.5s-50.5 -36.834 -71.5 -63.501
s-39.167 -57.667 -54.5 -93c-45.333 -101.333 -68 -216 -68 -344c0 -52 3.33301 -94.333 10 -127zM413.002 212.002c26 -30 58.166 -45.001 96.499 -45.001s70.833 7.66699 97.5 23s50.334 36 71.001 62s38.667 56.667 54 92c42.667 97.333 64 211.333 64 342
c0 70.667 -5 124.334 -15 161.001z" />
    <glyph glyph-name="ugrave" unicode="&#xf9;" horiz-adv-x="1233" 
d="M382 -20c-180.667 0 -270.996 91.001 -270.996 273.001v33c0 28.667 5 82.667 15 162c18 137.333 30 225.666 36 264.999l60 427h274c-22.667 -167.333 -36.334 -270.666 -41.001 -309.999l-38 -287c-15.333 -107.333 -23 -184.333 -23 -231s9.16699 -78.167 27.5 -94.5
s41.166 -24.5 68.499 -24.5s53.666 6.16699 78.999 18.5s50.666 28.833 75.999 49.5c46.667 39.333 91 91.666 133 156.999l98 722h276l-153 -1140h-250l13 205c-74 -104 -162.667 -173 -266 -207c-36.667 -12 -74.667 -18 -114 -18zM695.004 1234
c-49.333 19.333 -120.333 70 -213 152c-94.667 83.333 -153 146.333 -175 189l181 169l311 -426z" />
    <glyph glyph-name="uacute" unicode="&#xfa;" horiz-adv-x="1233" 
d="M601 1319l321 425l180 -169c-20 -37.333 -75.667 -97 -167 -179c-99.333 -88 -176 -142 -230 -162zM382 -20c-180.667 0 -270.996 91.001 -270.996 273.001v33c0 28.667 5 82.667 15 162c18 137.333 30 225.666 36 264.999l60 427h274
c-22.667 -167.333 -36.334 -270.666 -41.001 -309.999l-38 -287c-15.333 -107.333 -23 -184.333 -23 -231s9.16699 -78.167 27.5 -94.5s41.166 -24.5 68.499 -24.5s53.666 6.16699 78.999 18.5s50.666 28.833 75.999 49.5c46.667 39.333 91 91.666 133 156.999l98 722h276
l-153 -1140h-250l13 205c-74 -104 -162.667 -173 -266 -207c-36.667 -12 -74.667 -18 -114 -18z" />
    <glyph glyph-name="ucircumflex" unicode="&#xfb;" horiz-adv-x="1233" 
d="M353 1286l349 374h179l201 -374l-124 -68l-196 219l-301 -223zM382 -20c-180.667 0 -270.996 91.001 -270.996 273.001v33c0 28.667 5 82.667 15 162c18 137.333 30 225.666 36 264.999l60 427h274c-22.667 -167.333 -36.334 -270.666 -41.001 -309.999l-38 -287
c-15.333 -107.333 -23 -184.333 -23 -231s9.16699 -78.167 27.5 -94.5s41.166 -24.5 68.499 -24.5s53.666 6.16699 78.999 18.5s50.666 28.833 75.999 49.5c46.667 39.333 91 91.666 133 156.999l98 722h276l-153 -1140h-250l13 205c-74 -104 -162.667 -173 -266 -207
c-36.667 -12 -74.667 -18 -114 -18z" />
    <glyph glyph-name="udieresis" unicode="&#xfc;" horiz-adv-x="1233" 
d="M1019.5 1377c-21 -9.33301 -42.499 -14.001 -64.499 -14.001s-41.167 4 -57.5 12s-30.5 18.667 -42.5 32c-41.333 46 -49 101 -23 165c16.667 42 44.667 72 84 90c20 9.33301 41.167 14 63.5 14s42.5 -4 60.5 -12c33.333 -14.667 57.333 -39.334 72 -74.001
c6 -15.333 9 -33.166 9 -53.499s-4.33301 -41.666 -13 -63.999s-20.334 -41.5 -35.001 -57.5s-32.5 -28.667 -53.5 -38zM509.001 1363c-22 0 -41 4 -57 12c-33.333 16 -57.333 42 -72 78c-6 16 -9 34.167 -9 54.5s4.33301 41.333 13 63s20.334 40.167 35.001 55.5
c32 33.333 70.667 50 116 50c41.333 0 75.666 -14 102.999 -42c24 -26 36 -56.333 36 -91c0 -51.333 -15.667 -94 -47 -128c-32 -34.667 -71.333 -52 -118 -52zM382.001 -20.001c-180.667 0 -270.996 91.001 -270.996 273.001v33c0 28.667 5 82.667 15 162
c18 137.333 30 225.666 36 264.999l60 427h274c-22.667 -167.333 -36.334 -270.666 -41.001 -309.999l-38 -287c-15.333 -107.333 -23 -184.333 -23 -231s9.16699 -78.167 27.5 -94.5s41.166 -24.5 68.499 -24.5s53.666 6.16699 78.999 18.5s50.666 28.833 75.999 49.5
c46.667 39.333 91 91.666 133 156.999l98 722h276l-153 -1140h-250l13 205c-74 -104 -162.667 -173 -266 -207c-36.667 -12 -74.667 -18 -114 -18z" />
    <glyph glyph-name="yacute" unicode="&#xfd;" horiz-adv-x="1095" 
d="M-71 -255c50.667 -30.667 95.333 -46 134 -46s72 4.33301 100 13s56.333 24 85 46c56.667 42.667 121 117.334 193 224.001h-164l-60 375l-112 783h284l115 -1045c10 18 20 37.667 30 59l31 63c21.333 46 38 86.667 50 122
c53.333 105.333 89.666 195.666 108.999 270.999c42.667 165.333 64.667 318 66 458l2 72h256c2 -25.333 3 -50.333 3 -75c0 -151.333 -19.667 -291.5 -59 -420.5s-82.666 -243.5 -129.999 -343.5c-82 -173.333 -172 -324 -270 -452l-99 -128
c-120 -153.333 -265 -230 -435 -230c-66.667 0 -134 17 -202 51zM464.999 1319l321 425l180 -169c-20 -37.333 -75.667 -97 -167 -179c-99.333 -88 -176 -142 -230 -162z" />
    <glyph glyph-name="thorn" unicode="&#xfe;" horiz-adv-x="1227" 
d="M680 15c-63.333 -20.667 -122.168 -30.999 -176.501 -30.999s-107.166 4 -158.499 12l-63 -500h-272l70 496l222 1644h264l-70 -574l-27 -147c60 107.333 139 180.333 237 219c36 14.667 78.833 22 128.5 22s95 -11 136 -33s74.167 -52.333 99.5 -91
c50 -74.667 75 -177.334 75 -308.001c0 -188.667 -55 -354.667 -165 -498c-78 -100.667 -178 -171 -300 -211zM856.998 702.001c0 170.667 -38.335 255.997 -115.002 255.997c-74 0 -150.333 -60.667 -229 -182c-28 -42.667 -52.333 -88 -73 -136l-60 -466
c28 -8.66699 64.667 -13 110 -13s85 7.83301 119 23.5s64.333 36.834 91 63.501s49.834 57.834 69.501 93.501s35.834 73.834 48.501 114.501c26 79.333 39 161.333 39 246z" />
    <glyph glyph-name="ydieresis" unicode="&#xff;" horiz-adv-x="1095" 
d="M-71 -255c50.667 -30.667 95.333 -46 134 -46s72 4.33301 100 13s56.333 24 85 46c56.667 42.667 121 117.334 193 224.001h-164l-60 375l-112 783h284l115 -1045c10 18 20 37.667 30 59l31 63c21.333 46 38 86.667 50 122
c53.333 105.333 89.666 195.666 108.999 270.999c42.667 165.333 64.667 318 66 458l2 72h256c2 -25.333 3 -50.333 3 -75c0 -151.333 -19.667 -291.5 -59 -420.5s-82.666 -243.5 -129.999 -343.5c-82 -173.333 -172 -324 -270 -452l-99 -128
c-120 -153.333 -265 -230 -435 -230c-66.667 0 -134 17 -202 51zM883.499 1377c-21 -9.33301 -42.499 -14.001 -64.499 -14.001s-41.167 4 -57.5 12s-30.5 18.667 -42.5 32c-41.333 46 -49 101 -23 165c16.667 42 44.667 72 84 90c20 9.33301 41.167 14 63.5 14
s42.5 -4 60.5 -12c33.333 -14.667 57.333 -39.334 72 -74.001c6 -15.333 9 -33.166 9 -53.499s-4.33301 -41.666 -13 -63.999s-20.334 -41.5 -35.001 -57.5s-32.5 -28.667 -53.5 -38zM373 1363c-22 0 -41 4 -57 12c-33.333 16 -57.333 42 -72 78c-6 16 -9 34.167 -9 54.5
s4.33301 41.333 13 63s20.334 40.167 35.001 55.5c32 33.333 70.667 50 116 50c41.333 0 75.666 -14 102.999 -42c24 -26 36 -56.333 36 -91c0 -51.333 -15.667 -94 -47 -128c-32 -34.667 -71.333 -52 -118 -52z" />
    <glyph glyph-name="Amacron" unicode="&#x100;" horiz-adv-x="1305" 
d="M644 1530h334l257 -1530l-277 -1l-48 342h-561l-148 -341l-301 -1zM882 537l-95 682l-10 118l-47 -121l-296 -679h448zM547 1897h544l-13 -179h-543z" />
    <glyph glyph-name="amacron" unicode="&#x101;" horiz-adv-x="1207" 
d="M537 1124c62.667 21.333 130.333 31.998 203 31.998s153.667 -13 243 -39l149 39l-159 -1156h-246l14 217c-60 -104.667 -136.667 -175.667 -230 -213c-34.667 -13.333 -76.5 -20 -125.5 -20s-94 10.833 -135 32.5s-74.5 51.834 -100.5 90.501
c-49.333 74.667 -74 177 -74 307c0 189.333 54.333 355.333 163 498c76 100.667 175.333 171.334 298 212.001zM362.999 436.998c0 -171.333 38.665 -257.001 115.998 -257.001c54 0 109.667 35.333 167 106c44 52.667 84 119.334 120 200.001l67 480
c-30 9.33301 -67 14 -111 14s-82.667 -7.83301 -116 -23.5s-63.166 -37 -89.499 -64s-49.166 -58.5 -68.499 -94.5s-35.333 -74 -48 -114c-24.667 -78 -37 -160.333 -37 -247zM484.997 1594h543l-11 -179h-543z" />
    <glyph glyph-name="Abreve" unicode="&#x102;" horiz-adv-x="1305" 
d="M644 1530h334l257 -1530l-277 -1l-48 342h-561l-148 -341l-301 -1zM882 537l-95 682l-10 118l-47 -121l-296 -679h448zM529.5 1825c-11 38 -16.5 70.998 -16.5 98.998s2.33301 52.333 7 73h161c0 -5.33301 -0.166992 -11.166 -0.5 -17.499s0.166992 -16 1.5 -29
s4.5 -28.167 9.5 -45.5s13.167 -33 24.5 -47c25.333 -30 60 -45 104 -45s76.667 6.33301 98 19s38.666 28.334 51.999 47.001c17.333 24 33.333 63.333 48 118h158v-17c0 -41.333 -8.66699 -84 -26 -128s-40.666 -82 -69.999 -114c-65.333 -71.333 -150.333 -107 -255 -107
c-106.667 0 -187 31.333 -241 94c-25.333 28.667 -43.5 62 -54.5 100z" />
    <glyph glyph-name="abreve" unicode="&#x103;" horiz-adv-x="1207" 
d="M537 1124c62.667 21.333 130.333 31.998 203 31.998s153.667 -13 243 -39l149 39l-159 -1156h-246l14 217c-60 -104.667 -136.667 -175.667 -230 -213c-34.667 -13.333 -76.5 -20 -125.5 -20s-94 10.833 -135 32.5s-74.5 51.834 -100.5 90.501
c-49.333 74.667 -74 177 -74 307c0 189.333 54.333 355.333 163 498c76 100.667 175.333 171.334 298 212.001zM362.999 436.998c0 -171.333 38.665 -257.001 115.998 -257.001c54 0 109.667 35.333 167 106c44 52.667 84 119.334 120 200.001l67 480
c-30 9.33301 -67 14 -111 14s-82.667 -7.83301 -116 -23.5s-63.166 -37 -89.499 -64s-49.166 -58.5 -68.499 -94.5s-35.333 -74 -48 -114c-24.667 -78 -37 -160.333 -37 -247zM469.497 1494c-11 38 -16.5 70.8301 -16.5 98.4971s2.33301 52.167 7 73.5h161
c0 -5.33301 -0.166992 -11.166 -0.5 -17.499s0.166992 -16 1.5 -29s4.5 -28.167 9.5 -45.5s13.167 -32.666 24.5 -45.999c25.333 -30.667 60 -46 104 -46s76.667 6.33301 98 19s38.666 28.334 51.999 47.001c17.333 24 33.333 63.333 48 118h158v-16
c0 -42 -8.66699 -85 -26 -129s-40.666 -81.667 -69.999 -113c-65.333 -72 -150.333 -108 -255 -108c-106.667 0 -187 31.333 -241 94c-25.333 28.667 -43.5 62 -54.5 100z" />
    <glyph glyph-name="Aogonek" unicode="&#x104;" horiz-adv-x="1311" 
d="M1219 -364c-74 -72.667 -169.667 -109 -287 -109c-62.667 0 -113.334 18.333 -152.001 55c-34 33.333 -51 70.333 -51 111s9.33301 76.667 28 108s41.667 59.666 69 84.999c48 46 102 83.667 162 113h-24l-48 342h-561l-148 -341l-301 -1l744 1531h334l257 -1530h-48
c-99.333 -53.333 -167.666 -106 -204.999 -158c-14 -19.333 -21 -37.666 -21 -54.999c0 -46 22.333 -69 67 -69s91 18.333 139 55zM888 537l-95 682l-10 118l-47 -121l-296 -679h448z" />
    <glyph glyph-name="aogonek" unicode="&#x105;" horiz-adv-x="1221" 
d="M999 -364c-74 -72.667 -169.667 -109.004 -287 -109.004c-62.667 0 -113.334 18.333 -152.001 55c-34 33.333 -51 70.333 -51 111s9.5 76.834 28.5 108.501s42.167 60.5 69.5 86.5c45.333 42.667 99.666 80 162.999 112h-35l14 217
c-60 -104.667 -136.667 -175.667 -230 -213c-34.667 -13.333 -76.5 -20 -125.5 -20s-94 10.833 -135 32.5s-74.5 51.834 -100.5 90.501c-49.333 74.667 -74 177 -74 307c0 189.333 54.333 355.333 163 498c76 100.667 175.333 171.334 298 212.001
c62.667 21.333 130.334 32 203.001 32s153.667 -13 243 -39l149 39l-159 -1156h-8c-99.333 -53.333 -167.666 -106 -204.999 -158c-14 -19.333 -21 -37.666 -21 -54.999c0 -46 22.333 -69 67 -69s91 18.333 139 55zM371 436.996c0 -171.333 38.667 -257.001 116 -257.001
c54 0 109.667 35.333 167 106c44 52.667 84 119.334 120 200.001l67 480c-30 9.33301 -66.833 14 -110.5 14s-82.334 -7.83301 -116.001 -23.5s-63.667 -37 -90 -64s-49.166 -58.5 -68.499 -94.5s-35.333 -74 -48 -114c-24.667 -78 -37 -160.333 -37 -247z" />
    <glyph glyph-name="Cacute" unicode="&#x106;" horiz-adv-x="1173" 
d="M787 -2c-49.333 -9.33301 -105.499 -14 -168.499 -14s-120.167 8.5 -171.5 25.5s-96.333 40.667 -135 71s-71.334 66 -98.001 107s-48.334 85.167 -65.001 132.5c-32.667 92.667 -49 189.5 -49 290.5s8.16699 190.333 24.5 268s40.333 150.5 72 218.5
s70.334 129.667 116.001 185s96.834 102.666 153.501 141.999c118.667 81.333 250.334 122 395.001 122c91.333 0 169.666 -11.333 234.999 -34l50 -18l54 -16l-86 -250l-37 25c-60.667 40.667 -140 61 -238 61c-158.667 0 -278 -76 -358 -228
c-66 -124 -99 -269.333 -99 -436c0 -215.333 56.333 -352.666 169 -411.999c38 -20.667 80 -31 126 -31s86.667 3.5 122 10.5s67.333 15.833 96 26.5c54.667 19.333 96.667 40 126 62l38 -208c-54.667 -44 -145.334 -77.333 -272.001 -100zM767.001 1665l277 342.001
l167 -157c-25.333 -48 -76.666 -103 -153.999 -165c-70.667 -56.667 -131.334 -94.334 -182.001 -113.001z" />
    <glyph glyph-name="cacute" unicode="&#x107;" horiz-adv-x="931" 
d="M571 1319l321 425l180 -169c-20 -37.333 -75.667 -97 -167 -179c-99.333 -88 -176 -142 -230 -162zM538 187c81.333 0 164.331 42.334 248.998 127.001l77 -138c-56.667 -82 -140 -139.667 -250 -173c-42 -12.667 -93 -19 -153 -19s-114.833 12 -164.5 36
s-90.5 56.667 -122.5 98c-62.667 80 -94 186.667 -94 320c0 192 53.333 357.333 160 496c52 67.333 115 121.166 189 161.499s157.667 60.5 251 60.5c100.667 0 180.334 -13.333 239.001 -40l-68 -255c-64.667 55.333 -129 83 -193 83c-77.333 0 -145 -41.333 -203 -124
c-62.667 -89.333 -94 -204 -94 -344c0 -150.667 32.333 -241.667 97 -273c22.667 -10.667 49.334 -16 80.001 -16z" />
    <glyph glyph-name="Ccircumflex" unicode="&#x108;" horiz-adv-x="1173" 
d="M787 -2c-49.333 -9.33301 -105.499 -14 -168.499 -14s-120.167 8.5 -171.5 25.5s-96.333 40.667 -135 71s-71.334 66 -98.001 107s-48.334 85.167 -65.001 132.5c-32.667 92.667 -49 189.5 -49 290.5s8.16699 190.333 24.5 268s40.333 150.5 72 218.5
s70.334 129.667 116.001 185s96.834 102.666 153.501 141.999c118.667 81.333 250.334 122 395.001 122c91.333 0 169.666 -11.333 234.999 -34l50 -18l54 -16l-86 -250l-37 25c-60.667 40.667 -140 61 -238 61c-158.667 0 -278 -76 -358 -228
c-66 -124 -99 -269.333 -99 -436c0 -215.333 56.333 -352.666 169 -411.999c38 -20.667 80 -31 126 -31s86.667 3.5 122 10.5s67.333 15.833 96 26.5c54.667 19.333 96.667 40 126 62l38 -208c-54.667 -44 -145.334 -77.333 -272.001 -100zM489.001 1661l349 346h179
l201 -340l-119 -73l-197 200l-300 -205z" />
    <glyph glyph-name="ccircumflex" unicode="&#x109;" horiz-adv-x="931" 
d="M322 1286l349 374h179l201 -374l-124 -68l-196 219l-301 -223zM538 187c81.333 0 164.331 42.334 248.998 127.001l77 -138c-56.667 -82 -140 -139.667 -250 -173c-42 -12.667 -93 -19 -153 -19s-114.833 12 -164.5 36s-90.5 56.667 -122.5 98
c-62.667 80 -94 186.667 -94 320c0 192 53.333 357.333 160 496c52 67.333 115 121.166 189 161.499s157.667 60.5 251 60.5c100.667 0 180.334 -13.333 239.001 -40l-68 -255c-64.667 55.333 -129 83 -193 83c-77.333 0 -145 -41.333 -203 -124
c-62.667 -89.333 -94 -204 -94 -344c0 -150.667 32.333 -241.667 97 -273c22.667 -10.667 49.334 -16 80.001 -16z" />
    <glyph glyph-name="Cdotaccent" unicode="&#x10a;" horiz-adv-x="1173" 
d="M916 1668c-22.667 -9.33301 -46 -13.9971 -70 -13.9971s-44.667 4 -62 12c-36.667 15.333 -62.334 40.666 -77.001 75.999c-6.66699 16 -10 34.667 -10 56s5 42.666 15 63.999s23 39.666 39 54.999c34.667 33.333 75.667 50 123 50c72.667 0 120.334 -28.333 143.001 -85
c6 -15.333 9 -27.5 9 -36.5s-0.166992 -19.833 -0.5 -32.5s-5 -29.667 -14 -51s-21.5 -40 -37.5 -56s-35.333 -28.667 -58 -38zM787 -1.99707c-49.333 -9.33301 -105.499 -14 -168.499 -14s-120.167 8.5 -171.5 25.5s-96.333 40.667 -135 71s-71.334 66 -98.001 107
s-48.334 85.167 -65.001 132.5c-32.667 92.667 -49 189.5 -49 290.5s8.16699 190.333 24.5 268s40.333 150.5 72 218.5s70.334 129.667 116.001 185s96.834 102.666 153.501 141.999c118.667 81.333 250.334 122 395.001 122c91.333 0 169.666 -11.333 234.999 -34l50 -18
l54 -16l-86 -250l-37 25c-60.667 40.667 -140 61 -238 61c-158.667 0 -278 -76 -358 -228c-66 -124 -99 -269.333 -99 -436c0 -215.333 56.333 -352.666 169 -411.999c38 -20.667 80 -31 126 -31s86.667 3.5 122 10.5s67.333 15.833 96 26.5c54.667 19.333 96.667 40 126 62
l38 -208c-54.667 -44 -145.334 -77.333 -272.001 -100z" />
    <glyph glyph-name="cdotaccent" unicode="&#x10b;" horiz-adv-x="931" 
d="M538 187c81.333 0 164.331 42.334 248.998 127.001l77 -138c-56.667 -82 -140 -139.667 -250 -173c-42 -12.667 -93 -19 -153 -19s-114.833 12 -164.5 36s-90.5 56.667 -122.5 98c-62.667 80 -94 186.667 -94 320c0 192 53.333 357.333 160 496
c52 67.333 115 121.166 189 161.499s157.667 60.5 251 60.5c100.667 0 180.334 -13.333 239.001 -40l-68 -255c-64.667 55.333 -129 83 -193 83c-77.333 0 -145 -41.333 -203 -124c-62.667 -89.333 -94 -204 -94 -344c0 -150.667 32.333 -241.667 97 -273
c22.667 -10.667 49.334 -16 80.001 -16zM777.498 1365c-22.333 -9.33301 -45.333 -13.999 -69 -13.999s-44.167 3.66699 -61.5 11c-36 14.667 -61.667 40 -77 76c-6.66699 16 -10 34.833 -10 56.5s4.83301 43.167 14.5 64.5s22.5 39.666 38.5 54.999
c34 34.667 75.333 52 124 52c70 0 116.667 -28.667 140 -86c6.66699 -16 10 -34.5 10 -55.5s-4.66699 -42.5 -14 -64.5s-22 -41 -38 -57s-35.167 -28.667 -57.5 -38z" />
    <glyph glyph-name="Ccaron" unicode="&#x10c;" horiz-adv-x="1173" 
d="M787 -2c-49.333 -9.33301 -105.499 -14 -168.499 -14s-120.167 8.5 -171.5 25.5s-96.333 40.667 -135 71s-71.334 66 -98.001 107s-48.334 85.167 -65.001 132.5c-32.667 92.667 -49 189.5 -49 290.5s8.16699 190.333 24.5 268s40.333 150.5 72 218.5
s70.334 129.667 116.001 185s96.834 102.666 153.501 141.999c118.667 81.333 250.334 122 395.001 122c91.333 0 169.666 -11.333 234.999 -34l50 -18l54 -16l-86 -250l-37 25c-60.667 40.667 -140 61 -238 61c-158.667 0 -278 -76 -358 -228
c-66 -124 -99 -269.333 -99 -436c0 -215.333 56.333 -352.666 169 -411.999c38 -20.667 80 -31 126 -31s86.667 3.5 122 10.5s67.333 15.833 96 26.5c54.667 19.333 96.667 40 126 62l38 -208c-54.667 -44 -145.334 -77.333 -272.001 -100zM508.001 1924l116 83l217 -206
l300 206l115 -77l-343 -323h-178z" />
    <glyph glyph-name="ccaron" unicode="&#x10d;" horiz-adv-x="931" 
d="M351 1582l106 78l233 -217l294 217l115 -77l-343 -341h-178zM538 187c81.333 0 164.331 42.334 248.998 127.001l77 -138c-56.667 -82 -140 -139.667 -250 -173c-42 -12.667 -93 -19 -153 -19s-114.833 12 -164.5 36s-90.5 56.667 -122.5 98
c-62.667 80 -94 186.667 -94 320c0 192 53.333 357.333 160 496c52 67.333 115 121.166 189 161.499s157.667 60.5 251 60.5c100.667 0 180.334 -13.333 239.001 -40l-68 -255c-64.667 55.333 -129 83 -193 83c-77.333 0 -145 -41.333 -203 -124
c-62.667 -89.333 -94 -204 -94 -344c0 -150.667 32.333 -241.667 97 -273c22.667 -10.667 49.334 -16 80.001 -16z" />
    <glyph glyph-name="Dcaron" unicode="&#x10e;" horiz-adv-x="1406" 
d="M475 1924l116 83l217 -206l300 206l115 -77l-343 -323h-178zM442 1530l342 16.001c386 0 579 -210 579 -630c0 -262 -69.333 -480.333 -208 -655c-94 -118.667 -214.333 -200.334 -361 -245.001c-70.667 -21.333 -146.667 -32 -228 -32c-43.333 0 -81.5 1.33301 -114.5 4
l-76 6c-17.667 1.33301 -35.5 2.33301 -53.5 3l-54 2c-17.333 0.666992 -33.333 1 -48 1h-123l206 1530h139zM402 214.001c49.333 -16.667 106.668 -25 172.001 -25h24c157.333 2 279.333 79 366 231c76 132 114 294.667 114 488c0 166.667 -29 282 -87 346
c-54 59.333 -145 89 -273 89c-54.667 0 -110.334 -5.66699 -167.001 -17z" />
    <glyph glyph-name="dcaron" unicode="&#x10f;" horiz-adv-x="1515" 
d="M540 1124c63.333 21.333 123.167 31.998 179.5 31.998s103.833 -3.33301 142.5 -10l67 490h270l-216 -1636h-247l15 230c-59.333 -109.333 -138.333 -184 -237 -224c-36 -14.667 -78.833 -22 -128.5 -22s-95 10.833 -136 32.5s-74.167 51.834 -99.5 90.501
c-50 74.667 -75 177 -75 307c0 188 55 354 165 498c77.333 100.667 177.333 171.334 300 212.001zM362.001 436.998c0 -170 38.666 -255 115.999 -255c54.667 0 112.334 36 173.001 108c44.667 54 85.334 121.667 122.001 203l64 469c-37.333 12 -76.166 18 -116.499 18
s-77.333 -7.83301 -111 -23.5s-63.834 -37 -90.501 -64s-49.834 -58.5 -69.501 -94.5s-36.167 -74 -49.5 -114c-25.333 -78.667 -38 -161 -38 -247zM1534 1667c22.667 -38 34.001 -107.665 34.001 -208.998c0 -120.667 -25.667 -235.334 -77 -344.001
c-16.667 -35.333 -35.334 -66 -56.001 -92l-125 34l-6 25c27.333 94.667 41 194.667 41 300s-9.33301 172.666 -28 201.999l14 37z" />
    <glyph glyph-name="Dcroat" unicode="&#x110;" horiz-adv-x="1408" 
d="M552 -15l-309 16.001h-146l94 697h-155l20 190h160l87 643h139l342 16c386 0 579 -210 579 -630c0 -262 -69.333 -480.333 -208 -655c-94 -118.667 -214.333 -200.334 -361 -245.001c-70.667 -21.333 -146.667 -32 -228 -32h-14zM402 215.001
c49.333 -16.667 106.668 -25 172.001 -25h24c157.333 2 279.333 79 366 231c76 132 114 294.667 114 488c0 166.667 -29 281.667 -87 345c-54 60 -145 90 -273 90c-54.667 0 -110.334 -5.66699 -167.001 -17l-59 -439h339l-21 -190h-343z" />
    <glyph glyph-name="dcroat" unicode="&#x111;" horiz-adv-x="1218" 
d="M540 1124c63.333 21.333 123.167 31.998 179.5 31.998s103.833 -3.33301 142.5 -10l16 116h-243l16 130h244l34 244h270l-33 -244h147l-16 -130h-148l-166 -1262h-247l15 230c-59.333 -109.333 -138.333 -184 -237 -224c-36 -14.667 -78.833 -22 -128.5 -22
s-95 10.833 -136 32.5s-74.167 51.834 -99.5 90.501c-50 74.667 -75 177 -75 307c0 188 55 354 165 498c77.333 100.667 177.333 171.334 300 212.001zM362.001 436.998c0 -170 38.666 -255 115.999 -255c54.667 0 112.334 36 173.001 108
c44.667 54 85.334 121.667 122.001 203l64 469c-37.333 12 -76.166 18 -116.499 18s-77.333 -7.83301 -111 -23.5s-63.834 -37 -90.501 -64s-49.834 -58.5 -69.501 -94.5s-36.167 -74 -49.5 -114c-25.333 -78.667 -38 -161 -38 -247z" />
    <glyph glyph-name="Emacron" unicode="&#x112;" horiz-adv-x="1171" 
d="M470 1897h544l-13 -179h-543zM297 1530h841l-22 -216l-572 5l-57 -432l428 6l-24 -221l-432 12l-63 -474l666 13l-25 -223h-946z" />
    <glyph glyph-name="emacron" unicode="&#x113;" horiz-adv-x="1074" 
d="M370 392c0 -140 59 -209.999 177 -209.999c84 0 170 33.333 258 100c26 19.333 49.333 39.666 70 60.999l73 -141c-37.333 -52.667 -92.333 -99.334 -165 -140.001c-92 -52 -182 -78 -270 -78s-158.333 12.667 -211 38c-148.667 72.667 -223 209 -223 409
c0 102.667 16 198.834 48 288.501s75.5 166.5 130.5 230.5s120.167 114.333 195.5 151s148.5 55 219.5 55s126 -6.33301 165 -19s71.5 -30.334 97.5 -53.001c50 -43.333 75 -104.666 75 -183.999c0 -221.333 -165 -376 -495 -464c-50 -13.333 -98.333 -24 -145 -32v-12z
M638 984.001c-98 0 -174.666 -80.667 -229.999 -242c-20.667 -60 -33.334 -119.667 -38.001 -179c78 4.66699 157 35 237 91c88.667 62 133 132.5 133 211.5s-34 118.5 -102 118.5zM414.001 1594h543l-11 -179h-543z" />
    <glyph glyph-name="Ebreve" unicode="&#x114;" horiz-adv-x="1171" 
d="M452.5 1825c-11 38 -16.5 70.998 -16.5 98.998s2.33301 52.333 7 73h161c0 -5.33301 -0.166992 -11.166 -0.5 -17.499s0.166992 -16 1.5 -29s4.5 -28.167 9.5 -45.5s13.167 -33 24.5 -47c25.333 -30 60 -45 104 -45s76.667 6.33301 98 19s38.666 28.334 51.999 47.001
c17.333 24 33.333 63.333 48 118h158v-17c0 -41.333 -8.66699 -84 -26 -128s-40.666 -82 -69.999 -114c-65.333 -71.333 -150.333 -107 -255 -107c-106.667 0 -187 31.333 -241 94c-25.333 28.667 -43.5 62 -54.5 100zM297 1530h841l-22 -216l-572 5l-57 -432l428 6
l-24 -221l-432 12l-63 -474l666 13l-25 -223h-946z" />
    <glyph glyph-name="ebreve" unicode="&#x115;" horiz-adv-x="1074" 
d="M370 392c0 -140 59 -209.999 177 -209.999c84 0 170 33.333 258 100c26 19.333 49.333 39.666 70 60.999l73 -141c-37.333 -52.667 -92.333 -99.334 -165 -140.001c-92 -52 -182 -78 -270 -78s-158.333 12.667 -211 38c-148.667 72.667 -223 209 -223 409
c0 102.667 16 198.834 48 288.501s75.5 166.5 130.5 230.5s120.167 114.333 195.5 151s148.5 55 219.5 55s126 -6.33301 165 -19s71.5 -30.334 97.5 -53.001c50 -43.333 75 -104.666 75 -183.999c0 -221.333 -165 -376 -495 -464c-50 -13.333 -98.333 -24 -145 -32v-12z
M638 984.001c-98 0 -174.666 -80.667 -229.999 -242c-20.667 -60 -33.334 -119.667 -38.001 -179c78 4.66699 157 35 237 91c88.667 62 133 132.5 133 211.5s-34 118.5 -102 118.5zM398.501 1494c-11 38 -16.5 70.8301 -16.5 98.4971s2.33301 52.167 7 73.5h161
c0 -5.33301 -0.166992 -11.166 -0.5 -17.499s0.166992 -16 1.5 -29s4.5 -28.167 9.5 -45.5s13.167 -32.666 24.5 -45.999c25.333 -30.667 60 -46 104 -46s76.667 6.33301 98 19s38.666 28.334 51.999 47.001c17.333 24 33.333 63.333 48 118h158v-16
c0 -42 -8.66699 -85 -26 -129s-40.666 -81.667 -69.999 -113c-65.333 -72 -150.333 -108 -255 -108c-106.667 0 -187 31.333 -241 94c-25.333 28.667 -43.5 62 -54.5 100z" />
    <glyph glyph-name="Edotaccent" unicode="&#x116;" horiz-adv-x="1171" 
d="M809 1668c-22.667 -9.33301 -46 -13.9971 -70 -13.9971s-44.667 4 -62 12c-36.667 15.333 -62.334 40.666 -77.001 75.999c-6.66699 16 -10 34.667 -10 56s5 42.666 15 63.999s23 39.666 39 54.999c34.667 33.333 75.667 50 123 50c72.667 0 120.334 -28.333 143.001 -85
c6 -15.333 9 -27.5 9 -36.5s-0.166992 -19.833 -0.5 -32.5s-5 -29.667 -14 -51s-21.5 -40 -37.5 -56s-35.333 -28.667 -58 -38zM297 1530h841l-22 -216l-572 5l-57 -432l428 6l-24 -221l-432 12l-63 -474l666 13l-25 -223h-946z" />
    <glyph glyph-name="edotaccent" unicode="&#x117;" horiz-adv-x="1074" 
d="M370 392c0 -140 59 -209.999 177 -209.999c84 0 170 33.333 258 100c26 19.333 49.333 39.666 70 60.999l73 -141c-37.333 -52.667 -92.333 -99.334 -165 -140.001c-92 -52 -182 -78 -270 -78s-158.333 12.667 -211 38c-148.667 72.667 -223 209 -223 409
c0 102.667 16 198.834 48 288.501s75.5 166.5 130.5 230.5s120.167 114.333 195.5 151s148.5 55 219.5 55s126 -6.33301 165 -19s71.5 -30.334 97.5 -53.001c50 -43.333 75 -104.666 75 -183.999c0 -221.333 -165 -376 -495 -464c-50 -13.333 -98.333 -24 -145 -32v-12z
M638 984.001c-98 0 -174.666 -80.667 -229.999 -242c-20.667 -60 -33.334 -119.667 -38.001 -179c78 4.66699 157 35 237 91c88.667 62 133 132.5 133 211.5s-34 118.5 -102 118.5zM767.501 1365c-22.333 -9.33301 -45.333 -13.999 -69 -13.999s-44.167 3.66699 -61.5 11
c-36 14.667 -61.667 40 -77 76c-6.66699 16 -10 34.833 -10 56.5s4.83301 43.167 14.5 64.5s22.5 39.666 38.5 54.999c34 34.667 75.333 52 124 52c70 0 116.667 -28.667 140 -86c6.66699 -16 10 -34.5 10 -55.5s-4.66699 -42.5 -14 -64.5s-22 -41 -38 -57
s-35.167 -28.667 -57.5 -38z" />
    <glyph glyph-name="Eogonek" unicode="&#x118;" horiz-adv-x="1177" 
d="M1047 -364c-74 -72.667 -169.666 -109.002 -286.999 -109.002c-62.667 0 -113.334 18.333 -152.001 55c-34 33.333 -51 70.333 -51 111s9.5 76.834 28.5 108.501s42.167 60.5 69.5 86.5c45.333 42.667 99.666 80 162.999 112h-721l206 1530h841l-22 -216l-572 5l-57 -432
l428 6l-24 -221l-432 12l-63 -474l666 13l-25 -223h-22c-99.333 -53.333 -167.666 -106 -204.999 -158c-14 -19.333 -21 -37.666 -21 -54.999c0 -46 22.333 -69 67 -69s91 18.333 139 55z" />
    <glyph glyph-name="eogonek" unicode="&#x119;" horiz-adv-x="1082" 
d="M804 -364c-76 -72.667 -171.668 -109 -287.001 -109c-62.667 0 -113.334 18.333 -152.001 55c-34 33.333 -51 69.333 -51 108s8 72.5 24 101.5s36 55.833 60 80.5c42.667 44 93.334 82.333 152.001 115c-19.333 -2 -38.666 -3 -57.999 -3
c-138.667 0 -245 46.667 -319 140c-62.667 78.667 -94 181 -94 307c0 102.667 16 198.834 48 288.501s75.5 166.5 130.5 230.5s120.167 114.333 195.5 151s148.5 55 219.5 55s126 -6.33301 165 -19s71.5 -30.334 97.5 -53.001c50 -43.333 75 -104.666 75 -183.999
c0 -221.333 -165 -376 -495 -464c-50 -13.333 -98.333 -24 -145 -32v-12c0 -140 59 -210 177 -210c84 0 170 33.333 258 100c26 19.333 49.333 39.666 70 60.999l73 -141c-30 -43.333 -78.333 -86 -145 -128c-102 -82.667 -177.333 -158.667 -226 -228
c-17.333 -24 -26 -43.667 -26 -59c0 -46 21.667 -69 65 -69c46.667 0 94 18.333 142 55zM637.999 984c-98 0 -174.666 -80.667 -229.999 -242c-20.667 -60 -33.334 -119.667 -38.001 -179c78 4.66699 157 35 237 91c88.667 62 133 132.5 133 211.5s-34 118.5 -102 118.5z
" />
    <glyph glyph-name="Ecaron" unicode="&#x11a;" horiz-adv-x="1171" 
d="M400 1924l116 83l217 -206l300 206l115 -77l-343 -323h-178zM297 1530h841l-22 -216l-572 5l-57 -432l428 6l-24 -221l-432 12l-63 -474l666 13l-25 -223h-946z" />
    <glyph glyph-name="ecaron" unicode="&#x11b;" horiz-adv-x="1074" 
d="M340 1582l106 78l233 -217l294 217l115 -77l-343 -341h-178zM370 392c0 -140 59 -209.999 177 -209.999c84 0 170 33.333 258 100c26 19.333 49.333 39.666 70 60.999l73 -141c-37.333 -52.667 -92.333 -99.334 -165 -140.001c-92 -52 -182 -78 -270 -78
s-158.333 12.667 -211 38c-148.667 72.667 -223 209 -223 409c0 102.667 16 198.834 48 288.501s75.5 166.5 130.5 230.5s120.167 114.333 195.5 151s148.5 55 219.5 55s126 -6.33301 165 -19s71.5 -30.334 97.5 -53.001c50 -43.333 75 -104.666 75 -183.999
c0 -221.333 -165 -376 -495 -464c-50 -13.333 -98.333 -24 -145 -32v-12zM638 984.001c-98 0 -174.666 -80.667 -229.999 -242c-20.667 -60 -33.334 -119.667 -38.001 -179c78 4.66699 157 35 237 91c88.667 62 133 132.5 133 211.5s-34 118.5 -102 118.5z" />
    <glyph glyph-name="Gcircumflex" unicode="&#x11c;" horiz-adv-x="1390" 
d="M221 186c-82.667 116.667 -124.002 263.665 -124.002 440.998c0 269.333 74 490 222 662c94 110 208 185.667 342 227c66.667 20 129.834 30 189.501 30s108.5 -2 146.5 -6s72 -8.66699 102 -14c45.333 -8.66699 90.666 -20.667 135.999 -36l66 -22l-68 -250
c-60 43.333 -140.667 74.333 -242 93c-39.333 7.33301 -85.5 11 -138.5 11s-103.333 -10 -151 -30s-89.667 -47.167 -126 -81.5s-67.166 -74.5 -92.499 -120.5c-70.667 -127.333 -106 -274 -106 -440v-55c0 -32.667 5.83301 -76 17.5 -130s30.167 -101 55.5 -141
c54.667 -86.667 135.334 -130 242.001 -130c99.333 0 186.333 18 261 54l46 322h-240l27 220h501l-94 -703c-28.667 -3.33301 -63 -10.666 -103 -21.999l-105 -31c-116 -33.333 -218 -50 -306 -50s-158.667 8.66699 -212 26c-103.333 32.667 -185.333 91.334 -246 176.001z
M533.998 1661l349 346h179l201 -340l-119 -73l-197 200l-300 -205z" />
    <glyph glyph-name="gcircumflex" unicode="&#x11d;" horiz-adv-x="1213" 
d="M387 1286l349 374h179l201 -374l-124 -68l-196 219l-301 -223zM540 1124c63.333 21.333 131.332 31.9961 203.999 31.9961s153.667 -13 243 -39l152 39l-167 -1217c-30.667 -207.333 -142 -344.666 -334 -411.999c-72.667 -25.333 -154.667 -38 -246 -38
c-72.667 0 -133.334 5.5 -182.001 16.5s-78 18.833 -88 23.5l51 210c48 -27.333 98.333 -46 151 -56s95.834 -15 129.501 -15s64.334 5.5 92.001 16.5s51.167 26.833 70.5 47.5c33.333 36.667 58 93.667 74 171l55 316c-62.667 -105.333 -141 -176.666 -235 -213.999
c-34.667 -14 -76.5 -21 -125.5 -21s-94 10.833 -135 32.5s-74.167 51.834 -99.5 90.501c-50 74.667 -75 177 -75 307c0 188 55 354 165 498c77.333 100.667 177.333 171.334 300 212.001zM361.999 436.996c0 -170 38.6709 -254.999 116.004 -254.999
c53.333 0 110 35 170 105c45.333 53.333 85.666 119.666 120.999 198.999l67 481c-34 8.66699 -71.833 13 -113.5 13s-79.334 -7.83301 -113.001 -23.5s-63.834 -37 -90.501 -64s-49.834 -58.5 -69.501 -94.5s-36.167 -74 -49.5 -114c-25.333 -78.667 -38 -161 -38 -247z
" />
    <glyph glyph-name="Gbreve" unicode="&#x11e;" horiz-adv-x="1390" 
d="M604.5 1825c-11 38 -16.5 70.998 -16.5 98.998s2.33301 52.333 7 73h161c0 -5.33301 -0.166992 -11.166 -0.5 -17.499s0.166992 -16 1.5 -29s4.5 -28.167 9.5 -45.5s13.167 -33 24.5 -47c25.333 -30 60 -45 104 -45s76.667 6.33301 98 19s38.666 28.334 51.999 47.001
c17.333 24 33.333 63.333 48 118h158v-17c0 -41.333 -8.66699 -84 -26 -128s-40.666 -82 -69.999 -114c-65.333 -71.333 -150.333 -107 -255 -107c-106.667 0 -187 31.333 -241 94c-25.333 28.667 -43.5 62 -54.5 100zM221 185.998
c-82.667 116.667 -124.002 263.665 -124.002 440.998c0 269.333 74 490 222 662c94 110 208 185.667 342 227c66.667 20 129.834 30 189.501 30s108.5 -2 146.5 -6s72 -8.66699 102 -14c45.333 -8.66699 90.666 -20.667 135.999 -36l66 -22l-68 -250
c-60 43.333 -140.667 74.333 -242 93c-39.333 7.33301 -85.5 11 -138.5 11s-103.333 -10 -151 -30s-89.667 -47.167 -126 -81.5s-67.166 -74.5 -92.499 -120.5c-70.667 -127.333 -106 -274 -106 -440v-55c0 -32.667 5.83301 -76 17.5 -130s30.167 -101 55.5 -141
c54.667 -86.667 135.334 -130 242.001 -130c99.333 0 186.333 18 261 54l46 322h-240l27 220h501l-94 -703c-28.667 -3.33301 -63 -10.666 -103 -21.999l-105 -31c-116 -33.333 -218 -50 -306 -50s-158.667 8.66699 -212 26c-103.333 32.667 -185.333 91.334 -246 176.001z
" />
    <glyph glyph-name="gbreve" unicode="&#x11f;" horiz-adv-x="1213" 
d="M540 1124c63.333 21.333 131.332 31.9961 203.999 31.9961s153.667 -13 243 -39l152 39l-167 -1217c-30.667 -207.333 -142 -344.666 -334 -411.999c-72.667 -25.333 -154.667 -38 -246 -38c-72.667 0 -133.334 5.5 -182.001 16.5s-78 18.833 -88 23.5l51 210
c48 -27.333 98.333 -46 151 -56s95.834 -15 129.501 -15s64.334 5.5 92.001 16.5s51.167 26.833 70.5 47.5c33.333 36.667 58 93.667 74 171l55 316c-62.667 -105.333 -141 -176.666 -235 -213.999c-34.667 -14 -76.5 -21 -125.5 -21s-94 10.833 -135 32.5
s-74.167 51.834 -99.5 90.501c-50 74.667 -75 177 -75 307c0 188 55 354 165 498c77.333 100.667 177.333 171.334 300 212.001zM361.999 436.996c0 -170 38.6709 -254.999 116.004 -254.999c53.333 0 110 35 170 105c45.333 53.333 85.666 119.666 120.999 198.999l67 481
c-34 8.66699 -71.833 13 -113.5 13s-79.334 -7.83301 -113.001 -23.5s-63.834 -37 -90.501 -64s-49.834 -58.5 -69.501 -94.5s-36.167 -74 -49.5 -114c-25.333 -78.667 -38 -161 -38 -247zM473.503 1494c-11 38 -16.5 70.8301 -16.5 98.4971s2.33301 52.167 7 73.5h161
c0 -5.33301 -0.166992 -11.166 -0.5 -17.499s0.166992 -16 1.5 -29s4.5 -28.167 9.5 -45.5s13.167 -32.666 24.5 -45.999c25.333 -30.667 60 -46 104 -46s76.667 6.33301 98 19s38.666 28.334 51.999 47.001c17.333 24 33.333 63.333 48 118h158v-16
c0 -42 -8.66699 -85 -26 -129s-40.666 -81.667 -69.999 -113c-65.333 -72 -150.333 -108 -255 -108c-106.667 0 -187 31.333 -241 94c-25.333 28.667 -43.5 62 -54.5 100z" />
    <glyph glyph-name="Gdotaccent" unicode="&#x120;" horiz-adv-x="1390" 
d="M961 1668c-22.667 -9.33301 -46 -13.9971 -70 -13.9971s-44.667 4 -62 12c-36.667 15.333 -62.334 40.666 -77.001 75.999c-6.66699 16 -10 34.667 -10 56s5 42.666 15 63.999s23 39.666 39 54.999c34.667 33.333 75.667 50 123 50c72.667 0 120.334 -28.333 143.001 -85
c6 -15.333 9 -27.5 9 -36.5s-0.166992 -19.833 -0.5 -32.5s-5 -29.667 -14 -51s-21.5 -40 -37.5 -56s-35.333 -28.667 -58 -38zM221 186.003c-82.667 116.667 -124.002 263.665 -124.002 440.998c0 269.333 74 490 222 662c94 110 208 185.667 342 227
c66.667 20 129.834 30 189.501 30s108.5 -2 146.5 -6s72 -8.66699 102 -14c45.333 -8.66699 90.666 -20.667 135.999 -36l66 -22l-68 -250c-60 43.333 -140.667 74.333 -242 93c-39.333 7.33301 -85.5 11 -138.5 11s-103.333 -10 -151 -30s-89.667 -47.167 -126 -81.5
s-67.166 -74.5 -92.499 -120.5c-70.667 -127.333 -106 -274 -106 -440v-55c0 -32.667 5.83301 -76 17.5 -130s30.167 -101 55.5 -141c54.667 -86.667 135.334 -130 242.001 -130c99.333 0 186.333 18 261 54l46 322h-240l27 220h501l-94 -703
c-28.667 -3.33301 -63 -10.666 -103 -21.999l-105 -31c-116 -33.333 -218 -50 -306 -50s-158.667 8.66699 -212 26c-103.333 32.667 -185.333 91.334 -246 176.001z" />
    <glyph glyph-name="gdotaccent" unicode="&#x121;" horiz-adv-x="1213" 
d="M540 1124c63.333 21.333 131.332 31.9961 203.999 31.9961s153.667 -13 243 -39l152 39l-167 -1217c-30.667 -207.333 -142 -344.666 -334 -411.999c-72.667 -25.333 -154.667 -38 -246 -38c-72.667 0 -133.334 5.5 -182.001 16.5s-78 18.833 -88 23.5l51 210
c48 -27.333 98.333 -46 151 -56s95.834 -15 129.501 -15s64.334 5.5 92.001 16.5s51.167 26.833 70.5 47.5c33.333 36.667 58 93.667 74 171l55 316c-62.667 -105.333 -141 -176.666 -235 -213.999c-34.667 -14 -76.5 -21 -125.5 -21s-94 10.833 -135 32.5
s-74.167 51.834 -99.5 90.501c-50 74.667 -75 177 -75 307c0 188 55 354 165 498c77.333 100.667 177.333 171.334 300 212.001zM361.999 436.996c0 -170 38.6709 -254.999 116.004 -254.999c53.333 0 110 35 170 105c45.333 53.333 85.666 119.666 120.999 198.999l67 481
c-34 8.66699 -71.833 13 -113.5 13s-79.334 -7.83301 -113.001 -23.5s-63.834 -37 -90.501 -64s-49.834 -58.5 -69.501 -94.5s-36.167 -74 -49.5 -114c-25.333 -78.667 -38 -161 -38 -247zM842.503 1365c-22.333 -9.33301 -45.333 -13.999 -69 -13.999
s-44.167 3.66699 -61.5 11c-36 14.667 -61.667 40 -77 76c-6.66699 16 -10 34.833 -10 56.5s4.83301 43.167 14.5 64.5s22.5 39.666 38.5 54.999c34 34.667 75.333 52 124 52c70 0 116.667 -28.667 140 -86c6.66699 -16 10 -34.5 10 -55.5s-4.66699 -42.5 -14 -64.5
s-22 -41 -38 -57s-35.167 -28.667 -57.5 -38z" />
    <glyph glyph-name="Gcommaaccent" unicode="&#x122;" horiz-adv-x="1390" 
d="M700 -44c42 -9.33301 77 -35.3301 105 -77.9971c27.333 -40.667 41 -84.334 41 -131.001s-6.5 -87.334 -19.5 -122.001s-29.5 -65 -49.5 -91c-40 -52 -85.667 -83.333 -137 -94l-90 60l3 26c45.333 33.333 68 79.666 68 138.999c0 40.667 -14 71.667 -42 93
c-8.66699 6.66699 -18 10.667 -28 12l9 74zM221 186.003c-82.667 116.667 -124.002 263.665 -124.002 440.998c0 269.333 74 490 222 662c94 110 208 185.667 342 227c66.667 20 129.834 30 189.501 30s108.5 -2 146.5 -6s72 -8.66699 102 -14
c45.333 -8.66699 90.666 -20.667 135.999 -36l66 -22l-68 -250c-60 43.333 -140.667 74.333 -242 93c-39.333 7.33301 -85.5 11 -138.5 11s-103.333 -10 -151 -30s-89.667 -47.167 -126 -81.5s-67.166 -74.5 -92.499 -120.5c-70.667 -127.333 -106 -274 -106 -440v-55
c0 -32.667 5.83301 -76 17.5 -130s30.167 -101 55.5 -141c54.667 -86.667 135.334 -130 242.001 -130c99.333 0 186.333 18 261 54l46 322h-240l27 220h501l-94 -703c-28.667 -3.33301 -63 -10.666 -103 -21.999l-105 -31c-116 -33.333 -218 -50 -306 -50
s-158.667 8.66699 -212 26c-103.333 32.667 -185.333 91.334 -246 176.001z" />
    <glyph glyph-name="gcommaaccent" unicode="&#x123;" horiz-adv-x="1213" 
d="M731 1243c-42 8.66699 -77 34.333 -105 77c-27.333 40 -41 83.667 -41 131s6.33301 88.333 19 123s29 65 49 91c40 52 85.667 83.333 137 94l91 -60l-3 -26c-46 -32.667 -69 -79 -69 -139c0 -40.667 14 -71.667 42 -93c8.66699 -6.66699 18 -10.667 28 -12l-8 -74z
M540 1124c63.333 21.333 131.332 31.9961 203.999 31.9961s153.667 -13 243 -39l152 39l-167 -1217c-30.667 -207.333 -142 -344.666 -334 -411.999c-72.667 -25.333 -154.667 -38 -246 -38c-72.667 0 -133.334 5.5 -182.001 16.5s-78 18.833 -88 23.5l51 210
c48 -27.333 98.333 -46 151 -56s95.834 -15 129.501 -15s64.334 5.5 92.001 16.5s51.167 26.833 70.5 47.5c33.333 36.667 58 93.667 74 171l55 316c-62.667 -105.333 -141 -176.666 -235 -213.999c-34.667 -14 -76.5 -21 -125.5 -21s-94 10.833 -135 32.5
s-74.167 51.834 -99.5 90.501c-50 74.667 -75 177 -75 307c0 188 55 354 165 498c77.333 100.667 177.333 171.334 300 212.001zM361.999 436.995c0 -170 38.6709 -254.999 116.004 -254.999c53.333 0 110 35 170 105c45.333 53.333 85.666 119.666 120.999 198.999l67 481
c-34 8.66699 -71.833 13 -113.5 13s-79.334 -7.83301 -113.001 -23.5s-63.834 -37 -90.501 -64s-49.834 -58.5 -69.501 -94.5s-36.167 -74 -49.5 -114c-25.333 -78.667 -38 -161 -38 -247z" />
    <glyph glyph-name="Hcircumflex" unicode="&#x124;" horiz-adv-x="1461" 
d="M297 1530h276l-91 -675h568l91 675h278l-206 -1530h-278l88 658h-568l-88 -658h-276zM508 1661l349 346h179l201 -340l-119 -73l-197 200l-300 -205z" />
    <glyph glyph-name="hcircumflex" unicode="&#x125;" horiz-adv-x="1256" 
d="M297 1636l271.998 0.000976562l-11 -91l260 258h179l201 -340l-119 -73l-197 200l-300 -205l-41 26l-36 -295l-35 -199c83.333 112 182 185.667 296 221c38 12 77 18 117 18c124.667 0 202.334 -52.667 233.001 -158c11.333 -38 17 -73.833 17 -107.5s-1 -62 -3 -85
s-4.83301 -49.5 -8.5 -79.5s-8.16699 -63 -13.5 -99c-13.333 -102.667 -24 -180.334 -32 -233.001l-58 -394h-276l54 384c6.66699 44 13.667 93 21 147c26.667 198 35 313 25 345c-10.667 36.667 -39.667 55 -87 55c-45.333 0 -97.333 -21 -156 -63
c-57.333 -42 -106.666 -93.667 -147.999 -155l-97 -713h-271z" />
    <glyph glyph-name="Hbar" unicode="&#x126;" horiz-adv-x="1461" 
d="M226 958h-200l19 200h208l50 372h276l-50 -372h568l50 372h278l-50 -372h202l-20 -200h-209l-129 -958h-278l69 517h-568l-69 -517h-276zM1037 717l33 241h-568l-33 -241h568z" />
    <glyph glyph-name="hbar" unicode="&#x127;" horiz-adv-x="1256" 
d="M248 1262l-119.002 0.000976562l16 130h120l32 244h272l-30 -244h238l-16 -130h-238l-18 -146l-35 -199c83.333 112 182 185.667 296 221c38 12 77 18 117 18c124.667 0 202.334 -52.667 233.001 -158c11.333 -38 17 -73.833 17 -107.5s-1 -62 -3 -85
s-4.83301 -49.5 -8.5 -79.5s-8.16699 -63 -13.5 -99c-13.333 -102.667 -24 -180.334 -32 -233.001l-58 -394h-276l54 384c6.66699 44 13.667 93 21 147c26.667 198 35 313 25 345c-10.667 36.667 -39.667 55 -87 55c-45.333 0 -97.333 -21 -156 -63
c-57.333 -42 -106.666 -93.667 -147.999 -155l-97 -713h-271z" />
    <glyph glyph-name="Itilde" unicode="&#x128;" horiz-adv-x="643" 
d="M319 1530h276l-206 -1530h-276zM94 1792c22 45.333 62.334 86.999 121.001 124.999c60.667 38.667 117.667 58 171 58c46 0 82.5 -8.83301 109.5 -26.5s46.833 -32.5 59.5 -44.5l39 -34c29.333 -24.667 55.666 -37 78.999 -37s42.5 3.33301 57.5 10
s28.667 15.334 41 26.001s23.5 22.334 33.5 35.001l31 39l102 -117c-18.667 -50 -56.334 -94.667 -113.001 -134c-58 -41.333 -115 -62 -171 -62c-69.333 0 -129 23.333 -179 70c-30.667 29.333 -55.667 48.5 -75 57.5s-38.166 13.667 -56.499 14s-34.5 -2.16699 -48.5 -7.5
s-27 -12.333 -39 -21s-23.333 -18.334 -34 -29.001l-31 -32z" />
    <glyph glyph-name="itilde" unicode="&#x129;" horiz-adv-x="624" 
d="M258 1140h277l-157 -1140h-276zM21 1491c24 46 64.6641 87.668 121.997 125.001c60.667 38.667 117.334 58 170.001 58c64 0 120.5 -24.5 169.5 -73.5s86.833 -73.5 113.5 -73.5s47.5 3.33301 62.5 10s28.5 15.334 40.5 26.001s23.333 22.334 34 35.001l30 39l102 -117
c-19.333 -50.667 -56.666 -95.334 -111.999 -134.001c-58 -41.333 -115.333 -62 -172 -62c-68.667 0 -128 24.333 -178 73c-30.667 30 -55.667 49.667 -75 59s-38.166 14.166 -56.499 14.499s-34.5 -2.16699 -48.5 -7.5s-27.167 -12.333 -39.5 -21
s-23.833 -18.334 -34.5 -29.001l-31 -32z" />
    <glyph glyph-name="Imacron" unicode="&#x12a;" horiz-adv-x="643" 
d="M319 1530h276l-206 -1530h-276zM206 1897h544l-13 -179h-543z" />
    <glyph glyph-name="imacron" unicode="&#x12b;" horiz-adv-x="624" 
d="M258 1140h277l-157 -1140h-276zM162 1594h543l-11 -179h-543z" />
    <glyph glyph-name="Ibreve" unicode="&#x12c;" horiz-adv-x="643" 
d="M319 1530h276l-206 -1530h-276zM188.5 1825c-11 38 -16.5 70.998 -16.5 98.998s2.33301 52.333 7 73h161c0 -5.33301 -0.166992 -11.166 -0.5 -17.499s0.166992 -16 1.5 -29s4.5 -28.167 9.5 -45.5s13.167 -33 24.5 -47c25.333 -30 60 -45 104 -45s76.667 6.33301 98 19
s38.666 28.334 51.999 47.001c17.333 24 33.333 63.333 48 118h158v-17c0 -41.333 -8.66699 -84 -26 -128s-40.666 -82 -69.999 -114c-65.333 -71.333 -150.333 -107 -255 -107c-106.667 0 -187 31.333 -241 94c-25.333 28.667 -43.5 62 -54.5 100z" />
    <glyph glyph-name="ibreve" unicode="&#x12d;" horiz-adv-x="624" 
d="M258 1140h277l-157 -1140h-276zM146.5 1494c-11 38 -16.5 70.8301 -16.5 98.4971s2.33301 52.167 7 73.5h161c0 -5.33301 -0.166992 -11.166 -0.5 -17.499s0.166992 -16 1.5 -29s4.5 -28.167 9.5 -45.5s13.167 -32.666 24.5 -45.999c25.333 -30.667 60 -46 104 -46
s76.667 6.33301 98 19s38.666 28.334 51.999 47.001c17.333 24 33.333 63.333 48 118h158v-16c0 -42 -8.66699 -85 -26 -129s-40.666 -81.667 -69.999 -113c-65.333 -72 -150.333 -108 -255 -108c-106.667 0 -187 31.333 -241 94c-25.333 28.667 -43.5 62 -54.5 100z" />
    <glyph glyph-name="Iogonek" unicode="&#x12e;" horiz-adv-x="643" 
d="M348 -364c-74 -72.667 -169.666 -109.002 -286.999 -109.002c-62.667 0 -113 18.333 -151 55c-34.667 33.333 -52 70.333 -52 111s9.5 76.834 28.5 108.501s42.167 60.5 69.5 86.5c45.333 42.667 99.666 80 162.999 112h-6l206 1530h276l-206 -1530h-67
c-99.333 -53.333 -168 -106 -206 -158c-13.333 -19.333 -20 -37.666 -20 -54.999c0 -46 22.333 -69 67 -69s91 18.333 139 55z" />
    <glyph glyph-name="iogonek" unicode="&#x12f;" horiz-adv-x="653" 
d="M543.5 1365c-22.333 -9.33301 -45.332 -14 -68.999 -14s-44.334 3.66699 -62.001 11s-33.167 17.333 -46.5 30c-28 28.667 -41.5 58.667 -40.5 90s6.16699 57.333 15.5 78s21.666 38.667 36.999 54c34.667 34.667 76.334 52 125.001 52c70 0 117 -28.667 141 -86
c6 -16 9 -34.5 9 -55.5s-4.66699 -42.5 -14 -64.5s-22 -41 -38 -57s-35.167 -28.667 -57.5 -38zM396.001 -364c-74 -72.667 -169.666 -109.002 -286.999 -109.002c-62.667 0 -113 18.333 -151 55c-34.667 33.333 -52 70.333 -52 111s9.5 76.834 28.5 108.501
s42.167 60.5 69.5 86.5c45.333 42.667 99.666 80 162.999 112h-54l156 1140h277l-157 -1140h-19c-99.333 -53.333 -168 -106 -206 -158c-13.333 -19.333 -20 -37.666 -20 -54.999c0 -46 22.333 -69 67 -69s91 18.333 139 55z" />
    <glyph glyph-name="Idotaccent" unicode="&#x130;" horiz-adv-x="643" 
d="M319 1530h276l-206 -1530h-276zM545 1668c-22.667 -9.33301 -46 -13.9971 -70 -13.9971s-44.667 4 -62 12c-36.667 15.333 -62.334 40.666 -77.001 75.999c-6.66699 16 -10 34.667 -10 56s5 42.666 15 63.999s23 39.666 39 54.999c34.667 33.333 75.667 50 123 50
c72.667 0 120.334 -28.333 143.001 -85c6 -15.333 9 -27.5 9 -36.5s-0.166992 -19.833 -0.5 -32.5s-5 -29.667 -14 -51s-21.5 -40 -37.5 -56s-35.333 -28.667 -58 -38z" />
    <glyph glyph-name="dotlessi" unicode="&#x131;" horiz-adv-x="624" 
d="M258 1140h277l-157 -1140h-276z" />
    <glyph glyph-name="IJ" unicode="&#x132;" horiz-adv-x="1289" 
d="M319 1530h276l-206 -1530h-276zM771 110c10.667 49.333 22.166 112.166 34.499 188.499s24.333 156 36 239s22.834 167.833 33.501 254.5l89 738h277l-124 -945l-34 -240c-22.667 -149.333 -41.5 -250.833 -56.5 -304.5s-40.833 -106 -77.5 -157s-78 -92.167 -124 -123.5
c-82.667 -54.667 -186.667 -86.667 -312 -96l-39 103c78 22.667 144 65.334 198 128.001c48 55.333 81 127 99 215z" />
    <glyph glyph-name="ij" unicode="&#x133;" horiz-adv-x="1246" 
d="M443 -339c9.33301 -7.33301 30.499 -11.001 63.499 -11.001s63.667 11.333 92 34s51.166 53.334 68.499 92.001c24.667 53.333 47.334 150.333 68.001 291l147 1073h277l-156 -1138c-22 -163.333 -77.333 -292 -166 -386c-86 -91.333 -188.333 -137 -307 -137
c-71.333 0 -123.666 12 -156.999 36zM257.999 1140h277l-157 -1140h-276zM507.499 1365c-22.333 -9.33301 -45.333 -13.999 -69 -13.999s-44.167 3.66699 -61.5 11c-36 14.667 -61.667 40 -77 76c-6.66699 16 -10 34.833 -10 56.5s4.83301 43.167 14.5 64.5
s22.5 39.666 38.5 54.999c34 34.667 75.333 52 124 52c70 0 116.667 -28.667 140 -86c6.66699 -16 10 -34.5 10 -55.5s-4.66699 -42.5 -14 -64.5s-22 -41 -38 -57s-35.167 -28.667 -57.5 -38zM1138.5 1365c-22.333 -9.33301 -45.333 -13.999 -69 -13.999
s-44.167 3.66699 -61.5 11c-36 14.667 -61.667 40 -77 76c-6.66699 16 -10 34.833 -10 56.5s4.83301 43.167 14.5 64.5s22.5 39.666 38.5 54.999c34 34.667 75.333 52 124 52c70 0 116.667 -28.667 140 -86c6.66699 -16 10 -34.5 10 -55.5s-4.66699 -42.5 -14 -64.5
s-22 -41 -38 -57s-35.167 -28.667 -57.5 -38z" />
    <glyph glyph-name="Jcircumflex" unicode="&#x134;" horiz-adv-x="646" 
d="M128 110c10.667 49.333 22.166 112.166 34.499 188.499s24.333 156 36 239s22.834 167.833 33.501 254.5l89 738h277l-124 -945l-34 -240c-22.667 -149.333 -41.5 -250.833 -56.5 -304.5s-40.833 -106 -77.5 -157s-78 -92.167 -124 -123.5
c-82.667 -54.667 -186.667 -86.667 -312 -96l-39 103c78 22.667 144 65.334 198 128.001c48 55.333 81 127 99 215zM109.999 1661l349 346h179l201 -340l-119 -73l-197 200l-300 -205z" />
    <glyph glyph-name="jcircumflex" unicode="&#x135;" horiz-adv-x="622" 
d="M-182 -339c9.33301 -7.33301 30.499 -11.001 63.499 -11.001s63.667 11.333 92 34s51.166 53.334 68.499 92.001c24.667 53.333 47.334 150.333 68.001 291l147 1073h277l-156 -1138c-22 -163.333 -77.333 -292 -166 -386c-86 -91.333 -188.333 -137 -307 -137
c-71.333 0 -123.666 12 -156.999 36zM44.999 1286l349 374h179l201 -374l-124 -68l-196 219l-301 -223z" />
    <glyph glyph-name="Kcommaaccent" unicode="&#x136;" horiz-adv-x="1297" 
d="M627 -42c42 -9.33301 77 -35.3301 105 -77.9971c27.333 -40.667 41 -84.334 41 -131.001s-6.5 -87.334 -19.5 -122.001s-29.5 -65 -49.5 -91c-40 -52 -85.667 -83.333 -137 -94l-90 60l3 26c45.333 33.333 68 79.666 68 138.999c0 40.667 -14 71.667 -42 93
c-8.66699 6.66699 -18 10.667 -28 12l9 74zM303 1530l276 0.000976562l-97 -719l600 719h318l-610 -677l140 -255c163.333 -308.667 274 -508.334 332 -599.001l-328 2c-4.66699 6.66699 -12 19.667 -22 39l-140 283c-8 14 -18 34 -30 60l-130 272l-178 -197l-61 -458h-276z
" />
    <glyph glyph-name="kcommaaccent" unicode="&#x137;" horiz-adv-x="1134" 
d="M565 -44c42 -9.33301 77 -35.3301 105 -77.9971c27.333 -40.667 41 -84.334 41 -131.001s-6.5 -87.334 -19.5 -122.001s-29.5 -65 -49.5 -91c-40 -52 -85.667 -83.333 -137 -94l-90 60l3 26c45.333 33.333 68 79.666 68 138.999c0 40.667 -14 71.667 -42 93
c-8.66699 6.66699 -18 10.667 -28 12l9 74zM297 1636h272l-214 -1636h-272zM473 632.003h1.99902l-2 1c57.333 32 107.333 70.833 150 116.5s83.334 99.5 122.001 161.5c56 78 96 154.333 120 229h270c-6 -74.667 -34 -150.667 -84 -228
c-58.667 -102 -135 -186.667 -229 -254c-26.667 -19.333 -51.667 -35 -75 -47l345 -609h-318z" />
    <glyph glyph-name="kgreenlandic" unicode="&#x138;" horiz-adv-x="1133" 
d="M473 630l2 0.000976562l-2 1c136.667 76 248 197.333 334 364c25.333 52.667 45.333 103.667 60 153h270c-10 -136.667 -76.333 -267.334 -199 -392.001c-63.333 -64 -127 -113 -191 -147l343 -609h-306zM236 1148h275l-155 -1148h-276z" />
    <glyph glyph-name="Lacute" unicode="&#x139;" horiz-adv-x="1029" 
d="M403 1667l277 342.001l167 -157c-25.333 -48 -76.666 -103 -153.999 -165c-70.667 -56.667 -131.334 -94.334 -182.001 -113.001zM303 1530h276l-176 -1309l534 8l-32 -229h-808z" />
    <glyph glyph-name="lacute" unicode="&#x13a;" horiz-adv-x="625" 
d="M312 1526h277l-209 -1526h-276zM359 1665l277 342.001l167 -157c-25.333 -48 -76.333 -103 -153 -165c-71.333 -56.667 -132.333 -94.334 -183 -113.001z" />
    <glyph glyph-name="Lcommaaccent" unicode="&#x13b;" horiz-adv-x="1029" 
d="M483 -42c42 -9.33301 77 -35.3301 105 -77.9971c27.333 -40.667 41 -84.334 41 -131.001s-6.5 -87.334 -19.5 -122.001s-29.5 -65 -49.5 -91c-40 -52 -85.667 -83.333 -137 -94l-90 60l3 26c45.333 33.333 68 79.666 68 138.999c0 40.667 -14 71.667 -42 93
c-8.66699 6.66699 -18 10.667 -28 12l9 74zM303 1530h276l-176 -1309l534 8l-32 -229h-808z" />
    <glyph glyph-name="lcommaaccent" unicode="&#x13c;" horiz-adv-x="625" 
d="M220 -44c42 -9.33301 77 -35.3301 105 -77.9971c27.333 -40.667 41 -84.334 41 -131.001s-6.5 -87.334 -19.5 -122.001s-29.5 -65 -49.5 -91c-40 -52 -85.667 -83.333 -137 -94l-90 60l3 26c45.333 33.333 68 79.666 68 138.999c0 40.667 -14 71.667 -42 93
c-8.66699 6.66699 -18 10.667 -28 12l9 74zM326 1636h277l-223 -1634h-276z" />
    <glyph glyph-name="Lcaron" unicode="&#x13d;" horiz-adv-x="1029" 
d="M303 1530h276l-176 -1309l534 8l-32 -229h-808zM1042 1652c22.667 -38 34.001 -107.665 34.001 -208.998c0 -120.667 -25.667 -235.334 -77 -344.001c-16.667 -35.333 -35.334 -66 -56.001 -92l-125 34l-6 25c27.333 94.667 41 194.667 41 300
s-9.33301 172.666 -28 201.999l14 37z" />
    <glyph glyph-name="lcaron" unicode="&#x13e;" horiz-adv-x="814" 
d="M326 1638h277l-223 -1634h-276zM949 1652c22.667 -38 34.001 -107.665 34.001 -208.998c0 -120.667 -25.667 -235.334 -77 -344.001c-16.667 -35.333 -35.334 -66 -56.001 -92l-125 34l-6 25c27.333 94.667 41 194.667 41 300s-9.33301 172.666 -28 201.999l14 37z" />
    <glyph glyph-name="Ldot" unicode="&#x13f;" horiz-adv-x="1136" 
d="M303 1530h276l-176 -1309l534 8l-32 -229h-808zM822 785c-25.333 24.667 -37.999 52.832 -37.999 84.499s4.16699 58.834 12.5 81.501s20.5 42.667 36.5 60c35.333 38 79.666 57 132.999 57c71.333 0 115.333 -26.667 132 -80c5.33301 -16 8 -32.667 8 -50
c0 -58.667 -16.667 -105 -50 -139s-74.333 -51 -123 -51s-85.667 12.333 -111 37z" />
    <glyph glyph-name="ldot" unicode="&#x140;" horiz-adv-x="867" 
d="M326 1636h277l-223 -1634h-276zM658 660c-25.333 24.667 -37.999 52.832 -37.999 84.499s4.16699 58.834 12.5 81.501s20.5 42.667 36.5 60c35.333 38 79.666 57 132.999 57c71.333 0 115.333 -26.667 132 -80c5.33301 -16 8 -32.667 8 -50
c0 -58.667 -16.667 -105 -50 -139s-74.333 -51 -123 -51s-85.667 12.333 -111 37z" />
    <glyph glyph-name="Lslash" unicode="&#x141;" horiz-adv-x="1029" 
d="M171 550l-165 -62l-47 151l236 91l108 801h276l-93 -688l365 142l46 -160l-435 -165l-59 -438l534 8l-32 -229h-808z" />
    <glyph glyph-name="lslash" unicode="&#x142;" horiz-adv-x="625" 
d="M202 725l-142 -56v167l166 68l100 732h277l-84 -612l183 75v-177l-208 -82l-114 -838h-276z" />
    <glyph glyph-name="Nacute" unicode="&#x143;" horiz-adv-x="1456" 
d="M794 1665l277 342.001l167 -157c-25.333 -48 -76.666 -103 -153.999 -165c-70.667 -56.667 -131.334 -94.334 -182.001 -113.001zM303 1530h257l398 -927l71 -233l16 254l110 906h265l-206 -1530h-245l-402 954l-76 254l-12 -287l-120 -921h-262z" />
    <glyph glyph-name="nacute" unicode="&#x144;" horiz-adv-x="1257" 
d="M634 1319l321 425l180 -169c-20 -37.333 -75.667 -97 -167 -179c-99.333 -88 -176 -142 -230 -162zM235 1140h263l-16 -212c83.333 108 180 178.333 290 211c37.333 11.333 75.833 17 115.5 17s75 -5.33301 106 -16s57.167 -27.667 78.5 -51
c42.667 -48 64 -124.333 64 -229c0 -26.667 -2.66699 -63 -8 -109l-16 -124c-4.66699 -36 -10 -74.667 -16 -116l-74 -509h-276l54 382c6.66699 44 13.667 93 21 147c26.667 195.333 35 310.333 25 345c-10 36.667 -39.333 55 -88 55c-71.333 0 -150 -45 -236 -135
c-26 -26.667 -49 -55 -69 -85l-97 -709h-276z" />
    <glyph glyph-name="Ncommaaccent" unicode="&#x145;" horiz-adv-x="1456" 
d="M667 -44c42 -9.33301 77 -35.3301 105 -77.9971c27.333 -40.667 41 -84.334 41 -131.001s-6.5 -87.334 -19.5 -122.001s-29.5 -65 -49.5 -91c-40 -52 -85.667 -83.333 -137 -94l-90 60l3 26c45.333 33.333 68 79.666 68 138.999c0 40.667 -14 71.667 -42 93
c-8.66699 6.66699 -18 10.667 -28 12l9 74zM303 1530h257l398 -927l71 -233l16 254l110 906h265l-206 -1530h-245l-402 954l-76 254l-12 -287l-120 -921h-262z" />
    <glyph glyph-name="ncommaaccent" unicode="&#x146;" horiz-adv-x="1257" 
d="M531 -44c42 -9.33301 77 -35.3301 105 -77.9971c27.333 -40.667 41 -84.334 41 -131.001s-6.5 -87.334 -19.5 -122.001s-29.5 -65 -49.5 -91c-40 -52 -85.667 -83.333 -137 -94l-90 60l3 26c45.333 33.333 68 79.666 68 138.999c0 40.667 -14 71.667 -42 93
c-8.66699 6.66699 -18 10.667 -28 12l9 74zM235 1140h263l-16 -212c83.333 108 180 178.333 290 211c37.333 11.333 75.833 17 115.5 17s75 -5.33301 106 -16s57.167 -27.667 78.5 -51c42.667 -48 64 -124.333 64 -229c0 -26.667 -2.66699 -63 -8 -109l-16 -124
c-4.66699 -36 -10 -74.667 -16 -116l-74 -509h-276l54 382c6.66699 44 13.667 93 21 147c26.667 195.333 35 310.333 25 345c-10 36.667 -39.333 55 -88 55c-71.333 0 -150 -45 -236 -135c-26 -26.667 -49 -55 -69 -85l-97 -709h-276z" />
    <glyph glyph-name="Ncaron" unicode="&#x147;" horiz-adv-x="1456" 
d="M535 1924l116 83l217 -206l300 206l115 -77l-343 -323h-178zM303 1530h257l398 -927l71 -233l16 254l110 906h265l-206 -1530h-245l-402 954l-76 254l-12 -287l-120 -921h-262z" />
    <glyph glyph-name="ncaron" unicode="&#x148;" horiz-adv-x="1257" 
d="M414 1582l106 78l233 -217l294 217l115 -77l-343 -341h-178zM235 1140h263l-16 -212c83.333 108 180 178.333 290 211c37.333 11.333 75.833 17 115.5 17s75 -5.33301 106 -16s57.167 -27.667 78.5 -51c42.667 -48 64 -124.333 64 -229c0 -26.667 -2.66699 -63 -8 -109
l-16 -124c-4.66699 -36 -10 -74.667 -16 -116l-74 -509h-276l54 382c6.66699 44 13.667 93 21 147c26.667 195.333 35 310.333 25 345c-10 36.667 -39.333 55 -88 55c-71.333 0 -150 -45 -236 -135c-26 -26.667 -49 -55 -69 -85l-97 -709h-276z" />
    <glyph glyph-name="Eng" unicode="&#x14a;" horiz-adv-x="1514" 
d="M652 -257c165.333 62 266.334 158.666 303.001 289.999l-388 921l-76 254l-12 -287l-120 -921h-262l206 1530h257l398 -927l71 -233l16 254l110 906h265l-206 -1530h-2c-45.333 -150.667 -154 -258 -326 -322c-56.667 -21.333 -119.334 -35.666 -188.001 -42.999z" />
    <glyph glyph-name="eng" unicode="&#x14b;" horiz-adv-x="1258" 
d="M405 -385c18.667 -8 46.166 -12.001 82.499 -12.001s69.666 10.833 99.999 32.5s55.833 51.834 76.5 90.501c36.667 65.333 65.334 167.666 86.001 306.999c22 140.667 36.667 237.334 44 290.001l21 152c32 228 42.333 361.667 31 401c-10 36.667 -39.333 55 -88 55
c-45.333 0 -97.666 -21.667 -156.999 -65c-58 -42.667 -107.333 -95 -148 -157l-97 -709h-276l155 1140h263l-16 -214c83.333 108 180 178.667 290 212c37.333 12 75.833 18 115.5 18s75 -5.33301 106 -16s57.167 -27.667 78.5 -51c42.667 -48 64 -124.333 64 -229
c0 -56 -8.66699 -145 -26 -267l-63 -431l-25 -162c-31.333 -190.667 -87.333 -326.667 -168 -408c-76 -76.667 -182 -115 -318 -115c-58.667 0 -100 4.66699 -124 14s-38.667 17 -44 23z" />
    <glyph glyph-name="Omacron" unicode="&#x14c;" horiz-adv-x="1386" 
d="M587 1897h544l-13 -179h-543zM218 164c-88 112.667 -132.001 259.667 -132.001 441c0 264 65.667 484.667 197 662c88 118 196.667 199.667 326 245c64.667 22.667 137 34 217 34s152 -16.167 216 -48.5s117.667 -76.166 161 -131.499c87.333 -114 131 -261.667 131 -443
c0 -261.333 -65 -481 -195 -659c-86.667 -119.333 -194 -201.333 -322 -246c-65.333 -22.667 -138.166 -34 -218.499 -34s-153 16.167 -218 48.5s-119.167 76.166 -162.5 131.499zM522.999 216c32.667 -15.333 70.5 -23.001 113.5 -23.001s83 9.5 120 28.5
s70.833 45 101.5 78s57.667 72.5 81 118.5c73.333 140.667 110 300 110 478c0 230.667 -50.667 369.334 -152 416.001c-32.667 15.333 -70.5 23 -113.5 23s-83 -9.66699 -120 -29s-70.833 -45.833 -101.5 -79.5s-57.667 -73.167 -81 -118.5
c-73.333 -141.333 -110 -299 -110 -473c0 -231.333 50.667 -371 152 -419z" />
    <glyph glyph-name="omacron" unicode="&#x14d;" horiz-adv-x="1158" 
d="M420 1594h543l-11 -179h-543zM301 19c-150 69.333 -225 218.333 -225 447c0 184 53 342.667 159 476c71.333 90 160.666 152.667 267.999 188c54.667 17.333 115 26 181 26s124 -11.667 174 -35s91 -55.666 123 -96.999c64.667 -83.333 97 -200 97 -350
c0 -184.667 -52.333 -343.334 -157 -476.001c-111.333 -142.667 -258.666 -214 -441.999 -214c-68.667 0 -128 11.667 -178 35zM355 452c0 -191.333 54.335 -287 163.002 -287c91.333 0 162.666 59 213.999 177c42.667 97.333 64 211.333 64 342
c0 102.667 -12.833 177 -38.5 223s-65.5 69 -119.5 69c-90.667 0 -162.334 -60 -215.001 -180c-45.333 -101.333 -68 -216 -68 -344z" />
    <glyph glyph-name="Obreve" unicode="&#x14e;" horiz-adv-x="1386" 
d="M568.5 1825c-11 38 -16.5 70.998 -16.5 98.998s2.33301 52.333 7 73h161c0 -5.33301 -0.166992 -11.166 -0.5 -17.499s0.166992 -16 1.5 -29s4.5 -28.167 9.5 -45.5s13.167 -33 24.5 -47c25.333 -30 60 -45 104 -45s76.667 6.33301 98 19s38.666 28.334 51.999 47.001
c17.333 24 33.333 63.333 48 118h158v-17c0 -41.333 -8.66699 -84 -26 -128s-40.666 -82 -69.999 -114c-65.333 -71.333 -150.333 -107 -255 -107c-106.667 0 -187 31.333 -241 94c-25.333 28.667 -43.5 62 -54.5 100zM218 163.998
c-88 112.667 -132.001 259.667 -132.001 441c0 264 65.667 484.667 197 662c88 118 196.667 199.667 326 245c64.667 22.667 137 34 217 34s152 -16.167 216 -48.5s117.667 -76.166 161 -131.499c87.333 -114 131 -261.667 131 -443c0 -261.333 -65 -481 -195 -659
c-86.667 -119.333 -194 -201.333 -322 -246c-65.333 -22.667 -138.166 -34 -218.499 -34s-153 16.167 -218 48.5s-119.167 76.166 -162.5 131.499zM522.999 215.998c32.667 -15.333 70.5 -23.001 113.5 -23.001s83 9.5 120 28.5s70.833 45 101.5 78s57.667 72.5 81 118.5
c73.333 140.667 110 300 110 478c0 230.667 -50.667 369.334 -152 416.001c-32.667 15.333 -70.5 23 -113.5 23s-83 -9.66699 -120 -29s-70.833 -45.833 -101.5 -79.5s-57.667 -73.167 -81 -118.5c-73.333 -141.333 -110 -299 -110 -473c0 -231.333 50.667 -371 152 -419z
" />
    <glyph glyph-name="obreve" unicode="&#x14f;" horiz-adv-x="1158" 
d="M301 19c-150 69.333 -225 218.333 -225 447c0 184 53 342.667 159 476c71.333 90 160.666 152.667 267.999 188c54.667 17.333 115 26 181 26s124 -11.667 174 -35s91 -55.666 123 -96.999c64.667 -83.333 97 -200 97 -350c0 -184.667 -52.333 -343.334 -157 -476.001
c-111.333 -142.667 -258.666 -214 -441.999 -214c-68.667 0 -128 11.667 -178 35zM355 452c0 -191.333 54.335 -287 163.002 -287c91.333 0 162.666 59 213.999 177c42.667 97.333 64 211.333 64 342c0 102.667 -12.833 177 -38.5 223s-65.5 69 -119.5 69
c-90.667 0 -162.334 -60 -215.001 -180c-45.333 -101.333 -68 -216 -68 -344zM404.502 1494c-11 38 -16.5 70.8301 -16.5 98.4971s2.33301 52.167 7 73.5h161c0 -5.33301 -0.166992 -11.166 -0.5 -17.499s0.166992 -16 1.5 -29s4.5 -28.167 9.5 -45.5
s13.167 -32.666 24.5 -45.999c25.333 -30.667 60 -46 104 -46s76.667 6.33301 98 19s38.666 28.334 51.999 47.001c17.333 24 33.333 63.333 48 118h158v-16c0 -42 -8.66699 -85 -26 -129s-40.666 -81.667 -69.999 -113c-65.333 -72 -150.333 -108 -255 -108
c-106.667 0 -187 31.333 -241 94c-25.333 28.667 -43.5 62 -54.5 100z" />
    <glyph glyph-name="Ohungarumlaut" unicode="&#x150;" horiz-adv-x="1386" 
d="M218 164c-88 112.667 -132.001 259.667 -132.001 441c0 264 65.667 484.667 197 662c88 118 196.667 199.667 326 245c64.667 22.667 137 34 217 34s152 -16.167 216 -48.5s117.667 -76.166 161 -131.499c87.333 -114 131 -261.667 131 -443
c0 -261.333 -65 -481 -195 -659c-86.667 -119.333 -194 -201.333 -322 -246c-65.333 -22.667 -138.166 -34 -218.499 -34s-153 16.167 -218 48.5s-119.167 76.166 -162.5 131.499zM522.999 216c32.667 -15.333 70.5 -23.001 113.5 -23.001s83 9.5 120 28.5
s70.833 45 101.5 78s57.667 72.5 81 118.5c73.333 140.667 110 300 110 478c0 230.667 -50.667 369.334 -152 416.001c-32.667 15.333 -70.5 23 -113.5 23s-83 -9.66699 -120 -29s-70.833 -45.833 -101.5 -79.5s-57.667 -73.167 -81 -118.5
c-73.333 -141.333 -110 -299 -110 -473c0 -231.333 50.667 -371 152 -419zM968.999 1635l299 372l157 -131c-31.333 -58 -85 -120.333 -161 -187c-76.667 -68 -143 -111 -199 -129zM514.999 1635l298 372l158 -130c-34 -76 -109 -157.667 -225 -245
c-48 -36 -89 -60 -123 -72z" />
    <glyph glyph-name="ohungarumlaut" unicode="&#x151;" horiz-adv-x="1158" 
d="M804 1301l258 431.999l180 -131c-18.667 -53.333 -66 -122.666 -142 -207.999c-78.667 -88 -140 -141.667 -184 -161zM347 1301l251 432l177 -127c-28.667 -80 -94 -172.667 -196 -278c-44.667 -46 -83 -77.667 -115 -95zM301 18.999c-150 69.333 -225 218.333 -225 447
c0 184 53 342.667 159 476c71.333 90 160.666 152.667 267.999 188c54.667 17.333 115 26 181 26s124 -11.667 174 -35s91 -55.666 123 -96.999c64.667 -83.333 97 -200 97 -350c0 -184.667 -52.333 -343.334 -157 -476.001c-111.333 -142.667 -258.666 -214 -441.999 -214
c-68.667 0 -128 11.667 -178 35zM355 451.999c0 -191.333 54.335 -287 163.002 -287c91.333 0 162.666 59 213.999 177c42.667 97.333 64 211.333 64 342c0 102.667 -12.833 177 -38.5 223s-65.5 69 -119.5 69c-90.667 0 -162.334 -60 -215.001 -180
c-45.333 -101.333 -68 -216 -68 -344z" />
    <glyph glyph-name="OE" unicode="&#x152;" horiz-adv-x="2159" 
d="M1106 227c-130.667 -162 -296.667 -243 -498 -243c-166 0 -296 60 -390 180c-88 112.667 -132 259.667 -132 441c0 264 65.667 484.667 197 662c88 118 196.667 199.667 326 245c64.667 22.667 134 34 208 34c199.333 0 343 -88 431 -264l34 248h841l-22 -216l-572 5
l-57 -432l428 6l-24 -221l-432 12l-63 -474l666 13l-25 -223h-946zM523 216c32.667 -15.333 70.5 -23.001 113.5 -23.001s83 9.5 120 28.5s70.833 45 101.5 78s57.667 72.5 81 118.5c73.333 140.667 110 300 110 478c0 230.667 -50.667 369.334 -152 416.001
c-32.667 15.333 -70.5 23 -113.5 23s-83 -9.66699 -120 -29s-70.833 -45.833 -101.5 -79.5s-57.667 -73.167 -81 -118.5c-73.333 -141.333 -110 -299 -110 -473c0 -231.333 50.667 -371 152 -419z" />
    <glyph glyph-name="oe" unicode="&#x153;" horiz-adv-x="1770" 
d="M856 141c-103.333 -104.667 -229 -157 -377 -157c-132 0 -233.333 43.333 -304 130c-66 82.667 -99 198.334 -99 347.001c0 184.667 52.333 344 157 478c112.667 144.667 260 217 442 217c146 0 252.333 -54.333 319 -163c111.333 108.667 245 163 401 163
c102 0 180.667 -24 236 -72c50 -43.333 75 -104.666 75 -183.999c0 -221.333 -165 -376 -495 -464c-50 -13.333 -98.333 -24 -145 -32v-12c0 -140 59 -210 177 -210c84 0 170 33.333 258 100c26 19.333 49.333 39.666 70 60.999l73 -141
c-37.333 -52.667 -92.333 -99.334 -165 -140.001c-92 -52 -189 -78 -291 -78c-147.333 0 -258 52.333 -332 157zM1334 984c-98 0 -174.666 -80.667 -229.999 -242c-20.667 -60 -33.334 -119.667 -38.001 -179c78 4.66699 157 35 237 91c88.667 62 133 132.5 133 211.5
s-34 118.5 -102 118.5zM355.001 448c0 -188.667 54.333 -283 163 -283c124 0 208.667 105.667 254 317c16 75.333 23.667 155.333 23 240c-1.33301 169.333 -55.333 254 -162 254c-90 0 -161 -61 -213 -183c-43.333 -102 -65 -217 -65 -345z" />
    <glyph glyph-name="Racute" unicode="&#x154;" horiz-adv-x="1313" 
d="M570 612l-114.001 1.00195l-84 -613h-276l206 1530h152l299 16c339.333 0 509 -127 509 -381c0 -188.667 -63 -331.334 -189 -428.001c-43.333 -33.333 -94.666 -59 -153.999 -77c56.667 -50.667 104 -139.667 142 -267c71.333 -192 114.333 -302.167 129 -330.5
s27 -49.5 37 -63.5l-309 2c-11.333 16.667 -23.333 43.334 -36 80.001c-28 85.333 -50 155.166 -66 209.499s-31 100 -45 137s-28.333 69.167 -43 96.5c-31.333 57.333 -62 86.666 -92 87.999h-66zM483.999 830.002c13.333 -0.666992 29.667 -1.33301 49 -2h59
c20.667 -0.666992 40 -1 58 -1h43c99.333 0 175 35 227 105c41.333 56.667 62 128 62 214c0 74 -22.167 126 -66.5 156s-107.833 45 -190.5 45c-59.333 0 -117 -4.33301 -173 -13zM713 1665l277 342.001l167 -157c-25.333 -48 -76.666 -103 -153.999 -165
c-70.667 -56.667 -131.334 -94.334 -182.001 -113.001z" />
    <glyph glyph-name="racute" unicode="&#x155;" horiz-adv-x="846" 
d="M371 1319l321 425l180 -169c-20 -37.333 -75.667 -97 -167 -179c-99.333 -88 -176 -142 -230 -162zM816 858c-16 13.333 -42.001 20 -78.001 20s-65.833 -4.16699 -89.5 -12.5s-47.167 -20.5 -70.5 -36.5c-48 -33.333 -90.333 -80.333 -127 -141l-95 -688h-276l156 1140
h265l-18 -216c26.667 58 66.334 109.333 119.001 154c62 52 129.333 78 202 78c34 0 56 -4.33301 66 -13z" />
    <glyph glyph-name="Rcommaaccent" unicode="&#x156;" horiz-adv-x="1313" 
d="M629 -44c42 -9.33301 77 -35.3301 105 -77.9971c27.333 -40.667 41 -84.334 41 -131.001s-6.5 -87.334 -19.5 -122.001s-29.5 -65 -49.5 -91c-40 -52 -85.667 -83.333 -137 -94l-90 60l3 26c45.333 33.333 68 79.666 68 138.999c0 40.667 -14 71.667 -42 93
c-8.66699 6.66699 -18 10.667 -28 12l9 74zM570 612.003l-114.001 1.00195l-84 -613h-276l206 1530h152l299 16c339.333 0 509 -127 509 -381c0 -188.667 -63 -331.334 -189 -428.001c-43.333 -33.333 -94.666 -59 -153.999 -77c56.667 -50.667 104 -139.667 142 -267
c71.333 -192 114.333 -302.167 129 -330.5s27 -49.5 37 -63.5l-309 2c-11.333 16.667 -23.333 43.334 -36 80.001c-28 85.333 -50 155.166 -66 209.499s-31 100 -45 137s-28.333 69.167 -43 96.5c-31.333 57.333 -62 86.666 -92 87.999h-66zM483.999 830.005
c13.333 -0.666992 29.667 -1.33301 49 -2h59c20.667 -0.666992 40 -1 58 -1h43c99.333 0 175 35 227 105c41.333 56.667 62 128 62 214c0 74 -22.167 126 -66.5 156s-107.833 45 -190.5 45c-59.333 0 -117 -4.33301 -173 -13z" />
    <glyph glyph-name="rcommaaccent" unicode="&#x157;" horiz-adv-x="846" 
d="M207 -44c42 -9.33301 77 -35.3301 105 -77.9971c27.333 -40.667 41 -84.334 41 -131.001s-6.5 -87.334 -19.5 -122.001s-29.5 -65 -49.5 -91c-40 -52 -85.667 -83.333 -137 -94l-90 60l3 26c45.333 33.333 68 79.666 68 138.999c0 40.667 -14 71.667 -42 93
c-8.66699 6.66699 -18 10.667 -28 12l9 74zM816 858.003c-16 13.333 -42.001 20 -78.001 20s-65.833 -4.16699 -89.5 -12.5s-47.167 -20.5 -70.5 -36.5c-48 -33.333 -90.333 -80.333 -127 -141l-95 -688h-276l156 1140h265l-18 -216c26.667 58 66.334 109.333 119.001 154
c62 52 129.333 78 202 78c34 0 56 -4.33301 66 -13z" />
    <glyph glyph-name="Rcaron" unicode="&#x158;" horiz-adv-x="1313" 
d="M454 1924l116 83l217 -206l300 206l115 -77l-343 -323h-178zM570 612l-114.001 1.00195l-84 -613h-276l206 1530h152l299 16c339.333 0 509 -127 509 -381c0 -188.667 -63 -331.334 -189 -428.001c-43.333 -33.333 -94.666 -59 -153.999 -77
c56.667 -50.667 104 -139.667 142 -267c71.333 -192 114.333 -302.167 129 -330.5s27 -49.5 37 -63.5l-309 2c-11.333 16.667 -23.333 43.334 -36 80.001c-28 85.333 -50 155.166 -66 209.499s-31 100 -45 137s-28.333 69.167 -43 96.5
c-31.333 57.333 -62 86.666 -92 87.999h-66zM483.999 830.002c13.333 -0.666992 29.667 -1.33301 49 -2h59c20.667 -0.666992 40 -1 58 -1h43c99.333 0 175 35 227 105c41.333 56.667 62 128 62 214c0 74 -22.167 126 -66.5 156s-107.833 45 -190.5 45
c-59.333 0 -117 -4.33301 -173 -13z" />
    <glyph glyph-name="rcaron" unicode="&#x159;" horiz-adv-x="846" 
d="M151 1582l106 78l233 -217l294 217l115 -77l-343 -341h-178zM816 858c-16 13.333 -42.001 20 -78.001 20s-65.833 -4.16699 -89.5 -12.5s-47.167 -20.5 -70.5 -36.5c-48 -33.333 -90.333 -80.333 -127 -141l-95 -688h-276l156 1140h265l-18 -216
c26.667 58 66.334 109.333 119.001 154c62 52 129.333 78 202 78c34 0 56 -4.33301 66 -13z" />
    <glyph glyph-name="Sacute" unicode="&#x15a;" horiz-adv-x="1057" 
d="M106 302c45.333 -40.667 116.668 -70.6689 214.001 -90.002c30.667 -6 62.834 -9 96.501 -9s66.5 4 98.5 12s59.667 20 83 36c48 33.333 72 82 72 146c0 52 -11.333 93.333 -34 124c-36 50 -92.333 102 -169 156c-84.667 60 -144.667 113.333 -180 160
c-70 92 -105 185.667 -105 281c0 130.667 45.667 234.667 137 312s212 116 362 116c158 0 275.333 -28.333 352 -85l-87 -216c-40.667 40.667 -104.667 67.667 -192 81c-25.333 3.33301 -51.333 5 -78 5s-53.834 -3.16699 -81.501 -9.5s-51.834 -16.5 -72.501 -30.5
c-48 -32 -72 -79.667 -72 -143c0 -78 39.667 -149.667 119 -215c26.667 -22 57 -45.333 91 -70s68.333 -51.167 103 -79.5s66 -59.5 94 -93.5c64.667 -79.333 97 -160.166 97 -242.499s-13.5 -151.666 -40.5 -207.999s-65.167 -103.5 -114.5 -141.5
c-98.667 -76 -232 -114 -400 -114c-116.667 0 -225 21.333 -325 64c-26 10.667 -44.667 20.667 -56 30zM607.002 1665l277 342.001l167 -157c-25.333 -48 -76.666 -103 -153.999 -165c-70.667 -56.667 -131.334 -94.334 -182.001 -113.001z" />
    <glyph glyph-name="sacute" unicode="&#x15b;" horiz-adv-x="925" 
d="M467 1319l321 425l180 -169c-20 -37.333 -75.667 -97 -167 -179c-99.333 -88 -176 -142 -230 -162zM364 182c111.333 0 166.998 37.6689 166.998 113.002c0 47.333 -38.333 101 -115 161c-97.333 75.333 -162.666 138.666 -195.999 189.999
c-35.333 55.333 -53 113.333 -53 174s10.667 111 32 151s50.666 73.667 87.999 101c76.667 56 177 84 301 84c114 0 201.333 -12.667 262 -38l-38 -241c-28.667 32 -77.334 56.333 -146.001 73c-25.333 6 -57.166 9 -95.499 9s-72 -9.33301 -101 -28
s-43.5 -42.5 -43.5 -71.5s3.83301 -51.667 11.5 -68s18.5 -32.166 32.5 -47.499s30.667 -31 50 -47l66 -54c70.667 -56 118 -100.667 142 -134c46 -62.667 69 -125.667 69 -189s-11.667 -115.833 -35 -157.5s-54.666 -75.834 -93.999 -102.501
c-77.333 -50.667 -179 -76 -305 -76c-101.333 0 -190.333 14 -267 42c-21.333 7.33301 -36.666 14.666 -45.999 21.999l47 226c46 -36.667 108 -64 186 -82c27.333 -6.66699 54.333 -10 81 -10z" />
    <glyph glyph-name="Scircumflex" unicode="&#x15c;" horiz-adv-x="1057" 
d="M106 302c45.333 -40.667 116.668 -70.6689 214.001 -90.002c30.667 -6 62.834 -9 96.501 -9s66.5 4 98.5 12s59.667 20 83 36c48 33.333 72 82 72 146c0 52 -11.333 93.333 -34 124c-36 50 -92.333 102 -169 156c-84.667 60 -144.667 113.333 -180 160
c-70 92 -105 185.667 -105 281c0 130.667 45.667 234.667 137 312s212 116 362 116c158 0 275.333 -28.333 352 -85l-87 -216c-40.667 40.667 -104.667 67.667 -192 81c-25.333 3.33301 -51.333 5 -78 5s-53.834 -3.16699 -81.501 -9.5s-51.834 -16.5 -72.501 -30.5
c-48 -32 -72 -79.667 -72 -143c0 -78 39.667 -149.667 119 -215c26.667 -22 57 -45.333 91 -70s68.333 -51.167 103 -79.5s66 -59.5 94 -93.5c64.667 -79.333 97 -160.166 97 -242.499s-13.5 -151.666 -40.5 -207.999s-65.167 -103.5 -114.5 -141.5
c-98.667 -76 -232 -114 -400 -114c-116.667 0 -225 21.333 -325 64c-26 10.667 -44.667 20.667 -56 30zM329.002 1661l349 346h179l201 -340l-119 -73l-197 200l-300 -205z" />
    <glyph glyph-name="scircumflex" unicode="&#x15d;" horiz-adv-x="925" 
d="M219 1286l349 374h179l201 -374l-124 -68l-196 219l-301 -223zM364 182c111.333 0 166.998 37.6689 166.998 113.002c0 47.333 -38.333 101 -115 161c-97.333 75.333 -162.666 138.666 -195.999 189.999c-35.333 55.333 -53 113.333 -53 174s10.667 111 32 151
s50.666 73.667 87.999 101c76.667 56 177 84 301 84c114 0 201.333 -12.667 262 -38l-38 -241c-28.667 32 -77.334 56.333 -146.001 73c-25.333 6 -57.166 9 -95.499 9s-72 -9.33301 -101 -28s-43.5 -42.5 -43.5 -71.5s3.83301 -51.667 11.5 -68s18.5 -32.166 32.5 -47.499
s30.667 -31 50 -47l66 -54c70.667 -56 118 -100.667 142 -134c46 -62.667 69 -125.667 69 -189s-11.667 -115.833 -35 -157.5s-54.666 -75.834 -93.999 -102.501c-77.333 -50.667 -179 -76 -305 -76c-101.333 0 -190.333 14 -267 42
c-21.333 7.33301 -36.666 14.666 -45.999 21.999l47 226c46 -36.667 108 -64 186 -82c27.333 -6.66699 54.333 -10 81 -10z" />
    <glyph glyph-name="Scedilla" unicode="&#x15e;" horiz-adv-x="1057" 
d="M131 -259c18.667 -10 41.6699 -15.001 69.0029 -15.001s51.166 2 71.499 6s38.166 11.333 53.499 22c33.333 24 50.666 65.333 51.999 124c0.666992 18 1 36.333 1 55s-0.666992 36 -2 52c-113.333 4 -215.333 25 -306 63c-24 10.667 -41.333 20.667 -52 30l88 224
c45.333 -40.667 116.666 -70.667 213.999 -90c30.667 -6 62.834 -9 96.501 -9s66.5 4 98.5 12s59.667 20 83 36c48 33.333 72 82 72 146c0 52 -11.333 93.333 -34 124c-36 50 -92.333 102 -169 156c-84.667 60 -144.667 113.333 -180 160c-70 92 -105 185.667 -105 281
c0 130.667 45.667 234.667 137 312s212 116 362 116c158 0 275.333 -28.333 352 -85l-87 -216c-40.667 40.667 -104.667 67.667 -192 81c-25.333 3.33301 -51.333 5 -78 5s-53.834 -3.16699 -81.501 -9.5s-51.834 -16.5 -72.501 -30.5c-48 -32 -72 -79.667 -72 -143
c0 -78 39.667 -149.667 119 -215c26.667 -22 57 -45.333 91 -70s68.333 -51.167 103 -79.5s66 -59.5 94 -93.5c63.333 -78 95.333 -155 96 -231s-8.66602 -139.167 -27.999 -189.5s-46.666 -94.166 -81.999 -131.499c-71.333 -74 -169.666 -121.333 -294.999 -142
c24 -60.667 36 -126.667 36 -198c0 -177.333 -96.333 -266 -289 -266c-54.667 0 -99.334 4.33301 -134.001 13s-55 15 -61 19z" />
    <glyph glyph-name="scedilla" unicode="&#x15f;" horiz-adv-x="925" 
d="M60 -259c18.667 -10 41.6719 -15.001 69.0049 -15.001s51.166 2 71.499 6s38.166 11.333 53.499 22c33.333 24 50.666 65.333 51.999 124c0.666992 18.667 1 37.5 1 56.5s-0.666992 36.167 -2 51.5c-86.667 6 -159.334 20 -218.001 42
c-16.667 6.66699 -29 13.334 -37 20.001l47 226c46 -36.667 108 -64 186 -82c27.333 -6.66699 54.333 -10 81 -10c111.333 0 167 37.667 167 113c0 47.333 -38.333 101 -115 161c-97.333 75.333 -162.666 138.666 -195.999 189.999c-35.333 55.333 -53 113.333 -53 174
s10.667 111 32 151s50.666 73.667 87.999 101c76.667 56 177 84 301 84c114 0 201.333 -12.667 262 -38l-38 -241c-28.667 32 -77.334 56.333 -146.001 73c-25.333 6 -57.166 9 -95.499 9s-72 -9.33301 -101 -28s-43.5 -42.5 -43.5 -71.5s3.83301 -51.667 11.5 -68
s18.5 -32.166 32.5 -47.499s30.667 -31 50 -47l66 -54c70.667 -56 118 -100.667 142 -134c46 -62.667 69 -123.167 69 -181.5s-8.16699 -106 -24.5 -143s-38.5 -68.5 -66.5 -94.5c-55.333 -50 -131 -82.333 -227 -97c22.667 -61.333 34 -126.333 34 -195
c0 -177.333 -96.333 -266 -289 -266c-54.667 0 -99.334 4.33301 -134.001 13s-55 15 -61 19z" />
    <glyph glyph-name="Scaron" unicode="&#x160;" horiz-adv-x="1057" 
d="M106 302c45.333 -40.667 116.668 -70.6689 214.001 -90.002c30.667 -6 62.834 -9 96.501 -9s66.5 4 98.5 12s59.667 20 83 36c48 33.333 72 82 72 146c0 52 -11.333 93.333 -34 124c-36 50 -92.333 102 -169 156c-84.667 60 -144.667 113.333 -180 160
c-70 92 -105 185.667 -105 281c0 130.667 45.667 234.667 137 312s212 116 362 116c158 0 275.333 -28.333 352 -85l-87 -216c-40.667 40.667 -104.667 67.667 -192 81c-25.333 3.33301 -51.333 5 -78 5s-53.834 -3.16699 -81.501 -9.5s-51.834 -16.5 -72.501 -30.5
c-48 -32 -72 -79.667 -72 -143c0 -78 39.667 -149.667 119 -215c26.667 -22 57 -45.333 91 -70s68.333 -51.167 103 -79.5s66 -59.5 94 -93.5c64.667 -79.333 97 -160.166 97 -242.499s-13.5 -151.666 -40.5 -207.999s-65.167 -103.5 -114.5 -141.5
c-98.667 -76 -232 -114 -400 -114c-116.667 0 -225 21.333 -325 64c-26 10.667 -44.667 20.667 -56 30zM348.002 1924l116 83l217 -206l300 206l115 -77l-343 -323h-178z" />
    <glyph glyph-name="scaron" unicode="&#x161;" horiz-adv-x="925" 
d="M247 1582l106 78l233 -217l294 217l115 -77l-343 -341h-178zM364 182c111.333 0 166.998 37.6689 166.998 113.002c0 47.333 -38.333 101 -115 161c-97.333 75.333 -162.666 138.666 -195.999 189.999c-35.333 55.333 -53 113.333 -53 174s10.667 111 32 151
s50.666 73.667 87.999 101c76.667 56 177 84 301 84c114 0 201.333 -12.667 262 -38l-38 -241c-28.667 32 -77.334 56.333 -146.001 73c-25.333 6 -57.166 9 -95.499 9s-72 -9.33301 -101 -28s-43.5 -42.5 -43.5 -71.5s3.83301 -51.667 11.5 -68s18.5 -32.166 32.5 -47.499
s30.667 -31 50 -47l66 -54c70.667 -56 118 -100.667 142 -134c46 -62.667 69 -125.667 69 -189s-11.667 -115.833 -35 -157.5s-54.666 -75.834 -93.999 -102.501c-77.333 -50.667 -179 -76 -305 -76c-101.333 0 -190.333 14 -267 42
c-21.333 7.33301 -36.666 14.666 -45.999 21.999l47 226c46 -36.667 108 -64 186 -82c27.333 -6.66699 54.333 -10 81 -10z" />
    <glyph glyph-name="uni0162" unicode="&#x162;" horiz-adv-x="1144" 
d="M144 -259c18.667 -10 41.6709 -15 69.0039 -15s51.166 2 71.499 6s38.166 11.333 53.499 22c33.333 24 50.666 65.333 51.999 124c0.666992 14 1 32.333 1 55s-1 45 -3 67h-34l178 1325l-393 -11l33 216h1055l-30 -216l-386 11l-178 -1325h-73
c24.667 -58.667 37 -126 37 -202c0 -177.333 -96.333 -266 -289 -266c-54.667 0 -99.334 4.33301 -134.001 13s-55 15 -61 19z" />
    <glyph glyph-name="uni0163" unicode="&#x163;" horiz-adv-x="790" 
d="M-5 -259c18.667 -10 41.6699 -15 69.0029 -15s51.166 2 71.499 6s38.166 11.333 53.499 22c33.333 24 50.666 65.333 51.999 124c0.666992 14 1 26.667 1 38c0 36 -1 65 -3 87c-66.667 30.667 -100 89.334 -100 176.001c0 34 5.66699 90 17 168l78 607h-100l39 186h105
l80 278h216l-37 -278h242l-23 -186h-244l-84 -629c-2.66699 -20 -4 -39 -4 -57c0 -57.333 21 -86 63 -86c35.333 0 86.333 20 153 60c16.667 10.667 30.334 20.667 41.001 30l39 -139c-53.333 -51.333 -123.333 -92 -210 -122c-30 -10.667 -61.333 -18.334 -94 -23.001
c21.333 -58 32 -121.333 32 -190c0 -177.333 -96.333 -266 -289 -266c-54.667 0 -99.334 4.33301 -134.001 13s-55 15 -61 19z" />
    <glyph glyph-name="Tcaron" unicode="&#x164;" horiz-adv-x="1144" 
d="M385 1924l116 83l217 -206l300 206l115 -77l-343 -323h-178zM532 1325l-393 -11l33 216h1055l-30 -216l-386 11l-178 -1325h-279z" />
    <glyph glyph-name="tcaron" unicode="&#x165;" horiz-adv-x="790" 
d="M424 268c0 -57.333 21 -86 63 -86c35.333 0 86.333 20 153 60c16.667 10.667 30.334 20.667 41.001 30l39 -139c-65.333 -62.667 -151.333 -108 -258 -136c-37.333 -10 -73.333 -15 -108 -15s-64.834 3.83301 -90.501 11.5s-47.5 19.5 -65.5 35.5
c-39.333 34 -59 84 -59 150c0 34 5.66699 90 17 168l78 607h-100l39 186h105l80 278h216l-37 -278h242l-23 -186h-244l-84 -629c-2.66699 -20 -4 -39 -4 -57zM943 1891c22.667 -38 34.001 -107.665 34.001 -208.998c0 -120.667 -25.667 -235.334 -77 -344.001
c-16.667 -35.333 -35.334 -66 -56.001 -92l-125 34l-6 25c27.333 94.667 41 194.667 41 300s-9.33301 172.666 -28 201.999l14 37z" />
    <glyph glyph-name="Tbar" unicode="&#x166;" horiz-adv-x="1144" 
d="M445 679h-249l23 190h251l62 456l-393 -11l33 216h1055l-30 -216l-386 11l-62 -456h259l-23 -190h-261l-91 -679h-279z" />
    <glyph glyph-name="tbar" unicode="&#x167;" horiz-adv-x="790" 
d="M424 268c0 -57.333 21 -86 63 -86c35.333 0 86.333 20 153 60c16.667 10.667 30.334 20.667 41.001 30l39 -139c-65.333 -62.667 -151.333 -108 -258 -136c-37.333 -10 -73.333 -15 -108 -15s-64.834 3.83301 -90.501 11.5s-47.5 19.5 -65.5 35.5
c-39.333 34 -59 84 -59 150c0 34 5.66699 90 17 168l35 274h-92l16 130h93l26 203h-100l39 186h105l80 278h216l-37 -278h242l-23 -186h-244l-27 -203h212l-16 -130h-214l-39 -296c-2.66699 -20 -4 -39 -4 -57z" />
    <glyph glyph-name="Utilde" unicode="&#x168;" horiz-adv-x="1402" 
d="M458 1792c22 45.333 62.334 86.999 121.001 124.999c60.667 38.667 117.667 58 171 58c46 0 82.5 -8.83301 109.5 -26.5s46.833 -32.5 59.5 -44.5l39 -34c29.333 -24.667 55.666 -37 78.999 -37s42.5 3.33301 57.5 10s28.667 15.334 41 26.001s23.5 22.334 33.5 35.001
l31 39l102 -117c-18.667 -50 -56.334 -94.667 -113.001 -134c-58 -41.333 -115 -62 -171 -62c-69.333 0 -129 23.333 -179 70c-30.667 29.333 -55.667 48.5 -75 57.5s-38.166 13.667 -56.499 14s-34.5 -2.16699 -48.5 -7.5s-27 -12.333 -39 -21s-23.333 -18.334 -34 -29.001
l-31 -32zM399.001 14.999c-179.333 62 -269 205.667 -269 431c0 33.333 4.33301 83 13 149l125 935h276l-120 -895c-8 -62.667 -11.667 -132 -11 -208c1.33301 -151.333 81 -227 239 -227c96 0 169.667 32.333 221 97c54 67.333 92.333 181.333 115 342l119 891h273
l-122 -918c-30 -224 -97.667 -385.667 -203 -485c-101.333 -95.333 -249.333 -143 -444 -143c-81.333 0 -152 10.333 -212 31z" />
    <glyph glyph-name="utilde" unicode="&#x169;" horiz-adv-x="1233" 
d="M382 -20c-180.667 0 -270.996 91.001 -270.996 273.001v33c0 28.667 5 82.667 15 162c18 137.333 30 225.666 36 264.999l60 427h274c-22.667 -167.333 -36.334 -270.666 -41.001 -309.999l-38 -287c-15.333 -107.333 -23 -184.333 -23 -231s9.16699 -78.167 27.5 -94.5
s41.166 -24.5 68.499 -24.5s53.666 6.16699 78.999 18.5s50.666 28.833 75.999 49.5c46.667 39.333 91 91.666 133 156.999l98 722h276l-153 -1140h-250l13 205c-74 -104 -162.667 -173 -266 -207c-36.667 -12 -74.667 -18 -114 -18zM314.004 1491
c24 46 64.6641 87.668 121.997 125.001c60.667 38.667 117.334 58 170.001 58c64 0 120.5 -24.5 169.5 -73.5s86.833 -73.5 113.5 -73.5s47.5 3.33301 62.5 10s28.5 15.334 40.5 26.001s23.333 22.334 34 35.001l30 39l102 -117
c-19.333 -50.667 -56.666 -95.334 -111.999 -134.001c-58 -41.333 -115.333 -62 -172 -62c-68.667 0 -128 24.333 -178 73c-30.667 30 -55.667 49.667 -75 59s-38.166 14.166 -56.499 14.499s-34.5 -2.16699 -48.5 -7.5s-27.167 -12.333 -39.5 -21
s-23.833 -18.334 -34.5 -29.001l-31 -32z" />
    <glyph glyph-name="Umacron" unicode="&#x16a;" horiz-adv-x="1402" 
d="M570 1897h544l-13 -179h-543zM399 15c-179.333 62 -269 205.667 -269 431c0 33.333 4.33301 83 13 149l125 935h276l-120 -895c-8 -62.667 -11.667 -132 -11 -208c1.33301 -151.333 81 -227 239 -227c96 0 169.667 32.333 221 97c54 67.333 92.333 181.333 115 342
l119 891h273l-122 -918c-30 -224 -97.667 -385.667 -203 -485c-101.333 -95.333 -249.333 -143 -444 -143c-81.333 0 -152 10.333 -212 31z" />
    <glyph glyph-name="umacron" unicode="&#x16b;" horiz-adv-x="1233" 
d="M382 -20c-180.667 0 -270.996 91.001 -270.996 273.001v33c0 28.667 5 82.667 15 162c18 137.333 30 225.666 36 264.999l60 427h274c-22.667 -167.333 -36.334 -270.666 -41.001 -309.999l-38 -287c-15.333 -107.333 -23 -184.333 -23 -231s9.16699 -78.167 27.5 -94.5
s41.166 -24.5 68.499 -24.5s53.666 6.16699 78.999 18.5s50.666 28.833 75.999 49.5c46.667 39.333 91 91.666 133 156.999l98 722h276l-153 -1140h-250l13 205c-74 -104 -162.667 -173 -266 -207c-36.667 -12 -74.667 -18 -114 -18zM455.004 1594h543l-11 -179h-543z" />
    <glyph glyph-name="Ubreve" unicode="&#x16c;" horiz-adv-x="1402" 
d="M552.5 1825c-11 38 -16.5 70.998 -16.5 98.998s2.33301 52.333 7 73h161c0 -5.33301 -0.166992 -11.166 -0.5 -17.499s0.166992 -16 1.5 -29s4.5 -28.167 9.5 -45.5s13.167 -33 24.5 -47c25.333 -30 60 -45 104 -45s76.667 6.33301 98 19s38.666 28.334 51.999 47.001
c17.333 24 33.333 63.333 48 118h158v-17c0 -41.333 -8.66699 -84 -26 -128s-40.666 -82 -69.999 -114c-65.333 -71.333 -150.333 -107 -255 -107c-106.667 0 -187 31.333 -241 94c-25.333 28.667 -43.5 62 -54.5 100zM399 14.998c-179.333 62 -269 205.667 -269 431
c0 33.333 4.33301 83 13 149l125 935h276l-120 -895c-8 -62.667 -11.667 -132 -11 -208c1.33301 -151.333 81 -227 239 -227c96 0 169.667 32.333 221 97c54 67.333 92.333 181.333 115 342l119 891h273l-122 -918c-30 -224 -97.667 -385.667 -203 -485
c-101.333 -95.333 -249.333 -143 -444 -143c-81.333 0 -152 10.333 -212 31z" />
    <glyph glyph-name="ubreve" unicode="&#x16d;" horiz-adv-x="1233" 
d="M382 -20c-180.667 0 -270.996 91.001 -270.996 273.001v33c0 28.667 5 82.667 15 162c18 137.333 30 225.666 36 264.999l60 427h274c-22.667 -167.333 -36.334 -270.666 -41.001 -309.999l-38 -287c-15.333 -107.333 -23 -184.333 -23 -231s9.16699 -78.167 27.5 -94.5
s41.166 -24.5 68.499 -24.5s53.666 6.16699 78.999 18.5s50.666 28.833 75.999 49.5c46.667 39.333 91 91.666 133 156.999l98 722h276l-153 -1140h-250l13 205c-74 -104 -162.667 -173 -266 -207c-36.667 -12 -74.667 -18 -114 -18zM439.504 1494
c-11 38 -16.5 70.8301 -16.5 98.4971s2.33301 52.167 7 73.5h161c0 -5.33301 -0.166992 -11.166 -0.5 -17.499s0.166992 -16 1.5 -29s4.5 -28.167 9.5 -45.5s13.167 -32.666 24.5 -45.999c25.333 -30.667 60 -46 104 -46s76.667 6.33301 98 19s38.666 28.334 51.999 47.001
c17.333 24 33.333 63.333 48 118h158v-16c0 -42 -8.66699 -85 -26 -129s-40.666 -81.667 -69.999 -113c-65.333 -72 -150.333 -108 -255 -108c-106.667 0 -187 31.333 -241 94c-25.333 28.667 -43.5 62 -54.5 100z" />
    <glyph glyph-name="Uring" unicode="&#x16e;" horiz-adv-x="1402" 
d="M399 15c-179.333 62 -269 205.667 -269 431c0 33.333 4.33301 83 13 149l125 935h276l-120 -895c-8 -62.667 -11.667 -132 -11 -208c1.33301 -151.333 81 -227 239 -227c96 0 169.667 32.333 221 97c54 67.333 92.333 181.333 115 342l119 891h273l-122 -918
c-30 -224 -97.667 -385.667 -203 -485c-101.333 -95.333 -249.333 -143 -444 -143c-81.333 0 -152 10.333 -212 31zM960 1486.5c-42.667 -11.667 -87 -17.498 -133 -17.498s-87.833 5.5 -125.5 16.5s-69.5 27.167 -95.5 48.5c-55.333 43.333 -83 104.666 -83 183.999
c0 96 41.667 170.667 125 224c68.667 43.333 150 65 244 65c136 0 226 -47 270 -141c14 -31.333 21 -69.5 21 -114.5s-10 -85.667 -30 -122s-46.5 -66.333 -79.5 -90s-70.833 -41.334 -113.5 -53.001zM837 1592c118 0 176.997 53.667 176.997 161c0 59.333 -29 100 -87 122
c-17.333 6.66699 -36.166 10 -56.499 10s-41.166 -2.5 -62.499 -7.5s-40.666 -13.5 -57.999 -25.5c-39.333 -27.333 -59 -69 -59 -125c0 -37.333 14.667 -69.333 44 -96c28.667 -26 62.667 -39 102 -39z" />
    <glyph glyph-name="uring" unicode="&#x16f;" horiz-adv-x="1233" 
d="M873 1271c-43.333 -12 -87.834 -18.002 -133.501 -18.002s-87 5.5 -124 16.5s-68.5 27.167 -94.5 48.5c-53.333 44 -80 106 -80 186c0 95.333 41.667 170 125 224c68.667 44.667 149.667 67 243 67c138 0 228 -47.333 270 -142c14 -31.333 21 -69.666 21 -114.999
s-10.333 -86.166 -31 -122.499s-47.667 -66.5 -81 -90.5s-71.666 -42 -114.999 -54zM753.999 1378c118.667 0 177.999 53.667 177.999 161c0 59.333 -29 100 -87 122c-17.333 6.66699 -36.333 10 -57 10s-41.667 -2.5 -63 -7.5s-40.666 -13.5 -57.999 -25.5
c-39.333 -27.333 -59 -69 -59 -125c0 -37.333 14.667 -69.333 44 -96c28.667 -26 62.667 -39 102 -39zM381.998 -20.002c-180.667 0 -270.996 91.001 -270.996 273.001v33c0 28.667 5 82.667 15 162c18 137.333 30 225.666 36 264.999l60 427h274
c-22.667 -167.333 -36.334 -270.666 -41.001 -309.999l-38 -287c-15.333 -107.333 -23 -184.333 -23 -231s9.16699 -78.167 27.5 -94.5s41.166 -24.5 68.499 -24.5s53.666 6.16699 78.999 18.5s50.666 28.833 75.999 49.5c46.667 39.333 91 91.666 133 156.999l98 722h276
l-153 -1140h-250l13 205c-74 -104 -162.667 -173 -266 -207c-36.667 -12 -74.667 -18 -114 -18z" />
    <glyph glyph-name="Uhungarumlaut" unicode="&#x170;" horiz-adv-x="1402" 
d="M399 15c-179.333 62 -269 205.667 -269 431c0 33.333 4.33301 83 13 149l125 935h276l-120 -895c-8 -62.667 -11.667 -132 -11 -208c1.33301 -151.333 81 -227 239 -227c96 0 169.667 32.333 221 97c54 67.333 92.333 181.333 115 342l119 891h273l-122 -918
c-30 -224 -97.667 -385.667 -203 -485c-101.333 -95.333 -249.333 -143 -444 -143c-81.333 0 -152 10.333 -212 31zM952 1635l299 372l157 -131c-31.333 -58 -85 -120.333 -161 -187c-76.667 -68 -143 -111 -199 -129zM498 1635l298 372l158 -130
c-34 -76 -109 -157.667 -225 -245c-48 -36 -89 -60 -123 -72z" />
    <glyph glyph-name="uhungarumlaut" unicode="&#x171;" horiz-adv-x="1233" 
d="M382 -20c-180.667 0 -270.996 91.001 -270.996 273.001v33c0 28.667 5 82.667 15 162c18 137.333 30 225.666 36 264.999l60 427h274c-22.667 -167.333 -36.334 -270.666 -41.001 -309.999l-38 -287c-15.333 -107.333 -23 -184.333 -23 -231s9.16699 -78.167 27.5 -94.5
s41.166 -24.5 68.499 -24.5s53.666 6.16699 78.999 18.5s50.666 28.833 75.999 49.5c46.667 39.333 91 91.666 133 156.999l98 722h276l-153 -1140h-250l13 205c-74 -104 -162.667 -173 -266 -207c-36.667 -12 -74.667 -18 -114 -18zM839.004 1301l258 431.999l180 -131
c-18.667 -53.333 -66 -122.666 -142 -207.999c-78.667 -88 -140 -141.667 -184 -161zM382.004 1301l251 432l177 -127c-28.667 -80 -94 -172.667 -196 -278c-44.667 -46 -83 -77.667 -115 -95z" />
    <glyph glyph-name="Uogonek" unicode="&#x172;" horiz-adv-x="1408" 
d="M713 -12c-30.667 -2.66699 -74.668 -4 -132.001 -4s-115.833 10.333 -175.5 31s-109.167 50.334 -148.5 89.001c-80.667 77.333 -121 191.333 -121 342c0 33.333 4.33301 83 13 149l125 935h276l-120 -895c-8 -62.667 -11.667 -132 -11 -208
c1.33301 -151.333 81 -227 239 -227c96 0 169.667 32.333 221 97c54 67.333 92.333 181.333 115 342l119 891h273l-122 -918c-31.333 -235.333 -103.666 -401.333 -216.999 -498c-38.667 -32.667 -82 -59 -130 -79l-72 -66c-88.667 -85.333 -133 -146 -133 -182
c0 -46 21.667 -69 65 -69c46.667 0 94 18.333 142 55l46 -137c-76 -72.667 -171.667 -109 -287 -109c-62.667 0 -113 18.333 -151 55c-34.667 33.333 -52 69.333 -52 108s8.16699 72.667 24.5 102s36.5 56.333 60.5 81c42 43.333 93 81.666 153 114.999z" />
    <glyph glyph-name="uogonek" unicode="&#x173;" horiz-adv-x="1237" 
d="M382 -20c-180.667 0 -270.995 90.999 -270.995 272.999v33c0 28.667 5 82.667 15 162c18 137.333 30 225.666 36 264.999l60 427h274c-22.667 -167.333 -36.334 -270.666 -41.001 -309.999l-38 -287c-15.333 -107.333 -23 -184.333 -23 -231s9.16699 -78.167 27.5 -94.5
s41.166 -24.5 68.499 -24.5s53.666 6.16699 78.999 18.5s50.666 28.833 75.999 49.5c46.667 39.333 91 91.666 133 156.999l98 722h276l-153 -1140h-15c-99.333 -53.333 -167.666 -106 -204.999 -158c-14 -19.333 -21 -37.666 -21 -54.999c0 -46 22.333 -69 67 -69
s91 18.333 139 55l46 -137c-74 -72.667 -169.667 -109 -287 -109c-62.667 0 -113.334 18.333 -152.001 55c-34 33.333 -51 70.333 -51 111s9.5 76.834 28.5 108.501s42.167 60.5 69.5 86.5c45.333 42.667 99.666 80 162.999 112h-32l13 205
c-74 -104 -162.667 -173 -266 -207c-36.667 -12 -74.667 -18 -114 -18z" />
    <glyph glyph-name="Wcircumflex" unicode="&#x174;" horiz-adv-x="1794" 
d="M118 1530h277l100 -1037l26 -219l64 219l300 758l-30 279h268l107 -1256l63 219l376 1037h282l-612 -1535h-308l-76 703l-16 169l-58 -169l-265 -703h-290zM688 1661l349 346h179l201 -340l-119 -73l-197 200l-300 -205z" />
    <glyph glyph-name="wcircumflex" unicode="&#x175;" horiz-adv-x="1713" 
d="M576 1286l349 374h179l201 -374l-124 -68l-196 219l-301 -223zM209 357l-109.001 783h290l65 -723l11 -207l97 132c112 180 184.667 355 218 525l-33 273h278l61 -723l12 -207l95 129c100.667 158 165.334 323.667 194.001 497l10 65c14 94.667 21 157 21 187v52h254
l2 -23c2 -24 3 -44.333 3 -61c0 -262.667 -97.333 -517 -292 -763c-56 -71.333 -116.667 -138 -182 -200l-86 -100l-217 -12l-57 376l-13 107c-77.333 -151.333 -162.333 -274 -255 -368l-86 -103l-225 -12z" />
    <glyph glyph-name="Ycircumflex" unicode="&#x176;" horiz-adv-x="1130" 
d="M435 590l-346 940h292l195 -608l28 -105l48 105l348 608h303l-597 -940l-80 -590h-271zM345 1661l349 346h179l201 -340l-119 -73l-197 200l-300 -205z" />
    <glyph glyph-name="ycircumflex" unicode="&#x177;" horiz-adv-x="1095" 
d="M-71 -255c50.667 -30.667 95.333 -46 134 -46s72 4.33301 100 13s56.333 24 85 46c56.667 42.667 121 117.334 193 224.001h-164l-60 375l-112 783h284l115 -1045c10 18 20 37.667 30 59l31 63c21.333 46 38 86.667 50 122
c53.333 105.333 89.666 195.666 108.999 270.999c42.667 165.333 64.667 318 66 458l2 72h256c2 -25.333 3 -50.333 3 -75c0 -151.333 -19.667 -291.5 -59 -420.5s-82.666 -243.5 -129.999 -343.5c-82 -173.333 -172 -324 -270 -452l-99 -128
c-120 -153.333 -265 -230 -435 -230c-66.667 0 -134 17 -202 51zM216.999 1286l349 374h179l201 -374l-124 -68l-196 219l-301 -223z" />
    <glyph glyph-name="Ydieresis" unicode="&#x178;" horiz-adv-x="1130" 
d="M435 590l-346 940h292l195 -608l28 -105l48 105l348 608h303l-597 -940l-80 -590h-271zM988.5 1678c-21 -9.33301 -42.499 -14.002 -64.499 -14.002s-41 4 -57 12s-30 18.667 -42 32c-25.333 28 -38 57.333 -38 88s4.5 56.334 13.5 77.001s20.833 38.667 35.5 54
c32 33.333 70 50 114 50c64 0 107.667 -29 131 -87c6 -14.667 9 -32.167 9 -52.5s-4.33301 -41.666 -13 -63.999s-20.334 -41.5 -35.001 -57.5s-32.5 -28.667 -53.5 -38zM479.001 1664c-22 0 -41 4.00098 -57 12.001c-33.333 16 -57.333 42 -72 78c-6 16 -9 34.333 -9 55
s4.66699 41.667 14 63s21.333 39.666 36 54.999c32 33.333 70 50 114 50c42 0 76 -14.333 102 -43c24 -26 36 -56 36 -90c0 -51.333 -15.667 -94 -47 -128c-32 -34.667 -71 -52 -117 -52z" />
    <glyph glyph-name="Zacute" unicode="&#x179;" horiz-adv-x="1158" 
d="M-27 89l777 1114l114 113l-639 -12l34 226h937l24 -86l-761 -1114l-104 -110l685 11l-37 -231h-1002zM679 1665l277 342.001l167 -157c-25.333 -48 -76.666 -103 -153.999 -165c-70.667 -56.667 -131.334 -94.334 -182.001 -113.001z" />
    <glyph glyph-name="zacute" unicode="&#x17a;" horiz-adv-x="975" 
d="M499 1319l321 425l180 -169c-20 -37.333 -75.667 -97 -167 -179c-99.333 -88 -176 -142 -230 -162zM-37 52l567 773l111 104h-488l29 211h773l41 -48l-571 -787l-99 -91h533l-22 -214h-827z" />
    </font>
</defs>
</svg>
