<?xml version="1.0" standalone="no"?>
<!DOCTYPE svg PUBLIC "-//W3C//DTD SVG 1.1//EN" "http://www.w3.org/Graphics/SVG/1.1/DTD/svg11.dtd" >
<svg>
<metadata>
Created by FontForge 20090914 at Wed Mar 26 14:07:23 2014
 By www-data
Copyright (c) 2013, Sorkin Type Co (www.sorkintype.com) with Reserved Font Name 'Merriweather'
</metadata>
<defs>
<font id="MerriweatherSans-ExtraBold" horiz-adv-x="0" >
  <font-face 
    font-family="Merriweather Sans"
    font-weight="800"
    font-stretch="normal"
    units-per-em="2048"
    panose-1="2 0 5 3 6 0 0 2 0 4"
    ascent="1638"
    descent="-410"
    x-height="1140"
    cap-height="1522"
    bbox="-119.001 -560 3152 1998"
    underline-thickness="137"
    underline-position="-212"
    unicode-range="U+0001-U+FB04"
  />
<missing-glyph horiz-adv-x="1878" 
d="M231 1416h1416v-1416h-1416v1416zM589 219l347 368l362 -368l122 122l-363 368l363 358l-128 124l-352 -366l-357 368l-123 -125l359 -363l-358 -342z" />
    <glyph glyph-name="f_f" unicode="ff" horiz-adv-x="1762" 
d="M884 1407c-31.333 16.667 -74.499 25.001 -129.499 25.001s-95.5 -14.833 -121.5 -44.5s-39 -77.834 -39 -144.501v-103h247v-243h-247v-897h-372v897h-143v216l143 27v117c0 150 47.333 262.333 142 337c78 60 178 90 300 90c85.333 0 158.666 -7.66699 219.999 -23
v-254zM1765 1407c-31.333 16.667 -74.499 25.001 -129.499 25.001s-95.5 -14.833 -121.5 -44.5s-39 -77.834 -39 -144.501v-103h247v-243h-247v-897h-372v897h-143v216l143 27v117c0 150 47.333 262.333 142 337c78 60 178 90 300 90c85.333 0 158.666 -7.66699 219.999 -23
v-254z" />
    <glyph glyph-name="f_i" unicode="fi" horiz-adv-x="1571" 
d="M1040 1140h372v-1140h-372v1140zM1229 1279c-60 0 -109 17.667 -147 53c-39.333 36.667 -59 83 -59 139s22.167 104.333 66.5 145s96.5 61 156.5 61s109 -17.667 147 -53s57 -81.333 57 -138c0 -56 -21.667 -104.667 -65 -146c-43.333 -40.667 -95.333 -61 -156 -61z
M884 1407c-31.333 16.667 -74.499 25.001 -129.499 25.001s-95.5 -14.833 -121.5 -44.5s-39 -77.834 -39 -144.501v-103h247v-243h-247v-897h-372v897h-143v216l143 27v117c0 150 47.333 262.333 142 337c78 60 178 90 300 90c85.333 0 158.666 -7.66699 219.999 -23v-254z
" />
    <glyph glyph-name="f_l" unicode="fl" horiz-adv-x="1578" 
d="M1044 1662h371v-1662h-371v1662zM884 1407c-31.333 16.667 -74.499 25.001 -129.499 25.001s-95.5 -14.833 -121.5 -44.5s-39 -77.834 -39 -144.501v-103h247v-243h-247v-897h-372v897h-143v216l143 27v117c0 150 47.333 262.333 142 337c78 60 178 90 300 90
c85.333 0 158.666 -7.66699 219.999 -23v-254z" />
    <glyph glyph-name="f_f_i" unicode="ffi" horiz-adv-x="2452" 
d="M1921 1140h372v-1140h-372v1140zM2110 1279c-60 0 -109 17.667 -147 53c-39.333 36.667 -59 83 -59 139s22.167 104.333 66.5 145s96.5 61 156.5 61s109 -17.667 147 -53s57 -81.333 57 -138c0 -56 -21.667 -104.667 -65 -146c-43.333 -40.667 -95.333 -61 -156 -61z
M884 1407c-31.333 16.667 -74.499 25.001 -129.499 25.001s-95.5 -14.833 -121.5 -44.5s-39 -77.834 -39 -144.501v-103h247v-243h-247v-897h-372v897h-143v216l143 27v117c0 150 47.333 262.333 142 337c78 60 178 90 300 90c85.333 0 158.666 -7.66699 219.999 -23v-254z
M1765 1407c-31.333 16.667 -74.499 25.001 -129.499 25.001s-95.5 -14.833 -121.5 -44.5s-39 -77.834 -39 -144.501v-103h247v-243h-247v-897h-372v897h-143v216l143 27v117c0 150 47.333 262.333 142 337c78 60 178 90 300 90c85.333 0 158.666 -7.66699 219.999 -23v-254z
" />
    <glyph glyph-name="f_f_l" unicode="ffl" horiz-adv-x="2460" 
d="M1925 1662h371v-1662h-371v1662zM884 1407c-31.333 16.667 -74.499 25.001 -129.499 25.001s-95.5 -14.833 -121.5 -44.5s-39 -77.834 -39 -144.501v-103h247v-243h-247v-897h-372v897h-143v216l143 27v117c0 150 47.333 262.333 142 337c78 60 178 90 300 90
c85.333 0 158.666 -7.66699 219.999 -23v-254zM1765 1407c-31.333 16.667 -74.499 25.001 -129.499 25.001s-95.5 -14.833 -121.5 -44.5s-39 -77.834 -39 -144.501v-103h247v-243h-247v-897h-372v897h-143v216l143 27v117c0 150 47.333 262.333 142 337c78 60 178 90 300 90
c85.333 0 158.666 -7.66699 219.999 -23v-254z" />
    <glyph glyph-name=".notdef" horiz-adv-x="1878" 
d="M231 1416h1416v-1416h-1416v1416zM589 219l347 368l362 -368l122 122l-363 368l363 358l-128 124l-352 -366l-357 368l-123 -125l359 -363l-358 -342z" />
    <glyph glyph-name="uni0001" 
 />
    <glyph glyph-name="uni0002" 
 />
    <glyph glyph-name="uni0003" 
 />
    <glyph glyph-name="uni0005" 
 />
    <glyph glyph-name="uni0006" 
 />
    <glyph glyph-name="uni0007" 
 />
    <glyph glyph-name="uni0008" 
 />
    <glyph glyph-name="HT" unicode="&#x9;" 
 />
    <glyph glyph-name="LF" unicode="&#xa;" 
 />
    <glyph glyph-name="DLE" 
 />
    <glyph glyph-name="DC1" 
 />
    <glyph glyph-name="DC2" 
 />
    <glyph glyph-name="DC3" 
 />
    <glyph glyph-name="DC4" 
 />
    <glyph glyph-name="uni0015" 
 />
    <glyph glyph-name="uni0016" 
 />
    <glyph glyph-name="uni0017" 
 />
    <glyph glyph-name="uni0018" 
 />
    <glyph glyph-name="uni0019" 
 />
    <glyph glyph-name="RS" 
 />
    <glyph glyph-name="US" 
 />
    <glyph glyph-name="space" unicode=" " horiz-adv-x="678" 
 />
    <glyph glyph-name="exclam" unicode="!" horiz-adv-x="669" 
d="M133 1780h407l-40 -1190h-314zM120 189c0 61.333 21.334 114.333 64.001 159c44.667 45.333 98 68 160 68s112 -20 150 -60c36 -38.667 54 -88.667 54 -150s-21.333 -114.666 -64 -159.999s-95.334 -68 -158.001 -68c-60.667 0 -110 20 -148 60
c-38.667 41.333 -58 91.666 -58 150.999z" />
    <glyph glyph-name="quotedbl" unicode="&#x22;" horiz-adv-x="1257" 
d="M198 1703h334l-41 -753h-251zM726 1703h334l-41 -753h-251z" />
    <glyph glyph-name="numbersign" unicode="#" horiz-adv-x="1709" 
d="M383 305h-177v248h201l28 285h-188v237h210l29 298h302l-29 -298h263l28 298h299l-29 -298h191v-237h-214l-28 -285h198v-248h-222l-29 -305h-294l28 305h-267l-30 -305h-299zM973 553l27 285h-265l-28 -285h266z" />
    <glyph glyph-name="dollar" unicode="$" horiz-adv-x="1409" 
d="M263 374c72 -41.333 165.999 -70.665 281.999 -87.998c40 -6 88.333 -9 145 -9c120.667 0 181 43 181 129c0 44.667 -23 84 -69 118c-27.333 19.333 -86.333 50.666 -177 93.999s-157.667 79.666 -201 108.999s-81.333 63 -114 101c-70 82.667 -105 180.334 -105 293.001
c0 174.667 81 296 243 364c51.333 21.333 108.333 36 171 44l9 234h204l-9 -227c149.333 -8.66699 267.333 -37 354 -85l-59 -286c-52.667 41.333 -131.667 71 -237 89c-33.333 5.33301 -76.5 8 -129.5 8s-96.333 -11.667 -130 -35s-50.5 -50.5 -50.5 -81.5
s5 -55.667 15 -74s26 -36.166 48 -53.499c37.333 -30 96.333 -63.167 177 -99.5s146.834 -69.833 198.501 -100.5s95.5 -64.334 131.5 -101.001c74 -75.333 111 -169.333 111 -282c0 -129.333 -41.333 -233 -124 -311c-86 -80.667 -205.667 -126.334 -359 -137.001l-7 -212
h-205l8 216c-164 16 -280.333 45 -349 87z" />
    <glyph glyph-name="percent" unicode="%" horiz-adv-x="2287" 
d="M521 589h-6c-135.333 0 -240 45 -314 135c-68 83.333 -102 194.333 -102 333c0 146 46.333 263 139 351c86.667 82.667 193 124 319 124h6c136.667 0 241.667 -45.333 315 -136c66.667 -83.333 100 -194.333 100 -333c0 -145.333 -46.667 -262.333 -140 -351
c-86 -82 -191.667 -123 -317 -123zM1283 1530h283l-557 -1530h-282zM653.5 884c27 41.333 40.5 89.334 40.5 144.001s-3.5 97.167 -10.5 127.5s-16.833 56.166 -29.5 77.499c-27.333 44.667 -66 67 -116 67s-88.5 -20.667 -115.5 -62s-40.5 -89.333 -40.5 -144
s3.5 -97 10.5 -127s16.833 -55.667 29.5 -77c27.333 -45.333 66 -68 116 -68s88.5 20.667 115.5 62zM1309 472.001c0 71.333 12.668 136.5 38.001 195.5s59 108.5 101 148.5c87.333 82 193.333 123 318 123h6c137.333 0 242.666 -45 315.999 -135
c66.667 -82.667 100 -193.667 100 -333c0 -146 -46.667 -263 -140 -351c-86 -82.667 -192 -124 -318 -124c-139.333 0 -246 45.333 -320 136c-67.333 84 -101 197.333 -101 340zM1632.5 646.001c-27 -41.333 -40.499 -89.5 -40.499 -144.5s3.5 -97.5 10.5 -127.5
s16.833 -55.667 29.5 -77c27.333 -44.667 66 -67 116 -67s88.333 20.667 115 62s40 89.333 40 144s-3.33301 97 -10 127s-16.334 55.667 -29.001 77c-27.333 45.333 -66 68 -116 68s-88.5 -20.667 -115.5 -62z" />
    <glyph glyph-name="ampersand" unicode="&#x26;" horiz-adv-x="1540" 
d="M1062 51c-106 -44.667 -214.5 -66.999 -325.5 -66.999s-209 9.5 -294 28.5s-155.833 46.833 -212.5 83.5c-112.667 72 -169 176.667 -169 314c0 165.333 102.333 293 307 383c-87.333 126 -131 246.333 -131 361c0 123.333 41.667 219.666 125 288.999
c83.333 68.667 195.333 103 336 103c134 0 242.667 -36 326 -108c81.333 -70 122 -158.667 122 -266c0 -161.333 -66 -285 -198 -371c-39.333 -25.333 -80.666 -48.666 -123.999 -69.999c79.333 -108.667 167.333 -214.334 264 -317.001c37.333 54 56 117 56 189
c0 53.333 -2.66699 92 -8 116s-8.33301 39.667 -9 47h294c10 -45.333 15 -100 15 -164c0 -152 -41.333 -273 -124 -363c52 -23.333 113.333 -35 184 -35v-205c-43.333 -10 -95.333 -15 -156 -15c-100.667 0 -193.334 22.333 -278.001 67zM687 910.001
c104 66.667 155.999 153.002 155.999 259.002c0 62 -23.667 105.333 -71 130c-18 9.33301 -39.667 14 -65 14s-46.833 -3.83301 -64.5 -11.5s-32.5 -18.167 -44.5 -31.5c-25.333 -28 -38 -58.333 -38 -91s2.33301 -58.334 7 -77.001s12.334 -37.334 23.001 -56.001
c16 -30.667 48.333 -76 97 -136zM513.999 603.003c-73.333 -47.333 -110.001 -105.667 -110.001 -175c0 -130.667 98 -196 294 -196c50 0 93 4 129 12c-109.333 112 -213.666 231.667 -312.999 359z" />
    <glyph glyph-name="quotesingle" unicode="'" horiz-adv-x="730" 
d="M198 1703h334l-41 -753h-251z" />
    <glyph glyph-name="parenleft" unicode="(" horiz-adv-x="843" 
d="M572 -360c-98 63.333 -190.667 164.668 -278 304.001c-76.667 122.667 -132.667 274 -168 454c-18 94.667 -27 196.667 -27 306s8.83301 208.333 26.5 297s40.667 170 69 244s60 140.333 95 199s69.833 109.667 104.5 153c62.667 77.333 122 134 178 170l190 -130
c-74 -62 -144.667 -160.333 -212 -295c-92 -186 -138 -397.667 -138 -635c0 -232 40.667 -437.333 122 -616c61.333 -136.667 137.333 -243.334 228 -320.001z" />
    <glyph glyph-name="parenright" unicode=")" horiz-adv-x="843" 
d="M264.035 1781.98c97.9941 -63.3291 190.655 -164.655 277.982 -303.98c76.6621 -122.659 132.659 -273.983 167.99 -453.973c17.999 -94.6611 26.998 -196.655 26.998 -305.982s-8.83301 -208.321 -26.498 -296.982s-40.6641 -169.989 -68.9961 -243.984
c-28.3311 -73.9951 -59.9961 -140.324 -94.9941 -198.987s-69.8291 -109.66 -104.493 -152.991c-62.6631 -77.3291 -121.993 -133.992 -177.989 -169.99l-189.988 129.992c73.9951 61.9961 144.657 160.323 211.986 294.982
c91.9951 185.988 137.992 397.642 137.992 634.961c0 231.985 -40.6641 437.307 -121.993 615.963c-61.3291 136.658 -137.324 243.318 -227.985 319.98z" />
    <glyph glyph-name="asterisk" unicode="*" horiz-adv-x="1412" 
d="M140 992l289.001 138.997l160 42c-3.33301 0.666992 -12.666 2.83398 -27.999 6.50098s-32.333 7.5 -51 11.5c-50 10.667 -77.667 17.334 -83 20.001l-294 131l124 243l273 -189l118 -121c-0.666992 3.33301 -3.33398 12.833 -8.00098 28.5l-15 50.5
c-14.667 49.333 -22.334 77 -23.001 83l-40 321h272l-27 -316l-44 -165c3.33301 2 16.666 16.667 39.999 44c34.667 38.667 60 66 76 82l266 192l127 -242l-287 -134l-163 -45l165 -39l292 -125l-137 -251l-254 188l-123 120
c0.666992 -3.33301 3.33398 -12.666 8.00098 -27.999l15 -50l15.5 -51c5 -16 7.83301 -26.333 8.5 -31l37 -323h-271l29 321l43 163l-116 -127l-260 -193z" />
    <glyph glyph-name="plus" unicode="+" horiz-adv-x="1401" 
d="M560 440l6 205l-160 -5h-218v271h218l160 -5l-6 203v200h279v-200l-6 -203l157 5h222v-271h-222l-157 5l6 -205v-193h-279v193z" />
    <glyph glyph-name="comma" unicode="," horiz-adv-x="700" 
d="M151 182l263 136c52.667 -20 94.667 -65.333 126 -136c27.333 -61.333 41 -123 41 -185s-7.16699 -119.833 -21.5 -173.5s-34.166 -102.834 -59.499 -147.501c-52.667 -96 -117.334 -158.667 -194.001 -188l-132 104v26c35.333 26 60 82.333 74 169
c4.66699 28.667 7 56.834 7 84.501s-3.33301 52.667 -10 75s-15 42.833 -25 61.5c-22 40.667 -45 63 -69 67v107z" />
    <glyph glyph-name="hyphen" unicode="-" horiz-adv-x="1358" 
d="M254 904h850v-278h-850v278z" />
    <glyph glyph-name="period" unicode="." horiz-adv-x="669" 
d="M120 189c0 60 21.667 113.001 65 159.001c43.333 45.333 96.333 68 159 68c62 0 112 -20 150 -60c36 -38.667 54 -88.667 54 -150c0 -62 -21 -115.333 -63 -160c-43.333 -45.333 -96 -68 -158 -68c-61.333 0 -111 20 -149 60c-38.667 41.333 -58 91.666 -58 150.999z" />
    <glyph glyph-name="slash" unicode="/" horiz-adv-x="862" 
d="M563 1599h291l-555 -1962h-291z" />
    <glyph glyph-name="zero" unicode="0" horiz-adv-x="1438" 
d="M167 320c-19.333 48.667 -33.002 99.1699 -41.002 151.503s-12 117.166 -12 194.499s15.5 155.666 46.5 234.999s73.833 146.333 128.5 201c112.667 112.667 261.334 169 446.001 169c276.667 0 456.334 -107.667 539.001 -323c33.333 -88 50 -191 50 -309
c0 -200.667 -56 -360.334 -168 -479.001c-111.333 -117.333 -260 -176 -446 -176c-274 0 -455 112 -543 336zM950.998 618.003c0 182.667 -41.999 306 -125.999 370c-28.667 21.333 -63 32 -103 32h-4c-74.667 0 -132.334 -32.667 -173.001 -98
c-40 -64 -60 -154.333 -60 -271c0 -114.667 20.167 -212.5 60.5 -293.5s98.333 -121.5 174 -121.5s133.167 32.667 172.5 98s59 160 59 284z" />
    <glyph glyph-name="one" unicode="1" horiz-adv-x="1058" 
d="M382 878c-54.667 -12.667 -130.332 -26.666 -226.999 -41.999l-30 224c91.333 22 201.666 67.333 330.999 136c55.333 29.333 98.333 56.666 129 81.999l185 -29l-3 -1249h-385v878z" />
    <glyph glyph-name="two" unicode="2" horiz-adv-x="1418" 
d="M140 169c146 72 281 160.998 405 266.998c160 138 240 263 240 375c0 86.667 -32.333 144.334 -97 173.001c-23.333 10 -52 15 -86 15s-66.833 -3.5 -98.5 -10.5s-61.5 -16.167 -89.5 -27.5c-58.667 -23.333 -106 -52.333 -142 -87l-125 214
c82.667 85.333 202 146.666 358 183.999c56 13.333 123.5 20 202.5 20s150.833 -11.5 215.5 -34.5s117 -53.5 157 -91.5c73.333 -69.333 110 -161.666 110 -276.999c0 -173.333 -93.667 -332.666 -281 -477.999c-59.333 -46 -126 -91 -200 -135l553 38v-314h-1072z" />
    <glyph glyph-name="three" unicode="3" horiz-adv-x="1201" 
d="M123 -38c89.333 -20.667 163.001 -31.0029 221.001 -31.0029s109.5 5.33301 154.5 16s83.833 26.334 116.5 47.001c68.667 44.667 103 107 103 187c0 102.667 -42 168.334 -126 197.001c-25.333 8 -48.5 12 -69.5 12h-42.5l-136 -32l-50 229
c94.667 17.333 168.167 40 220.5 68s88.833 57.667 109.5 89c21.333 34 32 72.333 32 115s-15.833 76.667 -47.5 102s-75.834 38 -132.501 38c-107.333 0 -208 -34.333 -302 -103l-106 232c32 34.667 94.667 68 188 100c104 34.667 198.5 52 283.5 52
s157.5 -8.16699 217.5 -24.5s110.333 -40.166 151 -71.499c84.667 -63.333 127 -151.333 127 -264c0 -166 -83.667 -295.333 -251 -388c110 -14.667 194.667 -59 254 -133c50.667 -62.667 76 -133.834 76 -213.501s-16 -150.667 -48 -213s-77.333 -115.833 -136 -160.5
c-124.667 -95.333 -287.667 -143.666 -489 -144.999c-99.333 0 -205 17.333 -317 52z" />
    <glyph glyph-name="four" unicode="4" horiz-adv-x="1452" 
d="M634 1342h77l290 -137l-419 -774l-99 -169h338l38 372h318v-372h222v-262h-222v-376h-356v376h-655l-86 132z" />
    <glyph glyph-name="five" unicode="5" horiz-adv-x="1320" 
d="M173 -97c28 -1.33301 70.167 -1.99805 126.5 -1.99805s118.333 8.16699 186 24.5s124.834 39.166 171.501 68.499c94.667 58.667 142 137 142 235c0 62.667 -20.167 110 -60.5 142s-100.833 48.167 -181.5 48.5s-182.334 -21.167 -305.001 -64.5l-66 34l63 863h885
l-32 -301h-587l-31 -307c84 26.667 164.667 40 242 40s143.833 -10 199.5 -30s102.167 -49 139.5 -87c76 -77.333 114 -185.333 114 -324c0 -182.667 -77 -329.334 -231 -440.001c-155.333 -112 -364.333 -168 -627 -168c-62 0 -111.667 4.66699 -149 14z" />
    <glyph glyph-name="six" unicode="6" horiz-adv-x="1456" 
d="M861 748c-21.333 9.33301 -48.3301 14 -80.9971 14s-72 -11 -118 -33l-68 192c32 46 97.667 81 197 105c35.333 8 79.5 12 132.5 12s105.833 -11.667 158.5 -35s98 -55.666 136 -96.999c80 -87.333 120 -200 120 -338c0 -168.667 -51.333 -305.334 -154 -410.001
c-112.667 -116 -269.334 -174 -470.001 -174c-172.667 0 -315.167 60 -427.5 180s-168.5 273 -168.5 459c0 190.667 50.333 366.334 151 527.001c87.333 140.667 203.666 257.667 348.999 351c133.333 86 264.666 136.667 393.999 152l84 -219
c-183.333 -46 -328 -144.667 -434 -296c-100.667 -142.667 -151 -297.334 -151 -464.001c0 -206 42.333 -340.667 127 -404c30 -22 66.667 -33 110 -33c74 0 129.5 22.667 166.5 68s55.5 109.333 55.5 192c0 135.333 -36.333 219 -109 251z" />
    <glyph glyph-name="seven" unicode="7" horiz-adv-x="1334" 
d="M284 -292l216.5 473.5l150.5 343.5l73 166l100 237l-702 1v342h1039l81 -116l-592 -1549z" />
    <glyph glyph-name="eight" unicode="8" horiz-adv-x="1402" 
d="M393 770c-151.333 104 -227.001 235.001 -227.001 393.001c0 115.333 46 210.333 138 285c96.667 78 228.334 117 395.001 117s297 -34.333 391 -103c90 -66 135 -152.667 135 -260c0 -118.667 -46 -219.334 -138 -302.001c-32 -28.667 -70.667 -53.667 -116 -75
c100.667 -56 170.667 -105 210 -147c74.667 -80.667 112 -166.667 112 -258c0 -134 -54.333 -240.667 -163 -320c-104.667 -77.333 -242.667 -116 -414 -116c-186 0 -332.333 37.333 -439 112c-106 74.667 -159 175 -159 301c0 160.667 91.667 285 275 373zM750.999 938.001
c99.333 49.333 148.999 129.664 148.999 240.997v8c0 44.667 -17 81.334 -51 110.001s-82.333 43 -145 43c-57.333 0 -104.666 -14.667 -141.999 -44c-35.333 -27.333 -53 -58.166 -53 -92.499s6.33301 -63.166 19 -86.499s30 -45 52 -65
c36.667 -35.333 93.667 -73.333 171 -114zM618.998 646.999c-102 -60 -153 -137.668 -153 -233.001c0 -86 44.667 -143.333 134 -172c30.667 -10 64 -15 100 -15s66.667 3.66699 92 11s47.333 18 66 32c40.667 30.667 61 69.667 61 117c0 72.667 -62 140.334 -186 203.001z
" />
    <glyph glyph-name="nine" unicode="9" horiz-adv-x="1455" 
d="M600 497.5c22 -11 49.3359 -16.498 82.0029 -16.498s73 8 121 24l65 -191c-32.667 -44.667 -97.667 -77 -195 -97c-36 -7.33301 -80.833 -11 -134.5 -11s-106.834 12.5 -159.501 37.5s-98 59.5 -136 103.5c-80 92.667 -120 209.667 -120 351
c0 169.333 53 305.333 159 408c113.333 109.333 270.666 164 471.999 164c174.667 0 316 -59 424 -177s162 -271.667 162 -461c0 -193.333 -51.333 -372 -154 -536c-88.667 -141.333 -208 -260.333 -358 -357c-136.667 -88 -269 -139.667 -397 -155l-88 212
c123.333 30 233.333 88.333 330 175c130.667 117.333 216 262 256 434c12.667 55.333 19 112.666 19 171.999s-4.33301 116.166 -13 170.499s-22.334 101.833 -41.001 142.5c-40 84 -98.167 126 -174.5 126s-133.833 -21.667 -172.5 -65s-58 -97.333 -58 -162
s4.66699 -115 14 -151s22.333 -65.667 39 -89s36 -40.5 58 -51.5z" />
    <glyph glyph-name="colon" unicode=":" horiz-adv-x="669" 
d="M120 189c0 60 21.667 113.001 65 159.001c43.333 45.333 96.333 68 159 68c62 0 112 -20 150 -60c36 -38.667 54 -88.667 54 -150c0 -62 -21 -115.333 -63 -160c-43.333 -45.333 -96 -68 -158 -68c-61.333 0 -111 20 -149 60c-38.667 41.333 -58 91.666 -58 150.999z
M120 925.001c0 60 21.667 113.001 65 159.001c43.333 45.333 96.333 68 159 68c62 0 112 -20 150 -60c36 -38.667 54 -88.667 54 -150c0 -62 -21 -115.333 -63 -160c-43.333 -45.333 -96 -68 -158 -68c-61.333 0 -111 20 -149 60c-38.667 41.333 -58 91.666 -58 150.999z
" />
    <glyph glyph-name="semicolon" unicode=";" horiz-adv-x="669" 
d="M136 182l263 136c52.667 -20 94.667 -65.333 126 -136c27.333 -61.333 41 -123 41 -185s-7.16699 -119.833 -21.5 -173.5s-34.166 -102.834 -59.499 -147.501c-52.667 -96 -117.334 -158.667 -194.001 -188l-132 104v26c35.333 26 60 82.333 74 169
c4.66699 28.667 7 56.834 7 84.501s-3.33301 52.667 -10 75s-15 42.833 -25 61.5c-22 40.667 -45 63 -69 67v107zM120 925c0 60 21.667 113.001 65 159.001c43.333 45.333 96.333 68 159 68c62 0 112 -20 150 -60c36 -38.667 54 -88.667 54 -150
c0 -62 -21 -115.333 -63 -160c-43.333 -45.333 -96 -68 -158 -68c-61.333 0 -111 20 -149 60c-38.667 41.333 -58 91.666 -58 150.999z" />
    <glyph glyph-name="less" unicode="&#x3c;" horiz-adv-x="1376" 
d="M211 853l944 503v-323l-513 -259l513 -227v-334l-944 486v154z" />
    <glyph glyph-name="equal" unicode="=" horiz-adv-x="1430" 
d="M253 1155h924v-251h-924v251zM253 647h924v-252h-924v252z" />
    <glyph glyph-name="greater" unicode="&#x3e;" horiz-adv-x="1375" 
d="M1156.01 853l-943.942 503v-323l512.969 -259l-512.969 -227v-334l943.942 486v154z" />
    <glyph glyph-name="question" unicode="?" horiz-adv-x="1063" 
d="M342 1564c-84 0 -162.667 -16 -236 -48v268c42.667 27.333 119.334 46.333 230.001 57c34 3.33301 83.5 5 148.5 5s133.833 -10.333 206.5 -31c214 -60.667 321 -191.667 321 -393c0 -130 -44.667 -235.667 -134 -317c-26 -23.333 -52.333 -45.5 -79 -66.5l-79 -62.5
c-26 -20.667 -49.333 -43 -70 -67c-49.333 -56.667 -74 -123.667 -74 -201c0 -24 3.66699 -49.333 11 -76l26 -97h-284c-49.333 82 -74 166 -74 252c0 100.667 37.667 187.667 113 261c21.333 20.667 43.166 40.667 65.499 60l66 57.5c21.667 19 41.167 39.167 58.5 60.5
c37.333 47.333 56 98.333 56 153c0 123.333 -90.667 185 -272 185zM284 178c0 57.333 21.333 107.667 64 151c42 43.333 93 65 153 65c90.667 0 151.667 -40 183 -120c10 -24.667 15 -51.334 15 -80.001c0 -58 -20.667 -108.333 -62 -151c-42 -43.333 -93 -65 -153 -65
c-58.667 0 -106.667 19 -144 57c-37.333 38.667 -56 86.334 -56 143.001z" />
    <glyph glyph-name="at" unicode="@" horiz-adv-x="2245" 
d="M1579 -319c-142 -94.667 -321.669 -141.999 -539.002 -141.999c-256.667 0 -466.334 70.667 -629.001 212c-113.333 98 -191.666 230 -234.999 396c-22 84 -33 179.667 -33 287s13.5 210.333 40.5 309s65 189.167 114 271.5s107.667 156.166 176 221.499
s143.833 120.666 226.5 165.999c168.667 94 353.667 141 555 141c246 0 444.667 -63.667 596 -191c159.333 -134.667 239 -319.667 239 -555c0 -258.667 -65.333 -461 -196 -607c-116 -130 -255.333 -195 -418 -195c-67.333 0 -118.666 14.333 -153.999 43
c-45.333 36.667 -65.333 105.667 -60 207c-101.333 -166.667 -220 -250 -356 -250c-81.333 0 -151.333 37 -210 111c-61.333 79.333 -92 184 -92 314c0 167.333 49.667 315.333 149 444c68 88.667 158.333 151.334 271 188.001c57.333 18.667 127 28 209 28
s152.667 -18.333 212 -55l197 31c-5.33301 -24 -11.166 -52 -17.499 -84l-20.5 -103l-22.5 -114.5l-23.5 -118.5l-42 -203c-13.333 -62 -20 -109.667 -20 -143c0 -56 18 -84 54 -84s73 12.333 111 37s72.333 61 103 109c70 108.667 105 248.334 105 419.001
c0 270 -109.667 447 -329 531c-86 33.333 -175 50 -267 50s-174.667 -9.16699 -248 -27.5s-142.666 -45.5 -207.999 -81.5s-125.333 -80.333 -180 -133s-101.667 -113.334 -141 -182.001c-84.667 -144.667 -127 -311.667 -127 -501c0 -319.333 121.667 -531.333 365 -636
c95.333 -41.333 204 -62 326 -62c162 0 295.333 26.333 400 79c27.333 14 51.666 27 72.999 39zM1321 814.001c-28.667 31.333 -69.501 46.999 -122.501 46.999s-97.167 -11.333 -132.5 -34s-66.333 -53 -93 -91c-58 -81.333 -87 -175.666 -87 -282.999
c0 -66.667 8.83301 -116.667 26.5 -150s39.334 -50 65.001 -50s50.5 8.5 74.5 25.5s47.667 39.833 71 68.5s46 62 68 100s41.667 77.667 59 119c38 88 61.667 170.667 71 248z" />
    <glyph glyph-name="A" unicode="A" horiz-adv-x="1460" 
d="M511 1532h434l534 -1532h-404l-84 284h-531l-80 -284h-399zM912 550l-141 477l-50 197l-51 -197l-135 -477h377z" />
    <glyph glyph-name="B" unicode="B" horiz-adv-x="1462" 
d="M1060 21c-80.667 -23.333 -180.499 -34.999 -299.499 -34.999s-250.833 4.66699 -395.5 14h-192v1523l185 -1l363 15c390 0 585 -130.667 585 -392c0 -129.333 -42.667 -227 -128 -293c-28.667 -21.333 -62 -37.333 -100 -48c90 -10.667 163.333 -46.334 220 -107.001
c59.333 -62.667 89 -135.167 89 -217.5s-10 -152.5 -30 -210.5s-54.333 -108 -103 -150s-113.334 -74.667 -194.001 -98zM875.501 1242.5c-45 25.667 -106.5 38.5 -184.5 38.5s-124.667 -4.33301 -140 -13v-365c21.333 -5.33301 61.333 -8 120 -8s103.167 3.66699 133.5 11
s55.833 19.333 76.5 36c41.333 34.667 62 87 62 157s-22.5 117.833 -67.5 143.5zM997.001 458.001c0 134.667 -89.667 202 -269 202c-94 0 -153 -2.66699 -177 -8v-394c25.333 -15.333 84.5 -23 177.5 -23s161 17.333 204 52s64.5 91.667 64.5 171z" />
    <glyph glyph-name="C" unicode="C" horiz-adv-x="1306" 
d="M1212 1148c-85.333 58.667 -191 88.001 -317 88.001c-120.667 0 -219 -39.333 -295 -118c-80 -82 -120 -194.333 -120 -337c0 -154 36.333 -275.333 109 -364c76 -92.667 183.333 -139 322 -139c93.333 0 185 21.667 275 65c24 11.333 42.333 22.333 55 33l1 -312
c-93.333 -37.333 -167.833 -60 -223.5 -68s-105.834 -12 -150.501 -12c-248 0 -441.333 70 -580 210c-135.333 136.667 -203 324.667 -203 564c0 248.667 75.667 443 227 583c141.333 131.333 325.333 197 552 197c116.667 0 225.334 -14.667 326.001 -44
c24.667 -6.66699 48.667 -12.334 72 -17.001z" />
    <glyph glyph-name="D" unicode="D" horiz-adv-x="1561" 
d="M713 -16l-406.001 15.999h-134v1522h140l417 16c376 0 610 -142 702 -426c30 -92 45 -199.667 45 -323s-17.333 -235.666 -52 -336.999c-69.333 -203.333 -200.333 -341.333 -393 -414c-93.333 -36 -199.666 -54 -318.999 -54zM723.999 1263
c-56 0 -111.999 -4.33203 -167.999 -12.999v-970c36 -10 87.333 -15 154 -15s121.667 10 165 30s80.333 50.333 111 91c63.333 85.333 95 211.666 95 378.999c0 180 -30.333 309 -91 387c-56.667 74 -145.334 111 -266.001 111z" />
    <glyph glyph-name="E" unicode="E" horiz-adv-x="1270" 
d="M173 1522h962v-284h-585v-322h451v-277h-451v-348h645v-291h-1022v1522z" />
    <glyph glyph-name="F" unicode="F" horiz-adv-x="1163" 
d="M173 1522h950v-284h-570v-363h433v-283h-433v-592h-380v1522z" />
    <glyph glyph-name="G" unicode="G" horiz-adv-x="1508" 
d="M673 306.5c43.333 -25.667 102.832 -38.5 178.499 -38.5s139.834 10.667 192.501 32v266l-217 16v272h565v-768c-28 -0.666992 -61 -7.5 -99 -20.5l-97.5 -32.5c-27 -8.66699 -58.167 -16.667 -93.5 -24c-79.333 -16.667 -172.833 -25 -280.5 -25
s-207.5 17.333 -299.5 52s-170.333 84.667 -235 150c-134.667 137.333 -202 326.333 -202 567c0 351.333 129.667 587 389 707c112.667 52 245.667 78 399 78c122.667 0 239.667 -14 351 -42c28.667 -6.66699 57.334 -12.667 86.001 -18l-10 -318
c-106.667 53.333 -244 80 -412 80c-131.333 0 -233.333 -40.667 -306 -122c-72 -81.333 -108 -194 -108 -338c0 -152.667 30 -274.667 90 -366c29.333 -46 65.666 -81.833 108.999 -107.5z" />
    <glyph glyph-name="H" unicode="H" horiz-adv-x="1631" 
d="M173 1522h383v-617h522v617h380v-1522h-380v631h-522v-631h-383v1522z" />
    <glyph glyph-name="I" unicode="I" horiz-adv-x="754" 
d="M185 1522h384v-1522h-384v1522z" />
    <glyph glyph-name="J" unicode="J" horiz-adv-x="800" 
d="M621 613l1.99805 -236.002c0 -121.333 -5.83301 -211.166 -17.5 -269.499s-29.167 -107.666 -52.5 -147.999s-50.666 -76.5 -81.999 -108.5s-65.666 -59.667 -102.999 -83c-104.667 -66.667 -206.667 -100 -306 -100h-14l-83 191c60 24.667 104 49.667 132 75
c68.667 64.667 111 152 127 262c8.66699 64.667 13 202 13 412v914h384v-909z" />
    <glyph glyph-name="K" unicode="K" horiz-adv-x="1468" 
d="M173 1522h379v-641l475 641h413l-499 -656c59.333 -84 142 -215.833 248 -395.5l212 -359.5l65 -111h-427c-8.66699 13.333 -17.5 28.833 -26.5 46.5l-61.5 117.5c-74.667 140 -161.667 284.333 -261 433l-138 -165v-432h-379v1522z" />
    <glyph glyph-name="L" unicode="L" horiz-adv-x="1122" 
d="M173 1522h387v-1235h502v-287h-889v1522z" />
    <glyph glyph-name="M" unicode="M" horiz-adv-x="1982" 
d="M240 1522h513l185 -781l69 -355l55 355l164 781h499l194 -1522h-366l-70 809l-23 438l-95 -450l-204 -806h-337l-222 806l-100 450l-26 -438l-60 -809l-352 -1z" />
    <glyph glyph-name="N" unicode="N" horiz-adv-x="1631" 
d="M173 1522h356l519 -835l106 -222l-41 387v670h345v-1522h-383l-493 815l-111 230l47 -387v-658h-345v1522z" />
    <glyph glyph-name="O" unicode="O" horiz-adv-x="1603" 
d="M496 35c-268.667 109.333 -403 354.001 -403 734.001c0 127.333 19.167 240.833 57.5 340.5s89.5 180.5 153.5 242.5c130 124 311.667 186 545 186c204 0 365 -67.333 483 -202s177 -318.334 177 -551.001c0 -270 -68 -473.667 -204 -611
c-125.333 -126.667 -301 -190 -527 -190c-104.667 0 -198.667 17 -282 51zM803 263.001c209.333 0 313.999 170.333 313.999 511c0 227.333 -55.333 375.333 -166 444c-37.333 22.667 -80.166 34 -128.499 34s-92.833 -8.16699 -133.5 -24.5s-76 -43.833 -106 -82.5
c-65.333 -84 -98 -213 -98 -387c0 -232 59.333 -384.667 178 -458c40 -24.667 86.667 -37 140 -37z" />
    <glyph glyph-name="P" unicode="P" horiz-adv-x="1392" 
d="M980 476c-78 -24.667 -160.333 -36.999 -247 -36.999s-146 0.666992 -178 2v-441h-382v1522h148c70 0 139.833 2.66699 209.5 8s146.5 8 230.5 8s162.167 -9.33301 234.5 -28s133.833 -49.334 184.5 -92.001c104 -87.333 156 -226.333 156 -417
c0 -274.667 -118.667 -449.667 -356 -525zM820 1255c-30.667 11.333 -70.501 17.001 -119.501 17.001s-97.5 -3.66699 -145.5 -11v-541c56.667 -5.33301 105.667 -8 147 -8s77.333 5.16699 108 15.5s57.334 27.166 80.001 50.499c48.667 49.333 73 124.333 73 225
c0 132 -47.667 216 -143 252z" />
    <glyph glyph-name="Q" unicode="Q" horiz-adv-x="1603" 
d="M1233 -79c36 -2 82.333 -2.99902 139 -2.99902s114 9.66699 172 29v-256c-61.333 -30.667 -137.666 -46 -228.999 -46s-170 6 -236 18s-124.333 31.667 -175 59c-101.333 54 -171 142.667 -209 266c-192.667 17.333 -342.334 96 -449.001 236
c-102 134 -153 307.667 -153 521c0 269.333 70.333 471.666 211 606.999c130 124 311.667 186 545 186c204 0 365 -67.333 483 -202s177 -318.334 177 -551.001c0 -333.333 -101.667 -563.666 -305 -690.999c-62 -39.333 -131 -68 -207 -86
c39.333 -51.333 118 -80.333 236 -87zM803 263.001c209.333 0 313.999 170.333 313.999 511c0 227.333 -55.333 375.333 -166 444c-37.333 22.667 -80.166 34 -128.499 34s-92.833 -8.16699 -133.5 -24.5s-76 -43.833 -106 -82.5c-65.333 -84 -98 -213 -98 -387
c0 -232 59.333 -384.667 178 -458c40 -24.667 86.667 -37 140 -37z" />
    <glyph glyph-name="R" unicode="R" horiz-adv-x="1470" 
d="M717 542c-42.667 -2.66699 -97.334 -4.00098 -164.001 -4.00098v-538h-380v1522h131c26.667 0 55.334 0.833008 86.001 2.5l102 5.5c98 5.33301 178.667 8 242 8s117.833 -3.16699 163.5 -9.5s89.5 -16.666 131.5 -30.999s81.167 -33.5 117.5 -57.5
s68.166 -54 95.499 -90c58 -78 87 -176.333 87 -295c0 -218.667 -80.667 -364.667 -242 -438c46.667 -36.667 96 -111 148 -223l63.5 -143c21 -49.333 44.5 -96.333 70.5 -141l63 -110h-420c-12 16 -29.167 49.333 -51.5 100s-41.5 101 -57.5 151s-32.667 96.333 -50 139
s-36.666 78.167 -57.999 106.5s-47.333 43.5 -78 45.5zM715 1269c-66 0 -120 -6 -162 -18v-449c35.333 -4.66699 72 -7 110 -7h77c73.333 0 130 24.667 170 74c35.333 44 53 103.667 53 179c0 147.333 -82.667 221 -248 221z" />
    <glyph glyph-name="S" unicode="S" horiz-adv-x="1229" 
d="M177 374c72 -41.333 165.998 -70.666 281.998 -87.999c40 -6 88.333 -9 145 -9c120.667 0 181 43 181 129c0 44.667 -23 84 -69 118c-27.333 19.333 -86.333 50.666 -177 93.999s-157.667 79.666 -201 108.999s-81.333 63 -114 101c-70 82.667 -105 180.334 -105 293.001
c0 134.667 50.333 239 151 313c94.667 69.333 225.334 104 392.001 104c184.667 0 327.667 -29 429 -87l-59 -286c-52.667 41.333 -131.667 71 -237 89c-33.333 5.33301 -76.5 8 -129.5 8s-96.333 -11.667 -130 -35s-50.5 -50.5 -50.5 -81.5s5 -55.667 15 -74
s26 -36.166 48 -53.499c37.333 -30 96.333 -63.167 177 -99.5s146.834 -69.833 198.501 -100.5s95.5 -64.334 131.5 -101.001c74 -75.333 111 -169.333 111 -282c0 -138.667 -48 -248 -144 -328c-97.333 -82 -234.333 -123 -411 -123c-152.667 0 -289.667 21.333 -411 64
c-32 10.667 -55.333 20.667 -70 30z" />
    <glyph glyph-name="T" unicode="T" horiz-adv-x="1253" 
d="M435 1228h-407v294h1197v-294h-406v-1228h-384v1228z" />
    <glyph glyph-name="U" unicode="U" horiz-adv-x="1545" 
d="M1408 632c0 -432 -209.333 -648 -628 -648c-333.333 0 -536 128.667 -608 386c-22.667 80.667 -34 170 -34 268l4 884h378l-3 -837v-65.5c0 -39 5.33301 -83.667 16 -134s27 -90.833 49 -121.5c38 -53.333 102.333 -80 193 -80c88.667 0 153 28 193 84
c42.667 60 64 165.667 64 317v837h376v-890z" />
    <glyph glyph-name="V" unicode="V" horiz-adv-x="1410" 
d="M-12 1522h406l243 -769l76 -296l76 296l227 769h406l-549 -1526h-332z" />
    <glyph glyph-name="W" unicode="W" horiz-adv-x="1998" 
d="M-13 1522h382l159 -850l47 -363l55 363l201 850h347l207 -850l56 -343l45 343l158 850h367l-401 -1532h-375l-195 795l-49 318l-43 -319l-193 -794h-368z" />
    <glyph glyph-name="X" unicode="X" horiz-adv-x="1395" 
d="M463 779l-437 743l419 1l209 -383l60 -116l256 498h400l-442 -766l456 -756h-422l-213 392l-64 131l-63 -131l-206 -392h-402z" />
    <glyph glyph-name="Y" unicode="Y" horiz-adv-x="1289" 
d="M448 536l-501 986h417l226 -492l64 -170l54 170l229 492h405l-505 -988v-534h-389v536z" />
    <glyph glyph-name="Z" unicode="Z" horiz-adv-x="1302" 
d="M36 84l625 1062l67 98h-620v278h1095l41 -81l-613 -1052l-74 -105h649v-284h-1128z" />
    <glyph glyph-name="bracketleft" unicode="[" horiz-adv-x="814" 
d="M700 -187c-149.333 -18.667 -258.001 -28 -326.001 -28s-114.833 5.5 -140.5 16.5s-46.167 27.833 -61.5 50.5c-29.333 42.667 -44 114.667 -44 216v1418c0 99.333 14.667 168 44 206s82 57 158 57c86.667 0 163.334 -3.33301 230.001 -10l140 -14v-182h-251v-1555
l251 -1v-174z" />
    <glyph glyph-name="backslash" unicode="\" horiz-adv-x="862" 
d="M291.034 1599h-290.982l554.967 -1962h290.981z" />
    <glyph glyph-name="bracketright" unicode="]" horiz-adv-x="814" 
d="M107.043 -187c149.324 -18.667 257.982 -28 325.978 -28c67.9961 0 114.827 5.5 140.492 16.5s46.1641 27.833 61.4971 50.5c29.3311 42.667 43.9971 114.667 43.9971 216v1418c0 99.333 -14.666 168 -43.9971 206s-81.9941 57 -157.989 57
c-86.6611 0 -163.323 -3.33301 -229.986 -10l-139.991 -14v-182h250.984v-1555l-250.984 -1v-174z" />
    <glyph glyph-name="asciicircum" unicode="^" horiz-adv-x="1390" 
d="M575 1531h241l436 -1041h-325l-233 585l-226 -585h-330z" />
    <glyph glyph-name="underscore" unicode="_" horiz-adv-x="1700" 
d="M1736 -233v-175h-1772v175h1772z" />
    <glyph glyph-name="grave" unicode="`" horiz-adv-x="700" 
d="M483 1222c-51.333 24.667 -123.668 80 -217.001 166c-103.333 94 -170.333 176.667 -201 248l244 189c70.667 -118.667 156.334 -237 257.001 -355c31.333 -36.667 60 -66.667 86 -90z" />
    <glyph glyph-name="a" unicode="a" horiz-adv-x="1263" 
d="M775 96c-85.333 -74.667 -191.334 -112 -318.001 -112c-112 0 -202.333 34 -271 102c-67.333 68 -101 155.333 -101 262c0 67.333 18.333 125.5 55 174.5s79.5 84 128.5 105s93.333 36.167 133 45.5s79.834 16.333 120.501 21c68.667 8 146.667 12 234 12v69
c0 50 -13.333 83 -40 99c-28 16 -84 24 -168 24c-68 0 -154.333 -16 -259 -48c-31.333 -10 -59.666 -21 -84.999 -33l-75 218c82 50 198.333 87.667 349 113c50.667 8 111.167 12 181.5 12s136.833 -7.66699 199.5 -23s113.667 -40.333 153 -75
c74.667 -64.667 112 -175.667 112 -333v-745h-232c-42.667 0 -70.334 4 -83.001 12c-22.667 15.333 -34 46 -34 92v8zM466.999 362c0 -24 4.00098 -45.666 12.001 -64.999s19 -35.333 33 -48c26 -24.667 59.333 -37 100 -37c43.333 0 83.666 10.667 120.999 32
c10 5.33301 17.667 10.666 23 15.999v268c-83.333 0 -150 -11.667 -200 -35c-59.333 -22 -89 -65.667 -89 -131z" />
    <glyph glyph-name="b" unicode="b" horiz-adv-x="1381" 
d="M522 1041c84.667 76.667 191.999 114.999 321.999 114.999c129.333 0 235 -44.667 317 -134c90 -97.333 135 -234 135 -410c0 -192.667 -55 -346.667 -165 -462c-109.333 -114 -255.666 -171 -438.999 -171c-144.667 0 -290 17.667 -436 53
c-54.667 12.667 -87 23.334 -97 32.001v1597h371v-411zM529.999 261.999c20 -22.667 72.001 -33.999 156.001 -33.999c65.333 0 118.333 31.333 159 94c42.667 65.333 64 154.666 64 267.999c0 156 -38.333 248.667 -115 278c-23.333 8.66699 -46.833 13 -70.5 13
s-44.834 -1.83301 -63.501 -5.5s-36 -8.5 -52 -14.5c-32.667 -12 -58.667 -25.333 -78 -40v-559z" />
    <glyph glyph-name="c" unicode="c" horiz-adv-x="1048" 
d="M950 309l45.002 -208.998c-52.667 -52.667 -135.667 -88.334 -249 -107.001c-36 -6 -72.333 -9 -109 -9c-181.333 0 -320.333 54.667 -417 164c-90 100.667 -135 237.667 -135 411c0 176.667 46.667 317.667 140 423c102 116 248.333 174 439 174
c110 0 200.667 -12.333 272 -37c19.333 -6.66699 33.666 -13.334 42.999 -20.001l-42 -278c-54.667 31.333 -129 47 -223 47c-110 0 -186.667 -49.333 -230 -148c-16 -38 -24 -85.5 -24 -142.5s6.33301 -104.833 19 -143.5s30.667 -70.667 54 -96
c44 -46.667 109.667 -70 197 -70s160.666 13.667 219.999 41z" />
    <glyph glyph-name="d" unicode="d" horiz-adv-x="1381" 
d="M882 118c-89.333 -89.333 -204.333 -134 -345 -134c-129.333 0 -235 45 -317 135c-90 98.667 -135 236 -135 412c0 192 53 344.333 159 457c106 112 246.667 168 422 168c69.333 0 132 -9.33301 188 -28l-3 122v412h370v-1678h-284c-36.667 0 -55 18 -55 54v80zM851 868
c-28.667 21.333 -70 32 -124 32s-94.5 -7.33301 -121.5 -22s-50.167 -36.667 -69.5 -66c-42 -61.333 -63 -149 -63 -263c0 -150.667 37 -241.667 111 -273c24 -10 50.667 -15 80 -15c72.667 0 135 17.333 187 52v555z" />
    <glyph glyph-name="e" unicode="e" horiz-adv-x="1221" 
d="M455 483c14.667 -158 109.669 -237 285.002 -237c87.333 0 170.666 12 249.999 36c23.333 7.33301 42 14.666 56 21.999l57 -197c-66 -54 -167.667 -91.667 -305 -113c-46 -6.66699 -104.667 -10 -176 -10s-142.333 13.5 -213 40.5s-130 65.833 -178 116.5
c-97.333 102.667 -146 247.334 -146 434.001c0 170 50 308.333 150 415c103.333 110.667 244 166 422 166c219.333 0 365 -78.667 437 -236c27.333 -60 41.166 -133 41.499 -219s-3.5 -158.667 -11.5 -218h-669zM793.002 668c0.666992 14.667 1.00098 28.665 1.00098 41.998
c0 62.667 -10 112.834 -30 150.501s-58.333 56.5 -115 56.5c-82.667 0 -138.667 -43.667 -168 -131c-10.667 -31.333 -18.334 -70.666 -23.001 -117.999h335z" />
    <glyph glyph-name="f" unicode="f" horiz-adv-x="881" 
d="M884 1407c-31.333 16.667 -74.499 25.001 -129.499 25.001s-95.5 -14.833 -121.5 -44.5s-39 -77.834 -39 -144.501v-103h247v-243h-247v-897h-372v897h-143v216l143 27v117c0 150 47.333 262.333 142 337c78 60 178 90 300 90c85.333 0 158.666 -7.66699 219.999 -23
v-254z" />
    <glyph glyph-name="g" unicode="g" horiz-adv-x="1361" 
d="M516 429c-24 -21.333 -36.001 -47 -36.001 -77s10.667 -50.5 32 -61.5s59 -16.5 113 -16.5h226c164.667 0 284.334 -35 359.001 -105c61.333 -58 92 -138.333 92 -241c0 -142.667 -67.333 -254.667 -202 -336c-120 -72 -264.667 -108 -434 -108
c-301.333 0 -489.333 68 -564 204c-23.333 42 -35 88.5 -35 139.5s14.333 97.833 43 140.5s71.334 76.667 128.001 102c-61.333 34 -92 89.333 -92 166c0 71.333 32.667 133.333 98 186c23.333 18.667 52.666 35.667 87.999 51c-152 61.333 -228 165.333 -228 312
c0 184 100.667 299.667 302 347c65.333 15.333 140 23 224 23c166 0 294.667 -28 386 -84c55.333 46 120 69 194 69h128v-255h-184c7.33301 -30.667 11 -68.334 11 -113.001s-10.5 -89.667 -31.5 -135s-53.167 -83.666 -96.5 -114.999c-90 -66 -225.667 -99 -407 -99
c-40 0 -78 2 -114 6zM749.999 644c38.667 32 57.999 79.667 57.999 143c0 118 -57 177 -171 177c-86.667 0 -141.667 -30.333 -165 -91c-8.66699 -22.667 -13 -56 -13 -100s14.333 -81 43 -111s71.834 -45 129.501 -45s97.167 9 118.5 27zM473.998 11
c-23.333 -33.333 -35 -71.667 -35 -115c0 -96 39 -160.333 117 -193c30 -12.667 66.333 -19 109 -19s80 3 112 9s59.667 15.667 83 29c49.333 29.333 74 73 74 131c0 52 -10.333 87 -31 105c-39.333 35.333 -101.333 53 -186 53h-243z" />
    <glyph glyph-name="h" unicode="h" horiz-adv-x="1380" 
d="M159 1662h371v-428l-18 -213c68.667 58.667 152 99.667 250 123c38 9.33301 78 14 120 14c117.333 0 204.666 -35.667 261.999 -107s86 -183.333 86 -336v-715h-371v652c0 120.667 -27.333 189.667 -82 207c-16.667 5.33301 -31 8 -43 8h-28.5
c-7 0 -18.167 -1.33301 -33.5 -4s-31.333 -7 -48 -13c-37.333 -12.667 -68.666 -31.667 -93.999 -57v-793h-371v1662z" />
    <glyph glyph-name="i" unicode="i" horiz-adv-x="690" 
d="M159 1140h372v-1140h-372v1140zM348 1279c-60 0 -109 17.667 -147 53c-39.333 36.667 -59 83 -59 139s22.167 104.333 66.5 145s96.5 61 156.5 61s109 -17.667 147 -53s57 -81.333 57 -138c0 -56 -21.667 -104.667 -65 -146c-43.333 -40.667 -95.333 -61 -156 -61z" />
    <glyph glyph-name="j" unicode="j" horiz-adv-x="677" 
d="M275 -478c-54 -19.333 -117.667 -28.999 -191 -28.999s-136 8.66699 -188 26v234c22 -14.667 53.667 -22 95 -22s71.333 4.33301 90 13s33.667 23.334 45 44.001c22 41.333 33 112.666 33 213.999v1138h372v-1058c0 -310.667 -85.333 -497.334 -256 -560.001zM342 1279
c-60 0 -109 17.667 -147 53c-39.333 36.667 -59 83 -59 139s22.167 104.333 66.5 145s96.5 61 156.5 61s109 -17.667 147 -53s57 -81.333 57 -138c0 -56 -21.667 -104.667 -65 -146c-43.333 -40.667 -95.333 -61 -156 -61z" />
    <glyph glyph-name="k" unicode="k" horiz-adv-x="1287" 
d="M159 1661h371v-629l-12 -312l340 420h421l-405 -441l432 -699h-411l-260 440l-108 -117l3 -134v-189h-371v1661z" />
    <glyph glyph-name="l" unicode="l" horiz-adv-x="697" 
d="M163 1662h371v-1662h-371v1662z" />
    <glyph glyph-name="m" unicode="m" horiz-adv-x="2065" 
d="M1224 794c1.33301 -22.667 2.00195 -47.0029 2.00195 -73.0029v-721h-368v652c0 82.667 -7.83301 135.834 -23.5 159.501s-32.334 38.834 -50.001 45.501s-33 10 -46 10h-31c-7.66699 0 -19.5 -1.66699 -35.5 -5s-32 -8 -48 -14c-35.333 -12.667 -65.666 -31 -90.999 -55
v-793h-370v1140h338l9 -122c71.333 59.333 158.666 101.333 261.999 126c39.333 9.33301 80 14 122 14c131.333 0 222.333 -44 273 -132c111.333 88 238.333 132 381 132c121.333 0 211.333 -31.333 270 -94c64.667 -70 97 -185 97 -345v-719h-371v653
c0 82.667 -7.83301 135.834 -23.5 159.501s-32.334 38.667 -50.001 45s-33.167 9.5 -46.5 9.5h-24c-61.333 0 -120 -24.333 -176 -73z" />
    <glyph glyph-name="n" unicode="n" horiz-adv-x="1380" 
d="M163 1140h338l9 -122c71.333 60 160.666 102.333 267.999 127c38 8.66699 80.167 13 126.5 13s90.5 -7.16699 132.5 -21.5s77.667 -38.833 107 -73.5c57.333 -68.667 86 -183.667 86 -345v-718h-370v652c0 82.667 -10.667 139.667 -32 171c-20 29.333 -55.333 44 -106 44
h-25.5c-15 0 -39.667 -6.33301 -74 -19s-64.166 -31 -89.499 -55v-793h-370v1140z" />
    <glyph glyph-name="o" unicode="o" horiz-adv-x="1330" 
d="M138 290c-18.667 44.667 -32 91.668 -40 141.001s-12 110.666 -12 183.999s15.167 145.833 45.5 217.5s71.5 131.5 123.5 179.5c105.333 96 245.666 144 420.999 144c260 0 432.333 -102 517 -306c34 -82 51 -178.667 51 -290c0 -186 -56 -330 -168 -432
c-105.333 -96 -245.666 -144 -420.999 -144c-260 0 -432.333 102 -517 306zM471 582.001c0 -228.667 64.001 -343 192.001 -343c71.333 0 122.333 27 153 81c28.667 50 43 131.333 43 244c0 223.333 -63.333 335 -190 335c-104.667 0 -167.334 -60 -188.001 -180
c-6.66699 -39.333 -10 -85 -10 -137z" />
    <glyph glyph-name="p" unicode="p" horiz-adv-x="1384" 
d="M953.5 28c-71.667 -29.333 -146.833 -43.999 -225.5 -43.999s-146 9.33301 -202 28l4 -151v-367h-371v1646h350v-111c89.333 84.667 201 127 335 127c130.667 0 237 -44.667 319 -134c90.667 -98.667 136 -235.334 136 -410.001c0 -192 -53.667 -344.667 -161 -458
c-51.333 -54.667 -112.833 -96.667 -184.5 -126zM530.001 275.001c28.667 -27.333 80.999 -40.999 156.999 -40.999c66.667 0 119.667 30.333 159 91c42 63.333 63 151.666 63 264.999c0 152.667 -37 244.667 -111 276c-24 10 -47.833 15 -71.5 15s-44.667 -1.66699 -63 -5
s-35.5 -8 -51.5 -14c-35.333 -12 -62.666 -25.667 -81.999 -41v-546z" />
    <glyph glyph-name="q" unicode="q" horiz-adv-x="1382" 
d="M858 95c-82 -74 -188.333 -110.998 -319 -110.998c-130 0 -236 45 -318 135c-90.667 99.333 -136 236.666 -136 411.999c0 191.333 53.667 343.666 161 456.999c105.333 112 246 168 422 168c101.333 0 197 -17.333 287 -52l268 36v-1646h-370v367zM853 868.002
c-28.667 21.333 -70.002 32.001 -124.002 32.001s-94.5 -7.33301 -121.5 -22s-50.167 -36.667 -69.5 -66c-42 -61.333 -63 -149 -63 -263c0 -150.667 37 -241.667 111 -273c24 -10 47.833 -15 71.5 -15s44.334 1.5 62.001 4.5s34.834 6.83301 51.501 11.5
c34 9.33301 61.333 21.666 82 36.999v554z" />
    <glyph glyph-name="r" unicode="r" horiz-adv-x="966" 
d="M783 806c-108.667 0 -195.003 -36 -259.003 -108v-698h-371v1140h325l16 -183c38.667 92.667 111.334 154.667 218.001 186c34.667 10 72.334 15 113.001 15s67.334 -4.66699 80.001 -14v-365c-31.333 18 -72 27 -122 27z" />
    <glyph glyph-name="s" unicode="s" horiz-adv-x="1084" 
d="M143 332c42.667 -36 117.667 -65.665 225 -88.998c36.667 -8 79.667 -12 129 -12c98.667 0 148 27.667 148 83c0 40.667 -47.667 78.667 -143 114c-30.667 11.333 -68.834 24.5 -114.501 39.5s-87.167 34.167 -124.5 57.5s-67.666 49.666 -90.999 78.999
c-45.333 56.667 -68 130 -68 220c0 106 46.667 188.667 140 248c86 56 197.333 84 334 84c160 0 282.333 -23.333 367 -70l-33 -260c-44 35.333 -108 61.333 -192 78c-28 6 -64.667 9 -110 9c-97.333 0 -146.666 -26 -147.999 -78c0 -29.333 16.667 -54.333 50 -75
c30.667 -18.667 82.167 -39.5 154.5 -62.5s128.166 -45 167.499 -66s72 -45.5 98 -73.5c52.667 -54.667 79 -125.334 79 -212.001c0 -117.333 -43.667 -207.333 -131 -270c-85.333 -62 -202 -93 -350 -93c-132 0 -250.667 20.333 -356 61c-28.667 11.333 -51 22 -67 32z" />
    <glyph glyph-name="t" unicode="t" horiz-adv-x="926" 
d="M189 897h-132.001v196c86 25.333 138.333 46.833 157 64.5s31.5 33.5 38.5 47.5s13.667 28.833 20 44.5l20 49l21 52l20.5 49.5h225v-260h296v-243h-296v-406c0 -101.333 9.33301 -166.333 28 -195c10 -15.333 23.5 -25 40.5 -29s35 -6 54 -6s36.333 1.16699 52 3.5
s31.167 5.5 46.5 9.5c36 10 62 20.667 78 32l44 -206c-50 -47.333 -136 -82.333 -258 -105c-40 -7.33301 -85.667 -11 -137 -11s-98.166 7.66699 -140.499 23s-76.5 38.333 -102.5 69c-50 58.667 -75 151.667 -75 279v542z" />
    <glyph glyph-name="u" unicode="u" horiz-adv-x="1362" 
d="M145 1140h370.999v-679c0 -83.333 12.333 -140 37 -170c22.667 -27.333 60.667 -41 114 -41c47.333 0 92.333 11.667 135 35c11.333 6 20.333 12 27 18v837h371v-1156h-268c-23.333 0 -40.666 3.5 -51.999 10.5s-17 22.833 -17 47.5v48
c-62 -47.333 -144.333 -80 -247 -98c-30 -5.33301 -58.333 -8 -85 -8c-154 0 -260 46 -318 138c-45.333 70.667 -68 186.667 -68 348v670z" />
    <glyph glyph-name="v" unicode="v" horiz-adv-x="1203" 
d="M-5 1140h397l147 -497l72 -291l67 291l142 497h388l-427 -1156h-354z" />
    <glyph glyph-name="w" unicode="w" horiz-adv-x="1783" 
d="M-2 1140h361l117 -461l61 -299l69 299l135 461h333l134 -461l65 -299l60 300l108 460h344l-359 -1156h-325l-166 561l-43 214l-44 -214l-160 -561h-335z" />
    <glyph glyph-name="x" unicode="x" horiz-adv-x="1238" 
d="M407 574l-399 566h419l158 -247l45 -76l40 76l150 247h413l-404 -558l412 -582h-422l-205 328l-25 -49l-158 -279h-425z" />
    <glyph glyph-name="y" unicode="y" horiz-adv-x="1208" 
d="M121 -203c16 -6 38.5 -10.999 67.5 -14.999s52 -6 69 -6s39.667 1.83301 68 5.5s55.5 13.167 81.5 28.5c58.667 33.333 100 96.666 124 189.999h-142l-393 1140h391l164 -600l75 -313l196 913h388l-359 -1167c-74 -236 -195.333 -385.333 -364 -448
c-50.667 -21.333 -116.334 -32 -197.001 -32c-35.333 0 -71.666 2.83301 -108.999 8.5s-57.333 9.5 -60 11.5v284z" />
    <glyph glyph-name="z" unicode="z" horiz-adv-x="1110" 
d="M52 83l518 805h-450l2 252h903l35 -95l-447 -693l-66 -92h492v-260h-945z" />
    <glyph glyph-name="braceleft" unicode="{" horiz-adv-x="998" 
d="M888 -186c-82.667 -23.333 -191.333 -35.001 -326 -35.001c-77.333 0 -135.666 22.167 -174.999 66.5s-59 115.833 -59 214.5v469c0 37.333 -30.667 71 -92 101c-49.333 24 -105 39.333 -167 46v202c106 11.333 183.667 39 233 83c17.333 16 26 34.667 26 56v469
c0 141.333 44 228 132 260c29.333 10 76 15 140 15s160 -8 288 -24v-187h-247v-541c0 -62 -25.667 -111 -77 -147c-46.667 -34 -105.334 -62.667 -176.001 -86c105.333 -36.667 173.833 -72.667 205.5 -108s47.5 -75.666 47.5 -120.999v-559h247v-174z" />
    <glyph glyph-name="bar" unicode="|" horiz-adv-x="862" 
d="M287 1780h288v-1966h-288v1966z" />
    <glyph glyph-name="braceright" unicode="}" horiz-adv-x="998" 
d="M104.055 -186c82.6611 -23.333 191.321 -35.001 325.979 -35.001c77.3291 0 135.659 22.167 174.99 66.5s58.9961 115.833 58.9961 214.5v469c0 37.333 30.665 71 91.9951 101c49.3301 24 104.993 39.333 166.989 46v202c-105.993 11.333 -183.655 39 -232.985 83
c-17.333 16 -25.999 34.667 -25.999 56v469c0 141.333 -43.9971 228 -131.991 260c-29.3311 10 -75.9951 15 -139.991 15s-159.99 -8 -287.982 -24v-187h246.984v-541c0 -62 25.665 -111 76.9951 -147c46.6641 -34 105.327 -62.667 175.989 -86
c-105.327 -36.667 -173.823 -72.667 -205.488 -108s-47.4971 -75.666 -47.4971 -120.999v-559h-246.984v-174z" />
    <glyph glyph-name="asciitilde" unicode="~" horiz-adv-x="1446" 
d="M932 913c66 0 131.667 34.6689 197 104.002l127 -162c-12.667 -48.667 -49.334 -96 -110.001 -142c-71.333 -54 -148 -81 -230 -81c-77.333 0 -148 26.333 -212 79c-42 34 -75 55.667 -99 65s-48.667 14 -74 14s-47.666 -3.33301 -66.999 -10
s-36.666 -15.334 -51.999 -26.001c-18 -11.333 -44 -34 -78 -68l-144 148c13.333 46.667 50.666 95 111.999 145c74 60 151.667 90 233 90c80 0 154.333 -26 223 -78c44 -32.667 78 -53.834 102 -63.501s48 -14.5 72 -14.5z" />
    <glyph glyph-name="DEL" 
 />
    <glyph glyph-name="nonbreakingspace" unicode="&#xa0;" horiz-adv-x="678" 
 />
    <glyph glyph-name="exclamdown" unicode="&#xa1;" horiz-adv-x="669" 
d="M528.008 -435.892h-406.975l39.9971 1189.93h313.981zM541.008 1155.01c0 -61.3291 -21.3311 -114.326 -63.9951 -158.99c-44.6641 -45.3311 -97.9941 -67.9961 -159.99 -67.9961c-61.9971 0 -111.994 19.999 -149.991 59.9961
c-35.998 38.665 -53.9971 88.6621 -53.9971 149.991s21.332 114.659 63.9961 159.99s95.3271 67.9961 157.99 67.9961c60.6631 0 109.993 -19.999 147.99 -59.9971c38.665 -41.3311 57.9971 -91.6611 57.9971 -150.99z" />
    <glyph glyph-name="cent" unicode="&#xa2;" horiz-adv-x="1200" 
d="M1001 309l45.001 -209c-64 -64 -165.667 -101.667 -305 -113l-4 -203h-186l5 211c-138 24.667 -243.667 89 -317 193c-68.667 98 -103 221.667 -103 371c0 240 82.667 411 248 513c56 35.333 122.333 59.666 199 72.999l6 232h185l-5 -223
c132.667 -5.33301 219.667 -23.666 261 -54.999l-42 -278c-54.667 31.333 -129 47 -223 47c-110 0 -186.333 -49.333 -229 -148c-16.667 -38 -25 -85.5 -25 -142.5s6.33301 -104.833 19 -143.5s30.667 -70.667 54 -96c44 -46.667 109.667 -70 197 -70
s160.666 13.667 219.999 41z" />
    <glyph glyph-name="sterling" unicode="&#xa3;" horiz-adv-x="1616" 
d="M1374 630c102 -64 153.004 -156.005 153.004 -276.005c0 -174.667 -87.667 -288.667 -263 -342c-60.667 -18.667 -130.334 -28 -209.001 -28s-146.834 5.33301 -204.501 16s-109.167 22.334 -154.5 35.001l-121 35c-35.333 10.667 -68 16.334 -98 17.001
c-39.333 -39.333 -90.333 -68 -153 -86c-20.667 -6 -40.5 -9 -59.5 -9s-37.833 2.16699 -56.5 6.5s-36 11.5 -52 21.5c-35.333 24 -53 54.667 -53 92s8 67.333 24 90s36.667 42 62 58c50.667 31.333 110.667 48.333 180 51c23.333 21.333 35 101 35 239v139h-175v202h175
v136c0 152.667 48.667 275 146 367c101.333 96 242.666 144 423.999 144c149.333 0 278.666 -34.333 387.999 -103l-146 -271c-40 34 -90 58.333 -150 73c-22 5.33301 -47 8 -75 8s-55.333 -2.83301 -82 -8.5s-49.667 -18.167 -69 -37.5
c-41.333 -41.333 -62 -119.666 -62 -234.999v-73h292v-202h-292v-116c0 -144 -33 -243.667 -99 -299c23.333 -5.33301 46 -11.166 68 -17.499s44.333 -11.833 67 -16.5c52.667 -12 109 -18 169 -18s107.667 13.167 143 39.5s53 61.5 53 105.5c0 46 -14.667 85.667 -44 119
c-8 8.66699 -15.667 15.334 -23 20.001z" />
    <glyph glyph-name="currency" unicode="&#xa4;" horiz-adv-x="1565" 
d="M1000 367c-70.667 -36.667 -144.667 -55.0029 -222 -55.0029s-149 18.333 -215 55l-200 -205l-150 157l190 194c-52 77.333 -78 163.333 -78 258s25.667 181.334 77 260.001l-187 194l148 160l199 -207c68.667 38 141.667 57 219 57c78 0 152.333 -19.333 223 -58
l217 219l150 -161l-207 -209c50 -77.333 75 -162.666 75 -255.999s-26 -178.666 -78 -255.999l190 -196l-148 -158zM579 772.997c0 -56.667 19.667 -104.999 59 -144.999c39.333 -41.333 87.666 -62 144.999 -62s105.333 20.667 144 62c38 40 57 88.333 57 145
c0 57.333 -19 105.666 -57 144.999c-39.333 40.667 -87.333 61 -144 61c-57.333 0 -105.666 -20.333 -144.999 -61c-39.333 -40 -59 -88.333 -59 -145z" />
    <glyph glyph-name="yen" unicode="&#xa5;" horiz-adv-x="1579" 
d="M264 460h354v182h-354v209h290l-424 671h397l200 -365l74 -165l74 164l204 366h392l-424 -671h258v-209h-344v-182h344v-209h-344v-251h-343v251h-354v209z" />
    <glyph glyph-name="brokenbar" unicode="&#xa6;" horiz-adv-x="862" 
d="M287 1780h288v-807h-288v807zM287 605h288v-791h-288v791z" />
    <glyph glyph-name="section" unicode="&#xa7;" horiz-adv-x="1404" 
d="M1091 410c58 -62.667 86.998 -139.334 86.998 -230.001c0 -123.333 -51.333 -218.333 -154 -285c-90.667 -58.667 -203 -88 -337 -88c-136 0 -255 20.333 -357 61c-27.333 10.667 -49 21.334 -65 32.001l50 267c54 -42.667 128.333 -72.334 223 -89.001
c36 -6.66699 70.833 -10 104.5 -10s61.5 2.16699 83.5 6.5s41.333 10.833 58 19.5c34.667 18.667 52 46.667 52 84c0 20.667 -9.5 38.834 -28.5 54.501s-44 30.667 -75 45s-66.167 28.5 -105.5 42.5s-79.666 29.667 -120.999 47s-81.666 37.166 -120.999 59.499
s-74.333 48.833 -105 79.5c-69.333 67.333 -104 149.333 -104 246c0 116 62.667 219.667 188 311c-82.667 72 -124 159.667 -124 263c0 113.333 50 201.333 150 264c87.333 55.333 197 83 329 83c166 0 292 -24.333 378 -73l-50 -267c-74 55.333 -170 83 -288 83
s-177 -34.667 -177 -104c0 -36.667 34 -72.667 102 -108c30.667 -15.333 65.5 -31.166 104.5 -47.499s79 -34 120 -53s81 -40.5 120 -64.5s73.833 -51.667 104.5 -83c68 -70.667 102 -157.167 102 -259.5s-48 -197.833 -144 -286.5zM527.998 958
c-34 -52 -51.001 -93.332 -51.001 -123.999s6.16699 -56.5 18.5 -77.5s29.333 -39.833 51 -56.5s46.834 -31.834 75.501 -45.501s59.334 -27 92.001 -40l100.5 -39.5c34.333 -13.333 68.166 -28 101.499 -44c18 42 27 80 27 114s-12.5 65.833 -37.5 95.5
s-57.333 56.5 -97 80.5s-84.167 46.667 -133.5 68s-98.333 44.333 -147 69z" />
    <glyph glyph-name="dieresis" unicode="&#xa8;" horiz-adv-x="1034" 
d="M770 1281c-28.667 0 -54.667 4.66602 -78 13.999s-43.333 22.333 -60 39c-34.667 36 -52 81.667 -52 137c0 56.667 20 104.334 60 143.001c41.333 40.667 90 61 146 61c56.667 0 102 -17.667 136 -53c33.333 -34 50 -79.333 50 -136c0 -56 -19.333 -104 -58 -144
c-40 -40.667 -88 -61 -144 -61zM252 1281c-28.667 0 -54.666 4.66699 -77.999 14s-43.333 22.333 -60 39c-34.667 36 -52 81.667 -52 137c0 56 20.333 103.667 61 143c41.333 40.667 89.666 61 144.999 61c88 0 146 -37.333 174 -112c8.66699 -23.333 13 -49 13 -77
c0 -56 -19.667 -104 -59 -144c-39.333 -40.667 -87.333 -61 -144 -61z" />
    <glyph glyph-name="copyright" unicode="&#xa9;" horiz-adv-x="2091" 
d="M175 962c0 81.333 10.167 159.5 30.5 234.5s49.333 144.833 87 209.5s82.834 123.5 135.501 176.5s111.334 98.5 176.001 136.5c134 79.333 281 119 441 119c159.333 0 306.666 -39.667 441.999 -119c202 -118.667 334.667 -293 398 -523
c20.667 -74.667 31 -152.5 31 -233.5s-10.333 -159 -31 -234s-49.667 -145 -87 -210s-82.333 -124.167 -135 -177.5s-111.334 -99 -176.001 -137c-136 -80 -283.333 -120 -442 -120s-305.667 40 -441 120c-130.667 77.333 -234.667 182 -312 314
c-78 135.333 -117 283.333 -117 444zM317 962c0 -68.667 8.33105 -134.83 24.998 -198.497s40.334 -123.334 71.001 -179.001s67.667 -106.334 111 -152.001s92 -84.5 146 -116.5c114 -68.667 239 -103 375 -103s261 34.333 375 103c108 64.667 193.667 154 257 268
c64 116.667 96 243 96 379c0 207.333 -69 383.666 -207 528.999c-87.333 92.667 -194.666 157 -321.999 193c-62.667 18 -129 27 -199 27c-136 0 -261 -34 -375 -102c-108 -64.667 -193.667 -154.334 -257 -269.001c-64 -115.333 -96 -241.666 -96 -378.999zM1324 747.004
l43.999 -173.001c-53.333 -46 -126.666 -77.333 -219.999 -94c-32 -6 -73.5 -9 -124.5 -9s-104.167 13 -159.5 39s-102.666 61.333 -141.999 106c-82 92 -123 204.667 -123 338v7c0 144.667 41.667 261.334 125 350.001c89.333 96 212.666 144 369.999 144
c75.333 0 146.333 -12.333 213 -37c17.333 -6 31 -12 41 -18l-37 -205c-53.333 36.667 -124.333 55 -213 55c-72.667 0 -132 -23.667 -178 -71c-46.667 -48 -70 -110.333 -70 -187v-45c0 -27.333 6 -60 18 -98s29.333 -69.333 52 -94c42.667 -47.333 106.167 -71 190.5 -71
s155.5 21 213.5 63z" />
    <glyph glyph-name="ordfeminine" unicode="&#xaa;" horiz-adv-x="1079" 
d="M498 674c-28 -6.66699 -61.001 -9.99902 -99.001 -9.99902s-75.5 6.66699 -112.5 20s-68.5 32.333 -94.5 57c-53.333 50.667 -80 119 -80 205c0 96 40 172 120 228c57.333 40 128.5 66.333 213.5 79s158.167 19 219.5 19v37c0 43.333 -12 72.666 -36 87.999
c-23.333 14.667 -56.166 22 -98.499 22s-78.833 -2.33301 -109.5 -7s-61 -10.667 -91 -18c-67.333 -18 -112 -34.667 -134 -50l-57 175c22 20 64 39.333 126 58c115.333 34.667 209.5 52 282.5 52s135.333 -5.5 187 -16.5s94.5 -29.167 128.5 -54.5
c68 -49.333 102 -131.666 102 -246.999v-641h-168c-47.333 0 -76.333 2.33301 -87 7c-22 9.33301 -33 32.333 -33 69v14c-31.333 -36.667 -91 -65.334 -179 -86.001zM664.999 905.001v215c-86.667 0 -151 -11.333 -193 -34c-44 -26.667 -66 -66 -66 -118
c0 -29.333 8.33301 -51 25 -65c28.667 -24 65.667 -36 111 -36s86.333 12.667 123 38z" />
    <glyph glyph-name="guillemotleft" unicode="&#xab;" horiz-adv-x="2028" 
d="M221 757l664 417l86 -253l-396 -306l396 -306l-86 -253l-664 417v284zM1038 757l664 417l86 -253l-396 -306l396 -306l-86 -253l-664 417v284z" />
    <glyph glyph-name="logicalnot" unicode="&#xac;" horiz-adv-x="1478" 
d="M244 852h990v-553h-272v305h-718v248z" />
    <glyph glyph-name="registered" unicode="&#xae;" horiz-adv-x="2091" 
d="M171 962c0 80.667 10.3311 158.501 30.998 233.501s49.834 144.833 87.501 209.5s83 123.667 136 177s111.833 99 176.5 137c136 79.333 283.667 119 443 119c160 0 307.667 -39.667 443 -119c130.667 -76.667 235 -181.334 313 -314.001
c79.333 -135.333 119 -283 119 -443c0 -160.667 -39.667 -308.667 -119 -444c-77.333 -132.667 -181.666 -237.667 -312.999 -315c-136 -80 -283.667 -120 -443 -120c-158 0 -305.667 40 -443 120c-131.333 77.333 -235.333 182.333 -312 315c-79.333 136 -119 284 -119 444
zM312.998 962.001c0 -208 70 -384.669 210 -530.002c140.667 -146 314.667 -219 522 -219s381.333 73 522 219c88.667 92.667 150.334 202.667 185.001 330c16.667 64 25 130.5 25 199.5s-8.5 135.333 -25.5 199s-41 123.334 -72 179.001s-68.5 106.167 -112.5 151.5
s-93 84.333 -147 117c-113.333 68 -238.333 102 -375 102c-206 0 -380 -73 -522 -219c-88.667 -91.333 -150.334 -201.666 -185.001 -330.999c-16.667 -63.333 -25 -129.333 -25 -198zM1016 834.999l-42.002 -1h-49v-348h-225v963h97l264 6
c118.667 0 210.334 -26.333 275.001 -79c61.333 -48.667 92 -114.334 92 -197.001c0 -175.333 -64.667 -281.666 -194 -318.999c53.333 -30.667 104 -97 152 -199c32.667 -68 68 -126 106 -174h-255c-10.667 11.333 -19.167 24 -25.5 38s-14.333 30.5 -24 49.5
s-19.667 41.5 -30 67.5s-22.166 51.667 -35.499 77c-30.667 60 -66 98.667 -106 116zM1202 1150c0 93.333 -53.667 140 -161 140c-55.333 0 -94 -3.66699 -116 -11v-281c20.667 -4.66699 60.667 -7 120 -7c104.667 0 157 53 157 159z" />
    <glyph glyph-name="macron" unicode="&#xaf;" horiz-adv-x="725" 
d="M53 1642h619v-238h-619v238z" />
    <glyph glyph-name="degree" unicode="&#xb0;" horiz-adv-x="977" 
d="M490 908c-54.667 0 -104.833 9.49902 -150.5 28.499s-85.5 45.167 -119.5 78.5c-72 71.333 -108 159 -108 263c0 105.333 35.667 193.333 107 264c71.333 70 161 105 269 105c108.667 0 198.667 -35.667 270 -107s107 -158.666 107 -261.999
c0 -106.667 -35.333 -194.667 -106 -264c-71.333 -70.667 -161 -106 -269 -106zM425.501 1119.5c19.667 -8.33301 40.666 -12.498 62.999 -12.498s43.5 4 63.5 12s37.333 19.667 52 35c32.667 32 49 73.333 49 124c0 49.333 -16.333 90.666 -49 123.999
c-31.333 30.667 -70 46 -116 46c-73.333 0 -123.666 -33.333 -150.999 -100c-8.66699 -20.667 -13 -43.834 -13 -69.501s4.5 -49 13.5 -70s21 -39 36 -54s32.333 -26.667 52 -35z" />
    <glyph glyph-name="plusminus" unicode="&#xb1;" horiz-adv-x="1401" 
d="M233 233h921v-233h-921v233zM560 440l6 205l-160 -5h-218v271h218l160 -5l-6 203v200h279v-200l-6 -203l157 5h222v-271h-222l-157 5l6 -205v-193h-279v193z" />
    <glyph glyph-name="twosuperior" unicode="&#xb2;" horiz-adv-x="1252" 
d="M1029 1417c0 -180.667 -134.001 -347 -402.001 -499l454 24v-262h-875l-40 170c108.667 54 213.334 123.667 314.001 209c131.333 111.333 197 210.333 197 297c0 94 -50 141 -150 141s-187.667 -48.667 -263 -146l-131 172c64.667 91.333 167.667 155.333 309 192
c51.333 13.333 111.333 20 180 20s129.667 -9.66699 183 -29s96.333 -44.333 129 -75c63.333 -58.667 95 -130 95 -214z" />
    <glyph glyph-name="threesuperior" unicode="&#xb3;" horiz-adv-x="1262" 
d="M561 1507c-60 0 -125.335 -15 -196.002 -45c-24 -10.667 -46.333 -23 -67 -37l-69 189c57.333 48.667 150 83.334 278 104.001c38.667 6.66699 84.834 10 138.501 10s106.334 -7 158.001 -21s93.834 -33 126.501 -57c64.667 -46 97 -106 97 -180
c0 -54 -13.5 -102.667 -40.5 -146s-73.833 -82.333 -140.5 -117c114.667 -18 189 -71 223 -159c10.667 -28 16 -62.667 16 -104s-10 -84 -30 -128s-50.333 -82.333 -91 -115c-88 -70 -215 -105 -381 -105c-96.667 0 -183 11.333 -259 34l-58 18l-1 210
c101.333 -25.333 192 -37.833 272 -37.5s138 13.5 174 39.5s54 58.667 54 98c0 60.667 -48.333 100 -145 118l-178 -28l-23 208c71.333 6.66699 127.666 16 168.999 28c91.333 26.667 137 70.167 137 130.5s-54.667 91.166 -164 92.499z" />
    <glyph glyph-name="acute" unicode="&#xb4;" horiz-adv-x="700" 
d="M37 1396c123.333 123.333 236.333 266.332 339 428.999l243 -189c-38.667 -91.333 -131 -194.666 -277 -309.999c-52 -40.667 -96 -70 -132 -88z" />
    <glyph glyph-name="mu" unicode="&#xb5;" horiz-adv-x="1407" 
d="M664 -16c-94 0 -163.332 20.001 -207.999 60.001l29 -415h-335v1511h370v-650c0 -82 13.333 -141.5 40 -178.5s70.667 -55.5 132 -55.5s111.333 18 150 54v830h370v-825c0 -50.667 16.333 -76 49 -76c27.333 0 55.666 9 84.999 27l31 -179
c-11.333 -18.667 -34.333 -36.334 -69 -53.001c-72 -34.667 -142.667 -52 -212 -52c-112 0 -173 46 -183 138c-47.333 -90.667 -130.333 -136 -249 -136z" />
    <glyph glyph-name="paragraph" unicode="&#xb6;" horiz-adv-x="1439" 
d="M658 1711l591.999 -19.999v-1691h-284l-1 1496h-200v-1496h-283v777c-205.333 0 -339.333 85.667 -402 257c-21.333 59.333 -32 128 -32 206s12 145.667 36 203s60.667 105.666 110 144.999c102.667 82 257.334 123 464.001 123z" />
    <glyph glyph-name="periodcentered" unicode="&#xb7;" horiz-adv-x="669" 
d="M120 779c0 60 21.667 113.001 65 159.001c43.333 45.333 96.333 68 159 68c62 0 112 -20 150 -60c36 -38.667 54 -88.667 54 -150c0 -62 -21 -115.333 -63 -160c-43.333 -45.333 -96 -68 -158 -68c-61.333 0 -111 20 -149 60c-38.667 41.333 -58 91.666 -58 150.999z" />
    <glyph glyph-name="cedilla" unicode="&#xb8;" horiz-adv-x="529" 
d="M206 30l161 4l52 -4c44 -38.667 66 -120.667 66 -246c-1.33301 -82 -27.666 -144.667 -78.999 -188c-46.667 -40 -108.667 -60 -186 -60c-54.667 0 -98.5 3.66699 -131.5 11s-52.833 13 -59.5 17l23 181c15.333 -9.33301 39.666 -14 72.999 -14s61 12.333 83 37
c23.333 26 35 66.333 35 121s-12.333 101.667 -37 141z" />
    <glyph glyph-name="onesuperior" unicode="&#xb9;" horiz-adv-x="1081" 
d="M393 1376c-52 -16.667 -114.667 -31 -188 -43l-40 197c110 32 226.667 85 350 159c16.667 10 29 18.333 37 25l174 -25v-1009h-333v696z" />
    <glyph glyph-name="ordmasculine" unicode="&#xba;" horiz-adv-x="1077" 
d="M518 663c-67.333 0 -130 11.667 -188 35c-116.667 47.333 -195.334 133.333 -236.001 258c-19.333 59.333 -29 125 -29 197c0 161.333 53.333 285 160 371c88.667 72 198.334 108 329.001 108c142.667 0 254 -46 334 -138c74 -85.333 111 -199 111 -341
c0 -167.333 -49.667 -294 -149 -380c-84 -73.333 -194.667 -110 -332 -110zM547 1409c-118 0 -177 -83 -177 -249c0 -132 32.667 -217.333 98 -256c20 -12.667 37.167 -19 51.5 -19h23.5c101.333 1.33301 152 85.333 152 252c0 84.667 -12.667 151.167 -38 199.5
s-62 72.5 -110 72.5z" />
    <glyph glyph-name="guillemotright" unicode="&#xbb;" horiz-adv-x="2028" 
d="M984.014 757l-663.96 417l-85.9941 -253l395.976 -306l-395.976 -306l85.9941 -253l663.96 417v284zM1800.01 757l-663.96 417l-85.9941 -253l395.976 -306l-395.976 -306l85.9941 -253l663.96 417v284z" />
    <glyph glyph-name="onequarter" unicode="&#xbc;" horiz-adv-x="2583" 
d="M1369 282l473 909h69l240 -103l-379 -610l-43 -75h265l28 272h270v-272h152v-215h-152v-265h-300l1 265h-571zM1312 1530h266l-542 -1530h-263zM431 1376c-52 -16.667 -114.667 -31 -188 -43l-40 197c110 32 226.667 85 350 159c16.667 10 29 18.333 37 25l174 -25v-1009
h-333v696z" />
    <glyph glyph-name="onehalf" unicode="&#xbd;" horiz-adv-x="2583" 
d="M2373 728c0 -180.667 -134.002 -347 -402.002 -499l454 24v-262h-875l-40 170c108.667 54 213.334 123.667 314.001 209c131.333 111.333 197 210.333 197 297c0 94 -50 141 -150 141s-187.667 -48.667 -263 -146l-131 172c64.667 91.333 167.667 155.333 309 192
c51.333 13.333 111.333 20 180 20s129.667 -9.66699 183.001 -29c53.333 -19.333 96.333 -44.333 129 -75c63.333 -58.667 95 -130 95 -214zM431.998 1376c-52 -16.667 -114.667 -31 -188 -43l-40 197c110 32 226.667 85 350 159c16.667 10 29 18.333 37 25l174 -25v-1009
h-333v696zM1312 1530h266l-542 -1530h-263z" />
    <glyph glyph-name="threequarters" unicode="&#xbe;" horiz-adv-x="2583" 
d="M1369 282l473 909h69l240 -103l-379 -610l-43 -75h265l28 272h270v-272h152v-215h-152v-265h-300l1 265h-571zM440 1507c-60 0 -125.335 -15 -196.002 -45c-24 -10.667 -46.333 -23 -67 -37l-69 189c57.333 48.667 150 83.334 278 104.001
c38.667 6.66699 84.834 10 138.501 10s106.334 -7 158.001 -21s93.834 -33 126.501 -57c64.667 -46 97 -106 97 -180c0 -54 -13.5 -102.667 -40.5 -146s-73.833 -82.333 -140.5 -117c114.667 -18 189 -71 223 -159c10.667 -28 16 -62.667 16 -104s-10 -84 -30 -128
s-50.333 -82.333 -91 -115c-88 -70 -215 -105 -381 -105c-96.667 0 -183 11.333 -259 34l-58 18l-1 210c101.333 -25.333 192 -37.833 272 -37.5s138 13.5 174 39.5s54 58.667 54 98c0 60.667 -48.333 100 -145 118l-178 -28l-23 208c71.333 6.66699 127.666 16 168.999 28
c91.333 26.667 137 70.167 137 130.5s-54.667 91.166 -164 92.499zM1312 1530h266l-542 -1530h-263z" />
    <glyph glyph-name="questiondown" unicode="&#xbf;" horiz-adv-x="1063" 
d="M715.021 -39.9043c83.9951 0 162.657 15.999 235.986 47.9971v-267.983c-42.6641 -27.332 -119.326 -46.3311 -229.986 -56.9971c-33.998 -3.33301 -83.4951 -5 -148.491 -5s-133.825 10.333 -206.487 30.999c-213.987 60.6631 -320.98 191.655 -320.98 392.977
c0 129.992 44.6641 235.652 133.992 316.98c25.998 23.332 52.3301 45.4971 78.9951 66.4961l78.9951 62.4961c25.999 20.665 49.3311 42.9971 69.9961 66.9961c49.3301 56.6631 73.9951 123.659 73.9951 200.987c0 23.999 -3.66602 49.3311 -10.999 75.9961
l-25.999 96.9932h283.983c49.3301 -81.9951 73.9951 -165.99 73.9951 -251.985c0 -100.66 -37.6641 -187.654 -112.993 -260.983c-21.332 -20.665 -43.1641 -40.6641 -65.4961 -59.9971l-65.9961 -57.4961c-21.665 -18.999 -41.1641 -39.1641 -58.4961 -60.4961
c-37.3311 -47.3311 -55.9971 -98.3281 -55.9971 -152.991c0 -123.325 90.6611 -184.988 271.983 -184.988zM773.018 1346.01c0 -57.3301 -21.332 -107.66 -63.9961 -150.991c-41.9971 -43.3301 -92.9941 -64.9951 -152.991 -64.9951
c-90.6611 0 -151.657 39.9971 -182.988 119.992c-9.99902 24.665 -14.999 51.3301 -14.999 79.9951c0 57.9971 20.665 108.327 61.9961 150.991c41.9971 43.3311 92.9941 64.9961 152.99 64.9961c58.6631 0 106.66 -18.999 143.991 -56.9971
c37.3311 -38.6641 55.9971 -86.3281 55.9971 -142.991z" />
    <glyph glyph-name="Agrave" unicode="&#xc0;" horiz-adv-x="1460" 
d="M511 1532h434l534 -1532h-404l-84 284h-531l-80 -284h-399zM912 550l-141 477l-50 197l-51 -197l-135 -477h377zM706 1534c-42.667 14 -101.333 56.001 -176 126.001c-75.333 71.333 -133 137.333 -173 198l262 130c18.667 -52.667 95 -149.334 229 -290.001l31 -32z" />
    <glyph glyph-name="Aacute" unicode="&#xc1;" horiz-adv-x="1460" 
d="M511 1532h434l534 -1532h-404l-84 284h-531l-80 -284h-399zM912 550l-141 477l-50 197l-51 -197l-135 -477h377zM586 1666c108 108 185.999 199.333 233.999 274c12.667 18.667 21.334 34.667 26.001 48l262 -130c-60.667 -89.333 -140 -174.333 -238 -255
c-44 -36.667 -81 -59.667 -111 -69z" />
    <glyph glyph-name="Acircumflex" unicode="&#xc2;" horiz-adv-x="1460" 
d="M511 1532h434l534 -1532h-404l-84 284h-531l-80 -284h-399zM912 550l-141 477l-50 197l-51 -197l-135 -477h377zM330 1656l284 308h234l285 -306l-178 -116l-224 193l-223 -193z" />
    <glyph glyph-name="Atilde" unicode="&#xc3;" horiz-adv-x="1460" 
d="M511 1532h434l534 -1532h-404l-84 284h-531l-80 -284h-399zM912 550l-141 477l-50 197l-51 -197l-135 -477h377zM283 1731c18 63.333 52.6631 116.331 103.996 158.998c59.333 48.667 127.333 73 204 73c54 0 94.667 -8.16699 122 -24.5s47.5 -30 60.5 -41l37.5 -31.5
c28 -22.667 53.667 -34 77 -34s43 3.33301 59 10s31 15.334 45 26.001c26.667 19.333 49.334 42.333 68.001 69l127 -136c-17.333 -64 -51.333 -117.667 -102 -161c-56.667 -50 -122.667 -75 -198 -75c-51.333 0 -90.833 8.33301 -118.5 25s-48.167 30.667 -61.5 42
s-26.666 22 -39.999 32c-31.333 23.333 -58.666 35 -81.999 35s-42.666 -3.16699 -57.999 -9.5s-30 -14.166 -44 -23.499c-24.667 -18 -47 -40.333 -67 -67z" />
    <glyph glyph-name="Adieresis" unicode="&#xc4;" horiz-adv-x="1460" 
d="M511 1532h434l534 -1532h-404l-84 284h-531l-80 -284h-399zM912 550l-141 477l-50 197l-51 -197l-135 -477h377zM997 1582c-56.667 0 -102.666 16.999 -137.999 50.999s-53 78.333 -53 133c0 54 20.333 100.667 61 140c40 38.667 89.167 58 147.5 58
s104.166 -16.667 137.499 -50s50 -77.666 50 -132.999c0 -56 -19.667 -103 -59 -141c-40 -38.667 -88.667 -58 -146 -58zM456.001 1582c-56.667 0 -102.667 16.999 -138 50.999s-53 78.333 -53 133c0 54 20.333 100.667 61 140c40 38.667 89 58 147 58
s103.833 -16.667 137.5 -50s50.5 -77.666 50.5 -132.999c0 -56 -19.667 -103 -59 -141c-40 -38.667 -88.667 -58 -146 -58z" />
    <glyph glyph-name="Aring" unicode="&#xc5;" horiz-adv-x="1460" 
d="M1090 1688c-1.33301 -104 -41 -181.332 -119 -231.999l508 -1456h-404l-84 284h-531l-80 -284h-399l502 1451c-80 50.667 -120 128.667 -120 234c0 104.667 39.667 182 119 232c64 40 147.333 60 250 60c174 0 285.333 -53.667 334 -161
c16 -36.667 24 -79.334 24 -128.001zM612.5 1595.5c29.667 -21.667 62 -32.499 97 -32.499s62.333 1.33301 82 4s36.5 8.33398 50.5 17.001c29.333 18 44 51.667 44 101c0 63.333 -32 103.666 -96 120.999c-20 5.33301 -40.833 8 -62.5 8s-42 -1.5 -61 -4.5
s-35.833 -8.83301 -50.5 -17.5c-32 -20 -48 -52.333 -48 -97s14.833 -77.834 44.5 -99.501zM912 550.002l-141 477l-50 197l-51 -197l-135 -477h377z" />
    <glyph glyph-name="AE" unicode="&#xc6;" horiz-adv-x="1970" 
d="M602 1522h1220v-284h-578v-319h444v-277h-444v-351h639v-291h-1017v318h-438l-137 -318h-410zM866 579v755l-326 -755h326z" />
    <glyph glyph-name="Ccedilla" unicode="&#xc7;" horiz-adv-x="1306" 
d="M537 -255c15.333 -9.33301 39.665 -13.999 72.998 -13.999s61.333 12.333 84 37c22.667 26 34 67.667 34 125c0 38 -6 72 -18 102c-199.333 29.333 -354 111.333 -464 246c-107.333 132.667 -161 305 -161 517c0 248.667 75.667 443 227 583
c141.333 131.333 325.333 197 552 197c116.667 0 225.334 -14.667 326.001 -44c24.667 -6.66699 48.667 -12.334 72 -17.001l-50 -329c-85.333 58.667 -191 88 -317 88c-120.667 0 -219 -39.333 -295 -118c-80 -82 -120 -194.333 -120 -337c0 -154 36.333 -275.333 109 -364
c76 -92.667 183.333 -139 322 -139c93.333 0 185 21.667 275 65c24 11.333 42.333 22.333 55 33l1 -312c-105.333 -44.667 -207.666 -70.667 -306.999 -78c23.333 -52 34.833 -109.333 34.5 -172s-7.5 -109.667 -21.5 -141s-33 -57 -57 -77
c-46.667 -40 -108.667 -60 -186 -60c-54.667 0 -98.5 3.66699 -131.5 11s-52.833 13 -59.5 17z" />
    <glyph glyph-name="Egrave" unicode="&#xc8;" horiz-adv-x="1270" 
d="M676 1534c-42.667 14 -101.333 56.001 -176 126.001c-75.333 71.333 -133 137.333 -173 198l262 130c18.667 -52.667 95 -149.334 229 -290.001l31 -32zM173.001 1522h962v-284h-585v-322h451v-277h-451v-348h645v-291h-1022v1522z" />
    <glyph glyph-name="Eacute" unicode="&#xc9;" horiz-adv-x="1270" 
d="M555 1666c108 108 185.999 199.333 233.999 274c12.667 18.667 21.334 34.667 26.001 48l262 -130c-60.667 -89.333 -140 -174.333 -238 -255c-44 -36.667 -81 -59.667 -111 -69zM172.999 1522h962v-284h-585v-322h451v-277h-451v-348h645v-291h-1022v1522z" />
    <glyph glyph-name="Ecircumflex" unicode="&#xca;" horiz-adv-x="1270" 
d="M173 1522h962v-284h-585v-322h451v-277h-451v-348h645v-291h-1022v1522zM300 1656l284 308h234l285 -306l-178 -116l-224 193l-223 -193z" />
    <glyph glyph-name="Edieresis" unicode="&#xcb;" horiz-adv-x="1270" 
d="M967 1582c-56.667 0 -102.666 16.999 -137.999 50.999s-53 78.333 -53 133c0 54 20.333 100.667 61 140c40 38.667 89.167 58 147.5 58s104.166 -16.667 137.499 -50s50 -77.666 50 -132.999c0 -56 -19.667 -103 -59 -141c-40 -38.667 -88.667 -58 -146 -58z
M426.001 1582c-56.667 0 -102.667 16.999 -138 50.999s-53 78.333 -53 133c0 54 20.333 100.667 61 140c40 38.667 89 58 147 58s103.833 -16.667 137.5 -50s50.5 -77.666 50.5 -132.999c0 -56 -19.667 -103 -59 -141c-40 -38.667 -88.667 -58 -146 -58zM173.001 1522h962
v-284h-585v-322h451v-277h-451v-348h645v-291h-1022v1522z" />
    <glyph glyph-name="Igrave" unicode="&#xcc;" horiz-adv-x="754" 
d="M185 1522h384v-1522h-384v1522zM353 1534c-42.667 14 -101.333 56.001 -176 126.001c-75.333 71.333 -133 137.333 -173 198l262 130c18.667 -52.667 95 -149.334 229 -290.001l31 -32z" />
    <glyph glyph-name="Iacute" unicode="&#xcd;" horiz-adv-x="754" 
d="M185 1522h384v-1522h-384v1522zM231 1666c108 108 185.999 199.333 233.999 274c12.667 18.667 21.334 34.667 26.001 48l262 -130c-60.667 -89.333 -140 -174.333 -238 -255c-44 -36.667 -81 -59.667 -111 -69z" />
    <glyph glyph-name="Icircumflex" unicode="&#xce;" horiz-adv-x="754" 
d="M185 1522h384v-1522h-384v1522zM-23 1656l284 308h234l285 -306l-178 -116l-224 193l-223 -193z" />
    <glyph glyph-name="Idieresis" unicode="&#xcf;" horiz-adv-x="754" 
d="M185 1522h384v-1522h-384v1522zM644 1582c-56.667 0 -102.666 16.999 -137.999 50.999s-53 78.333 -53 133c0 54 20.333 100.667 61 140c40 38.667 89.167 58 147.5 58s104.166 -16.667 137.499 -50s50 -77.666 50 -132.999c0 -56 -19.667 -103 -59 -141
c-40 -38.667 -88.667 -58 -146 -58zM103.001 1582c-56.667 0 -102.667 16.999 -138 50.999s-53 78.333 -53 133c0 54 20.333 100.667 61 140c40 38.667 89 58 147 58s103.833 -16.667 137.5 -50s50.5 -77.666 50.5 -132.999c0 -56 -19.667 -103 -59 -141
c-40 -38.667 -88.667 -58 -146 -58z" />
    <glyph glyph-name="Eth" unicode="&#xd0;" horiz-adv-x="1561" 
d="M713 -16l-406.001 15.999h-134v675h-113v238h113v609h140l417 16c376 0 610 -142 702 -426c30 -92 45 -199.667 45 -323s-17.333 -235.666 -52 -336.999c-69.333 -203.333 -200.333 -341.333 -393 -414c-93.333 -36 -199.666 -54 -318.999 -54zM723.999 1263
c-56 0 -111.999 -4.33203 -167.999 -12.999v-337h294v-238h-294v-395c36 -10 87.333 -15 154 -15s121.667 10 165 30s80.333 50.333 111 91c63.333 85.333 95 211.666 95 378.999c0 180 -30.333 309 -91 387c-56.667 74 -145.334 111 -266.001 111z" />
    <glyph glyph-name="Ntilde" unicode="&#xd1;" horiz-adv-x="1632" 
d="M374 1731c18 63.333 52.6631 116.331 103.996 158.998c59.333 48.667 127.333 73 204 73c54 0 94.667 -8.16699 122 -24.5s47.5 -30 60.5 -41l37.5 -31.5c28 -22.667 53.667 -34 77 -34s43 3.33301 59 10s31 15.334 45 26.001c26.667 19.333 49.334 42.333 68.001 69
l127 -136c-17.333 -64 -51.333 -117.667 -102 -161c-56.667 -50 -122.667 -75 -198 -75c-51.333 0 -90.833 8.33301 -118.5 25s-48.167 30.667 -61.5 42s-26.666 22 -39.999 32c-31.333 23.333 -58.666 35 -81.999 35s-42.666 -3.16699 -57.999 -9.5
s-30 -14.166 -44 -23.499c-24.667 -18 -47 -40.333 -67 -67zM172.996 1522h356l519 -835l106 -222l-41 387v670h345v-1522h-383l-493 815l-111 230l47 -387v-658h-345v1522z" />
    <glyph glyph-name="Ograve" unicode="&#xd2;" horiz-adv-x="1603" 
d="M804 1534c-42.667 14 -101.333 56.001 -176 126.001c-75.333 71.333 -133 137.333 -173 198l262 130c18.667 -52.667 95 -149.334 229 -290.001l31 -32zM496.001 35.001c-268.667 109.333 -403 354.001 -403 734.001c0 127.333 19.167 240.833 57.5 340.5
s89.5 180.5 153.5 242.5c130 124 311.667 186 545 186c204 0 365 -67.333 483 -202s177 -318.334 177 -551.001c0 -270 -68 -473.667 -204 -611c-125.333 -126.667 -301 -190 -527 -190c-104.667 0 -198.667 17 -282 51zM803.001 263.002
c209.333 0 313.999 170.333 313.999 511c0 227.333 -55.333 375.333 -166 444c-37.333 22.667 -80.166 34 -128.499 34s-92.833 -8.16699 -133.5 -24.5s-76 -43.833 -106 -82.5c-65.333 -84 -98 -213 -98 -387c0 -232 59.333 -384.667 178 -458
c40 -24.667 86.667 -37 140 -37z" />
    <glyph glyph-name="Oacute" unicode="&#xd3;" horiz-adv-x="1603" 
d="M684 1666c108 108 185.999 199.333 233.999 274c12.667 18.667 21.334 34.667 26.001 48l262 -130c-60.667 -89.333 -140 -174.333 -238 -255c-44 -36.667 -81 -59.667 -111 -69zM495.999 35c-268.667 109.333 -403 354.001 -403 734.001
c0 127.333 19.167 240.833 57.5 340.5s89.5 180.5 153.5 242.5c130 124 311.667 186 545 186c204 0 365 -67.333 483 -202s177 -318.334 177 -551.001c0 -270 -68 -473.667 -204 -611c-125.333 -126.667 -301 -190 -527 -190c-104.667 0 -198.667 17 -282 51z
M802.999 263.001c209.333 0 313.999 170.333 313.999 511c0 227.333 -55.333 375.333 -166 444c-37.333 22.667 -80.166 34 -128.499 34s-92.833 -8.16699 -133.5 -24.5s-76 -43.833 -106 -82.5c-65.333 -84 -98 -213 -98 -387c0 -232 59.333 -384.667 178 -458
c40 -24.667 86.667 -37 140 -37z" />
    <glyph glyph-name="Ocircumflex" unicode="&#xd4;" horiz-adv-x="1603" 
d="M496 35c-268.667 109.333 -403 354.001 -403 734.001c0 127.333 19.167 240.833 57.5 340.5s89.5 180.5 153.5 242.5c130 124 311.667 186 545 186c204 0 365 -67.333 483 -202s177 -318.334 177 -551.001c0 -270 -68 -473.667 -204 -611
c-125.333 -126.667 -301 -190 -527 -190c-104.667 0 -198.667 17 -282 51zM803 263.001c209.333 0 313.999 170.333 313.999 511c0 227.333 -55.333 375.333 -166 444c-37.333 22.667 -80.166 34 -128.499 34s-92.833 -8.16699 -133.5 -24.5s-76 -43.833 -106 -82.5
c-65.333 -84 -98 -213 -98 -387c0 -232 59.333 -384.667 178 -458c40 -24.667 86.667 -37 140 -37zM427.999 1656l284 308h234l285 -306l-178 -116l-224 193l-223 -193z" />
    <glyph glyph-name="Otilde" unicode="&#xd5;" horiz-adv-x="1603" 
d="M381 1731c18 63.333 52.6631 116.331 103.996 158.998c59.333 48.667 127.333 73 204 73c54 0 94.667 -8.16699 122 -24.5s47.5 -30 60.5 -41l37.5 -31.5c28 -22.667 53.667 -34 77 -34s43 3.33301 59 10s31 15.334 45 26.001c26.667 19.333 49.334 42.333 68.001 69
l127 -136c-17.333 -64 -51.333 -117.667 -102 -161c-56.667 -50 -122.667 -75 -198 -75c-51.333 0 -90.833 8.33301 -118.5 25s-48.167 30.667 -61.5 42s-26.666 22 -39.999 32c-31.333 23.333 -58.666 35 -81.999 35s-42.666 -3.16699 -57.999 -9.5
s-30 -14.166 -44 -23.499c-24.667 -18 -47 -40.333 -67 -67zM495.996 34.998c-268.667 109.333 -403 354.001 -403 734.001c0 127.333 19.167 240.833 57.5 340.5s89.5 180.5 153.5 242.5c130 124 311.667 186 545 186c204 0 365 -67.333 483 -202
s177 -318.334 177 -551.001c0 -270 -68 -473.667 -204 -611c-125.333 -126.667 -301 -190 -527 -190c-104.667 0 -198.667 17 -282 51zM802.996 262.999c209.333 0 313.999 170.333 313.999 511c0 227.333 -55.333 375.333 -166 444c-37.333 22.667 -80.166 34 -128.499 34
s-92.833 -8.16699 -133.5 -24.5s-76 -43.833 -106 -82.5c-65.333 -84 -98 -213 -98 -387c0 -232 59.333 -384.667 178 -458c40 -24.667 86.667 -37 140 -37z" />
    <glyph glyph-name="Odieresis" unicode="&#xd6;" horiz-adv-x="1603" 
d="M1095 1582c-56.667 0 -102.666 16.999 -137.999 50.999s-53 78.333 -53 133c0 54 20.333 100.667 61 140c40 38.667 89.167 58 147.5 58s104.166 -16.667 137.499 -50s50 -77.666 50 -132.999c0 -56 -19.667 -103 -59 -141c-40 -38.667 -88.667 -58 -146 -58z
M554.001 1582c-56.667 0 -102.667 16.999 -138 50.999s-53 78.333 -53 133c0 54 20.333 100.667 61 140c40 38.667 89 58 147 58s103.833 -16.667 137.5 -50s50.5 -77.666 50.5 -132.999c0 -56 -19.667 -103 -59 -141c-40 -38.667 -88.667 -58 -146 -58zM496.001 34.998
c-268.667 109.333 -403 354.001 -403 734.001c0 127.333 19.167 240.833 57.5 340.5s89.5 180.5 153.5 242.5c130 124 311.667 186 545 186c204 0 365 -67.333 483 -202s177 -318.334 177 -551.001c0 -270 -68 -473.667 -204 -611c-125.333 -126.667 -301 -190 -527 -190
c-104.667 0 -198.667 17 -282 51zM803.001 262.999c209.333 0 313.999 170.333 313.999 511c0 227.333 -55.333 375.333 -166 444c-37.333 22.667 -80.166 34 -128.499 34s-92.833 -8.16699 -133.5 -24.5s-76 -43.833 -106 -82.5c-65.333 -84 -98 -213 -98 -387
c0 -232 59.333 -384.667 178 -458c40 -24.667 86.667 -37 140 -37z" />
    <glyph glyph-name="multiply" unicode="&#xd7;" horiz-adv-x="1402" 
d="M149 392l379 383l-379 397l186 179l368 -399l366 399l186 -179l-379 -395l378 -385l-187 -186l-366 387l-366 -387z" />
    <glyph glyph-name="Oslash" unicode="&#xd8;" horiz-adv-x="1603" 
d="M304 1352c130 124 322.334 186.001 577.001 186.001c30 0 69.333 -4.66699 118 -14l103 287l135 -28l-108 -299c123.333 -53.333 218.333 -142.333 285 -267c63.333 -119.333 95 -264 95 -434c0 -268.667 -68 -471.667 -204 -609
c-125.333 -126.667 -298.333 -190 -519 -190c-66.667 0 -130.334 6.66699 -191.001 20l-86 -238l-134 25l92 256c-186 84.667 -303.667 243.667 -353 477c-14 67.333 -21 122.666 -21 165.999c0 180 19.167 319.833 57.5 419.5s89.5 180.5 153.5 242.5zM897.001 1241
c-25.333 7.33301 -56.167 11.001 -92.5 11.001s-74.833 -8.16699 -115.5 -24.5s-76 -43.833 -106 -82.5c-65.333 -84 -98 -213 -98 -387c0 -170.667 33 -299.334 99 -386.001zM803 263.002c209.333 0 313.999 170.332 313.999 510.999
c0 176.667 -34.667 306.334 -104 389.001l-317 -880c32.667 -13.333 68.334 -20 107.001 -20z" />
    <glyph glyph-name="Ugrave" unicode="&#xd9;" horiz-adv-x="1545" 
d="M749 1534c-42.667 14 -101.333 56.001 -176 126.001c-75.333 71.333 -133 137.333 -173 198l262 130c18.667 -52.667 95 -149.334 229 -290.001l31 -32zM1408 632.001c0 -432 -209.333 -648 -628 -648c-333.333 0 -536 128.667 -608 386c-22.667 80.667 -34 170 -34 268
l4 884h378l-3 -837v-65.5c0 -39 5.33301 -83.667 16 -134s27 -90.833 49 -121.5c38 -53.333 102.333 -80 193 -80c88.667 0 153 28 193 84c42.667 60 64 165.667 64 317v837h376v-890z" />
    <glyph glyph-name="Uacute" unicode="&#xda;" horiz-adv-x="1545" 
d="M628 1666c108 108 185.999 199.333 233.999 274c12.667 18.667 21.334 34.667 26.001 48l262 -130c-60.667 -89.333 -140 -174.333 -238 -255c-44 -36.667 -81 -59.667 -111 -69zM1408 632c0 -432 -209.333 -648 -628 -648c-333.333 0 -536 128.667 -608 386
c-22.667 80.667 -34 170 -34 268l4 884h378l-3 -837v-65.5c0 -39 5.33301 -83.667 16 -134s27 -90.833 49 -121.5c38 -53.333 102.333 -80 193 -80c88.667 0 153 28 193 84c42.667 60 64 165.667 64 317v837h376v-890z" />
    <glyph glyph-name="Ucircumflex" unicode="&#xdb;" horiz-adv-x="1545" 
d="M1408 632c0 -432 -209.333 -648 -628 -648c-333.333 0 -536 128.667 -608 386c-22.667 80.667 -34 170 -34 268l4 884h378l-3 -837v-65.5c0 -39 5.33301 -83.667 16 -134s27 -90.833 49 -121.5c38 -53.333 102.333 -80 193 -80c88.667 0 153 28 193 84
c42.667 60 64 165.667 64 317v837h376v-890zM372 1656l284 308h234l285 -306l-178 -116l-224 193l-223 -193z" />
    <glyph glyph-name="Udieresis" unicode="&#xdc;" horiz-adv-x="1545" 
d="M1039 1582c-56.667 0 -102.666 16.999 -137.999 50.999s-53 78.333 -53 133c0 54 20.333 100.667 61 140c40 38.667 89.167 58 147.5 58s104.166 -16.667 137.499 -50s50 -77.666 50 -132.999c0 -56 -19.667 -103 -59 -141c-40 -38.667 -88.667 -58 -146 -58z
M498.001 1582c-56.667 0 -102.667 16.999 -138 50.999s-53 78.333 -53 133c0 54 20.333 100.667 61 140c40 38.667 89 58 147 58s103.833 -16.667 137.5 -50s50.5 -77.666 50.5 -132.999c0 -56 -19.667 -103 -59 -141c-40 -38.667 -88.667 -58 -146 -58zM1408 631.998
c0 -432 -209.333 -648 -628 -648c-333.333 0 -536 128.667 -608 386c-22.667 80.667 -34 170 -34 268l4 884h378l-3 -837v-65.5c0 -39 5.33301 -83.667 16 -134s27 -90.833 49 -121.5c38 -53.333 102.333 -80 193 -80c88.667 0 153 28 193 84c42.667 60 64 165.667 64 317
v837h376v-890z" />
    <glyph glyph-name="Yacute" unicode="&#xdd;" horiz-adv-x="1289" 
d="M448 536l-501 986h417l226 -492l64 -170l54 170l229 492h405l-505 -988v-534h-389v536zM518 1666c108 108 185.999 199.333 233.999 274c12.667 18.667 21.334 34.667 26.001 48l262 -130c-60.667 -89.333 -140 -174.333 -238 -255c-44 -36.667 -81 -59.667 -111 -69z
" />
    <glyph glyph-name="Thorn" unicode="&#xde;" horiz-adv-x="1393" 
d="M782 235c-86.667 0 -162.002 2.99902 -226.002 8.99902v-244h-383v1522h383v-236c36.667 2 75.834 4.66699 117.501 8s93.834 5 156.501 5s127.167 -10.667 193.5 -32s122.5 -52.666 168.5 -93.999c94.667 -85.333 142 -208 142 -368c0 -178 -48 -317 -144 -417
c-98 -102 -234 -153 -408 -153zM692.998 1022c-47.333 0 -93.001 -5.33301 -137.001 -16v-494c32 -5.33301 71.5 -8 118.5 -8s86.833 4.33301 119.5 13s61.334 23.667 86.001 45c52 46.667 78 123 78 229c0 154 -88.333 231 -265 231z" />
    <glyph glyph-name="germandbls" unicode="&#xdf;" horiz-adv-x="1413" 
d="M176 897l-135.001 -0.000976562v223l152 30c32 146 108 256 228 330c108 66 244 99 408 99c142.667 0 255.667 -29.667 339 -89c79.333 -56 119 -129 119 -219c0 -96.667 -39 -173.667 -117 -231c-48.667 -36 -80.167 -63.167 -94.5 -81.5s-21.5 -37.666 -21.5 -57.999
s7.83301 -40 23.5 -59s35.334 -39.333 59.001 -61l76.5 -70c27.333 -25 53 -53.833 77 -86.5c54.667 -76 82 -156.667 82 -242s-12.667 -152.833 -38 -202.5s-58.666 -88.834 -99.999 -117.501c-74.667 -52 -176.667 -78 -306 -78c-115.333 0 -195 12 -239 36v247
c34.667 -24.667 82.667 -37 144 -37c67.333 0 113.666 22.667 138.999 68c10 16.667 15 39.334 15 68.001s-6.33301 55.5 -19 80.5s-28.667 48.667 -48 71s-40 44.333 -62 66s-42.667 45.167 -62 70.5c-44.667 58.667 -67 121 -67 187c0 68 32 132.667 96 194
c39.333 38 65.166 70.833 77.499 98.5s18.5 58.167 18.5 91.5s-12.167 61.833 -36.5 85.5s-56.833 35.5 -97.5 35.5s-75.167 -6.66699 -103.5 -20s-52.166 -35.333 -71.499 -66c-41.333 -64 -62 -166.333 -62 -307v-953h-374v897z" />
    <glyph glyph-name="agrave" unicode="&#xe0;" horiz-adv-x="1263" 
d="M775 96c-85.333 -74.667 -191.334 -112 -318.001 -112c-112 0 -202.333 34 -271 102c-67.333 68 -101 155.333 -101 262c0 67.333 18.333 125.5 55 174.5s79.5 84 128.5 105s93.333 36.167 133 45.5s79.834 16.333 120.501 21c68.667 8 146.667 12 234 12v69
c0 50 -13.333 83 -40 99c-28 16 -84 24 -168 24c-68 0 -154.333 -16 -259 -48c-31.333 -10 -59.666 -21 -84.999 -33l-75 218c82 50 198.333 87.667 349 113c50.667 8 111.167 12 181.5 12s136.833 -7.66699 199.5 -23s113.667 -40.333 153 -75
c74.667 -64.667 112 -175.667 112 -333v-745h-232c-42.667 0 -70.334 4 -83.001 12c-22.667 15.333 -34 46 -34 92v8zM466.999 362c0 -24 4.00098 -45.666 12.001 -64.999s19 -35.333 33 -48c26 -24.667 59.333 -37 100 -37c43.333 0 83.666 10.667 120.999 32
c10 5.33301 17.667 10.666 23 15.999v268c-83.333 0 -150 -11.667 -200 -35c-59.333 -22 -89 -65.667 -89 -131zM601 1222c-51.333 24.667 -123.668 80 -217.001 166c-103.333 94 -170.333 176.667 -201 248l244 189c70.667 -118.667 156.334 -237 257.001 -355
c31.333 -36.667 60 -66.667 86 -90z" />
    <glyph glyph-name="aacute" unicode="&#xe1;" horiz-adv-x="1263" 
d="M775 96c-85.333 -74.667 -191.334 -112 -318.001 -112c-112 0 -202.333 34 -271 102c-67.333 68 -101 155.333 -101 262c0 67.333 18.333 125.5 55 174.5s79.5 84 128.5 105s93.333 36.167 133 45.5s79.834 16.333 120.501 21c68.667 8 146.667 12 234 12v69
c0 50 -13.333 83 -40 99c-28 16 -84 24 -168 24c-68 0 -154.333 -16 -259 -48c-31.333 -10 -59.666 -21 -84.999 -33l-75 218c82 50 198.333 87.667 349 113c50.667 8 111.167 12 181.5 12s136.833 -7.66699 199.5 -23s113.667 -40.333 153 -75
c74.667 -64.667 112 -175.667 112 -333v-745h-232c-42.667 0 -70.334 4 -83.001 12c-22.667 15.333 -34 46 -34 92v8zM466.999 362c0 -24 4.00098 -45.666 12.001 -64.999s19 -35.333 33 -48c26 -24.667 59.333 -37 100 -37c43.333 0 83.666 10.667 120.999 32
c10 5.33301 17.667 10.666 23 15.999v268c-83.333 0 -150 -11.667 -200 -35c-59.333 -22 -89 -65.667 -89 -131zM487 1396c123.333 123.333 236.333 266.332 339 428.999l243 -189c-38.667 -91.333 -131 -194.666 -277 -309.999c-52 -40.667 -96 -70 -132 -88z" />
    <glyph glyph-name="acircumflex" unicode="&#xe2;" horiz-adv-x="1263" 
d="M775 96c-85.333 -74.667 -191.334 -112 -318.001 -112c-112 0 -202.333 34 -271 102c-67.333 68 -101 155.333 -101 262c0 67.333 18.333 125.5 55 174.5s79.5 84 128.5 105s93.333 36.167 133 45.5s79.834 16.333 120.501 21c68.667 8 146.667 12 234 12v69
c0 50 -13.333 83 -40 99c-28 16 -84 24 -168 24c-68 0 -154.333 -16 -259 -48c-31.333 -10 -59.666 -21 -84.999 -33l-75 218c82 50 198.333 87.667 349 113c50.667 8 111.167 12 181.5 12s136.833 -7.66699 199.5 -23s113.667 -40.333 153 -75
c74.667 -64.667 112 -175.667 112 -333v-745h-232c-42.667 0 -70.334 4 -83.001 12c-22.667 15.333 -34 46 -34 92v8zM466.999 362c0 -24 4.00098 -45.666 12.001 -64.999s19 -35.333 33 -48c26 -24.667 59.333 -37 100 -37c43.333 0 83.666 10.667 120.999 32
c10 5.33301 17.667 10.666 23 15.999v268c-83.333 0 -150 -11.667 -200 -35c-59.333 -22 -89 -65.667 -89 -131zM224 1363l305 370h223l304 -370l-177 -114l-239 227l-240 -227z" />
    <glyph glyph-name="atilde" unicode="&#xe3;" horiz-adv-x="1263" 
d="M775 96c-85.333 -74.667 -191.334 -112 -318.001 -112c-112 0 -202.333 34 -271 102c-67.333 68 -101 155.333 -101 262c0 67.333 18.333 125.5 55 174.5s79.5 84 128.5 105s93.333 36.167 133 45.5s79.834 16.333 120.501 21c68.667 8 146.667 12 234 12v69
c0 50 -13.333 83 -40 99c-28 16 -84 24 -168 24c-68 0 -154.333 -16 -259 -48c-31.333 -10 -59.666 -21 -84.999 -33l-75 218c82 50 198.333 87.667 349 113c50.667 8 111.167 12 181.5 12s136.833 -7.66699 199.5 -23s113.667 -40.333 153 -75
c74.667 -64.667 112 -175.667 112 -333v-745h-232c-42.667 0 -70.334 4 -83.001 12c-22.667 15.333 -34 46 -34 92v8zM466.999 362c0 -24 4.00098 -45.666 12.001 -64.999s19 -35.333 33 -48c26 -24.667 59.333 -37 100 -37c43.333 0 83.666 10.667 120.999 32
c10 5.33301 17.667 10.666 23 15.999v268c-83.333 0 -150 -11.667 -200 -35c-59.333 -22 -89 -65.667 -89 -131zM469 1434c-56.667 0 -110.667 -33.667 -162 -101l-133 133c17.333 63.333 52.333 116 105 158c59.333 48.667 128.333 73 207 73
c57.333 0 100.166 -8.16699 128.499 -24.5s49 -30 62 -41l37.5 -31.5c28 -22.667 56.667 -34 86 -34c57.333 0 113 35.333 167 106l127 -136c-17.333 -63.333 -51.666 -117.333 -102.999 -162c-58 -49.333 -125 -74 -201 -74c-51.333 0 -91.5 8.33301 -120.5 25
s-50.333 30.667 -64 42s-27.5 22 -41.5 32c-31.333 23.333 -63 35 -95 35z" />
    <glyph glyph-name="adieresis" unicode="&#xe4;" horiz-adv-x="1263" 
d="M775 96c-85.333 -74.667 -191.334 -112 -318.001 -112c-112 0 -202.333 34 -271 102c-67.333 68 -101 155.333 -101 262c0 67.333 18.333 125.5 55 174.5s79.5 84 128.5 105s93.333 36.167 133 45.5s79.834 16.333 120.501 21c68.667 8 146.667 12 234 12v69
c0 50 -13.333 83 -40 99c-28 16 -84 24 -168 24c-68 0 -154.333 -16 -259 -48c-31.333 -10 -59.666 -21 -84.999 -33l-75 218c82 50 198.333 87.667 349 113c50.667 8 111.167 12 181.5 12s136.833 -7.66699 199.5 -23s113.667 -40.333 153 -75
c74.667 -64.667 112 -175.667 112 -333v-745h-232c-42.667 0 -70.334 4 -83.001 12c-22.667 15.333 -34 46 -34 92v8zM466.999 362c0 -24 4.00098 -45.666 12.001 -64.999s19 -35.333 33 -48c26 -24.667 59.333 -37 100 -37c43.333 0 83.666 10.667 120.999 32
c10 5.33301 17.667 10.666 23 15.999v268c-83.333 0 -150 -11.667 -200 -35c-59.333 -22 -89 -65.667 -89 -131zM891 1281c-28.667 0 -54.667 4.66602 -78 13.999s-43.333 22.333 -60 39c-34.667 36 -52 81.667 -52 137c0 56.667 20 104.334 60 143.001
c41.333 40.667 90 61 146 61c56.667 0 102 -17.667 136 -53c33.333 -34 50 -79.333 50 -136c0 -56 -19.333 -104 -58 -144c-40 -40.667 -88 -61 -144 -61zM373 1281c-28.667 0 -54.666 4.66699 -77.999 14s-43.333 22.333 -60 39c-34.667 36 -52 81.667 -52 137
c0 56 20.333 103.667 61 143c41.333 40.667 89.666 61 144.999 61c88 0 146 -37.333 174 -112c8.66699 -23.333 13 -49 13 -77c0 -56 -19.667 -104 -59 -144c-39.333 -40.667 -87.333 -61 -144 -61z" />
    <glyph glyph-name="aring" unicode="&#xe5;" horiz-adv-x="1263" 
d="M775 96c-85.333 -74.667 -191.334 -112 -318.001 -112c-112 0 -202.333 34 -271 102c-67.333 68 -101 155.333 -101 262c0 67.333 18.333 125.5 55 174.5s79.5 84 128.5 105s93.333 36.167 133 45.5s79.834 16.333 120.501 21c68.667 8 146.667 12 234 12v69
c0 50 -13.333 83 -40 99c-28 16 -84 24 -168 24c-68 0 -154.333 -16 -259 -48c-31.333 -10 -59.666 -21 -84.999 -33l-75 218c82 50 198.333 87.667 349 113c50.667 8 111.167 12 181.5 12s136.833 -7.66699 199.5 -23s113.667 -40.333 153 -75
c74.667 -64.667 112 -175.667 112 -333v-745h-232c-42.667 0 -70.334 4 -83.001 12c-22.667 15.333 -34 46 -34 92v8zM466.999 362c0 -24 4.00098 -45.666 12.001 -64.999s19 -35.333 33 -48c26 -24.667 59.333 -37 100 -37c43.333 0 83.666 10.667 120.999 32
c10 5.33301 17.667 10.666 23 15.999v268c-83.333 0 -150 -11.667 -200 -35c-59.333 -22 -89 -65.667 -89 -131zM771 1313.5c-44 -11.667 -92.001 -17.5 -144.001 -17.5s-100.667 7.33301 -146 22c-89.333 29.333 -150.333 83.333 -183 162
c-15.333 37.333 -23 78.666 -23 123.999c0 102.667 40 181.334 120 236.001c64.667 44 147.667 66 249 66c172.667 0 283.667 -57.333 333 -172c16.667 -38 24.834 -82.667 24.501 -134s-10.833 -96.5 -31.5 -135.5s-48 -71 -82 -96s-73 -43.333 -117 -55zM637.999 1743
c-105.333 0 -158.001 -45.332 -158.001 -135.999c0 -64.667 31.333 -108.334 94 -131.001c19.333 -7.33301 40.833 -11 64.5 -11s45.334 2 65.001 6s36.5 11 50.5 21c29.333 22 44 58 44 108c0 66.667 -32.333 111 -97 133c-19.333 6.66699 -40.333 10 -63 10z" />
    <glyph glyph-name="ae" unicode="&#xe6;" horiz-adv-x="1877" 
d="M881 156c-104.667 -114.667 -244.334 -172 -419.001 -172c-108.667 0 -196.667 30.667 -264 92c-70.667 62.667 -106 148.334 -106 257.001c0 102.667 41.333 186.334 124 251.001c50.667 39.333 105.167 65.833 163.5 79.5s107.166 23.167 146.499 28.5
c68.667 9.33301 143.667 14 225 14v61c0 47.333 -16.5 80.333 -49.5 99s-75 28 -126 28s-93.5 -2.83301 -127.5 -8.5s-66 -12.834 -96 -21.501c-62 -16.667 -108 -33.667 -138 -51l-79 222c82.667 46.667 191.334 83 326.001 109c57.333 10.667 119.333 16 186 16
c161.333 0 273.333 -32.667 336 -98c92 62.667 203.333 94 334 94c218.667 0 363.334 -78.667 434.001 -236c26.667 -60 40.167 -133.667 40.5 -221s-3.16699 -158 -10.5 -212h-664c12 -158 106.333 -237 283 -237c85.333 0 168 12 248 36
c22.667 7.33301 41 14.666 55 21.999l57 -201c-66 -54 -166.667 -91.667 -302 -113c-45.333 -6.66699 -93.333 -10 -144 -10c-190.667 0 -335 57.333 -433 172zM1453 668c0.666992 14 1.00098 27.666 1.00098 40.999c0 62.667 -10.167 113 -30.5 151s-58.5 57 -114.5 57
c-82.667 0 -138.334 -43.667 -167.001 -131c-10 -31.333 -17.333 -70.666 -22 -117.999h333zM466.001 357.999c0 -24 4.16797 -45.333 12.501 -64s19.166 -34 32.499 -46c50.667 -47.333 119 -51.333 205 -12c35.333 16.667 62.333 37.667 81 63
c-26.667 68.667 -42 145 -46 229c-90 -1.33301 -165 -18.333 -225 -51c-40 -22 -60 -61.667 -60 -119z" />
    <glyph glyph-name="ccedilla" unicode="&#xe7;" horiz-adv-x="1048" 
d="M354 -255c15.333 -9.33301 39.6689 -14 73.002 -14s61 12.333 83 37c23.333 26 35 67.667 35 125c0 36.667 -5.66699 69.334 -17 98.001c-146 20.667 -257.667 83.667 -335 189c-72 98 -108 224.333 -108 379c0 176.667 46.667 317.667 140 423
c102 116 248.333 174 439 174c110 0 200.667 -12.333 272 -37c19.333 -6.66699 33.666 -13.334 42.999 -20.001l-42 -278c-54.667 31.333 -129 47 -223 47c-110 0 -186.667 -49.333 -230 -148c-16 -38 -24 -85.5 -24 -142.5s6.33301 -104.833 19 -143.5
s30.667 -70.667 54 -96c44 -46.667 109.667 -70 197 -70s160.666 13.667 219.999 41l45 -209c-54 -54 -136.333 -89.333 -247 -106c26 -53.333 39 -120 39 -200c0 -87.333 -26.333 -153.333 -79 -198c-46.667 -40 -108.667 -60 -186 -60c-54.667 0 -98.5 3.66699 -131.5 11
s-52.833 13 -59.5 17z" />
    <glyph glyph-name="egrave" unicode="&#xe8;" horiz-adv-x="1221" 
d="M455 483c14.667 -158 109.669 -237 285.002 -237c87.333 0 170.666 12 249.999 36c23.333 7.33301 42 14.666 56 21.999l57 -197c-66 -54 -167.667 -91.667 -305 -113c-46 -6.66699 -104.667 -10 -176 -10s-142.333 13.5 -213 40.5s-130 65.833 -178 116.5
c-97.333 102.667 -146 247.334 -146 434.001c0 170 50 308.333 150 415c103.333 110.667 244 166 422 166c219.333 0 365 -78.667 437 -236c27.333 -60 41.166 -133 41.499 -219s-3.5 -158.667 -11.5 -218h-669zM793.002 668c0.666992 14.667 1.00098 28.665 1.00098 41.998
c0 62.667 -10 112.834 -30 150.501s-58.333 56.5 -115 56.5c-82.667 0 -138.667 -43.667 -168 -131c-10.667 -31.333 -18.334 -70.666 -23.001 -117.999h335zM616.003 1222c-51.333 24.667 -123.668 80 -217.001 166c-103.333 94 -170.333 176.667 -201 248l244 189
c70.667 -118.667 156.334 -237 257.001 -355c31.333 -36.667 60 -66.667 86 -90z" />
    <glyph glyph-name="eacute" unicode="&#xe9;" horiz-adv-x="1221" 
d="M501 1396c123.333 123.333 236.333 266.332 339 428.999l243 -189c-38.667 -91.333 -131 -194.666 -277 -309.999c-52 -40.667 -96 -70 -132 -88zM455 482.999c14.667 -158 109.669 -237 285.002 -237c87.333 0 170.666 12 249.999 36
c23.333 7.33301 42 14.666 56 21.999l57 -197c-66 -54 -167.667 -91.667 -305 -113c-46 -6.66699 -104.667 -10 -176 -10s-142.333 13.5 -213 40.5s-130 65.833 -178 116.5c-97.333 102.667 -146 247.334 -146 434.001c0 170 50 308.333 150 415
c103.333 110.667 244 166 422 166c219.333 0 365 -78.667 437 -236c27.333 -60 41.166 -133 41.499 -219s-3.5 -158.667 -11.5 -218h-669zM793.002 667.999c0.666992 14.667 1.00098 28.665 1.00098 41.998c0 62.667 -10 112.834 -30 150.501s-58.333 56.5 -115 56.5
c-82.667 0 -138.667 -43.667 -168 -131c-10.667 -31.333 -18.334 -70.666 -23.001 -117.999h335z" />
    <glyph glyph-name="ecircumflex" unicode="&#xea;" horiz-adv-x="1221" 
d="M238 1363l305 370h223l304 -370l-177 -114l-239 227l-240 -227zM455 483c14.667 -158 109.669 -237 285.002 -237c87.333 0 170.666 12 249.999 36c23.333 7.33301 42 14.666 56 21.999l57 -197c-66 -54 -167.667 -91.667 -305 -113c-46 -6.66699 -104.667 -10 -176 -10
s-142.333 13.5 -213 40.5s-130 65.833 -178 116.5c-97.333 102.667 -146 247.334 -146 434.001c0 170 50 308.333 150 415c103.333 110.667 244 166 422 166c219.333 0 365 -78.667 437 -236c27.333 -60 41.166 -133 41.499 -219s-3.5 -158.667 -11.5 -218h-669z
M793.002 668c0.666992 14.667 1.00098 28.665 1.00098 41.998c0 62.667 -10 112.834 -30 150.501s-58.333 56.5 -115 56.5c-82.667 0 -138.667 -43.667 -168 -131c-10.667 -31.333 -18.334 -70.666 -23.001 -117.999h335z" />
    <glyph glyph-name="edieresis" unicode="&#xeb;" horiz-adv-x="1221" 
d="M905 1281c-28.667 0 -54.667 4.66602 -78 13.999s-43.333 22.333 -60 39c-34.667 36 -52 81.667 -52 137c0 56.667 20 104.334 60 143.001c41.333 40.667 90 61 146 61c56.667 0 102 -17.667 136 -53c33.333 -34 50 -79.333 50 -136c0 -56 -19.333 -104 -58 -144
c-40 -40.667 -88 -61 -144 -61zM387 1281c-28.667 0 -54.666 4.66699 -77.999 14s-43.333 22.333 -60 39c-34.667 36 -52 81.667 -52 137c0 56 20.333 103.667 61 143c41.333 40.667 89.666 61 144.999 61c88 0 146 -37.333 174 -112c8.66699 -23.333 13 -49 13 -77
c0 -56 -19.667 -104 -59 -144c-39.333 -40.667 -87.333 -61 -144 -61zM455.001 482.999c14.667 -158 109.669 -237 285.002 -237c87.333 0 170.666 12 249.999 36c23.333 7.33301 42 14.666 56 21.999l57 -197c-66 -54 -167.667 -91.667 -305 -113
c-46 -6.66699 -104.667 -10 -176 -10s-142.333 13.5 -213 40.5s-130 65.833 -178 116.5c-97.333 102.667 -146 247.334 -146 434.001c0 170 50 308.333 150 415c103.333 110.667 244 166 422 166c219.333 0 365 -78.667 437 -236c27.333 -60 41.166 -133 41.499 -219
s-3.5 -158.667 -11.5 -218h-669zM793.003 667.999c0.666992 14.667 1.00098 28.665 1.00098 41.998c0 62.667 -10 112.834 -30 150.501s-58.333 56.5 -115 56.5c-82.667 0 -138.667 -43.667 -168 -131c-10.667 -31.333 -18.334 -70.666 -23.001 -117.999h335z" />
    <glyph glyph-name="igrave" unicode="&#xec;" horiz-adv-x="690" 
d="M159 1140h372v-1140h-372v1140zM308 1222c-51.333 24.667 -123.668 80 -217.001 166c-103.333 94 -170.333 176.667 -201 248l244 189c70.667 -118.667 156.334 -237 257.001 -355c31.333 -36.667 60 -66.667 86 -90z" />
    <glyph glyph-name="iacute" unicode="&#xed;" horiz-adv-x="690" 
d="M193 1396c123.333 123.333 236.333 266.332 339 428.999l243 -189c-38.667 -91.333 -131 -194.666 -277 -309.999c-52 -40.667 -96 -70 -132 -88zM159 1140h372v-1140h-372v1140z" />
    <glyph glyph-name="icircumflex" unicode="&#xee;" horiz-adv-x="690" 
d="M-70 1363l305 370h223l304 -370l-177 -114l-239 227l-240 -227zM159 1140h372v-1140h-372v1140z" />
    <glyph glyph-name="idieresis" unicode="&#xef;" horiz-adv-x="690" 
d="M584 1280c-28 0 -53.5 4.66895 -76.5 14.002s-42.5 22.666 -58.5 39.999c-33.333 35.333 -50 80.666 -50 135.999c0 56.667 19.667 104.667 59 144c40 40 87.667 60 143 60c56.667 0 101.667 -17.333 135 -52c32 -33.333 48 -79 48 -137c0 -56.667 -19 -104.667 -57 -144
c-39.333 -40.667 -87 -61 -143 -61zM90 1280c-28.667 0 -54.499 4.66895 -77.499 14.002s-42.5 22.666 -58.5 39.999c-33.333 35.333 -50 80.666 -50 135.999c0 56 19.333 104 58 144c39.333 40 87.666 60 144.999 60s101.833 -17.5 133.5 -52.5s47.5 -80.5 47.5 -136.5
s-18.667 -104 -56 -144c-38.667 -40.667 -86 -61 -142 -61zM159.001 1140h372v-1140h-372v1140z" />
    <glyph glyph-name="eth" unicode="&#xf0;" horiz-adv-x="1321" 
d="M856 1762l-120 -155c157.333 -98 283.333 -233.667 378 -407c93.333 -168.667 140 -347 140 -535c0 -230 -59 -406.333 -177 -529c-104.667 -108.667 -242.667 -163 -414 -163c-176 0 -317 53.333 -423 160c-104 105.333 -156 244.333 -156 417
c0 175.333 46.333 318 139 428c96.667 114 228 171 394 171c74 0 139.333 -15.333 196 -46c-41.333 114.667 -118.333 216 -231 304l-120 -161l-164 114l125 160c-75.333 45.333 -144 77.666 -206 96.999l60 192c120 -34.667 215.333 -70.667 286 -108
c34 44.667 76 103.334 126 176.001zM590 248c23.333 -12 48.834 -17.999 76.501 -17.999s54.167 7 79.5 21s47.333 35.667 66 65c42 65.333 63 157.333 63 276v52c0 67.333 -1.33301 126.333 -4 177c-26 40 -69.333 67.667 -130 83c-20 4.66699 -41 7 -63 7
c-62.667 0 -112.334 -31.333 -149.001 -94s-55 -156.334 -55 -281.001c0 -152.667 38.667 -248.667 116 -288z" />
    <glyph glyph-name="ntilde" unicode="&#xf1;" horiz-adv-x="1380" 
d="M163 1140h338l9 -122c71.333 60 160.666 102.333 267.999 127c38 8.66699 80.167 13 126.5 13s90.5 -7.16699 132.5 -21.5s77.667 -38.833 107 -73.5c57.333 -68.667 86 -183.667 86 -345v-718h-370v652c0 82.667 -10.667 139.667 -32 171c-20 29.333 -55.333 44 -106 44
h-25.5c-15 0 -39.667 -6.33301 -74 -19s-64.166 -31 -89.499 -55v-793h-370v1140zM608 1434c-56.667 0 -110.667 -33.667 -162 -101l-133 133c17.333 63.333 52.333 116 105 158c59.333 48.667 128.333 73 207 73c57.333 0 100.166 -8.16699 128.499 -24.5s49 -30 62 -41
l37.5 -31.5c28 -22.667 56.667 -34 86 -34c57.333 0 113 35.333 167 106l127 -136c-17.333 -63.333 -51.666 -117.333 -102.999 -162c-58 -49.333 -125 -74 -201 -74c-51.333 0 -91.5 8.33301 -120.5 25s-50.333 30.667 -64 42s-27.5 22 -41.5 32
c-31.333 23.333 -63 35 -95 35z" />
    <glyph glyph-name="ograve" unicode="&#xf2;" horiz-adv-x="1330" 
d="M138 290c-18.667 44.667 -32 91.668 -40 141.001s-12 110.666 -12 183.999s15.167 145.833 45.5 217.5s71.5 131.5 123.5 179.5c105.333 96 245.666 144 420.999 144c260 0 432.333 -102 517 -306c34 -82 51 -178.667 51 -290c0 -186 -56 -330 -168 -432
c-105.333 -96 -245.666 -144 -420.999 -144c-260 0 -432.333 102 -517 306zM471 582.001c0 -228.667 64.001 -343 192.001 -343c71.333 0 122.333 27 153 81c28.667 50 43 131.333 43 244c0 223.333 -63.333 335 -190 335c-104.667 0 -167.334 -60 -188.001 -180
c-6.66699 -39.333 -10 -85 -10 -137zM635.001 1222c-51.333 24.667 -123.668 80 -217.001 166c-103.333 94 -170.333 176.667 -201 248l244 189c70.667 -118.667 156.334 -237 257.001 -355c31.333 -36.667 60 -66.667 86 -90z" />
    <glyph glyph-name="oacute" unicode="&#xf3;" horiz-adv-x="1330" 
d="M521 1396c123.333 123.333 236.333 266.332 339 428.999l243 -189c-38.667 -91.333 -131 -194.666 -277 -309.999c-52 -40.667 -96 -70 -132 -88zM138 289.999c-18.667 44.667 -32 91.668 -40 141.001s-12 110.666 -12 183.999s15.167 145.833 45.5 217.5
s71.5 131.5 123.5 179.5c105.333 96 245.666 144 420.999 144c260 0 432.333 -102 517 -306c34 -82 51 -178.667 51 -290c0 -186 -56 -330 -168 -432c-105.333 -96 -245.666 -144 -420.999 -144c-260 0 -432.333 102 -517 306zM471 582c0 -228.667 64.001 -343 192.001 -343
c71.333 0 122.333 27 153 81c28.667 50 43 131.333 43 244c0 223.333 -63.333 335 -190 335c-104.667 0 -167.334 -60 -188.001 -180c-6.66699 -39.333 -10 -85 -10 -137z" />
    <glyph glyph-name="ocircumflex" unicode="&#xf4;" horiz-adv-x="1330" 
d="M257 1363l305 370h223l304 -370l-177 -114l-239 227l-240 -227zM138 290c-18.667 44.667 -32 91.668 -40 141.001s-12 110.666 -12 183.999s15.167 145.833 45.5 217.5s71.5 131.5 123.5 179.5c105.333 96 245.666 144 420.999 144c260 0 432.333 -102 517 -306
c34 -82 51 -178.667 51 -290c0 -186 -56 -330 -168 -432c-105.333 -96 -245.666 -144 -420.999 -144c-260 0 -432.333 102 -517 306zM471 582.001c0 -228.667 64.001 -343 192.001 -343c71.333 0 122.333 27 153 81c28.667 50 43 131.333 43 244
c0 223.333 -63.333 335 -190 335c-104.667 0 -167.334 -60 -188.001 -180c-6.66699 -39.333 -10 -85 -10 -137z" />
    <glyph glyph-name="otilde" unicode="&#xf5;" horiz-adv-x="1330" 
d="M138 290c-18.667 44.667 -32 91.668 -40 141.001s-12 110.666 -12 183.999s15.167 145.833 45.5 217.5s71.5 131.5 123.5 179.5c105.333 96 245.666 144 420.999 144c260 0 432.333 -102 517 -306c34 -82 51 -178.667 51 -290c0 -186 -56 -330 -168 -432
c-105.333 -96 -245.666 -144 -420.999 -144c-260 0 -432.333 102 -517 306zM471 582.001c0 -228.667 64.001 -343 192.001 -343c71.333 0 122.333 27 153 81c28.667 50 43 131.333 43 244c0 223.333 -63.333 335 -190 335c-104.667 0 -167.334 -60 -188.001 -180
c-6.66699 -39.333 -10 -85 -10 -137zM503.001 1434c-56.667 0 -110.667 -33.667 -162 -101l-133 133c17.333 63.333 52.333 116 105 158c59.333 48.667 128.333 73 207 73c57.333 0 100.166 -8.16699 128.499 -24.5s49 -30 62 -41l37.5 -31.5c28 -22.667 56.667 -34 86 -34
c57.333 0 113 35.333 167 106l127 -136c-17.333 -63.333 -51.666 -117.333 -102.999 -162c-58 -49.333 -125 -74 -201 -74c-51.333 0 -91.5 8.33301 -120.5 25s-50.333 30.667 -64 42s-27.5 22 -41.5 32c-31.333 23.333 -63 35 -95 35z" />
    <glyph glyph-name="odieresis" unicode="&#xf6;" horiz-adv-x="1330" 
d="M925 1281c-28.667 0 -54.667 4.66602 -78 13.999s-43.333 22.333 -60 39c-34.667 36 -52 81.667 -52 137c0 56.667 20 104.334 60 143.001c41.333 40.667 90 61 146 61c56.667 0 102 -17.667 136 -53c33.333 -34 50 -79.333 50 -136c0 -56 -19.333 -104 -58 -144
c-40 -40.667 -88 -61 -144 -61zM407 1281c-28.667 0 -54.666 4.66699 -77.999 14s-43.333 22.333 -60 39c-34.667 36 -52 81.667 -52 137c0 56 20.333 103.667 61 143c41.333 40.667 89.666 61 144.999 61c88 0 146 -37.333 174 -112c8.66699 -23.333 13 -49 13 -77
c0 -56 -19.667 -104 -59 -144c-39.333 -40.667 -87.333 -61 -144 -61zM138.001 289.999c-18.667 44.667 -32 91.668 -40 141.001s-12 110.666 -12 183.999s15.167 145.833 45.5 217.5s71.5 131.5 123.5 179.5c105.333 96 245.666 144 420.999 144
c260 0 432.333 -102 517 -306c34 -82 51 -178.667 51 -290c0 -186 -56 -330 -168 -432c-105.333 -96 -245.666 -144 -420.999 -144c-260 0 -432.333 102 -517 306zM471.001 582c0 -228.667 64.001 -343 192.001 -343c71.333 0 122.333 27 153 81
c28.667 50 43 131.333 43 244c0 223.333 -63.333 335 -190 335c-104.667 0 -167.334 -60 -188.001 -180c-6.66699 -39.333 -10 -85 -10 -137z" />
    <glyph glyph-name="divide" unicode="&#xf7;" horiz-adv-x="1417" 
d="M726 1029c-31.333 0 -59.666 5.33301 -84.999 16s-47 25 -65 43c-38 39.333 -57 89 -57 149c0 60.667 21.667 113 65 157c45.333 44.667 98.666 67 159.999 67c62 0 111.333 -19.667 148 -59c36.667 -38.667 55 -88 55 -148c0 -61.333 -21.333 -114 -64 -158
c-44 -44.667 -96.333 -67 -157 -67zM190 908h1036v-269h-1036v269zM517 305c0 59.333 21.666 111.333 64.999 156c44 44.667 97.333 67 160 67c94.667 0 157.334 -41.333 188.001 -124c9.33301 -25.333 14 -53 14 -83c0 -60.667 -21.333 -113 -64 -157
c-43.333 -44.667 -96 -67 -158 -67c-60 0 -109.333 19.667 -148 59c-38 39.333 -57 89 -57 149z" />
    <glyph glyph-name="oslash" unicode="&#xf8;" horiz-adv-x="1335" 
d="M890.5 20.5c-71.667 -24.333 -140.166 -36.501 -205.499 -36.501s-118 3.33301 -158 10l-82 -228l-131 25l85 237c-208.667 82.667 -313 267.334 -313 554.001c0 183.333 56.333 326.666 169 429.999c105.333 96 245.666 144 420.999 144
c45.333 0 87.333 -3.33301 126 -10l86 238l133 -28l-89 -245c208 -84.667 312 -269 312 -553c0 -184.667 -56 -328 -168 -430c-52 -47.333 -113.833 -83.166 -185.5 -107.499zM711.001 893.999c-14.667 3.33301 -28.667 5.00098 -42 5.00098
c-74.667 0 -128.5 -26.833 -161.5 -80.5s-49.5 -132.5 -49.5 -236.5c0 -104.667 17.333 -187.334 52 -248.001zM618.001 244c15.333 -3.33301 30.333 -5 45 -5c73.333 0 126.5 26.667 159.5 80s49.5 135 49.5 245c0 100.667 -17 181 -51 241z" />
    <glyph glyph-name="ugrave" unicode="&#xf9;" horiz-adv-x="1362" 
d="M145 1140h370.999v-679c0 -83.333 12.333 -140 37 -170c22.667 -27.333 60.667 -41 114 -41c47.333 0 92.333 11.667 135 35c11.333 6 20.333 12 27 18v837h371v-1156h-268c-23.333 0 -40.666 3.5 -51.999 10.5s-17 22.833 -17 47.5v48
c-62 -47.333 -144.333 -80 -247 -98c-30 -5.33301 -58.333 -8 -85 -8c-154 0 -260 46 -318 138c-45.333 70.667 -68 186.667 -68 348v670zM649.999 1222c-51.333 24.667 -123.668 80 -217.001 166c-103.333 94 -170.333 176.667 -201 248l244 189
c70.667 -118.667 156.334 -237 257.001 -355c31.333 -36.667 60 -66.667 86 -90z" />
    <glyph glyph-name="uacute" unicode="&#xfa;" horiz-adv-x="1362" 
d="M535 1396c123.333 123.333 236.333 266.332 339 428.999l243 -189c-38.667 -91.333 -131 -194.666 -277 -309.999c-52 -40.667 -96 -70 -132 -88zM145 1140h370.999v-679c0 -83.333 12.333 -140 37 -170c22.667 -27.333 60.667 -41 114 -41
c47.333 0 92.333 11.667 135 35c11.333 6 20.333 12 27 18v837h371v-1156h-268c-23.333 0 -40.666 3.5 -51.999 10.5s-17 22.833 -17 47.5v48c-62 -47.333 -144.333 -80 -247 -98c-30 -5.33301 -58.333 -8 -85 -8c-154 0 -260 46 -318 138
c-45.333 70.667 -68 186.667 -68 348v670z" />
    <glyph glyph-name="ucircumflex" unicode="&#xfb;" horiz-adv-x="1362" 
d="M272 1363l305 370h223l304 -370l-177 -114l-239 227l-240 -227zM145 1140h370.999v-679c0 -83.333 12.333 -140 37 -170c22.667 -27.333 60.667 -41 114 -41c47.333 0 92.333 11.667 135 35c11.333 6 20.333 12 27 18v837h371v-1156h-268
c-23.333 0 -40.666 3.5 -51.999 10.5s-17 22.833 -17 47.5v48c-62 -47.333 -144.333 -80 -247 -98c-30 -5.33301 -58.333 -8 -85 -8c-154 0 -260 46 -318 138c-45.333 70.667 -68 186.667 -68 348v670z" />
    <glyph glyph-name="udieresis" unicode="&#xfc;" horiz-adv-x="1362" 
d="M939 1281c-28.667 0 -54.667 4.66602 -78 13.999s-43.333 22.333 -60 39c-34.667 36 -52 81.667 -52 137c0 56.667 20 104.334 60 143.001c41.333 40.667 90 61 146 61c56.667 0 102 -17.667 136 -53c33.333 -34 50 -79.333 50 -136c0 -56 -19.333 -104 -58 -144
c-40 -40.667 -88 -61 -144 -61zM421 1281c-28.667 0 -54.666 4.66699 -77.999 14s-43.333 22.333 -60 39c-34.667 36 -52 81.667 -52 137c0 56 20.333 103.667 61 143c41.333 40.667 89.666 61 144.999 61c88 0 146 -37.333 174 -112c8.66699 -23.333 13 -49 13 -77
c0 -56 -19.667 -104 -59 -144c-39.333 -40.667 -87.333 -61 -144 -61zM145.001 1140h370.999v-679c0 -83.333 12.333 -140 37 -170c22.667 -27.333 60.667 -41 114 -41c47.333 0 92.333 11.667 135 35c11.333 6 20.333 12 27 18v837h371v-1156h-268
c-23.333 0 -40.666 3.5 -51.999 10.5s-17 22.833 -17 47.5v48c-62 -47.333 -144.333 -80 -247 -98c-30 -5.33301 -58.333 -8 -85 -8c-154 0 -260 46 -318 138c-45.333 70.667 -68 186.667 -68 348v670z" />
    <glyph glyph-name="yacute" unicode="&#xfd;" horiz-adv-x="1208" 
d="M121 -203c16 -6 38.5 -10.999 67.5 -14.999s52 -6 69 -6s39.667 1.83301 68 5.5s55.5 13.167 81.5 28.5c58.667 33.333 100 96.666 124 189.999h-142l-393 1140h391l164 -600l75 -313l196 913h388l-359 -1167c-74 -236 -195.333 -385.333 -364 -448
c-50.667 -21.333 -116.334 -32 -197.001 -32c-35.333 0 -71.666 2.83301 -108.999 8.5s-57.333 9.5 -60 11.5v284zM470 1396c123.333 123.333 236.333 266.332 339 428.999l243 -189c-38.667 -91.333 -131 -194.666 -277 -309.999c-52 -40.667 -96 -70 -132 -88z" />
    <glyph glyph-name="thorn" unicode="&#xfe;" horiz-adv-x="1381" 
d="M940.5 23.5c-74.333 -29.667 -146.333 -44.499 -216 -44.499s-135.167 3 -196.5 9l5 -157v-338h-374v2168h371v-411l-8 -209c84.667 76.667 192 115 322 115c129.333 0 235 -44.667 317 -134c90 -97.333 135 -234 135 -410c0 -192.667 -55 -346.667 -165 -462
c-52.667 -54.667 -116.167 -96.834 -190.5 -126.501zM530 262.001c20 -22.667 72.001 -33.999 156.001 -33.999c65.333 0 118.333 31.333 159 94c42.667 65.333 64 154.666 64 267.999c0 156 -38.333 248.667 -115 278c-23.333 8.66699 -46.833 13 -70.5 13
s-44.834 -1.83301 -63.501 -5.5s-36 -8.5 -52 -14.5c-32.667 -12 -58.667 -25.333 -78 -40v-559z" />
    <glyph glyph-name="ydieresis" unicode="&#xff;" horiz-adv-x="1208" 
d="M121 -203c16 -6 38.5 -10.999 67.5 -14.999s52 -6 69 -6s39.667 1.83301 68 5.5s55.5 13.167 81.5 28.5c58.667 33.333 100 96.666 124 189.999h-142l-393 1140h391l164 -600l75 -313l196 913h388l-359 -1167c-74 -236 -195.333 -385.333 -364 -448
c-50.667 -21.333 -116.334 -32 -197.001 -32c-35.333 0 -71.666 2.83301 -108.999 8.5s-57.333 9.5 -60 11.5v284zM874 1281c-28.667 0 -54.667 4.66602 -78 13.999s-43.333 22.333 -60 39c-34.667 36 -52 81.667 -52 137c0 56.667 20 104.334 60 143.001
c41.333 40.667 90 61 146 61c56.667 0 102 -17.667 136 -53c33.333 -34 50 -79.333 50 -136c0 -56 -19.333 -104 -58 -144c-40 -40.667 -88 -61 -144 -61zM356 1281c-28.667 0 -54.666 4.66699 -77.999 14s-43.333 22.333 -60 39c-34.667 36 -52 81.667 -52 137
c0 56 20.333 103.667 61 143c41.333 40.667 89.666 61 144.999 61c88 0 146 -37.333 174 -112c8.66699 -23.333 13 -49 13 -77c0 -56 -19.667 -104 -59 -144c-39.333 -40.667 -87.333 -61 -144 -61z" />
    <glyph glyph-name="Amacron" unicode="&#x100;" horiz-adv-x="1460" 
d="M511 1532h434l534 -1532h-404l-84 284h-531l-80 -284h-399zM912 550l-141 477l-50 197l-51 -197l-135 -477h377zM423 1909h619v-234h-619v234z" />
    <glyph glyph-name="amacron" unicode="&#x101;" horiz-adv-x="1263" 
d="M775 96c-85.333 -74.667 -191.334 -112 -318.001 -112c-112 0 -202.333 34 -271 102c-67.333 68 -101 155.333 -101 262c0 67.333 18.333 125.5 55 174.5s79.5 84 128.5 105s93.333 36.167 133 45.5s79.834 16.333 120.501 21c68.667 8 146.667 12 234 12v69
c0 50 -13.333 83 -40 99c-28 16 -84 24 -168 24c-68 0 -154.333 -16 -259 -48c-31.333 -10 -59.666 -21 -84.999 -33l-75 218c82 50 198.333 87.667 349 113c50.667 8 111.167 12 181.5 12s136.833 -7.66699 199.5 -23s113.667 -40.333 153 -75
c74.667 -64.667 112 -175.667 112 -333v-745h-232c-42.667 0 -70.334 4 -83.001 12c-22.667 15.333 -34 46 -34 92v8zM466.999 362c0 -24 4.00098 -45.666 12.001 -64.999s19 -35.333 33 -48c26 -24.667 59.333 -37 100 -37c43.333 0 83.666 10.667 120.999 32
c10 5.33301 17.667 10.666 23 15.999v268c-83.333 0 -150 -11.667 -200 -35c-59.333 -22 -89 -65.667 -89 -131zM329 1642h619v-238h-619v238z" />
    <glyph glyph-name="Abreve" unicode="&#x102;" horiz-adv-x="1460" 
d="M511 1532h434l534 -1532h-404l-84 284h-531l-80 -284h-399zM912 550l-141 477l-50 197l-51 -197l-135 -477h377zM729 1595c-64 0 -120.332 8.99902 -168.999 26.999c-143.333 52 -215 163.667 -215 335v7h224c10 -92.667 64 -139 162 -139c60 0 103.333 17.333 130 52
c16 20.667 27 49.667 33 87h220v-6c0 -109.333 -32.667 -196.666 -98 -261.999c-68.667 -67.333 -164.334 -101 -287.001 -101z" />
    <glyph glyph-name="abreve" unicode="&#x103;" horiz-adv-x="1263" 
d="M775 96c-85.333 -74.667 -191.334 -112 -318.001 -112c-112 0 -202.333 34 -271 102c-67.333 68 -101 155.333 -101 262c0 67.333 18.333 125.5 55 174.5s79.5 84 128.5 105s93.333 36.167 133 45.5s79.834 16.333 120.501 21c68.667 8 146.667 12 234 12v69
c0 50 -13.333 83 -40 99c-28 16 -84 24 -168 24c-68 0 -154.333 -16 -259 -48c-31.333 -10 -59.666 -21 -84.999 -33l-75 218c82 50 198.333 87.667 349 113c50.667 8 111.167 12 181.5 12s136.833 -7.66699 199.5 -23s113.667 -40.333 153 -75
c74.667 -64.667 112 -175.667 112 -333v-745h-232c-42.667 0 -70.334 4 -83.001 12c-22.667 15.333 -34 46 -34 92v8zM466.999 362c0 -24 4.00098 -45.666 12.001 -64.999s19 -35.333 33 -48c26 -24.667 59.333 -37 100 -37c43.333 0 83.666 10.667 120.999 32
c10 5.33301 17.667 10.666 23 15.999v268c-83.333 0 -150 -11.667 -200 -35c-59.333 -22 -89 -65.667 -89 -131zM637 1286c-62 0 -117.333 10 -166 30c-96 39.333 -160.667 110 -194 212c-16 46.667 -24 97.667 -24 153v7h227c4.66699 -42.667 13.334 -74 26.001 -94
c27.333 -43.333 71.666 -65 132.999 -65c59.333 0 102 20.333 128 61c14 21.333 24.667 54 32 98h224v-6c0 -114.667 -33.333 -208.667 -100 -282c-70 -76 -165.333 -114 -286 -114z" />
    <glyph glyph-name="Aogonek" unicode="&#x104;" horiz-adv-x="1460" 
d="M1475 -449c-71.333 -44.667 -157.332 -67.001 -257.999 -67.001c-76.667 0 -141 18.333 -193 55c-58.667 40.667 -88 95 -88 163c0 120 78.667 219.333 236 298h-97l-84 284h-531l-80 -284h-399l530 1532h434l534 -1532h-67c-114 -63.333 -171 -130.666 -171 -201.999
c0 -64.667 41.667 -97 125 -97c31.333 0 67.666 6.66699 108.999 20v-170zM912.001 549.999l-141 477l-50 197l-51 -197l-135 -477h377z" />
    <glyph glyph-name="aogonek" unicode="&#x105;" horiz-adv-x="1263" 
d="M775 96c-85.333 -74.667 -191.336 -112 -318.003 -112c-112 0 -202.333 34 -271 102c-67.333 68 -101 155.333 -101 262c0 67.333 18.333 125.5 55 174.5s79.5 84 128.5 105s93.333 36.167 133 45.5s79.834 16.333 120.501 21c68.667 8 146.667 12 234 12v69
c0 50 -13.333 83 -40 99c-28 16 -84 24 -168 24c-68 0 -154.333 -16 -259 -48c-31.333 -10 -59.666 -21 -84.999 -33l-75 218c82 50 198.333 87.667 349 113c50.667 8 111.167 12 181.5 12s136.833 -7.66699 199.5 -23s113.667 -40.333 153 -75
c74.667 -64.667 112 -175.667 112 -333v-745h-82c-52 -30 -87.333 -55.667 -106 -77c-35.333 -40 -51.833 -77.833 -49.5 -113.5s14.833 -60 37.5 -73s50.834 -19.5 84.501 -19.5s71.167 6.66699 112.5 20v-170c-71.333 -44.667 -157.333 -67 -258 -67
c-76.667 0 -141 18.333 -193 55c-58.667 40.667 -88 95 -88 163c0 118.667 75.667 216.667 227 294c-22.667 12 -34 42.667 -34 92v8zM466.997 362c0 -24 4.00098 -45.666 12.001 -64.999s19 -35.333 33 -48c26 -24.667 59.333 -37 100 -37
c43.333 0 83.666 10.667 120.999 32c10 5.33301 17.667 10.666 23 15.999v268c-83.333 0 -150 -11.667 -200 -35c-59.333 -22 -89 -65.667 -89 -131z" />
    <glyph glyph-name="Cacute" unicode="&#x106;" horiz-adv-x="1306" 
d="M1212 1148c-85.333 58.667 -191 88.001 -317 88.001c-120.667 0 -219 -39.333 -295 -118c-80 -82 -120 -194.333 -120 -337c0 -154 36.333 -275.333 109 -364c76 -92.667 183.333 -139 322 -139c93.333 0 185 21.667 275 65c24 11.333 42.333 22.333 55 33l1 -312
c-93.333 -37.333 -167.833 -60 -223.5 -68s-105.834 -12 -150.501 -12c-248 0 -441.333 70 -580 210c-135.333 136.667 -203 324.667 -203 564c0 248.667 75.667 443 227 583c141.333 131.333 325.333 197 552 197c116.667 0 225.334 -14.667 326.001 -44
c24.667 -6.66699 48.667 -12.334 72 -17.001zM695 1666c108 108 185.999 199.333 233.999 274c12.667 18.667 21.334 34.667 26.001 48l262 -130c-60.667 -89.333 -140 -174.333 -238 -255c-44 -36.667 -81 -59.667 -111 -69z" />
    <glyph glyph-name="cacute" unicode="&#x107;" horiz-adv-x="1048" 
d="M476 1396c123.333 123.333 236.333 266.332 339 428.999l243 -189c-38.667 -91.333 -131 -194.666 -277 -309.999c-52 -40.667 -96 -70 -132 -88zM950 308.999l45.002 -208.998c-52.667 -52.667 -135.667 -88.334 -249 -107.001c-36 -6 -72.333 -9 -109 -9
c-181.333 0 -320.333 54.667 -417 164c-90 100.667 -135 237.667 -135 411c0 176.667 46.667 317.667 140 423c102 116 248.333 174 439 174c110 0 200.667 -12.333 272 -37c19.333 -6.66699 33.666 -13.334 42.999 -20.001l-42 -278c-54.667 31.333 -129 47 -223 47
c-110 0 -186.667 -49.333 -230 -148c-16 -38 -24 -85.5 -24 -142.5s6.33301 -104.833 19 -143.5s30.667 -70.667 54 -96c44 -46.667 109.667 -70 197 -70s160.666 13.667 219.999 41z" />
    <glyph glyph-name="Ccircumflex" unicode="&#x108;" horiz-adv-x="1306" 
d="M1212 1148c-85.333 58.667 -191 88.001 -317 88.001c-120.667 0 -219 -39.333 -295 -118c-80 -82 -120 -194.333 -120 -337c0 -154 36.333 -275.333 109 -364c76 -92.667 183.333 -139 322 -139c93.333 0 185 21.667 275 65c24 11.333 42.333 22.333 55 33l1 -312
c-93.333 -37.333 -167.833 -60 -223.5 -68s-105.834 -12 -150.501 -12c-248 0 -441.333 70 -580 210c-135.333 136.667 -203 324.667 -203 564c0 248.667 75.667 443 227 583c141.333 131.333 325.333 197 552 197c116.667 0 225.334 -14.667 326.001 -44
c24.667 -6.66699 48.667 -12.334 72 -17.001zM439 1656l284 308h234l285 -306l-178 -116l-224 193l-223 -193z" />
    <glyph glyph-name="ccircumflex" unicode="&#x109;" horiz-adv-x="1048" 
d="M212 1363l305 370h223l304 -370l-177 -114l-239 227l-240 -227zM950 309l45.002 -208.998c-52.667 -52.667 -135.667 -88.334 -249 -107.001c-36 -6 -72.333 -9 -109 -9c-181.333 0 -320.333 54.667 -417 164c-90 100.667 -135 237.667 -135 411
c0 176.667 46.667 317.667 140 423c102 116 248.333 174 439 174c110 0 200.667 -12.333 272 -37c19.333 -6.66699 33.666 -13.334 42.999 -20.001l-42 -278c-54.667 31.333 -129 47 -223 47c-110 0 -186.667 -49.333 -230 -148c-16 -38 -24 -85.5 -24 -142.5
s6.33301 -104.833 19 -143.5s30.667 -70.667 54 -96c44 -46.667 109.667 -70 197 -70s160.666 13.667 219.999 41z" />
    <glyph glyph-name="Cdotaccent" unicode="&#x10a;" horiz-adv-x="1306" 
d="M698.5 1642c-34.333 30.667 -51.5 74.333 -51.5 131c0 55.333 20 101 60 137c39.333 35.333 89.333 53 150 53s107.667 -15 141 -45s50 -73.667 50 -131c0 -55.333 -19.667 -101 -59 -137c-38 -36 -87.333 -54 -148 -54s-108.167 15.333 -142.5 46zM1212 1148
c-85.333 58.667 -191 88.001 -317 88.001c-120.667 0 -219 -39.333 -295 -118c-80 -82 -120 -194.333 -120 -337c0 -154 36.333 -275.333 109 -364c76 -92.667 183.333 -139 322 -139c93.333 0 185 21.667 275 65c24 11.333 42.333 22.333 55 33l1 -312
c-93.333 -37.333 -167.833 -60 -223.5 -68s-105.834 -12 -150.501 -12c-248 0 -441.333 70 -580 210c-135.333 136.667 -203 324.667 -203 564c0 248.667 75.667 443 227 583c141.333 131.333 325.333 197 552 197c116.667 0 225.334 -14.667 326.001 -44
c24.667 -6.66699 48.667 -12.334 72 -17.001z" />
    <glyph glyph-name="cdotaccent" unicode="&#x10b;" horiz-adv-x="1048" 
d="M950 309l45.002 -208.998c-52.667 -52.667 -135.667 -88.334 -249 -107.001c-36 -6 -72.333 -9 -109 -9c-181.333 0 -320.333 54.667 -417 164c-90 100.667 -135 237.667 -135 411c0 176.667 46.667 317.667 140 423c102 116 248.333 174 439 174
c110 0 200.667 -12.333 272 -37c19.333 -6.66699 33.666 -13.334 42.999 -20.001l-42 -278c-54.667 31.333 -129 47 -223 47c-110 0 -186.667 -49.333 -230 -148c-16 -38 -24 -85.5 -24 -142.5s6.33301 -104.833 19 -143.5s30.667 -70.667 54 -96
c44 -46.667 109.667 -70 197 -70s160.666 13.667 219.999 41zM612.002 1279c-60 0 -109 17.667 -147 53c-39.333 36.667 -59 83 -59 139s22.167 104.333 66.5 145s96.5 61 156.5 61s109 -17.667 147 -53s57 -81.333 57 -138c0 -56 -21.667 -104.667 -65 -146
c-43.333 -40.667 -95.333 -61 -156 -61z" />
    <glyph glyph-name="Ccaron" unicode="&#x10c;" horiz-adv-x="1306" 
d="M1212 1148c-85.333 58.667 -191 88.001 -317 88.001c-120.667 0 -219 -39.333 -295 -118c-80 -82 -120 -194.333 -120 -337c0 -154 36.333 -275.333 109 -364c76 -92.667 183.333 -139 322 -139c93.333 0 185 21.667 275 65c24 11.333 42.333 22.333 55 33l1 -312
c-93.333 -37.333 -167.833 -60 -223.5 -68s-105.834 -12 -150.501 -12c-248 0 -441.333 70 -580 210c-135.333 136.667 -203 324.667 -203 564c0 248.667 75.667 443 227 583c141.333 131.333 325.333 197 552 197c116.667 0 225.334 -14.667 326.001 -44
c24.667 -6.66699 48.667 -12.334 72 -17.001zM442 1849l176 115l223 -167l224 167l175 -115l-282 -291h-234z" />
    <glyph glyph-name="ccaron" unicode="&#x10d;" horiz-adv-x="1048" 
d="M208 1627l176 113l240 -227l239 227l177 -114l-304 -369h-223zM950 309l45.002 -208.998c-52.667 -52.667 -135.667 -88.334 -249 -107.001c-36 -6 -72.333 -9 -109 -9c-181.333 0 -320.333 54.667 -417 164c-90 100.667 -135 237.667 -135 411
c0 176.667 46.667 317.667 140 423c102 116 248.333 174 439 174c110 0 200.667 -12.333 272 -37c19.333 -6.66699 33.666 -13.334 42.999 -20.001l-42 -278c-54.667 31.333 -129 47 -223 47c-110 0 -186.667 -49.333 -230 -148c-16 -38 -24 -85.5 -24 -142.5
s6.33301 -104.833 19 -143.5s30.667 -70.667 54 -96c44 -46.667 109.667 -70 197 -70s160.666 13.667 219.999 41z" />
    <glyph glyph-name="Dcaron" unicode="&#x10e;" horiz-adv-x="1561" 
d="M379 1849l176 115l223 -167l224 167l175 -115l-282 -291h-234zM713 -16l-406.001 15.999h-134v1522h140l417 16c376 0 610 -142 702 -426c30 -92 45 -199.667 45 -323s-17.333 -235.666 -52 -336.999c-69.333 -203.333 -200.333 -341.333 -393 -414
c-93.333 -36 -199.666 -54 -318.999 -54zM723.999 1263c-56 0 -111.999 -4.33203 -167.999 -12.999v-970c36 -10 87.333 -15 154 -15s121.667 10 165 30s80.333 50.333 111 91c63.333 85.333 95 211.666 95 378.999c0 180 -30.333 309 -91 387
c-56.667 74 -145.334 111 -266.001 111z" />
    <glyph glyph-name="dcaron" unicode="&#x10f;" horiz-adv-x="1707" 
d="M882 118c-89.333 -89.333 -204.333 -134 -345 -134c-129.333 0 -235 45 -317 135c-90 98.667 -135 236 -135 412c0 192 53 344.333 159 457c106 112 246.667 168 422 168c69.333 0 132 -9.33301 188 -28l-3 122v412h370v-1678h-284c-36.667 0 -55 18 -55 54v80zM851 868
c-28.667 21.333 -70 32 -124 32s-94.5 -7.33301 -121.5 -22s-50.167 -36.667 -69.5 -66c-42 -61.333 -63 -149 -63 -263c0 -150.667 37 -241.667 111 -273c24 -10 50.667 -15 80 -15c72.667 0 135 17.333 187 52v555zM1661 1723c56.667 -50 85 -146.332 85 -288.999
c0 -140.667 -33 -267 -99 -379c-17.333 -29.333 -34 -52.333 -50 -69l-157 41l-8 35c16.667 70 25 157.667 25 263v22c0 103.333 -20.333 176.666 -61 219.999l11 67z" />
    <glyph glyph-name="Dcroat" unicode="&#x110;" horiz-adv-x="1561" 
d="M713 -16l-406.001 15.999h-134v675h-113v238h113v609h140l417 16c376 0 610 -142 702 -426c30 -92 45 -199.667 45 -323s-17.333 -235.666 -52 -336.999c-69.333 -203.333 -200.333 -341.333 -393 -414c-93.333 -36 -199.666 -54 -318.999 -54zM723.999 1263
c-56 0 -111.999 -4.33203 -167.999 -12.999v-337h294v-238h-294v-395c36 -10 87.333 -15 154 -15s121.667 10 165 30s80.333 50.333 111 91c63.333 85.333 95 211.666 95 378.999c0 180 -30.333 309 -91 387c-56.667 74 -145.334 111 -266.001 111z" />
    <glyph glyph-name="dcroat" unicode="&#x111;" horiz-adv-x="1381" 
d="M882 118c-89.333 -89.333 -204.333 -134 -345 -134c-129.333 0 -235 45 -317 135c-90 98.667 -135 236 -135 412c0 192 53 344.333 159 457c106 112 246.667 168 422 168c69.333 0 132 -9.33301 188 -28l-3 122v42h-217v200h217v170h370v-170h128v-200h-128v-1308h-284
c-36.667 0 -55 18 -55 54v80zM851 868c-28.667 21.333 -70 32 -124 32s-94.5 -7.33301 -121.5 -22s-50.167 -36.667 -69.5 -66c-42 -61.333 -63 -149 -63 -263c0 -150.667 37 -241.667 111 -273c24 -10 50.667 -15 80 -15c72.667 0 135 17.333 187 52v555z" />
    <glyph glyph-name="Emacron" unicode="&#x112;" horiz-adv-x="1270" 
d="M393 1909h619v-234h-619v234zM173 1522h962v-284h-585v-322h451v-277h-451v-348h645v-291h-1022v1522z" />
    <glyph glyph-name="emacron" unicode="&#x113;" horiz-adv-x="1221" 
d="M455 483c14.667 -158 109.669 -237 285.002 -237c87.333 0 170.666 12 249.999 36c23.333 7.33301 42 14.666 56 21.999l57 -197c-66 -54 -167.667 -91.667 -305 -113c-46 -6.66699 -104.667 -10 -176 -10s-142.333 13.5 -213 40.5s-130 65.833 -178 116.5
c-97.333 102.667 -146 247.334 -146 434.001c0 170 50 308.333 150 415c103.333 110.667 244 166 422 166c219.333 0 365 -78.667 437 -236c27.333 -60 41.166 -133 41.499 -219s-3.5 -158.667 -11.5 -218h-669zM793.002 668c0.666992 14.667 1.00098 28.665 1.00098 41.998
c0 62.667 -10 112.834 -30 150.501s-58.333 56.5 -115 56.5c-82.667 0 -138.667 -43.667 -168 -131c-10.667 -31.333 -18.334 -70.666 -23.001 -117.999h335zM343.003 1642h619v-238h-619v238z" />
    <glyph glyph-name="Ebreve" unicode="&#x114;" horiz-adv-x="1270" 
d="M699 1595c-64 0 -120.332 8.99902 -168.999 26.999c-143.333 52 -215 163.667 -215 335v7h224c10 -92.667 64 -139 162 -139c60 0 103.333 17.333 130 52c16 20.667 27 49.667 33 87h220v-6c0 -109.333 -32.667 -196.666 -98 -261.999
c-68.667 -67.333 -164.334 -101 -287.001 -101zM173.001 1522h962v-284h-585v-322h451v-277h-451v-348h645v-291h-1022v1522z" />
    <glyph glyph-name="ebreve" unicode="&#x115;" horiz-adv-x="1221" 
d="M455 483c14.667 -158 109.669 -237 285.002 -237c87.333 0 170.666 12 249.999 36c23.333 7.33301 42 14.666 56 21.999l57 -197c-66 -54 -167.667 -91.667 -305 -113c-46 -6.66699 -104.667 -10 -176 -10s-142.333 13.5 -213 40.5s-130 65.833 -178 116.5
c-97.333 102.667 -146 247.334 -146 434.001c0 170 50 308.333 150 415c103.333 110.667 244 166 422 166c219.333 0 365 -78.667 437 -236c27.333 -60 41.166 -133 41.499 -219s-3.5 -158.667 -11.5 -218h-669zM793.002 668c0.666992 14.667 1.00098 28.665 1.00098 41.998
c0 62.667 -10 112.834 -30 150.501s-58.333 56.5 -115 56.5c-82.667 0 -138.667 -43.667 -168 -131c-10.667 -31.333 -18.334 -70.666 -23.001 -117.999h335zM652.003 1286c-62 0 -117.333 10 -166 30c-96 39.333 -160.667 110 -194 212c-16 46.667 -24 97.667 -24 153v7
h227c4.66699 -42.667 13.334 -74 26.001 -94c27.333 -43.333 71.666 -65 132.999 -65c59.333 0 102 20.333 128 61c14 21.333 24.667 54 32 98h224v-6c0 -114.667 -33.333 -208.667 -100 -282c-70 -76 -165.333 -114 -286 -114z" />
    <glyph glyph-name="Edotaccent" unicode="&#x116;" horiz-adv-x="1270" 
d="M558.5 1642c-34.333 30.667 -51.5 74.333 -51.5 131c0 55.333 20 101 60 137c39.333 35.333 89.333 53 150 53s107.667 -15 141 -45s50 -73.667 50 -131c0 -55.333 -19.667 -101 -59 -137c-38 -36 -87.333 -54 -148 -54s-108.167 15.333 -142.5 46zM173 1522h962v-284
h-585v-322h451v-277h-451v-348h645v-291h-1022v1522z" />
    <glyph glyph-name="edotaccent" unicode="&#x117;" horiz-adv-x="1221" 
d="M455 483c14.667 -158 109.669 -237 285.002 -237c87.333 0 170.666 12 249.999 36c23.333 7.33301 42 14.666 56 21.999l57 -197c-66 -54 -167.667 -91.667 -305 -113c-46 -6.66699 -104.667 -10 -176 -10s-142.333 13.5 -213 40.5s-130 65.833 -178 116.5
c-97.333 102.667 -146 247.334 -146 434.001c0 170 50 308.333 150 415c103.333 110.667 244 166 422 166c219.333 0 365 -78.667 437 -236c27.333 -60 41.166 -133 41.499 -219s-3.5 -158.667 -11.5 -218h-669zM793.002 668c0.666992 14.667 1.00098 28.665 1.00098 41.998
c0 62.667 -10 112.834 -30 150.501s-58.333 56.5 -115 56.5c-82.667 0 -138.667 -43.667 -168 -131c-10.667 -31.333 -18.334 -70.666 -23.001 -117.999h335zM638.003 1279c-60 0 -109 17.667 -147 53c-39.333 36.667 -59 83 -59 139s22.167 104.333 66.5 145
s96.5 61 156.5 61s109 -17.667 147 -53s57 -81.333 57 -138c0 -56 -21.667 -104.667 -65 -146c-43.333 -40.667 -95.333 -61 -156 -61z" />
    <glyph glyph-name="Eogonek" unicode="&#x118;" horiz-adv-x="1257" 
d="M1198 -449c-71.333 -44.667 -157.331 -67.001 -257.998 -67.001c-76.667 0 -141.334 18.333 -194.001 55c-58 40.667 -87 95 -87 163c0 120 78.667 219.333 236 298h-722v1522h962v-284h-585v-322h451v-277h-451v-348h645v-291h-60
c-114 -63.333 -171 -130.666 -171 -201.999c0 -64.667 41.667 -97 125 -97c31.333 0 67.666 6.66699 108.999 20v-170z" />
    <glyph glyph-name="eogonek" unicode="&#x119;" horiz-adv-x="1221" 
d="M1089 -449c-71.333 -44.667 -157.332 -67 -257.999 -67c-76 0 -140.667 18.667 -194 56c-58 41.333 -87 97.333 -87 168c0 110 58.667 203 176 279l-36 -2c-12 -0.666992 -24.333 -1 -37 -1c-182 0 -322.667 52.333 -422 157c-97.333 102.667 -146 247.334 -146 434.001
c0 170 50 308.333 150 415c103.333 110.667 244 166 422 166c219.333 0 365 -78.667 437 -236c27.333 -60 41.166 -133 41.499 -219s-3.5 -158.667 -11.5 -218h-669c14.667 -158 109.667 -237 285 -237c87.333 0 170.666 12 249.999 36c23.333 7.33301 42 14.666 56 21.999
l57 -197c-25.333 -20 -57.666 -38.667 -96.999 -56c-52.667 -46.667 -88.667 -84 -108 -112c-34 -50 -51 -96.667 -51 -140c0 -65.333 44.333 -98 133 -98c30 0 66.333 6.66699 109 20v-170zM793.001 668c0.666992 14.667 1.00098 28.665 1.00098 41.998
c0 62.667 -10 112.834 -30 150.501s-58.333 56.5 -115 56.5c-82.667 0 -138.667 -43.667 -168 -131c-10.667 -31.333 -18.334 -70.666 -23.001 -117.999h335z" />
    <glyph glyph-name="Ecaron" unicode="&#x11a;" horiz-adv-x="1270" 
d="M303 1849l176 115l223 -167l224 167l175 -115l-282 -291h-234zM173 1522h962v-284h-585v-322h451v-277h-451v-348h645v-291h-1022v1522z" />
    <glyph glyph-name="ecaron" unicode="&#x11b;" horiz-adv-x="1221" 
d="M233 1627l176 113l240 -227l239 227l177 -114l-304 -369h-223zM455 483c14.667 -158 109.669 -237 285.002 -237c87.333 0 170.666 12 249.999 36c23.333 7.33301 42 14.666 56 21.999l57 -197c-66 -54 -167.667 -91.667 -305 -113c-46 -6.66699 -104.667 -10 -176 -10
s-142.333 13.5 -213 40.5s-130 65.833 -178 116.5c-97.333 102.667 -146 247.334 -146 434.001c0 170 50 308.333 150 415c103.333 110.667 244 166 422 166c219.333 0 365 -78.667 437 -236c27.333 -60 41.166 -133 41.499 -219s-3.5 -158.667 -11.5 -218h-669z
M793.002 668c0.666992 14.667 1.00098 28.665 1.00098 41.998c0 62.667 -10 112.834 -30 150.501s-58.333 56.5 -115 56.5c-82.667 0 -138.667 -43.667 -168 -131c-10.667 -31.333 -18.334 -70.666 -23.001 -117.999h335z" />
    <glyph glyph-name="Gcircumflex" unicode="&#x11c;" horiz-adv-x="1508" 
d="M673 306.5c43.333 -25.667 102.832 -38.5 178.499 -38.5s139.834 10.667 192.501 32v266l-217 16v272h565v-768c-28 -0.666992 -61 -7.5 -99 -20.5l-97.5 -32.5c-27 -8.66699 -58.167 -16.667 -93.5 -24c-79.333 -16.667 -172.833 -25 -280.5 -25
s-207.5 17.333 -299.5 52s-170.333 84.667 -235 150c-134.667 137.333 -202 326.333 -202 567c0 351.333 129.667 587 389 707c112.667 52 245.667 78 399 78c122.667 0 239.667 -14 351 -42c28.667 -6.66699 57.334 -12.667 86.001 -18l-10 -318
c-106.667 53.333 -244 80 -412 80c-131.333 0 -233.333 -40.667 -306 -122c-72 -81.333 -108 -194 -108 -338c0 -152.667 30 -274.667 90 -366c29.333 -46 65.666 -81.833 108.999 -107.5zM440.999 1656l284 308h234l285 -306l-178 -116l-224 193l-223 -193z" />
    <glyph glyph-name="gcircumflex" unicode="&#x11d;" horiz-adv-x="1361" 
d="M238 1363l305 370h223l304 -370l-177 -114l-239 227l-240 -227zM516 429c-24 -21.333 -36.001 -47 -36.001 -77s10.667 -50.5 32 -61.5s59 -16.5 113 -16.5h226c164.667 0 284.334 -35 359.001 -105c61.333 -58 92 -138.333 92 -241
c0 -142.667 -67.333 -254.667 -202 -336c-120 -72 -264.667 -108 -434 -108c-301.333 0 -489.333 68 -564 204c-23.333 42 -35 88.5 -35 139.5s14.333 97.833 43 140.5s71.334 76.667 128.001 102c-61.333 34 -92 89.333 -92 166c0 71.333 32.667 133.333 98 186
c23.333 18.667 52.666 35.667 87.999 51c-152 61.333 -228 165.333 -228 312c0 184 100.667 299.667 302 347c65.333 15.333 140 23 224 23c166 0 294.667 -28 386 -84c55.333 46 120 69 194 69h128v-255h-184c7.33301 -30.667 11 -68.334 11 -113.001
s-10.5 -89.667 -31.5 -135s-53.167 -83.666 -96.5 -114.999c-90 -66 -225.667 -99 -407 -99c-40 0 -78 2 -114 6zM749.999 644c38.667 32 57.999 79.667 57.999 143c0 118 -57 177 -171 177c-86.667 0 -141.667 -30.333 -165 -91c-8.66699 -22.667 -13 -56 -13 -100
s14.333 -81 43 -111s71.834 -45 129.501 -45s97.167 9 118.5 27zM473.998 11c-23.333 -33.333 -35 -71.667 -35 -115c0 -96 39 -160.333 117 -193c30 -12.667 66.333 -19 109 -19s80 3 112 9s59.667 15.667 83 29c49.333 29.333 74 73 74 131c0 52 -10.333 87 -31 105
c-39.333 35.333 -101.333 53 -186 53h-243z" />
    <glyph glyph-name="Gbreve" unicode="&#x11e;" horiz-adv-x="1508" 
d="M840 1595c-64 0 -120.332 8.99902 -168.999 26.999c-143.333 52 -215 163.667 -215 335v7h224c10 -92.667 64 -139 162 -139c60 0 103.333 17.333 130 52c16 20.667 27 49.667 33 87h220v-6c0 -109.333 -32.667 -196.666 -98 -261.999
c-68.667 -67.333 -164.334 -101 -287.001 -101zM673.001 306.499c43.333 -25.667 102.832 -38.5 178.499 -38.5s139.834 10.667 192.501 32v266l-217 16v272h565v-768c-28 -0.666992 -61 -7.5 -99 -20.5l-97.5 -32.5c-27 -8.66699 -58.167 -16.667 -93.5 -24
c-79.333 -16.667 -172.833 -25 -280.5 -25s-207.5 17.333 -299.5 52s-170.333 84.667 -235 150c-134.667 137.333 -202 326.333 -202 567c0 351.333 129.667 587 389 707c112.667 52 245.667 78 399 78c122.667 0 239.667 -14 351 -42
c28.667 -6.66699 57.334 -12.667 86.001 -18l-10 -318c-106.667 53.333 -244 80 -412 80c-131.333 0 -233.333 -40.667 -306 -122c-72 -81.333 -108 -194 -108 -338c0 -152.667 30 -274.667 90 -366c29.333 -46 65.666 -81.833 108.999 -107.5z" />
    <glyph glyph-name="gbreve" unicode="&#x11f;" horiz-adv-x="1361" 
d="M516 429c-24 -21.333 -36.001 -47 -36.001 -77s10.667 -50.5 32 -61.5s59 -16.5 113 -16.5h226c164.667 0 284.334 -35 359.001 -105c61.333 -58 92 -138.333 92 -241c0 -142.667 -67.333 -254.667 -202 -336c-120 -72 -264.667 -108 -434 -108
c-301.333 0 -489.333 68 -564 204c-23.333 42 -35 88.5 -35 139.5s14.333 97.833 43 140.5s71.334 76.667 128.001 102c-61.333 34 -92 89.333 -92 166c0 71.333 32.667 133.333 98 186c23.333 18.667 52.666 35.667 87.999 51c-152 61.333 -228 165.333 -228 312
c0 184 100.667 299.667 302 347c65.333 15.333 140 23 224 23c166 0 294.667 -28 386 -84c55.333 46 120 69 194 69h128v-255h-184c7.33301 -30.667 11 -68.334 11 -113.001s-10.5 -89.667 -31.5 -135s-53.167 -83.666 -96.5 -114.999c-90 -66 -225.667 -99 -407 -99
c-40 0 -78 2 -114 6zM749.999 644c38.667 32 57.999 79.667 57.999 143c0 118 -57 177 -171 177c-86.667 0 -141.667 -30.333 -165 -91c-8.66699 -22.667 -13 -56 -13 -100s14.333 -81 43 -111s71.834 -45 129.501 -45s97.167 9 118.5 27zM473.998 11
c-23.333 -33.333 -35 -71.667 -35 -115c0 -96 39 -160.333 117 -193c30 -12.667 66.333 -19 109 -19s80 3 112 9s59.667 15.667 83 29c49.333 29.333 74 73 74 131c0 52 -10.333 87 -31 105c-39.333 35.333 -101.333 53 -186 53h-243zM650.998 1286
c-62 0 -117.333 10 -166 30c-96 39.333 -160.667 110 -194 212c-16 46.667 -24 97.667 -24 153v7h227c4.66699 -42.667 13.334 -74 26.001 -94c27.333 -43.333 71.666 -65 132.999 -65c59.333 0 102 20.333 128 61c14 21.333 24.667 54 32 98h224v-6
c0 -114.667 -33.333 -208.667 -100 -282c-70 -76 -165.333 -114 -286 -114z" />
    <glyph glyph-name="Gdotaccent" unicode="&#x120;" horiz-adv-x="1508" 
d="M700.5 1642c-34.333 30.667 -51.5 74.333 -51.5 131c0 55.333 20 101 60 137c39.333 35.333 89.333 53 150 53s107.667 -15 141 -45s50 -73.667 50 -131c0 -55.333 -19.667 -101 -59 -137c-38 -36 -87.333 -54 -148 -54s-108.167 15.333 -142.5 46zM673 306.499
c43.333 -25.667 102.832 -38.5 178.499 -38.5s139.834 10.667 192.501 32v266l-217 16v272h565v-768c-28 -0.666992 -61 -7.5 -99 -20.5l-97.5 -32.5c-27 -8.66699 -58.167 -16.667 -93.5 -24c-79.333 -16.667 -172.833 -25 -280.5 -25s-207.5 17.333 -299.5 52
s-170.333 84.667 -235 150c-134.667 137.333 -202 326.333 -202 567c0 351.333 129.667 587 389 707c112.667 52 245.667 78 399 78c122.667 0 239.667 -14 351 -42c28.667 -6.66699 57.334 -12.667 86.001 -18l-10 -318c-106.667 53.333 -244 80 -412 80
c-131.333 0 -233.333 -40.667 -306 -122c-72 -81.333 -108 -194 -108 -338c0 -152.667 30 -274.667 90 -366c29.333 -46 65.666 -81.833 108.999 -107.5z" />
    <glyph glyph-name="gdotaccent" unicode="&#x121;" horiz-adv-x="1361" 
d="M516 429c-24 -21.333 -36.001 -47 -36.001 -77s10.667 -50.5 32 -61.5s59 -16.5 113 -16.5h226c164.667 0 284.334 -35 359.001 -105c61.333 -58 92 -138.333 92 -241c0 -142.667 -67.333 -254.667 -202 -336c-120 -72 -264.667 -108 -434 -108
c-301.333 0 -489.333 68 -564 204c-23.333 42 -35 88.5 -35 139.5s14.333 97.833 43 140.5s71.334 76.667 128.001 102c-61.333 34 -92 89.333 -92 166c0 71.333 32.667 133.333 98 186c23.333 18.667 52.666 35.667 87.999 51c-152 61.333 -228 165.333 -228 312
c0 184 100.667 299.667 302 347c65.333 15.333 140 23 224 23c166 0 294.667 -28 386 -84c55.333 46 120 69 194 69h128v-255h-184c7.33301 -30.667 11 -68.334 11 -113.001s-10.5 -89.667 -31.5 -135s-53.167 -83.666 -96.5 -114.999c-90 -66 -225.667 -99 -407 -99
c-40 0 -78 2 -114 6zM749.999 644c38.667 32 57.999 79.667 57.999 143c0 118 -57 177 -171 177c-86.667 0 -141.667 -30.333 -165 -91c-8.66699 -22.667 -13 -56 -13 -100s14.333 -81 43 -111s71.834 -45 129.501 -45s97.167 9 118.5 27zM473.998 11
c-23.333 -33.333 -35 -71.667 -35 -115c0 -96 39 -160.333 117 -193c30 -12.667 66.333 -19 109 -19s80 3 112 9s59.667 15.667 83 29c49.333 29.333 74 73 74 131c0 52 -10.333 87 -31 105c-39.333 35.333 -101.333 53 -186 53h-243zM636.998 1279
c-60 0 -109 17.667 -147 53c-39.333 36.667 -59 83 -59 139s22.167 104.333 66.5 145s96.5 61 156.5 61s109 -17.667 147 -53s57 -81.333 57 -138c0 -56 -21.667 -104.667 -65 -146c-43.333 -40.667 -95.333 -61 -156 -61z" />
    <glyph glyph-name="Gcommaaccent" unicode="&#x122;" horiz-adv-x="1508" 
d="M686 -488c15.333 28 22.998 61.3311 22.998 99.998s-1.66699 64.5 -5 77.5s-7.66602 25.167 -12.999 36.5c-10 22.667 -21.667 37.667 -35 45v50l228 95c38.667 -12 68.334 -50.333 89.001 -115c6.66699 -22 10 -49.667 10 -83s-5.16699 -66.666 -15.5 -99.999
s-22.5 -62.666 -36.5 -87.999c-26 -46.667 -52.667 -76.667 -80 -90l-165 45v27zM672.998 306.498c43.333 -25.667 102.832 -38.5 178.499 -38.5s139.834 10.667 192.501 32v266l-217 16v272h565v-768c-28 -0.666992 -61 -7.5 -99 -20.5l-97.5 -32.5
c-27 -8.66699 -58.167 -16.667 -93.5 -24c-79.333 -16.667 -172.833 -25 -280.5 -25s-207.5 17.333 -299.5 52s-170.333 84.667 -235 150c-134.667 137.333 -202 326.333 -202 567c0 351.333 129.667 587 389 707c112.667 52 245.667 78 399 78
c122.667 0 239.667 -14 351 -42c28.667 -6.66699 57.334 -12.667 86.001 -18l-10 -318c-106.667 53.333 -244 80 -412 80c-131.333 0 -233.333 -40.667 -306 -122c-72 -81.333 -108 -194 -108 -338c0 -152.667 30 -274.667 90 -366
c29.333 -46 65.666 -81.833 108.999 -107.5z" />
    <glyph glyph-name="gcommaaccent" unicode="&#x123;" horiz-adv-x="1361" 
d="M667 1270c-58.667 4.66699 -109.667 30.6641 -153 77.9971c-48 52.667 -72 120.334 -72 203.001c0 78.667 22 150.334 66 215.001c38 55.333 78.667 90 122 104l144 -51v-21c-20 -32 -31.5 -60.167 -34.5 -84.5s-4.5 -46.5 -4.5 -66.5s2.16699 -39.167 6.5 -57.5
s10.5 -35.166 18.5 -50.499c16.667 -34 38 -53.667 64 -59v-77zM516 428.997c-24 -21.333 -36.001 -47 -36.001 -77s10.667 -50.5 32 -61.5s59 -16.5 113 -16.5h226c164.667 0 284.334 -35 359.001 -105c61.333 -58 92 -138.333 92 -241
c0 -142.667 -67.333 -254.667 -202 -336c-120 -72 -264.667 -108 -434 -108c-301.333 0 -489.333 68 -564 204c-23.333 42 -35 88.5 -35 139.5s14.333 97.833 43 140.5s71.334 76.667 128.001 102c-61.333 34 -92 89.333 -92 166c0 71.333 32.667 133.333 98 186
c23.333 18.667 52.666 35.667 87.999 51c-152 61.333 -228 165.333 -228 312c0 184 100.667 299.667 302 347c65.333 15.333 140 23 224 23c166 0 294.667 -28 386 -84c55.333 46 120 69 194 69h128v-255h-184c7.33301 -30.667 11 -68.334 11 -113.001
s-10.5 -89.667 -31.5 -135s-53.167 -83.666 -96.5 -114.999c-90 -66 -225.667 -99 -407 -99c-40 0 -78 2 -114 6zM749.999 643.997c38.667 32 57.999 79.667 57.999 143c0 118 -57 177 -171 177c-86.667 0 -141.667 -30.333 -165 -91c-8.66699 -22.667 -13 -56 -13 -100
s14.333 -81 43 -111s71.834 -45 129.501 -45s97.167 9 118.5 27zM473.998 10.9971c-23.333 -33.333 -35 -71.667 -35 -115c0 -96 39 -160.333 117 -193c30 -12.667 66.333 -19 109 -19s80 3 112 9s59.667 15.667 83 29c49.333 29.333 74 73 74 131c0 52 -10.333 87 -31 105
c-39.333 35.333 -101.333 53 -186 53h-243z" />
    <glyph glyph-name="Hcircumflex" unicode="&#x124;" horiz-adv-x="1632" 
d="M173 1522h383v-617h522v617h380v-1522h-380v631h-522v-631h-383v1522zM414 1656l284 308h234l285 -306l-178 -116l-224 193l-223 -193z" />
    <glyph glyph-name="hcircumflex" unicode="&#x125;" horiz-adv-x="1380" 
d="M159 1662h371v-428l-18 -213c68.667 58.667 152 99.667 250 123c38 9.33301 78 14 120 14c117.333 0 204.666 -35.667 261.999 -107s86 -183.333 86 -336v-715h-371v652c0 120.667 -27.333 189.667 -82 207c-16.667 5.33301 -31 8 -43 8h-28.5
c-7 0 -18.167 -1.33301 -33.5 -4s-31.333 -7 -48 -13c-37.333 -12.667 -68.666 -31.667 -93.999 -57v-793h-371v1662zM406 1656l284 308h234l285 -306l-178 -116l-224 193l-223 -193z" />
    <glyph glyph-name="Hbar" unicode="&#x126;" horiz-adv-x="1643" 
d="M173 1035h-145v220h145v267h385v-267h527v267h385v-267h148v-220h-148v-1035h-385v573h-527v-573h-385v1035zM1085 839v196h-527v-196h527z" />
    <glyph glyph-name="hbar" unicode="&#x127;" horiz-adv-x="1380" 
d="M159 1297h-129v202h129v163h371v-163h213v-202h-213v-63l-18 -213c68.667 58.667 152 99.667 250 123c38 9.33301 78 14 120 14c117.333 0 204.666 -35.667 261.999 -107s86 -183.333 86 -336v-715h-371v652c0 120.667 -27.333 189.667 -82 207
c-16.667 5.33301 -31 8 -43 8h-28.5c-7 0 -18.167 -1.33301 -33.5 -4s-31.333 -7 -48 -13c-37.333 -12.667 -68.666 -31.667 -93.999 -57v-793h-371v1297z" />
    <glyph glyph-name="Itilde" unicode="&#x128;" horiz-adv-x="754" 
d="M185 1522h384v-1522h-384v1522zM-70 1731c18 63.333 52.6631 116.331 103.996 158.998c59.333 48.667 127.333 73 204 73c54 0 94.667 -8.16699 122 -24.5s47.5 -30 60.5 -41l37.5 -31.5c28 -22.667 53.667 -34 77 -34s43 3.33301 59 10s31 15.334 45 26.001
c26.667 19.333 49.334 42.333 68.001 69l127 -136c-17.333 -64 -51.333 -117.667 -102 -161c-56.667 -50 -122.667 -75 -198 -75c-51.333 0 -90.833 8.33301 -118.5 25s-48.167 30.667 -61.5 42s-26.666 22 -39.999 32c-31.333 23.333 -58.666 35 -81.999 35
s-42.666 -3.16699 -57.999 -9.5s-30 -14.166 -44 -23.499c-24.667 -18 -47 -40.333 -67 -67z" />
    <glyph glyph-name="itilde" unicode="&#x129;" horiz-adv-x="690" 
d="M159 1140h372v-1140h-372v1140zM176 1434c-56.667 0 -110.667 -33.667 -162 -101l-133 133c17.333 63.333 52.333 116 105 158c59.333 48.667 128.333 73 207 73c57.333 0 100.166 -8.16699 128.499 -24.5s49 -30 62 -41l37.5 -31.5c28 -22.667 56.667 -34 86 -34
c57.333 0 113 35.333 167 106l127 -136c-17.333 -63.333 -51.666 -117.333 -102.999 -162c-58 -49.333 -125 -74 -201 -74c-51.333 0 -91.5 8.33301 -120.5 25s-50.333 30.667 -64 42s-27.5 22 -41.5 32c-31.333 23.333 -63 35 -95 35z" />
    <glyph glyph-name="Imacron" unicode="&#x12a;" horiz-adv-x="754" 
d="M185 1522h384v-1522h-384v1522zM69 1909h619v-234h-619v234z" />
    <glyph glyph-name="imacron" unicode="&#x12b;" horiz-adv-x="690" 
d="M159 1140h372v-1140h-372v1140zM36 1642h619v-238h-619v238z" />
    <glyph glyph-name="Ibreve" unicode="&#x12c;" horiz-adv-x="754" 
d="M185 1522h384v-1522h-384v1522zM375 1595c-64 0 -120.332 8.99902 -168.999 26.999c-143.333 52 -215 163.667 -215 335v7h224c10 -92.667 64 -139 162 -139c60 0 103.333 17.333 130 52c16 20.667 27 49.667 33 87h220v-6c0 -109.333 -32.667 -196.666 -98 -261.999
c-68.667 -67.333 -164.334 -101 -287.001 -101z" />
    <glyph glyph-name="ibreve" unicode="&#x12d;" horiz-adv-x="690" 
d="M159 1140h372v-1140h-372v1140zM344 1286c-62 0 -117.333 10 -166 30c-96 39.333 -160.667 110 -194 212c-16 46.667 -24 97.667 -24 153v7h227c4.66699 -42.667 13.334 -74 26.001 -94c27.333 -43.333 71.666 -65 132.999 -65c59.333 0 102 20.333 128 61
c14 21.333 24.667 54 32 98h224v-6c0 -114.667 -33.333 -208.667 -100 -282c-70 -76 -165.333 -114 -286 -114z" />
    <glyph glyph-name="Iogonek" unicode="&#x12e;" horiz-adv-x="759" 
d="M577 -449c-71.333 -44.667 -157.332 -66.999 -257.999 -66.999c-76.667 0 -141.667 18.333 -195 55c-60 40.667 -90 95 -90 163c0 61.333 24 120.333 72 177c38.667 44.667 90.667 85 156 121h-77v1522h384v-1522h-67c-108.667 -60.667 -163 -126.334 -163 -197.001
c0 -68 43 -102 129 -102c31.333 0 67.666 6.66699 108.999 20v-170z" />
    <glyph glyph-name="iogonek" unicode="&#x12f;" horiz-adv-x="690" 
d="M348 1279c-60 0 -109.333 17.667 -148 53c-38.667 36.667 -58 83 -58 139s22.167 104.333 66.5 145s96.5 61 156.5 61s109 -17.667 147 -53s57 -81.333 57 -138c0 -56 -21.667 -104.667 -65 -146c-43.333 -40.667 -95.333 -61 -156 -61zM556 -449
c-71.333 -44.667 -157.332 -66.999 -257.999 -66.999c-76.667 0 -142 18.333 -196 55c-59.333 40.667 -89 95 -89 163c0 61.333 24.333 120.333 73 177c38 44.667 89.667 85 155 121h-82v1140h372v-1140h-50c-108.667 -60.667 -163 -126.334 -163 -197.001
c0 -68 43 -102 129 -102c31.333 0 67.666 6.66699 108.999 20v-170z" />
    <glyph glyph-name="Idotaccent" unicode="&#x130;" horiz-adv-x="754" 
d="M185 1522h384v-1522h-384v1522zM234.5 1642c-34.333 30.667 -51.5 74.333 -51.5 131c0 55.333 20 101 60 137c39.333 35.333 89.333 53 150 53s107.667 -15 141 -45s50 -73.667 50 -131c0 -55.333 -19.667 -101 -59 -137c-38 -36 -87.333 -54 -148 -54
s-108.167 15.333 -142.5 46z" />
    <glyph glyph-name="dotlessi" unicode="&#x131;" horiz-adv-x="690" 
d="M159 1140h372v-1140h-372v1140z" />
    <glyph glyph-name="IJ" unicode="&#x132;" horiz-adv-x="1554" 
d="M185 1522h384v-1522h-384v1522zM1375 613l1.99805 -236.002c0 -121.333 -5.83301 -211.166 -17.5 -269.499s-29.167 -107.666 -52.5 -147.999s-50.666 -76.5 -81.999 -108.5s-65.666 -59.667 -102.999 -83c-104.667 -66.667 -206.667 -100 -306 -100h-14l-83 191
c60 24.667 104 49.667 132 75c68.667 64.667 111 152 127 262c8.66699 64.667 13 202 13 412v914h384v-909z" />
    <glyph glyph-name="ij" unicode="&#x133;" horiz-adv-x="1367" 
d="M965 -478c-54 -19.333 -117.667 -28.999 -191 -28.999s-136 8.66699 -188 26v234c22 -14.667 53.667 -22 95 -22s71.333 4.33301 90 13s33.667 23.334 45 44.001c22 41.333 33 112.666 33 213.999v1138h372v-1058c0 -310.667 -85.333 -497.334 -256 -560.001zM159 1140
h372v-1140h-372v1140zM348 1279c-60 0 -109 17.667 -147 53c-39.333 36.667 -59 83 -59 139s22.167 104.333 66.5 145s96.5 61 156.5 61s109 -17.667 147 -53s57 -81.333 57 -138c0 -56 -21.667 -104.667 -65 -146c-43.333 -40.667 -95.333 -61 -156 -61zM1032 1279
c-60 0 -109 17.667 -147 53c-39.333 36.667 -59 83 -59 139s22.167 104.333 66.5 145s96.5 61 156.5 61s109 -17.667 147 -53s57 -81.333 57 -138c0 -56 -21.667 -104.667 -65 -146c-43.333 -40.667 -95.333 -61 -156 -61z" />
    <glyph glyph-name="Jcircumflex" unicode="&#x134;" horiz-adv-x="800" 
d="M621 613l1.99805 -236.002c0 -121.333 -5.83301 -211.166 -17.5 -269.499s-29.167 -107.666 -52.5 -147.999s-50.666 -76.5 -81.999 -108.5s-65.666 -59.667 -102.999 -83c-104.667 -66.667 -206.667 -100 -306 -100h-14l-83 191c60 24.667 104 49.667 132 75
c68.667 64.667 111 152 127 262c8.66699 64.667 13 202 13 412v914h384v-909zM21.998 1656l284 308h234l285 -306l-178 -116l-224 193l-223 -193z" />
    <glyph glyph-name="jcircumflex" unicode="&#x135;" horiz-adv-x="677" 
d="M275 -478c-54 -19.333 -117.667 -28.999 -191 -28.999s-136 8.66699 -188 26v234c22 -14.667 53.667 -22 95 -22s71.333 4.33301 90 13s33.667 23.334 45 44.001c22 41.333 33 112.666 33 213.999v1138h372v-1058c0 -310.667 -85.333 -497.334 -256 -560.001zM-71 1363
l305 370h223l304 -370l-177 -114l-239 227l-240 -227z" />
    <glyph glyph-name="Kcommaaccent" unicode="&#x136;" horiz-adv-x="1468" 
d="M646 -488c15.333 28 22.998 61.3311 22.998 99.998s-1.66699 64.5 -5 77.5s-7.66602 25.167 -12.999 36.5c-10 22.667 -21.667 37.667 -35 45v50l228 95c38.667 -12 68.334 -50.333 89.001 -115c6.66699 -22 10 -49.667 10 -83s-5.16699 -66.666 -15.5 -99.999
s-22.5 -62.666 -36.5 -87.999c-26 -46.667 -52.667 -76.667 -80 -90l-165 45v27zM172.998 1522h379v-641l475 641h413l-499 -656c59.333 -84 142 -215.833 248 -395.5l212 -359.5l65 -111h-427c-8.66699 13.333 -17.5 28.833 -26.5 46.5l-61.5 117.5
c-74.667 140 -161.667 284.333 -261 433l-138 -165v-432h-379v1522z" />
    <glyph glyph-name="kcommaaccent" unicode="&#x137;" horiz-adv-x="1287" 
d="M550 -488c15.333 28 22.998 61.3311 22.998 99.998s-1.66699 64.5 -5 77.5s-7.66602 25.167 -12.999 36.5c-10 22.667 -21.667 37.667 -35 45v50l228 95c38.667 -12 68.334 -50.333 89.001 -115c6.66699 -22 10 -49.667 10 -83s-5.16699 -66.666 -15.5 -99.999
s-22.5 -62.666 -36.5 -87.999c-26 -46.667 -52.667 -76.667 -80 -90l-165 45v27zM158.998 1661h371v-629l-12 -312l340 420h421l-405 -441l432 -699h-411l-260 440l-108 -117l3 -134v-189h-371v1661z" />
    <glyph glyph-name="kgreenlandic" unicode="&#x138;" horiz-adv-x="1282" 
d="M164 1140h370v-311l-7 -147l338 458h411l-396 -462l425 -678h-421l-243 398l-107 -125v-273h-371z" />
    <glyph glyph-name="Lacute" unicode="&#x139;" horiz-adv-x="1122" 
d="M218 1666c108 108 185.999 199.333 233.999 274c12.667 18.667 21.334 34.667 26.001 48l262 -130c-60.667 -89.333 -140 -174.333 -238 -255c-44 -36.667 -81 -59.667 -111 -69zM172.999 1522h387v-1235h502v-287h-889v1522z" />
    <glyph glyph-name="lacute" unicode="&#x13a;" horiz-adv-x="697" 
d="M163 1525h371v-1525h-371v1525zM179 1666c108 108 186.333 199.333 235 274c12 18.667 20.333 34.667 25 48l262 -130c-60.667 -89.333 -139.667 -174.333 -237 -255c-44.667 -36.667 -82 -59.667 -112 -69z" />
    <glyph glyph-name="Lcommaaccent" unicode="&#x13b;" horiz-adv-x="1122" 
d="M483 -488c15.333 28 22.998 61.3311 22.998 99.998s-1.66699 64.5 -5 77.5s-7.66602 25.167 -12.999 36.5c-10 22.667 -21.667 37.667 -35 45v50l228 95c38.667 -12 68.334 -50.333 89.001 -115c6.66699 -22 10 -49.667 10 -83s-5.16699 -66.666 -15.5 -99.999
s-22.5 -62.666 -36.5 -87.999c-26 -46.667 -52.667 -76.667 -80 -90l-165 45v27zM172.998 1522h387v-1235h502v-287h-889v1522z" />
    <glyph glyph-name="lcommaaccent" unicode="&#x13c;" horiz-adv-x="697" 
d="M222 -488c15.333 28 22.998 61.3311 22.998 99.998s-1.66699 64.5 -5 77.5s-7.66602 25.167 -12.999 36.5c-10 22.667 -21.667 37.667 -35 45v50l228 95c38.667 -12 68.334 -50.333 89.001 -115c6.66699 -22 10 -49.667 10 -83s-5.16699 -66.666 -15.5 -99.999
s-22.5 -62.666 -36.5 -87.999c-26 -46.667 -52.667 -76.667 -80 -90l-165 45v27zM162.998 1662h371v-1662h-371v1662z" />
    <glyph glyph-name="Lcaron" unicode="&#x13d;" horiz-adv-x="1122" 
d="M173 1522h387v-1235h502v-287h-889v1522zM1046 1723c56.667 -50 85 -146.332 85 -288.999c0 -140.667 -33 -267 -99 -379c-17.333 -29.333 -34 -52.333 -50 -69l-157 41l-8 35c16.667 70 25 157.667 25 263v22c0 103.333 -20.333 176.666 -61 219.999l11 67z" />
    <glyph glyph-name="lcaron" unicode="&#x13e;" horiz-adv-x="1051" 
d="M163 1662h371v-1662h-371v1662zM964 1723c56.667 -50 85 -146.332 85 -288.999c0 -140.667 -33 -267 -99 -379c-17.333 -29.333 -34 -52.333 -50 -69l-157 41l-8 35c16.667 70 25 157.667 25 263v22c0 103.333 -20.333 176.666 -61 219.999l11 67z" />
    <glyph glyph-name="Ldot" unicode="&#x13f;" horiz-adv-x="1428" 
d="M861 843c0 60 21.667 113.001 65 159.001c43.333 45.333 96.333 68 159 68c62 0 112 -20 150 -60c36 -38.667 54 -88.667 54 -150c0 -62 -21 -115.333 -63 -160c-43.333 -45.333 -96 -68 -158 -68c-61.333 0 -111 20 -149 60c-38.667 41.333 -58 91.666 -58 150.999z
M173 1522h387v-1235h502v-287h-889v1522z" />
    <glyph glyph-name="ldot" unicode="&#x140;" horiz-adv-x="1069" 
d="M163 1662h371v-1662h-371v1662zM663 853c0 60 21.667 113.001 65 159.001c43.333 45.333 96.333 68 159 68c62 0 112 -20 150 -60c36 -38.667 54 -88.667 54 -150c0 -62 -21 -115.333 -63 -160c-43.333 -45.333 -96 -68 -158 -68c-61.333 0 -111 20 -149 60
c-38.667 41.333 -58 91.666 -58 150.999z" />
    <glyph glyph-name="Lslash" unicode="&#x141;" horiz-adv-x="1122" 
d="M173 598l-82 -30l-73 194l155 57v703h387v-560l252 93l73 -196l-325 -119v-453h502v-287h-889v598z" />
    <glyph glyph-name="lslash" unicode="&#x142;" horiz-adv-x="697" 
d="M163 690l-141 -51v226l141 53v744h371v-602l174 66v-236l-174 -64v-826h-371v690z" />
    <glyph glyph-name="Nacute" unicode="&#x143;" horiz-adv-x="1632" 
d="M676 1666c108 108 185.999 199.333 233.999 274c12.667 18.667 21.334 34.667 26.001 48l262 -130c-60.667 -89.333 -140 -174.333 -238 -255c-44 -36.667 -81 -59.667 -111 -69zM172.999 1522h356l519 -835l106 -222l-41 387v670h345v-1522h-383l-493 815l-111 230
l47 -387v-658h-345v1522z" />
    <glyph glyph-name="nacute" unicode="&#x144;" horiz-adv-x="1380" 
d="M625 1396c123.333 123.333 236.333 266.332 339 428.999l243 -189c-38.667 -91.333 -131 -194.666 -277 -309.999c-52 -40.667 -96 -70 -132 -88zM163 1140h338l9 -122c71.333 60 160.666 102.333 267.999 127c38 8.66699 80.167 13 126.5 13s90.5 -7.16699 132.5 -21.5
s77.667 -38.833 107 -73.5c57.333 -68.667 86 -183.667 86 -345v-718h-370v652c0 82.667 -10.667 139.667 -32 171c-20 29.333 -55.333 44 -106 44h-25.5c-15 0 -39.667 -6.33301 -74 -19s-64.166 -31 -89.499 -55v-793h-370v1140z" />
    <glyph glyph-name="Ncommaaccent" unicode="&#x145;" horiz-adv-x="1632" 
d="M660 -488c15.333 28 22.998 61.3311 22.998 99.998s-1.66699 64.5 -5 77.5s-7.66602 25.167 -12.999 36.5c-10 22.667 -21.667 37.667 -35 45v50l228 95c38.667 -12 68.334 -50.333 89.001 -115c6.66699 -22 10 -49.667 10 -83s-5.16699 -66.666 -15.5 -99.999
s-22.5 -62.666 -36.5 -87.999c-26 -46.667 -52.667 -76.667 -80 -90l-165 45v27zM172.998 1522h356l519 -835l106 -222l-41 387v670h345v-1522h-383l-493 815l-111 230l47 -387v-658h-345v1522z" />
    <glyph glyph-name="ncommaaccent" unicode="&#x146;" horiz-adv-x="1380" 
d="M554 -488c15.333 28 22.998 61.3311 22.998 99.998s-1.66699 64.5 -5 77.5s-7.66602 25.167 -12.999 36.5c-10 22.667 -21.667 37.667 -35 45v50l228 95c38.667 -12 68.334 -50.333 89.001 -115c6.66699 -22 10 -49.667 10 -83s-5.16699 -66.666 -15.5 -99.999
s-22.5 -62.666 -36.5 -87.999c-26 -46.667 -52.667 -76.667 -80 -90l-165 45v27zM162.998 1140h338l9 -122c71.333 60 160.666 102.333 267.999 127c38 8.66699 80.167 13 126.5 13s90.5 -7.16699 132.5 -21.5s77.667 -38.833 107 -73.5c57.333 -68.667 86 -183.667 86 -345
v-718h-370v652c0 82.667 -10.667 139.667 -32 171c-20 29.333 -55.333 44 -106 44h-25.5c-15 0 -39.667 -6.33301 -74 -19s-64.166 -31 -89.499 -55v-793h-370v1140z" />
    <glyph glyph-name="Ncaron" unicode="&#x147;" horiz-adv-x="1632" 
d="M424 1849l176 115l223 -167l224 167l175 -115l-282 -291h-234zM173 1522h356l519 -835l106 -222l-41 387v670h345v-1522h-383l-493 815l-111 230l47 -387v-658h-345v1522z" />
    <glyph glyph-name="ncaron" unicode="&#x148;" horiz-adv-x="1380" 
d="M357 1626l176 113l240 -227l239 227l177 -114l-304 -369h-223zM163 1140h338l9 -122c71.333 60 160.666 102.333 267.999 127c38 8.66699 80.167 13 126.5 13s90.5 -7.16699 132.5 -21.5s77.667 -38.833 107 -73.5c57.333 -68.667 86 -183.667 86 -345v-718h-370v652
c0 82.667 -10.667 139.667 -32 171c-20 29.333 -55.333 44 -106 44h-25.5c-15 0 -39.667 -6.33301 -74 -19s-64.166 -31 -89.499 -55v-793h-370v1140z" />
    <glyph glyph-name="napostrophe" unicode="&#x149;" horiz-adv-x="1380" 
d="M554 -488c15.333 28 22.998 61.3311 22.998 99.998s-1.66699 64.5 -5 77.5s-7.66602 25.167 -12.999 36.5c-10 22.667 -21.667 37.667 -35 45v50l228 95c38.667 -12 68.334 -50.333 89.001 -115c6.66699 -22 10 -49.667 10 -83s-5.16699 -66.666 -15.5 -99.999
s-22.5 -62.666 -36.5 -87.999c-26 -46.667 -52.667 -76.667 -80 -90l-165 45v27zM162.998 1140h338l9 -122c71.333 60 160.666 102.333 267.999 127c38 8.66699 80.167 13 126.5 13s90.5 -7.16699 132.5 -21.5s77.667 -38.833 107 -73.5c57.333 -68.667 86 -183.667 86 -345
v-718h-370v652c0 82.667 -10.667 139.667 -32 171c-20 29.333 -55.333 44 -106 44h-25.5c-15 0 -39.667 -6.33301 -74 -19s-64.166 -31 -89.499 -55v-793h-370v1140z" />
    <glyph glyph-name="Eng" unicode="&#x14a;" horiz-adv-x="1631" 
d="M172 1522l364 -0.000976562l505 -835l102 -214l-42 379v670h356v-1205c0 -155.333 -4.5 -255.666 -13.5 -300.999s-20.333 -88.666 -34 -129.999s-39 -84.333 -76 -129s-82.167 -83.667 -135.5 -117c-115.333 -72.667 -247 -109 -395 -109l-74 143
c90.667 25.333 170 68.666 238 129.999c72.667 65.333 109 134.333 109 207l-489 804l-111 238l52 -394v-659h-355z" />
    <glyph glyph-name="eng" unicode="&#x14b;" horiz-adv-x="1382" 
d="M622 -256c28.667 -10.667 59.833 -15.998 93.5 -15.998s58.334 3 74.001 9s28.5 17.667 38.5 35c19.333 33.333 29 100.333 29 201v677c0 83.333 -7.16699 136.666 -21.5 159.999s-29.5 38.333 -45.5 45s-30.167 10 -42.5 10h-28.5c-6.66699 0 -18 -1.66699 -34 -5
s-32.333 -8 -49 -14c-40.667 -15.333 -73.334 -35.333 -98.001 -60v-786h-375v1139h343l9 -121c70 57.333 154.333 99 253 125c37.333 10 80 15 128 15s93.333 -6.83301 136 -20.5s79 -37.834 109 -72.501c60.667 -70 91 -185.667 91 -347v-736
c0 -242.667 -74.667 -395.667 -224 -459c-46.667 -20 -109 -30 -187 -30s-144.333 6.66699 -199 20v231z" />
    <glyph glyph-name="Omacron" unicode="&#x14c;" horiz-adv-x="1603" 
d="M521 1909h619v-234h-619v234zM496 35c-268.667 109.333 -403 354.001 -403 734.001c0 127.333 19.167 240.833 57.5 340.5s89.5 180.5 153.5 242.5c130 124 311.667 186 545 186c204 0 365 -67.333 483 -202s177 -318.334 177 -551.001c0 -270 -68 -473.667 -204 -611
c-125.333 -126.667 -301 -190 -527 -190c-104.667 0 -198.667 17 -282 51zM803 263.001c209.333 0 313.999 170.333 313.999 511c0 227.333 -55.333 375.333 -166 444c-37.333 22.667 -80.166 34 -128.499 34s-92.833 -8.16699 -133.5 -24.5s-76 -43.833 -106 -82.5
c-65.333 -84 -98 -213 -98 -387c0 -232 59.333 -384.667 178 -458c40 -24.667 86.667 -37 140 -37z" />
    <glyph glyph-name="omacron" unicode="&#x14d;" horiz-adv-x="1330" 
d="M363 1642h619v-238h-619v238zM138 290c-18.667 44.667 -32 91.668 -40 141.001s-12 110.666 -12 183.999s15.167 145.833 45.5 217.5s71.5 131.5 123.5 179.5c105.333 96 245.666 144 420.999 144c260 0 432.333 -102 517 -306c34 -82 51 -178.667 51 -290
c0 -186 -56 -330 -168 -432c-105.333 -96 -245.666 -144 -420.999 -144c-260 0 -432.333 102 -517 306zM471 582.001c0 -228.667 64.001 -343 192.001 -343c71.333 0 122.333 27 153 81c28.667 50 43 131.333 43 244c0 223.333 -63.333 335 -190 335
c-104.667 0 -167.334 -60 -188.001 -180c-6.66699 -39.333 -10 -85 -10 -137z" />
    <glyph glyph-name="Obreve" unicode="&#x14e;" horiz-adv-x="1603" 
d="M827 1595c-64 0 -120.332 8.99902 -168.999 26.999c-143.333 52 -215 163.667 -215 335v7h224c10 -92.667 64 -139 162 -139c60 0 103.333 17.333 130 52c16 20.667 27 49.667 33 87h220v-6c0 -109.333 -32.667 -196.666 -98 -261.999
c-68.667 -67.333 -164.334 -101 -287.001 -101zM496.001 34.999c-268.667 109.333 -403 354.001 -403 734.001c0 127.333 19.167 240.833 57.5 340.5s89.5 180.5 153.5 242.5c130 124 311.667 186 545 186c204 0 365 -67.333 483 -202s177 -318.334 177 -551.001
c0 -270 -68 -473.667 -204 -611c-125.333 -126.667 -301 -190 -527 -190c-104.667 0 -198.667 17 -282 51zM803.001 263c209.333 0 313.999 170.333 313.999 511c0 227.333 -55.333 375.333 -166 444c-37.333 22.667 -80.166 34 -128.499 34s-92.833 -8.16699 -133.5 -24.5
s-76 -43.833 -106 -82.5c-65.333 -84 -98 -213 -98 -387c0 -232 59.333 -384.667 178 -458c40 -24.667 86.667 -37 140 -37z" />
    <glyph glyph-name="obreve" unicode="&#x14f;" horiz-adv-x="1330" 
d="M138 290c-18.667 44.667 -32 91.668 -40 141.001s-12 110.666 -12 183.999s15.167 145.833 45.5 217.5s71.5 131.5 123.5 179.5c105.333 96 245.666 144 420.999 144c260 0 432.333 -102 517 -306c34 -82 51 -178.667 51 -290c0 -186 -56 -330 -168 -432
c-105.333 -96 -245.666 -144 -420.999 -144c-260 0 -432.333 102 -517 306zM471 582.001c0 -228.667 64.001 -343 192.001 -343c71.333 0 122.333 27 153 81c28.667 50 43 131.333 43 244c0 223.333 -63.333 335 -190 335c-104.667 0 -167.334 -60 -188.001 -180
c-6.66699 -39.333 -10 -85 -10 -137zM671.001 1286c-62 0 -117.333 10 -166 30c-96 39.333 -160.667 110 -194 212c-16 46.667 -24 97.667 -24 153v7h227c4.66699 -42.667 13.334 -74 26.001 -94c27.333 -43.333 71.666 -65 132.999 -65c59.333 0 102 20.333 128 61
c14 21.333 24.667 54 32 98h224v-6c0 -114.667 -33.333 -208.667 -100 -282c-70 -76 -165.333 -114 -286 -114z" />
    <glyph glyph-name="Ohungarumlaut" unicode="&#x150;" horiz-adv-x="1603" 
d="M496 35c-268.667 109.333 -403 354.001 -403 734.001c0 127.333 19.167 240.833 57.5 340.5s89.5 180.5 153.5 242.5c130 124 311.667 186 545 186c204 0 365 -67.333 483 -202s177 -318.334 177 -551.001c0 -270 -68 -473.667 -204 -611
c-125.333 -126.667 -301 -190 -527 -190c-104.667 0 -198.667 17 -282 51zM803 263.001c209.333 0 313.999 170.333 313.999 511c0 227.333 -55.333 375.333 -166 444c-37.333 22.667 -80.166 34 -128.499 34s-92.833 -8.16699 -133.5 -24.5s-76 -43.833 -106 -82.5
c-65.333 -84 -98 -213 -98 -387c0 -232 59.333 -384.667 178 -458c40 -24.667 86.667 -37 140 -37zM451.999 1658c38.667 38.667 77.667 86.667 117 144c56 81.333 90 135.333 102 162l258 -118c-62 -97.333 -140.667 -187.333 -236 -270c-25.333 -22 -46 -36.667 -62 -44z
M968.999 1658c58.667 58.667 124.666 144.333 197.999 257c11.333 18 20.333 33.667 27 47l256 -119c-65.333 -99.333 -143.666 -188.333 -234.999 -267c-26 -22 -47.333 -36.667 -64 -44z" />
    <glyph glyph-name="ohungarumlaut" unicode="&#x151;" horiz-adv-x="1330" 
d="M281 1391c34 45.333 85.668 121.334 155.001 228.001c90.667 142 139 217 145 225l215 -147c-32 -62 -90 -140 -174 -234c-78.667 -86.667 -144.334 -145.334 -197.001 -176.001zM802.001 1391c10 12.667 23.834 32.001 41.501 58.001l59 86l66.5 97.5l63 94.5
c38 58 62.667 95 74 111l216 -147c-49.333 -93.333 -133.333 -195.333 -252 -306c-54.667 -50.667 -97.334 -83.334 -128.001 -98.001zM138.002 290.002c-18.667 44.667 -32 91.668 -40 141.001s-12 110.666 -12 183.999s15.167 145.833 45.5 217.5s71.5 131.5 123.5 179.5
c105.333 96 245.666 144 420.999 144c260 0 432.333 -102 517 -306c34 -82 51 -178.667 51 -290c0 -186 -56 -330 -168 -432c-105.333 -96 -245.666 -144 -420.999 -144c-260 0 -432.333 102 -517 306zM471.002 582.003c0 -228.667 64.001 -343 192.001 -343
c71.333 0 122.333 27 153 81c28.667 50 43 131.333 43 244c0 223.333 -63.333 335 -190 335c-104.667 0 -167.334 -60 -188.001 -180c-6.66699 -39.333 -10 -85 -10 -137z" />
    <glyph glyph-name="OE" unicode="&#x152;" horiz-adv-x="2156" 
d="M1050 51c-74 -44.667 -166.333 -67 -277 -67s-208 19 -292 57c-170 76.667 -284.333 213 -343 409c-27.333 90.667 -41 189.667 -41 297c0 262 71 463 213 603c126 124 293 186.667 501 188c98 0 177.667 -19 239 -57v41h957v-284h-579v-319h434v-277h-434v-351h639v-291
h-1017v51zM1050 1138c-51.333 70.667 -123.667 106 -217 106c-138 0 -234.333 -57 -289 -171c-38 -78.667 -57 -191.167 -57 -337.5s28.167 -260.5 84.5 -342.5s138.833 -123 247.5 -123s185.667 34 231 102v766z" />
    <glyph glyph-name="oe" unicode="&#x153;" horiz-adv-x="1993" 
d="M1046 109c-100.667 -83.333 -231.333 -124.997 -392 -124.997c-260 0 -432.333 102 -517 306c-34 82 -51 178.667 -51 290c0 184.667 56 328.667 168 432c105.333 96 242.833 144 412.5 144s300.834 -42 393.501 -126c98 84 222.667 126 374 126
c219.333 0 364.333 -78.667 435 -236c26.667 -60 40 -133.667 40 -221s-3.66699 -158 -11 -212h-665c11.333 -122.667 68.333 -197.334 171 -224.001c33.333 -8.66699 67.166 -13 101.499 -13s66.5 1.66699 96.5 5s58.667 7.66602 86 12.999
c58.667 11.333 102.667 24.666 132 39.999l56 -201c-66 -54 -166.667 -91.667 -302 -113c-45.333 -6.66699 -93.333 -10 -144 -10c-162 0 -290 41.667 -384 125zM1569 668.003c0.666992 14.667 1 28.667 1 42c0 62 -10 112 -30 150s-58 57 -114 57
c-110 0 -173.333 -83 -190 -249h333zM474.001 582.003c0 -228.667 62.667 -342.999 188 -342.999c71.333 0 122 27 152 81c27.333 49.333 41 130.666 41 243.999c0 223.333 -62.667 335 -188 335c-71.333 0 -122 -27 -152 -81c-27.333 -50 -41 -128.667 -41 -236z" />
    <glyph glyph-name="Racute" unicode="&#x154;" horiz-adv-x="1470" 
d="M717 542c-42.667 -2.66699 -97.334 -4.00098 -164.001 -4.00098v-538h-380v1522h131c26.667 0 55.334 0.833008 86.001 2.5l102 5.5c98 5.33301 178.667 8 242 8s117.833 -3.16699 163.5 -9.5s89.5 -16.666 131.5 -30.999s81.167 -33.5 117.5 -57.5
s68.166 -54 95.499 -90c58 -78 87 -176.333 87 -295c0 -218.667 -80.667 -364.667 -242 -438c46.667 -36.667 96 -111 148 -223l63.5 -143c21 -49.333 44.5 -96.333 70.5 -141l63 -110h-420c-12 16 -29.167 49.333 -51.5 100s-41.5 101 -57.5 151s-32.667 96.333 -50 139
s-36.666 78.167 -57.999 106.5s-47.333 43.5 -78 45.5zM715 1269c-66 0 -120 -6 -162 -18v-449c35.333 -4.66699 72 -7 110 -7h77c73.333 0 130 24.667 170 74c35.333 44 53 103.667 53 179c0 147.333 -82.667 221 -248 221zM626 1666c108 108 185.999 199.333 233.999 274
c12.667 18.667 21.334 34.667 26.001 48l262 -130c-60.667 -89.333 -140 -174.333 -238 -255c-44 -36.667 -81 -59.667 -111 -69z" />
    <glyph glyph-name="racute" unicode="&#x155;" horiz-adv-x="966" 
d="M397 1396c123.333 123.333 236.333 266.332 339 428.999l243 -189c-38.667 -91.333 -131 -194.666 -277 -309.999c-52 -40.667 -96 -70 -132 -88zM783 805.999c-108.667 0 -195.003 -36 -259.003 -108v-698h-371v1140h325l16 -183
c38.667 92.667 111.334 154.667 218.001 186c34.667 10 72.334 15 113.001 15s67.334 -4.66699 80.001 -14v-365c-31.333 18 -72 27 -122 27z" />
    <glyph glyph-name="Rcommaaccent" unicode="&#x156;" horiz-adv-x="1470" 
d="M629 -488c15.333 28 22.998 61.3311 22.998 99.998s-1.66699 64.5 -5 77.5s-7.66602 25.167 -12.999 36.5c-10 22.667 -21.667 37.667 -35 45v50l228 95c38.667 -12 68.334 -50.333 89.001 -115c6.66699 -22 10 -49.667 10 -83s-5.16699 -66.666 -15.5 -99.999
s-22.5 -62.666 -36.5 -87.999c-26 -46.667 -52.667 -76.667 -80 -90l-165 45v27zM716.998 541.998c-42.667 -2.66699 -97.334 -4.00098 -164.001 -4.00098v-538h-380v1522h131c26.667 0 55.334 0.833008 86.001 2.5l102 5.5c98 5.33301 178.667 8 242 8
s117.833 -3.16699 163.5 -9.5s89.5 -16.666 131.5 -30.999s81.167 -33.5 117.5 -57.5s68.166 -54 95.499 -90c58 -78 87 -176.333 87 -295c0 -218.667 -80.667 -364.667 -242 -438c46.667 -36.667 96 -111 148 -223l63.5 -143c21 -49.333 44.5 -96.333 70.5 -141l63 -110
h-420c-12 16 -29.167 49.333 -51.5 100s-41.5 101 -57.5 151s-32.667 96.333 -50 139s-36.666 78.167 -57.999 106.5s-47.333 43.5 -78 45.5zM714.998 1269c-66 0 -120 -6 -162 -18v-449c35.333 -4.66699 72 -7 110 -7h77c73.333 0 130 24.667 170 74
c35.333 44 53 103.667 53 179c0 147.333 -82.667 221 -248 221z" />
    <glyph glyph-name="rcommaaccent" unicode="&#x157;" horiz-adv-x="966" 
d="M216 -488c15.333 28 22.998 61.3311 22.998 99.998s-1.66699 64.5 -5 77.5s-7.66602 25.167 -12.999 36.5c-10 22.667 -21.667 37.667 -35 45v50l228 95c38.667 -12 68.334 -50.333 89.001 -115c6.66699 -22 10 -49.667 10 -83s-5.16699 -66.666 -15.5 -99.999
s-22.5 -62.666 -36.5 -87.999c-26 -46.667 -52.667 -76.667 -80 -90l-165 45v27zM782.998 805.998c-108.667 0 -195.003 -36 -259.003 -108v-698h-371v1140h325l16 -183c38.667 92.667 111.334 154.667 218.001 186c34.667 10 72.334 15 113.001 15
s67.334 -4.66699 80.001 -14v-365c-31.333 18 -72 27 -122 27z" />
    <glyph glyph-name="Rcaron" unicode="&#x158;" horiz-adv-x="1470" 
d="M374 1849l176 115l223 -167l224 167l175 -115l-282 -291h-234zM717 542c-42.667 -2.66699 -97.334 -4.00098 -164.001 -4.00098v-538h-380v1522h131c26.667 0 55.334 0.833008 86.001 2.5l102 5.5c98 5.33301 178.667 8 242 8s117.833 -3.16699 163.5 -9.5
s89.5 -16.666 131.5 -30.999s81.167 -33.5 117.5 -57.5s68.166 -54 95.499 -90c58 -78 87 -176.333 87 -295c0 -218.667 -80.667 -364.667 -242 -438c46.667 -36.667 96 -111 148 -223l63.5 -143c21 -49.333 44.5 -96.333 70.5 -141l63 -110h-420
c-12 16 -29.167 49.333 -51.5 100s-41.5 101 -57.5 151s-32.667 96.333 -50 139s-36.666 78.167 -57.999 106.5s-47.333 43.5 -78 45.5zM715 1269c-66 0 -120 -6 -162 -18v-449c35.333 -4.66699 72 -7 110 -7h77c73.333 0 130 24.667 170 74c35.333 44 53 103.667 53 179
c0 147.333 -82.667 221 -248 221z" />
    <glyph glyph-name="rcaron" unicode="&#x159;" horiz-adv-x="966" 
d="M129 1627l176 113l240 -227l239 227l177 -114l-304 -369h-223zM783 806c-108.667 0 -195.003 -36 -259.003 -108v-698h-371v1140h325l16 -183c38.667 92.667 111.334 154.667 218.001 186c34.667 10 72.334 15 113.001 15s67.334 -4.66699 80.001 -14v-365
c-31.333 18 -72 27 -122 27z" />
    <glyph glyph-name="Sacute" unicode="&#x15a;" horiz-adv-x="1229" 
d="M177 374c72 -41.333 165.998 -70.666 281.998 -87.999c40 -6 88.333 -9 145 -9c120.667 0 181 43 181 129c0 44.667 -23 84 -69 118c-27.333 19.333 -86.333 50.666 -177 93.999s-157.667 79.666 -201 108.999s-81.333 63 -114 101c-70 82.667 -105 180.334 -105 293.001
c0 134.667 50.333 239 151 313c94.667 69.333 225.334 104 392.001 104c184.667 0 327.667 -29 429 -87l-59 -286c-52.667 41.333 -131.667 71 -237 89c-33.333 5.33301 -76.5 8 -129.5 8s-96.333 -11.667 -130 -35s-50.5 -50.5 -50.5 -81.5s5 -55.667 15 -74
s26 -36.166 48 -53.499c37.333 -30 96.333 -63.167 177 -99.5s146.834 -69.833 198.501 -100.5s95.5 -64.334 131.5 -101.001c74 -75.333 111 -169.333 111 -282c0 -138.667 -48 -248 -144 -328c-97.333 -82 -234.333 -123 -411 -123c-152.667 0 -289.667 21.333 -411 64
c-32 10.667 -55.333 20.667 -70 30zM517.998 1666c108 108 185.999 199.333 233.999 274c12.667 18.667 21.334 34.667 26.001 48l262 -130c-60.667 -89.333 -140 -174.333 -238 -255c-44 -36.667 -81 -59.667 -111 -69z" />
    <glyph glyph-name="sacute" unicode="&#x15b;" horiz-adv-x="1084" 
d="M401 1396c123.333 123.333 236.333 266.332 339 428.999l243 -189c-38.667 -91.333 -131 -194.666 -277 -309.999c-52 -40.667 -96 -70 -132 -88zM143 331.999c42.667 -36 117.667 -65.665 225 -88.998c36.667 -8 79.667 -12 129 -12c98.667 0 148 27.667 148 83
c0 40.667 -47.667 78.667 -143 114c-30.667 11.333 -68.834 24.5 -114.501 39.5s-87.167 34.167 -124.5 57.5s-67.666 49.666 -90.999 78.999c-45.333 56.667 -68 130 -68 220c0 106 46.667 188.667 140 248c86 56 197.333 84 334 84c160 0 282.333 -23.333 367 -70
l-33 -260c-44 35.333 -108 61.333 -192 78c-28 6 -64.667 9 -110 9c-97.333 0 -146.666 -26 -147.999 -78c0 -29.333 16.667 -54.333 50 -75c30.667 -18.667 82.167 -39.5 154.5 -62.5s128.166 -45 167.499 -66s72 -45.5 98 -73.5c52.667 -54.667 79 -125.334 79 -212.001
c0 -117.333 -43.667 -207.333 -131 -270c-85.333 -62 -202 -93 -350 -93c-132 0 -250.667 20.333 -356 61c-28.667 11.333 -51 22 -67 32z" />
    <glyph glyph-name="Scircumflex" unicode="&#x15c;" horiz-adv-x="1229" 
d="M177 374c72 -41.333 165.998 -70.666 281.998 -87.999c40 -6 88.333 -9 145 -9c120.667 0 181 43 181 129c0 44.667 -23 84 -69 118c-27.333 19.333 -86.333 50.666 -177 93.999s-157.667 79.666 -201 108.999s-81.333 63 -114 101c-70 82.667 -105 180.334 -105 293.001
c0 134.667 50.333 239 151 313c94.667 69.333 225.334 104 392.001 104c184.667 0 327.667 -29 429 -87l-59 -286c-52.667 41.333 -131.667 71 -237 89c-33.333 5.33301 -76.5 8 -129.5 8s-96.333 -11.667 -130 -35s-50.5 -50.5 -50.5 -81.5s5 -55.667 15 -74
s26 -36.166 48 -53.499c37.333 -30 96.333 -63.167 177 -99.5s146.834 -69.833 198.501 -100.5s95.5 -64.334 131.5 -101.001c74 -75.333 111 -169.333 111 -282c0 -138.667 -48 -248 -144 -328c-97.333 -82 -234.333 -123 -411 -123c-152.667 0 -289.667 21.333 -411 64
c-32 10.667 -55.333 20.667 -70 30zM261.998 1656l284 308h234l285 -306l-178 -116l-224 193l-223 -193z" />
    <glyph glyph-name="scircumflex" unicode="&#x15d;" horiz-adv-x="1084" 
d="M138 1363l305 370h223l304 -370l-177 -114l-239 227l-240 -227zM143 332c42.667 -36 117.667 -65.665 225 -88.998c36.667 -8 79.667 -12 129 -12c98.667 0 148 27.667 148 83c0 40.667 -47.667 78.667 -143 114c-30.667 11.333 -68.834 24.5 -114.501 39.5
s-87.167 34.167 -124.5 57.5s-67.666 49.666 -90.999 78.999c-45.333 56.667 -68 130 -68 220c0 106 46.667 188.667 140 248c86 56 197.333 84 334 84c160 0 282.333 -23.333 367 -70l-33 -260c-44 35.333 -108 61.333 -192 78c-28 6 -64.667 9 -110 9
c-97.333 0 -146.666 -26 -147.999 -78c0 -29.333 16.667 -54.333 50 -75c30.667 -18.667 82.167 -39.5 154.5 -62.5s128.166 -45 167.499 -66s72 -45.5 98 -73.5c52.667 -54.667 79 -125.334 79 -212.001c0 -117.333 -43.667 -207.333 -131 -270
c-85.333 -62 -202 -93 -350 -93c-132 0 -250.667 20.333 -356 61c-28.667 11.333 -51 22 -67 32z" />
    <glyph glyph-name="Scedilla" unicode="&#x15e;" horiz-adv-x="1229" 
d="M354 -255c15.333 -9.33301 39.666 -13.999 72.999 -13.999s61.166 12.5 83.499 37.5s33.833 56.167 34.5 93.5c1.33301 57.333 -3.66699 99 -15 125c-132.667 7.33301 -246.667 29 -342 65c-26 9.33301 -45.333 18 -58 26l47 296c72 -41.333 166 -70.666 282 -87.999
c40 -6 88.333 -9 145 -9c120.667 0 181 43 181 129c0 44.667 -23 84 -69 118c-27.333 19.333 -86.333 50.666 -177 93.999s-157.667 79.666 -201 108.999s-81.333 63 -114 101c-70 82.667 -105 180.334 -105 293.001c0 134.667 50.333 239 151 313
c94.667 69.333 225.334 104 392.001 104c184.667 0 327.667 -29 429 -87l-59 -286c-52.667 41.333 -131.667 71 -237 89c-33.333 5.33301 -76.5 8 -129.5 8s-96.333 -11.667 -130 -35s-50.5 -50.5 -50.5 -81.5s5 -55.667 15 -74s26 -36.166 48 -53.499
c37.333 -30 96.333 -63.167 177 -99.5s146.834 -69.833 198.501 -100.5s95.5 -64.334 131.5 -101.001c74 -75.333 111 -169.333 111 -282c0 -182.667 -79.333 -312.334 -238 -389.001c-52 -24.667 -112 -42 -180 -52c26 -53.333 39 -120 39 -200
c0 -87.333 -26.333 -153.333 -79 -198c-46.667 -40 -108.667 -60 -186 -60c-54.667 0 -98.5 3.66699 -131.5 11s-52.833 13 -59.5 17z" />
    <glyph glyph-name="scedilla" unicode="&#x15f;" horiz-adv-x="1084" 
d="M268 -255c15.333 -9.33301 39.668 -13.999 73.001 -13.999s61.166 12.5 83.499 37.5s33.833 56.167 34.5 93.5c1.33301 57.333 -3.66699 99 -15 125c-102 7.33301 -196.333 28.333 -283 63c-22.667 8.66699 -40.667 17.334 -54 26.001l36 256
c42.667 -36 117.667 -65.667 225 -89c36.667 -8 79.667 -12 129 -12c98.667 0 148 27.667 148 83c0 40.667 -47.667 78.667 -143 114c-30.667 11.333 -68.834 24.5 -114.501 39.5s-87.167 34.167 -124.5 57.5s-67.666 49.666 -90.999 78.999c-45.333 56.667 -68 130 -68 220
c0 106 46.667 188.667 140 248c86 56 197.333 84 334 84c160 0 282.333 -23.333 367 -70l-33 -260c-44 35.333 -108 61.333 -192 78c-28 6 -64.667 9 -110 9c-97.333 0 -146.666 -26 -147.999 -78c0 -29.333 16.667 -54.333 50 -75c30.667 -18.667 82.167 -39.5 154.5 -62.5
s128.166 -45 167.499 -66s72 -45.5 98 -73.5c52.667 -54.667 79 -125.334 79 -212.001c0 -147.333 -67.667 -251.333 -203 -312c-43.333 -19.333 -92 -33 -146 -41c26 -52 38.833 -110.5 38.5 -175.5s-7.5 -113.167 -21.5 -144.5s-33 -57 -57 -77
c-46.667 -40 -108.667 -60 -186 -60c-54.667 0 -98.5 3.66699 -131.5 11s-52.833 13 -59.5 17z" />
    <glyph glyph-name="Scaron" unicode="&#x160;" horiz-adv-x="1229" 
d="M177 374c72 -41.333 165.998 -70.666 281.998 -87.999c40 -6 88.333 -9 145 -9c120.667 0 181 43 181 129c0 44.667 -23 84 -69 118c-27.333 19.333 -86.333 50.666 -177 93.999s-157.667 79.666 -201 108.999s-81.333 63 -114 101c-70 82.667 -105 180.334 -105 293.001
c0 134.667 50.333 239 151 313c94.667 69.333 225.334 104 392.001 104c184.667 0 327.667 -29 429 -87l-59 -286c-52.667 41.333 -131.667 71 -237 89c-33.333 5.33301 -76.5 8 -129.5 8s-96.333 -11.667 -130 -35s-50.5 -50.5 -50.5 -81.5s5 -55.667 15 -74
s26 -36.166 48 -53.499c37.333 -30 96.333 -63.167 177 -99.5s146.834 -69.833 198.501 -100.5s95.5 -64.334 131.5 -101.001c74 -75.333 111 -169.333 111 -282c0 -138.667 -48 -248 -144 -328c-97.333 -82 -234.333 -123 -411 -123c-152.667 0 -289.667 21.333 -411 64
c-32 10.667 -55.333 20.667 -70 30zM265.998 1849l176 115l223 -167l224 167l175 -115l-282 -291h-234z" />
    <glyph glyph-name="scaron" unicode="&#x161;" horiz-adv-x="1084" 
d="M133 1626l176 113l240 -227l239 227l177 -114l-304 -369h-223zM143 332c42.667 -36 117.667 -65.665 225 -88.998c36.667 -8 79.667 -12 129 -12c98.667 0 148 27.667 148 83c0 40.667 -47.667 78.667 -143 114c-30.667 11.333 -68.834 24.5 -114.501 39.5
s-87.167 34.167 -124.5 57.5s-67.666 49.666 -90.999 78.999c-45.333 56.667 -68 130 -68 220c0 106 46.667 188.667 140 248c86 56 197.333 84 334 84c160 0 282.333 -23.333 367 -70l-33 -260c-44 35.333 -108 61.333 -192 78c-28 6 -64.667 9 -110 9
c-97.333 0 -146.666 -26 -147.999 -78c0 -29.333 16.667 -54.333 50 -75c30.667 -18.667 82.167 -39.5 154.5 -62.5s128.166 -45 167.499 -66s72 -45.5 98 -73.5c52.667 -54.667 79 -125.334 79 -212.001c0 -117.333 -43.667 -207.333 -131 -270
c-85.333 -62 -202 -93 -350 -93c-132 0 -250.667 20.333 -356 61c-28.667 11.333 -51 22 -67 32z" />
    <glyph glyph-name="uni0162" unicode="&#x162;" horiz-adv-x="1253" 
d="M337 -255c15.333 -9.33301 39.666 -14.001 72.999 -14.001s61.333 12.333 84 37c22.667 26 34 64.167 34 114.5s-7 89.5 -21 117.5h-72v1228h-407v294h1197v-294h-406v-1228h-92c28.667 -52 42.834 -111.667 42.501 -179s-7.5 -116.666 -21.5 -147.999s-33 -57 -57 -77
c-46.667 -40 -108.667 -60 -186 -60c-54.667 0 -98.5 3.66699 -131.5 11s-52.833 13 -59.5 17z" />
    <glyph glyph-name="uni0163" unicode="&#x163;" horiz-adv-x="926" 
d="M206 -255c15.333 -9.33301 39.666 -13.999 72.999 -13.999s61 12.333 83 37c23.333 26 35 59.667 35 101c0 62 -7.66699 107 -23 135c-67.333 22 -115 62.167 -143 120.5s-42 135.166 -42 230.499v542h-132v196c86 25.333 138.333 46.833 157 64.5s31.5 33.5 38.5 47.5
s13.667 28.833 20 44.5l20 49l21 52l20.5 49.5h225v-260h296v-243h-296v-406c0 -101.333 9.33301 -166.333 28 -195c10 -15.333 23.5 -25 40.5 -29s35 -6 54 -6s36.333 1.16699 52 3.5s31.167 5.5 46.5 9.5c36 10 62 20.667 78 32l44 -206
c-36.667 -36.667 -104 -67.667 -202 -93c-31.333 -8 -64 -14 -98 -18c24.667 -49.333 36.834 -106.5 36.501 -171.5s-7.5 -113.167 -21.5 -144.5s-33 -57 -57 -77c-46.667 -40 -108.667 -60 -186 -60c-54.667 0 -98.5 3.66699 -131.5 11s-52.833 13 -59.5 17z" />
    <glyph glyph-name="Tcaron" unicode="&#x164;" horiz-adv-x="1253" 
d="M227 1849l176 115l223 -167l224 167l175 -115l-282 -291h-234zM435 1228h-407v294h1197v-294h-406v-1228h-384v1228z" />
    <glyph glyph-name="tcaron" unicode="&#x165;" horiz-adv-x="1062" 
d="M184 897h-132.001v196c86 25.333 138.333 46.833 157 64.5s31.5 33.5 38.5 47.5s13.667 28.833 20 44.5l20 49l21 52l20.5 49.5h225v-260h296v-243h-296v-406c0 -101.333 9.33301 -166.333 28 -195c10 -15.333 23.5 -25 40.5 -29s35 -6 54 -6s36.333 1.16699 52 3.5
s31.167 5.5 46.5 9.5c36 10 62 20.667 78 32l44 -206c-50 -47.333 -136 -82.333 -258 -105c-40 -7.33301 -85.667 -11 -137 -11s-98.166 7.66699 -140.499 23s-76.5 38.333 -102.5 69c-50 58.667 -75 151.667 -75 279v542zM1017 1933c56.667 -50 85 -146.332 85 -288.999
c0 -140.667 -33 -267 -99 -379c-17.333 -29.333 -34 -52.333 -50 -69l-157 41l-8 35c16.667 70 25 157.667 25 263v22c0 103.333 -20.333 176.666 -61 219.999l11 67z" />
    <glyph glyph-name="Tbar" unicode="&#x166;" horiz-adv-x="1253" 
d="M435 558h-258v238h258v432h-407v294h1197v-294h-406v-432h285v-238h-285v-558h-384v558z" />
    <glyph glyph-name="tbar" unicode="&#x167;" horiz-adv-x="926" 
d="M189 492h-130.001v246h130v159h-132v196c86 25.333 138.333 46.833 157 64.5s31.5 33.5 38.5 47.5s13.667 28.833 20 44.5l20 49l21 52l20.5 49.5h225v-260h296v-243h-296v-159h298v-246h-298v-1c0 -101.333 9.33301 -166.333 28 -195c10 -15.333 23.5 -25 40.5 -29
s35 -6 54 -6s36.333 1.16699 52 3.5s31.167 5.5 46.5 9.5c36 10 62 20.667 78 32l44 -206c-50 -47.333 -136 -82.333 -258 -105c-40 -7.33301 -85.667 -11 -137 -11s-98.166 7.66699 -140.499 23s-76.5 38.333 -102.5 69c-50 58.667 -75 151.667 -75 279v137z" />
    <glyph glyph-name="Utilde" unicode="&#x168;" horiz-adv-x="1545" 
d="M325 1731c18 63.333 52.6631 116.331 103.996 158.998c59.333 48.667 127.333 73 204 73c54 0 94.667 -8.16699 122 -24.5s47.5 -30 60.5 -41l37.5 -31.5c28 -22.667 53.667 -34 77 -34s43 3.33301 59 10s31 15.334 45 26.001c26.667 19.333 49.334 42.333 68.001 69
l127 -136c-17.333 -64 -51.333 -117.667 -102 -161c-56.667 -50 -122.667 -75 -198 -75c-51.333 0 -90.833 8.33301 -118.5 25s-48.167 30.667 -61.5 42s-26.666 22 -39.999 32c-31.333 23.333 -58.666 35 -81.999 35s-42.666 -3.16699 -57.999 -9.5
s-30 -14.166 -44 -23.499c-24.667 -18 -47 -40.333 -67 -67zM1408 631.998c0 -432 -209.333 -648 -628 -648c-333.333 0 -536 128.667 -608 386c-22.667 80.667 -34 170 -34 268l4 884h378l-3 -837v-65.5c0 -39 5.33301 -83.667 16 -134s27 -90.833 49 -121.5
c38 -53.333 102.333 -80 193 -80c88.667 0 153 28 193 84c42.667 60 64 165.667 64 317v837h376v-890z" />
    <glyph glyph-name="utilde" unicode="&#x169;" horiz-adv-x="1362" 
d="M145 1140h370.999v-679c0 -83.333 12.333 -140 37 -170c22.667 -27.333 60.667 -41 114 -41c47.333 0 92.333 11.667 135 35c11.333 6 20.333 12 27 18v837h371v-1156h-268c-23.333 0 -40.666 3.5 -51.999 10.5s-17 22.833 -17 47.5v48
c-62 -47.333 -144.333 -80 -247 -98c-30 -5.33301 -58.333 -8 -85 -8c-154 0 -260 46 -318 138c-45.333 70.667 -68 186.667 -68 348v670zM517.999 1434c-56.667 0 -110.667 -33.667 -162 -101l-133 133c17.333 63.333 52.333 116 105 158c59.333 48.667 128.333 73 207 73
c57.333 0 100.166 -8.16699 128.499 -24.5s49 -30 62 -41l37.5 -31.5c28 -22.667 56.667 -34 86 -34c57.333 0 113 35.333 167 106l127 -136c-17.333 -63.333 -51.666 -117.333 -102.999 -162c-58 -49.333 -125 -74 -201 -74c-51.333 0 -91.5 8.33301 -120.5 25
s-50.333 30.667 -64 42s-27.5 22 -41.5 32c-31.333 23.333 -63 35 -95 35z" />
    <glyph glyph-name="Umacron" unicode="&#x16a;" horiz-adv-x="1545" 
d="M466 1909h619v-234h-619v234zM1408 632c0 -432 -209.333 -648 -628 -648c-333.333 0 -536 128.667 -608 386c-22.667 80.667 -34 170 -34 268l4 884h378l-3 -837v-65.5c0 -39 5.33301 -83.667 16 -134s27 -90.833 49 -121.5c38 -53.333 102.333 -80 193 -80
c88.667 0 153 28 193 84c42.667 60 64 165.667 64 317v837h376v-890z" />
    <glyph glyph-name="umacron" unicode="&#x16b;" horiz-adv-x="1362" 
d="M145 1140h370.999v-679c0 -83.333 12.333 -140 37 -170c22.667 -27.333 60.667 -41 114 -41c47.333 0 92.333 11.667 135 35c11.333 6 20.333 12 27 18v837h371v-1156h-268c-23.333 0 -40.666 3.5 -51.999 10.5s-17 22.833 -17 47.5v48
c-62 -47.333 -144.333 -80 -247 -98c-30 -5.33301 -58.333 -8 -85 -8c-154 0 -260 46 -318 138c-45.333 70.667 -68 186.667 -68 348v670zM376.999 1642h619v-238h-619v238z" />
    <glyph glyph-name="Ubreve" unicode="&#x16c;" horiz-adv-x="1545" 
d="M771 1595c-64 0 -120.332 8.99902 -168.999 26.999c-143.333 52 -215 163.667 -215 335v7h224c10 -92.667 64 -139 162 -139c60 0 103.333 17.333 130 52c16 20.667 27 49.667 33 87h220v-6c0 -109.333 -32.667 -196.666 -98 -261.999
c-68.667 -67.333 -164.334 -101 -287.001 -101zM1408 631.999c0 -432 -209.333 -648 -628 -648c-333.333 0 -536 128.667 -608 386c-22.667 80.667 -34 170 -34 268l4 884h378l-3 -837v-65.5c0 -39 5.33301 -83.667 16 -134s27 -90.833 49 -121.5
c38 -53.333 102.333 -80 193 -80c88.667 0 153 28 193 84c42.667 60 64 165.667 64 317v837h376v-890z" />
    <glyph glyph-name="ubreve" unicode="&#x16d;" horiz-adv-x="1362" 
d="M145 1140h370.999v-679c0 -83.333 12.333 -140 37 -170c22.667 -27.333 60.667 -41 114 -41c47.333 0 92.333 11.667 135 35c11.333 6 20.333 12 27 18v837h371v-1156h-268c-23.333 0 -40.666 3.5 -51.999 10.5s-17 22.833 -17 47.5v48
c-62 -47.333 -144.333 -80 -247 -98c-30 -5.33301 -58.333 -8 -85 -8c-154 0 -260 46 -318 138c-45.333 70.667 -68 186.667 -68 348v670zM685.999 1286c-62 0 -117.333 10 -166 30c-96 39.333 -160.667 110 -194 212c-16 46.667 -24 97.667 -24 153v7h227
c4.66699 -42.667 13.334 -74 26.001 -94c27.333 -43.333 71.666 -65 132.999 -65c59.333 0 102 20.333 128 61c14 21.333 24.667 54 32 98h224v-6c0 -114.667 -33.333 -208.667 -100 -282c-70 -76 -165.333 -114 -286 -114z" />
    <glyph glyph-name="Uring" unicode="&#x16e;" horiz-adv-x="1545" 
d="M1408 632c0 -432 -209.333 -648 -628 -648c-333.333 0 -536 128.667 -608 386c-22.667 80.667 -34 170 -34 268l4 884h378l-3 -837v-65.5c0 -39 5.33301 -83.667 16 -134s27 -90.833 49 -121.5c38 -53.333 102.333 -80 193 -80c88.667 0 153 28 193 84
c42.667 60 64 165.667 64 317v837h376v-890zM904 1409.5c-44 -10.333 -92.001 -15.501 -144.001 -15.501s-100.667 6.66699 -146 20c-90 26.667 -151 78 -183 154c-15.333 36 -23 76.667 -23 122c0 102 40 178 120 228c63.333 40 146.333 60 249 60c174 0 285 -54 333 -162
c16.667 -36 24.834 -79.667 24.501 -131s-10.833 -95.833 -31.5 -133.5s-48 -68.167 -82 -91.5s-73 -40.166 -117 -50.499zM657.499 1596.5c29.667 -21.667 62 -32.499 97 -32.499s62.333 1.33301 82 4s36.5 8.33398 50.5 17.001c29.333 18 44 51.667 44 101
c0 63.333 -32.333 103.666 -97 120.999c-19.333 5.33301 -39.833 8 -61.5 8s-42 -1.5 -61 -4.5s-35.833 -9.16699 -50.5 -18.5c-32 -19.333 -48 -51.333 -48 -96s14.833 -77.834 44.5 -99.501z" />
    <glyph glyph-name="uring" unicode="&#x16f;" horiz-adv-x="1362" 
d="M819 1313.5c-44 -11.667 -92.001 -17.5 -144.001 -17.5s-100.667 7.33301 -146 22c-89.333 29.333 -150.333 83.333 -183 162c-15.333 37.333 -23 78.666 -23 123.999c0 102.667 40 181.334 120 236.001c64.667 44 147.667 66 249 66c172.667 0 283.667 -57.333 333 -172
c16.667 -38 24.834 -82.667 24.501 -134s-10.833 -96.5 -31.5 -135.5s-48 -71 -82 -96s-73 -43.333 -117 -55zM685.999 1743c-105.333 0 -158.001 -45.332 -158.001 -135.999c0 -64.667 31.333 -108.334 94 -131.001c19.333 -7.33301 40.833 -11 64.5 -11s45.334 2 65.001 6
s36.5 11 50.5 21c29.333 22 44 58 44 108c0 66.667 -32.333 111 -97 133c-19.333 6.66699 -40.333 10 -63 10zM144.998 1140h370.999v-679c0 -83.333 12.333 -140 37 -170c22.667 -27.333 60.667 -41 114 -41c47.333 0 92.333 11.667 135 35c11.333 6 20.333 12 27 18v837
h371v-1156h-268c-23.333 0 -40.666 3.5 -51.999 10.5s-17 22.833 -17 47.5v48c-62 -47.333 -144.333 -80 -247 -98c-30 -5.33301 -58.333 -8 -85 -8c-154 0 -260 46 -318 138c-45.333 70.667 -68 186.667 -68 348v670z" />
    <glyph glyph-name="Uhungarumlaut" unicode="&#x170;" horiz-adv-x="1545" 
d="M1408 632c0 -432 -209.333 -648 -628 -648c-333.333 0 -536 128.667 -608 386c-22.667 80.667 -34 170 -34 268l4 884h378l-3 -837v-65.5c0 -39 5.33301 -83.667 16 -134s27 -90.833 49 -121.5c38 -53.333 102.333 -80 193 -80c88.667 0 153 28 193 84
c42.667 60 64 165.667 64 317v837h376v-890zM396 1658c38.667 38.667 77.667 86.667 117 144c56 81.333 90 135.333 102 162l258 -118c-62 -97.333 -140.667 -187.333 -236 -270c-25.333 -22 -46 -36.667 -62 -44zM913 1658c58.667 58.667 124.666 144.333 197.999 257
c11.333 18 20.333 33.667 27 47l256 -119c-65.333 -99.333 -143.666 -188.333 -234.999 -267c-26 -22 -47.333 -36.667 -64 -44z" />
    <glyph glyph-name="uhungarumlaut" unicode="&#x171;" horiz-adv-x="1362" 
d="M145 1140h370.999v-679c0 -83.333 12.333 -140 37 -170c22.667 -27.333 60.667 -41 114 -41c47.333 0 92.333 11.667 135 35c11.333 6 20.333 12 27 18v837h371v-1156h-268c-23.333 0 -40.666 3.5 -51.999 10.5s-17 22.833 -17 47.5v48
c-62 -47.333 -144.333 -80 -247 -98c-30 -5.33301 -58.333 -8 -85 -8c-154 0 -260 46 -318 138c-45.333 70.667 -68 186.667 -68 348v670zM295.999 1391c34 45.333 85.668 121.334 155.001 228.001c90.667 142 139 217 145 225l215 -147c-32 -62 -90 -140 -174 -234
c-78.667 -86.667 -144.334 -145.334 -197.001 -176.001zM817 1391c10 12.667 23.834 32.001 41.501 58.001l59 86l66.5 97.5l63 94.5c38 58 62.667 95 74 111l216 -147c-49.333 -93.333 -133.333 -195.333 -252 -306c-54.667 -50.667 -97.334 -83.334 -128.001 -98.001z" />
    <glyph glyph-name="Uogonek" unicode="&#x172;" horiz-adv-x="1545" 
d="M604 -280c0 103.333 56.6699 191.332 170.003 263.999c-330.667 2 -531.334 130.667 -602.001 386c-22.667 80.667 -34 170 -34 268l4 884h378l-3 -837v-65.5c0 -39 5.33301 -83.667 16 -134s27 -90.833 49 -121.5c38 -53.333 102.333 -80 193 -80
c88.667 0 153 28 193 84c42.667 60 64 165.667 64 317v837h376v-890c0 -340 -129.667 -546 -389 -618c-80.667 -78 -120 -151.667 -118 -221c4 -61.333 48.333 -92 133 -92c31.333 0 67.666 6.66699 108.999 20v-170c-71.333 -44.667 -157.333 -67 -258 -67
c-74.667 0 -139.334 21 -194.001 63c-58 44.667 -87 102.334 -87 173.001z" />
    <glyph glyph-name="uogonek" unicode="&#x173;" horiz-adv-x="1362" 
d="M896 -12c-22 6.66699 -33 24.6689 -33 54.002v48c-62 -47.333 -144.333 -80 -247 -98c-30 -5.33301 -58.333 -8 -85 -8c-154 0 -260 46 -318 138c-45.333 70.667 -68 186.667 -68 348v670h371v-679c0 -83.333 12.333 -140 37 -170c22.667 -27.333 60.667 -41 114 -41
c47.333 0 92.333 11.667 135 35c11.333 6 20.333 12 27 18v837h371v-1156h-56c-110 -63.333 -161.667 -128.333 -155 -195c2.66699 -58.667 44.334 -88 125.001 -88c31.333 0 67.666 6.66699 108.999 20v-170c-71.333 -44.667 -157.333 -67 -258 -67
c-76.667 0 -141 18.333 -193 55c-58.667 41.333 -88 95.666 -88 162.999c0 111.333 70.667 206.666 212 285.999z" />
    <glyph glyph-name="Wcircumflex" unicode="&#x174;" horiz-adv-x="1998" 
d="M-13 1522h382l159 -850l47 -363l55 363l201 850h347l207 -850l56 -343l45 343l158 850h367l-401 -1532h-375l-195 795l-49 318l-43 -319l-193 -794h-368zM586 1656l284 308h234l285 -306l-178 -116l-224 193l-223 -193z" />
    <glyph glyph-name="wcircumflex" unicode="&#x175;" horiz-adv-x="1783" 
d="M489 1363l305 370h223l304 -370l-177 -114l-239 227l-240 -227zM-2 1140h361l117 -461l61 -299l69 299l135 461h333l134 -461l65 -299l60 300l108 460h344l-359 -1156h-325l-166 561l-43 214l-44 -214l-160 -561h-335z" />
    <glyph glyph-name="Ycircumflex" unicode="&#x176;" horiz-adv-x="1289" 
d="M448 536l-501 986h417l226 -492l64 -170l54 170l229 492h405l-505 -988v-534h-389v536zM263 1656l284 308h234l285 -306l-178 -116l-224 193l-223 -193z" />
    <glyph glyph-name="ycircumflex" unicode="&#x177;" horiz-adv-x="1208" 
d="M121 -203c16 -6 38.5 -10.999 67.5 -14.999s52 -6 69 -6s39.667 1.83301 68 5.5s55.5 13.167 81.5 28.5c58.667 33.333 100 96.666 124 189.999h-142l-393 1140h391l164 -600l75 -313l196 913h388l-359 -1167c-74 -236 -195.333 -385.333 -364 -448
c-50.667 -21.333 -116.334 -32 -197.001 -32c-35.333 0 -71.666 2.83301 -108.999 8.5s-57.333 9.5 -60 11.5v284zM207 1363l305 370h223l304 -370l-177 -114l-239 227l-240 -227z" />
    <glyph glyph-name="Ydieresis" unicode="&#x178;" horiz-adv-x="1289" 
d="M448 536l-501 986h417l226 -492l64 -170l54 170l229 492h405l-505 -988v-534h-389v536zM930 1582c-56.667 0 -102.666 16.999 -137.999 50.999s-53 78.333 -53 133c0 54 20.333 100.667 61 140c40 38.667 89.167 58 147.5 58s104.166 -16.667 137.499 -50
s50 -77.666 50 -132.999c0 -56 -19.667 -103 -59 -141c-40 -38.667 -88.667 -58 -146 -58zM389.001 1582c-56.667 0 -102.667 16.999 -138 50.999s-53 78.333 -53 133c0 54 20.333 100.667 61 140c40 38.667 89 58 147 58s103.833 -16.667 137.5 -50
s50.5 -77.666 50.5 -132.999c0 -56 -19.667 -103 -59 -141c-40 -38.667 -88.667 -58 -146 -58z" />
    <glyph glyph-name="Zacute" unicode="&#x179;" horiz-adv-x="1302" 
d="M36 84l625 1062l67 98h-620v278h1095l41 -81l-613 -1052l-74 -105h649v-284h-1128zM529 1666c108 108 185.999 199.333 233.999 274c12.667 18.667 21.334 34.667 26.001 48l262 -130c-60.667 -89.333 -140 -174.333 -238 -255c-44 -36.667 -81 -59.667 -111 -69z" />
    <glyph glyph-name="zacute" unicode="&#x17a;" horiz-adv-x="1110" 
d="M430 1396c123.333 123.333 236.333 266.332 339 428.999l243 -189c-38.667 -91.333 -131 -194.666 -277 -309.999c-52 -40.667 -96 -70 -132 -88zM52 82.999l518 805h-450l2 252h903l35 -95l-447 -693l-66 -92h492v-260h-945z" />
    <glyph glyph-name="Zdotaccent" unicode="&#x17b;" horiz-adv-x="1302" 
d="M532.5 1642c-34.333 30.667 -51.5 74.333 -51.5 131c0 55.333 20 101 60 137c39.333 35.333 89.333 53 150 53s107.667 -15 141 -45s50 -73.667 50 -131c0 -55.333 -19.667 -101 -59 -137c-38 -36 -87.333 -54 -148 -54s-108.167 15.333 -142.5 46zM36 83.999l625 1062
l67 98h-620v278h1095l41 -81l-613 -1052l-74 -105h649v-284h-1128z" />
    <glyph glyph-name="zdotaccent" unicode="&#x17c;" horiz-adv-x="1110" 
d="M52 83l518 805h-450l2 252h903l35 -95l-447 -693l-66 -92h492v-260h-945zM567 1279c-60 0 -109 17.667 -147 53c-39.333 36.667 -59 83 -59 139s22.167 104.333 66.5 145s96.5 61 156.5 61s109 -17.667 147 -53s57 -81.333 57 -138c0 -56 -21.667 -104.667 -65 -146
c-43.333 -40.667 -95.333 -61 -156 -61z" />
    <glyph glyph-name="Zcaron" unicode="&#x17d;" horiz-adv-x="1302" 
d="M276 1849l176 115l223 -167l224 167l175 -115l-282 -291h-234zM36 84l625 1062l67 98h-620v278h1095l41 -81l-613 -1052l-74 -105h649v-284h-1128z" />
    <glyph glyph-name="zcaron" unicode="&#x17e;" horiz-adv-x="1110" 
d="M162 1626l176 113l240 -227l239 227l177 -114l-304 -369h-223zM52 83l518 805h-450l2 252h903l35 -95l-447 -693l-66 -92h492v-260h-945z" />
    <glyph glyph-name="florin" unicode="&#x192;" horiz-adv-x="1196" 
d="M1101 1395c-25.333 18 -69.832 26.999 -133.499 26.999s-111.834 -18.167 -144.501 -54.5s-52.667 -91.5 -60 -165.5l-7 -62h260l-20 -247h-260l-111 -1249h-375l110 1249h-157l18 214l160 33l9 97c14.667 158.667 76.667 276.334 186 353.001
c89.333 62.667 203 94 341 94c91.333 0 160 -7.66699 206 -23z" />
    <glyph glyph-name="AEacute" unicode="&#x1fc;" horiz-adv-x="1970" 
d="M911 1666c108 108 185.999 199.333 233.999 274c12.667 18.667 21.334 34.667 26.001 48l262 -130c-60.667 -89.333 -140 -174.333 -238 -255c-44 -36.667 -81 -59.667 -111 -69zM601.999 1522h1220v-284h-578v-319h444v-277h-444v-351h639v-291h-1017v318h-438
l-137 -318h-410zM865.999 579v755l-326 -755h326z" />
    <glyph glyph-name="aeacute" unicode="&#x1fd;" horiz-adv-x="1877" 
d="M787 1396c123.333 123.333 236.333 266.332 339 428.999l243 -189c-38.667 -91.333 -131 -194.666 -277 -309.999c-52 -40.667 -96 -70 -132 -88zM881 155.999c-104.667 -114.667 -244.334 -172 -419.001 -172c-108.667 0 -196.667 30.667 -264 92
c-70.667 62.667 -106 148.334 -106 257.001c0 102.667 41.333 186.334 124 251.001c50.667 39.333 105.167 65.833 163.5 79.5s107.166 23.167 146.499 28.5c68.667 9.33301 143.667 14 225 14v61c0 47.333 -16.5 80.333 -49.5 99s-75 28 -126 28
s-93.5 -2.83301 -127.5 -8.5s-66 -12.834 -96 -21.501c-62 -16.667 -108 -33.667 -138 -51l-79 222c82.667 46.667 191.334 83 326.001 109c57.333 10.667 119.333 16 186 16c161.333 0 273.333 -32.667 336 -98c92 62.667 203.333 94 334 94
c218.667 0 363.334 -78.667 434.001 -236c26.667 -60 40.167 -133.667 40.5 -221s-3.16699 -158 -10.5 -212h-664c12 -158 106.333 -237 283 -237c85.333 0 168 12 248 36c22.667 7.33301 41 14.666 55 21.999l57 -201c-66 -54 -166.667 -91.667 -302 -113
c-45.333 -6.66699 -93.333 -10 -144 -10c-190.667 0 -335 57.333 -433 172zM1453 667.999c0.666992 14 1.00098 27.666 1.00098 40.999c0 62.667 -10.167 113 -30.5 151s-58.5 57 -114.5 57c-82.667 0 -138.334 -43.667 -167.001 -131
c-10 -31.333 -17.333 -70.666 -22 -117.999h333zM466.001 357.998c0 -24 4.16797 -45.333 12.501 -64s19.166 -34 32.499 -46c50.667 -47.333 119 -51.333 205 -12c35.333 16.667 62.333 37.667 81 63c-26.667 68.667 -42 145 -46 229c-90 -1.33301 -165 -18.333 -225 -51
c-40 -22 -60 -61.667 -60 -119z" />
    <glyph glyph-name="uni0218" unicode="&#x218;" horiz-adv-x="1229" 
d="M505 -488c15.333 28 22.998 61.3311 22.998 99.998s-1.66699 64.5 -5 77.5s-7.66602 25.167 -12.999 36.5c-10 22.667 -21.667 37.667 -35 45v50l228 95c38.667 -12 68.334 -50.333 89.001 -115c6.66699 -22 10 -49.667 10 -83s-5.16699 -66.666 -15.5 -99.999
s-22.5 -62.666 -36.5 -87.999c-26 -46.667 -52.667 -76.667 -80 -90l-165 45v27zM176.998 373.998c72 -41.333 165.998 -70.666 281.998 -87.999c40 -6 88.333 -9 145 -9c120.667 0 181 43 181 129c0 44.667 -23 84 -69 118c-27.333 19.333 -86.333 50.666 -177 93.999
s-157.667 79.666 -201 108.999s-81.333 63 -114 101c-70 82.667 -105 180.334 -105 293.001c0 134.667 50.333 239 151 313c94.667 69.333 225.334 104 392.001 104c184.667 0 327.667 -29 429 -87l-59 -286c-52.667 41.333 -131.667 71 -237 89
c-33.333 5.33301 -76.5 8 -129.5 8s-96.333 -11.667 -130 -35s-50.5 -50.5 -50.5 -81.5s5 -55.667 15 -74s26 -36.166 48 -53.499c37.333 -30 96.333 -63.167 177 -99.5s146.834 -69.833 198.501 -100.5s95.5 -64.334 131.5 -101.001c74 -75.333 111 -169.333 111 -282
c0 -138.667 -48 -248 -144 -328c-97.333 -82 -234.333 -123 -411 -123c-152.667 0 -289.667 21.333 -411 64c-32 10.667 -55.333 20.667 -70 30z" />
    <glyph glyph-name="uni0219" unicode="&#x219;" horiz-adv-x="1084" 
d="M405 -488c15.333 28 22.998 61.3311 22.998 99.998s-1.66699 64.5 -5 77.5s-7.66602 25.167 -12.999 36.5c-10 22.667 -21.667 37.667 -35 45v50l228 95c38.667 -12 68.334 -50.333 89.001 -115c6.66699 -22 10 -49.667 10 -83s-5.16699 -66.666 -15.5 -99.999
s-22.5 -62.666 -36.5 -87.999c-26 -46.667 -52.667 -76.667 -80 -90l-165 45v27zM142.998 331.998c42.667 -36 117.667 -65.665 225 -88.998c36.667 -8 79.667 -12 129 -12c98.667 0 148 27.667 148 83c0 40.667 -47.667 78.667 -143 114
c-30.667 11.333 -68.834 24.5 -114.501 39.5s-87.167 34.167 -124.5 57.5s-67.666 49.666 -90.999 78.999c-45.333 56.667 -68 130 -68 220c0 106 46.667 188.667 140 248c86 56 197.333 84 334 84c160 0 282.333 -23.333 367 -70l-33 -260c-44 35.333 -108 61.333 -192 78
c-28 6 -64.667 9 -110 9c-97.333 0 -146.666 -26 -147.999 -78c0 -29.333 16.667 -54.333 50 -75c30.667 -18.667 82.167 -39.5 154.5 -62.5s128.166 -45 167.499 -66s72 -45.5 98 -73.5c52.667 -54.667 79 -125.334 79 -212.001c0 -117.333 -43.667 -207.333 -131 -270
c-85.333 -62 -202 -93 -350 -93c-132 0 -250.667 20.333 -356 61c-28.667 11.333 -51 22 -67 32z" />
    <glyph glyph-name="uni021A" unicode="&#x21a;" horiz-adv-x="1253" 
d="M516 -488c15.333 28 22.998 61.3311 22.998 99.998s-1.66699 64.5 -5 77.5s-7.66602 25.167 -12.999 36.5c-10 22.667 -21.667 37.667 -35 45v50l228 95c38.667 -12 68.334 -50.333 89.001 -115c6.66699 -22 10 -49.667 10 -83s-5.16699 -66.666 -15.5 -99.999
s-22.5 -62.666 -36.5 -87.999c-26 -46.667 -52.667 -76.667 -80 -90l-165 45v27zM434.998 1228h-407v294h1197v-294h-406v-1228h-384v1228z" />
    <glyph glyph-name="uni021B" unicode="&#x21b;" horiz-adv-x="926" 
d="M319 -488c15.333 28 22.998 61.3311 22.998 99.998s-1.66699 64.5 -5 77.5s-7.66602 25.167 -12.999 36.5c-10 22.667 -21.667 37.667 -35 45v50l228 95c38.667 -12 68.334 -50.333 89.001 -115c6.66699 -22 10 -49.667 10 -83s-5.16699 -66.666 -15.5 -99.999
s-22.5 -62.666 -36.5 -87.999c-26 -46.667 -52.667 -76.667 -80 -90l-165 45v27zM188.998 896.998h-132.001v196c86 25.333 138.333 46.833 157 64.5s31.5 33.5 38.5 47.5s13.667 28.833 20 44.5l20 49l21 52l20.5 49.5h225v-260h296v-243h-296v-406
c0 -101.333 9.33301 -166.333 28 -195c10 -15.333 23.5 -25 40.5 -29s35 -6 54 -6s36.333 1.16699 52 3.5s31.167 5.5 46.5 9.5c36 10 62 20.667 78 32l44 -206c-50 -47.333 -136 -82.333 -258 -105c-40 -7.33301 -85.667 -11 -137 -11s-98.166 7.66699 -140.499 23
s-76.5 38.333 -102.5 69c-50 58.667 -75 151.667 -75 279v542z" />
    <glyph glyph-name="dotlessj" unicode="&#x237;" horiz-adv-x="677" 
d="M275 -478c-54 -19.333 -117.667 -28.999 -191 -28.999s-136 8.66699 -188 26v234c22 -14.667 53.667 -22 95 -22s71.333 4.33301 90 13s33.667 23.334 45 44.001c22 41.333 33 112.666 33 213.999v1138h372v-1058c0 -310.667 -85.333 -497.334 -256 -560.001z" />
    <glyph glyph-name="circumflex" unicode="&#x2c6;" horiz-adv-x="894" 
d="M31 1363l305 370h223l304 -370l-177 -114l-239 227l-240 -227z" />
    <glyph glyph-name="caron" unicode="&#x2c7;" horiz-adv-x="830" 
d="M31 1619l176 113l240 -227l239 227l177 -114l-304 -369h-223z" />
    <glyph glyph-name="uni02c9" unicode="&#x2c9;" horiz-adv-x="701" 
d="M41 1967h619v-246h-619v246z" />
    <glyph glyph-name="breve" unicode="&#x2d8;" horiz-adv-x="825" 
d="M412 1286c-62 0 -117.333 10 -166 30c-96 39.333 -160.667 110 -194 212c-16 46.667 -24 97.667 -24 153v7h227c4.66699 -42.667 13.334 -74 26.001 -94c27.333 -43.333 71.666 -65 132.999 -65c59.333 0 102 20.333 128 61c14 21.333 24.667 54 32 98h224v-6
c0 -114.667 -33.333 -208.667 -100 -282c-70 -76 -165.333 -114 -286 -114z" />
    <glyph glyph-name="dotaccent" unicode="&#x2d9;" horiz-adv-x="533" 
d="M259 1279c-60 0 -109 17.667 -147 53c-39.333 36.667 -59 83 -59 139s22.167 104.333 66.5 145s96.5 61 156.5 61s109 -17.667 147 -53s57 -81.333 57 -138c0 -56 -21.667 -104.667 -65 -146c-43.333 -40.667 -95.333 -61 -156 -61z" />
    <glyph glyph-name="ring" unicode="&#x2da;" horiz-adv-x="779" 
d="M522 1313.5c-44 -11.667 -92.001 -17.5 -144.001 -17.5s-100.667 7.33301 -146 22c-89.333 29.333 -150.333 83.333 -183 162c-15.333 37.333 -23 78.666 -23 123.999c0 102.667 40 181.334 120 236.001c64.667 44 147.667 66 249 66c172.667 0 283.667 -57.333 333 -172
c16.667 -38 24.834 -82.667 24.501 -134s-10.833 -96.5 -31.5 -135.5s-48 -71 -82 -96s-73 -43.333 -117 -55zM388.999 1743c-105.333 0 -158.001 -45.332 -158.001 -135.999c0 -64.667 31.333 -108.334 94 -131.001c19.333 -7.33301 40.833 -11 64.5 -11s45.334 2 65.001 6
s36.5 11 50.5 21c29.333 22 44 58 44 108c0 66.667 -32.333 111 -97 133c-19.333 6.66699 -40.333 10 -63 10z" />
    <glyph glyph-name="ogonek" unicode="&#x2db;" horiz-adv-x="650" 
d="M566 -451c-60 -44.667 -139.335 -66.9971 -238.002 -66.9971c-113.333 0 -192.666 31.667 -237.999 95c-18 26 -27 57.833 -27 95.5s6 72.167 18 103.5s29.333 60.666 52 87.999c38.667 47.333 89.667 89 153 125l264 40
c-73.333 -46.667 -123.666 -84.334 -150.999 -113.001c-50.667 -52.667 -76 -102.334 -76 -149.001c0 -34 11 -56.5 33 -67.5s51.5 -16.5 88.5 -16.5s76.5 4.33301 118.5 13z" />
    <glyph glyph-name="tilde" unicode="&#x2dc;" horiz-adv-x="933" 
d="M303 1434c-56.667 0 -110.667 -33.667 -162 -101l-133 133c17.333 63.333 52.333 116 105 158c59.333 48.667 128.333 73 207 73c57.333 0 100.166 -8.16699 128.499 -24.5s49 -30 62 -41l37.5 -31.5c28 -22.667 56.667 -34 86 -34c57.333 0 113 35.333 167 106l127 -136
c-17.333 -63.333 -51.666 -117.333 -102.999 -162c-58 -49.333 -125 -74 -201 -74c-51.333 0 -91.5 8.33301 -120.5 25s-50.333 30.667 -64 42s-27.5 22 -41.5 32c-31.333 23.333 -63 35 -95 35z" />
    <glyph glyph-name="hungarumlaut" unicode="&#x2dd;" horiz-adv-x="1041" 
d="M27 1384c34 45.333 85.668 121.334 155.001 228.001c90.667 142 139 217 145 225l215 -147c-32 -62 -90 -140 -174 -234c-78.667 -86.667 -144.334 -145.334 -197.001 -176.001zM548.001 1384c10 12.667 23.834 32.001 41.501 58.001l59 86l66.5 97.5l63 94.5
c38 58 62.667 95 74 111l216 -147c-49.333 -93.333 -133.333 -195.333 -252 -306c-54.667 -50.667 -97.334 -83.334 -128.001 -98.001z" />
    <glyph glyph-name="uni0394" unicode="&#x394;" horiz-adv-x="1625" 
d="M769 1508h40l735 -1481l-16 -27h-1436l-14 22zM1071 290l-288 602l-270 -602h558z" />
    <glyph glyph-name="uni03A9" unicode="&#x3a9;" horiz-adv-x="1829" 
d="M159 251l303.999 0.000976562c-132 106 -221.667 245.333 -269 418c-16 57.333 -24 116.333 -24 177c0 159.333 38 295.666 114 408.999c97.333 146.667 247.333 237.667 450 273c62 11.333 136 17 222 17s174 -13.667 264 -41
c186.667 -55.333 314.667 -168.666 384 -339.999c34.667 -84.667 52 -185 52 -301c0 -188.667 -59.333 -355.667 -178 -501c-35.333 -43.333 -73 -80.333 -113 -111h315v-251h-638v213c55.333 30.667 105.333 95.667 150 195c54 122.667 81 259.667 81 411
c0 155.333 -35 273.666 -105 354.999c-62 72 -143.667 108 -245 108c-171.333 0 -284.666 -83.333 -339.999 -250c-19.333 -58.667 -29 -129.667 -29 -213s9 -159.5 27 -228.5s40.167 -129.333 66.5 -181s54.5 -94.167 84.5 -127.5s57.333 -56.333 82 -69v-213h-655v251z
" />
    <glyph glyph-name="uni03BC" unicode="&#x3bc;" horiz-adv-x="1407" 
d="M664 -16c-94 0 -163.332 20.001 -207.999 60.001l29 -415h-335v1511h370v-650c0 -82 13.333 -141.5 40 -178.5s70.667 -55.5 132 -55.5s111.333 18 150 54v830h370v-825c0 -50.667 16.333 -76 49 -76c27.333 0 55.666 9 84.999 27l31 -179
c-11.333 -18.667 -34.333 -36.334 -69 -53.001c-72 -34.667 -142.667 -52 -212 -52c-112 0 -173 46 -183 138c-47.333 -90.667 -130.333 -136 -249 -136z" />
    <glyph glyph-name="pi" unicode="&#x3c0;" horiz-adv-x="1603" 
d="M132 127c26.667 6 54.168 20.002 82.501 42.002s51 45 68 69s30.833 49.333 41.5 76c17.333 44 30 101.667 38 173l44 363h-70c-64.667 0 -117.334 -17 -158.001 -51c-10.667 -9.33301 -21 -19 -31 -29l-126 95c4.66699 65.333 22.334 120 53.001 164
c29.333 37.333 59.666 62.333 90.999 75c56 24 124.667 36 206 36h881c41.333 0 71.833 5.66699 91.5 17s34.167 30.666 43.5 57.999h196c-4 -131.333 -31.667 -225 -83 -281c-51.333 -55.333 -134 -83 -248 -83h-21l-16 -503v-39c0 -20 5.66699 -38.333 17 -55
s26.333 -25 45 -25s36 4.16699 52 12.5s31.333 18.666 46 30.999s28.167 25.5 40.5 39.5l34.5 38l110 -131c-32.667 -63.333 -85.334 -118 -158.001 -164c-83.333 -52.667 -172.166 -79 -266.499 -79s-159.333 23.5 -195 70.5s-53.5 106.5 -53.5 178.5c0 18 1 37 3 57
l57 568h-240l-23 -450c-6.66699 -102.667 -18.667 -173 -36 -211s-34.5 -66.667 -51.5 -86s-36.833 -39 -59.5 -59c-56 -42 -123 -64.667 -201 -68z" />
    <glyph glyph-name="uni1E02" unicode="&#x1e02;" horiz-adv-x="1462" 
d="M581.5 1642c-34.333 30.667 -51.5 74.333 -51.5 131c0 55.333 20 101 60 137c39.333 35.333 89.333 53 150 53s107.667 -15 141 -45s50 -73.667 50 -131c0 -55.333 -19.667 -101 -59 -137c-38 -36 -87.333 -54 -148 -54s-108.167 15.333 -142.5 46zM1060 20.999
c-80.667 -23.333 -180.499 -34.999 -299.499 -34.999s-250.833 4.66699 -395.5 14h-192v1523l185 -1l363 15c390 0 585 -130.667 585 -392c0 -129.333 -42.667 -227 -128 -293c-28.667 -21.333 -62 -37.333 -100 -48c90 -10.667 163.333 -46.334 220 -107.001
c59.333 -62.667 89 -135.167 89 -217.5s-10 -152.5 -30 -210.5s-54.333 -108 -103 -150s-113.334 -74.667 -194.001 -98zM875.501 1242.5c-45 25.667 -106.5 38.5 -184.5 38.5s-124.667 -4.33301 -140 -13v-365c21.333 -5.33301 61.333 -8 120 -8s103.167 3.66699 133.5 11
s55.833 19.333 76.5 36c41.333 34.667 62 87 62 157s-22.5 117.833 -67.5 143.5zM997.001 458c0 134.667 -89.667 202 -269 202c-94 0 -153 -2.66699 -177 -8v-394c25.333 -15.333 84.5 -23 177.5 -23s161 17.333 204 52s64.5 91.667 64.5 171z" />
    </font>
</defs>
</svg>
