<?xml version="1.0" standalone="no"?>
<!DOCTYPE svg PUBLIC "-//W3C//DTD SVG 1.1//EN" "http://www.w3.org/Graphics/SVG/1.1/DTD/svg11.dtd" >
<svg>
<metadata>
Created by FontForge 20090914 at Wed Mar 26 13:55:16 2014
 By www-data
Copyright (c) 2013, Sorkin Type Co (www.sorkintype.com) with Reserved Font Name 'Merriweather'
</metadata>
<defs>
<font id="MerriweatherSans-Regular" horiz-adv-x="0" >
  <font-face 
    font-family="Merriweather Sans"
    font-weight="400"
    font-stretch="normal"
    units-per-em="2048"
    panose-1="2 0 5 3 6 0 0 2 0 4"
    ascent="1638"
    descent="-410"
    x-height="1140"
    cap-height="1522"
    bbox="-114.998 -560 2725 2000"
    underline-thickness="137"
    underline-position="-212"
    unicode-range="U+0001-U+FB04"
  />
<missing-glyph horiz-adv-x="1872" 
d="M228 1416h1416v-1416h-1416v1416zM586 219l347 368l362 -368l122 122l-363 368l363 358l-128 124l-352 -366l-357 368l-123 -125l359 -363l-358 -342z" />
    <glyph glyph-name="f_f" unicode="ff" horiz-adv-x="1622" 
d="M803 1486c-40 13.333 -84.665 19.999 -133.998 19.999s-83.833 -4.5 -103.5 -13.5s-36.834 -22.5 -51.501 -40.5c-30.667 -37.333 -46 -91.666 -46 -162.999v-149h282v-166h-282v-974h-220v974h-173v122l173 44v99c0 200 74.667 334.667 224 404
c56.667 26 116.167 39 178.5 39s113.166 -7.33301 152.499 -22v-174zM1614 1486c-40 13.333 -84.665 19.999 -133.998 19.999s-83.833 -4.5 -103.5 -13.5s-36.834 -22.5 -51.501 -40.5c-30.667 -37.333 -46 -91.666 -46 -162.999v-149h282v-166h-282v-974h-220v974h-173v122
l173 44v99c0 200 74.667 334.667 224 404c56.667 26 116.167 39 178.5 39s113.166 -7.33301 152.499 -22v-174z" />
    <glyph glyph-name="f_i" unicode="fi" horiz-adv-x="1417" 
d="M1004 1138h220v-1138h-220v1138zM1167.5 1358.5c-19.667 -7.66699 -39.334 -11.499 -59.001 -11.499s-38 3.16699 -55 9.5s-32.167 15.5 -45.5 27.5c-28 25.333 -42 53.5 -42 84.5s4.66699 56 14 75s21.666 35.5 36.999 49.5c32.667 30 65.334 45 98.001 45
s57.834 -3.5 75.501 -10.5s32.167 -16.833 43.5 -29.5c23.333 -24 35 -51.667 35 -83s-4.5 -56.5 -13.5 -75.5s-21 -35.333 -36 -49s-32.333 -24.334 -52 -32.001zM803 1486c-40 13.333 -84.665 19.999 -133.998 19.999s-83.833 -4.5 -103.5 -13.5
s-36.834 -22.5 -51.501 -40.5c-30.667 -37.333 -46 -91.666 -46 -162.999v-149h282v-166h-282v-974h-220v974h-173v122l173 44v99c0 200 74.667 334.667 224 404c56.667 26 116.167 39 178.5 39s113.166 -7.33301 152.499 -22v-174z" />
    <glyph glyph-name="f_l" unicode="fl" horiz-adv-x="1424" 
d="M1008 1664h220v-1664h-220v1664zM803 1486c-40 13.333 -84.665 19.999 -133.998 19.999s-83.833 -4.5 -103.5 -13.5s-36.834 -22.5 -51.501 -40.5c-30.667 -37.333 -46 -91.666 -46 -162.999v-149h282v-166h-282v-974h-220v974h-173v122l173 44v99
c0 200 74.667 334.667 224 404c56.667 26 116.167 39 178.5 39s113.166 -7.33301 152.499 -22v-174z" />
    <glyph glyph-name="f_f_i" unicode="ffi" horiz-adv-x="2228" 
d="M1815 1138h220v-1138h-220v1138zM1978.5 1358.5c-19.667 -7.66699 -39.334 -11.499 -59.001 -11.499s-38 3.16699 -55 9.5s-32.167 15.5 -45.5 27.5c-28 25.333 -42 53.5 -42 84.5s4.66699 56 14 75s21.666 35.5 36.999 49.5c32.667 30 65.334 45 98.001 45
s57.834 -3.5 75.501 -10.5s32.167 -16.833 43.5 -29.5c23.333 -24 35 -51.667 35 -83s-4.5 -56.5 -13.5 -75.5s-21 -35.333 -36 -49s-32.333 -24.334 -52 -32.001zM803 1486c-40 13.333 -84.665 19.999 -133.998 19.999s-83.833 -4.5 -103.5 -13.5
s-36.834 -22.5 -51.501 -40.5c-30.667 -37.333 -46 -91.666 -46 -162.999v-149h282v-166h-282v-974h-220v974h-173v122l173 44v99c0 200 74.667 334.667 224 404c56.667 26 116.167 39 178.5 39s113.166 -7.33301 152.499 -22v-174zM1614 1486
c-40 13.333 -84.665 19.999 -133.998 19.999s-83.833 -4.5 -103.5 -13.5s-36.834 -22.5 -51.501 -40.5c-30.667 -37.333 -46 -91.666 -46 -162.999v-149h282v-166h-282v-974h-220v974h-173v122l173 44v99c0 200 74.667 334.667 224 404c56.667 26 116.167 39 178.5 39
s113.166 -7.33301 152.499 -22v-174z" />
    <glyph glyph-name="f_f_l" unicode="ffl" horiz-adv-x="2235" 
d="M1819 1664h220v-1664h-220v1664zM803 1486c-40 13.333 -84.665 19.999 -133.998 19.999s-83.833 -4.5 -103.5 -13.5s-36.834 -22.5 -51.501 -40.5c-30.667 -37.333 -46 -91.666 -46 -162.999v-149h282v-166h-282v-974h-220v974h-173v122l173 44v99
c0 200 74.667 334.667 224 404c56.667 26 116.167 39 178.5 39s113.166 -7.33301 152.499 -22v-174zM1614 1486c-40 13.333 -84.665 19.999 -133.998 19.999s-83.833 -4.5 -103.5 -13.5s-36.834 -22.5 -51.501 -40.5c-30.667 -37.333 -46 -91.666 -46 -162.999v-149h282
v-166h-282v-974h-220v974h-173v122l173 44v99c0 200 74.667 334.667 224 404c56.667 26 116.167 39 178.5 39s113.166 -7.33301 152.499 -22v-174z" />
    <glyph glyph-name=".notdef" horiz-adv-x="1872" 
d="M228 1416h1416v-1416h-1416v1416zM586 219l347 368l362 -368l122 122l-363 368l363 358l-128 124l-352 -366l-357 368l-123 -125l359 -363l-358 -342z" />
    <glyph glyph-name="uni0001" 
 />
    <glyph glyph-name="uni0002" 
 />
    <glyph glyph-name="uni0003" 
 />
    <glyph glyph-name="uni0005" 
 />
    <glyph glyph-name="uni0006" 
 />
    <glyph glyph-name="uni0007" 
 />
    <glyph glyph-name="uni0008" 
 />
    <glyph glyph-name="HT" unicode="&#x9;" 
 />
    <glyph glyph-name="LF" unicode="&#xa;" 
 />
    <glyph glyph-name="DLE" 
 />
    <glyph glyph-name="DC1" 
 />
    <glyph glyph-name="DC2" 
 />
    <glyph glyph-name="DC3" 
 />
    <glyph glyph-name="DC4" 
 />
    <glyph glyph-name="uni0015" 
 />
    <glyph glyph-name="uni0016" 
 />
    <glyph glyph-name="uni0017" 
 />
    <glyph glyph-name="uni0018" 
 />
    <glyph glyph-name="uni0019" 
 />
    <glyph glyph-name="RS" 
 />
    <glyph glyph-name="US" 
 />
    <glyph glyph-name="space" unicode=" " horiz-adv-x="655" 
 />
    <glyph glyph-name="exclam" unicode="!" horiz-adv-x="602" 
d="M182 1780h248l-24 -1274h-196zM192 21c-13.333 13.333 -24.167 29.668 -32.5 49.001s-12.5 40.5 -12.5 63.5s4.33301 44.667 13 65s20.667 38.166 36 53.499c32.667 34.667 65.334 52 98.001 52s58 -4 76 -12s33.333 -19 46 -33c26 -30 39 -61.667 39 -95
s-4.33301 -60.333 -13 -81s-20.667 -39 -36 -55c-32 -33.333 -69.667 -50 -113 -50c-38.667 0 -72.334 14.333 -101.001 43z" />
    <glyph glyph-name="quotedbl" unicode="&#x22;" horiz-adv-x="1284" 
d="M265 1685h242l-32 -719h-177zM776 1685h242l-32 -719h-177z" />
    <glyph glyph-name="numbersign" unicode="#" horiz-adv-x="1563" 
d="M409 355h-202v156h216l33 369h-215v153h229l31 340h191l-32 -340h307l30 340h190l-31 -340h222v-153h-236l-34 -369h226v-156h-241l-32 -355h-185l31 355h-310l-33 -355h-187zM921 511l32 369h-307l-35 -369h310z" />
    <glyph glyph-name="dollar" unicode="$" horiz-adv-x="1372" 
d="M647 161c202 0 303 70.334 303 211.001c0 68.667 -29.333 127.334 -88 176.001c-39.333 32.667 -102.5 70 -189.5 112s-153.333 78 -199 108s-86.167 64 -121.5 102c-80 84.667 -120 177 -120 277c0 116.667 40.667 209 122 277c69.333 58 162.333 93.667 279 107l2 231
h163l-2 -226c124 -6.66699 222.667 -32.334 296 -77.001l-45 -176c-86.667 53.333 -190.667 80 -312 80c-129.333 0 -217.666 -33.667 -264.999 -101c-16.667 -24 -25 -53.5 -25 -88.5s5.5 -66 16.5 -93s28.5 -51.833 52.5 -74.5c37.333 -35.333 93.833 -72.333 169.5 -111
s130.167 -67.334 163.5 -86.001s65.666 -38.5 96.999 -59.5s60.666 -43.667 87.999 -68s51.333 -50.833 72 -79.5c43.333 -62.667 65 -128 65 -196s-10 -126 -30 -174s-48 -89 -84 -123c-70 -66 -169.333 -106 -298 -120l-2 -226h-163l2 223
c-118 7.33301 -220 27.333 -306 60c-23.333 8.66699 -41 17 -53 25l53 183c67.333 -40.667 152.333 -69 255 -85c34.667 -5.33301 69.334 -8 104.001 -8z" />
    <glyph glyph-name="percent" unicode="%" horiz-adv-x="1962" 
d="M1207 1530h190l-650 -1530h-190zM697.5 778c-76.333 -75.333 -167.5 -112.998 -273.5 -112.998s-190.667 39.167 -254 117.5s-95 178.666 -95 300.999s38.167 221.666 114.5 297.999s170 114.5 281 114.5s195.667 -37.833 254 -113.5s87.5 -176.5 87.5 -302.5
s-38.167 -226.667 -114.5 -302zM442 812.002c56.667 0 100.001 23.333 130.001 70s45 111.334 45 194.001c0 129.333 -33 214 -99 254c-21.333 13.333 -45.333 20 -72 20c-56.667 0 -100.167 -24 -130.5 -72s-45.5 -113 -45.5 -195c0 -124.667 33 -208.334 99 -251.001
c21.333 -13.333 45.666 -20 72.999 -20zM1150 468.002c0 61.333 10.5 117.833 31.5 169.5s49.167 95.167 84.5 130.5c75.333 75.333 168.333 113 279 113c112 0 198 -39 258 -117c56 -74 84 -172.667 84 -296c0 -128 -39 -230 -117 -306
c-74.667 -74 -166.667 -111 -276 -111c-104 0 -187.667 39.667 -251 119c-62 78 -93 177.333 -93 298zM1346 468.002c0 -125.333 32.667 -208.668 98 -250.001c21.333 -14 45.666 -21 72.999 -21c56.667 0 100 23.333 130 70s45 111.334 45 194.001
c0 129.333 -32.667 214.333 -98 255c-21.333 13.333 -45.666 20 -72.999 20c-56.667 0 -100 -24 -130 -72s-45 -113.333 -45 -196z" />
    <glyph glyph-name="ampersand" unicode="&#x26;" horiz-adv-x="1532" 
d="M1062 62c-98 -52 -196.5 -77.999 -295.5 -77.999s-185.5 8.5 -259.5 25.5s-137.667 42.5 -191 76.5c-112.667 72.667 -169 175.334 -169 308.001c0 166 103.667 297 311 393c-54.667 74 -91.667 131 -111 171c-38.667 80.667 -58 153 -58 217s9.66699 118.167 29 162.5
s47 81.833 83 112.5c74 64 174.667 96 302 96c113.333 0 205 -35 275 -105c66 -66 99 -145.667 99 -239c0 -170.667 -65.667 -301.334 -197 -392.001c-42 -29.333 -89.333 -56.333 -142 -81c59.333 -85.333 124.833 -172 196.5 -260s120.5 -146 146.5 -174
c54.667 57.333 82 133.333 82 228c0 56 -11 124.333 -33 205h192c19.333 -62.667 29 -131.334 29 -206.001c0 -145.333 -46 -259.333 -138 -342c54.667 -35.333 126.667 -58 216 -68v-113c-33.333 -10 -72.333 -15 -117 -15c-90 0 -173.333 26 -250 78zM645 858.001
c81.333 36 141 78.668 179 128.001c44 56.667 66 127.667 66 213c0 46 -16 88 -48 126c-36 43.333 -83.667 65 -143 65c-95.333 0 -158.333 -35.333 -189 -106c-11.333 -24.667 -17 -55.167 -17 -91.5s3 -67.333 9 -93s15.333 -50.334 28 -74.001s28.5 -48.5 47.5 -74.5z
M556 658.002c-134.667 -70 -202 -156 -202 -258c0 -116 68 -194.333 204 -235c49.333 -14.667 101.333 -22 156 -22s96.667 3.83301 126 11.5s58 17.167 86 28.5c-94 104.667 -217.333 263 -370 475z" />
    <glyph glyph-name="quotesingle" unicode="'" horiz-adv-x="772" 
d="M265 1685h242l-32 -719h-177z" />
    <glyph glyph-name="parenleft" unicode="(" horiz-adv-x="846" 
d="M567 -330c-86 57.333 -171.001 155.333 -255.001 294c-128 212 -192 465 -192 759c0 316.667 96.667 600.334 290 851.001c62 80 114.333 132 157 156l151 -74c-69.333 -54 -140.333 -144.667 -213 -272c-62.667 -110 -110 -242 -142 -396c-20 -96 -30 -192.333 -30 -289
s6.16699 -183.167 18.5 -259.5s30 -148.833 53 -217.5s49.167 -129.834 78.5 -183.501s59 -100.167 89 -139.5c50.667 -68 99.334 -119.333 146.001 -154z" />
    <glyph glyph-name="parenright" unicode=")" horiz-adv-x="846" 
d="M279.034 1756.98c85.9951 -57.3291 170.99 -155.323 254.985 -293.981c127.992 -211.987 191.988 -464.972 191.988 -758.954c0 -316.647 -96.6611 -600.297 -289.982 -850.948c-61.9971 -79.9951 -114.327 -131.992 -156.991 -155.991l-150.99 73.9961
c69.3291 53.9961 140.325 144.657 212.988 271.982c62.6631 109.993 109.993 241.985 141.991 395.977c19.999 95.9941 29.998 192.321 29.998 288.982s-6.16602 183.156 -18.499 259.485c-12.333 76.3281 -29.999 148.823 -52.998 217.486
s-49.1641 129.826 -78.4951 183.489s-58.9961 100.16 -88.9941 139.491c-50.6641 67.9951 -99.3281 119.325 -145.991 153.99z" />
    <glyph glyph-name="asterisk" unicode="*" horiz-adv-x="1208" 
d="M559 1228l-39 166.999l-19 265h192l-13 -262l-34 -168l32.5 31.5l29 27l28.5 27.5c21.333 20.667 33 31.334 35 32.001l220 146l95 -163l-232 -121l-164 -55l165 -49l236 -115l-97 -170l-217 144l-131 113l39 -168l21 -262l-192 -1l12 263l35 170l-126 -121l-218 -146
l-96 164l231 124l165 53c-1.33301 0.666992 -6 2.16699 -14 4.5l-30 9l-38.5 11.5l-38.5 11c-28.667 8 -43.667 12.333 -45 13l-234 118l93 165l220 -145z" />
    <glyph glyph-name="plus" unicode="+" horiz-adv-x="1393" 
d="M607 521l7 171l-165 -7h-220v177h220l165 -11l-7 172v228h178v-228l-8 -172l141 11h246v-177h-246l-141 7l8 -171v-236h-178v236z" />
    <glyph glyph-name="comma" unicode="," horiz-adv-x="602" 
d="M160 140l139 131c64.667 -24.667 114 -71 148 -139c28.667 -56.667 43 -115.5 43 -176.5s-7.16699 -115.667 -21.5 -164s-33.833 -91.833 -58.5 -130.5c-50 -79.333 -111.667 -133 -185 -161l-74 92v26c59.333 29.333 99.666 87.333 120.999 174
c6.66699 27.333 10 53.333 10 78s-3.33301 48.5 -10 71.5s-15.667 44.5 -27 64.5c-25.333 43.333 -53.666 67 -84.999 71v63z" />
    <glyph glyph-name="hyphen" unicode="-" horiz-adv-x="1350" 
d="M250 860h850v-177h-850v177z" />
    <glyph glyph-name="period" unicode="." horiz-adv-x="602" 
d="M193 21c-13.333 13.333 -24.333 29.6689 -33 49.002s-13 40.5 -13 63.5s4.33301 44.667 13 65s20.667 38.166 36 53.499c32.667 34.667 65.5 52 98.5 52s58.5 -4 76.5 -12s33 -19 45 -33c26 -29.333 39 -60.833 39 -94.5s-4.16699 -60.834 -12.5 -81.501
s-19.833 -39 -34.5 -55c-32.667 -33.333 -71 -50 -115 -50c-38 0 -71.333 14.333 -100 43z" />
    <glyph glyph-name="slash" unicode="/" horiz-adv-x="854" 
d="M612 1599h198l-570 -1962h-198z" />
    <glyph glyph-name="zero" unicode="0" horiz-adv-x="1386" 
d="M268 186c-43.333 60.667 -74.167 129.333 -92.5 206s-27.5 160.834 -27.5 252.501s14.833 177.5 44.5 257.5s69.5 147.333 119.5 202c103.333 113.333 236.333 170 399 170c188 0 326.333 -62 415 -186c74.667 -104 112 -250.667 112 -440
c0 -198.667 -51.333 -359.334 -154 -482.001c-101.333 -121.333 -234 -182 -398 -182c-184 0 -323.333 67.333 -418 202zM451.999 297.999c58.667 -108 142.332 -161.999 250.999 -161.999c100 0 176.333 43 229 129c52.667 84.667 79 206 79 364
c0 226.667 -57.333 377.667 -172 453c-39.333 25.333 -86 38 -140 38s-101.167 -10.833 -141.5 -32.5s-74.166 -52.834 -101.499 -93.501c-54 -80.667 -81 -194.667 -81 -342c0 -141.333 25.667 -259.333 77 -354z" />
    <glyph glyph-name="one" unicode="1" horiz-adv-x="918" 
d="M378 999c-78.667 -22 -153 -39.667 -223 -53l-25 131c98 30 202 81 312 153c29.333 19.333 51 35.333 65 48l100 -25v-1253h-229v999z" />
    <glyph glyph-name="two" unicode="2" horiz-adv-x="1269" 
d="M147 113c186.667 108 343.332 227.667 469.999 359c143.333 148.667 215 288.667 215 420c0 107.333 -44.667 177 -134 209c-30 10.667 -63 16 -99 16s-70.167 -4 -102.5 -12s-63.166 -18.333 -92.499 -31c-58 -26 -106.333 -59 -145 -99l-93 124
c77.333 85.333 177.333 143.666 300 174.999c46.667 12 104.5 18 173.5 18s131.5 -10.667 187.5 -32s101 -50 135 -86c62.667 -66.667 94 -156.667 94 -270c0 -127.333 -50 -256.666 -150 -387.999c-96.667 -126.667 -228.667 -241.667 -396 -345l615 6v-177h-945z" />
    <glyph glyph-name="three" unicode="3" horiz-adv-x="1147" 
d="M504 1115c-107.333 0 -211.996 -35.9951 -313.996 -107.995l-86 125c80 66 177 113.333 291 142c42 10 88.333 15 139 15s102.167 -7.5 154.5 -22.5s98.5 -37.5 138.5 -67.5c86.667 -64.667 130 -154 130 -268c0 -122 -55.667 -225.667 -167 -311
c-33.333 -26 -69.333 -48 -108 -66c109.333 -12.667 197.333 -55.334 264 -128.001c61.333 -66.667 92 -140.334 92 -221.001s-15.333 -153 -46 -217c-64.667 -132.667 -180.667 -227.667 -348 -285c-82 -28 -174.667 -42 -278 -42c-68.667 0 -139.667 6.66699 -213 20
l-1 152c56.667 -11.333 116.667 -17 180 -17s125.666 9.33301 186.999 28s113.666 44 156.999 76c92 67.333 138 151.666 138 252.999c0 141.333 -64.667 229 -194 263c-32.667 8 -63.5 12 -92.5 12s-52.5 -0.666992 -70.5 -2l-91 -22l-46 151
c67.333 13.333 133.166 33.166 197.499 59.499s117.166 63.166 158.499 110.499c42.667 48 64 103 64 165c0 68.667 -22.333 120.667 -67 156c-40.667 32.667 -97 49 -169 49z" />
    <glyph glyph-name="four" unicode="4" horiz-adv-x="1339" 
d="M700 1299h79l136 -84l-466 -894l-89 -151h460l18 433h202v-433h231v-170h-231v-376h-220v376h-650l-54 104z" />
    <glyph glyph-name="five" unicode="5" horiz-adv-x="1227" 
d="M205 -188c21.333 -1.33301 42.333 -2.00293 63 -2.00293c171.333 0 312 38.667 422 116c110.667 78 166 177 166 297c0 100.667 -25.833 176.5 -77.5 227.5s-134.5 76.5 -248.5 76.5c-77.333 0 -167.333 -16 -270 -48l-50 30l56 743h771l-22 -190h-578l-39 -400
c84 19.333 161.667 29 233 29s135.166 -10.667 191.499 -32s103.5 -51.666 141.5 -90.999c77.333 -79.333 116 -189.666 116 -330.999c0 -71.333 -16.167 -141.666 -48.5 -210.999s-80.166 -131.333 -143.499 -186c-142 -123.333 -328.667 -186.333 -560 -189
c-54.667 0 -96 4.33301 -124 13z" />
    <glyph glyph-name="six" unicode="6" horiz-adv-x="1373" 
d="M584 771l-60 130c39.333 36.667 100.333 63 183 79c30 5.33301 69.833 8 119.5 8s99.5 -12 149.5 -36s92 -56.333 126 -97c70.667 -83.333 106 -187.333 106 -312c0 -155.333 -44 -284.333 -132 -387c-97.333 -114.667 -231.333 -172 -402 -172
c-157.333 0 -283.666 58 -378.999 174c-90 110 -135 247.667 -135 413c0 172 43.333 333.333 130 484c78.667 136 184 251.333 316 346c125.333 90 253 147.333 383 172l60 -142c-121.333 -32 -233 -89 -335 -171c-144.667 -116.667 -241.334 -260 -290.001 -430
c-15.333 -53.333 -23.5 -97 -24.5 -131s-1.5 -58 -1.5 -72c0 -326.667 101.667 -490 305 -490c90 0 160.667 37 212 111c46.667 68 70 151 70 249c0 114 -23 198.333 -69 253c-38.667 44.667 -91 67 -157 67s-124.333 -15.333 -175 -46z" />
    <glyph glyph-name="seven" unicode="7" horiz-adv-x="1241" 
d="M340 -267c175.333 373.333 363.333 826 564 1358l-754 2l1 178h949l46 -58l-571 -1548z" />
    <glyph glyph-name="eight" unicode="8" horiz-adv-x="1307" 
d="M318 713c39.333 33.333 87 63.666 143 90.999c-166.667 106 -250 236 -250 390c0 117.333 45.667 210 137 278c84.667 62 193.667 93 327 93c132 0 238.333 -32 319 -96c81.333 -64.667 122 -149 122 -253c0 -125.333 -51 -235 -153 -329
c-35.333 -32.667 -77.666 -61 -126.999 -85c108.667 -62.667 183 -114 223 -154c78.667 -80 118 -164.333 118 -253c0 -130.667 -49.667 -233 -149 -307c-92.667 -69.333 -210.334 -104 -353.001 -104c-143.333 0 -262.333 30.333 -357 91
c-110.667 71.333 -166 171.833 -166 301.5s55.333 241.834 166 336.501zM691 884c106 35.333 175.333 106.001 208 212.001c10 33.333 15 66.166 15 98.499s-5 61.5 -15 87.5s-25.667 48.667 -47 68c-44.667 41.333 -106 62 -184 62c-72.667 0 -132.667 -18 -180 -54
c-49.333 -36.667 -74 -87 -74 -151c0 -94 56.667 -179.333 170 -256c34 -22.667 69.667 -45 107 -67zM363 402.001c0 -82.667 26 -147.331 78 -193.998s132.667 -70 242 -70c72.667 0 136 20.667 190 62c57.333 44 86 101.667 86 173
c0 103.333 -73.667 195.666 -221 276.999l-130 71c-114 -46.667 -189.667 -119.334 -227 -218.001c-12 -32 -18 -65.667 -18 -101z" />
    <glyph glyph-name="nine" unicode="9" horiz-adv-x="1399" 
d="M981 625c0 326.667 -101.666 489.998 -304.999 489.998c-80.667 0 -148 -33.333 -202 -100c-51.333 -62.667 -77 -129.834 -77 -201.501s6.16699 -130.667 18.5 -177s29.5 -85.166 51.5 -116.499c44 -62 102.667 -93 176 -93c58.667 0 106 8.33301 142 25l30 14l52 -124
c-32 -37.333 -91 -63.333 -177 -78c-30.667 -5.33301 -72.167 -8 -124.5 -8s-103.833 13 -154.5 39s-93.667 60.667 -129 104c-70.667 88 -106 196.667 -106 326c0 164.667 46.667 296.334 140 395.001c96 101.333 227 152 393 152c160.667 0 287 -58.667 379 -176
c85.333 -107.333 128 -244.666 128 -411.999c0 -180.667 -45.667 -353 -137 -517c-80 -144 -189 -267.667 -327 -371c-126.667 -96 -257 -158 -391 -186l-74 136c197.333 50 363.666 164.333 498.999 343c80 106 136 217 168 333c16 56.667 24.5 101.167 25.5 133.5
s1.5 55.5 1.5 69.5z" />
    <glyph glyph-name="colon" unicode=":" horiz-adv-x="602" 
d="M193 21c-13.333 13.333 -24.333 29.6689 -33 49.002s-13 40.5 -13 63.5s4.33301 44.667 13 65s20.667 38.166 36 53.499c32.667 34.667 65.5 52 98.5 52s58.5 -4 76.5 -12s33 -19 45 -33c26 -29.333 39 -60.833 39 -94.5s-4.16699 -60.834 -12.5 -81.501
s-19.833 -39 -34.5 -55c-32.667 -33.333 -71 -50 -115 -50c-38 0 -71.333 14.333 -100 43zM193 817.003c-13.333 13.333 -24.333 29.6689 -33 49.002s-13 40.5 -13 63.5s4.33301 44.667 13 65s20.667 38.166 36 53.499c32.667 34.667 65.5 52 98.5 52s58.5 -4 76.5 -12
s33 -19 45 -33c26 -29.333 39 -60.833 39 -94.5s-4.16699 -60.834 -12.5 -81.501s-19.833 -39 -34.5 -55c-32.667 -33.333 -71 -50 -115 -50c-38 0 -71.333 14.333 -100 43z" />
    <glyph glyph-name="semicolon" unicode=";" horiz-adv-x="602" 
d="M160 140l139 131c64.667 -24.667 114 -71 148 -139c28.667 -56.667 43 -115.5 43 -176.5s-7.16699 -115.667 -21.5 -164s-33.833 -91.833 -58.5 -130.5c-50 -79.333 -111.667 -133 -185 -161l-74 92v26c59.333 29.333 99.666 87.333 120.999 174
c6.66699 27.333 10 53.333 10 78s-3.33301 48.5 -10 71.5s-15.667 44.5 -27 64.5c-25.333 43.333 -53.666 67 -84.999 71v63zM193 817c-13.333 13.333 -24.333 29.6689 -33 49.002s-13 40.5 -13 63.5s4.33301 44.667 13 65s20.667 38.166 36 53.499
c32.667 34.667 65.5 52 98.5 52s58.5 -4 76.5 -12s33 -19 45 -33c26 -29.333 39 -60.833 39 -94.5s-4.16699 -60.834 -12.5 -81.501s-19.833 -39 -34.5 -55c-32.667 -33.333 -71 -50 -115 -50c-38 0 -71.333 14.333 -100 43z" />
    <glyph glyph-name="less" unicode="&#x3c;" horiz-adv-x="1368" 
d="M168 850l966 446v-205l-731 -318l731 -313v-208l-966 444v154z" />
    <glyph glyph-name="equal" unicode="=" horiz-adv-x="1399" 
d="M242 1116h915v-167h-915v167zM242 599h915v-166h-915v166z" />
    <glyph glyph-name="greater" unicode="&#x3e;" horiz-adv-x="1368" 
d="M1200.01 850l-965.94 446v-205l730.955 -318l-730.955 -313v-208l965.94 444v154z" />
    <glyph glyph-name="question" unicode="?" horiz-adv-x="1047" 
d="M500 1627c-57.333 18 -124.668 27.0049 -202.001 27.0049s-136.333 -5.66699 -177 -17v160c20.667 15.333 55.667 26.166 105 32.499s86.333 9.5 111 9.5c226.667 0 391.667 -61 495 -183c67.333 -79.333 101 -176.333 101 -291c0 -36.667 -4 -76.667 -12 -120
s-24 -83 -48 -119s-51.833 -67.833 -83.5 -95.5s-64.667 -52.334 -99 -74.001s-66.166 -43.167 -95.499 -64.5c-68 -48 -104 -95.667 -108 -143c-1.33301 -13.333 -2 -25.333 -2 -36s0.5 -23 1.5 -37s3.5 -31 7.5 -51c4.66699 -20 17 -63.667 37 -131h-167
c-36.667 43.333 -63.334 107 -80.001 191c-6 31.333 -9 62.833 -9 94.5s9.16699 61.667 27.5 90s42.5 55.166 72.5 80.499s62.833 49.166 98.5 71.499s69.834 45.166 102.501 68.499c76 54 118.333 105 127 153c9.33301 38 14 71.333 14 100c0 144 -72.333 238.667 -217 284
zM345.998 68.0049c-8.66699 18.667 -13.002 38.999 -13.002 60.999s4.33301 43 13 63s20.667 37.667 36 53c32 33.333 64 50 96 50s56.833 -4 74.5 -12s32.5 -18.667 44.5 -32c25.333 -28 38 -58.333 38 -91s-4.16699 -59.167 -12.5 -79.5s-19.833 -38.166 -34.5 -53.499
c-31.333 -32.667 -68.666 -49 -111.999 -49c-59.333 0 -102.666 30 -129.999 90z" />
    <glyph glyph-name="at" unicode="@" horiz-adv-x="2218" 
d="M1503 -246l39.0078 -129.001c-72.667 -45.333 -181.334 -77 -326.001 -95c-47.333 -5.33301 -95 -8 -143 -8c-254 0 -457.667 74 -611 222c-166 160 -249 386.667 -249 680c0 220.667 46.333 417.334 139 590.001c88 166 211.333 295.667 370 389
c158 93.333 334.667 140 530 140c227.333 0 409 -61.667 545 -185c140.667 -126.667 211 -302 211 -526c0 -253.333 -59.333 -459 -178 -617c-70.667 -94.667 -154.334 -159.667 -251.001 -195c-46.667 -16.667 -93.667 -25 -141 -25c-103.333 0 -154 81 -152 243
c0.666992 21.333 2.66699 46.333 6 75c-77.333 -148 -165 -245.667 -263 -293c-35.333 -16.667 -71 -25 -107 -25s-71 9 -105 27c-73.333 37.333 -125.666 110 -156.999 218c-15.333 50.667 -23 94.334 -23 131.001s0.333008 68 1 94s6 63.5 16 112.5s25 96.833 45 143.5
s45.167 90.667 75.5 132s66.166 77.666 107.499 108.999c89.333 67.333 189.166 101 299.499 101s192.166 -18.333 245.499 -55l172 31c-50.667 -185.333 -87.667 -353.166 -111 -503.499s-35 -251.5 -35 -303.5s12.333 -78 37 -78s50.167 7.66699 76.5 23
s52.166 36.833 77.499 64.5s49.333 61 72 100s42.667 82.167 60 129.5c36.667 103.333 55 203.5 55 300.5s-7.33301 176.167 -22 237.5s-35.334 114.166 -62.001 158.499s-58.834 81.333 -96.501 111s-79.167 53.167 -124.5 70.5c-84.667 32 -176.834 48 -276.501 48
s-184.5 -10.5 -254.5 -31.5s-135.5 -51.167 -196.5 -90.5s-116.667 -87 -167 -143s-93.5 -119.333 -129.5 -190c-75.333 -148 -113 -313.667 -113 -497c0 -350 119.667 -583.667 359 -701c100 -49.333 222.833 -74 368.5 -74s274.5 28 386.5 84zM825.008 444.999
c0 -182 46.668 -273.001 140.001 -273.001c43.333 0 95 40.667 155 122c85.333 116.667 152.666 255.334 201.999 416.001c14.667 48 24.667 91 30 129c-21.333 37.333 -64.333 61 -129 71c-17.333 2.66699 -33.333 4 -48 4c-102.667 0 -187.667 -47.667 -255 -143
c-63.333 -89.333 -95 -198 -95 -326z" />
    <glyph glyph-name="A" unicode="A" horiz-adv-x="1407" 
d="M603 1538h215l568 -1538h-241l-130 385h-622l-136 -385h-236zM959 551l-204 609l-43 142l-44 -142l-216 -609h507z" />
    <glyph glyph-name="B" unicode="B" horiz-adv-x="1339" 
d="M652 -14c-105.333 0 -220.999 4.66699 -346.999 14h-111v1523l104 -1l350 15c248 0 403.333 -71 466 -213c20 -44 30 -88.167 30 -132.5s-4.33301 -85 -13 -122s-22.334 -72.167 -41.001 -105.5c-41.333 -74 -100.333 -121 -177 -141c92 -4 171 -43 237 -117
c64.667 -72 97 -155.333 97 -250c0 -149.333 -43.333 -262 -130 -338c-100.667 -88 -255.667 -132 -465 -132zM607.001 1380c-105.333 0 -169 -4.33301 -191 -13v-500c28 -4.66699 74 -7 138 -7l139 2c68 0 123.333 23.333 166 70c46 51.333 69 122.333 69 213
c0 156.667 -107 235 -321 235zM569.001 704c-72.667 0 -123.669 -1.99902 -153.002 -5.99902v-527c24.667 -15.333 85.334 -23 182.001 -23s167.334 4.66699 212.001 14s82.667 25 114 47c64.667 45.333 97 117.166 97 215.499s-28.667 169.333 -86 213
s-146.333 65.5 -267 65.5z" />
    <glyph glyph-name="C" unicode="C" horiz-adv-x="1313" 
d="M1166 1283c-90.667 49.333 -208.004 73.9951 -352.004 73.9951c-153.333 0 -274.666 -53 -363.999 -159s-134 -249.333 -134 -430s44 -326.667 132 -438c90.667 -113.333 212.334 -170 365.001 -170c118 0 223 19.333 315 58c26 11.333 45.667 23 59 35l1 -189
c-98 -38.667 -174.667 -61.667 -230 -69s-106.666 -11 -153.999 -11c-214 0 -386 70.667 -516 212c-128.667 140.667 -193 326.334 -193 557.001c0 242.667 70.667 436.334 212 581.001c64.667 66.667 139.5 117.334 224.5 152.001s165.333 52 241 52
s135.334 -2.33301 179.001 -7s81.5 -10.167 113.5 -16.5s58.833 -12.666 80.5 -18.999s39.167 -11.166 52.5 -14.499z" />
    <glyph glyph-name="D" unicode="D" horiz-adv-x="1472" 
d="M660 -16l-381 16.001h-85v1522h112l360 16c240.667 0 422 -64.667 544 -194c118.667 -124.667 178 -304.667 178 -540c0 -258.667 -66.667 -461.334 -200 -608.001c-129.333 -141.333 -305.333 -212 -528 -212zM849.5 1345.5c-67.667 21 -144 31.499 -229 31.499
s-152.5 -5.33301 -202.5 -16v-1193c52.667 -12.667 139 -19 259 -19c228 4.66699 375.667 118.334 443 341.001c24 78 36 172.5 36 283.5s-11.5 205 -34.5 282s-57.167 139.333 -102.5 187s-101.833 82 -169.5 103z" />
    <glyph glyph-name="E" unicode="E" horiz-adv-x="1217" 
d="M194 1522h876v-172h-653v-480h479v-172h-479v-523h726v-175h-949v1522z" />
    <glyph glyph-name="F" unicode="F" horiz-adv-x="1083" 
d="M194 1522h874v-172h-650v-499h487v-172h-487v-679h-224v1522z" />
    <glyph glyph-name="G" unicode="G" horiz-adv-x="1433" 
d="M1220 1278c-108.667 57.333 -252.003 85.999 -430.003 85.999c-135.333 0 -245.333 -51.333 -330 -154c-86.667 -106 -130 -249.333 -130 -430c0 -185.333 38.333 -333.666 115 -444.999c83.333 -120.667 202 -181 356 -181c94 0 175.667 10.667 245 32
c22.667 6.66699 41.334 15 56.001 25v377l-277 13v160h492v-667c-22 -1.33301 -46.667 -7.83301 -74 -19.5s-60.666 -24.167 -99.999 -37.5c-104 -35.333 -214.667 -53 -332 -53s-219.666 19.5 -306.999 58.5s-161 92.833 -221 161.5
c-122.667 139.333 -184 322.333 -184 549c0 251.333 68.333 447.333 205 588c127.333 131.333 294 197 500 197c98 0 171.667 -4.83301 221 -14.5s87.5 -18 114.5 -25s57.167 -13.833 90.5 -20.5z" />
    <glyph glyph-name="H" unicode="H" horiz-adv-x="1552" 
d="M194 1522h223v-667h718v667h223v-1522h-223v683h-718v-683h-223v1522z" />
    <glyph glyph-name="I" unicode="I" horiz-adv-x="640" 
d="M207 1522h226v-1522h-226v1522z" />
    <glyph glyph-name="J" unicode="J" horiz-adv-x="713" 
d="M494 613l2.00195 -216.001c0 -132 -6.33301 -233.167 -19 -303.5s-35.167 -130.166 -67.5 -179.499s-69.833 -91.333 -112.5 -126c-80 -64 -170.333 -104 -271 -120l-68 117c99.333 34.667 176.666 93.334 231.999 176.001c33.333 50.667 54.666 121 63.999 211
c9.33301 83.333 14 228.666 14 435.999v914h226v-909z" />
    <glyph glyph-name="K" unicode="K" horiz-adv-x="1371" 
d="M194 1522h223v-764l603 764h263l-539 -656c28 -46.667 82.833 -130 164.5 -250l169.5 -250c74 -112.667 127 -198 159 -256l65 -110h-257c-7.33301 10 -14.333 22 -21 36l-18 37c-40.667 80.667 -110.5 194.5 -209.5 341.5l-190.5 286.5l-189 -220v-481h-223v1522z" />
    <glyph glyph-name="L" unicode="L" horiz-adv-x="1080" 
d="M194 1522h228v-1347h604v-175h-832v1522z" />
    <glyph glyph-name="M" unicode="M" horiz-adv-x="1923" 
d="M288 1522h315l282 -869l79 -323l75 323l270 869h299l182 -1522h-224l-93 946l-29 410l-102 -410l-318 -961h-120l-332 961l-112 409l-27 -409l-83 -946l-216 -1z" />
    <glyph glyph-name="N" unicode="N" horiz-adv-x="1556" 
d="M193 1522h204l651 -1005l123 -226l-13 254v977h205v-1522h-207l-630 967l-140 249l12 -264v-952h-205v1522z" />
    <glyph glyph-name="O" unicode="O" horiz-adv-x="1569" 
d="M100 751c0 133.333 19.5 249.667 58.5 349s90.5 181 154.5 245c128.667 128.667 293.667 193 495 193c202.667 0 364.334 -70.667 485.001 -212c117.333 -136.667 176 -317.667 176 -543c0 -255.333 -65.833 -452.333 -197.5 -591s-299.834 -208 -504.501 -208
s-367 71.5 -487 214.5s-180 327.167 -180 552.5zM799 155.001c60 0 118.166 13.334 174.499 40.001s104.5 66 144.5 118c83.333 108.667 125 261.667 125 459c0 169.333 -37 308.666 -111 417.999c-81.333 118.667 -191.666 178 -330.999 178
c-137.333 0 -249 -49.333 -335 -148c-94 -109.333 -141 -263.333 -141 -462c0 -168.667 38.667 -308.667 116 -420c84.667 -122 204 -183 358 -183z" />
    <glyph glyph-name="P" unicode="P" horiz-adv-x="1270" 
d="M865 557c-72.667 -23.333 -141.333 -35.001 -206 -35.001s-145.334 1.66699 -242.001 5v-527h-223v1522h105c58 0 116.667 2.66699 176 8s126.333 8 201 8s144.834 -9.5 210.501 -28.5s121.5 -48.5 167.5 -88.5c94.667 -83.333 142 -208.666 142 -375.999
s-49.333 -296 -148 -386c-49.333 -44.667 -110.333 -78.667 -183 -102zM881.001 1302c-62 50.667 -142.5 76.001 -241.5 76.001s-173.167 -6.33301 -222.5 -19v-663c48.667 -6.66699 103.667 -10 165 -10s114.5 4.5 159.5 13.5s84.5 26.5 118.5 52.5
c76 57.333 114 150.666 114 279.999s-31 219.333 -93 270z" />
    <glyph glyph-name="Q" unicode="Q" horiz-adv-x="1569" 
d="M1327 -113c86.667 0 147.997 6.33496 183.997 19.002v-160c-40 -26.667 -93.667 -40 -161 -40s-125.666 4 -174.999 12s-97.333 22.333 -144 43c-97.333 43.333 -185.666 117.666 -264.999 222.999h-5c-202 0 -364.333 74 -487 222c-116 140 -174 321.667 -174 545
c0 133.333 19.5 249.666 58.5 348.999s90.5 181 154.5 245c128.667 128.667 293.667 193 495 193c202.667 0 364.334 -70.667 485.001 -212c117.333 -136.667 176 -317.667 176 -543c0 -210 -47 -383.667 -141 -521c-84.667 -122.667 -201 -205.667 -349 -249
c81.333 -84 197.333 -126 348 -126zM798.997 155.002c60 0 118.166 13.334 174.499 40.001s104.5 66 144.5 118c83.333 108.667 125 261.667 125 459c0 169.333 -37 308.666 -111 417.999c-81.333 118.667 -191.666 178 -330.999 178c-137.333 0 -249 -49.333 -335 -148
c-94 -109.333 -141 -263.333 -141 -462c0 -168.667 38.667 -308.667 116 -420c84.667 -122 204 -183 358 -183z" />
    <glyph glyph-name="R" unicode="R" horiz-adv-x="1367" 
d="M194 1522h96.998c50 0 108.667 2.66699 176 8s138.833 8 214.5 8s145.334 -8 209.001 -24s118.167 -41.333 163.5 -76c95.333 -72.667 143 -182 143 -328c0 -112 -24.5 -202.833 -73.5 -272.5s-116.167 -119.5 -201.5 -149.5c56.667 -38.667 115.334 -124 176.001 -256
l50 -110c53.333 -124 106 -231.333 158 -322h-253c-9.33301 13.333 -19 31.333 -29 54l-31 68c-10.667 22.667 -22.667 52 -36 88l-42 109.5c-14.667 37 -30 73.333 -46 109s-33.333 68.5 -52 98.5c-41.333 66 -86.333 107 -135 123c-30 -1.33301 -66 -2 -108 -2h-157v-648
h-223v1522zM618.998 1374c-77.333 0 -144.668 -6.00098 -202.001 -18.001v-550c32 -4 75.667 -6 131 -6h104c211.333 0 317 99.667 317 299c0 96.667 -24.333 166.334 -73 209.001c-51.333 44 -143.666 66 -276.999 66z" />
    <glyph glyph-name="S" unicode="S" horiz-adv-x="1132" 
d="M540 161c202 0 302.998 70.332 302.998 210.999c0 68.667 -29.333 127.334 -88 176.001c-39.333 32.667 -102.5 70 -189.5 112s-153.333 78 -199 108s-86.5 64 -122.5 102c-79.333 84.667 -119 177 -119 277c0 174.667 88.333 293 265 355c70 24 139.167 36 207.5 36
s121.333 -2.5 159 -7.5s71.167 -11.167 100.5 -18.5c52.667 -14 95.334 -31.667 128.001 -53l-45 -176c-86.667 53.333 -190.667 80 -312 80c-129.333 0 -217.666 -33.667 -264.999 -101c-16.667 -24 -25 -53.5 -25 -88.5s5.5 -66 16.5 -93s28.833 -51.833 53.5 -74.5
c36.667 -35.333 92.834 -72.333 168.501 -111s130.167 -67.334 163.5 -86.001s65.666 -38.5 96.999 -59.5s60.666 -43.667 87.999 -68s51 -50.833 71 -79.5c44 -62.667 66 -130 66 -202s-12.5 -134 -37.5 -186s-59.833 -95 -104.5 -129
c-88.667 -67.333 -210.334 -101 -365.001 -101c-140.667 0 -262.667 19.333 -366 58c-27.333 10.667 -47.666 20.334 -60.999 29.001l53 183c67.333 -40.667 152.333 -69 255 -85c34.667 -5.33301 69.334 -8 104.001 -8z" />
    <glyph glyph-name="T" unicode="T" horiz-adv-x="1303" 
d="M538 1350h-475v172h1177v-172h-477v-1350h-225v1350z" />
    <glyph glyph-name="U" unicode="U" horiz-adv-x="1463" 
d="M159 1522l223.002 0.000976562l-1 -836c0 -200 32 -340.667 96 -422c56 -70.667 146.333 -106 271 -106c111.333 0 192.666 35.667 243.999 107c60.667 83.333 91 223.666 91 420.999v836h222v-892c0 -318 -105 -519.333 -315 -604c-70.667 -28 -156 -42 -256 -42
s-186.833 14.5 -260.5 43.5s-133.834 71.167 -180.501 126.5c-89.333 106 -134 265.667 -134 479v889z" />
    <glyph glyph-name="V" unicode="V" horiz-adv-x="1355" 
d="M22 1522h237l360 -1024l67 -235l69 235l344 1024h234l-555 -1535h-187z" />
    <glyph glyph-name="W" unicode="W" horiz-adv-x="1918" 
d="M22 1522h229l242 -988l50 -276l51 276l287 988h161l291 -988l66 -278l47 277l226 989h224l-393 -1538h-218l-290 998l-35 182l-34 -183l-294 -997h-191z" />
    <glyph glyph-name="X" unicode="X" horiz-adv-x="1314" 
d="M523 786l-478 736l251 1l371 -606l356 605h239l-477 -769l487 -753h-254l-373 619l-363 -619h-239z" />
    <glyph glyph-name="Y" unicode="Y" horiz-adv-x="1264" 
d="M523 593l-501 929h238l338 -660l43 -105l36 105l331 660h234l-493 -929v-593h-226v593z" />
    <glyph glyph-name="Z" unicode="Z" horiz-adv-x="1294" 
d="M866 1273l58 71h-750v178h996l46 -81l-760 -1181l-74 -85h775v-175h-1023l-45 84z" />
    <glyph glyph-name="bracketleft" unicode="[" horiz-adv-x="837" 
d="M665 -167c-118.667 -16 -206.332 -24 -262.999 -24s-97.334 3.83301 -122.001 11.5s-44 20.834 -58 39.501c-24.667 34 -37 100.667 -37 200v1426c0 99.333 12.333 166 37 200c25.333 34 76.333 51 153 51c72.667 0 133 -3.33301 181 -10s84.333 -11.334 109 -14.001
v-120h-268v-1642l268 -2v-116z" />
    <glyph glyph-name="backslash" unicode="\" horiz-adv-x="854" 
d="M240.037 1599h-197.987l569.965 -1962h197.988z" />
    <glyph glyph-name="bracketright" unicode="]" horiz-adv-x="837" 
d="M172.041 -167c118.659 -16 206.321 -24 262.984 -24s97.3271 3.83301 121.992 11.5s43.9971 20.834 57.9961 39.501c24.665 34 36.998 100.667 36.998 200v1426c0 99.333 -12.333 166 -36.998 200c-25.332 34 -76.3291 51 -152.991 51
c-72.6621 0 -132.991 -3.33301 -180.988 -10s-84.3281 -11.334 -108.993 -14.001v-120h267.983v-1642l-267.983 -2v-116z" />
    <glyph glyph-name="asciicircum" unicode="^" horiz-adv-x="1363" 
d="M579 1531h205l394 -1041h-211l-286 798l-285 -798h-211z" />
    <glyph glyph-name="underscore" unicode="_" horiz-adv-x="1692" 
d="M1732 -279v-137h-1772v137h1772z" />
    <glyph glyph-name="grave" unicode="`" horiz-adv-x="595" 
d="M207 1783c62.667 -80 175.332 -213 337.999 -399l-111 -90c-39.333 17.333 -105.166 68.333 -197.499 153s-154.5 151.667 -186.5 201z" />
    <glyph glyph-name="a" unicode="a" horiz-adv-x="1131" 
d="M120 170.5c-17.333 39.667 -25.9971 90.498 -25.9971 152.498s20 119 60 171c84 109.333 248 172.666 492 189.999c37.333 2.66699 72 4 104 4v115c0 76.667 -20 128.334 -60 155.001c-33.333 22 -94.333 33 -183 33c-76.667 0 -161 -18.333 -253 -55
c-24 -9.33301 -42.333 -18.666 -55 -27.999l-54 144c57.333 36 152.333 66.667 285 92c45.333 8.66699 94.166 13 146.499 13s103.333 -4.83301 153 -14.5s92.5 -27.834 128.5 -54.501c74.667 -56 112 -154 112 -294v-810h-90c-42.667 0 -70.334 4 -83.001 12
c-22.667 15.333 -34 46 -34 92v8c-54.667 -50 -128.334 -84 -221.001 -102c-32 -6.66699 -69.167 -10 -111.5 -10s-84.833 7.33301 -127.5 22s-79.5 35.834 -110.5 63.501s-55.167 61.334 -72.5 101.001zM311.003 323.998c0 -117.333 65.667 -176.001 197 -176.001
c72.667 0 142 19 208 57c16.667 9.33301 28 17.333 34 24v319c-78 0 -144.333 -6.66699 -199 -20s-91.834 -24.666 -111.501 -33.999s-37.167 -19.166 -52.5 -29.499s-28.666 -22.5 -39.999 -36.5c-24 -28.667 -36 -63.334 -36 -104.001z" />
    <glyph glyph-name="b" unicode="b" horiz-adv-x="1238" 
d="M378 1030c84 84 188.333 126.001 313 126.001c128 0 233 -44.667 315 -134c90 -97.333 135 -234 135 -410c0 -186 -52.333 -337.333 -157 -454c-106.667 -117.333 -246 -176 -418 -176c-114 0 -228 19 -342 57c-28 9.33301 -47.333 17.666 -58 24.999v1597h220v-472z
M630 983.001c-82.667 0 -164 -31 -244 -93v-706c38 -26.667 106.333 -40 205 -40c95.333 0 172.333 37.333 231 112c63.333 80.667 95 192.667 95 336c0 260.667 -95.667 391 -287 391z" />
    <glyph glyph-name="c" unicode="c" horiz-adv-x="1002" 
d="M893 923c-59.333 42 -144.666 63 -255.999 63c-87.333 0 -160.333 -30 -219 -90c-72.667 -75.333 -109 -185.333 -109 -330c0 -124.667 29.5 -225.167 88.5 -301.5s136.833 -114.5 233.5 -114.5c76 0 150.667 14.667 224 44c19.333 7.33301 35.333 15 48 23l45 -125
c-78 -72 -194.667 -108 -350 -108c-156 0 -279.667 55 -371 165c-86.667 104 -130 240.333 -130 409c0 175.333 46 317 138 425c98 115.333 235.667 173 413 173c125.333 0 218.666 -19.667 279.999 -59z" />
    <glyph glyph-name="d" unicode="d" horiz-adv-x="1237" 
d="M863 112c-85.333 -85.333 -190.999 -128 -316.999 -128c-127.333 0 -232 44.667 -314 134c-90 97.333 -135 234 -135 410c0 186 52 336.667 156 452c105.333 117.333 243.666 176 414.999 176c66 0 128 -9.66699 186 -29l-3 62v475h220v-1680h-95
c-39.333 0 -65.333 4 -78 12c-23.333 14 -35 39.333 -35 76v40zM851.001 946c-38 33.333 -106.332 50 -204.999 50c-94.667 0 -171.334 -37.333 -230.001 -112c-63.333 -80.667 -95 -190 -95 -328c0 -266 95.333 -399 286 -399c84 0 165.333 30.667 244 92v697z" />
    <glyph glyph-name="e" unicode="e" horiz-adv-x="1123" 
d="M312 522c10 -197.333 82.666 -315.333 217.999 -354c40.667 -12 77.334 -18 110.001 -18s62.5 1.66699 89.5 5s53.833 7.66602 80.5 12.999c62 13.333 107 28 135 44l42 -126c-55.333 -45.333 -148 -76.666 -278 -93.999c-37.333 -5.33301 -73 -8 -107 -8
c-161.333 0 -286 52 -374 156c-87.333 102.667 -131 246.667 -131 432c0 171.333 43 309.333 129 414c93.333 113.333 222 170 386 170c116.667 0 212 -35.333 286 -106c81.333 -79.333 124 -187.333 128 -324c0 -101.333 -3.66699 -169.333 -11 -204h-703zM820.999 712
c0 192 -75.667 287.999 -227 287.999c-160.667 0 -253 -110.667 -277 -332h503c0.666992 14.667 1 29.334 1 44.001z" />
    <glyph glyph-name="f" unicode="f" horiz-adv-x="811" 
d="M803 1486c-40 13.333 -84.665 19.999 -133.998 19.999s-83.833 -4.5 -103.5 -13.5s-36.834 -22.5 -51.501 -40.5c-30.667 -37.333 -46 -91.666 -46 -162.999v-149h282v-166h-282v-974h-220v974h-173v122l173 44v99c0 200 74.667 334.667 224 404
c56.667 26 116.167 39 178.5 39s113.166 -7.33301 152.499 -22v-174z" />
    <glyph glyph-name="g" unicode="g" horiz-adv-x="1217" 
d="M446 397c-42.667 -30.667 -64.0029 -68.666 -64.0029 -113.999c0 -42.667 7.33301 -70 22 -82c23.333 -18.667 59.333 -28 108 -28h207c158.667 0 272 -33.333 340 -100c53.333 -52 80 -124.667 80 -218c0 -111.333 -54.333 -202.333 -163 -273
c-103.333 -66 -233.666 -99 -390.999 -99c-228 0 -375 62.333 -441 187c-22.667 42 -34 84.5 -34 127.5s4.83301 76.5 14.5 100.5s22.167 46 37.5 66c26.667 34 62.334 63.333 107.001 88c-58.667 33.333 -88 90.333 -88 171c1.33301 38 14 76.5 38 115.5s58 73.5 102 103.5
c-60.667 32 -108.667 75.333 -144 130s-53 116.667 -53 186s11.5 128.333 34.5 177s54.833 89 95.5 121c82.667 66.667 195 100 337 100c104.667 0 195.334 -23 272.001 -69c60.667 40.667 131.667 61 213 61h111v-175h-209c34 -58 51 -121.333 51 -190
s-11.833 -127.334 -35.5 -176.001s-56.167 -89.667 -97.5 -123c-82.667 -66.667 -191.334 -100 -326.001 -100c-45.333 0 -86.666 4.33301 -123.999 13zM809.997 767.001c0 160 -75.001 240 -225.001 240c-113.333 0 -187.333 -39 -222 -117
c-13.333 -30.667 -20 -66 -20 -106s4.33301 -74.5 13 -103.5s22.334 -54.5 41.001 -76.5c40.667 -48.667 100 -73 178 -73c117.333 0 190.333 41 219 123c10.667 30 16 67.667 16 113zM396.996 7.00098c-48.667 -42 -72.998 -96.001 -72.998 -162.001
c0 -106 48.333 -171.667 145 -197c34 -9.33301 74.333 -14 121 -14s90.167 3.66699 130.5 11s76.166 18.333 107.499 33c67.333 30.667 101 73.667 101 129c0 66.667 -18.333 114.334 -55 143.001c-42.667 33.333 -118.334 50 -227.001 50h-102
c-70 0 -119.333 2.33301 -148 7z" />
    <glyph glyph-name="h" unicode="h" horiz-adv-x="1289" 
d="M176 1664l220 0.000976562v-475l-10 -162c75.333 54.667 167 93.667 275 117c42.667 8.66699 87.5 13 134.5 13s91.833 -8 134.5 -24s78 -42.667 106 -80c55.333 -72.667 83 -192 83 -358v-695h-220v711c0 97.333 -15 165 -45 203c-31.333 40 -83 60 -155 60
c-73.333 0 -150.333 -20.333 -231 -61c-25.333 -12.667 -49.333 -27.334 -72 -44.001v-869h-220v1664z" />
    <glyph glyph-name="i" unicode="i" horiz-adv-x="606" 
d="M193 1138h220v-1138h-220v1138zM356.5 1358.5c-19.667 -7.66699 -39.334 -11.499 -59.001 -11.499s-38 3.16699 -55 9.5s-32.167 15.5 -45.5 27.5c-28 25.333 -42 53.5 -42 84.5s4.66699 56 14 75s21.666 35.5 36.999 49.5c32.667 30 65.334 45 98.001 45
s57.834 -3.5 75.501 -10.5s32.167 -16.833 43.5 -29.5c23.333 -24 35 -51.667 35 -83s-4.5 -56.5 -13.5 -75.5s-21 -35.333 -36 -49s-32.333 -24.334 -52 -32.001z" />
    <glyph glyph-name="j" unicode="j" horiz-adv-x="574" 
d="M-79 -331c29.333 -14.667 63.667 -21.999 103 -21.999s69 6.5 89 19.5s35.667 32.167 47 57.5c22 48 33 124 33 228v1186h220v-1101c0 -282.667 -67.333 -454.334 -202 -515.001c-44 -19.333 -99 -29 -165 -29s-107.667 4.33301 -125 13v163zM353.501 1358.5
c-19.667 -7.66699 -39.334 -11.499 -59.001 -11.499s-38 3.16699 -55 9.5s-32.167 15.5 -45.5 27.5c-28 25.333 -42 53.5 -42 84.5s4.66699 56 14 75s21.666 35.5 36.999 49.5c32.667 30 65.334 45 98.001 45s57.834 -3.5 75.501 -10.5s32.167 -16.833 43.5 -29.5
c23.333 -24 35 -51.667 35 -83s-4.5 -56.5 -13.5 -75.5s-21 -35.333 -36 -49s-32.333 -24.334 -52 -32.001z" />
    <glyph glyph-name="k" unicode="k" horiz-adv-x="1163" 
d="M168 1661h220v-910l-4 -112l455 501h259l-430 -449l483 -691h-250l-377 541l-141 -147l5 -171v-223h-220v1661z" />
    <glyph glyph-name="l" unicode="l" horiz-adv-x="613" 
d="M197 1664h220v-1664h-220v1664z" />
    <glyph glyph-name="m" unicode="m" horiz-adv-x="1972" 
d="M176 1138h195.999l1 -120c83.333 57.333 176.666 98.666 279.999 123.999c43.333 10 92 15 146 15c126 0 211.667 -47.667 257 -143c80 60.667 176 103.667 288 129c42 9.33301 87.667 14 137 14s95 -7 137 -21s76.667 -38.667 104 -74c53.333 -68 80 -184 80 -348v-714
h-220v711c0 98.667 -12.667 166.334 -38 203.001c-27.333 40 -76.666 60 -147.999 60c-105.333 0 -205.666 -34.333 -300.999 -103c6 -46 9 -98.333 9 -157v-714h-220v711c0 98.667 -12.667 166.334 -38 203.001c-27.333 40 -76.666 60 -147.999 60
c-72.667 0 -149.334 -20.333 -230.001 -61c-25.333 -12.667 -49.333 -27.334 -72 -44.001v-869h-220v1138z" />
    <glyph glyph-name="n" unicode="n" horiz-adv-x="1279" 
d="M176 1138l196.001 0.000976562l1 -120c83.333 57.333 178 98.666 284 123.999c44 10 90 15 138 15s92.667 -7.16699 134 -21.5s75.666 -39.166 102.999 -74.499c51.333 -67.333 77 -184.333 77 -351v-710h-220v711c0 100 -13.333 169 -40 207
c-26.667 38.667 -74.667 58 -144 58c-75.333 0 -154.333 -21 -237 -63c-25.333 -12.667 -49.333 -27.334 -72 -44.001v-869h-220v1138z" />
    <glyph glyph-name="o" unicode="o" horiz-adv-x="1213" 
d="M582 -16c-82 0 -154.669 16.667 -218.002 50c-178.667 92 -268 273 -268 543c0 187.333 50.667 332.333 152 435c94.667 96 217.334 144 368.001 144c172 0 301.667 -61 389 -183c74.667 -104.667 112 -244 112 -418c0 -180.667 -51 -323 -153 -427
c-93.333 -96 -220.666 -144 -381.999 -144zM820.498 247.5c49 71.667 73.5 174.5 73.5 308.5c0 202.667 -52 338 -156 406c-37.333 24 -82.333 36 -135 36c-92 0 -162.333 -35 -211 -105s-73 -170.667 -73 -302c0 -129.333 24.333 -236.833 73 -322.5s120 -128.5 214 -128.5
s165.5 35.833 214.5 107.5z" />
    <glyph glyph-name="p" unicode="p" horiz-adv-x="1238" 
d="M804.5 30c-70.333 -30.667 -144 -46 -221 -46s-143.833 9.66699 -200.5 29l3 -152v-367h-220v1646h199v-123c38 40 72.667 68.333 104 85c66.667 36 135.334 54 206.001 54s133.167 -11 187.5 -33s102.166 -55.667 143.499 -101c90 -97.333 135 -234 135 -410
c0 -186 -52 -336.667 -156 -452c-50 -56 -110.167 -99.333 -180.5 -130zM630 983c-82.667 0 -164 -31 -244 -93v-695c38.667 -34 107 -51 205 -51c95.333 0 172.333 37.333 231 112c63.333 80.667 95 192.667 95 336c0 260.667 -95.667 391 -287 391z" />
    <glyph glyph-name="q" unicode="q" horiz-adv-x="1237" 
d="M859 107c-82 -82 -186.332 -123 -312.999 -123c-127.333 0 -232 44.667 -314 134c-90 97.333 -135 234 -135 410c0 186 52 336.667 156 452c105.333 117.333 243.666 176 414.999 176c92.667 0 175 -15.667 247 -47l158 31v-1646h-220v367zM853.001 945
c-37.333 34 -106.332 51 -206.999 51c-94.667 0 -171.334 -37.333 -230.001 -112c-63.333 -80.667 -95 -190 -95 -328c0 -266 95.333 -399 286 -399c84 0 166 31 246 93v695z" />
    <glyph glyph-name="r" unicode="r" horiz-adv-x="819" 
d="M637 964c-95.333 0 -178.334 -31.667 -249.001 -95v-869h-220v1138h185l14 -126c44 58 115 101.333 213 130c32 10 69.333 15 112 15s74.334 -4.66699 95.001 -14v-206c-36 18 -86 27 -150 27z" />
    <glyph glyph-name="s" unicode="s" horiz-adv-x="977" 
d="M145 229c45.333 -30 116.333 -53.6689 213 -71.002c39.333 -7.33301 84 -11 134 -11s92.5 12.167 127.5 36.5s52.5 58.833 52.5 103.5c0 59.333 -48 112.666 -144 159.999c-28 14 -61.5 29.333 -100.5 46s-78.167 36.334 -117.5 59.001
c-127.333 75.333 -191 176 -191 302c0 97.333 41 173.333 123 228c73.333 49.333 169.666 74 288.999 74c90.667 0 173.667 -14 249 -42c18 -6.66699 31.333 -12.334 40 -17.001l-36 -166c-32 26.667 -88 45.667 -168 57c-25.333 4 -51.333 6 -78 6
c-70.667 0 -124.334 -11.167 -161.001 -33.5s-55 -49.666 -55 -81.999s4.83301 -58.166 14.5 -77.499s24.167 -37 43.5 -53c31.333 -27.333 75.833 -52.666 133.5 -75.999s106.334 -45.5 146.001 -66.5s75.834 -45.5 108.501 -73.5c72.667 -64 109 -140.333 109 -229
c0 -102.667 -36.333 -181.667 -109 -237c-70 -54.667 -167.667 -82 -293 -82c-114.667 0 -216.334 17.333 -305.001 52c-25.333 9.33301 -44.666 19 -57.999 29z" />
    <glyph glyph-name="t" unicode="t" horiz-adv-x="850" 
d="M228 974l-148 -0.000976562v119c24.667 7.33301 46.334 13.5 65.001 18.5s34.667 10.5 48 16.5c26.667 12.667 45 32.167 55 58.5s20.167 57 30.5 92l36.5 121.5h132v-260h322v-166h-322v-577c0 -107.333 6 -171.666 18 -192.999s26.167 -34 42.5 -38s35 -6 56 -6
s40.833 1.33301 59.5 4s37 6 55 10c42 9.33301 72 19 90 29l38 -126c-54 -40 -129.333 -68.333 -226 -85c-30.667 -5.33301 -62.334 -8 -95.001 -8s-65 4 -97 12s-60 22.667 -84 44c-50.667 46 -76 123.667 -76 233v701z" />
    <glyph glyph-name="u" unicode="u" horiz-adv-x="1249" 
d="M170 1140h220v-665c0 -133.333 16 -220.333 48 -261c16.667 -20.667 38.334 -34 65.001 -40s54.667 -9 84 -9s56.333 2.66699 81 8s48.667 12 72 20c46 16 83.667 33.333 113 52v895h220v-1156h-85c-39.333 0 -65 4 -77 12c-22 14 -33 39.333 -33 76v28
c-80.667 -50.667 -171.334 -86 -272.001 -106c-34 -6.66699 -76.833 -10 -128.5 -10s-99.667 11.833 -144 35.5s-78.833 57.167 -103.5 100.5c-40 70.667 -60 188.667 -60 354v666z" />
    <glyph glyph-name="v" unicode="v" horiz-adv-x="1113" 
d="M19 1140h237l226 -649l84 -272l77 272l217 649h234l-438 -1156h-185z" />
    <glyph glyph-name="w" unicode="w" horiz-adv-x="1632" 
d="M21 1140h220l184 -684l50 -214l46 213l190 685h219l189 -684l49 -218l50 211l178 691h215l-348 -1156h-203l-204 745l-37 182l-40 -182l-201 -745h-209z" />
    <glyph glyph-name="x" unicode="x" horiz-adv-x="1134" 
d="M451 578l-404 562h250l250 -378l25 -42l21 44l251 376h247l-405 -558l414 -582h-255l-250 379l-34 55l-28 -58l-232 -376h-251z" />
    <glyph glyph-name="y" unicode="y" horiz-adv-x="1116" 
d="M131 -314c19.333 -7.33301 45.332 -11 77.999 -11s62.667 4.16699 90 12.5s55 24.5 83 48.5c64.667 55.333 111.334 143.333 140.001 264h-65l-413 1140h235l252 -768l58 -186l267 954h237l-384 -1176c-86 -260.667 -205.333 -412.667 -358 -456
c-38 -10 -81 -15 -129 -15s-78.333 4.66699 -91 14v179z" />
    <glyph glyph-name="z" unicode="z" horiz-adv-x="1061" 
d="M82 82l610 890h-550v168h812l35 -95l-609 -885h589v-160h-845z" />
    <glyph glyph-name="braceleft" unicode="{" horiz-adv-x="972" 
d="M802 -161c-84 -23.333 -160.835 -34.999 -230.502 -34.999s-117.167 4.16699 -142.5 12.5s-45.666 22.166 -60.999 41.499c-27.333 36.667 -41 104 -41 202v511c0 28.667 -29.333 57 -88 85c-56 28 -110.667 44.667 -164 50v142c58 6 106.333 18 145 36
c71.333 32.667 107 63 107 91v511c0 98 13.833 165.167 41.5 201.5s74.834 54.5 141.501 54.5s164 -8 292 -24v-122h-266v-620c0 -59.333 -43.333 -110 -130 -152c-36 -16.667 -73 -32.667 -111 -48c160.667 -64 241 -132 241 -204v-621h266v-112z" />
    <glyph glyph-name="bar" unicode="|" horiz-adv-x="855" 
d="M326 1780h203v-1968h-203v1968z" />
    <glyph glyph-name="braceright" unicode="}" horiz-adv-x="972" 
d="M170.049 -161c83.9951 -23.333 160.824 -34.999 230.487 -34.999c69.6621 0 117.159 4.16699 142.491 12.5c25.3311 8.33301 45.6631 22.166 60.9961 41.499c27.3311 36.667 40.9971 104 40.9971 202v511c0 28.667 29.332 57 87.9951 85
c55.9971 28 110.66 44.667 163.99 50v142c-57.9971 6 -106.327 18 -144.991 36c-71.3291 32.667 -106.994 63 -106.994 91v511c0 98 -13.832 165.167 -41.4971 201.5s-74.8291 54.5 -141.492 54.5s-163.99 -8 -291.982 -24v-122h265.984v-620
c0 -59.333 43.3301 -110 129.991 -152c35.998 -16.667 72.9961 -32.667 110.993 -48c-160.656 -64 -240.984 -132 -240.984 -204v-621h-265.984v-112z" />
    <glyph glyph-name="asciitilde" unicode="~" horiz-adv-x="1438" 
d="M916 802c78.667 0 145.997 38 201.997 114l103 -99c-35.333 -92 -102.333 -154 -201 -186c-34.667 -11.333 -70.667 -17 -108 -17s-68.333 4.16699 -93 12.5s-47.167 18.833 -67.5 31.5s-39.166 26.167 -56.499 40.5s-34.666 27.833 -51.999 40.5
c-40 29.333 -75.667 44 -107 44s-56.333 -3 -75 -9s-35.667 -14 -51 -24c-24 -15.333 -50.333 -42.333 -79 -81l-115 89c20 52 56 98 108 138c64.667 49.333 134 74 208 74s144.833 -28 212.5 -84s124.834 -84 171.501 -84z" />
    <glyph glyph-name="DEL" 
 />
    <glyph glyph-name="nonbreakingspace" unicode="&#xa0;" horiz-adv-x="655" 
 />
    <glyph glyph-name="exclamdown" unicode="&#xa1;" horiz-adv-x="602" 
d="M420.011 -435.892h-247.984l23.998 1273.92h195.988zM410.012 1323c13.333 -13.333 24.166 -29.6631 32.499 -48.9951s12.499 -40.4971 12.499 -63.4961s-4.33301 -44.6641 -12.999 -64.9961s-20.665 -38.1641 -35.998 -53.4961
c-32.665 -34.665 -65.3301 -51.9971 -97.9951 -51.9971s-57.9971 4 -75.9961 11.999c-17.999 8 -33.3311 18.999 -45.9971 32.998c-25.999 29.998 -38.998 61.6631 -38.998 94.9941s4.33301 60.3291 13 80.9941c8.66602 20.665 20.665 38.9971 35.9971 54.9961
c31.998 33.3311 69.6621 49.9971 112.993 49.9971c38.665 0 72.3301 -14.333 100.995 -42.998z" />
    <glyph glyph-name="cent" unicode="&#xa2;" horiz-adv-x="1183" 
d="M953 923c-59.333 42 -144.667 63.002 -256 63.002c-87.333 0 -160.333 -30 -219 -90c-72.667 -75.333 -109 -185.333 -109 -330c0 -124.667 29.5 -225.167 88.5 -301.5s136.833 -114.5 233.5 -114.5c76 0 150.667 14.667 224 44c19.333 7.33301 35.333 15 48 23l45 -125
c-60.667 -56.667 -152 -91.334 -274 -104.001l-3 -204h-150l4 205c-135.333 17.333 -241 79 -317 185c-74 102 -111 230 -111 384c0 160 38.333 292 115 396c80.667 111.333 195.667 176.666 345 195.999l6 227h149l-5 -223c100 -7.33301 173.667 -26.333 221 -57z" />
    <glyph glyph-name="sterling" unicode="&#xa3;" horiz-adv-x="1532" 
d="M1393 317c0 -224.667 -143.33 -337 -429.997 -337c-105.333 0 -213.333 20 -324 60l-101.5 37.5c-27 10.333 -46.5 15.5 -58.5 15.5s-20.333 -0.333008 -25 -1c-35.333 -40 -82.333 -68.667 -141 -86c-19.333 -5.33301 -36.833 -8 -52.5 -8s-29.834 2 -42.501 6
s-24.334 9.33301 -35.001 16c-24.667 16.667 -37 36.667 -37 60s5.33301 45.333 16 66s26.667 38.667 48 54c47.333 34.667 113.333 54 198 58c18.667 41.333 28 111.333 28 210v288h-181v152h181v137c0 150 41.333 269 124 357c85.333 90.667 201.666 136 348.999 136
c138.667 0 248 -33 328 -99l-104 -158c-70.667 60.667 -153 91 -247 91c-68 0 -120.667 -22 -158 -66c-48.667 -56.667 -73 -150.334 -73 -281.001v-10v-107h353v-152h-352l1 -35v-86.5c0 -31 -0.333008 -68 -1 -111s-3.66699 -85.5 -9 -127.5
c-11.333 -86 -33.666 -147 -66.999 -183c31.333 -5.33301 59.166 -12.333 83.499 -21s49.5 -17 75.5 -25c64.667 -20 130.667 -30 198 -30c165.333 0 248 65.333 248 196c0 56 -17 100.333 -51 133c-8.66699 8.66699 -17 14.334 -25 17.001l156 80
c50 -28 88.333 -81 115 -159c8.66699 -27.333 13 -56.333 13 -87z" />
    <glyph glyph-name="currency" unicode="&#xa4;" horiz-adv-x="1527" 
d="M764 331c-82.667 0 -158.333 20.667 -227 62l-211 -212l-127 127l206 206c-55.333 78 -83 164.5 -83 259.5s27.333 180.5 82 256.5l-205 205l126 128l210 -212c70 42.667 146.333 64 229 64c80 0 156.333 -21.333 229 -64l215 214l127 -127l-209 -209
c54 -76.667 81 -162 81 -256s-27 -179.333 -81 -256l205 -205l-127 -127l-210 210c-70 -42.667 -146.667 -64 -230 -64zM765.001 495c72.667 0 135 27.333 187 82c51.333 54 77 119.333 77 196s-25.667 141.667 -77 195c-52 54.667 -114.333 82 -187 82
c-73.333 0 -136 -27.333 -188 -82c-52 -54 -78 -119 -78 -195s26 -141.333 78 -196s114.667 -82 188 -82z" />
    <glyph glyph-name="yen" unicode="&#xa5;" horiz-adv-x="1532" 
d="M274 436h385v231h-385v143h336l-446 712h238l304 -525l64 -134l62 141l312 518h233l-457 -712h319v-143h-360v-231h360v-143h-360v-293h-220v293h-385v143z" />
    <glyph glyph-name="brokenbar" unicode="&#xa6;" horiz-adv-x="855" 
d="M326 1780h203v-830h-203v830zM326 641h203v-827h-203v827z" />
    <glyph glyph-name="section" unicode="&#xa7;" horiz-adv-x="1358" 
d="M1031 366c67.333 -58.667 100.995 -130.666 100.995 -215.999c0 -156.667 -88.667 -261 -266 -313c-68 -20 -134.167 -30 -198.5 -30s-118.166 2.83301 -161.499 8.5s-83.333 13.167 -120 22.5c-73.333 17.333 -127 38 -161 62l42 166
c54 -40.667 137 -69.334 249 -86.001c40 -6 80.833 -9 122.5 -9s79.834 2.83301 114.501 8.5s65.334 14.834 92.001 27.501c58.667 28 88 69 88 123c0 55.333 -37.667 105.333 -113 150c-33.333 20 -71.5 39 -114.5 57l-131.5 55.5c-44.667 19 -88.5 39.667 -131.5 62
s-81.167 48.166 -114.5 77.499c-75.333 65.333 -113 143.666 -113 234.999c0 113.333 46.333 216.333 139 309c-85.333 72 -128 157.333 -128 256c0 156 84.333 260 253 312c62.667 19.333 125.334 29 188.001 29s113.334 -2.16699 152.001 -6.5s73 -9.83301 103 -16.5
c56 -13.333 101 -30 135 -50l-42 -166c-70.667 50 -180 75 -328 75c-118.667 0 -198.334 -27.667 -239.001 -83c-14.667 -19.333 -22 -44.666 -22 -75.999s10.333 -60.833 31 -88.5s47.834 -53.167 81.501 -76.5s72 -45.333 115 -66l131.5 -64
c44.667 -22 88.5 -45.5 131.5 -70.5s81.5 -53.167 115.5 -84.5c74.667 -70.667 112 -155.167 112 -253.5s-37.667 -191.833 -113 -280.5zM471.995 998.001c-37.333 -76.667 -56 -136.669 -56 -180.002s7.16699 -77.833 21.5 -103.5s33.833 -48.667 58.5 -69
s53.167 -38.666 85.5 -54.999s66.5 -32.166 102.5 -47.499l110.5 -45.5c37.667 -15 73.834 -31.167 108.501 -48.5c28 69.333 42 123.166 42 161.499s-6.83301 70.833 -20.5 97.5s-32.334 51 -56.001 73s-51 42.167 -82 60.5s-64 36 -99 53l-108 50.5
c-37 16.667 -72.833 34.334 -107.5 53.001z" />
    <glyph glyph-name="dieresis" unicode="&#xa8;" horiz-adv-x="863" 
d="M707 1374c-18.667 -7.33301 -37.501 -11.001 -56.501 -11.001s-36.5 3 -52.5 9s-30 14.667 -42 26c-25.333 24.667 -38 51.834 -38 81.501s4.5 53.5 13.5 71.5s20.5 33.667 34.5 47c30.667 29.333 61.834 44 93.501 44s55.667 -3.33301 72 -10s29.833 -16 40.5 -28
c20.667 -23.333 31 -50 31 -80s-4.33301 -54.167 -13 -72.5s-20 -34 -34 -47s-30.333 -23.167 -49 -30.5zM248.999 1374c-18.667 -7.33301 -37.5 -11.001 -56.5 -11.001s-36.5 3 -52.5 9s-30 14.667 -42 26c-25.333 24.667 -38 51.834 -38 81.501s4.5 53.5 13.5 71.5
s20.833 33.667 35.5 47c31.333 29.333 62.5 44 93.5 44s54.667 -3.33301 71 -10s29.833 -16 40.5 -28c20.667 -23.333 31 -50 31 -80s-4.33301 -54.167 -13 -72.5s-20 -34 -34 -47s-30.333 -23.167 -49 -30.5z" />
    <glyph glyph-name="copyright" unicode="&#xa9;" horiz-adv-x="2129" 
d="M194 962c0 81.333 10.167 159.5 30.5 234.5s49.333 145 87 210s82.834 124.167 135.501 177.5s111 99 175 137c134.667 79.333 282 119 442 119c159.333 0 306.666 -39.667 441.999 -119c131.333 -77.333 235 -182.333 311 -315
c78.667 -136.667 118 -284.334 118 -443.001c0 -159.333 -39.333 -307.666 -118 -444.999c-117.333 -205.333 -290.666 -340 -519.999 -404c-74.667 -21.333 -152.334 -32 -233.001 -32c-158.667 0 -306 40 -442 120c-130 76.667 -233.333 182 -310 316
c-78.667 136 -118 284 -118 444zM361 1162c-16.667 -64 -25.001 -130.501 -25.001 -199.501s8.33301 -135.333 25 -199s40.334 -123.5 71.001 -179.5s67.667 -106.833 111 -152.5s92 -84.834 146 -117.501c113.333 -68.667 238.333 -103 375 -103s261.667 34.333 375 103
c166.667 100.667 276 250.667 328 450c16.667 63.333 25 129.5 25 198.5s-8.33301 135.5 -25 199.5s-40.334 123.833 -71.001 179.5s-67.667 106.334 -111 152.001s-92 84.834 -146 117.501c-113.333 68.667 -238.333 103 -375 103s-261.667 -34.333 -375 -103
c-167.333 -101.333 -276.666 -251 -327.999 -449zM1335 696.999l45 -124.001c-75.333 -62.667 -181.666 -94 -318.999 -94c-133.333 0 -241 48.333 -323 145c-78 92 -117 202.667 -117 332c0 146 42.333 263.333 127 352c90.667 94.667 213.667 142 369 142
c89.333 0 168.666 -18.667 237.999 -56l-32 -164c-65.333 42 -140.333 63 -225 63c-89.333 0 -159.333 -31 -210 -93c-48.667 -59.333 -73 -135.666 -73 -228.999c0 -106 25.667 -189 77 -249c49.333 -57.333 118 -86 206 -86s167 20.333 237 61z" />
    <glyph glyph-name="ordfeminine" unicode="&#xaa;" horiz-adv-x="1034" 
d="M514 686c-26.667 -6 -58.5 -9.00098 -95.5 -9.00098s-74.167 5.33301 -111.5 16s-69.333 26.334 -96 47.001c-56.667 44.667 -85 106.334 -85 185.001c0 119.333 60 203 180 251c102.667 37.333 226.667 56 372 56v64c0 63.333 -16.667 105 -50 125
c-24.667 15.333 -60.167 23 -106.5 23s-83.333 -2.83301 -111 -8.5s-54.5 -12.5 -80.5 -20.5c-56.667 -17.333 -97.334 -34.333 -122.001 -51l-56 121c23.333 21.333 62 41.333 116 60c104.667 36 187.667 54 249 54s113.333 -4.83301 156 -14.5s79 -25.834 109 -48.501
c62.667 -48.667 94 -126.667 94 -234v-615h-71c-44.667 0 -72.667 2.33301 -84 7c-21.333 8 -32 29.667 -32 65v14c-39.333 -41.333 -97.666 -70.333 -174.999 -87zM410 830.999c17.333 -4.66699 37.332 -7 59.999 -7s45.5 2.5 68.5 7.5s44.167 10.833 63.5 17.5
c34 12 59 25 75 39l1 -1v223c-97.333 0 -162.166 -3.5 -194.499 -10.5s-60.5 -16.167 -84.5 -27.5c-52.667 -26 -79 -70.333 -79 -133c0 -56 30 -92 90 -108z" />
    <glyph glyph-name="guillemotleft" unicode="&#xab;" horiz-adv-x="1936" 
d="M245 703l643 430l57 -163l-485 -356l485 -351l-57 -159l-643 415v184zM976 703l643 430l57 -163l-485 -356l485 -351l-57 -159l-643 415v184z" />
    <glyph glyph-name="logicalnot" unicode="&#xac;" horiz-adv-x="1470" 
d="M240 852h990v-529h-200v365h-790v164z" />
    <glyph glyph-name="registered" unicode="&#xae;" horiz-adv-x="2129" 
d="M194 962c0 81.333 10.167 159.5 30.5 234.5s49.333 145 87 210s82.834 124.167 135.501 177.5s111 99 175 137c134.667 79.333 282 119 442 119c159.333 0 306.666 -39.667 441.999 -119c131.333 -77.333 235 -182.333 311 -315
c78.667 -136.667 118 -284.334 118 -443.001c0 -159.333 -39.333 -307.666 -118 -444.999c-117.333 -205.333 -290.666 -340 -519.999 -404c-74.667 -21.333 -152.334 -32 -233.001 -32c-158.667 0 -306 40 -442 120c-130 76.667 -233.333 182 -310 316
c-78.667 136 -118 284 -118 444zM361 1162c-16.667 -64 -25.001 -130.501 -25.001 -199.501s8.33301 -135.333 25 -199s40.334 -123.5 71.001 -179.5s67.667 -106.833 111 -152.5s92 -84.834 146 -117.501c113.333 -68.667 238.333 -103 375 -103s261.667 34.333 375 103
c166.667 100.667 276 250.667 328 450c16.667 63.333 25 129.5 25 198.5s-8.33301 135.5 -25 199.5s-40.334 123.833 -71.001 179.5s-67.667 106.334 -111 152.001s-92 84.834 -146 117.501c-113.333 68.667 -238.333 103 -375 103s-261.667 -34.333 -375 -103
c-167.333 -101.333 -276.666 -251 -327.999 -449zM1432 1174c0 -161.333 -64.334 -261.334 -193.001 -300.001c40.667 -31.333 80.667 -88 120 -170c19.333 -41.333 34 -69.666 44 -84.999l27 -41l65 -99l-204 1c-32 40.667 -61.167 92 -87.5 154
s-46.166 103.667 -59.499 125c-32.667 50 -67.667 80 -105 90c-13.333 -0.666992 -31 -1 -53 -1h-71v-369h-177v962h77l258 7c120 0 211.667 -27.333 275 -82c56 -48 84 -112 84 -192zM1204 1274c-16.667 14 -38.5 24.5 -65.5 31.5s-63.5 10.5 -109.5 10.5
s-84 -3.66699 -114 -11v-325c29.333 -2.66699 56.333 -4 81 -4h49c67.333 0 118 13 152 39s51 71.333 51 136c0 56.667 -14.667 97.667 -44 123z" />
    <glyph glyph-name="macron" unicode="&#xaf;" horiz-adv-x="647" 
d="M50 1588h547v-163h-547v163z" />
    <glyph glyph-name="degree" unicode="&#xb0;" horiz-adv-x="912" 
d="M456 939c-94.667 0 -174.666 32.333 -239.999 97c-66.667 64.667 -100 145.334 -100 242.001c0 97.333 33 178.333 99 243c65.333 64 145.666 96 240.999 96s175.666 -32.333 240.999 -97c66 -64.667 99 -145.334 99 -242.001c0 -97.333 -33 -178.333 -99 -243
c-65.333 -64 -145.666 -96 -240.999 -96zM456.001 1083c52 0 95.666 18.335 130.999 55.002c36 37.333 54 84 54 140c0 55.333 -18 101.666 -54 138.999c-35.333 36.667 -79 55 -131 55c-51.333 0 -94.666 -18 -129.999 -54c-36 -37.333 -54 -84 -54 -140
c0 -54.667 18 -101.334 54 -140.001c34.667 -36.667 78 -55 130 -55z" />
    <glyph glyph-name="plusminus" unicode="&#xb1;" horiz-adv-x="1393" 
d="M250 165h892v-165h-892v165zM607 521l7 171l-165 -7h-220v177h220l165 -11l-7 172v228h178v-228l-8 -172l141 11h246v-177h-246l-141 7l8 -171v-236h-178v236z" />
    <glyph glyph-name="twosuperior" unicode="&#xb2;" horiz-adv-x="1194" 
d="M541 1527c-102.667 0 -194.334 -47.3311 -275.001 -141.998l-91 109c59.333 84 149.333 142.333 270 175c42 11.333 90.667 17 146 17s105.833 -8.83301 151.5 -26.5s83.167 -40.834 112.5 -69.501c57.333 -56 86 -125.333 86 -208
c0 -198.667 -134.333 -384.334 -403 -557.001l458 5v-165h-748l-43 110c102.667 52.667 208.334 128 317.001 226c136.667 124 205 238.333 205 343c0 122 -62 183 -186 183z" />
    <glyph glyph-name="threesuperior" unicode="&#xb3;" horiz-adv-x="1194" 
d="M912 1453c0 -120 -69.333 -210.001 -208 -270.001c88 -4 157.333 -32.333 208 -85c46 -47.333 69 -99.666 69 -156.999s-8.5 -107.333 -25.5 -150s-43.5 -79.667 -79.5 -111c-78 -68 -190.667 -102 -338 -102c-48 0 -117.667 9.33301 -209 28l-14 142
c72.667 -14 146.667 -20.667 222 -20c155.333 1.33301 233 65.666 233 192.999c0 81.333 -42.667 136 -128 164c-26 8.66699 -55 14 -87 16l-88 -28l-37 128c39.333 7.33301 84.833 22.333 136.5 45s88.667 47.834 111 75.501s33.5 60.167 33.5 97.5
c0 64 -32.333 104 -97 120c-19.333 4.66699 -38.333 7 -57 7s-37.667 -1.83301 -57 -5.5s-39.333 -9.16699 -60 -16.5c-44 -14.667 -82.667 -33.667 -116 -57l-62 119c60.667 50 144 83 250 99c26.667 4 58.334 6 95.001 6s76.167 -6.33301 118.5 -19
s77.166 -30 104.499 -52c54.667 -42 82 -97.667 82 -167z" />
    <glyph glyph-name="acute" unicode="&#xb4;" horiz-adv-x="594" 
d="M50 1384c162 177.333 274.668 310.333 338.001 399l156 -135c-22.667 -40 -83.334 -106 -182.001 -198c-97.333 -90 -164.333 -142 -201 -156z" />
    <glyph glyph-name="mu" unicode="&#xb5;" horiz-adv-x="1360" 
d="M1043 -18c-80 0 -119.998 41.332 -119.998 123.999v14c-36 -40 -66.667 -68 -92 -84c-54.667 -34.667 -113.5 -52 -176.5 -52s-116.5 7.5 -160.5 22.5s-81 42.167 -111 81.5l32 -459h-205v1511h219v-741c0 -130 45.667 -206.667 137 -230
c31.333 -8 72.666 -12 123.999 -12s119 29.333 203 88v895h220v-906c0 -42.667 6.33301 -67 19 -73c4.66699 -2 14 -3 28 -3s35.667 9 65 27l31 -98c-22 -35.333 -67.333 -65.666 -136 -90.999c-24.667 -9.33301 -50.334 -14 -77.001 -14z" />
    <glyph glyph-name="paragraph" unicode="&#xb6;" horiz-adv-x="1320" 
d="M657 1711l469 -20v-1691h-184v1548h-241v-1548h-184v777c-289.333 0 -434 157 -434 471c0 142.667 48.333 254.667 145 336c100.667 84.667 243.667 127 429 127z" />
    <glyph glyph-name="periodcentered" unicode="&#xb7;" horiz-adv-x="602" 
d="M193 606c-13.333 13.333 -24.333 29.6689 -33 49.002s-13 40.5 -13 63.5s4.33301 44.667 13 65s20.667 38.166 36 53.499c32.667 34.667 65.5 52 98.5 52s58.5 -4 76.5 -12s33 -19 45 -33c26 -29.333 39 -60.833 39 -94.5s-4.16699 -60.834 -12.5 -81.501
s-19.833 -39 -34.5 -55c-32.667 -33.333 -71 -50 -115 -50c-38 0 -71.333 14.333 -100 43z" />
    <glyph glyph-name="cedilla" unicode="&#xb8;" horiz-adv-x="485" 
d="M276 -94c0 46.667 -8.33105 87.999 -24.998 123.999l83 4l43 -4c39.333 -41.333 59 -111.333 59 -210c0 -147.333 -52.667 -237.666 -158 -270.999c-27.333 -8.66699 -51.5 -13 -72.5 -13s-39 0.666992 -54 2s-29.167 3.33301 -42.5 6
c-30.667 6 -51.334 12.667 -62.001 20l15 142c15.333 -9.33301 42.666 -14 81.999 -14c88 0 132 71.333 132 214z" />
    <glyph glyph-name="onesuperior" unicode="&#xb9;" horiz-adv-x="1026" 
d="M468 1426l-206 -51l-40 121c82 24 180 74.333 294 151c26.667 18 46 32 58 42l105 -25v-1001h-211v763z" />
    <glyph glyph-name="ordmasculine" unicode="&#xba;" horiz-adv-x="1033" 
d="M501 677c-57.333 0 -111.001 11.001 -161.001 33.001c-100 45.333 -168 127.333 -204 246c-16.667 56 -25 118.333 -25 187c0 153.333 47 271.666 141 354.999c76 67.333 169.667 101 281 101c125.333 0 222.333 -43.333 291 -130c65.333 -81.333 98 -191.333 98 -330
c0 -156 -44 -275.333 -132 -358c-73.333 -69.333 -169.666 -104 -288.999 -104zM435.999 847.001c24 -14.667 51.833 -22.001 83.5 -22.001s59.834 5.83301 84.501 17.5s45 29.5 61 53.5c32.667 50 49 127.667 49 233c0 156.667 -36.333 257.334 -109 302.001
c-22.667 14 -41.834 21 -57.501 21s-31.167 -0.166992 -46.5 -0.5s-35.333 -6 -60 -17s-46 -28.5 -64 -52.5c-38.667 -50.667 -58 -127.667 -58 -231c0 -154.667 39 -256 117 -304z" />
    <glyph glyph-name="guillemotright" unicode="&#xbb;" horiz-adv-x="1936" 
d="M959.015 703l-642.96 430l-56.9971 -163l484.971 -356l-484.971 -351l56.9971 -159l642.96 415v184zM1690.01 703l-642.96 430l-56.9971 -163l484.971 -356l-484.971 -351l56.9971 -159l642.96 415v184z" />
    <glyph glyph-name="onequarter" unicode="&#xbc;" horiz-adv-x="2479" 
d="M1871 235h-498l-52 94l482 811h68l131 -77l-396 -608l-42 -69h308v3l8 249l195 20v-272h194l1 -151h-195v-282h-204v282zM1287 1530h200l-542 -1530h-197zM491 1426l-206 -51l-40 121c82 24 180 74.333 294 151c26.667 18 46 32 58 42l105 -25v-1001h-211v763z" />
    <glyph glyph-name="onehalf" unicode="&#xbd;" horiz-adv-x="2479" 
d="M1828 860c-102.667 0 -194.334 -47.3311 -275.001 -141.998l-91 109c59.333 84 149.333 142.333 270 175c42 11.333 90.667 17 146 17s105.833 -8.83301 151.5 -26.5s83.167 -40.834 112.5 -69.501c57.333 -56 86 -125.333 86 -208
c0 -198.667 -134.333 -384.334 -403 -557.001l458 5v-165h-748l-43 110c102.667 52.667 208.334 128 317.001 226c136.667 124 205 238.333 205 343c0 122 -62 183 -186 183zM491 1426l-206 -51l-40 121c82 24 180 74.333 294 151c26.667 18 46 32 58 42l105 -25v-1001h-211
v763zM1288 1530h200l-542 -1530h-197z" />
    <glyph glyph-name="threequarters" unicode="&#xbe;" horiz-adv-x="2479" 
d="M1871 235h-498l-52 94l482 811h68l131 -77l-396 -608l-42 -69h308v3l8 249l195 20v-272h194l1 -151h-195v-282h-204v282zM766 1453c0 -120 -69.333 -210.001 -208 -270.001c88 -4 157.333 -32.333 208 -85c46 -47.333 69 -99.666 69 -156.999s-8.5 -107.333 -25.5 -150
s-43.5 -79.667 -79.5 -111c-78 -68 -190.667 -102 -338 -102c-48 0 -117.667 9.33301 -209 28l-14 142c72.667 -14 146.667 -20.667 222 -20c155.333 1.33301 233 65.666 233 192.999c0 81.333 -42.667 136 -128 164c-26 8.66699 -55 14 -87 16l-88 -28l-37 128
c39.333 7.33301 84.833 22.333 136.5 45s88.667 47.834 111 75.501s33.5 60.167 33.5 97.5c0 64 -32.333 104 -97 120c-19.333 4.66699 -38.333 7 -57 7s-37.667 -1.83301 -57 -5.5s-39.333 -9.16699 -60 -16.5c-44 -14.667 -82.667 -33.667 -116 -57l-62 119
c60.667 50 144 83 250 99c26.667 4 58.334 6 95.001 6s76.167 -6.33301 118.5 -19s77.166 -30 104.499 -52c54.667 -42 82 -97.667 82 -167zM1287 1530h200l-542 -1530h-197z" />
    <glyph glyph-name="questiondown" unicode="&#xbf;" horiz-adv-x="1047" 
d="M546.03 -102.9c57.3301 -17.999 124.663 -26.9971 201.992 -26.9971c77.3281 0 136.324 5.66602 176.989 16.999v-159.99c-20.665 -15.332 -55.6631 -26.165 -104.994 -32.498c-49.3301 -6.33301 -86.3281 -9.49902 -110.993 -9.49902
c-226.653 0 -391.644 60.9961 -494.971 182.989c-67.3291 79.3281 -100.994 176.322 -100.994 290.981c0 36.665 4 76.6631 12 119.994c7.99902 43.3311 23.998 82.9951 47.9971 118.992c23.998 35.998 51.8291 67.8291 83.4941 95.4941s64.6631 52.3301 98.9941 73.9951
s66.1621 43.1641 95.4932 64.4961c67.9961 47.9971 103.994 95.6611 107.993 142.992c1.33301 13.333 2 25.332 2 35.998s-0.5 22.998 -1.5 36.9971s-3.5 30.998 -7.49902 50.9971c-4.66699 19.999 -17 63.6631 -36.999 130.992h166.99
c36.6641 -43.3311 63.3291 -106.994 79.9951 -190.989c5.99902 -31.3311 8.99902 -62.8291 8.99902 -94.4941s-9.16602 -61.6631 -27.498 -89.9951c-18.332 -28.3311 -42.4971 -55.1631 -72.4961 -80.4951c-29.998 -25.3311 -62.8291 -49.1631 -98.4932 -71.4951
c-35.665 -22.332 -69.8301 -45.1641 -102.495 -68.4961c-75.9951 -53.9971 -118.326 -104.994 -126.992 -152.991c-9.33301 -37.998 -13.999 -71.3291 -13.999 -99.9941c0 -143.991 72.3291 -238.652 216.986 -283.983zM700.025 1456.01
c8.66602 -18.665 12.998 -38.9951 12.998 -60.9941s-4.33301 -42.998 -12.999 -62.9971c-8.66699 -19.999 -20.666 -37.665 -35.998 -52.998c-31.998 -33.3311 -63.9961 -49.9971 -95.9941 -49.9971s-56.8301 4 -74.4961 12
c-17.665 7.99902 -32.4971 18.665 -44.4961 31.998c-25.3311 27.998 -37.9971 58.3291 -37.9971 90.9941s4.16602 59.1631 12.499 79.4951s19.832 38.1641 34.498 53.4971c31.3311 32.665 68.6621 48.9971 111.993 48.9971c59.3291 0 102.66 -29.998 129.992 -89.9951z" />
    <glyph glyph-name="Agrave" unicode="&#xc0;" horiz-adv-x="1407" 
d="M603 1538h215l568 -1538h-241l-130 385h-622l-136 -385h-236zM959 551l-204 609l-43 142l-44 -142l-216 -609h507zM739 1573c-66.667 22 -160.333 79.0029 -281 171.003c-54 41.333 -92.667 75.666 -116 102.999l146 133c3.33301 -10.667 52.5 -57.834 147.5 -141.501
l168 -149c17 -15.667 26.167 -23.834 27.5 -24.501z" />
    <glyph glyph-name="Aacute" unicode="&#xc1;" horiz-adv-x="1407" 
d="M603 1538h215l568 -1538h-241l-130 385h-622l-136 -385h-236zM959 551l-204 609l-43 142l-44 -142l-216 -609h507zM574 1665c1.33301 0.666992 10.5 8.83301 27.5 24.5l63.5 57l81.5 73l81.5 74.5c58 53.333 87.667 82 89 86l146 -133
c-79.333 -82 -179 -157.667 -299 -227c-36 -21.333 -68.333 -37 -97 -47z" />
    <glyph glyph-name="Acircumflex" unicode="&#xc2;" horiz-adv-x="1407" 
d="M603 1538h215l568 -1538h-241l-130 385h-622l-136 -385h-236zM959 551l-204 609l-43 142l-44 -142l-216 -609h507zM344 1689l259 301h197l262 -298l-144 -60l-216 202l-221 -202z" />
    <glyph glyph-name="Atilde" unicode="&#xc3;" horiz-adv-x="1407" 
d="M603 1538h215l568 -1538h-241l-130 385h-622l-136 -385h-236zM959 551l-204 609l-43 142l-44 -142l-216 -609h507zM546 1805c-56.667 0 -115.002 -34.002 -175.002 -102.002l-85 68c23.333 56 63 102.667 119 140c54 36.667 104.5 55 151.5 55s83.333 -7.16699 109 -21.5
s48.667 -30.333 69 -48s39.833 -33.667 58.5 -48s40.667 -21.5 66 -21.5c58.667 0 117 33 175 99l86 -71c-23.333 -56 -63 -102.333 -119 -139c-54.667 -36.667 -108.667 -55 -162 -55c-45.333 0 -81.166 8.83301 -107.499 26.5s-46.166 32.834 -59.499 45.501
s-26.333 24.334 -39 35.001c-29.333 24.667 -58.333 37 -87 37z" />
    <glyph glyph-name="Adieresis" unicode="&#xc4;" horiz-adv-x="1407" 
d="M603 1538h215l568 -1538h-241l-130 385h-622l-136 -385h-236zM959 551l-204 609l-43 142l-44 -142l-216 -609h507zM999 1678c-19.333 -7.33301 -38.8301 -10.999 -58.4971 -10.999s-37.834 3 -54.501 9s-31.334 14.667 -44.001 26c-26.667 26 -40 54.333 -40 85
s4.5 55.5 13.5 74.5s21.167 35.167 36.5 48.5c32 30 64 45 96 45s56.667 -3.5 74 -10.5s31.666 -16.5 42.999 -28.5c22.667 -24 34 -51.667 34 -83s-4.33301 -56.333 -13 -75s-20.5 -34.834 -35.5 -48.501s-32.167 -24.167 -51.5 -31.5zM503.003 1678
c-19.333 -7.33301 -38.8301 -10.999 -58.4971 -10.999s-37.834 3 -54.501 9s-31.334 14.667 -44.001 26c-26.667 26 -40 54.333 -40 85s4.5 55.5 13.5 74.5s21.167 35.167 36.5 48.5c32 30 64 45 96 45s56.667 -3.5 74 -10.5s31.666 -16.5 42.999 -28.5
c22.667 -24 34 -51.667 34 -83s-4.33301 -56.333 -13 -75s-20.5 -34.834 -35.5 -48.501s-32.167 -24.167 -51.5 -31.5z" />
    <glyph glyph-name="Aring" unicode="&#xc5;" horiz-adv-x="1407" 
d="M571 1453c-60 18 -106.667 48.501 -140 91.501s-50 95.167 -50 156.5c0 91.333 34.333 161 103 209c56.667 40 129 60 217 60c153.333 0 253 -50 299 -150c14.667 -32.667 21.667 -76.334 21 -131.001s-17.167 -102.167 -49.5 -142.5s-73.833 -69.5 -124.5 -87.5
l539 -1459h-241l-130 385h-622l-136 -385h-236zM699 1561c112.667 0 168.999 48.332 168.999 144.999c0 67.333 -34 111 -102 131c-20.667 6 -42 9 -64 9s-42.667 -2 -62 -6s-36.666 -11.333 -51.999 -22c-34 -23.333 -51 -58.666 -51 -105.999s14.5 -84 43.5 -110
s68.5 -39.667 118.5 -41zM958.999 551l-204 609l-43 142l-44 -142l-216 -609h507z" />
    <glyph glyph-name="AE" unicode="&#xc6;" horiz-adv-x="1860" 
d="M652 1522h1061v-172h-653v-480h479v-172h-479v-523h726v-175h-949v385h-481l-183 -385h-246zM837 551v825h-10l-392 -825h402z" />
    <glyph glyph-name="Ccedilla" unicode="&#xc7;" horiz-adv-x="1313" 
d="M516 -294c15.333 -9.33301 42.6641 -14.0049 81.9971 -14.0049c88 0 132 73 132 219c0 28.667 -3.33301 54.334 -10 77.001c-190.667 18.667 -342.667 96.667 -456 234c-112.667 138 -169 315 -169 531c0 242.667 70.667 436.334 212 581.001
c64.667 66.667 139.5 117.334 224.5 152.001s165.333 52 241 52s135.334 -2.33301 179.001 -7s81.5 -10.167 113.5 -16.5s58.833 -12.666 80.5 -18.999s39.167 -11.166 52.5 -14.499l-32 -198c-90.667 49.333 -208 74 -352 74c-153.333 0 -274.666 -53 -363.999 -159
s-134 -249.333 -134 -430s44 -326.667 132 -438c90.667 -113.333 212.334 -170 365.001 -170c118 0 223 19.333 315 58c26 11.333 45.667 23 59 35l1 -189c-85.333 -34 -151.666 -55 -198.999 -63s-90.333 -13 -129 -15c20 -43.333 30 -98 30 -164
c0 -148.667 -52.667 -239.667 -158 -273c-27.333 -8.66699 -51.5 -13 -72.5 -13s-39 0.666992 -54 2s-29.167 3.33301 -42.5 6c-30.667 6 -51.334 12.667 -62.001 20z" />
    <glyph glyph-name="Egrave" unicode="&#xc8;" horiz-adv-x="1217" 
d="M717 1573c-66.667 22 -160.333 79.0029 -281 171.003c-54 41.333 -92.667 75.666 -116 102.999l146 133c3.33301 -10.667 52.5 -57.834 147.5 -141.501l168 -149c17 -15.667 26.167 -23.834 27.5 -24.501zM194.001 1522h876v-172h-653v-480h479v-172h-479v-523h726v-175
h-949v1522z" />
    <glyph glyph-name="Eacute" unicode="&#xc9;" horiz-adv-x="1217" 
d="M552 1665c1.33301 0.666992 10.5 8.83301 27.5 24.5l63.5 57l81.5 73l81.5 74.5c58 53.333 87.667 82 89 86l146 -133c-79.333 -82 -179 -157.667 -299 -227c-36 -21.333 -68.333 -37 -97 -47zM194 1522h876v-172h-653v-480h479v-172h-479v-523h726v-175h-949v1522z" />
    <glyph glyph-name="Ecircumflex" unicode="&#xca;" horiz-adv-x="1217" 
d="M194 1522h876v-172h-653v-480h479v-172h-479v-523h726v-175h-949v1522zM322 1689l259 301h197l262 -298l-144 -60l-216 202l-221 -202z" />
    <glyph glyph-name="Edieresis" unicode="&#xcb;" horiz-adv-x="1217" 
d="M977 1678c-19.333 -7.33301 -38.8301 -10.999 -58.4971 -10.999s-37.834 3 -54.501 9s-31.334 14.667 -44.001 26c-26.667 26 -40 54.333 -40 85s4.5 55.5 13.5 74.5s21.167 35.167 36.5 48.5c32 30 64 45 96 45s56.667 -3.5 74 -10.5s31.666 -16.5 42.999 -28.5
c22.667 -24 34 -51.667 34 -83s-4.33301 -56.333 -13 -75s-20.5 -34.834 -35.5 -48.501s-32.167 -24.167 -51.5 -31.5zM481.003 1678c-19.333 -7.33301 -38.8301 -10.999 -58.4971 -10.999s-37.834 3 -54.501 9s-31.334 14.667 -44.001 26c-26.667 26 -40 54.333 -40 85
s4.5 55.5 13.5 74.5s21.167 35.167 36.5 48.5c32 30 64 45 96 45s56.667 -3.5 74 -10.5s31.666 -16.5 42.999 -28.5c22.667 -24 34 -51.667 34 -83s-4.33301 -56.333 -13 -75s-20.5 -34.834 -35.5 -48.501s-32.167 -24.167 -51.5 -31.5zM194.006 1522h876v-172h-653v-480
h479v-172h-479v-523h726v-175h-949v1522z" />
    <glyph glyph-name="Igrave" unicode="&#xcc;" horiz-adv-x="640" 
d="M207 1522h226v-1522h-226v1522zM359 1573c-66.667 22 -160.333 79.0029 -281 171.003c-54 41.333 -92.667 75.666 -116 102.999l146 133c3.33301 -10.667 52.5 -57.834 147.5 -141.501l168 -149c17 -15.667 26.167 -23.834 27.5 -24.501z" />
    <glyph glyph-name="Iacute" unicode="&#xcd;" horiz-adv-x="640" 
d="M207 1522h226v-1522h-226v1522zM193 1665c1.33301 0.666992 10.5 8.83301 27.5 24.5l63.5 57l81.5 73l81.5 74.5c58 53.333 87.667 82 89 86l146 -133c-79.333 -82 -179 -157.667 -299 -227c-36 -21.333 -68.333 -37 -97 -47z" />
    <glyph glyph-name="Icircumflex" unicode="&#xce;" horiz-adv-x="640" 
d="M207 1522h226v-1522h-226v1522zM-36 1689l259 301h197l262 -298l-144 -60l-216 202l-221 -202z" />
    <glyph glyph-name="Idieresis" unicode="&#xcf;" horiz-adv-x="640" 
d="M207 1522h226v-1522h-226v1522zM619 1678c-19.333 -7.33301 -38.8301 -10.999 -58.4971 -10.999s-37.834 3 -54.501 9s-31.334 14.667 -44.001 26c-26.667 26 -40 54.333 -40 85s4.5 55.5 13.5 74.5s21.167 35.167 36.5 48.5c32 30 64 45 96 45s56.667 -3.5 74 -10.5
s31.666 -16.5 42.999 -28.5c22.667 -24 34 -51.667 34 -83s-4.33301 -56.333 -13 -75s-20.5 -34.834 -35.5 -48.501s-32.167 -24.167 -51.5 -31.5zM123.003 1678c-19.333 -7.33301 -38.8301 -10.999 -58.4971 -10.999s-37.834 3 -54.501 9s-31.334 14.667 -44.001 26
c-26.667 26 -40 54.333 -40 85s4.5 55.5 13.5 74.5s21.167 35.167 36.5 48.5c32 30 64 45 96 45s56.667 -3.5 74 -10.5s31.666 -16.5 42.999 -28.5c22.667 -24 34 -51.667 34 -83s-4.33301 -56.333 -13 -75s-20.5 -34.834 -35.5 -48.501s-32.167 -24.167 -51.5 -31.5z" />
    <glyph glyph-name="Eth" unicode="&#xd0;" horiz-adv-x="1472" 
d="M660 -16l-381 16.001h-85v720h-128v149h128v653h112l360 16c240.667 0 422 -64.667 544 -194c118.667 -124.667 178 -304.667 178 -540c0 -258.667 -66.667 -461.334 -200 -608.001c-129.333 -141.333 -305.333 -212 -528 -212zM849.5 1345.5
c-67.667 21 -144 31.499 -229 31.499s-152.5 -5.33301 -202.5 -16v-492h394v-149h-394v-552c52.667 -12.667 139 -19 259 -19c228 4.66699 375.667 118.334 443 341.001c24 78 36 172.5 36 283.5s-11.5 205 -34.5 282s-57.167 139.333 -102.5 187s-101.833 82 -169.5 103z
" />
    <glyph glyph-name="Ntilde" unicode="&#xd1;" horiz-adv-x="1556" 
d="M636 1805c-56.667 0 -115.002 -34.002 -175.002 -102.002l-85 68c23.333 56 63 102.667 119 140c54 36.667 104.5 55 151.5 55s83.333 -7.16699 109 -21.5s48.667 -30.333 69 -48s39.833 -33.667 58.5 -48s40.667 -21.5 66 -21.5c58.667 0 117 33 175 99l86 -71
c-23.333 -56 -63 -102.333 -119 -139c-54.667 -36.667 -108.667 -55 -162 -55c-45.333 0 -81.166 8.83301 -107.499 26.5s-46.166 32.834 -59.499 45.501s-26.333 24.334 -39 35.001c-29.333 24.667 -58.333 37 -87 37zM192.998 1522h204l651 -1005l123 -226l-13 254v977
h205v-1522h-207l-630 967l-140 249l12 -264v-952h-205v1522z" />
    <glyph glyph-name="Ograve" unicode="&#xd2;" horiz-adv-x="1569" 
d="M845 1573c-66.667 22 -160.333 79.0029 -281 171.003c-54 41.333 -92.667 75.666 -116 102.999l146 133c3.33301 -10.667 52.5 -57.834 147.5 -141.501l168 -149c17 -15.667 26.167 -23.834 27.5 -24.501zM100.001 751.003c0 133.333 19.5 249.667 58.5 349
s90.5 181 154.5 245c128.667 128.667 293.667 193 495 193c202.667 0 364.334 -70.667 485.001 -212c117.333 -136.667 176 -317.667 176 -543c0 -255.333 -65.833 -452.333 -197.5 -591s-299.834 -208 -504.501 -208s-367 71.5 -487 214.5s-180 327.167 -180 552.5z
M799.001 155.004c60 0 118.166 13.334 174.499 40.001s104.5 66 144.5 118c83.333 108.667 125 261.667 125 459c0 169.333 -37 308.666 -111 417.999c-81.333 118.667 -191.666 178 -330.999 178c-137.333 0 -249 -49.333 -335 -148c-94 -109.333 -141 -263.333 -141 -462
c0 -168.667 38.667 -308.667 116 -420c84.667 -122 204 -183 358 -183z" />
    <glyph glyph-name="Oacute" unicode="&#xd3;" horiz-adv-x="1569" 
d="M680 1665c1.33301 0.666992 10.5 8.83301 27.5 24.5l63.5 57l81.5 73l81.5 74.5c58 53.333 87.667 82 89 86l146 -133c-79.333 -82 -179 -157.667 -299 -227c-36 -21.333 -68.333 -37 -97 -47zM100 750.999c0 133.333 19.5 249.667 58.5 349s90.5 181 154.5 245
c128.667 128.667 293.667 193 495 193c202.667 0 364.334 -70.667 485.001 -212c117.333 -136.667 176 -317.667 176 -543c0 -255.333 -65.833 -452.333 -197.5 -591s-299.834 -208 -504.501 -208s-367 71.5 -487 214.5s-180 327.167 -180 552.5zM799 155
c60 0 118.166 13.334 174.499 40.001s104.5 66 144.5 118c83.333 108.667 125 261.667 125 459c0 169.333 -37 308.666 -111 417.999c-81.333 118.667 -191.666 178 -330.999 178c-137.333 0 -249 -49.333 -335 -148c-94 -109.333 -141 -263.333 -141 -462
c0 -168.667 38.667 -308.667 116 -420c84.667 -122 204 -183 358 -183z" />
    <glyph glyph-name="Ocircumflex" unicode="&#xd4;" horiz-adv-x="1569" 
d="M100 751c0 133.333 19.5 249.667 58.5 349s90.5 181 154.5 245c128.667 128.667 293.667 193 495 193c202.667 0 364.334 -70.667 485.001 -212c117.333 -136.667 176 -317.667 176 -543c0 -255.333 -65.833 -452.333 -197.5 -591s-299.834 -208 -504.501 -208
s-367 71.5 -487 214.5s-180 327.167 -180 552.5zM799 155.001c60 0 118.166 13.334 174.499 40.001s104.5 66 144.5 118c83.333 108.667 125 261.667 125 459c0 169.333 -37 308.666 -111 417.999c-81.333 118.667 -191.666 178 -330.999 178
c-137.333 0 -249 -49.333 -335 -148c-94 -109.333 -141 -263.333 -141 -462c0 -168.667 38.667 -308.667 116 -420c84.667 -122 204 -183 358 -183zM449.999 1689l259 301h197l262 -298l-144 -60l-216 202l-221 -202z" />
    <glyph glyph-name="Otilde" unicode="&#xd5;" horiz-adv-x="1569" 
d="M652 1805c-56.667 0 -115.002 -34.002 -175.002 -102.002l-85 68c23.333 56 63 102.667 119 140c54 36.667 104.5 55 151.5 55s83.333 -7.16699 109 -21.5s48.667 -30.333 69 -48s39.833 -33.667 58.5 -48s40.667 -21.5 66 -21.5c58.667 0 117 33 175 99l86 -71
c-23.333 -56 -63 -102.333 -119 -139c-54.667 -36.667 -108.667 -55 -162 -55c-45.333 0 -81.166 8.83301 -107.499 26.5s-46.166 32.834 -59.499 45.501s-26.333 24.334 -39 35.001c-29.333 24.667 -58.333 37 -87 37zM99.998 750.998c0 133.333 19.5 249.667 58.5 349
s90.5 181 154.5 245c128.667 128.667 293.667 193 495 193c202.667 0 364.334 -70.667 485.001 -212c117.333 -136.667 176 -317.667 176 -543c0 -255.333 -65.833 -452.333 -197.5 -591s-299.834 -208 -504.501 -208s-367 71.5 -487 214.5s-180 327.167 -180 552.5z
M798.998 154.999c60 0 118.166 13.334 174.499 40.001s104.5 66 144.5 118c83.333 108.667 125 261.667 125 459c0 169.333 -37 308.666 -111 417.999c-81.333 118.667 -191.666 178 -330.999 178c-137.333 0 -249 -49.333 -335 -148c-94 -109.333 -141 -263.333 -141 -462
c0 -168.667 38.667 -308.667 116 -420c84.667 -122 204 -183 358 -183z" />
    <glyph glyph-name="Odieresis" unicode="&#xd6;" horiz-adv-x="1569" 
d="M1105 1678c-19.333 -7.33301 -38.8301 -10.999 -58.4971 -10.999s-37.834 3 -54.501 9s-31.334 14.667 -44.001 26c-26.667 26 -40 54.333 -40 85s4.5 55.5 13.5 74.5s21.167 35.167 36.5 48.5c32 30 64 45 96 45s56.667 -3.5 74 -10.5s31.666 -16.5 42.999 -28.5
c22.667 -24 34 -51.667 34 -83s-4.33301 -56.333 -13 -75s-20.5 -34.834 -35.5 -48.501s-32.167 -24.167 -51.5 -31.5zM609.003 1678c-19.333 -7.33301 -38.8301 -10.999 -58.4971 -10.999s-37.834 3 -54.501 9s-31.334 14.667 -44.001 26c-26.667 26 -40 54.333 -40 85
s4.5 55.5 13.5 74.5s21.167 35.167 36.5 48.5c32 30 64 45 96 45s56.667 -3.5 74 -10.5s31.666 -16.5 42.999 -28.5c22.667 -24 34 -51.667 34 -83s-4.33301 -56.333 -13 -75s-20.5 -34.834 -35.5 -48.501s-32.167 -24.167 -51.5 -31.5zM100.006 751.002
c0 133.333 19.5 249.667 58.5 349s90.5 181 154.5 245c128.667 128.667 293.667 193 495 193c202.667 0 364.334 -70.667 485.001 -212c117.333 -136.667 176 -317.667 176 -543c0 -255.333 -65.833 -452.333 -197.5 -591s-299.834 -208 -504.501 -208s-367 71.5 -487 214.5
s-180 327.167 -180 552.5zM799.006 155.003c60 0 118.166 13.334 174.499 40.001s104.5 66 144.5 118c83.333 108.667 125 261.667 125 459c0 169.333 -37 308.666 -111 417.999c-81.333 118.667 -191.666 178 -330.999 178c-137.333 0 -249 -49.333 -335 -148
c-94 -109.333 -141 -263.333 -141 -462c0 -168.667 38.667 -308.667 116 -420c84.667 -122 204 -183 358 -183z" />
    <glyph glyph-name="multiply" unicode="&#xd7;" horiz-adv-x="1370" 
d="M234 439l338 335l-338 345l130 128l322 -354l322 354l130 -128l-338 -342l338 -338l-130 -128l-322 343l-322 -343z" />
    <glyph glyph-name="Oslash" unicode="&#xd8;" horiz-adv-x="1569" 
d="M536 1489.5c84.667 32.333 166.667 48.502 246 48.502s147 -7.33301 203 -22l80 222l125 -36l-83 -231c178 -89.333 291.333 -246.333 340 -471c14.667 -68 22 -123.333 22 -166c0 -168 -18.5 -301.833 -55.5 -401.5s-86.167 -181.834 -147.5 -246.501
c-128 -134.667 -295.667 -202 -503 -202c-66 0 -127 8 -183 24l-75 -208l-125 36l79 219c-176.667 93.333 -289.667 254.333 -339 483c-13.333 65.333 -20 118.333 -20 159c0 169.333 19.5 303.666 58.5 402.999s90.5 181 154.5 245s138.333 112.167 223 144.5zM925 1349
c-40.667 12.667 -87.499 18.999 -140.499 18.999s-108.333 -12.167 -166 -36.5s-108.5 -61.5 -152.5 -111.5c-94 -109.333 -141 -263.333 -141 -462c0 -166 38 -305 114 -417c25.333 -37.333 54.666 -69.666 87.999 -96.999zM641.001 179.001c44 -16 96.332 -24 156.999 -24
s119.167 13.333 175.5 40s104.5 66 144.5 118c83.333 108.667 125 261.667 125 459c0 170 -38 310.667 -114 422c-25.333 36.667 -54.666 68 -87.999 94z" />
    <glyph glyph-name="Ugrave" unicode="&#xd9;" horiz-adv-x="1463" 
d="M782 1573c-66.667 22 -160.333 79.0029 -281 171.003c-54 41.333 -92.667 75.666 -116 102.999l146 133c3.33301 -10.667 52.5 -57.834 147.5 -141.501l168 -149c17 -15.667 26.167 -23.834 27.5 -24.501zM159.001 1522l223.002 0.000976562l-1 -836
c0 -200 32 -340.667 96 -422c56 -70.667 146.333 -106 271 -106c111.333 0 192.666 35.667 243.999 107c60.667 83.333 91 223.666 91 420.999v836h222v-892c0 -318 -105 -519.333 -315 -604c-70.667 -28 -156 -42 -256 -42s-186.833 14.5 -260.5 43.5
s-133.834 71.167 -180.501 126.5c-89.333 106 -134 265.667 -134 479v889z" />
    <glyph glyph-name="Uacute" unicode="&#xda;" horiz-adv-x="1463" 
d="M617 1665c1.33301 0.666992 10.5 8.83301 27.5 24.5l63.5 57l81.5 73l81.5 74.5c58 53.333 87.667 82 89 86l146 -133c-79.333 -82 -179 -157.667 -299 -227c-36 -21.333 -68.333 -37 -97 -47zM159 1522l223.002 0.000976562l-1 -836c0 -200 32 -340.667 96 -422
c56 -70.667 146.333 -106 271 -106c111.333 0 192.666 35.667 243.999 107c60.667 83.333 91 223.666 91 420.999v836h222v-892c0 -318 -105 -519.333 -315 -604c-70.667 -28 -156 -42 -256 -42s-186.833 14.5 -260.5 43.5s-133.834 71.167 -180.501 126.5
c-89.333 106 -134 265.667 -134 479v889z" />
    <glyph glyph-name="Ucircumflex" unicode="&#xdb;" horiz-adv-x="1463" 
d="M159 1522l223.002 0.000976562l-1 -836c0 -200 32 -340.667 96 -422c56 -70.667 146.333 -106 271 -106c111.333 0 192.666 35.667 243.999 107c60.667 83.333 91 223.666 91 420.999v836h222v-892c0 -318 -105 -519.333 -315 -604c-70.667 -28 -156 -42 -256 -42
s-186.833 14.5 -260.5 43.5s-133.834 71.167 -180.501 126.5c-89.333 106 -134 265.667 -134 479v889zM387.002 1689l259 301h197l262 -298l-144 -60l-216 202l-221 -202z" />
    <glyph glyph-name="Udieresis" unicode="&#xdc;" horiz-adv-x="1463" 
d="M1042 1678c-19.333 -7.33301 -38.8301 -10.999 -58.4971 -10.999s-37.834 3 -54.501 9s-31.334 14.667 -44.001 26c-26.667 26 -40 54.333 -40 85s4.5 55.5 13.5 74.5s21.167 35.167 36.5 48.5c32 30 64 45 96 45s56.667 -3.5 74 -10.5s31.666 -16.5 42.999 -28.5
c22.667 -24 34 -51.667 34 -83s-4.33301 -56.333 -13 -75s-20.5 -34.834 -35.5 -48.501s-32.167 -24.167 -51.5 -31.5zM546.003 1678c-19.333 -7.33301 -38.8301 -10.999 -58.4971 -10.999s-37.834 3 -54.501 9s-31.334 14.667 -44.001 26c-26.667 26 -40 54.333 -40 85
s4.5 55.5 13.5 74.5s21.167 35.167 36.5 48.5c32 30 64 45 96 45s56.667 -3.5 74 -10.5s31.666 -16.5 42.999 -28.5c22.667 -24 34 -51.667 34 -83s-4.33301 -56.333 -13 -75s-20.5 -34.834 -35.5 -48.501s-32.167 -24.167 -51.5 -31.5zM159.006 1522l223.002 0.000976562
l-1 -836c0 -200 32 -340.667 96 -422c56 -70.667 146.333 -106 271 -106c111.333 0 192.666 35.667 243.999 107c60.667 83.333 91 223.666 91 420.999v836h222v-892c0 -318 -105 -519.333 -315 -604c-70.667 -28 -156 -42 -256 -42s-186.833 14.5 -260.5 43.5
s-133.834 71.167 -180.501 126.5c-89.333 106 -134 265.667 -134 479v889z" />
    <glyph glyph-name="Yacute" unicode="&#xdd;" horiz-adv-x="1264" 
d="M523 593l-501 929h238l338 -660l43 -105l36 105l331 660h234l-493 -929v-593h-226v593zM522 1665c1.33301 0.666992 10.5 8.83301 27.5 24.5l63.5 57l81.5 73l81.5 74.5c58 53.333 87.667 82 89 86l146 -133c-79.333 -82 -179 -157.667 -299 -227
c-36 -21.333 -68.333 -37 -97 -47z" />
    <glyph glyph-name="Thorn" unicode="&#xde;" horiz-adv-x="1262" 
d="M851.5 319c-72.333 -22.667 -146.001 -34 -221.001 -34s-146.167 2.33301 -213.5 7v-292h-223v1522h223v-275c106 8 183.667 12 233 12c354.667 0 532 -155.333 532 -466c0 -161.333 -49.333 -286.333 -148 -375c-49.333 -43.333 -110.166 -76.333 -182.499 -99z
M603.999 1099c-69.333 0 -131.667 -5.66699 -187 -17v-627c40 -5.33301 89.5 -8 148.5 -8s111.5 4.16699 157.5 12.5s86.333 24.833 121 49.5c77.333 54 116 142 116 264s-30.5 206.833 -91.5 254.5s-149.167 71.5 -264.5 71.5z" />
    <glyph glyph-name="germandbls" unicode="&#xdf;" horiz-adv-x="1268" 
d="M879 1275c0 98.667 -65.666 148 -196.999 148c-90.667 0 -159.334 -33.667 -206.001 -101c-54.667 -76.667 -82 -201.334 -82 -374.001v-948h-220v974h-138v129l153 39c28.667 148 92 259 190 333c91.333 69.333 204.666 104 339.999 104
c109.333 0 198.333 -23.667 267 -71c74 -50.667 111 -119 111 -205s-37.333 -167.667 -112 -245c-47.333 -48.667 -77.833 -85.334 -91.5 -110.001s-20.5 -49.167 -20.5 -73.5s5.16699 -46.833 15.5 -67.5s24 -40.167 41 -58.5s36.333 -36 58 -53l67 -53
c23 -18.333 45.333 -38.166 67 -59.499s41.167 -45 58.5 -71c37.333 -57.333 56 -120 56 -188s-11.5 -123 -34.5 -165s-53.5 -76 -91.5 -102c-70 -48.667 -157.333 -73 -262 -73s-184.667 11 -240 33v173c60.667 -34.667 140.334 -52 239.001 -52
c74.667 0 125 26.333 151 79c10 19.333 14.833 45.333 14.5 78s-9 62.834 -26 90.501s-38.167 53.5 -63.5 77.5s-52.833 47.833 -82.5 71.5s-57.167 50.167 -82.5 79.5c-58.667 69.333 -88 148.333 -88 237c0 68.667 34.833 141 104.5 217s104.5 145 104.5 207z" />
    <glyph glyph-name="agrave" unicode="&#xe0;" horiz-adv-x="1131" 
d="M120 170.5c-17.333 39.667 -25.9971 90.498 -25.9971 152.498s20 119 60 171c84 109.333 248 172.666 492 189.999c37.333 2.66699 72 4 104 4v115c0 76.667 -20 128.334 -60 155.001c-33.333 22 -94.333 33 -183 33c-76.667 0 -161 -18.333 -253 -55
c-24 -9.33301 -42.333 -18.666 -55 -27.999l-54 144c57.333 36 152.333 66.667 285 92c45.333 8.66699 94.166 13 146.499 13s103.333 -4.83301 153 -14.5s92.5 -27.834 128.5 -54.501c74.667 -56 112 -154 112 -294v-810h-90c-42.667 0 -70.334 4 -83.001 12
c-22.667 15.333 -34 46 -34 92v8c-54.667 -50 -128.334 -84 -221.001 -102c-32 -6.66699 -69.167 -10 -111.5 -10s-84.833 7.33301 -127.5 22s-79.5 35.834 -110.5 63.501s-55.167 61.334 -72.5 101.001zM311.003 323.998c0 -117.333 65.667 -176.001 197 -176.001
c72.667 0 142 19 208 57c16.667 9.33301 28 17.333 34 24v319c-78 0 -144.333 -6.66699 -199 -20s-91.834 -24.666 -111.501 -33.999s-37.167 -19.166 -52.5 -29.499s-28.666 -22.5 -39.999 -36.5c-24 -28.667 -36 -63.334 -36 -104.001zM338.003 1783
c62.667 -80 175.332 -213 337.999 -399l-111 -90c-39.333 17.333 -105.166 68.333 -197.499 153s-154.5 151.667 -186.5 201z" />
    <glyph glyph-name="aacute" unicode="&#xe1;" horiz-adv-x="1131" 
d="M120 170.5c-17.333 39.667 -25.9971 90.498 -25.9971 152.498s20 119 60 171c84 109.333 248 172.666 492 189.999c37.333 2.66699 72 4 104 4v115c0 76.667 -20 128.334 -60 155.001c-33.333 22 -94.333 33 -183 33c-76.667 0 -161 -18.333 -253 -55
c-24 -9.33301 -42.333 -18.666 -55 -27.999l-54 144c57.333 36 152.333 66.667 285 92c45.333 8.66699 94.166 13 146.499 13s103.333 -4.83301 153 -14.5s92.5 -27.834 128.5 -54.501c74.667 -56 112 -154 112 -294v-810h-90c-42.667 0 -70.334 4 -83.001 12
c-22.667 15.333 -34 46 -34 92v8c-54.667 -50 -128.334 -84 -221.001 -102c-32 -6.66699 -69.167 -10 -111.5 -10s-84.833 7.33301 -127.5 22s-79.5 35.834 -110.5 63.501s-55.167 61.334 -72.5 101.001zM311.003 323.998c0 -117.333 65.667 -176.001 197 -176.001
c72.667 0 142 19 208 57c16.667 9.33301 28 17.333 34 24v319c-78 0 -144.333 -6.66699 -199 -20s-91.834 -24.666 -111.501 -33.999s-37.167 -19.166 -52.5 -29.499s-28.666 -22.5 -39.999 -36.5c-24 -28.667 -36 -63.334 -36 -104.001zM436.003 1384
c162 177.333 274.668 310.333 338.001 399l156 -135c-22.667 -40 -83.334 -106 -182.001 -198c-97.333 -90 -164.333 -142 -201 -156z" />
    <glyph glyph-name="acircumflex" unicode="&#xe2;" horiz-adv-x="1131" 
d="M120 170.5c-17.333 39.667 -25.9971 90.498 -25.9971 152.498s20 119 60 171c84 109.333 248 172.666 492 189.999c37.333 2.66699 72 4 104 4v115c0 76.667 -20 128.334 -60 155.001c-33.333 22 -94.333 33 -183 33c-76.667 0 -161 -18.333 -253 -55
c-24 -9.33301 -42.333 -18.666 -55 -27.999l-54 144c57.333 36 152.333 66.667 285 92c45.333 8.66699 94.166 13 146.499 13s103.333 -4.83301 153 -14.5s92.5 -27.834 128.5 -54.501c74.667 -56 112 -154 112 -294v-810h-90c-42.667 0 -70.334 4 -83.001 12
c-22.667 15.333 -34 46 -34 92v8c-54.667 -50 -128.334 -84 -221.001 -102c-32 -6.66699 -69.167 -10 -111.5 -10s-84.833 7.33301 -127.5 22s-79.5 35.834 -110.5 63.501s-55.167 61.334 -72.5 101.001zM311.003 323.998c0 -117.333 65.667 -176.001 197 -176.001
c72.667 0 142 19 208 57c16.667 9.33301 28 17.333 34 24v319c-78 0 -144.333 -6.66699 -199 -20s-91.834 -24.666 -111.501 -33.999s-37.167 -19.166 -52.5 -29.499s-28.666 -22.5 -39.999 -36.5c-24 -28.667 -36 -63.334 -36 -104.001zM192.003 1349l276 333h198l268 -332
l-135 -56l-232 222l-249 -223z" />
    <glyph glyph-name="atilde" unicode="&#xe3;" horiz-adv-x="1131" 
d="M120 170.5c-17.333 39.667 -25.9971 90.498 -25.9971 152.498s20 119 60 171c84 109.333 248 172.666 492 189.999c37.333 2.66699 72 4 104 4v115c0 76.667 -20 128.334 -60 155.001c-33.333 22 -94.333 33 -183 33c-76.667 0 -161 -18.333 -253 -55
c-24 -9.33301 -42.333 -18.666 -55 -27.999l-54 144c57.333 36 152.333 66.667 285 92c45.333 8.66699 94.166 13 146.499 13s103.333 -4.83301 153 -14.5s92.5 -27.834 128.5 -54.501c74.667 -56 112 -154 112 -294v-810h-90c-42.667 0 -70.334 4 -83.001 12
c-22.667 15.333 -34 46 -34 92v8c-54.667 -50 -128.334 -84 -221.001 -102c-32 -6.66699 -69.167 -10 -111.5 -10s-84.833 7.33301 -127.5 22s-79.5 35.834 -110.5 63.501s-55.167 61.334 -72.5 101.001zM311.003 323.998c0 -117.333 65.667 -176.001 197 -176.001
c72.667 0 142 19 208 57c16.667 9.33301 28 17.333 34 24v319c-78 0 -144.333 -6.66699 -199 -20s-91.834 -24.666 -111.501 -33.999s-37.167 -19.166 -52.5 -29.499s-28.666 -22.5 -39.999 -36.5c-24 -28.667 -36 -63.334 -36 -104.001zM415.003 1482
c-61.333 0 -122.331 -32.334 -182.998 -97.001l-85 68c39.333 86 100.333 145.667 183 179c28 10.667 56.167 16 84.5 16s52.666 -3.33301 72.999 -10s38.5 -15.167 54.5 -25.5s30.667 -21.333 44 -33l40 -33.5c29.333 -23.333 58 -35 86 -35
c64.667 0 125.667 32.667 183 98l86 -72c-42 -89.333 -103 -148.666 -183 -177.999c-27.333 -10 -55.833 -15 -85.5 -15s-54.834 3.33301 -75.501 10s-39.167 15.167 -55.5 25.5s-30.833 21.5 -43.5 33.5s-25.334 23 -38.001 33c-29.333 24 -57.666 36 -84.999 36z" />
    <glyph glyph-name="adieresis" unicode="&#xe4;" horiz-adv-x="1131" 
d="M120 170.5c-17.333 39.667 -25.9971 90.498 -25.9971 152.498s20 119 60 171c84 109.333 248 172.666 492 189.999c37.333 2.66699 72 4 104 4v115c0 76.667 -20 128.334 -60 155.001c-33.333 22 -94.333 33 -183 33c-76.667 0 -161 -18.333 -253 -55
c-24 -9.33301 -42.333 -18.666 -55 -27.999l-54 144c57.333 36 152.333 66.667 285 92c45.333 8.66699 94.166 13 146.499 13s103.333 -4.83301 153 -14.5s92.5 -27.834 128.5 -54.501c74.667 -56 112 -154 112 -294v-810h-90c-42.667 0 -70.334 4 -83.001 12
c-22.667 15.333 -34 46 -34 92v8c-54.667 -50 -128.334 -84 -221.001 -102c-32 -6.66699 -69.167 -10 -111.5 -10s-84.833 7.33301 -127.5 22s-79.5 35.834 -110.5 63.501s-55.167 61.334 -72.5 101.001zM311.003 323.998c0 -117.333 65.667 -176.001 197 -176.001
c72.667 0 142 19 208 57c16.667 9.33301 28 17.333 34 24v319c-78 0 -144.333 -6.66699 -199 -20s-91.834 -24.666 -111.501 -33.999s-37.167 -19.166 -52.5 -29.499s-28.666 -22.5 -39.999 -36.5c-24 -28.667 -36 -63.334 -36 -104.001zM842.003 1374
c-18.667 -7.33301 -37.501 -11.001 -56.501 -11.001s-36.5 3 -52.5 9s-30 14.667 -42 26c-25.333 24.667 -38 51.834 -38 81.501s4.5 53.5 13.5 71.5s20.5 33.667 34.5 47c30.667 29.333 61.834 44 93.501 44s55.667 -3.33301 72 -10s29.833 -16 40.5 -28
c20.667 -23.333 31 -50 31 -80s-4.33301 -54.167 -13 -72.5s-20 -34 -34 -47s-30.333 -23.167 -49 -30.5zM384.002 1374c-18.667 -7.33301 -37.5 -11.001 -56.5 -11.001s-36.5 3 -52.5 9s-30 14.667 -42 26c-25.333 24.667 -38 51.834 -38 81.501s4.5 53.5 13.5 71.5
s20.833 33.667 35.5 47c31.333 29.333 62.5 44 93.5 44s54.667 -3.33301 71 -10s29.833 -16 40.5 -28c20.667 -23.333 31 -50 31 -80s-4.33301 -54.167 -13 -72.5s-20 -34 -34 -47s-30.333 -23.167 -49 -30.5z" />
    <glyph glyph-name="aring" unicode="&#xe5;" horiz-adv-x="1131" 
d="M120 170.5c-17.333 39.667 -25.9971 90.498 -25.9971 152.498s20 119 60 171c84 109.333 248 172.666 492 189.999c37.333 2.66699 72 4 104 4v115c0 76.667 -20 128.334 -60 155.001c-33.333 22 -94.333 33 -183 33c-76.667 0 -161 -18.333 -253 -55
c-24 -9.33301 -42.333 -18.666 -55 -27.999l-54 144c57.333 36 152.333 66.667 285 92c45.333 8.66699 94.166 13 146.499 13s103.333 -4.83301 153 -14.5s92.5 -27.834 128.5 -54.501c74.667 -56 112 -154 112 -294v-810h-90c-42.667 0 -70.334 4 -83.001 12
c-22.667 15.333 -34 46 -34 92v8c-54.667 -50 -128.334 -84 -221.001 -102c-32 -6.66699 -69.167 -10 -111.5 -10s-84.833 7.33301 -127.5 22s-79.5 35.834 -110.5 63.501s-55.167 61.334 -72.5 101.001zM311.003 323.998c0 -117.333 65.667 -176.001 197 -176.001
c72.667 0 142 19 208 57c16.667 9.33301 28 17.333 34 24v319c-78 0 -144.333 -6.66699 -199 -20s-91.834 -24.666 -111.501 -33.999s-37.167 -19.166 -52.5 -29.499s-28.666 -22.5 -39.999 -36.5c-24 -28.667 -36 -63.334 -36 -104.001zM685.503 1344.5
c-39 -11 -81.167 -16.499 -126.5 -16.499s-87.666 6.66699 -126.999 20c-79.333 26.667 -134.333 74.667 -165 144c-14 33.333 -21 60.333 -21 81c0 69.333 9.66699 121.166 29 155.499s44 62.166 74 83.499c57.333 40.667 129.666 61 216.999 61
c153.333 0 253 -51 299 -153c14.667 -33.333 21.834 -72.666 21.501 -117.999s-9.33301 -85.333 -27 -120s-41.334 -63.5 -71.001 -86.5s-64 -40 -103 -51zM445.503 1498c29 -28 62.166 -42.334 99.499 -43.001s66.333 1.83301 87 7.5s38.334 14.5 53.001 26.5
c32 25.333 48 64 48 116c0 44.667 -16.333 80.334 -49 107.001c-31.333 24.667 -71.333 37 -120 37c-74 0 -123.333 -24.333 -148 -73c-9.33301 -18.667 -14 -46 -14 -82s14.5 -68 43.5 -96z" />
    <glyph glyph-name="ae" unicode="&#xe6;" horiz-adv-x="1780" 
d="M862 162c-100.667 -118.667 -238.333 -178.002 -413 -178.002c-104 0 -188.333 28.667 -253 86c-68 58.667 -102 137 -102 235c0 141.333 74 244.333 222 309c116 49.333 261 74 435 74v115c0 76.667 -18.333 128.334 -55 155.001c-30.667 22 -87 33 -169 33
c-76 0 -163.333 -19 -262 -57c-26 -10 -46.333 -19.667 -61 -29l-54 147c56 34.667 154.667 65.334 296 92.001c46 8.66699 89.667 13 131 13s78.833 -2.16699 112.5 -6.5s64.5 -11.833 92.5 -22.5c57.333 -22 99.333 -60 126 -114c92 94.667 212.667 142 362 142
c116.667 0 212 -35.333 286 -106c80.667 -78.667 123 -186.667 127 -324c0 -101.333 -3.66699 -169.333 -11 -204h-702c4 -83.333 15.5 -147.333 34.5 -192s43.833 -80.334 74.5 -107.001c55.333 -48 134.333 -72 237 -72c73.333 0 150.333 12.333 231 37
c24.667 8 44 16 58 24l42 -126c-55.333 -45.333 -148.333 -76.666 -279 -93.999c-38 -5.33301 -74.333 -8 -109 -8c-178 0 -310.333 59.333 -397 178zM1478 711.998c0 192 -75.667 287.999 -227 287.999c-160 0 -252 -110.667 -276 -332h502
c0.666992 14.667 1 29.334 1 44.001zM348.501 428.497c-22.333 -25.667 -33.502 -64.167 -33.502 -115.5c0 -110 63 -165 189 -165c88.667 0 169.334 26 242.001 78c22 16 40 33.667 54 53c-28 76 -43.333 166.333 -46 271l-1 -2c-136.667 0 -241.667 -18.333 -315 -55
c-37.333 -17.333 -67.166 -38.833 -89.499 -64.5z" />
    <glyph glyph-name="ccedilla" unicode="&#xe7;" horiz-adv-x="1002" 
d="M303 -294c15.333 -9.33301 42.667 -14.001 82 -14.001c88 0 132 73.667 132 221c0 30 -3.33301 56.333 -10 79c-129.333 20.667 -230.666 83.334 -303.999 188.001c-70.667 101.333 -106 227.333 -106 378c0 175.333 46 317 138 425c98 115.333 235.667 173 413 173
c125.333 0 218.666 -19.667 279.999 -59l-35 -174c-59.333 42 -144.666 63 -255.999 63c-87.333 0 -160.333 -30 -219 -90c-72.667 -75.333 -109 -185.333 -109 -330c0 -124.667 29.5 -225.167 88.5 -301.5s136.833 -114.5 233.5 -114.5c76 0 150.667 14.667 224 44
c19.333 7.33301 35.333 15 48 23l45 -125c-66 -62 -166.333 -97.333 -301 -106c20 -43.333 30 -98 30 -164c0 -148.667 -52.667 -239.667 -158 -273c-27.333 -8.66699 -51.5 -13 -72.5 -13s-39 0.666992 -54 2s-29.167 3.33301 -42.5 6c-30.667 6 -51.334 12.667 -62.001 20
z" />
    <glyph glyph-name="egrave" unicode="&#xe8;" horiz-adv-x="1123" 
d="M312 522c10 -197.333 82.666 -315.333 217.999 -354c40.667 -12 77.334 -18 110.001 -18s62.5 1.66699 89.5 5s53.833 7.66602 80.5 12.999c62 13.333 107 28 135 44l42 -126c-55.333 -45.333 -148 -76.666 -278 -93.999c-37.333 -5.33301 -73 -8 -107 -8
c-161.333 0 -286 52 -374 156c-87.333 102.667 -131 246.667 -131 432c0 171.333 43 309.333 129 414c93.333 113.333 222 170 386 170c116.667 0 212 -35.333 286 -106c81.333 -79.333 124 -187.333 128 -324c0 -101.333 -3.66699 -169.333 -11 -204h-703zM820.999 712
c0 192 -75.667 287.999 -227 287.999c-160.667 0 -253 -110.667 -277 -332h503c0.666992 14.667 1 29.334 1 44.001zM368.999 1783c62.667 -80 175.332 -213 337.999 -399l-111 -90c-39.333 17.333 -105.166 68.333 -197.499 153s-154.5 151.667 -186.5 201z" />
    <glyph glyph-name="eacute" unicode="&#xe9;" horiz-adv-x="1123" 
d="M467 1384c162 177.333 274.668 310.333 338.001 399l156 -135c-22.667 -40 -83.334 -106 -182.001 -198c-97.333 -90 -164.333 -142 -201 -156zM312.001 522c10 -197.333 82.666 -315.333 217.999 -354c40.667 -12 77.334 -18 110.001 -18s62.5 1.66699 89.5 5
s53.833 7.66602 80.5 12.999c62 13.333 107 28 135 44l42 -126c-55.333 -45.333 -148 -76.666 -278 -93.999c-37.333 -5.33301 -73 -8 -107 -8c-161.333 0 -286 52 -374 156c-87.333 102.667 -131 246.667 -131 432c0 171.333 43 309.333 129 414
c93.333 113.333 222 170 386 170c116.667 0 212 -35.333 286 -106c81.333 -79.333 124 -187.333 128 -324c0 -101.333 -3.66699 -169.333 -11 -204h-703zM821 712c0 192 -75.667 287.999 -227 287.999c-160.667 0 -253 -110.667 -277 -332h503
c0.666992 14.667 1 29.334 1 44.001z" />
    <glyph glyph-name="ecircumflex" unicode="&#xea;" horiz-adv-x="1123" 
d="M223 1349l276 333h198l268 -332l-135 -56l-232 222l-249 -223zM312 522c10 -197.333 82.666 -315.333 217.999 -354c40.667 -12 77.334 -18 110.001 -18s62.5 1.66699 89.5 5s53.833 7.66602 80.5 12.999c62 13.333 107 28 135 44l42 -126
c-55.333 -45.333 -148 -76.666 -278 -93.999c-37.333 -5.33301 -73 -8 -107 -8c-161.333 0 -286 52 -374 156c-87.333 102.667 -131 246.667 -131 432c0 171.333 43 309.333 129 414c93.333 113.333 222 170 386 170c116.667 0 212 -35.333 286 -106
c81.333 -79.333 124 -187.333 128 -324c0 -101.333 -3.66699 -169.333 -11 -204h-703zM820.999 712c0 192 -75.667 287.999 -227 287.999c-160.667 0 -253 -110.667 -277 -332h503c0.666992 14.667 1 29.334 1 44.001z" />
    <glyph glyph-name="edieresis" unicode="&#xeb;" horiz-adv-x="1123" 
d="M873 1374c-18.667 -7.33301 -37.501 -11.001 -56.501 -11.001s-36.5 3 -52.5 9s-30 14.667 -42 26c-25.333 24.667 -38 51.834 -38 81.501s4.5 53.5 13.5 71.5s20.5 33.667 34.5 47c30.667 29.333 61.834 44 93.501 44s55.667 -3.33301 72 -10s29.833 -16 40.5 -28
c20.667 -23.333 31 -50 31 -80s-4.33301 -54.167 -13 -72.5s-20 -34 -34 -47s-30.333 -23.167 -49 -30.5zM414.999 1374c-18.667 -7.33301 -37.5 -11.001 -56.5 -11.001s-36.5 3 -52.5 9s-30 14.667 -42 26c-25.333 24.667 -38 51.834 -38 81.501s4.5 53.5 13.5 71.5
s20.833 33.667 35.5 47c31.333 29.333 62.5 44 93.5 44s54.667 -3.33301 71 -10s29.833 -16 40.5 -28c20.667 -23.333 31 -50 31 -80s-4.33301 -54.167 -13 -72.5s-20 -34 -34 -47s-30.333 -23.167 -49 -30.5zM311.999 521.998c10 -197.333 82.666 -315.333 217.999 -354
c40.667 -12 77.334 -18 110.001 -18s62.5 1.66699 89.5 5s53.833 7.66602 80.5 12.999c62 13.333 107 28 135 44l42 -126c-55.333 -45.333 -148 -76.666 -278 -93.999c-37.333 -5.33301 -73 -8 -107 -8c-161.333 0 -286 52 -374 156c-87.333 102.667 -131 246.667 -131 432
c0 171.333 43 309.333 129 414c93.333 113.333 222 170 386 170c116.667 0 212 -35.333 286 -106c81.333 -79.333 124 -187.333 128 -324c0 -101.333 -3.66699 -169.333 -11 -204h-703zM820.998 711.998c0 192 -75.667 287.999 -227 287.999
c-160.667 0 -253 -110.667 -277 -332h503c0.666992 14.667 1 29.334 1 44.001z" />
    <glyph glyph-name="igrave" unicode="&#xec;" horiz-adv-x="606" 
d="M193 1138h220v-1138h-220v1138zM76 1783c62.667 -80 175.332 -213 337.999 -399l-111 -90c-39.333 17.333 -105.166 68.333 -197.499 153s-154.5 151.667 -186.5 201z" />
    <glyph glyph-name="iacute" unicode="&#xed;" horiz-adv-x="606" 
d="M173 1384c162 177.333 274.668 310.333 338.001 399l156 -135c-22.667 -40 -83.334 -106 -182.001 -198c-97.333 -90 -164.333 -142 -201 -156zM193.001 1138h220v-1138h-220v1138z" />
    <glyph glyph-name="icircumflex" unicode="&#xee;" horiz-adv-x="606" 
d="M-70 1349l276 333h198l268 -332l-135 -56l-232 222l-249 -223zM193 1138h220v-1138h-220v1138z" />
    <glyph glyph-name="idieresis" unicode="&#xef;" horiz-adv-x="606" 
d="M567 1374c-18.667 -7.33301 -37.501 -11.001 -56.501 -11.001s-36.5 3 -52.5 9s-30 14.667 -42 26c-25.333 24.667 -38 51.834 -38 81.501s4.5 53.5 13.5 71.5s20.5 33.667 34.5 47c30.667 29.333 61.834 44 93.501 44s55.667 -3.33301 72 -10s29.833 -16 40.5 -28
c20.667 -23.333 31 -50 31 -80s-4.33301 -54.167 -13 -72.5s-20 -34 -34 -47s-30.333 -23.167 -49 -30.5zM132.999 1374c-18.667 -7.33301 -37.5 -11.001 -56.5 -11.001s-36.5 3 -52.5 9s-30 14.667 -42 26c-25.333 24.667 -38 51.834 -38 81.501s4.5 53.5 13.5 71.5
s20.833 33.667 35.5 47c31.333 29.333 62.5 44 93.5 44s54.667 -3.33301 71 -10s29.833 -16 40.5 -28c20.667 -23.333 31 -50 31 -80s-4.33301 -54.167 -13 -72.5s-20 -34 -34 -47s-30.333 -23.167 -49 -30.5zM192.999 1138h220v-1138h-220v1138z" />
    <glyph glyph-name="eth" unicode="&#xf0;" horiz-adv-x="1190" 
d="M793 1721c-70 -80 -113.999 -129.003 -131.999 -147.003c224 -172 365.333 -398 424 -678c19.333 -91.333 29 -188.666 29 -291.999s-12.167 -194.5 -36.5 -273.5s-58.833 -144.833 -103.5 -197.5c-89.333 -106.667 -215.333 -160 -378 -160
c-150.667 0 -271.334 51.667 -362.001 155c-92.667 104.667 -139 246.334 -139 425.001c0 185.333 47 332.333 141 441c92 106.667 215.333 160 370 160c84.667 -1.33301 156 -26 214 -74c-52 142.667 -141 267.667 -267 375l-134 -149l-115 90l133 143
c-71.333 46 -143 81.667 -215 107l52 125c94.667 -30 184 -69.333 268 -118c23.333 24.667 68 77.334 134 158.001zM895.001 553.997l1.00098 146.003c0 46 -2 95.667 -6 149c-13.333 60 -66 102.333 -158 127c-33.333 9.33301 -74 14 -122 14s-90.833 -10.5 -128.5 -31.5
s-68.834 -50.5 -93.501 -88.5c-50 -75.333 -75 -178.333 -75 -309c0 -202.667 57 -337.334 171 -404.001c37.333 -22 79.333 -33 126 -33s87.167 10.167 121.5 30.5s63.833 49.166 88.5 86.499c50 77.333 75 181.666 75 312.999z" />
    <glyph glyph-name="ntilde" unicode="&#xf1;" horiz-adv-x="1279" 
d="M176 1138l196.001 0.000976562l1 -120c83.333 57.333 178 98.666 284 123.999c44 10 90 15 138 15s92.667 -7.16699 134 -21.5s75.666 -39.166 102.999 -74.499c51.333 -67.333 77 -184.333 77 -351v-710h-220v711c0 100 -13.333 169 -40 207
c-26.667 38.667 -74.667 58 -144 58c-75.333 0 -154.333 -21 -237 -63c-25.333 -12.667 -49.333 -27.334 -72 -44.001v-869h-220v1138zM559.001 1482c-61.333 0 -122.331 -32.334 -182.998 -97.001l-85 68c39.333 86 100.333 145.667 183 179c28 10.667 56.167 16 84.5 16
s52.666 -3.33301 72.999 -10s38.5 -15.167 54.5 -25.5s30.667 -21.333 44 -33l40 -33.5c29.333 -23.333 58 -35 86 -35c64.667 0 125.667 32.667 183 98l86 -72c-42 -89.333 -103 -148.666 -183 -177.999c-27.333 -10 -55.833 -15 -85.5 -15s-54.834 3.33301 -75.501 10
s-39.167 15.167 -55.5 25.5s-30.833 21.5 -43.5 33.5s-25.334 23 -38.001 33c-29.333 24 -57.666 36 -84.999 36z" />
    <glyph glyph-name="ograve" unicode="&#xf2;" horiz-adv-x="1213" 
d="M582 -16c-82 0 -154.669 16.667 -218.002 50c-178.667 92 -268 273 -268 543c0 187.333 50.667 332.333 152 435c94.667 96 217.334 144 368.001 144c172 0 301.667 -61 389 -183c74.667 -104.667 112 -244 112 -418c0 -180.667 -51 -323 -153 -427
c-93.333 -96 -220.666 -144 -381.999 -144zM820.498 247.5c49 71.667 73.5 174.5 73.5 308.5c0 202.667 -52 338 -156 406c-37.333 24 -82.333 36 -135 36c-92 0 -162.333 -35 -211 -105s-73 -170.667 -73 -302c0 -129.333 24.333 -236.833 73 -322.5s120 -128.5 214 -128.5
s165.5 35.833 214.5 107.5zM387.998 1783c62.667 -80 175.332 -213 337.999 -399l-111 -90c-39.333 17.333 -105.166 68.333 -197.499 153s-154.5 151.667 -186.5 201z" />
    <glyph glyph-name="oacute" unicode="&#xf3;" horiz-adv-x="1213" 
d="M486 1384c162 177.333 274.668 310.333 338.001 399l156 -135c-22.667 -40 -83.334 -106 -182.001 -198c-97.333 -90 -164.333 -142 -201 -156zM582.001 -16c-82 0 -154.669 16.667 -218.002 50c-178.667 92 -268 273 -268 543c0 187.333 50.667 332.333 152 435
c94.667 96 217.334 144 368.001 144c172 0 301.667 -61 389 -183c74.667 -104.667 112 -244 112 -418c0 -180.667 -51 -323 -153 -427c-93.333 -96 -220.666 -144 -381.999 -144zM820.499 247.5c49 71.667 73.5 174.5 73.5 308.5c0 202.667 -52 338 -156 406
c-37.333 24 -82.333 36 -135 36c-92 0 -162.333 -35 -211 -105s-73 -170.667 -73 -302c0 -129.333 24.333 -236.833 73 -322.5s120 -128.5 214 -128.5s165.5 35.833 214.5 107.5z" />
    <glyph glyph-name="ocircumflex" unicode="&#xf4;" horiz-adv-x="1213" 
d="M242 1349l276 333h198l268 -332l-135 -56l-232 222l-249 -223zM582 -16c-82 0 -154.669 16.667 -218.002 50c-178.667 92 -268 273 -268 543c0 187.333 50.667 332.333 152 435c94.667 96 217.334 144 368.001 144c172 0 301.667 -61 389 -183
c74.667 -104.667 112 -244 112 -418c0 -180.667 -51 -323 -153 -427c-93.333 -96 -220.666 -144 -381.999 -144zM820.498 247.5c49 71.667 73.5 174.5 73.5 308.5c0 202.667 -52 338 -156 406c-37.333 24 -82.333 36 -135 36c-92 0 -162.333 -35 -211 -105
s-73 -170.667 -73 -302c0 -129.333 24.333 -236.833 73 -322.5s120 -128.5 214 -128.5s165.5 35.833 214.5 107.5z" />
    <glyph glyph-name="otilde" unicode="&#xf5;" horiz-adv-x="1213" 
d="M582 -16c-82 0 -154.669 16.667 -218.002 50c-178.667 92 -268 273 -268 543c0 187.333 50.667 332.333 152 435c94.667 96 217.334 144 368.001 144c172 0 301.667 -61 389 -183c74.667 -104.667 112 -244 112 -418c0 -180.667 -51 -323 -153 -427
c-93.333 -96 -220.666 -144 -381.999 -144zM820.498 247.5c49 71.667 73.5 174.5 73.5 308.5c0 202.667 -52 338 -156 406c-37.333 24 -82.333 36 -135 36c-92 0 -162.333 -35 -211 -105s-73 -170.667 -73 -302c0 -129.333 24.333 -236.833 73 -322.5s120 -128.5 214 -128.5
s165.5 35.833 214.5 107.5zM464.998 1482c-61.333 0 -122.331 -32.334 -182.998 -97.001l-85 68c39.333 86 100.333 145.667 183 179c28 10.667 56.167 16 84.5 16s52.666 -3.33301 72.999 -10s38.5 -15.167 54.5 -25.5s30.667 -21.333 44 -33l40 -33.5
c29.333 -23.333 58 -35 86 -35c64.667 0 125.667 32.667 183 98l86 -72c-42 -89.333 -103 -148.666 -183 -177.999c-27.333 -10 -55.833 -15 -85.5 -15s-54.834 3.33301 -75.501 10s-39.167 15.167 -55.5 25.5s-30.833 21.5 -43.5 33.5s-25.334 23 -38.001 33
c-29.333 24 -57.666 36 -84.999 36z" />
    <glyph glyph-name="odieresis" unicode="&#xf6;" horiz-adv-x="1213" 
d="M892 1374c-18.667 -7.33301 -37.501 -11.001 -56.501 -11.001s-36.5 3 -52.5 9s-30 14.667 -42 26c-25.333 24.667 -38 51.834 -38 81.501s4.5 53.5 13.5 71.5s20.5 33.667 34.5 47c30.667 29.333 61.834 44 93.501 44s55.667 -3.33301 72 -10s29.833 -16 40.5 -28
c20.667 -23.333 31 -50 31 -80s-4.33301 -54.167 -13 -72.5s-20 -34 -34 -47s-30.333 -23.167 -49 -30.5zM433.999 1374c-18.667 -7.33301 -37.5 -11.001 -56.5 -11.001s-36.5 3 -52.5 9s-30 14.667 -42 26c-25.333 24.667 -38 51.834 -38 81.501s4.5 53.5 13.5 71.5
s20.833 33.667 35.5 47c31.333 29.333 62.5 44 93.5 44s54.667 -3.33301 71 -10s29.833 -16 40.5 -28c20.667 -23.333 31 -50 31 -80s-4.33301 -54.167 -13 -72.5s-20 -34 -34 -47s-30.333 -23.167 -49 -30.5zM581.999 -16.002c-82 0 -154.669 16.667 -218.002 50
c-178.667 92 -268 273 -268 543c0 187.333 50.667 332.333 152 435c94.667 96 217.334 144 368.001 144c172 0 301.667 -61 389 -183c74.667 -104.667 112 -244 112 -418c0 -180.667 -51 -323 -153 -427c-93.333 -96 -220.666 -144 -381.999 -144zM820.497 247.498
c49 71.667 73.5 174.5 73.5 308.5c0 202.667 -52 338 -156 406c-37.333 24 -82.333 36 -135 36c-92 0 -162.333 -35 -211 -105s-73 -170.667 -73 -302c0 -129.333 24.333 -236.833 73 -322.5s120 -128.5 214 -128.5s165.5 35.833 214.5 107.5z" />
    <glyph glyph-name="divide" unicode="&#xf7;" horiz-adv-x="1393" 
d="M753.5 1041c-19.667 -8 -39.667 -12 -60 -12s-39 3.33301 -56 10s-31.833 16 -44.5 28c-28 26.667 -42 55.834 -42 87.501s4.66699 57.167 14 76.5s21.666 36.333 36.999 51c32.667 31.333 65.667 47 99 47s58.833 -3.66699 76.5 -11s32.5 -17.333 44.5 -30
c23.333 -26 35 -54.833 35 -86.5s-4.66699 -57.334 -14 -77.001s-21.666 -36.5 -36.999 -50.5s-32.833 -25 -52.5 -33zM229 858h935v-170h-935v170zM562 306c-8 16.667 -12 35.999 -12 57.999s4.66699 42.667 14 62s21.666 36.333 36.999 51c32.667 31.333 65.667 47 99 47
s58.833 -3.66699 76.5 -11s32.167 -17 43.5 -29c24 -25.333 36 -54.166 36 -86.499s-4.66699 -58.333 -14 -78s-21.666 -36.5 -36.999 -50.5c-32 -29.333 -70 -44 -114 -44c-62 0 -105 27 -129 81z" />
    <glyph glyph-name="oslash" unicode="&#xf8;" horiz-adv-x="1213" 
d="M800.5 20.5c-63 -24.333 -122.334 -36.501 -178.001 -36.501s-103.167 3.66699 -142.5 11l-66 -195l-125 36l68 201c-174 88 -261 269.667 -261 545c0 184 50.667 327.333 152 430c94.667 96 217.334 144 368.001 144c38.667 0 77.667 -3.66699 117 -11l67 197l125 -36
l-69 -203c174 -89.333 261 -271 261 -545c0 -182.667 -51 -326 -153 -430c-46 -47.333 -100.5 -83.166 -163.5 -107.499zM679.999 987.999c-26 6.66699 -51.667 10.001 -77 10.001c-92 0 -162.333 -35 -211 -105s-73 -170.667 -73 -302c0 -160.667 34 -282.334 102 -365.001
zM532.999 151c22 -7.33301 51.668 -11.001 89.001 -11.001s73.666 9 108.999 27s65 45 89 81c49.333 71.333 74 174 74 308c0 160.667 -34 280.334 -102 359.001z" />
    <glyph glyph-name="ugrave" unicode="&#xf9;" horiz-adv-x="1249" 
d="M170 1140h220v-665c0 -133.333 16 -220.333 48 -261c16.667 -20.667 38.334 -34 65.001 -40s54.667 -9 84 -9s56.333 2.66699 81 8s48.667 12 72 20c46 16 83.667 33.333 113 52v895h220v-1156h-85c-39.333 0 -65 4 -77 12c-22 14 -33 39.333 -33 76v28
c-80.667 -50.667 -171.334 -86 -272.001 -106c-34 -6.66699 -76.833 -10 -128.5 -10s-99.667 11.833 -144 35.5s-78.833 57.167 -103.5 100.5c-40 70.667 -60 188.667 -60 354v666zM406 1783c62.667 -80 175.332 -213 337.999 -399l-111 -90
c-39.333 17.333 -105.166 68.333 -197.499 153s-154.5 151.667 -186.5 201z" />
    <glyph glyph-name="uacute" unicode="&#xfa;" horiz-adv-x="1249" 
d="M504 1384c162 177.333 274.668 310.333 338.001 399l156 -135c-22.667 -40 -83.334 -106 -182.001 -198c-97.333 -90 -164.333 -142 -201 -156zM170.001 1140h220v-665c0 -133.333 16 -220.333 48 -261c16.667 -20.667 38.334 -34 65.001 -40s54.667 -9 84 -9
s56.333 2.66699 81 8s48.667 12 72 20c46 16 83.667 33.333 113 52v895h220v-1156h-85c-39.333 0 -65 4 -77 12c-22 14 -33 39.333 -33 76v28c-80.667 -50.667 -171.334 -86 -272.001 -106c-34 -6.66699 -76.833 -10 -128.5 -10s-99.667 11.833 -144 35.5
s-78.833 57.167 -103.5 100.5c-40 70.667 -60 188.667 -60 354v666z" />
    <glyph glyph-name="ucircumflex" unicode="&#xfb;" horiz-adv-x="1249" 
d="M260 1349l276 333h198l268 -332l-135 -56l-232 222l-249 -223zM170 1140h220v-665c0 -133.333 16 -220.333 48 -261c16.667 -20.667 38.334 -34 65.001 -40s54.667 -9 84 -9s56.333 2.66699 81 8s48.667 12 72 20c46 16 83.667 33.333 113 52v895h220v-1156h-85
c-39.333 0 -65 4 -77 12c-22 14 -33 39.333 -33 76v28c-80.667 -50.667 -171.334 -86 -272.001 -106c-34 -6.66699 -76.833 -10 -128.5 -10s-99.667 11.833 -144 35.5s-78.833 57.167 -103.5 100.5c-40 70.667 -60 188.667 -60 354v666z" />
    <glyph glyph-name="udieresis" unicode="&#xfc;" horiz-adv-x="1249" 
d="M910 1374c-18.667 -7.33301 -37.501 -11.001 -56.501 -11.001s-36.5 3 -52.5 9s-30 14.667 -42 26c-25.333 24.667 -38 51.834 -38 81.501s4.5 53.5 13.5 71.5s20.5 33.667 34.5 47c30.667 29.333 61.834 44 93.501 44s55.667 -3.33301 72 -10s29.833 -16 40.5 -28
c20.667 -23.333 31 -50 31 -80s-4.33301 -54.167 -13 -72.5s-20 -34 -34 -47s-30.333 -23.167 -49 -30.5zM451.999 1374c-18.667 -7.33301 -37.5 -11.001 -56.5 -11.001s-36.5 3 -52.5 9s-30 14.667 -42 26c-25.333 24.667 -38 51.834 -38 81.501s4.5 53.5 13.5 71.5
s20.833 33.667 35.5 47c31.333 29.333 62.5 44 93.5 44s54.667 -3.33301 71 -10s29.833 -16 40.5 -28c20.667 -23.333 31 -50 31 -80s-4.33301 -54.167 -13 -72.5s-20 -34 -34 -47s-30.333 -23.167 -49 -30.5zM169.999 1140h220v-665c0 -133.333 16 -220.333 48 -261
c16.667 -20.667 38.334 -34 65.001 -40s54.667 -9 84 -9s56.333 2.66699 81 8s48.667 12 72 20c46 16 83.667 33.333 113 52v895h220v-1156h-85c-39.333 0 -65 4 -77 12c-22 14 -33 39.333 -33 76v28c-80.667 -50.667 -171.334 -86 -272.001 -106
c-34 -6.66699 -76.833 -10 -128.5 -10s-99.667 11.833 -144 35.5s-78.833 57.167 -103.5 100.5c-40 70.667 -60 188.667 -60 354v666z" />
    <glyph glyph-name="yacute" unicode="&#xfd;" horiz-adv-x="1116" 
d="M131 -314c19.333 -7.33301 45.332 -11 77.999 -11s62.667 4.16699 90 12.5s55 24.5 83 48.5c64.667 55.333 111.334 143.333 140.001 264h-65l-413 1140h235l252 -768l58 -186l267 954h237l-384 -1176c-86 -260.667 -205.333 -412.667 -358 -456
c-38 -10 -81 -15 -129 -15s-78.333 4.66699 -91 14v179zM459.999 1384c162 177.333 274.668 310.333 338.001 399l156 -135c-22.667 -40 -83.334 -106 -182.001 -198c-97.333 -90 -164.333 -142 -201 -156z" />
    <glyph glyph-name="thorn" unicode="&#xfe;" horiz-adv-x="1238" 
d="M802 28.5c-70.667 -31 -139.832 -46.5 -207.499 -46.5s-141.5 6.66699 -221.5 20l13 -171v-338h-220v2168h220v-472l-8 -159c84 84 188.333 126 313 126c128 0 233 -44.667 315 -134c90 -97.333 135 -234 135 -410c0 -186 -52.333 -337.333 -157 -454
c-50.667 -55.333 -111.334 -98.5 -182.001 -129.5zM630.002 983c-82.667 0 -164 -31 -244 -93v-706c38 -26.667 106.333 -40 205 -40c95.333 0 172.333 37.333 231 112c63.333 80.667 95 192.667 95 336c0 260.667 -95.667 391 -287 391z" />
    <glyph glyph-name="ydieresis" unicode="&#xff;" horiz-adv-x="1116" 
d="M131 -314c19.333 -7.33301 45.332 -11 77.999 -11s62.667 4.16699 90 12.5s55 24.5 83 48.5c64.667 55.333 111.334 143.333 140.001 264h-65l-413 1140h235l252 -768l58 -186l267 954h237l-384 -1176c-86 -260.667 -205.333 -412.667 -358 -456
c-38 -10 -81 -15 -129 -15s-78.333 4.66699 -91 14v179zM865.999 1374c-18.667 -7.33301 -37.501 -11.001 -56.501 -11.001s-36.5 3 -52.5 9s-30 14.667 -42 26c-25.333 24.667 -38 51.834 -38 81.501s4.5 53.5 13.5 71.5s20.5 33.667 34.5 47
c30.667 29.333 61.834 44 93.501 44s55.667 -3.33301 72 -10s29.833 -16 40.5 -28c20.667 -23.333 31 -50 31 -80s-4.33301 -54.167 -13 -72.5s-20 -34 -34 -47s-30.333 -23.167 -49 -30.5zM407.998 1374c-18.667 -7.33301 -37.5 -11.001 -56.5 -11.001s-36.5 3 -52.5 9
s-30 14.667 -42 26c-25.333 24.667 -38 51.834 -38 81.501s4.5 53.5 13.5 71.5s20.833 33.667 35.5 47c31.333 29.333 62.5 44 93.5 44s54.667 -3.33301 71 -10s29.833 -16 40.5 -28c20.667 -23.333 31 -50 31 -80s-4.33301 -54.167 -13 -72.5s-20 -34 -34 -47
s-30.333 -23.167 -49 -30.5z" />
    <glyph glyph-name="Amacron" unicode="&#x100;" horiz-adv-x="1407" 
d="M603 1538h215l568 -1538h-241l-130 385h-622l-136 -385h-236zM959 551l-204 609l-43 142l-44 -142l-216 -609h507zM431 1891h547v-162h-547v162z" />
    <glyph glyph-name="amacron" unicode="&#x101;" horiz-adv-x="1131" 
d="M120 170.5c-17.333 39.667 -25.9971 90.498 -25.9971 152.498s20 119 60 171c84 109.333 248 172.666 492 189.999c37.333 2.66699 72 4 104 4v115c0 76.667 -20 128.334 -60 155.001c-33.333 22 -94.333 33 -183 33c-76.667 0 -161 -18.333 -253 -55
c-24 -9.33301 -42.333 -18.666 -55 -27.999l-54 144c57.333 36 152.333 66.667 285 92c45.333 8.66699 94.166 13 146.499 13s103.333 -4.83301 153 -14.5s92.5 -27.834 128.5 -54.501c74.667 -56 112 -154 112 -294v-810h-90c-42.667 0 -70.334 4 -83.001 12
c-22.667 15.333 -34 46 -34 92v8c-54.667 -50 -128.334 -84 -221.001 -102c-32 -6.66699 -69.167 -10 -111.5 -10s-84.833 7.33301 -127.5 22s-79.5 35.834 -110.5 63.501s-55.167 61.334 -72.5 101.001zM311.003 323.998c0 -117.333 65.667 -176.001 197 -176.001
c72.667 0 142 19 208 57c16.667 9.33301 28 17.333 34 24v319c-78 0 -144.333 -6.66699 -199 -20s-91.834 -24.666 -111.501 -33.999s-37.167 -19.166 -52.5 -29.499s-28.666 -22.5 -39.999 -36.5c-24 -28.667 -36 -63.334 -36 -104.001zM294.003 1588h547v-163h-547v163z
" />
    <glyph glyph-name="Abreve" unicode="&#x102;" horiz-adv-x="1407" 
d="M603 1538h215l568 -1538h-241l-130 385h-622l-136 -385h-236zM959 551l-204 609l-43 142l-44 -142l-216 -609h507zM850.5 1659.5c-44.333 -18.333 -94.668 -27.501 -151.001 -27.501s-106.5 9.33301 -150.5 28c-89.333 36.667 -147.666 97 -174.999 181
c-10 31.333 -15 58 -15 80s0.333008 38.333 1 49h153c0 -79.333 36.333 -130.666 109 -153.999c21.333 -7.33301 47.833 -11 79.5 -11s58.5 3.5 80.5 10.5s40.167 16 54.5 27s25.333 23 33 36s13.5 25.5 17.5 37.5c5.33301 19.333 8 37.333 8 54h149
c0.666992 -10 1 -26 1 -48s-6.33301 -51.167 -19 -87.5s-34 -70 -64 -101s-67.167 -55.667 -111.5 -74z" />
    <glyph glyph-name="abreve" unicode="&#x103;" horiz-adv-x="1131" 
d="M120 170.5c-17.333 39.667 -25.9971 90.498 -25.9971 152.498s20 119 60 171c84 109.333 248 172.666 492 189.999c37.333 2.66699 72 4 104 4v115c0 76.667 -20 128.334 -60 155.001c-33.333 22 -94.333 33 -183 33c-76.667 0 -161 -18.333 -253 -55
c-24 -9.33301 -42.333 -18.666 -55 -27.999l-54 144c57.333 36 152.333 66.667 285 92c45.333 8.66699 94.166 13 146.499 13s103.333 -4.83301 153 -14.5s92.5 -27.834 128.5 -54.501c74.667 -56 112 -154 112 -294v-810h-90c-42.667 0 -70.334 4 -83.001 12
c-22.667 15.333 -34 46 -34 92v8c-54.667 -50 -128.334 -84 -221.001 -102c-32 -6.66699 -69.167 -10 -111.5 -10s-84.833 7.33301 -127.5 22s-79.5 35.834 -110.5 63.501s-55.167 61.334 -72.5 101.001zM311.003 323.998c0 -117.333 65.667 -176.001 197 -176.001
c72.667 0 142 19 208 57c16.667 9.33301 28 17.333 34 24v319c-78 0 -144.333 -6.66699 -199 -20s-91.834 -24.666 -111.501 -33.999s-37.167 -19.166 -52.5 -29.499s-28.666 -22.5 -39.999 -36.5c-24 -28.667 -36 -63.334 -36 -104.001zM713.503 1340
c-44.333 -21.333 -94.334 -32.001 -150.001 -32.001s-105.5 10.667 -149.5 32c-88 42 -146.667 110.667 -176 206c-10.667 35.333 -16 64.666 -16 87.999s0.333008 40.333 1 51h154c0 -97.333 36.333 -161 109 -191c22 -9.33301 48.833 -14 80.5 -14s58.5 4.5 80.5 13.5
s40 20.333 54 34s24.833 28.667 32.5 45s13.5 32.166 17.5 47.499c5.33301 20.667 8 42.334 8 65.001h150c0.666992 -10 1 -26.833 1 -50.5s-6.5 -55.667 -19.5 -96s-34.667 -78.166 -65 -113.499s-67.666 -63.666 -111.999 -84.999z" />
    <glyph glyph-name="Aogonek" unicode="&#x104;" horiz-adv-x="1407" 
d="M1394 -453c-51.333 -39.333 -130.332 -58.999 -236.999 -58.999c-114 0 -189.667 40 -227 120c-12.667 27.333 -19 57.5 -19 90.5s8 64.167 24 93.5s37 56.666 63 81.999c47.333 47.333 107 89.333 179 126h-32l-130 385h-622l-136 -385h-236l582 1538h215l568 -1538h-39
c-100 -56.667 -167.667 -120 -203 -190c-11.333 -22 -17 -43.667 -17 -65c0 -72.667 42.667 -109 128 -109c43.333 0 89.666 9.66699 138.999 29v-118zM959.001 551.001l-204 609l-43 142l-44 -142l-216 -609h507z" />
    <glyph glyph-name="aogonek" unicode="&#x105;" horiz-adv-x="1131" 
d="M793 -1c-20 13.333 -29.9971 43 -29.9971 89v8c-54.667 -50 -128.334 -84 -221.001 -102c-32 -6.66699 -69.167 -10 -111.5 -10s-84.833 7.33301 -127.5 22s-79.667 36 -111 64c-65.333 58 -98 136.333 -98 235c0 74 20 137 60 189c84 109.333 248 172.666 492 189.999
c37.333 2.66699 72 4 104 4v115c0 76.667 -20 128.334 -60 155.001c-33.333 22 -94.333 33 -183 33c-76.667 0 -161 -18.333 -253 -55c-24 -9.33301 -42.333 -18.666 -55 -27.999l-54 144c57.333 36 152.333 66.667 285 92c45.333 8.66699 94.166 13 146.499 13
s103.333 -4.83301 153 -14.5s92.5 -27.834 128.5 -54.501c74.667 -56 112 -154 112 -294v-810h-15c-120 -76 -180 -155.333 -180 -238c0 -73.333 42.667 -110 128 -110c43.333 0 89.666 9.66699 138.999 29v-118c-51.333 -39.333 -130.333 -59 -237 -59
c-113.333 0 -189 40 -227 120c-12.667 26 -19.167 54.833 -19.5 86.5s6.16699 62.167 19.5 91.5s31 57.333 53 84c44 52.667 98 95.667 162 129zM311.003 324c0 -117.333 65.667 -176.001 197 -176.001c72.667 0 142 19 208 57c16.667 9.33301 28 17.333 34 24v319
c-78 0 -144.333 -6.66699 -199 -20s-91.834 -24.666 -111.501 -33.999s-37.167 -19.166 -52.5 -29.499s-28.666 -22.5 -39.999 -36.5c-24 -28.667 -36 -63.334 -36 -104.001z" />
    <glyph glyph-name="Cacute" unicode="&#x106;" horiz-adv-x="1313" 
d="M1166 1283c-90.667 49.333 -208.004 73.9951 -352.004 73.9951c-153.333 0 -274.666 -53 -363.999 -159s-134 -249.333 -134 -430s44 -326.667 132 -438c90.667 -113.333 212.334 -170 365.001 -170c118 0 223 19.333 315 58c26 11.333 45.667 23 59 35l1 -189
c-98 -38.667 -174.667 -61.667 -230 -69s-106.666 -11 -153.999 -11c-214 0 -386 70.667 -516 212c-128.667 140.667 -193 326.334 -193 557.001c0 242.667 70.667 436.334 212 581.001c64.667 66.667 139.5 117.334 224.5 152.001s165.333 52 241 52
s135.334 -2.33301 179.001 -7s81.5 -10.167 113.5 -16.5s58.833 -12.666 80.5 -18.999s39.167 -11.166 52.5 -14.499zM666.996 1665c1.33301 0.666992 10.5 8.83301 27.5 24.5l63.5 57l81.5 73l81.5 74.5c58 53.333 87.667 82 89 86l146 -133
c-79.333 -82 -179 -157.667 -299 -227c-36 -21.333 -68.333 -37 -97 -47z" />
    <glyph glyph-name="cacute" unicode="&#x107;" horiz-adv-x="1002" 
d="M482 1384c162 177.333 274.668 310.333 338.001 399l156 -135c-22.667 -40 -83.334 -106 -182.001 -198c-97.333 -90 -164.333 -142 -201 -156zM893.001 923c-59.333 42 -144.666 63 -255.999 63c-87.333 0 -160.333 -30 -219 -90
c-72.667 -75.333 -109 -185.333 -109 -330c0 -124.667 29.5 -225.167 88.5 -301.5s136.833 -114.5 233.5 -114.5c76 0 150.667 14.667 224 44c19.333 7.33301 35.333 15 48 23l45 -125c-78 -72 -194.667 -108 -350 -108c-156 0 -279.667 55 -371 165
c-86.667 104 -130 240.333 -130 409c0 175.333 46 317 138 425c98 115.333 235.667 173 413 173c125.333 0 218.666 -19.667 279.999 -59z" />
    <glyph glyph-name="Ccircumflex" unicode="&#x108;" horiz-adv-x="1313" 
d="M1166 1283c-90.667 49.333 -208.004 73.9951 -352.004 73.9951c-153.333 0 -274.666 -53 -363.999 -159s-134 -249.333 -134 -430s44 -326.667 132 -438c90.667 -113.333 212.334 -170 365.001 -170c118 0 223 19.333 315 58c26 11.333 45.667 23 59 35l1 -189
c-98 -38.667 -174.667 -61.667 -230 -69s-106.666 -11 -153.999 -11c-214 0 -386 70.667 -516 212c-128.667 140.667 -193 326.334 -193 557.001c0 242.667 70.667 436.334 212 581.001c64.667 66.667 139.5 117.334 224.5 152.001s165.333 52 241 52
s135.334 -2.33301 179.001 -7s81.5 -10.167 113.5 -16.5s58.833 -12.666 80.5 -18.999s39.167 -11.166 52.5 -14.499zM436.996 1689l259 301h197l262 -298l-144 -60l-216 202l-221 -202z" />
    <glyph glyph-name="ccircumflex" unicode="&#x109;" horiz-adv-x="1002" 
d="M238 1349l276 333h198l268 -332l-135 -56l-232 222l-249 -223zM893 923c-59.333 42 -144.666 63 -255.999 63c-87.333 0 -160.333 -30 -219 -90c-72.667 -75.333 -109 -185.333 -109 -330c0 -124.667 29.5 -225.167 88.5 -301.5s136.833 -114.5 233.5 -114.5
c76 0 150.667 14.667 224 44c19.333 7.33301 35.333 15 48 23l45 -125c-78 -72 -194.667 -108 -350 -108c-156 0 -279.667 55 -371 165c-86.667 104 -130 240.333 -130 409c0 175.333 46 317 138 425c98 115.333 235.667 173 413 173c125.333 0 218.666 -19.667 279.999 -59
z" />
    <glyph glyph-name="Cdotaccent" unicode="&#x10a;" horiz-adv-x="1313" 
d="M846 1680c-19.333 -7.33301 -38.8311 -10.999 -58.498 -10.999s-38 3 -55 9s-31.833 14.667 -44.5 26c-27.333 25.333 -41 53.5 -41 84.5s4.66699 55.833 14 74.5s21.333 35 36 49c32.667 29.333 65.167 44 97.5 44s57.166 -3.33301 74.499 -10s31.666 -16 42.999 -28
c22.667 -24 34 -51.667 34 -83s-4.5 -56.333 -13.5 -75s-20.833 -34.834 -35.5 -48.501s-31.667 -24.167 -51 -31.5zM1166 1283c-90.667 49.333 -208.004 73.9951 -352.004 73.9951c-153.333 0 -274.666 -53 -363.999 -159s-134 -249.333 -134 -430s44 -326.667 132 -438
c90.667 -113.333 212.334 -170 365.001 -170c118 0 223 19.333 315 58c26 11.333 45.667 23 59 35l1 -189c-98 -38.667 -174.667 -61.667 -230 -69s-106.666 -11 -153.999 -11c-214 0 -386 70.667 -516 212c-128.667 140.667 -193 326.334 -193 557.001
c0 242.667 70.667 436.334 212 581.001c64.667 66.667 139.5 117.334 224.5 152.001s165.333 52 241 52s135.334 -2.33301 179.001 -7s81.5 -10.167 113.5 -16.5s58.833 -12.666 80.5 -18.999s39.167 -11.166 52.5 -14.499z" />
    <glyph glyph-name="cdotaccent" unicode="&#x10b;" horiz-adv-x="1002" 
d="M893 923c-59.333 42 -144.666 63 -255.999 63c-87.333 0 -160.333 -30 -219 -90c-72.667 -75.333 -109 -185.333 -109 -330c0 -124.667 29.5 -225.167 88.5 -301.5s136.833 -114.5 233.5 -114.5c76 0 150.667 14.667 224 44c19.333 7.33301 35.333 15 48 23l45 -125
c-78 -72 -194.667 -108 -350 -108c-156 0 -279.667 55 -371 165c-86.667 104 -130 240.333 -130 409c0 175.333 46 317 138 425c98 115.333 235.667 173 413 173c125.333 0 218.666 -19.667 279.999 -59zM661.5 1358.5c-19.667 -7.66699 -39.334 -11.499 -59.001 -11.499
s-38 3.16699 -55 9.5s-32.167 15.5 -45.5 27.5c-28 25.333 -42 53.5 -42 84.5s4.66699 56 14 75s21.666 35.5 36.999 49.5c32.667 30 65.334 45 98.001 45s57.834 -3.5 75.501 -10.5s32.167 -16.833 43.5 -29.5c23.333 -24 35 -51.667 35 -83s-4.5 -56.5 -13.5 -75.5
s-21 -35.333 -36 -49s-32.333 -24.334 -52 -32.001z" />
    <glyph glyph-name="Ccaron" unicode="&#x10c;" horiz-adv-x="1313" 
d="M1166 1283c-90.667 49.333 -208.004 73.9951 -352.004 73.9951c-153.333 0 -274.666 -53 -363.999 -159s-134 -249.333 -134 -430s44 -326.667 132 -438c90.667 -113.333 212.334 -170 365.001 -170c118 0 223 19.333 315 58c26 11.333 45.667 23 59 35l1 -189
c-98 -38.667 -174.667 -61.667 -230 -69s-106.666 -11 -153.999 -11c-214 0 -386 70.667 -516 212c-128.667 140.667 -193 326.334 -193 557.001c0 242.667 70.667 436.334 212 581.001c64.667 66.667 139.5 117.334 224.5 152.001s165.333 52 241 52
s135.334 -2.33301 179.001 -7s81.5 -10.167 113.5 -16.5s58.833 -12.666 80.5 -18.999s39.167 -11.166 52.5 -14.499zM451.996 1930l128 60l216 -174l221 174l120 -57l-242 -263h-197z" />
    <glyph glyph-name="ccaron" unicode="&#x10d;" horiz-adv-x="1002" 
d="M240 1654l126 56l249 -223l232 222l135 -56l-268 -332h-198zM893 923c-59.333 42 -144.666 63 -255.999 63c-87.333 0 -160.333 -30 -219 -90c-72.667 -75.333 -109 -185.333 -109 -330c0 -124.667 29.5 -225.167 88.5 -301.5s136.833 -114.5 233.5 -114.5
c76 0 150.667 14.667 224 44c19.333 7.33301 35.333 15 48 23l45 -125c-78 -72 -194.667 -108 -350 -108c-156 0 -279.667 55 -371 165c-86.667 104 -130 240.333 -130 409c0 175.333 46 317 138 425c98 115.333 235.667 173 413 173c125.333 0 218.666 -19.667 279.999 -59
z" />
    <glyph glyph-name="Dcaron" unicode="&#x10e;" horiz-adv-x="1472" 
d="M386 1930l128 60l216 -174l221 174l120 -57l-242 -263h-197zM660 -16l-381 16.001h-85v1522h112l360 16c240.667 0 422 -64.667 544 -194c118.667 -124.667 178 -304.667 178 -540c0 -258.667 -66.667 -461.334 -200 -608.001c-129.333 -141.333 -305.333 -212 -528 -212
zM849.5 1345.5c-67.667 21 -144 31.499 -229 31.499s-152.5 -5.33301 -202.5 -16v-1193c52.667 -12.667 139 -19 259 -19c228 4.66699 375.667 118.334 443 341.001c24 78 36 172.5 36 283.5s-11.5 205 -34.5 282s-57.167 139.333 -102.5 187s-101.833 82 -169.5 103z" />
    <glyph glyph-name="dcaron" unicode="&#x10f;" horiz-adv-x="1648" 
d="M863 112c-85.333 -85.333 -190.999 -128 -316.999 -128c-127.333 0 -232 44.667 -314 134c-90 97.333 -135 234 -135 410c0 186 52 336.667 156 452c105.333 117.333 243.666 176 414.999 176c66 0 128 -9.66699 186 -29l-3 62v475h220v-1680h-95
c-39.333 0 -65.333 4 -78 12c-23.333 14 -35 39.333 -35 76v40zM851.001 946c-38 33.333 -106.332 50 -204.999 50c-94.667 0 -171.334 -37.333 -230.001 -112c-63.333 -80.667 -95 -190 -95 -328c0 -266 95.333 -399 286 -399c84 0 165.333 30.667 244 92v697zM1483 1687
c41.333 -38.667 61.998 -119.001 61.998 -241.001c0 -125.333 -26.667 -238.666 -80 -339.999c-15.333 -28.667 -31 -52.667 -47 -72l-110 34l-8 28c5.33301 18.667 10.833 36.5 16.5 53.5s10.834 35.833 15.501 56.5c10.667 48 16 94.5 16 139.5s-1.66699 77.667 -5 98
s-7.66602 39.833 -12.999 58.5c-10.667 36 -23 63.667 -37 83l14 47z" />
    <glyph glyph-name="Dcroat" unicode="&#x110;" horiz-adv-x="1472" 
d="M660 -16l-381 16.001h-85v720h-128v149h128v653h112l360 16c240.667 0 422 -64.667 544 -194c118.667 -124.667 178 -304.667 178 -540c0 -258.667 -66.667 -461.334 -200 -608.001c-129.333 -141.333 -305.333 -212 -528 -212zM849.5 1345.5
c-67.667 21 -144 31.499 -229 31.499s-152.5 -5.33301 -202.5 -16v-492h394v-149h-394v-552c52.667 -12.667 139 -19 259 -19c228 4.66699 375.667 118.334 443 341.001c24 78 36 172.5 36 283.5s-11.5 205 -34.5 282s-57.167 139.333 -102.5 187s-101.833 82 -169.5 103z
" />
    <glyph glyph-name="dcroat" unicode="&#x111;" horiz-adv-x="1237" 
d="M863 112c-85.333 -85.333 -190.999 -128 -316.999 -128c-127.333 0 -232 44.667 -314 134c-90 97.333 -135 234 -135 410c0 186 52 336.667 156 452c105.333 117.333 243.666 176 414.999 176c66 0 128 -9.66699 186 -29l-3 62v117h-270v141h270v217h220v-217h141v-141
h-141v-1322h-95c-39.333 0 -65.333 4 -78 12c-23.333 14 -35 39.333 -35 76v40zM851.001 946c-38 33.333 -106.332 50 -204.999 50c-94.667 0 -171.334 -37.333 -230.001 -112c-63.333 -80.667 -95 -190 -95 -328c0 -266 95.333 -399 286 -399c84 0 165.333 30.667 244 92
v697z" />
    <glyph glyph-name="Emacron" unicode="&#x112;" horiz-adv-x="1217" 
d="M409 1891h547v-162h-547v162zM194 1522h876v-172h-653v-480h479v-172h-479v-523h726v-175h-949v1522z" />
    <glyph glyph-name="emacron" unicode="&#x113;" horiz-adv-x="1123" 
d="M312 522c10 -197.333 82.666 -315.333 217.999 -354c40.667 -12 77.334 -18 110.001 -18s62.5 1.66699 89.5 5s53.833 7.66602 80.5 12.999c62 13.333 107 28 135 44l42 -126c-55.333 -45.333 -148 -76.666 -278 -93.999c-37.333 -5.33301 -73 -8 -107 -8
c-161.333 0 -286 52 -374 156c-87.333 102.667 -131 246.667 -131 432c0 171.333 43 309.333 129 414c93.333 113.333 222 170 386 170c116.667 0 212 -35.333 286 -106c81.333 -79.333 124 -187.333 128 -324c0 -101.333 -3.66699 -169.333 -11 -204h-703zM820.999 712
c0 192 -75.667 287.999 -227 287.999c-160.667 0 -253 -110.667 -277 -332h503c0.666992 14.667 1 29.334 1 44.001zM324.999 1588h547v-163h-547v163z" />
    <glyph glyph-name="Ebreve" unicode="&#x114;" horiz-adv-x="1217" 
d="M828.5 1659.5c-44.333 -18.333 -94.668 -27.501 -151.001 -27.501s-106.5 9.33301 -150.5 28c-89.333 36.667 -147.666 97 -174.999 181c-10 31.333 -15 58 -15 80s0.333008 38.333 1 49h153c0 -79.333 36.333 -130.666 109 -153.999
c21.333 -7.33301 47.833 -11 79.5 -11s58.5 3.5 80.5 10.5s40.167 16 54.5 27s25.333 23 33 36s13.5 25.5 17.5 37.5c5.33301 19.333 8 37.333 8 54h149c0.666992 -10 1 -26 1 -48s-6.33301 -51.167 -19 -87.5s-34 -70 -64 -101s-67.167 -55.667 -111.5 -74zM193.998 1522
h876v-172h-653v-480h479v-172h-479v-523h726v-175h-949v1522z" />
    <glyph glyph-name="ebreve" unicode="&#x115;" horiz-adv-x="1123" 
d="M312 522c10 -197.333 82.666 -315.333 217.999 -354c40.667 -12 77.334 -18 110.001 -18s62.5 1.66699 89.5 5s53.833 7.66602 80.5 12.999c62 13.333 107 28 135 44l42 -126c-55.333 -45.333 -148 -76.666 -278 -93.999c-37.333 -5.33301 -73 -8 -107 -8
c-161.333 0 -286 52 -374 156c-87.333 102.667 -131 246.667 -131 432c0 171.333 43 309.333 129 414c93.333 113.333 222 170 386 170c116.667 0 212 -35.333 286 -106c81.333 -79.333 124 -187.333 128 -324c0 -101.333 -3.66699 -169.333 -11 -204h-703zM820.999 712
c0 192 -75.667 287.999 -227 287.999c-160.667 0 -253 -110.667 -277 -332h503c0.666992 14.667 1 29.334 1 44.001zM744.499 1340c-44.333 -21.333 -94.334 -32.001 -150.001 -32.001s-105.5 10.667 -149.5 32c-88 42 -146.667 110.667 -176 206
c-10.667 35.333 -16 64.666 -16 87.999s0.333008 40.333 1 51h154c0 -97.333 36.333 -161 109 -191c22 -9.33301 48.833 -14 80.5 -14s58.5 4.5 80.5 13.5s40 20.333 54 34s24.833 28.667 32.5 45s13.5 32.166 17.5 47.499c5.33301 20.667 8 42.334 8 65.001h150
c0.666992 -10 1 -26.833 1 -50.5s-6.5 -55.667 -19.5 -96s-34.667 -78.166 -65 -113.499s-67.666 -63.666 -111.999 -84.999z" />
    <glyph glyph-name="Edotaccent" unicode="&#x116;" horiz-adv-x="1217" 
d="M731 1680c-19.333 -7.33301 -38.8311 -10.999 -58.498 -10.999s-38 3 -55 9s-31.833 14.667 -44.5 26c-27.333 25.333 -41 53.5 -41 84.5s4.66699 55.833 14 74.5s21.333 35 36 49c32.667 29.333 65.167 44 97.5 44s57.166 -3.33301 74.499 -10s31.666 -16 42.999 -28
c22.667 -24 34 -51.667 34 -83s-4.5 -56.333 -13.5 -75s-20.833 -34.834 -35.5 -48.501s-31.667 -24.167 -51 -31.5zM194.002 1522h876v-172h-653v-480h479v-172h-479v-523h726v-175h-949v1522z" />
    <glyph glyph-name="edotaccent" unicode="&#x117;" horiz-adv-x="1123" 
d="M312 522c10 -197.333 82.666 -315.333 217.999 -354c40.667 -12 77.334 -18 110.001 -18s62.5 1.66699 89.5 5s53.833 7.66602 80.5 12.999c62 13.333 107 28 135 44l42 -126c-55.333 -45.333 -148 -76.666 -278 -93.999c-37.333 -5.33301 -73 -8 -107 -8
c-161.333 0 -286 52 -374 156c-87.333 102.667 -131 246.667 -131 432c0 171.333 43 309.333 129 414c93.333 113.333 222 170 386 170c116.667 0 212 -35.333 286 -106c81.333 -79.333 124 -187.333 128 -324c0 -101.333 -3.66699 -169.333 -11 -204h-703zM820.999 712
c0 192 -75.667 287.999 -227 287.999c-160.667 0 -253 -110.667 -277 -332h503c0.666992 14.667 1 29.334 1 44.001zM646.499 1358.5c-19.667 -7.66699 -39.334 -11.499 -59.001 -11.499s-38 3.16699 -55 9.5s-32.167 15.5 -45.5 27.5c-28 25.333 -42 53.5 -42 84.5
s4.66699 56 14 75s21.666 35.5 36.999 49.5c32.667 30 65.334 45 98.001 45s57.834 -3.5 75.501 -10.5s32.167 -16.833 43.5 -29.5c23.333 -24 35 -51.667 35 -83s-4.5 -56.5 -13.5 -75.5s-21 -35.333 -36 -49s-32.333 -24.334 -52 -32.001z" />
    <glyph glyph-name="Eogonek" unicode="&#x118;" horiz-adv-x="1217" 
d="M1140 -453c-51.333 -39.333 -130.33 -58.998 -236.997 -58.998c-114.667 0 -190.334 37 -227.001 111c-12.667 26.667 -19 56.5 -19 89.5s6.66699 64.667 20 95s32 59.166 56 86.499c49.333 55.333 111.666 98.666 186.999 129.999h-726v1522h876v-172h-653v-480h479
v-172h-479v-523h726v-175h-50c-100 -56.667 -167.667 -120 -203 -190c-11.333 -22 -17 -43.667 -17 -65c0 -72.667 42.667 -109 128 -109c43.333 0 89.666 9.66699 138.999 29v-118z" />
    <glyph glyph-name="eogonek" unicode="&#x119;" horiz-adv-x="1123" 
d="M712 -8c-38.667 -5.33301 -75.333 -7.99805 -110 -7.99805c-161.333 0 -286 52 -374 156c-87.333 102.667 -131 246.667 -131 432c0 171.333 43 309.333 129 414c93.333 113.333 222 170 386 170c116.667 0 212 -35.333 286 -106c81.333 -79.333 124 -187.333 128 -324
c0 -101.333 -3.66699 -169.333 -11 -204h-703c10 -197.333 82.667 -315.333 218 -354c40.667 -12 77.334 -18 110.001 -18s62.5 1.66699 89.5 5s53.833 7.66602 80.5 12.999c62 13.333 107 28 135 44l42 -126l-16 -12h1c-68 -42.667 -125.333 -97.334 -172 -164.001
c-43.333 -61.333 -65 -116.333 -65 -165c0 -72.667 42.667 -109 128 -109c43.333 0 89.666 9.66699 138.999 29v-118c-51.333 -39.333 -130.333 -59 -237 -59c-113.333 0 -189 40 -227 120c-12.667 26 -19.167 53.5 -19.5 82.5s4.33398 57.167 14.001 84.5
s23.167 54.333 40.5 81c37.333 58 83.666 103.333 138.999 136zM821.001 712.002c0 192 -75.667 287.999 -227 287.999c-160.667 0 -253 -110.667 -277 -332h503c0.666992 14.667 1 29.334 1 44.001z" />
    <glyph glyph-name="Ecaron" unicode="&#x11a;" horiz-adv-x="1217" 
d="M337 1930l128 60l216 -174l221 174l120 -57l-242 -263h-197zM194 1522h876v-172h-653v-480h479v-172h-479v-523h726v-175h-949v1522z" />
    <glyph glyph-name="ecaron" unicode="&#x11b;" horiz-adv-x="1123" 
d="M225 1654l126 56l249 -223l232 222l135 -56l-268 -332h-198zM312 522c10 -197.333 82.666 -315.333 217.999 -354c40.667 -12 77.334 -18 110.001 -18s62.5 1.66699 89.5 5s53.833 7.66602 80.5 12.999c62 13.333 107 28 135 44l42 -126
c-55.333 -45.333 -148 -76.666 -278 -93.999c-37.333 -5.33301 -73 -8 -107 -8c-161.333 0 -286 52 -374 156c-87.333 102.667 -131 246.667 -131 432c0 171.333 43 309.333 129 414c93.333 113.333 222 170 386 170c116.667 0 212 -35.333 286 -106
c81.333 -79.333 124 -187.333 128 -324c0 -101.333 -3.66699 -169.333 -11 -204h-703zM820.999 712c0 192 -75.667 287.999 -227 287.999c-160.667 0 -253 -110.667 -277 -332h503c0.666992 14.667 1 29.334 1 44.001z" />
    <glyph glyph-name="Gcircumflex" unicode="&#x11c;" horiz-adv-x="1433" 
d="M1220 1278c-108.667 57.333 -252.003 85.999 -430.003 85.999c-135.333 0 -245.333 -51.333 -330 -154c-86.667 -106 -130 -249.333 -130 -430c0 -185.333 38.333 -333.666 115 -444.999c83.333 -120.667 202 -181 356 -181c94 0 175.667 10.667 245 32
c22.667 6.66699 41.334 15 56.001 25v377l-277 13v160h492v-667c-22 -1.33301 -46.667 -7.83301 -74 -19.5s-60.666 -24.167 -99.999 -37.5c-104 -35.333 -214.667 -53 -332 -53s-219.666 19.5 -306.999 58.5s-161 92.833 -221 161.5
c-122.667 139.333 -184 322.333 -184 549c0 251.333 68.333 447.333 205 588c127.333 131.333 294 197 500 197c98 0 171.667 -4.83301 221 -14.5s87.5 -18 114.5 -25s57.167 -13.833 90.5 -20.5zM448.997 1689l259 301h197l262 -298l-144 -60l-216 202l-221 -202z" />
    <glyph glyph-name="gcircumflex" unicode="&#x11d;" horiz-adv-x="1217" 
d="M223 1349l276 333h198l268 -332l-135 -56l-232 222l-249 -223zM446 397c-42.667 -30.667 -64.0029 -68.666 -64.0029 -113.999c0 -42.667 7.33301 -70 22 -82c23.333 -18.667 59.333 -28 108 -28h207c158.667 0 272 -33.333 340 -100c53.333 -52 80 -124.667 80 -218
c0 -111.333 -54.333 -202.333 -163 -273c-103.333 -66 -233.666 -99 -390.999 -99c-228 0 -375 62.333 -441 187c-22.667 42 -34 84.5 -34 127.5s4.83301 76.5 14.5 100.5s22.167 46 37.5 66c26.667 34 62.334 63.333 107.001 88c-58.667 33.333 -88 90.333 -88 171
c1.33301 38 14 76.5 38 115.5s58 73.5 102 103.5c-60.667 32 -108.667 75.333 -144 130s-53 116.667 -53 186s11.5 128.333 34.5 177s54.833 89 95.5 121c82.667 66.667 195 100 337 100c104.667 0 195.334 -23 272.001 -69c60.667 40.667 131.667 61 213 61h111v-175h-209
c34 -58 51 -121.333 51 -190s-11.833 -127.334 -35.5 -176.001s-56.167 -89.667 -97.5 -123c-82.667 -66.667 -191.334 -100 -326.001 -100c-45.333 0 -86.666 4.33301 -123.999 13zM809.997 767.001c0 160 -75.001 240 -225.001 240c-113.333 0 -187.333 -39 -222 -117
c-13.333 -30.667 -20 -66 -20 -106s4.33301 -74.5 13 -103.5s22.334 -54.5 41.001 -76.5c40.667 -48.667 100 -73 178 -73c117.333 0 190.333 41 219 123c10.667 30 16 67.667 16 113zM396.996 7.00098c-48.667 -42 -72.998 -96.001 -72.998 -162.001
c0 -106 48.333 -171.667 145 -197c34 -9.33301 74.333 -14 121 -14s90.167 3.66699 130.5 11s76.166 18.333 107.499 33c67.333 30.667 101 73.667 101 129c0 66.667 -18.333 114.334 -55 143.001c-42.667 33.333 -118.334 50 -227.001 50h-102
c-70 0 -119.333 2.33301 -148 7z" />
    <glyph glyph-name="Gbreve" unicode="&#x11e;" horiz-adv-x="1433" 
d="M955.5 1659.5c-44.333 -18.333 -94.668 -27.501 -151.001 -27.501s-106.5 9.33301 -150.5 28c-89.333 36.667 -147.666 97 -174.999 181c-10 31.333 -15 58 -15 80s0.333008 38.333 1 49h153c0 -79.333 36.333 -130.666 109 -153.999
c21.333 -7.33301 47.833 -11 79.5 -11s58.5 3.5 80.5 10.5s40.167 16 54.5 27s25.333 23 33 36s13.5 25.5 17.5 37.5c5.33301 19.333 8 37.333 8 54h149c0.666992 -10 1 -26 1 -48s-6.33301 -51.167 -19 -87.5s-34 -70 -64 -101s-67.167 -55.667 -111.5 -74zM1220 1278
c-108.667 57.333 -252.003 85.999 -430.003 85.999c-135.333 0 -245.333 -51.333 -330 -154c-86.667 -106 -130 -249.333 -130 -430c0 -185.333 38.333 -333.666 115 -444.999c83.333 -120.667 202 -181 356 -181c94 0 175.667 10.667 245 32
c22.667 6.66699 41.334 15 56.001 25v377l-277 13v160h492v-667c-22 -1.33301 -46.667 -7.83301 -74 -19.5s-60.666 -24.167 -99.999 -37.5c-104 -35.333 -214.667 -53 -332 -53s-219.666 19.5 -306.999 58.5s-161 92.833 -221 161.5
c-122.667 139.333 -184 322.333 -184 549c0 251.333 68.333 447.333 205 588c127.333 131.333 294 197 500 197c98 0 171.667 -4.83301 221 -14.5s87.5 -18 114.5 -25s57.167 -13.833 90.5 -20.5z" />
    <glyph glyph-name="gbreve" unicode="&#x11f;" horiz-adv-x="1217" 
d="M446 397c-42.667 -30.667 -64.0029 -68.666 -64.0029 -113.999c0 -42.667 7.33301 -70 22 -82c23.333 -18.667 59.333 -28 108 -28h207c158.667 0 272 -33.333 340 -100c53.333 -52 80 -124.667 80 -218c0 -111.333 -54.333 -202.333 -163 -273
c-103.333 -66 -233.666 -99 -390.999 -99c-228 0 -375 62.333 -441 187c-22.667 42 -34 84.5 -34 127.5s4.83301 76.5 14.5 100.5s22.167 46 37.5 66c26.667 34 62.334 63.333 107.001 88c-58.667 33.333 -88 90.333 -88 171c1.33301 38 14 76.5 38 115.5s58 73.5 102 103.5
c-60.667 32 -108.667 75.333 -144 130s-53 116.667 -53 186s11.5 128.333 34.5 177s54.833 89 95.5 121c82.667 66.667 195 100 337 100c104.667 0 195.334 -23 272.001 -69c60.667 40.667 131.667 61 213 61h111v-175h-209c34 -58 51 -121.333 51 -190
s-11.833 -127.334 -35.5 -176.001s-56.167 -89.667 -97.5 -123c-82.667 -66.667 -191.334 -100 -326.001 -100c-45.333 0 -86.666 4.33301 -123.999 13zM809.997 767.001c0 160 -75.001 240 -225.001 240c-113.333 0 -187.333 -39 -222 -117
c-13.333 -30.667 -20 -66 -20 -106s4.33301 -74.5 13 -103.5s22.334 -54.5 41.001 -76.5c40.667 -48.667 100 -73 178 -73c117.333 0 190.333 41 219 123c10.667 30 16 67.667 16 113zM396.996 7.00098c-48.667 -42 -72.998 -96.001 -72.998 -162.001
c0 -106 48.333 -171.667 145 -197c34 -9.33301 74.333 -14 121 -14s90.167 3.66699 130.5 11s76.166 18.333 107.499 33c67.333 30.667 101 73.667 101 129c0 66.667 -18.333 114.334 -55 143.001c-42.667 33.333 -118.334 50 -227.001 50h-102
c-70 0 -119.333 2.33301 -148 7zM744.498 1340c-44.333 -21.333 -94.334 -32.001 -150.001 -32.001s-105.5 10.667 -149.5 32c-88 42 -146.667 110.667 -176 206c-10.667 35.333 -16 64.666 -16 87.999s0.333008 40.333 1 51h154c0 -97.333 36.333 -161 109 -191
c22 -9.33301 48.833 -14 80.5 -14s58.5 4.5 80.5 13.5s40 20.333 54 34s24.833 28.667 32.5 45s13.5 32.166 17.5 47.499c5.33301 20.667 8 42.334 8 65.001h150c0.666992 -10 1 -26.833 1 -50.5s-6.5 -55.667 -19.5 -96s-34.667 -78.166 -65 -113.499
s-67.666 -63.666 -111.999 -84.999z" />
    <glyph glyph-name="Gdotaccent" unicode="&#x120;" horiz-adv-x="1433" 
d="M858 1680c-19.333 -7.33301 -38.8311 -10.999 -58.498 -10.999s-38 3 -55 9s-31.833 14.667 -44.5 26c-27.333 25.333 -41 53.5 -41 84.5s4.66699 55.833 14 74.5s21.333 35 36 49c32.667 29.333 65.167 44 97.5 44s57.166 -3.33301 74.499 -10s31.666 -16 42.999 -28
c22.667 -24 34 -51.667 34 -83s-4.5 -56.333 -13.5 -75s-20.833 -34.834 -35.5 -48.501s-31.667 -24.167 -51 -31.5zM1220 1278c-108.667 57.333 -252.003 85.999 -430.003 85.999c-135.333 0 -245.333 -51.333 -330 -154c-86.667 -106 -130 -249.333 -130 -430
c0 -185.333 38.333 -333.666 115 -444.999c83.333 -120.667 202 -181 356 -181c94 0 175.667 10.667 245 32c22.667 6.66699 41.334 15 56.001 25v377l-277 13v160h492v-667c-22 -1.33301 -46.667 -7.83301 -74 -19.5s-60.666 -24.167 -99.999 -37.5
c-104 -35.333 -214.667 -53 -332 -53s-219.666 19.5 -306.999 58.5s-161 92.833 -221 161.5c-122.667 139.333 -184 322.333 -184 549c0 251.333 68.333 447.333 205 588c127.333 131.333 294 197 500 197c98 0 171.667 -4.83301 221 -14.5s87.5 -18 114.5 -25
s57.167 -13.833 90.5 -20.5z" />
    <glyph glyph-name="gdotaccent" unicode="&#x121;" horiz-adv-x="1217" 
d="M446 397c-42.667 -30.667 -64.0029 -68.666 -64.0029 -113.999c0 -42.667 7.33301 -70 22 -82c23.333 -18.667 59.333 -28 108 -28h207c158.667 0 272 -33.333 340 -100c53.333 -52 80 -124.667 80 -218c0 -111.333 -54.333 -202.333 -163 -273
c-103.333 -66 -233.666 -99 -390.999 -99c-228 0 -375 62.333 -441 187c-22.667 42 -34 84.5 -34 127.5s4.83301 76.5 14.5 100.5s22.167 46 37.5 66c26.667 34 62.334 63.333 107.001 88c-58.667 33.333 -88 90.333 -88 171c1.33301 38 14 76.5 38 115.5s58 73.5 102 103.5
c-60.667 32 -108.667 75.333 -144 130s-53 116.667 -53 186s11.5 128.333 34.5 177s54.833 89 95.5 121c82.667 66.667 195 100 337 100c104.667 0 195.334 -23 272.001 -69c60.667 40.667 131.667 61 213 61h111v-175h-209c34 -58 51 -121.333 51 -190
s-11.833 -127.334 -35.5 -176.001s-56.167 -89.667 -97.5 -123c-82.667 -66.667 -191.334 -100 -326.001 -100c-45.333 0 -86.666 4.33301 -123.999 13zM809.997 767.001c0 160 -75.001 240 -225.001 240c-113.333 0 -187.333 -39 -222 -117
c-13.333 -30.667 -20 -66 -20 -106s4.33301 -74.5 13 -103.5s22.334 -54.5 41.001 -76.5c40.667 -48.667 100 -73 178 -73c117.333 0 190.333 41 219 123c10.667 30 16 67.667 16 113zM396.996 7.00098c-48.667 -42 -72.998 -96.001 -72.998 -162.001
c0 -106 48.333 -171.667 145 -197c34 -9.33301 74.333 -14 121 -14s90.167 3.66699 130.5 11s76.166 18.333 107.499 33c67.333 30.667 101 73.667 101 129c0 66.667 -18.333 114.334 -55 143.001c-42.667 33.333 -118.334 50 -227.001 50h-102
c-70 0 -119.333 2.33301 -148 7zM646.498 1358.5c-19.667 -7.66699 -39.334 -11.499 -59.001 -11.499s-38 3.16699 -55 9.5s-32.167 15.5 -45.5 27.5c-28 25.333 -42 53.5 -42 84.5s4.66699 56 14 75s21.666 35.5 36.999 49.5c32.667 30 65.334 45 98.001 45
s57.834 -3.5 75.501 -10.5s32.167 -16.833 43.5 -29.5c23.333 -24 35 -51.667 35 -83s-4.5 -56.5 -13.5 -75.5s-21 -35.333 -36 -49s-32.333 -24.334 -52 -32.001z" />
    <glyph glyph-name="Gcommaaccent" unicode="&#x122;" horiz-adv-x="1433" 
d="M717 -493c26 31.333 39 79.665 39 144.998c0 44.667 -13 80.667 -39 108c-8.66699 8.66699 -18 14 -28 16v50l158 92c42 -21.333 71.333 -66.333 88 -135c6 -23.333 9 -50.666 9 -81.999s-5 -61.666 -15 -90.999s-22.667 -55.333 -38 -78
c-28.667 -45.333 -61.667 -76 -99 -92l-75 41v26zM1220 1278c-108.667 57.333 -252.003 85.999 -430.003 85.999c-135.333 0 -245.333 -51.333 -330 -154c-86.667 -106 -130 -249.333 -130 -430c0 -185.333 38.333 -333.666 115 -444.999c83.333 -120.667 202 -181 356 -181
c94 0 175.667 10.667 245 32c22.667 6.66699 41.334 15 56.001 25v377l-277 13v160h492v-667c-22 -1.33301 -46.667 -7.83301 -74 -19.5s-60.666 -24.167 -99.999 -37.5c-104 -35.333 -214.667 -53 -332 -53s-219.666 19.5 -306.999 58.5s-161 92.833 -221 161.5
c-122.667 139.333 -184 322.333 -184 549c0 251.333 68.333 447.333 205 588c127.333 131.333 294 197 500 197c98 0 171.667 -4.83301 221 -14.5s87.5 -18 114.5 -25s57.167 -13.833 90.5 -20.5z" />
    <glyph glyph-name="gcommaaccent" unicode="&#x123;" horiz-adv-x="1217" 
d="M698 1735c-26 -31.333 -39 -79.666 -39 -144.999c0 -44.667 13 -80.667 39 -108c8.66699 -8.66699 18 -14 28 -16v-50l-158 -92c-42 21.333 -71.333 66.333 -88 135c-6 23.333 -9 50.666 -9 81.999s5 61.666 15 90.999s22.667 55.333 38 78
c27.333 42.667 60.333 73.334 99 92.001l75 -41v-26zM446 397c-42.667 -30.667 -64.0029 -68.666 -64.0029 -113.999c0 -42.667 7.33301 -70 22 -82c23.333 -18.667 59.333 -28 108 -28h207c158.667 0 272 -33.333 340 -100c53.333 -52 80 -124.667 80 -218
c0 -111.333 -54.333 -202.333 -163 -273c-103.333 -66 -233.666 -99 -390.999 -99c-228 0 -375 62.333 -441 187c-22.667 42 -34 84.5 -34 127.5s4.83301 76.5 14.5 100.5s22.167 46 37.5 66c26.667 34 62.334 63.333 107.001 88c-58.667 33.333 -88 90.333 -88 171
c1.33301 38 14 76.5 38 115.5s58 73.5 102 103.5c-60.667 32 -108.667 75.333 -144 130s-53 116.667 -53 186s11.5 128.333 34.5 177s54.833 89 95.5 121c82.667 66.667 195 100 337 100c104.667 0 195.334 -23 272.001 -69c60.667 40.667 131.667 61 213 61h111v-175h-209
c34 -58 51 -121.333 51 -190s-11.833 -127.334 -35.5 -176.001s-56.167 -89.667 -97.5 -123c-82.667 -66.667 -191.334 -100 -326.001 -100c-45.333 0 -86.666 4.33301 -123.999 13zM809.997 767.001c0 160 -75.001 240 -225.001 240c-113.333 0 -187.333 -39 -222 -117
c-13.333 -30.667 -20 -66 -20 -106s4.33301 -74.5 13 -103.5s22.334 -54.5 41.001 -76.5c40.667 -48.667 100 -73 178 -73c117.333 0 190.333 41 219 123c10.667 30 16 67.667 16 113zM396.996 7.00098c-48.667 -42 -72.998 -96.001 -72.998 -162.001
c0 -106 48.333 -171.667 145 -197c34 -9.33301 74.333 -14 121 -14s90.167 3.66699 130.5 11s76.166 18.333 107.499 33c67.333 30.667 101 73.667 101 129c0 66.667 -18.333 114.334 -55 143.001c-42.667 33.333 -118.334 50 -227.001 50h-102
c-70 0 -119.333 2.33301 -148 7z" />
    <glyph glyph-name="Hcircumflex" unicode="&#x124;" horiz-adv-x="1552" 
d="M194 1522h223v-667h718v667h223v-1522h-223v683h-718v-683h-223v1522zM418 1689l259 301h197l262 -298l-144 -60l-216 202l-221 -202z" />
    <glyph glyph-name="hcircumflex" unicode="&#x125;" horiz-adv-x="1289" 
d="M176 1664l220 0.000976562v-475l-10 -162c75.333 54.667 167 93.667 275 117c42.667 8.66699 87.5 13 134.5 13s91.833 -8 134.5 -24s78 -42.667 106 -80c55.333 -72.667 83 -192 83 -358v-695h-220v711c0 97.333 -15 165 -45 203c-31.333 40 -83 60 -155 60
c-73.333 0 -150.333 -20.333 -231 -61c-25.333 -12.667 -49.333 -27.334 -72 -44.001v-869h-220v1664zM396 1689l259 301h197l262 -298l-144 -60l-216 202l-221 -202z" />
    <glyph glyph-name="Hbar" unicode="&#x126;" horiz-adv-x="1563" 
d="M194 1065h-186v142h186v315h223v-315h729v315h223v-315h189v-142h-189v-1065h-223v674h-729v-674h-223v1065zM1146 845v220h-729v-220h729z" />
    <glyph glyph-name="hbar" unicode="&#x127;" horiz-adv-x="1289" 
d="M176 1284l-140 0.000976562v132h140v248h220v-248h232v-132h-232v-95l-10 -162c75.333 54.667 167 93.667 275 117c42.667 8.66699 87.5 13 134.5 13s91.833 -8 134.5 -24s78 -42.667 106 -80c55.333 -72.667 83 -192 83 -358v-695h-220v711c0 97.333 -15 165 -45 203
c-31.333 40 -83 60 -155 60c-73.333 0 -150.333 -20.333 -231 -61c-25.333 -12.667 -49.333 -27.334 -72 -44.001v-869h-220v1284z" />
    <glyph glyph-name="Itilde" unicode="&#x128;" horiz-adv-x="640" 
d="M207 1522h226v-1522h-226v1522zM166 1805c-56.667 0 -115.002 -34.002 -175.002 -102.002l-85 68c23.333 56 63 102.667 119 140c54 36.667 104.5 55 151.5 55s83.333 -7.16699 109 -21.5s48.667 -30.333 69 -48s39.833 -33.667 58.5 -48s40.667 -21.5 66 -21.5
c58.667 0 117 33 175 99l86 -71c-23.333 -56 -63 -102.333 -119 -139c-54.667 -36.667 -108.667 -55 -162 -55c-45.333 0 -81.166 8.83301 -107.499 26.5s-46.166 32.834 -59.499 45.501s-26.333 24.334 -39 35.001c-29.333 24.667 -58.333 37 -87 37z" />
    <glyph glyph-name="itilde" unicode="&#x129;" horiz-adv-x="606" 
d="M193 1138h220v-1138h-220v1138zM153 1482c-61.333 0 -122.331 -32.334 -182.998 -97.001l-85 68c39.333 86 100.333 145.667 183 179c28 10.667 56.167 16 84.5 16s52.666 -3.33301 72.999 -10s38.5 -15.167 54.5 -25.5s30.667 -21.333 44 -33l40 -33.5
c29.333 -23.333 58 -35 86 -35c64.667 0 125.667 32.667 183 98l86 -72c-42 -89.333 -103 -148.666 -183 -177.999c-27.333 -10 -55.833 -15 -85.5 -15s-54.834 3.33301 -75.501 10s-39.167 15.167 -55.5 25.5s-30.833 21.5 -43.5 33.5s-25.334 23 -38.001 33
c-29.333 24 -57.666 36 -84.999 36z" />
    <glyph glyph-name="Imacron" unicode="&#x12a;" horiz-adv-x="640" 
d="M207 1522h226v-1522h-226v1522zM50 1891h547v-162h-547v162z" />
    <glyph glyph-name="imacron" unicode="&#x12b;" horiz-adv-x="606" 
d="M193 1138h220v-1138h-220v1138zM32 1588h547v-163h-547v163z" />
    <glyph glyph-name="Ibreve" unicode="&#x12c;" horiz-adv-x="640" 
d="M207 1522h226v-1522h-226v1522zM470.5 1659.5c-44.333 -18.333 -94.668 -27.501 -151.001 -27.501s-106.5 9.33301 -150.5 28c-89.333 36.667 -147.666 97 -174.999 181c-10 31.333 -15 58 -15 80s0.333008 38.333 1 49h153c0 -79.333 36.333 -130.666 109 -153.999
c21.333 -7.33301 47.833 -11 79.5 -11s58.5 3.5 80.5 10.5s40.167 16 54.5 27s25.333 23 33 36s13.5 25.5 17.5 37.5c5.33301 19.333 8 37.333 8 54h149c0.666992 -10 1 -26 1 -48s-6.33301 -51.167 -19 -87.5s-34 -70 -64 -101s-67.167 -55.667 -111.5 -74z" />
    <glyph glyph-name="ibreve" unicode="&#x12d;" horiz-adv-x="606" 
d="M193 1138h220v-1138h-220v1138zM451.5 1340c-44.333 -21.333 -94.334 -32.001 -150.001 -32.001s-105.5 10.667 -149.5 32c-88 42 -146.667 110.667 -176 206c-10.667 35.333 -16 64.666 -16 87.999s0.333008 40.333 1 51h154c0 -97.333 36.333 -161 109 -191
c22 -9.33301 48.833 -14 80.5 -14s58.5 4.5 80.5 13.5s40 20.333 54 34s24.833 28.667 32.5 45s13.5 32.166 17.5 47.499c5.33301 20.667 8 42.334 8 65.001h150c0.666992 -10 1 -26.833 1 -50.5s-6.5 -55.667 -19.5 -96s-34.667 -78.166 -65 -113.499
s-67.666 -63.666 -111.999 -84.999z" />
    <glyph glyph-name="Iogonek" unicode="&#x12e;" horiz-adv-x="640" 
d="M536 -453c-52.667 -39.333 -128.332 -58.999 -226.999 -58.999c-77.333 0 -140.333 19.333 -189 58c-51.333 42 -77 97.667 -77 167c0 52.667 20.333 107 61 163c34 47.333 79.333 88.666 136 123.999h-33v1522h226v-1522h-25c-99.333 -62.667 -149 -142.667 -149 -240
c0 -82.667 46 -124 138 -124c43.333 0 89.666 9.66699 138.999 29v-118z" />
    <glyph glyph-name="iogonek" unicode="&#x12f;" horiz-adv-x="606" 
d="M355.5 1358.5c-19.667 -7.66699 -39.334 -11.499 -59.001 -11.499s-38 3.16699 -55 9.5s-32.167 15.5 -45.5 27.5c-28 25.333 -42 53.5 -42 84.5s4.66699 56 14 75s21.666 35.5 36.999 49.5c32.667 30 65.334 45 98.001 45s57.834 -3.5 75.501 -10.5
s32.167 -16.833 43.5 -29.5c23.333 -24 35 -51.667 35 -83s-4.5 -56.5 -13.5 -75.5s-21 -35.333 -36 -49s-32.333 -24.334 -52 -32.001zM516 -452.999c-52.667 -39.333 -128.332 -58.999 -226.999 -58.999c-77.333 0 -140.333 19.333 -189 58c-51.333 42 -77 97.667 -77 167
c0 52.667 20.333 107 61 163c34 47.333 79.333 88.666 136 123.999h-27v1138h220v-1138h-25c-99.333 -62.667 -149 -142.667 -149 -240c0 -82.667 46 -124 138 -124c43.333 0 89.666 9.66699 138.999 29v-118z" />
    <glyph glyph-name="Idotaccent" unicode="&#x130;" horiz-adv-x="640" 
d="M207 1522h226v-1522h-226v1522zM372 1680c-19.333 -7.33301 -38.8311 -10.999 -58.498 -10.999s-38 3 -55 9s-31.833 14.667 -44.5 26c-27.333 25.333 -41 53.5 -41 84.5s4.66699 55.833 14 74.5s21.333 35 36 49c32.667 29.333 65.167 44 97.5 44
s57.166 -3.33301 74.499 -10s31.666 -16 42.999 -28c22.667 -24 34 -51.667 34 -83s-4.5 -56.333 -13.5 -75s-20.833 -34.834 -35.5 -48.501s-31.667 -24.167 -51 -31.5z" />
    <glyph glyph-name="dotlessi" unicode="&#x131;" horiz-adv-x="606" 
d="M193 1138h220v-1138h-220v1138z" />
    <glyph glyph-name="IJ" unicode="&#x132;" horiz-adv-x="1353" 
d="M207 1522h226v-1522h-226v1522zM1134 613l2.00195 -216.001c0 -132 -6.33301 -233.167 -19 -303.5s-35.167 -130.166 -67.5 -179.499s-69.833 -91.333 -112.5 -126c-80 -64 -170.333 -104 -271 -120l-68 117c99.333 34.667 176.666 93.334 231.999 176.001
c33.333 50.667 54.666 121 63.999 211c9.33301 83.333 14 228.666 14 435.999v914h226v-909z" />
    <glyph glyph-name="ij" unicode="&#x133;" horiz-adv-x="1180" 
d="M527 -331c29.333 -14.667 63.667 -21.999 103 -21.999s69 6.5 89 19.5s35.667 32.167 47 57.5c22 48 33 124 33 228v1186h220v-1101c0 -282.667 -67.333 -454.334 -202 -515.001c-44 -19.333 -99 -29 -165 -29s-107.667 4.33301 -125 13v163zM193.001 1138h220v-1138
h-220v1138zM356.501 1358.5c-19.667 -7.66699 -39.334 -11.499 -59.001 -11.499s-38 3.16699 -55 9.5s-32.167 15.5 -45.5 27.5c-28 25.333 -42 53.5 -42 84.5s4.66699 56 14 75s21.666 35.5 36.999 49.5c32.667 30 65.334 45 98.001 45s57.834 -3.5 75.501 -10.5
s32.167 -16.833 43.5 -29.5c23.333 -24 35 -51.667 35 -83s-4.5 -56.5 -13.5 -75.5s-21 -35.333 -36 -49s-32.333 -24.334 -52 -32.001zM959.501 1358.5c-19.667 -7.66699 -39.334 -11.499 -59.001 -11.499s-38 3.16699 -55 9.5s-32.167 15.5 -45.5 27.5
c-28 25.333 -42 53.5 -42 84.5s4.66699 56 14 75s21.666 35.5 36.999 49.5c32.667 30 65.334 45 98.001 45s57.834 -3.5 75.501 -10.5s32.167 -16.833 43.5 -29.5c23.333 -24 35 -51.667 35 -83s-4.5 -56.5 -13.5 -75.5s-21 -35.333 -36 -49s-32.333 -24.334 -52 -32.001z
" />
    <glyph glyph-name="Jcircumflex" unicode="&#x134;" horiz-adv-x="713" 
d="M494 613l2.00195 -216.001c0 -132 -6.33301 -233.167 -19 -303.5s-35.167 -130.166 -67.5 -179.499s-69.833 -91.333 -112.5 -126c-80 -64 -170.333 -104 -271 -120l-68 117c99.333 34.667 176.666 93.334 231.999 176.001c33.333 50.667 54.666 121 63.999 211
c9.33301 83.333 14 228.666 14 435.999v914h226v-909zM19.002 1689l259 301h197l262 -298l-144 -60l-216 202l-221 -202z" />
    <glyph glyph-name="jcircumflex" unicode="&#x135;" horiz-adv-x="574" 
d="M-79 -331c29.333 -14.667 63.667 -21.999 103 -21.999s69 6.5 89 19.5s35.667 32.167 47 57.5c22 48 33 124 33 228v1186h220v-1101c0 -282.667 -67.333 -454.334 -202 -515.001c-44 -19.333 -99 -29 -165 -29s-107.667 4.33301 -125 13v163zM-65.999 1349l276 333h198
l268 -332l-135 -56l-232 222l-249 -223z" />
    <glyph glyph-name="Kcommaaccent" unicode="&#x136;" horiz-adv-x="1371" 
d="M605 -493c26 31.333 39 79.665 39 144.998c0 44.667 -13 80.667 -39 108c-8.66699 8.66699 -18 14 -28 16v50l158 92c42 -21.333 71.333 -66.333 88 -135c6 -23.333 9 -50.666 9 -81.999s-5 -61.666 -15 -90.999s-22.667 -55.333 -38 -78
c-28.667 -45.333 -61.667 -76 -99 -92l-75 41v26zM194 1522h223v-764l603 764h263l-539 -656c28 -46.667 82.833 -130 164.5 -250l169.5 -250c74 -112.667 127 -198 159 -256l65 -110h-257c-7.33301 10 -14.333 22 -21 36l-18 37c-40.667 80.667 -110.5 194.5 -209.5 341.5
l-190.5 286.5l-189 -220v-481h-223v1522z" />
    <glyph glyph-name="kcommaaccent" unicode="&#x137;" horiz-adv-x="1163" 
d="M521 -493c26 31.333 39 79.665 39 144.998c0 44.667 -13 80.667 -39 108c-8.66699 8.66699 -18 14 -28 16v50l158 92c42 -21.333 71.333 -66.333 88 -135c6 -23.333 9 -50.666 9 -81.999s-5 -61.666 -15 -90.999s-22.667 -55.333 -38 -78
c-28.667 -45.333 -61.667 -76 -99 -92l-75 41v26zM168 1661h220v-910l-4 -112l455 501h259l-430 -449l483 -691h-250l-377 541l-141 -147l5 -171v-223h-220v1661z" />
    <glyph glyph-name="kgreenlandic" unicode="&#x138;" horiz-adv-x="1169" 
d="M181 1140h220v-481l-3 -80l480 561h251l-439 -482l478 -658h-251l-367 504l-152 -168l6 -146v-190h-220z" />
    <glyph glyph-name="Lacute" unicode="&#x139;" horiz-adv-x="1080" 
d="M178 1665c1.33301 0.666992 10.5 8.83301 27.5 24.5l63.5 57l81.5 73l81.5 74.5c58 53.333 87.667 82 89 86l146 -133c-79.333 -82 -179 -157.667 -299 -227c-36 -21.333 -68.333 -37 -97 -47zM194 1522h228v-1347h604v-175h-832v1522z" />
    <glyph glyph-name="lacute" unicode="&#x13a;" horiz-adv-x="631" 
d="M197 1532h220v-1532h-220v1532zM184 1665c1.33301 0.666992 10.5 8.83301 27.5 24.5l63.5 57l81.5 73l81.5 74.5c58 53.333 87.667 82 89 86l146 -133c-79.333 -82 -179 -157.667 -299 -227c-36 -21.333 -68.333 -37 -97 -47z" />
    <glyph glyph-name="Lcommaaccent" unicode="&#x13b;" horiz-adv-x="1080" 
d="M516 -493c26 31.333 39 79.665 39 144.998c0 44.667 -13 80.667 -39 108c-8.66699 8.66699 -18 14 -28 16v50l158 92c42 -21.333 71.333 -66.333 88 -135c6 -23.333 9 -50.666 9 -81.999s-5 -61.666 -15 -90.999s-22.667 -55.333 -38 -78
c-28.667 -45.333 -61.667 -76 -99 -92l-75 41v26zM194 1522h228v-1347h604v-175h-832v1522z" />
    <glyph glyph-name="lcommaaccent" unicode="&#x13c;" horiz-adv-x="613" 
d="M202 -493c26 31.333 39 79.665 39 144.998c0 44.667 -13 80.667 -39 108c-8.66699 8.66699 -18 14 -28 16v50l158 92c42 -21.333 71.333 -66.333 88 -135c6 -23.333 9 -50.666 9 -81.999s-5 -61.666 -15 -90.999s-22.667 -55.333 -38 -78
c-28.667 -45.333 -61.667 -76 -99 -92l-75 41v26zM197 1664h220v-1664h-220v1664z" />
    <glyph glyph-name="Lcaron" unicode="&#x13d;" horiz-adv-x="1080" 
d="M194 1522h228v-1347h604v-175h-832v1522zM911 1687c41.333 -38.667 61.998 -119.001 61.998 -241.001c0 -125.333 -26.667 -238.666 -80 -339.999c-15.333 -28.667 -31 -52.667 -47 -72l-110 34l-8 28c5.33301 18.667 10.833 36.5 16.5 53.5s10.834 35.833 15.501 56.5
c10.667 48 16 94.5 16 139.5s-1.66699 77.667 -5 98s-7.66602 39.833 -12.999 58.5c-10.667 36 -23 63.667 -37 83l14 47z" />
    <glyph glyph-name="lcaron" unicode="&#x13e;" horiz-adv-x="790" 
d="M197 1664h220v-1664h-220v1664zM753 1687c41.333 -38.667 61.998 -119.001 61.998 -241.001c0 -125.333 -26.667 -238.666 -80 -339.999c-15.333 -28.667 -31 -52.667 -47 -72l-110 34l-8 28c5.33301 18.667 10.833 36.5 16.5 53.5s10.834 35.833 15.501 56.5
c10.667 48 16 94.5 16 139.5s-1.66699 77.667 -5 98s-7.66602 39.833 -12.999 58.5c-10.667 36 -23 63.667 -37 83l14 47z" />
    <glyph glyph-name="Ldot" unicode="&#x13f;" horiz-adv-x="1357" 
d="M951 727c-13.333 13.333 -24.333 29.6689 -33 49.002s-13 40.5 -13 63.5s4.33301 44.667 13 65s20.667 38.166 36 53.499c32.667 34.667 65.5 52 98.5 52s58.5 -4 76.5 -12s33 -19 45 -33c26 -29.333 39 -60.833 39 -94.5s-4.16699 -60.834 -12.5 -81.501
s-19.833 -39 -34.5 -55c-32.667 -33.333 -71 -50 -115 -50c-38 0 -71.333 14.333 -100 43zM194 1522h228v-1347h604v-175h-832v1522z" />
    <glyph glyph-name="ldot" unicode="&#x140;" horiz-adv-x="1026" 
d="M197 1664h220v-1664h-220v1664zM718 732c-13.333 13.333 -24.333 29.6689 -33 49.002s-13 40.5 -13 63.5s4.33301 44.667 13 65s20.667 38.166 36 53.499c32.667 34.667 65.5 52 98.5 52s58.5 -4 76.5 -12s33 -19 45 -33c26 -29.333 39 -60.833 39 -94.5
s-4.16699 -60.834 -12.5 -81.501s-19.833 -39 -34.5 -55c-32.667 -33.333 -71 -50 -115 -50c-38 0 -71.333 14.333 -100 43z" />
    <glyph glyph-name="Lslash" unicode="&#x141;" horiz-adv-x="1080" 
d="M194 613l-123 -45l-53 136l176 65v753h228v-669l390 144l53 -138l-443 -163v-521h604v-175h-832v613z" />
    <glyph glyph-name="lslash" unicode="&#x142;" horiz-adv-x="613" 
d="M197 749l-147 -56v151l147 59v761h220v-673l199 80v-161l-199 -76v-834h-220v749z" />
    <glyph glyph-name="Nacute" unicode="&#x143;" horiz-adv-x="1556" 
d="M664 1665c1.33301 0.666992 10.5 8.83301 27.5 24.5l63.5 57l81.5 73l81.5 74.5c58 53.333 87.667 82 89 86l146 -133c-79.333 -82 -179 -157.667 -299 -227c-36 -21.333 -68.333 -37 -97 -47zM193 1522h204l651 -1005l123 -226l-13 254v977h205v-1522h-207l-630 967
l-140 249l12 -264v-952h-205v1522z" />
    <glyph glyph-name="nacute" unicode="&#x144;" horiz-adv-x="1279" 
d="M580 1384c162 177.333 274.668 310.333 338.001 399l156 -135c-22.667 -40 -83.334 -106 -182.001 -198c-97.333 -90 -164.333 -142 -201 -156zM176.001 1138l196.001 0.000976562l1 -120c83.333 57.333 178 98.666 284 123.999c44 10 90 15 138 15
s92.667 -7.16699 134 -21.5s75.666 -39.166 102.999 -74.499c51.333 -67.333 77 -184.333 77 -351v-710h-220v711c0 100 -13.333 169 -40 207c-26.667 38.667 -74.667 58 -144 58c-75.333 0 -154.333 -21 -237 -63c-25.333 -12.667 -49.333 -27.334 -72 -44.001v-869h-220
v1138z" />
    <glyph glyph-name="Ncommaaccent" unicode="&#x145;" horiz-adv-x="1556" 
d="M656 -493c26 31.333 39 79.665 39 144.998c0 44.667 -13 80.667 -39 108c-8.66699 8.66699 -18 14 -28 16v50l158 92c42 -21.333 71.333 -66.333 88 -135c6 -23.333 9 -50.666 9 -81.999s-5 -61.666 -15 -90.999s-22.667 -55.333 -38 -78
c-28.667 -45.333 -61.667 -76 -99 -92l-75 41v26zM193 1522h204l651 -1005l123 -226l-13 254v977h205v-1522h-207l-630 967l-140 249l12 -264v-952h-205v1522z" />
    <glyph glyph-name="ncommaaccent" unicode="&#x146;" horiz-adv-x="1279" 
d="M566 -493c26 31.333 39 79.665 39 144.998c0 44.667 -13 80.667 -39 108c-8.66699 8.66699 -18 14 -28 16v50l158 92c42 -21.333 71.333 -66.333 88 -135c6 -23.333 9 -50.666 9 -81.999s-5 -61.666 -15 -90.999s-22.667 -55.333 -38 -78
c-28.667 -45.333 -61.667 -76 -99 -92l-75 41v26zM176 1138l196.001 0.000976562l1 -120c83.333 57.333 178 98.666 284 123.999c44 10 90 15 138 15s92.667 -7.16699 134 -21.5s75.666 -39.166 102.999 -74.499c51.333 -67.333 77 -184.333 77 -351v-710h-220v711
c0 100 -13.333 169 -40 207c-26.667 38.667 -74.667 58 -144 58c-75.333 0 -154.333 -21 -237 -63c-25.333 -12.667 -49.333 -27.334 -72 -44.001v-869h-220v1138z" />
    <glyph glyph-name="Ncaron" unicode="&#x147;" horiz-adv-x="1556" 
d="M449 1930l128 60l216 -174l221 174l120 -57l-242 -263h-197zM193 1522h204l651 -1005l123 -226l-13 254v977h205v-1522h-207l-630 967l-140 249l12 -264v-952h-205v1522z" />
    <glyph glyph-name="ncaron" unicode="&#x148;" horiz-adv-x="1279" 
d="M338 1654l126 56l249 -223l232 222l135 -56l-268 -332h-198zM176 1138l196.001 0.000976562l1 -120c83.333 57.333 178 98.666 284 123.999c44 10 90 15 138 15s92.667 -7.16699 134 -21.5s75.666 -39.166 102.999 -74.499c51.333 -67.333 77 -184.333 77 -351v-710h-220
v711c0 100 -13.333 169 -40 207c-26.667 38.667 -74.667 58 -144 58c-75.333 0 -154.333 -21 -237 -63c-25.333 -12.667 -49.333 -27.334 -72 -44.001v-869h-220v1138z" />
    <glyph glyph-name="napostrophe" unicode="&#x149;" horiz-adv-x="1279" 
d="M566 -493c26 31.333 39 79.665 39 144.998c0 44.667 -13 80.667 -39 108c-8.66699 8.66699 -18 14 -28 16v50l158 92c42 -21.333 71.333 -66.333 88 -135c6 -23.333 9 -50.666 9 -81.999s-5 -61.666 -15 -90.999s-22.667 -55.333 -38 -78
c-28.667 -45.333 -61.667 -76 -99 -92l-75 41v26zM176 1138l196.001 0.000976562l1 -120c83.333 57.333 178 98.666 284 123.999c44 10 90 15 138 15s92.667 -7.16699 134 -21.5s75.666 -39.166 102.999 -74.499c51.333 -67.333 77 -184.333 77 -351v-710h-220v711
c0 100 -13.333 169 -40 207c-26.667 38.667 -74.667 58 -144 58c-75.333 0 -154.333 -21 -237 -63c-25.333 -12.667 -49.333 -27.334 -72 -44.001v-869h-220v1138z" />
    <glyph glyph-name="Eng" unicode="&#x14a;" horiz-adv-x="1584" 
d="M193 1522h205.001l677 -1014l111 -207l-15 240v981h219v-983c0 -93.333 -0.333008 -180.5 -1 -261.5s-7 -149.833 -19 -206.5s-28.333 -104.667 -49 -144s-45.167 -75.166 -73.5 -107.499s-59.833 -61.5 -94.5 -87.5s-70.334 -48.667 -107.001 -68
c-72.667 -36.667 -146.667 -60 -222 -70l-57 105c92 25.333 177.667 71.666 257 138.999c86 72.667 129 141.667 129 207l-628 931l-123 218l10 -239v-955h-217z" />
    <glyph glyph-name="eng" unicode="&#x14b;" horiz-adv-x="1279" 
d="M638 -341c19.333 -7.33301 49.5 -11 90.5 -11s70.833 4.83301 89.5 14.5s33.334 26.167 44.001 49.5c18 42 27 123 27 243v756c0 98.667 -13 166.334 -39 203.001c-26.667 40 -75.667 60 -147 60c-74.667 0 -153 -20.333 -235 -61
c-25.333 -12.667 -49.333 -27.334 -72 -44.001v-869h-220v1138h195l1 -120c82.667 56.667 177.667 98 285 124c44 10 90 15 138 15s92.667 -7 134 -21s75.666 -38.333 102.999 -73c51.333 -66.667 77 -183 77 -349v-730c0 -327.333 -105.667 -491 -317 -491
c-80.667 0 -132 4.66699 -154 14v152z" />
    <glyph glyph-name="Omacron" unicode="&#x14c;" horiz-adv-x="1569" 
d="M537 1891h547v-162h-547v162zM100 751c0 133.333 19.5 249.667 58.5 349s90.5 181 154.5 245c128.667 128.667 293.667 193 495 193c202.667 0 364.334 -70.667 485.001 -212c117.333 -136.667 176 -317.667 176 -543c0 -255.333 -65.833 -452.333 -197.5 -591
s-299.834 -208 -504.501 -208s-367 71.5 -487 214.5s-180 327.167 -180 552.5zM799 155.001c60 0 118.166 13.334 174.499 40.001s104.5 66 144.5 118c83.333 108.667 125 261.667 125 459c0 169.333 -37 308.666 -111 417.999c-81.333 118.667 -191.666 178 -330.999 178
c-137.333 0 -249 -49.333 -335 -148c-94 -109.333 -141 -263.333 -141 -462c0 -168.667 38.667 -308.667 116 -420c84.667 -122 204 -183 358 -183z" />
    <glyph glyph-name="omacron" unicode="&#x14d;" horiz-adv-x="1213" 
d="M344 1588h547v-163h-547v163zM582 -16c-82 0 -154.669 16.667 -218.002 50c-178.667 92 -268 273 -268 543c0 187.333 50.667 332.333 152 435c94.667 96 217.334 144 368.001 144c172 0 301.667 -61 389 -183c74.667 -104.667 112 -244 112 -418
c0 -180.667 -51 -323 -153 -427c-93.333 -96 -220.666 -144 -381.999 -144zM820.498 247.5c49 71.667 73.5 174.5 73.5 308.5c0 202.667 -52 338 -156 406c-37.333 24 -82.333 36 -135 36c-92 0 -162.333 -35 -211 -105s-73 -170.667 -73 -302
c0 -129.333 24.333 -236.833 73 -322.5s120 -128.5 214 -128.5s165.5 35.833 214.5 107.5z" />
    <glyph glyph-name="Obreve" unicode="&#x14e;" horiz-adv-x="1569" 
d="M956.5 1659.5c-44.333 -18.333 -94.668 -27.501 -151.001 -27.501s-106.5 9.33301 -150.5 28c-89.333 36.667 -147.666 97 -174.999 181c-10 31.333 -15 58 -15 80s0.333008 38.333 1 49h153c0 -79.333 36.333 -130.666 109 -153.999
c21.333 -7.33301 47.833 -11 79.5 -11s58.5 3.5 80.5 10.5s40.167 16 54.5 27s25.333 23 33 36s13.5 25.5 17.5 37.5c5.33301 19.333 8 37.333 8 54h149c0.666992 -10 1 -26 1 -48s-6.33301 -51.167 -19 -87.5s-34 -70 -64 -101s-67.167 -55.667 -111.5 -74zM99.998 750.999
c0 133.333 19.5 249.667 58.5 349s90.5 181 154.5 245c128.667 128.667 293.667 193 495 193c202.667 0 364.334 -70.667 485.001 -212c117.333 -136.667 176 -317.667 176 -543c0 -255.333 -65.833 -452.333 -197.5 -591s-299.834 -208 -504.501 -208s-367 71.5 -487 214.5
s-180 327.167 -180 552.5zM798.998 155c60 0 118.166 13.334 174.499 40.001s104.5 66 144.5 118c83.333 108.667 125 261.667 125 459c0 169.333 -37 308.666 -111 417.999c-81.333 118.667 -191.666 178 -330.999 178c-137.333 0 -249 -49.333 -335 -148
c-94 -109.333 -141 -263.333 -141 -462c0 -168.667 38.667 -308.667 116 -420c84.667 -122 204 -183 358 -183z" />
    <glyph glyph-name="obreve" unicode="&#x14f;" horiz-adv-x="1213" 
d="M582 -16c-82 0 -154.669 16.667 -218.002 50c-178.667 92 -268 273 -268 543c0 187.333 50.667 332.333 152 435c94.667 96 217.334 144 368.001 144c172 0 301.667 -61 389 -183c74.667 -104.667 112 -244 112 -418c0 -180.667 -51 -323 -153 -427
c-93.333 -96 -220.666 -144 -381.999 -144zM820.498 247.5c49 71.667 73.5 174.5 73.5 308.5c0 202.667 -52 338 -156 406c-37.333 24 -82.333 36 -135 36c-92 0 -162.333 -35 -211 -105s-73 -170.667 -73 -302c0 -129.333 24.333 -236.833 73 -322.5s120 -128.5 214 -128.5
s165.5 35.833 214.5 107.5zM763.498 1340c-44.333 -21.333 -94.334 -32.001 -150.001 -32.001s-105.5 10.667 -149.5 32c-88 42 -146.667 110.667 -176 206c-10.667 35.333 -16 64.666 -16 87.999s0.333008 40.333 1 51h154c0 -97.333 36.333 -161 109 -191
c22 -9.33301 48.833 -14 80.5 -14s58.5 4.5 80.5 13.5s40 20.333 54 34s24.833 28.667 32.5 45s13.5 32.166 17.5 47.499c5.33301 20.667 8 42.334 8 65.001h150c0.666992 -10 1 -26.833 1 -50.5s-6.5 -55.667 -19.5 -96s-34.667 -78.166 -65 -113.499
s-67.666 -63.666 -111.999 -84.999z" />
    <glyph glyph-name="Ohungarumlaut" unicode="&#x150;" horiz-adv-x="1569" 
d="M100 751c0 133.333 19.5 249.667 58.5 349s90.5 181 154.5 245c128.667 128.667 293.667 193 495 193c202.667 0 364.334 -70.667 485.001 -212c117.333 -136.667 176 -317.667 176 -543c0 -255.333 -65.833 -452.333 -197.5 -591s-299.834 -208 -504.501 -208
s-367 71.5 -487 214.5s-180 327.167 -180 552.5zM799 155.001c60 0 118.166 13.334 174.499 40.001s104.5 66 144.5 118c83.333 108.667 125 261.667 125 459c0 169.333 -37 308.666 -111 417.999c-81.333 118.667 -191.666 178 -330.999 178
c-137.333 0 -249 -49.333 -335 -148c-94 -109.333 -141 -263.333 -141 -462c0 -168.667 38.667 -308.667 116 -420c84.667 -122 204 -183 358 -183zM448.999 1710c3.33301 3.33301 17.168 22 41.501 56l62.5 87l48 67c35.333 49.333 53.666 76 54.999 80l172 -87
c-98.667 -138 -183.667 -228.667 -255 -272zM917.001 1710c5.33301 5.33301 20.333 24 45 56l64 83l51 66c36.667 48.667 55.334 74.334 56.001 77.001l163 -88c-92.667 -130.667 -177.334 -218.334 -254.001 -263.001z" />
    <glyph glyph-name="ohungarumlaut" unicode="&#x151;" horiz-adv-x="1213" 
d="M243 1418l259 408l162 -111c-46 -79.333 -117.667 -170.333 -215 -273c-46 -47.333 -80.333 -79 -103 -95zM742 1418l267 399l155 -110c-40 -74 -111 -163 -213 -267c-46 -46.667 -82 -77.667 -108 -93zM582 -16c-82 0 -154.669 16.667 -218.002 50
c-178.667 92 -268 273 -268 543c0 187.333 50.667 332.333 152 435c94.667 96 217.334 144 368.001 144c172 0 301.667 -61 389 -183c74.667 -104.667 112 -244 112 -418c0 -180.667 -51 -323 -153 -427c-93.333 -96 -220.666 -144 -381.999 -144zM820.498 247.5
c49 71.667 73.5 174.5 73.5 308.5c0 202.667 -52 338 -156 406c-37.333 24 -82.333 36 -135 36c-92 0 -162.333 -35 -211 -105s-73 -170.667 -73 -302c0 -129.333 24.333 -236.833 73 -322.5s120 -128.5 214 -128.5s165.5 35.833 214.5 107.5z" />
    <glyph glyph-name="OE" unicode="&#x152;" horiz-adv-x="2063" 
d="M1040 50c-79.333 -44 -170.667 -66 -274 -66s-196 19 -278 57c-167.333 78 -282.333 215.333 -345 412c-28.667 90.667 -43 189 -43 295c0 253.333 67.667 449.333 203 588c131.333 134.667 305.333 202 522 202c80 0 151.667 -13.333 215 -40v24h876v-172h-653v-480h479
v-172h-479v-523h726v-175h-949v50zM1040 1309c-62 40 -133.167 60 -213.5 60s-149.166 -11.833 -206.499 -35.5s-108 -60.5 -152 -110.5c-96 -109.333 -144 -264.333 -144 -465c0 -170 39 -311.333 117 -424c84.667 -121.333 199 -182 343 -182
c101.333 0 186.666 26.667 255.999 80v1077z" />
    <glyph glyph-name="oe" unicode="&#x153;" horiz-adv-x="1920" 
d="M998 175c-94 -127.333 -228.999 -191 -404.999 -191c-171.333 0 -300.333 61 -387 183c-73.333 104 -110 240.667 -110 410c0 186 50.667 331 152 435c94 96 216.667 144 368 144c174.667 0 304.667 -64.333 390 -193c93.333 128.667 227.666 193 402.999 193
c117.333 0 213 -35.333 287 -106c80.667 -78.667 123 -186.667 127 -324c0 -101.333 -3.66699 -169.333 -11 -204h-703c10 -198.667 82 -316.667 216 -354c40.667 -11.333 77.334 -17 110.001 -17s62.667 1.66699 90 5s55 7.66602 83 12.999
c61.333 12 106.666 26.333 135.999 43l42 -126c-55.333 -45.333 -148.666 -76.666 -279.999 -93.999c-37.333 -5.33301 -73 -8 -107 -8c-180.667 0 -314.334 63.667 -401.001 191zM1617 712c0 192 -75.667 287.999 -227 287.999c-160 0 -252 -110.667 -276 -332h502
c0.666992 14.667 1 29.334 1 44.001zM819.501 247.499c50.333 71.667 75.502 174.5 75.502 308.5c0 202.667 -52.667 338 -158 406c-37.333 24 -80 36 -128 36s-89.833 -8.5 -125.5 -25.5s-65.5 -42.833 -89.5 -77.5c-50 -70.667 -75 -172 -75 -304
c0 -128.667 24.167 -236 72.5 -322s119.166 -129 212.499 -129s165.166 35.833 215.499 107.5z" />
    <glyph glyph-name="Racute" unicode="&#x154;" horiz-adv-x="1367" 
d="M194 1522h96.998c50 0 108.667 2.66699 176 8s138.833 8 214.5 8s145.334 -8 209.001 -24s118.167 -41.333 163.5 -76c95.333 -72.667 143 -182 143 -328c0 -112 -24.5 -202.833 -73.5 -272.5s-116.167 -119.5 -201.5 -149.5c56.667 -38.667 115.334 -124 176.001 -256
l50 -110c53.333 -124 106 -231.333 158 -322h-253c-9.33301 13.333 -19 31.333 -29 54l-31 68c-10.667 22.667 -22.667 52 -36 88l-42 109.5c-14.667 37 -30 73.333 -46 109s-33.333 68.5 -52 98.5c-41.333 66 -86.333 107 -135 123c-30 -1.33301 -66 -2 -108 -2h-157v-648
h-223v1522zM618.998 1374c-77.333 0 -144.668 -6.00098 -202.001 -18.001v-550c32 -4 75.667 -6 131 -6h104c211.333 0 317 99.667 317 299c0 96.667 -24.333 166.334 -73 209.001c-51.333 44 -143.666 66 -276.999 66zM581.996 1665
c1.33301 0.666992 10.5 8.83301 27.5 24.5l63.5 57l81.5 73l81.5 74.5c58 53.333 87.667 82 89 86l146 -133c-79.333 -82 -179 -157.667 -299 -227c-36 -21.333 -68.333 -37 -97 -47z" />
    <glyph glyph-name="racute" unicode="&#x155;" horiz-adv-x="819" 
d="M360 1384c162 177.333 274.668 310.333 338.001 399l156 -135c-22.667 -40 -83.334 -106 -182.001 -198c-97.333 -90 -164.333 -142 -201 -156zM637.001 964c-95.333 0 -178.334 -31.667 -249.001 -95v-869h-220v1138h185l14 -126c44 58 115 101.333 213 130
c32 10 69.333 15 112 15s74.334 -4.66699 95.001 -14v-206c-36 18 -86 27 -150 27z" />
    <glyph glyph-name="Rcommaaccent" unicode="&#x156;" horiz-adv-x="1367" 
d="M602 -493c26 31.333 39 79.665 39 144.998c0 44.667 -13 80.667 -39 108c-8.66699 8.66699 -18 14 -28 16v50l158 92c42 -21.333 71.333 -66.333 88 -135c6 -23.333 9 -50.666 9 -81.999s-5 -61.666 -15 -90.999s-22.667 -55.333 -38 -78
c-28.667 -45.333 -61.667 -76 -99 -92l-75 41v26zM194 1522h96.998c50 0 108.667 2.66699 176 8s138.833 8 214.5 8s145.334 -8 209.001 -24s118.167 -41.333 163.5 -76c95.333 -72.667 143 -182 143 -328c0 -112 -24.5 -202.833 -73.5 -272.5
s-116.167 -119.5 -201.5 -149.5c56.667 -38.667 115.334 -124 176.001 -256l50 -110c53.333 -124 106 -231.333 158 -322h-253c-9.33301 13.333 -19 31.333 -29 54l-31 68c-10.667 22.667 -22.667 52 -36 88l-42 109.5c-14.667 37 -30 73.333 -46 109s-33.333 68.5 -52 98.5
c-41.333 66 -86.333 107 -135 123c-30 -1.33301 -66 -2 -108 -2h-157v-648h-223v1522zM618.998 1374c-77.333 0 -144.668 -6.00098 -202.001 -18.001v-550c32 -4 75.667 -6 131 -6h104c211.333 0 317 99.667 317 299c0 96.667 -24.333 166.334 -73 209.001
c-51.333 44 -143.666 66 -276.999 66z" />
    <glyph glyph-name="rcommaaccent" unicode="&#x157;" horiz-adv-x="819" 
d="M185 -493c26 31.333 39 79.665 39 144.998c0 44.667 -13 80.667 -39 108c-8.66699 8.66699 -18 14 -28 16v50l158 92c42 -21.333 71.333 -66.333 88 -135c6 -23.333 9 -50.666 9 -81.999s-5 -61.666 -15 -90.999s-22.667 -55.333 -38 -78
c-28.667 -45.333 -61.667 -76 -99 -92l-75 41v26zM637 963.999c-95.333 0 -178.334 -31.667 -249.001 -95v-869h-220v1138h185l14 -126c44 58 115 101.333 213 130c32 10 69.333 15 112 15s74.334 -4.66699 95.001 -14v-206c-36 18 -86 27 -150 27z" />
    <glyph glyph-name="Rcaron" unicode="&#x158;" horiz-adv-x="1367" 
d="M367 1930l128 60l216 -174l221 174l120 -57l-242 -263h-197zM194 1522h96.998c50 0 108.667 2.66699 176 8s138.833 8 214.5 8s145.334 -8 209.001 -24s118.167 -41.333 163.5 -76c95.333 -72.667 143 -182 143 -328c0 -112 -24.5 -202.833 -73.5 -272.5
s-116.167 -119.5 -201.5 -149.5c56.667 -38.667 115.334 -124 176.001 -256l50 -110c53.333 -124 106 -231.333 158 -322h-253c-9.33301 13.333 -19 31.333 -29 54l-31 68c-10.667 22.667 -22.667 52 -36 88l-42 109.5c-14.667 37 -30 73.333 -46 109s-33.333 68.5 -52 98.5
c-41.333 66 -86.333 107 -135 123c-30 -1.33301 -66 -2 -108 -2h-157v-648h-223v1522zM618.998 1374c-77.333 0 -144.668 -6.00098 -202.001 -18.001v-550c32 -4 75.667 -6 131 -6h104c211.333 0 317 99.667 317 299c0 96.667 -24.333 166.334 -73 209.001
c-51.333 44 -143.666 66 -276.999 66z" />
    <glyph glyph-name="rcaron" unicode="&#x159;" horiz-adv-x="819" 
d="M118 1654l126 56l249 -223l232 222l135 -56l-268 -332h-198zM637 964c-95.333 0 -178.334 -31.667 -249.001 -95v-869h-220v1138h185l14 -126c44 58 115 101.333 213 130c32 10 69.333 15 112 15s74.334 -4.66699 95.001 -14v-206c-36 18 -86 27 -150 27z" />
    <glyph glyph-name="Sacute" unicode="&#x15a;" horiz-adv-x="1132" 
d="M540 161c202 0 302.998 70.332 302.998 210.999c0 68.667 -29.333 127.334 -88 176.001c-39.333 32.667 -102.5 70 -189.5 112s-153.333 78 -199 108s-86.5 64 -122.5 102c-79.333 84.667 -119 177 -119 277c0 174.667 88.333 293 265 355c70 24 139.167 36 207.5 36
s121.333 -2.5 159 -7.5s71.167 -11.167 100.5 -18.5c52.667 -14 95.334 -31.667 128.001 -53l-45 -176c-86.667 53.333 -190.667 80 -312 80c-129.333 0 -217.666 -33.667 -264.999 -101c-16.667 -24 -25 -53.5 -25 -88.5s5.5 -66 16.5 -93s28.833 -51.833 53.5 -74.5
c36.667 -35.333 92.834 -72.333 168.501 -111s130.167 -67.334 163.5 -86.001s65.666 -38.5 96.999 -59.5s60.666 -43.667 87.999 -68s51 -50.833 71 -79.5c44 -62.667 66 -130 66 -202s-12.5 -134 -37.5 -186s-59.833 -95 -104.5 -129
c-88.667 -67.333 -210.334 -101 -365.001 -101c-140.667 0 -262.667 19.333 -366 58c-27.333 10.667 -47.666 20.334 -60.999 29.001l53 183c67.333 -40.667 152.333 -69 255 -85c34.667 -5.33301 69.334 -8 104.001 -8zM474.998 1665
c1.33301 0.666992 10.5 8.83301 27.5 24.5l63.5 57l81.5 73l81.5 74.5c58 53.333 87.667 82 89 86l146 -133c-79.333 -82 -179 -157.667 -299 -227c-36 -21.333 -68.333 -37 -97 -47z" />
    <glyph glyph-name="sacute" unicode="&#x15b;" horiz-adv-x="977" 
d="M380 1384c162 177.333 274.668 310.333 338.001 399l156 -135c-22.667 -40 -83.334 -106 -182.001 -198c-97.333 -90 -164.333 -142 -201 -156zM145.001 229c45.333 -30 116.333 -53.6689 213 -71.002c39.333 -7.33301 84 -11 134 -11s92.5 12.167 127.5 36.5
s52.5 58.833 52.5 103.5c0 59.333 -48 112.666 -144 159.999c-28 14 -61.5 29.333 -100.5 46s-78.167 36.334 -117.5 59.001c-127.333 75.333 -191 176 -191 302c0 97.333 41 173.333 123 228c73.333 49.333 169.666 74 288.999 74c90.667 0 173.667 -14 249 -42
c18 -6.66699 31.333 -12.334 40 -17.001l-36 -166c-32 26.667 -88 45.667 -168 57c-25.333 4 -51.333 6 -78 6c-70.667 0 -124.334 -11.167 -161.001 -33.5s-55 -49.666 -55 -81.999s4.83301 -58.166 14.5 -77.499s24.167 -37 43.5 -53
c31.333 -27.333 75.833 -52.666 133.5 -75.999s106.334 -45.5 146.001 -66.5s75.834 -45.5 108.501 -73.5c72.667 -64 109 -140.333 109 -229c0 -102.667 -36.333 -181.667 -109 -237c-70 -54.667 -167.667 -82 -293 -82c-114.667 0 -216.334 17.333 -305.001 52
c-25.333 9.33301 -44.666 19 -57.999 29z" />
    <glyph glyph-name="Scircumflex" unicode="&#x15c;" horiz-adv-x="1132" 
d="M540 161c202 0 302.998 70.332 302.998 210.999c0 68.667 -29.333 127.334 -88 176.001c-39.333 32.667 -102.5 70 -189.5 112s-153.333 78 -199 108s-86.5 64 -122.5 102c-79.333 84.667 -119 177 -119 277c0 174.667 88.333 293 265 355c70 24 139.167 36 207.5 36
s121.333 -2.5 159 -7.5s71.167 -11.167 100.5 -18.5c52.667 -14 95.334 -31.667 128.001 -53l-45 -176c-86.667 53.333 -190.667 80 -312 80c-129.333 0 -217.666 -33.667 -264.999 -101c-16.667 -24 -25 -53.5 -25 -88.5s5.5 -66 16.5 -93s28.833 -51.833 53.5 -74.5
c36.667 -35.333 92.834 -72.333 168.501 -111s130.167 -67.334 163.5 -86.001s65.666 -38.5 96.999 -59.5s60.666 -43.667 87.999 -68s51 -50.833 71 -79.5c44 -62.667 66 -130 66 -202s-12.5 -134 -37.5 -186s-59.833 -95 -104.5 -129
c-88.667 -67.333 -210.334 -101 -365.001 -101c-140.667 0 -262.667 19.333 -366 58c-27.333 10.667 -47.666 20.334 -60.999 29.001l53 183c67.333 -40.667 152.333 -69 255 -85c34.667 -5.33301 69.334 -8 104.001 -8zM244.998 1689l259 301h197l262 -298l-144 -60
l-216 202l-221 -202z" />
    <glyph glyph-name="scircumflex" unicode="&#x15d;" horiz-adv-x="977" 
d="M136 1349l276 333h198l268 -332l-135 -56l-232 222l-249 -223zM145 229c45.333 -30 116.333 -53.6689 213 -71.002c39.333 -7.33301 84 -11 134 -11s92.5 12.167 127.5 36.5s52.5 58.833 52.5 103.5c0 59.333 -48 112.666 -144 159.999c-28 14 -61.5 29.333 -100.5 46
s-78.167 36.334 -117.5 59.001c-127.333 75.333 -191 176 -191 302c0 97.333 41 173.333 123 228c73.333 49.333 169.666 74 288.999 74c90.667 0 173.667 -14 249 -42c18 -6.66699 31.333 -12.334 40 -17.001l-36 -166c-32 26.667 -88 45.667 -168 57
c-25.333 4 -51.333 6 -78 6c-70.667 0 -124.334 -11.167 -161.001 -33.5s-55 -49.666 -55 -81.999s4.83301 -58.166 14.5 -77.499s24.167 -37 43.5 -53c31.333 -27.333 75.833 -52.666 133.5 -75.999s106.334 -45.5 146.001 -66.5s75.834 -45.5 108.501 -73.5
c72.667 -64 109 -140.333 109 -229c0 -102.667 -36.333 -181.667 -109 -237c-70 -54.667 -167.667 -82 -293 -82c-114.667 0 -216.334 17.333 -305.001 52c-25.333 9.33301 -44.666 19 -57.999 29z" />
    <glyph glyph-name="Scedilla" unicode="&#x15e;" horiz-adv-x="1132" 
d="M374 -308c88 0 132 73.001 132 219.001c0 28 -3 53 -9 75c-120.667 5.33301 -225.667 25.333 -315 60c-24 8.66699 -42 17 -54 25l53 183c67.333 -40.667 152.333 -69 255 -85c34.667 -5.33301 69.334 -8 104.001 -8c202 0 303 70.333 303 211
c0 68.667 -29.333 127.334 -88 176.001c-39.333 32.667 -102.5 70 -189.5 112s-153.333 78 -199 108s-86.5 64 -122.5 102c-79.333 84.667 -119 177 -119 277c0 174.667 88.333 293 265 355c70 24 139.167 36 207.5 36s121.333 -2.5 159 -7.5s71.167 -11.167 100.5 -18.5
c52.667 -14 95.334 -31.667 128.001 -53l-45 -176c-86.667 53.333 -190.667 80 -312 80c-129.333 0 -217.666 -33.667 -264.999 -101c-16.667 -24 -25 -53.5 -25 -88.5s5.5 -66 16.5 -93s28.833 -51.833 53.5 -74.5c36.667 -35.333 92.834 -72.333 168.501 -111
s130.167 -67.334 163.5 -86.001s65.666 -38.5 96.999 -59.5s60.666 -43.667 87.999 -68s51 -50.833 71 -79.5c44 -62.667 66 -128.334 66 -197.001s-10.333 -127.334 -31 -176.001s-49.667 -90 -87 -124c-73.333 -66.667 -176.333 -105.667 -309 -117
c20.667 -42.667 31 -97.667 31 -165c0 -149.333 -52.667 -240.666 -158 -273.999c-27.333 -8.66699 -51.5 -13 -72.5 -13s-39 0.666992 -54 2s-29.167 3.33301 -42.5 6c-30.667 6 -51.334 12.667 -62.001 20l15 142c15.333 -9.33301 42.666 -14 81.999 -14z" />
    <glyph glyph-name="scedilla" unicode="&#x15f;" horiz-adv-x="977" 
d="M304 -308c88 0 132.003 72.9971 132.003 218.997c0 27.333 -3 52 -9 74c-102.667 6 -191 24 -265 54c-21.333 8.66699 -38 17.334 -50 26.001l33 164c45.333 -30 116.333 -53.667 213 -71c39.333 -7.33301 84 -11 134 -11s92.5 12.167 127.5 36.5s52.5 58.833 52.5 103.5
c0 59.333 -48 112.666 -144 159.999c-28 14 -61.5 29.333 -100.5 46s-78.167 36.334 -117.5 59.001c-127.333 75.333 -191 176 -191 302c0 97.333 41 173.333 123 228c73.333 49.333 169.666 74 288.999 74c90.667 0 173.667 -14 249 -42
c18 -6.66699 31.333 -12.334 40 -17.001l-36 -166c-32 26.667 -88 45.667 -168 57c-25.333 4 -51.333 6 -78 6c-70.667 0 -124.334 -11.167 -161.001 -33.5s-55 -49.666 -55 -81.999s4.83301 -58.166 14.5 -77.499s24.167 -37 43.5 -53
c31.333 -27.333 75.833 -52.666 133.5 -75.999s106.334 -45.5 146.001 -66.5s75.834 -45.5 108.501 -73.5c72.667 -64 109 -140.333 109 -229c0 -134.667 -60.333 -227.667 -181 -279c-38.667 -16.667 -82.334 -28 -131.001 -34c20.667 -42.667 31 -98 31 -166
c0 -150 -52.667 -241.667 -158 -275c-27.333 -8.66699 -51.5 -13 -72.5 -13s-39 0.666992 -54 2s-29.167 3.33301 -42.5 6c-30.667 6 -51.334 12.667 -62.001 20l15 142c15.333 -9.33301 42.666 -14 81.999 -14z" />
    <glyph glyph-name="Scaron" unicode="&#x160;" horiz-adv-x="1132" 
d="M540 161c202 0 302.998 70.332 302.998 210.999c0 68.667 -29.333 127.334 -88 176.001c-39.333 32.667 -102.5 70 -189.5 112s-153.333 78 -199 108s-86.5 64 -122.5 102c-79.333 84.667 -119 177 -119 277c0 174.667 88.333 293 265 355c70 24 139.167 36 207.5 36
s121.333 -2.5 159 -7.5s71.167 -11.167 100.5 -18.5c52.667 -14 95.334 -31.667 128.001 -53l-45 -176c-86.667 53.333 -190.667 80 -312 80c-129.333 0 -217.666 -33.667 -264.999 -101c-16.667 -24 -25 -53.5 -25 -88.5s5.5 -66 16.5 -93s28.833 -51.833 53.5 -74.5
c36.667 -35.333 92.834 -72.333 168.501 -111s130.167 -67.334 163.5 -86.001s65.666 -38.5 96.999 -59.5s60.666 -43.667 87.999 -68s51 -50.833 71 -79.5c44 -62.667 66 -130 66 -202s-12.5 -134 -37.5 -186s-59.833 -95 -104.5 -129
c-88.667 -67.333 -210.334 -101 -365.001 -101c-140.667 0 -262.667 19.333 -366 58c-27.333 10.667 -47.666 20.334 -60.999 29.001l53 183c67.333 -40.667 152.333 -69 255 -85c34.667 -5.33301 69.334 -8 104.001 -8zM259.998 1930l128 60l216 -174l221 174l120 -57
l-242 -263h-197z" />
    <glyph glyph-name="scaron" unicode="&#x161;" horiz-adv-x="977" 
d="M138 1654l126 56l249 -223l232 222l135 -56l-268 -332h-198zM145 229c45.333 -30 116.333 -53.6689 213 -71.002c39.333 -7.33301 84 -11 134 -11s92.5 12.167 127.5 36.5s52.5 58.833 52.5 103.5c0 59.333 -48 112.666 -144 159.999c-28 14 -61.5 29.333 -100.5 46
s-78.167 36.334 -117.5 59.001c-127.333 75.333 -191 176 -191 302c0 97.333 41 173.333 123 228c73.333 49.333 169.666 74 288.999 74c90.667 0 173.667 -14 249 -42c18 -6.66699 31.333 -12.334 40 -17.001l-36 -166c-32 26.667 -88 45.667 -168 57
c-25.333 4 -51.333 6 -78 6c-70.667 0 -124.334 -11.167 -161.001 -33.5s-55 -49.666 -55 -81.999s4.83301 -58.166 14.5 -77.499s24.167 -37 43.5 -53c31.333 -27.333 75.833 -52.666 133.5 -75.999s106.334 -45.5 146.001 -66.5s75.834 -45.5 108.501 -73.5
c72.667 -64 109 -140.333 109 -229c0 -102.667 -36.333 -181.667 -109 -237c-70 -54.667 -167.667 -82 -293 -82c-114.667 0 -216.334 17.333 -305.001 52c-25.333 9.33301 -44.666 19 -57.999 29z" />
    <glyph glyph-name="uni0162" unicode="&#x162;" horiz-adv-x="1303" 
d="M374 -294c15.333 -9.33301 42.668 -14 82.001 -14c88.667 0 133 73 133 219c0 32 -4.66699 61.667 -14 89h-37v1350h-475v172h1177v-172h-477v-1350h-52c24.667 -44 37 -103.667 37 -179c0 -148 -52.667 -238.667 -158 -272c-27.333 -8.66699 -51.5 -13 -72.5 -13
s-39 0.666992 -54 2s-29.167 3.33301 -42.5 6c-30.667 6 -51.334 12.667 -62.001 20z" />
    <glyph glyph-name="uni0163" unicode="&#x163;" horiz-adv-x="850" 
d="M174 -294c15.333 -9.33301 42.667 -14.001 82 -14.001c88.667 0 133 73 133 219c0 32 -4.66699 61.667 -14 89c-98 30 -147 121 -147 273v701h-148v119c24.667 7.33301 46.334 13.5 65.001 18.5s34.667 10.5 48 16.5c26.667 12.667 45 32.167 55 58.5s20.167 57 30.5 92
l36.5 121.5h132v-260h322v-166h-322v-577c0 -107.333 6 -171.666 18 -192.999s26.167 -34 42.5 -38s35 -6 56 -6s40.833 1.33301 59.5 4s37 6 55 10c42 9.33301 72 19 90 29l38 -126c-46.667 -35.333 -115 -62.333 -205 -81c-28 -5.33301 -55.667 -9 -83 -11
c20 -42 30 -96.333 30 -163c0 -148.667 -52.667 -239.667 -158 -273c-27.333 -8.66699 -51.5 -13 -72.5 -13s-39 0.666992 -54 2s-29.167 3.33301 -42.5 6c-30.667 6 -51.334 12.667 -62.001 20z" />
    <glyph glyph-name="Tcaron" unicode="&#x164;" horiz-adv-x="1303" 
d="M300 1930l128 60l216 -174l221 174l120 -57l-242 -263h-197zM538 1350h-475v172h1177v-172h-477v-1350h-225v1350z" />
    <glyph glyph-name="tcaron" unicode="&#x165;" horiz-adv-x="1047" 
d="M228 974l-148 -0.000976562v119c24.667 7.33301 46.334 13.5 65.001 18.5s34.667 10.5 48 16.5c26.667 12.667 45 32.167 55 58.5s20.167 57 30.5 92l36.5 121.5h132v-260h322v-166h-322v-577c0 -107.333 6 -171.666 18 -192.999s26.167 -34 42.5 -38s35 -6 56 -6
s40.833 1.33301 59.5 4s37 6 55 10c42 9.33301 72 19 90 29l38 -126c-54 -40 -129.333 -68.333 -226 -85c-30.667 -5.33301 -62.334 -8 -95.001 -8s-65 4 -97 12s-60 22.667 -84 44c-50.667 46 -76 123.667 -76 233v701zM986 1816
c41.333 -38.667 61.998 -119.001 61.998 -241.001c0 -125.333 -26.667 -238.666 -80 -339.999c-15.333 -28.667 -31 -52.667 -47 -72l-110 34l-8 28c5.33301 18.667 10.833 36.5 16.5 53.5s10.834 35.833 15.501 56.5c10.667 48 16 94.5 16 139.5s-1.66699 77.667 -5 98
s-7.66602 39.833 -12.999 58.5c-10.667 36 -23 63.667 -37 83l14 47z" />
    <glyph glyph-name="Tbar" unicode="&#x166;" horiz-adv-x="1303" 
d="M538 651h-289v145h289v554h-475v172h1177v-172h-477v-554h296v-145h-296v-651h-225v651z" />
    <glyph glyph-name="tbar" unicode="&#x167;" horiz-adv-x="850" 
d="M228 596l-147 -0.000976562v164h147v214h-148v119c24.667 7.33301 46.334 13.5 65.001 18.5s34.667 10.5 48 16.5c26.667 12.667 45 32.167 55 58.5s20.167 57 30.5 92l36.5 121.5h132v-260h322v-166h-322v-214h322v-164h-322v-199c0 -107.333 6 -171.666 18 -192.999
s26.167 -34 42.5 -38s35 -6 56 -6s40.833 1.33301 59.5 4s37 6 55 10c42 9.33301 72 19 90 29l38 -126c-54 -40 -129.333 -68.333 -226 -85c-30.667 -5.33301 -62.334 -8 -95.001 -8s-65 4 -97 12s-60 22.667 -84 44c-50.667 46 -76 123.667 -76 233v323z" />
    <glyph glyph-name="Utilde" unicode="&#x168;" horiz-adv-x="1463" 
d="M589 1805c-56.667 0 -115.002 -34.002 -175.002 -102.002l-85 68c23.333 56 63 102.667 119 140c54 36.667 104.5 55 151.5 55s83.333 -7.16699 109 -21.5s48.667 -30.333 69 -48s39.833 -33.667 58.5 -48s40.667 -21.5 66 -21.5c58.667 0 117 33 175 99l86 -71
c-23.333 -56 -63 -102.333 -119 -139c-54.667 -36.667 -108.667 -55 -162 -55c-45.333 0 -81.166 8.83301 -107.499 26.5s-46.166 32.834 -59.499 45.501s-26.333 24.334 -39 35.001c-29.333 24.667 -58.333 37 -87 37zM158.998 1522l223.002 0.000976562l-1 -836
c0 -200 32 -340.667 96 -422c56 -70.667 146.333 -106 271 -106c111.333 0 192.666 35.667 243.999 107c60.667 83.333 91 223.666 91 420.999v836h222v-892c0 -318 -105 -519.333 -315 -604c-70.667 -28 -156 -42 -256 -42s-186.833 14.5 -260.5 43.5
s-133.834 71.167 -180.501 126.5c-89.333 106 -134 265.667 -134 479v889z" />
    <glyph glyph-name="utilde" unicode="&#x169;" horiz-adv-x="1249" 
d="M170 1140h220v-665c0 -133.333 16 -220.333 48 -261c16.667 -20.667 38.334 -34 65.001 -40s54.667 -9 84 -9s56.333 2.66699 81 8s48.667 12 72 20c46 16 83.667 33.333 113 52v895h220v-1156h-85c-39.333 0 -65 4 -77 12c-22 14 -33 39.333 -33 76v28
c-80.667 -50.667 -171.334 -86 -272.001 -106c-34 -6.66699 -76.833 -10 -128.5 -10s-99.667 11.833 -144 35.5s-78.833 57.167 -103.5 100.5c-40 70.667 -60 188.667 -60 354v666zM483 1482c-61.333 0 -122.331 -32.334 -182.998 -97.001l-85 68
c39.333 86 100.333 145.667 183 179c28 10.667 56.167 16 84.5 16s52.666 -3.33301 72.999 -10s38.5 -15.167 54.5 -25.5s30.667 -21.333 44 -33l40 -33.5c29.333 -23.333 58 -35 86 -35c64.667 0 125.667 32.667 183 98l86 -72c-42 -89.333 -103 -148.666 -183 -177.999
c-27.333 -10 -55.833 -15 -85.5 -15s-54.834 3.33301 -75.501 10s-39.167 15.167 -55.5 25.5s-30.833 21.5 -43.5 33.5s-25.334 23 -38.001 33c-29.333 24 -57.666 36 -84.999 36z" />
    <glyph glyph-name="Umacron" unicode="&#x16a;" horiz-adv-x="1463" 
d="M474 1891h547v-162h-547v162zM159 1522l223.002 0.000976562l-1 -836c0 -200 32 -340.667 96 -422c56 -70.667 146.333 -106 271 -106c111.333 0 192.666 35.667 243.999 107c60.667 83.333 91 223.666 91 420.999v836h222v-892c0 -318 -105 -519.333 -315 -604
c-70.667 -28 -156 -42 -256 -42s-186.833 14.5 -260.5 43.5s-133.834 71.167 -180.501 126.5c-89.333 106 -134 265.667 -134 479v889z" />
    <glyph glyph-name="umacron" unicode="&#x16b;" horiz-adv-x="1249" 
d="M170 1140h220v-665c0 -133.333 16 -220.333 48 -261c16.667 -20.667 38.334 -34 65.001 -40s54.667 -9 84 -9s56.333 2.66699 81 8s48.667 12 72 20c46 16 83.667 33.333 113 52v895h220v-1156h-85c-39.333 0 -65 4 -77 12c-22 14 -33 39.333 -33 76v28
c-80.667 -50.667 -171.334 -86 -272.001 -106c-34 -6.66699 -76.833 -10 -128.5 -10s-99.667 11.833 -144 35.5s-78.833 57.167 -103.5 100.5c-40 70.667 -60 188.667 -60 354v666zM362 1588h547v-163h-547v163z" />
    <glyph glyph-name="Ubreve" unicode="&#x16c;" horiz-adv-x="1463" 
d="M893.5 1659.5c-44.333 -18.333 -94.668 -27.501 -151.001 -27.501s-106.5 9.33301 -150.5 28c-89.333 36.667 -147.666 97 -174.999 181c-10 31.333 -15 58 -15 80s0.333008 38.333 1 49h153c0 -79.333 36.333 -130.666 109 -153.999
c21.333 -7.33301 47.833 -11 79.5 -11s58.5 3.5 80.5 10.5s40.167 16 54.5 27s25.333 23 33 36s13.5 25.5 17.5 37.5c5.33301 19.333 8 37.333 8 54h149c0.666992 -10 1 -26 1 -48s-6.33301 -51.167 -19 -87.5s-34 -70 -64 -101s-67.167 -55.667 -111.5 -74zM158.998 1522
l223.002 0.000976562l-1 -836c0 -200 32 -340.667 96 -422c56 -70.667 146.333 -106 271 -106c111.333 0 192.666 35.667 243.999 107c60.667 83.333 91 223.666 91 420.999v836h222v-892c0 -318 -105 -519.333 -315 -604c-70.667 -28 -156 -42 -256 -42
s-186.833 14.5 -260.5 43.5s-133.834 71.167 -180.501 126.5c-89.333 106 -134 265.667 -134 479v889z" />
    <glyph glyph-name="ubreve" unicode="&#x16d;" horiz-adv-x="1249" 
d="M170 1140h220v-665c0 -133.333 16 -220.333 48 -261c16.667 -20.667 38.334 -34 65.001 -40s54.667 -9 84 -9s56.333 2.66699 81 8s48.667 12 72 20c46 16 83.667 33.333 113 52v895h220v-1156h-85c-39.333 0 -65 4 -77 12c-22 14 -33 39.333 -33 76v28
c-80.667 -50.667 -171.334 -86 -272.001 -106c-34 -6.66699 -76.833 -10 -128.5 -10s-99.667 11.833 -144 35.5s-78.833 57.167 -103.5 100.5c-40 70.667 -60 188.667 -60 354v666zM781.5 1340c-44.333 -21.333 -94.334 -32.001 -150.001 -32.001s-105.5 10.667 -149.5 32
c-88 42 -146.667 110.667 -176 206c-10.667 35.333 -16 64.666 -16 87.999s0.333008 40.333 1 51h154c0 -97.333 36.333 -161 109 -191c22 -9.33301 48.833 -14 80.5 -14s58.5 4.5 80.5 13.5s40 20.333 54 34s24.833 28.667 32.5 45s13.5 32.166 17.5 47.499
c5.33301 20.667 8 42.334 8 65.001h150c0.666992 -10 1 -26.833 1 -50.5s-6.5 -55.667 -19.5 -96s-34.667 -78.166 -65 -113.499s-67.666 -63.666 -111.999 -84.999z" />
    <glyph glyph-name="Uring" unicode="&#x16e;" horiz-adv-x="1463" 
d="M159 1522l223.002 0.000976562l-1 -836c0 -200 32 -340.667 96 -422c56 -70.667 146.333 -106 271 -106c111.333 0 192.666 35.667 243.999 107c60.667 83.333 91 223.666 91 420.999v836h222v-892c0 -318 -105 -519.333 -315 -604c-70.667 -28 -156 -42 -256 -42
s-186.833 14.5 -260.5 43.5s-133.834 71.167 -180.501 126.5c-89.333 106 -134 265.667 -134 479v889zM863.502 1450.5c-39 -10.333 -81.168 -15.5029 -126.501 -15.5029s-87.666 6.33301 -126.999 19c-80 26 -135 72.667 -165 140c-14 32.667 -21 59.334 -21 80.001
c0 69.333 9.66699 120.833 29 154.5s44 60.834 74 81.501c56.667 40 129 60 217 60c153.333 0 253 -50 299 -150c14.667 -32.667 21.834 -71.667 21.501 -117s-9.33301 -85.166 -27 -119.499s-41.334 -62.5 -71.001 -84.5s-64 -38.167 -103 -48.5zM742.001 1561
c112.667 0 168.999 48.332 168.999 144.999c0 67.333 -34 111 -102 131c-20.667 6 -42 9 -64 9s-42.667 -2 -62 -6s-36.666 -11.333 -51.999 -22c-34 -23.333 -51 -58.666 -51 -105.999s14.5 -84 43.5 -110s68.5 -39.667 118.5 -41z" />
    <glyph glyph-name="uring" unicode="&#x16f;" horiz-adv-x="1249" 
d="M753.5 1344.5c-39 -11 -81.167 -16.499 -126.5 -16.499s-87.666 6.66699 -126.999 20c-79.333 26.667 -134.333 74.667 -165 144c-14 33.333 -21 60.333 -21 81c0 69.333 9.66699 121.166 29 155.499s44 62.166 74 83.499c57.333 40.667 129.666 61 216.999 61
c153.333 0 253 -51 299 -153c14.667 -33.333 21.834 -72.666 21.501 -117.999s-9.33301 -85.333 -27 -120s-41.334 -63.5 -71.001 -86.5s-64 -40 -103 -51zM513.5 1498c29 -28 62.166 -42.334 99.499 -43.001s66.333 1.83301 87 7.5s38.334 14.5 53.001 26.5
c32 25.333 48 64 48 116c0 44.667 -16.333 80.334 -49 107.001c-31.333 24.667 -71.333 37 -120 37c-74 0 -123.333 -24.333 -148 -73c-9.33301 -18.667 -14 -46 -14 -82s14.5 -68 43.5 -96zM169.999 1140h220v-665c0 -133.333 16 -220.333 48 -261
c16.667 -20.667 38.334 -34 65.001 -40s54.667 -9 84 -9s56.333 2.66699 81 8s48.667 12 72 20c46 16 83.667 33.333 113 52v895h220v-1156h-85c-39.333 0 -65 4 -77 12c-22 14 -33 39.333 -33 76v28c-80.667 -50.667 -171.334 -86 -272.001 -106
c-34 -6.66699 -76.833 -10 -128.5 -10s-99.667 11.833 -144 35.5s-78.833 57.167 -103.5 100.5c-40 70.667 -60 188.667 -60 354v666z" />
    <glyph glyph-name="Uhungarumlaut" unicode="&#x170;" horiz-adv-x="1463" 
d="M159 1522l223.002 0.000976562l-1 -836c0 -200 32 -340.667 96 -422c56 -70.667 146.333 -106 271 -106c111.333 0 192.666 35.667 243.999 107c60.667 83.333 91 223.666 91 420.999v836h222v-892c0 -318 -105 -519.333 -315 -604c-70.667 -28 -156 -42 -256 -42
s-186.833 14.5 -260.5 43.5s-133.834 71.167 -180.501 126.5c-89.333 106 -134 265.667 -134 479v889zM386.002 1710c3.33301 3.33301 17.168 22 41.501 56l62.5 87l48 67c35.333 49.333 53.666 76 54.999 80l172 -87c-98.667 -138 -183.667 -228.667 -255 -272z
M854.004 1710c5.33301 5.33301 20.333 24 45 56l64 83l51 66c36.667 48.667 55.334 74.334 56.001 77.001l163 -88c-92.667 -130.667 -177.334 -218.334 -254.001 -263.001z" />
    <glyph glyph-name="uhungarumlaut" unicode="&#x171;" horiz-adv-x="1249" 
d="M170 1140h220v-665c0 -133.333 16 -220.333 48 -261c16.667 -20.667 38.334 -34 65.001 -40s54.667 -9 84 -9s56.333 2.66699 81 8s48.667 12 72 20c46 16 83.667 33.333 113 52v895h220v-1156h-85c-39.333 0 -65 4 -77 12c-22 14 -33 39.333 -33 76v28
c-80.667 -50.667 -171.334 -86 -272.001 -106c-34 -6.66699 -76.833 -10 -128.5 -10s-99.667 11.833 -144 35.5s-78.833 57.167 -103.5 100.5c-40 70.667 -60 188.667 -60 354v666zM261 1418l259 408l162 -111c-46 -79.333 -117.667 -170.333 -215 -273
c-46 -47.333 -80.333 -79 -103 -95zM760 1418l267 399l155 -110c-40 -74 -111 -163 -213 -267c-46 -46.667 -82 -77.667 -108 -93z" />
    <glyph glyph-name="Uogonek" unicode="&#x172;" horiz-adv-x="1463" 
d="M1052 -453c-51.333 -39.333 -130.331 -58.998 -236.998 -58.998c-113.333 0 -189 40 -227 120c-12.667 26 -19.167 53.167 -19.5 81.5s4 55.666 13 81.999s21.5 52.5 37.5 78.5c32.667 53.333 76 98 130 134h-8c-300.667 0 -484 124.667 -550 374
c-21.333 80 -32 171.667 -32 275v889h223l-1 -836c0 -200 32 -340.667 96 -422c56 -70.667 146.333 -106 271 -106c111.333 0 192.666 35.667 243.999 107c60.667 83.333 91 223.666 91 420.999v836h222v-892c0 -345.333 -123 -552.333 -369 -621
c-72 -65.333 -119.333 -134.333 -142 -207c-14 -44.667 -13.333 -82.667 2 -114c12.667 -25.333 31 -40.333 55 -45s51.167 -7 81.5 -7s70.166 9.66699 119.499 29v-118z" />
    <glyph glyph-name="uogonek" unicode="&#x173;" horiz-adv-x="1249" 
d="M1144 -453c-51.333 -39.333 -130.333 -59 -237 -59c-113.333 0 -189 40 -227 120c-12.667 26 -19.167 55 -19.5 87s6.33398 62.833 20.001 92.5s31.834 57.834 54.501 84.501c45.333 53.333 100.666 96.666 165.999 129.999c-15.333 12 -23 35.333 -23 70v28
c-80.667 -50.667 -171.334 -86 -272.001 -106c-34 -6.66699 -76.833 -10 -128.5 -10s-99.667 11.833 -144 35.5s-78.833 57.167 -103.5 100.5c-40 70.667 -60 188.667 -60 354v666h220v-665c0 -133.333 16 -220.333 48 -261c16.667 -20.667 38.334 -34 65.001 -40
s54.667 -9 84 -9s56.333 2.66699 81 8s48.667 12 72 20c46 16 83.667 33.333 113 52v895h220v-1156h-16c-120 -76 -180 -155.333 -180 -238c0 -73.333 42.667 -110 128 -110c43.333 0 89.666 9.66699 138.999 29v-118z" />
    <glyph glyph-name="Wcircumflex" unicode="&#x174;" horiz-adv-x="1918" 
d="M22 1522h229l242 -988l50 -276l51 276l287 988h161l291 -988l66 -278l47 277l226 989h224l-393 -1538h-218l-290 998l-35 182l-34 -183l-294 -997h-191zM602 1689l259 301h197l262 -298l-144 -60l-216 202l-221 -202z" />
    <glyph glyph-name="wcircumflex" unicode="&#x175;" horiz-adv-x="1632" 
d="M448 1360l276 333h198l268 -332l-135 -56l-232 222l-249 -223zM21 1140h220l184 -684l50 -214l46 213l190 685h219l189 -684l49 -218l50 211l178 691h215l-348 -1156h-203l-204 745l-37 182l-40 -182l-201 -745h-209z" />
    <glyph glyph-name="Ycircumflex" unicode="&#x176;" horiz-adv-x="1264" 
d="M523 593l-501 929h238l338 -660l43 -105l36 105l331 660h234l-493 -929v-593h-226v593zM292 1689l259 301h197l262 -298l-144 -60l-216 202l-221 -202z" />
    <glyph glyph-name="ycircumflex" unicode="&#x177;" horiz-adv-x="1116" 
d="M131 -314c19.333 -7.33301 45.332 -11 77.999 -11s62.667 4.16699 90 12.5s55 24.5 83 48.5c64.667 55.333 111.334 143.333 140.001 264h-65l-413 1140h235l252 -768l58 -186l267 954h237l-384 -1176c-86 -260.667 -205.333 -412.667 -358 -456
c-38 -10 -81 -15 -129 -15s-78.333 4.66699 -91 14v179zM215.999 1349l276 333h198l268 -332l-135 -56l-232 222l-249 -223z" />
    <glyph glyph-name="Ydieresis" unicode="&#x178;" horiz-adv-x="1264" 
d="M523 593l-501 929h238l338 -660l43 -105l36 105l331 660h234l-493 -929v-593h-226v593zM947 1678c-19.333 -7.33301 -38.8301 -10.999 -58.4971 -10.999s-37.834 3 -54.501 9s-31.334 14.667 -44.001 26c-26.667 26 -40 54.333 -40 85s4.5 55.5 13.5 74.5
s21.167 35.167 36.5 48.5c32 30 64 45 96 45s56.667 -3.5 74 -10.5s31.666 -16.5 42.999 -28.5c22.667 -24 34 -51.667 34 -83s-4.33301 -56.333 -13 -75s-20.5 -34.834 -35.5 -48.501s-32.167 -24.167 -51.5 -31.5zM451.003 1678
c-19.333 -7.33301 -38.8301 -10.999 -58.4971 -10.999s-37.834 3 -54.501 9s-31.334 14.667 -44.001 26c-26.667 26 -40 54.333 -40 85s4.5 55.5 13.5 74.5s21.167 35.167 36.5 48.5c32 30 64 45 96 45s56.667 -3.5 74 -10.5s31.666 -16.5 42.999 -28.5
c22.667 -24 34 -51.667 34 -83s-4.33301 -56.333 -13 -75s-20.5 -34.834 -35.5 -48.501s-32.167 -24.167 -51.5 -31.5z" />
    <glyph glyph-name="Zacute" unicode="&#x179;" horiz-adv-x="1294" 
d="M866 1273l58 71h-750v178h996l46 -81l-760 -1181l-74 -85h775v-175h-1023l-45 84zM551 1665c1.33301 0.666992 10.5 8.83301 27.5 24.5l63.5 57l81.5 73l81.5 74.5c58 53.333 87.667 82 89 86l146 -133c-79.333 -82 -179 -157.667 -299 -227
c-36 -21.333 -68.333 -37 -97 -47z" />
    <glyph glyph-name="zacute" unicode="&#x17a;" horiz-adv-x="1061" 
d="M405 1384c162 177.333 274.668 310.333 338.001 399l156 -135c-22.667 -40 -83.334 -106 -182.001 -198c-97.333 -90 -164.333 -142 -201 -156zM82.001 82l610 890h-550v168h812l35 -95l-609 -885h589v-160h-845z" />
    </font>
</defs>
</svg>
