<?xml version="1.0" standalone="no"?>
<!DOCTYPE svg PUBLIC "-//W3C//DTD SVG 1.1//EN" "http://www.w3.org/Graphics/SVG/1.1/DTD/svg11.dtd" >
<svg>
<metadata>
Created by FontForge 20090914 at Wed Mar 26 14:08:44 2014
 By www-data
Copyright (c) 2013, Sorkin Type Co (www.sorkintype.com) with Reserved Font Name 'Merriweather'
</metadata>
<defs>
<font id="MerriweatherSans-ExtraBldItalic" horiz-adv-x="0" >
  <font-face 
    font-family="Merriweather Sans"
    font-weight="800"
    font-style="italic"
    font-stretch="normal"
    units-per-em="2048"
    panose-1="2 0 9 3 6 0 0 9 0 4"
    ascent="1638"
    descent="-410"
    x-height="1140"
    cap-height="1530"
    bbox="-274 -560 2889 2016"
    underline-thickness="201"
    underline-position="-88"
    slope="-7"
    unicode-range="U+0001-U+FB04"
  />
<missing-glyph horiz-adv-x="1872" 
d="M213 1416h1416v-1416h-1416v1416zM571 219l347 368l362 -368l122 122l-363 368l363 358l-128 124l-352 -366l-357 368l-123 -125l359 -363l-358 -342z" />
    <glyph glyph-name="f_f" unicode="ff" horiz-adv-x="1530" 
d="M237 924l-121.998 -0.000976562l41 216h111l19 105c17.333 125.333 69.666 227 156.999 305c88.667 80 199.667 120 333 120c77.333 0 137 -8.66699 179 -26l-62 -238c-32 32 -73.667 48 -125 48c-32.667 0 -56.334 -7.33301 -71.001 -22
c-28 -27.333 -47.667 -71.666 -59 -132.999l-28 -159h189l-27 -216h-187l-113 -828l-9 -60c-1.33301 -10.667 -3 -22.667 -5 -36v0h-348zM1002 923.999l-121.998 -0.000976562l41 216h111l19 105c17.333 125.333 69.666 227 156.999 305c88.667 80 199.667 120 333 120
c77.333 0 137 -8.66699 179 -26l-62 -238c-32 32 -73.667 48 -125 48c-32.667 0 -56.334 -7.33301 -71.001 -22c-28 -27.333 -47.667 -71.666 -59 -132.999l-28 -159h189l-27 -216h-187l-113 -828l-9 -60c-1.33301 -10.667 -3 -22.667 -5 -36v0h-348z" />
    <glyph glyph-name="f_i" unicode="fi" horiz-adv-x="1429" 
d="M1001 1140h359l-158 -1140h-357zM1306 1329c-26.667 -10.667 -54.668 -15.998 -84.001 -15.998s-54.333 4.33301 -75 13c-41.333 17.333 -71.666 46.666 -90.999 87.999c-8.66699 19.333 -13 41.5 -13 66.5s5.33301 50.167 16 75.5s25 47.333 43 66
c40 39.333 90.333 59 151 59c52 0 95 -16.333 129 -49c32 -30.667 48 -68 48 -112c0 -94.667 -41.333 -158.334 -124 -191.001zM236.999 924.002l-121.998 -0.000976562l41 216h111l19 105c17.333 125.333 69.666 227 156.999 305c88.667 80 199.667 120 333 120
c77.333 0 137 -8.66699 179 -26l-62 -238c-32 32 -73.667 48 -125 48c-32.667 0 -56.334 -7.33301 -71.001 -22c-28 -27.333 -47.667 -71.666 -59 -132.999l-28 -159h189l-27 -216h-187l-113 -828l-9 -60c-1.33301 -10.667 -3 -22.667 -5 -36v0h-348z" />
    <glyph glyph-name="f_l" unicode="fl" horiz-adv-x="1430" 
d="M1068 1634h359l-222 -1634h-357zM237 924l-121.998 -0.000976562l41 216h111l19 105c17.333 125.333 69.666 227 156.999 305c88.667 80 199.667 120 333 120c77.333 0 137 -8.66699 179 -26l-62 -238c-32 32 -73.667 48 -125 48c-32.667 0 -56.334 -7.33301 -71.001 -22
c-28 -27.333 -47.667 -71.666 -59 -132.999l-28 -159h189l-27 -216h-187l-113 -828l-9 -60c-1.33301 -10.667 -3 -22.667 -5 -36v0h-348z" />
    <glyph glyph-name="f_f_i" unicode="ffi" horiz-adv-x="2194" 
d="M1766 1140h359l-158 -1140h-357zM2071 1329c-26.667 -10.667 -54.668 -15.998 -84.001 -15.998s-54.333 4.33301 -75 13c-41.333 17.333 -71.666 46.666 -90.999 87.999c-8.66699 19.333 -13 41.5 -13 66.5s5.33301 50.167 16 75.5s25 47.333 43 66
c40 39.333 90.333 59 151 59c52 0 95 -16.333 129 -49c32 -30.667 48 -68 48 -112c0 -94.667 -41.333 -158.334 -124 -191.001zM236.999 924.002l-121.998 -0.000976562l41 216h111l19 105c17.333 125.333 69.666 227 156.999 305c88.667 80 199.667 120 333 120
c77.333 0 137 -8.66699 179 -26l-62 -238c-32 32 -73.667 48 -125 48c-32.667 0 -56.334 -7.33301 -71.001 -22c-28 -27.333 -47.667 -71.666 -59 -132.999l-28 -159h189l-27 -216h-187l-113 -828l-9 -60c-1.33301 -10.667 -3 -22.667 -5 -36v0h-348zM1002 924.001
l-121.998 -0.000976562l41 216h111l19 105c17.333 125.333 69.666 227 156.999 305c88.667 80 199.667 120 333 120c77.333 0 137 -8.66699 179 -26l-62 -238c-32 32 -73.667 48 -125 48c-32.667 0 -56.334 -7.33301 -71.001 -22c-28 -27.333 -47.667 -71.666 -59 -132.999
l-28 -159h189l-27 -216h-187l-113 -828l-9 -60c-1.33301 -10.667 -3 -22.667 -5 -36v0h-348z" />
    <glyph glyph-name="f_f_l" unicode="ffl" horiz-adv-x="2195" 
d="M1833 1634h359l-222 -1634h-357zM237 924l-121.998 -0.000976562l41 216h111l19 105c17.333 125.333 69.666 227 156.999 305c88.667 80 199.667 120 333 120c77.333 0 137 -8.66699 179 -26l-62 -238c-32 32 -73.667 48 -125 48c-32.667 0 -56.334 -7.33301 -71.001 -22
c-28 -27.333 -47.667 -71.666 -59 -132.999l-28 -159h189l-27 -216h-187l-113 -828l-9 -60c-1.33301 -10.667 -3 -22.667 -5 -36v0h-348zM1002 923.999l-121.998 -0.000976562l41 216h111l19 105c17.333 125.333 69.666 227 156.999 305c88.667 80 199.667 120 333 120
c77.333 0 137 -8.66699 179 -26l-62 -238c-32 32 -73.667 48 -125 48c-32.667 0 -56.334 -7.33301 -71.001 -22c-28 -27.333 -47.667 -71.666 -59 -132.999l-28 -159h189l-27 -216h-187l-113 -828l-9 -60c-1.33301 -10.667 -3 -22.667 -5 -36v0h-348z" />
    <glyph glyph-name=".notdef" horiz-adv-x="1872" 
d="M213 1416h1416v-1416h-1416v1416zM571 219l347 368l362 -368l122 122l-363 368l363 358l-128 124l-352 -366l-357 368l-123 -125l359 -363l-358 -342z" />
    <glyph glyph-name="uni0001" 
 />
    <glyph glyph-name="uni0002" 
 />
    <glyph glyph-name="uni0003" 
 />
    <glyph glyph-name="uni0004" 
 />
    <glyph glyph-name="uni0005" 
 />
    <glyph glyph-name="uni0006" 
 />
    <glyph glyph-name="uni0007" 
 />
    <glyph glyph-name="uni0008" 
 />
    <glyph glyph-name="HT" unicode="&#x9;" 
 />
    <glyph glyph-name="LF" unicode="&#xa;" 
 />
    <glyph glyph-name="DLE" 
 />
    <glyph glyph-name="DC1" 
 />
    <glyph glyph-name="DC2" 
 />
    <glyph glyph-name="DC3" 
 />
    <glyph glyph-name="DC4" 
 />
    <glyph glyph-name="uni0015" 
 />
    <glyph glyph-name="uni0016" 
 />
    <glyph glyph-name="uni0017" 
 />
    <glyph glyph-name="uni0018" 
 />
    <glyph glyph-name="uni0019" 
 />
    <glyph glyph-name="RS" 
 />
    <glyph glyph-name="US" 
 />
    <glyph glyph-name="space" unicode=" " horiz-adv-x="485" 
 />
    <glyph glyph-name="exclam" unicode="!" horiz-adv-x="686" 
d="M337 1778h365l-243 -1290h-258zM136.5 13.5c-27.667 28.333 -41.498 60.667 -41.498 97s4.83301 67.5 14.5 93.5s23.5 48.667 41.5 68c40 44 90.667 66 152 66c82.667 0 133.667 -30.667 153 -92c5.33301 -18 8 -40.167 8 -66.5s-5 -53 -15 -80
s-24.333 -50.167 -43 -69.5c-38.667 -39.333 -86.334 -59 -143.001 -59s-98.834 14.167 -126.501 42.5z" />
    <glyph glyph-name="quotedbl" unicode="&#x22;" horiz-adv-x="1133" 
d="M301 1687h327l-184 -721h-228zM870 1687h327l-184 -721h-228z" />
    <glyph glyph-name="numbersign" unicode="#" horiz-adv-x="1405" 
d="M282 321h-174l20 228h186l50 301h-180l19 221h192l47 286h245l-45 -286h231l50 286h245l-48 -286h192l-19 -221h-204l-51 -301h187l-20 -228h-199l-54 -321h-240l48 321h-232l-59 -321h-242zM792 549l50 301h-231l-51 -301h232z" />
    <glyph glyph-name="dollar" unicode="$" horiz-adv-x="1204" 
d="M470 261c143.333 0 215 46.667 215 140c0 44 -10.667 80.667 -32 110c-33.333 45.333 -76.166 87.333 -128.499 126s-94.166 72.667 -125.499 102s-59.666 62 -84.999 98c-60 84 -90 172.333 -90 265c0 107.333 34.667 199 104 275c70 75.333 165.333 126 286 152l45 264
h240l-43 -251c109.333 -8.66699 197.333 -35.667 264 -81l-108 -281c-37.333 37.333 -102 64 -194 80c-27.333 4.66699 -53.333 7 -78 7c-61.333 0 -107.833 -11.833 -139.5 -35.5s-47.5 -50.5 -47.5 -80.5s3.83301 -54.667 11.5 -74s19.667 -38.833 36 -58.5
s37.166 -40.5 62.499 -62.5l91 -74c82.667 -62.667 141.667 -116 177 -160c74 -92 111 -184.333 111 -277c0 -190.667 -78 -323.667 -234 -399c-50.667 -24 -108.334 -41 -173.001 -51l-49 -270h-240l48 265c-104.667 10 -196.334 31.333 -275.001 64
c-22 8.66699 -37.667 16.667 -47 24l115 282c58 -43.333 126.333 -73.333 205 -90c26.667 -6 52.667 -9 78 -9z" />
    <glyph glyph-name="percent" unicode="%" horiz-adv-x="2003" 
d="M586 1532c216 0 324 -114.667 324 -344c0 -134.667 -43.333 -252.667 -130 -354c-93.333 -107.333 -211 -161 -353 -161c-105.333 0 -186.333 32.333 -243 97c-54.667 62.667 -82 151 -82 265c0 129.333 45.333 243.333 136 342c95.333 103.333 211.333 155 348 155z
M1263 1530h249l-707 -1530h-269zM372 928c23.333 -32 54.001 -48.001 92.001 -48.001s69.333 9.83301 94 29.5s44.667 43.834 60 72.501c31.333 56 47 112.5 47 169.5s-10.667 100.5 -32 130.5s-50.5 45 -87.5 45s-68.333 -9.33301 -94 -28s-46.834 -41.667 -63.501 -69
c-34 -55.333 -51 -111.5 -51 -168.5s11.667 -101.5 35 -133.5zM1657 917.999c216 0 323.999 -114.667 323.999 -344c0 -134.667 -43.667 -252.667 -131 -354c-92.667 -107.333 -210 -161 -352 -161c-105.333 0 -186.333 32.333 -243 97c-54.667 62.667 -82 151 -82 265
c0 129.333 45.667 243.333 137 342c94.667 103.333 210.334 155 347.001 155zM1420.5 525.999c-8.33301 -32 -12.5 -67.333 -12.5 -106s11.667 -74 35 -106s54 -48 92 -48s69.333 9.83301 94 29.5s45 43.834 61 72.501c30.667 56 46 112.5 46 169.5s-10.667 100.5 -32 130.5
s-50.5 45 -87.5 45s-68.333 -9.33301 -94 -28s-47 -41.834 -64 -69.501s-29.667 -57.5 -38 -89.5z" />
    <glyph glyph-name="ampersand" unicode="&#x26;" horiz-adv-x="1565" 
d="M965 33c-106 -32.667 -214.332 -48.999 -324.999 -48.999s-203.834 7.33301 -279.501 22s-139.834 37.334 -192.501 68.001c-108.667 64 -163 159.667 -163 287c0 132.667 69.667 247 209 343c40.667 28 83.334 54.667 128.001 80c-52.667 120.667 -79 228.667 -79 324
c0 126 42.333 229.333 127 310c89.333 85.333 211.666 128 366.999 128c147.333 0 255.333 -34.333 324 -103c53.333 -53.333 80 -115.833 80 -187.5s-11.667 -131.834 -35 -180.501s-54.333 -93 -93 -133c-61.333 -64.667 -155 -133.334 -281 -206.001
c92.667 -148 191 -270.333 295 -367c32 43.333 48 94 48 152c0 22 -1.66699 45.333 -5 70c-42.667 -4 -75.667 -14 -99 -30l10 224c23.333 30 73 45 149 45l447 -1l-20 -235h-156v-8c0 -146 -48.667 -269.667 -146 -371c54 -18.667 116 -28 186 -28
c14.667 0 30 0.333008 46 1l-40 -180c-42.667 -16 -117.167 -24 -223.5 -24s-199.166 16.333 -278.499 49zM637.001 945.001c64.667 39.333 108.999 72.999 132.999 100.999c44 51.333 66 99.833 66 145.5s-9.16699 79.5 -27.5 101.5s-42.833 33 -73.5 33
s-53.667 -4.5 -69 -13.5s-28.666 -21.5 -39.999 -37.5c-22.667 -33.333 -34 -72 -34 -116c0 -65.333 15 -136.666 45 -213.999zM466 563c-76 -58.667 -114 -116 -114 -172c0 -92.667 57.667 -147.667 173 -165c35.333 -5.33301 67 -8 95 -8c42.667 0 78.667 1.33301 108 4
c-78 78 -146.667 162 -206 252z" />
    <glyph glyph-name="quotesingle" unicode="'" horiz-adv-x="564" 
d="M301 1687h327l-184 -721h-228z" />
    <glyph glyph-name="parenleft" unicode="(" horiz-adv-x="854" 
d="M680 -245l-176 -106.001h-17c-81.333 66.667 -155 162.334 -221 287.001c-90.667 172.667 -136 374 -136 604c0 294 61 554.667 183 782c91.333 170.667 204.333 306.667 339 408c34.667 26 65.667 46.333 93 61l179 -119c-118 -120.667 -210 -238 -276 -352
c-132.667 -226 -199 -488.833 -199 -788.5s77 -558.5 231 -776.5z" />
    <glyph glyph-name="parenright" unicode=")" horiz-adv-x="854" 
d="M225.041 1672.99l175.99 105.994h16.998c81.3291 -66.6631 154.991 -162.324 220.987 -286.983c90.6611 -172.656 135.991 -373.978 135.991 -603.963c0 -293.982 -60.9961 -554.633 -182.988 -781.952c-91.3281 -170.656 -204.321 -306.648 -338.979 -407.976
c-34.665 -25.999 -65.6631 -46.3311 -92.9941 -60.9961l-178.989 118.992c117.993 120.659 209.987 237.985 275.982 351.979c132.659 225.986 198.988 488.804 198.988 788.452s-76.9951 558.466 -230.986 776.453z" />
    <glyph glyph-name="asterisk" unicode="*" horiz-adv-x="1366" 
d="M629 910l28 138l-397 -289l-107 210l327 126l129 55l-417 181l130 208l258 -203l98 -81l1 135l-8 331h238l-110 -466l121 81l292 205l97 -210l-327 -128l-129 -55l118 -53l299 -126l-150 -208l-239 203l-103 84l6 -138l12 -331l-244 1z" />
    <glyph glyph-name="plus" unicode="+" horiz-adv-x="1352" 
d="M530 526l25 135l-124 -7h-249l35 263h249l117 -11l9 139l30 279h272l-26 -279l-25 -138l98 10h275l-35 -263h-274l-97 7l-6 -135l-34 -276h-273z" />
    <glyph glyph-name="comma" unicode="," horiz-adv-x="526" 
d="M46 107l155.999 187.999c102 -39.333 165.667 -119.666 191 -240.999c6.66699 -31.333 10 -67.166 10 -107.499s-7.83301 -86.333 -23.5 -138s-38.167 -99.167 -67.5 -142.5c-62 -90.667 -145.667 -152.334 -251 -185.001l-93 127l3 21c70.667 36 118.334 96 143.001 180
c7.33301 24.667 11 48.5 11 71.5s-2.5 44 -7.5 63s-11.5 35.833 -19.5 50.5c-16 29.333 -35.667 49 -59 59z" />
    <glyph glyph-name="hyphen" unicode="-" horiz-adv-x="1266" 
d="M260 896h840l-37 -248h-840z" />
    <glyph glyph-name="period" unicode="." horiz-adv-x="526" 
d="M71.5 13.5c-27.667 28.333 -41.499 60.667 -41.499 97s4.83301 67.5 14.5 93.5s23.5 48.667 41.5 68c40 44 90.667 66 152 66c82.667 0 133.334 -30.667 152.001 -92c6 -18 9 -40.167 9 -66.5s-5 -53 -15 -80s-24.333 -50.167 -43 -69.5
c-38.667 -39.333 -86.334 -59 -143.001 -59s-98.834 14.167 -126.501 42.5z" />
    <glyph glyph-name="slash" unicode="/" horiz-adv-x="854" 
d="M-142 -362l861 1959h274l-863 -1959h-272z" />
    <glyph glyph-name="zero" unicode="0" horiz-adv-x="1278" 
d="M119 275c-17.333 56 -26.002 116.002 -26.002 180.002s7.83301 126.5 23.5 187.5s37.5 117.667 65.5 170s61.667 99.666 101 141.999s83 78.166 131 107.499c100 62.667 206.667 94 320 94c150 0 262.667 -44.667 338 -134c68.667 -80.667 103 -191 103 -331
c0 -191.333 -60.333 -356.333 -181 -495c-77.333 -88.667 -171 -150.667 -281 -186c-55.333 -17.333 -117.666 -26 -186.999 -26s-132.166 13 -188.499 39s-102.5 60.5 -138.5 103.5s-62.667 92.5 -80 148.5zM840.998 650.002c0 149.333 -47.001 224 -141.001 224h-28.5
c-17 0 -38.667 -5.66699 -65 -17s-49.666 -27 -69.999 -47s-37.5 -43.167 -51.5 -69.5s-25.333 -53.833 -34 -82.5c-16 -52.667 -24 -101.5 -24 -146.5s3.33301 -81 10 -108s16.334 -50.833 29.001 -71.5c28 -43.333 65.833 -65 113.5 -65s87.667 11.667 120 35
s59.166 53.333 80.499 90c40.667 71.333 61 157.333 61 258z" />
    <glyph glyph-name="one" unicode="1" horiz-adv-x="1036" 
d="M431 801c-42.667 -13.333 -82.667 -22.167 -120 -26.5s-67 -8.5 -89 -12.5l-40 198c99.333 22.667 208 70.667 326 144l90 58l240 -10l-170 -1152h-357z" />
    <glyph glyph-name="two" unicode="2" horiz-adv-x="1289" 
d="M51 142c177.333 94.667 330.332 201.668 458.999 321.001c130.667 120.667 196 221.667 196 303c0 34 -10.333 60.5 -31 79.5s-45.167 28.5 -73.5 28.5s-55.5 -3.5 -81.5 -10.5s-52.667 -16.167 -80 -27.5c-58.667 -24.667 -106.667 -53 -144 -85l-119 189
c82.667 88 193.334 152.667 332.001 194c49.333 14.667 105.833 22 169.5 22s122.5 -9.33301 176.5 -28s99 -43.334 135 -74.001c70 -61.333 105 -139.333 105 -234c0 -182 -107.667 -341.333 -323 -478c-62 -38.667 -125.333 -75.667 -190 -111l603 22l-45 -253h-1043z" />
    <glyph glyph-name="three" unicode="3" horiz-adv-x="1168" 
d="M80 -67c49.333 -6.66699 94 -9.99902 134 -9.99902c283.333 0 425 82.333 425 247c0 67.333 -31.667 115.333 -95 144c-23.333 10 -52 15.667 -86 17l-187 -38l28 257c96.667 11.333 180 36.666 250 75.999c75.333 42 113 92 113 150c0 40 -11.667 69.833 -35 89.5
s-63.666 29.5 -120.999 29.5c-87.333 0 -172.666 -33.333 -255.999 -100l-98 207c62.667 62.667 168 109 316 139c49.333 10 100.666 15 153.999 15c113.333 0 206.666 -24 279.999 -72c80.667 -52 121 -125 121 -219c0 -92 -31.667 -174.333 -95 -247
c-66 -76 -154.667 -130.333 -266 -163c108 -4 195.333 -36.333 262 -97c62.667 -57.333 94 -124.5 94 -201.5s-19.833 -145.333 -59.5 -205s-95.167 -110.167 -166.5 -151.5c-144 -84 -336.333 -126 -577 -126c-47.333 0 -103.333 4 -168 12z" />
    <glyph glyph-name="four" unicode="4" horiz-adv-x="1304" 
d="M1 164l141 274l284 546c46 91.333 89 182 129 272h297l82 -89l-510 -834l-79 -111l365 17l52 375l323 35l-47 -402l201 14l-37 -261h-200l-47 -375h-329l49 375h-596z" />
    <glyph glyph-name="five" unicode="5" horiz-adv-x="1176" 
d="M71 -117c23.333 -4 50.4971 -5.99805 81.4971 -5.99805s65.333 2.16699 103 6.5s75.5 11.666 113.5 21.999s74.5 23.666 109.5 39.999s66.167 36.5 93.5 60.5c59.333 53.333 89 118.333 89 195c0 55.333 -10.333 94 -31 116c-37.333 40 -93.666 60 -168.999 60
c-87.333 0 -162.666 -17.667 -225.999 -53l-126 135l154 681h587l22 16h208l-82 -291h-468l-78 -295c54.667 23.333 117.834 35 189.501 35s130.667 -6.5 177 -19.5s86.833 -33.833 121.5 -62.5c74.667 -62 112 -156 112 -282c0 -189.333 -84 -339 -252 -449
c-160.667 -105.333 -372.667 -158 -636 -158c-52.667 0 -96 5.66699 -130 17z" />
    <glyph glyph-name="six" unicode="6" horiz-adv-x="1293" 
d="M111 519c0 78 10.002 157.501 30.002 238.501s48.667 159.167 86 234.5s82.833 146.5 136.5 213.5s113.834 127.833 180.501 182.5c139.333 114.667 296.666 193.667 471.999 237l79 -211c-176 -59.333 -329 -165.333 -459 -318c-46 -53.333 -73.667 -95.333 -83 -126
c49.333 32 120.666 53 213.999 63c25.333 2.66699 47.666 4 66.999 4c117.333 0 208.666 -43.667 273.999 -131c58.667 -78.667 88 -178.334 88 -299.001c0 -166 -45 -306.333 -135 -421c-105.333 -134.667 -258.666 -202 -459.999 -202c-165.333 0 -290.333 51 -375 153
c-76.667 92 -115 219.333 -115 382zM557.002 241.501c23.333 -13 52.3359 -19.5 87.0029 -19.5s66.667 12 96 36s53 53.667 71 89c33.333 65.333 50 141 50 227c0 108 -36.667 176 -110 204c-21.333 8.66699 -44 13 -68 13c-68.667 0 -128.334 -17.667 -179.001 -53
c-13.333 -10 -23.333 -19.333 -30 -28c-23.333 -70 -35 -130.5 -35 -181.5s5.16699 -95.5 15.5 -133.5s24.166 -69.833 41.499 -95.5s37.666 -45 60.999 -58z" />
    <glyph glyph-name="seven" unicode="7" horiz-adv-x="1136" 
d="M729 867h-653l64 273h952l49 -66l-625 -1423l-298 107z" />
    <glyph glyph-name="eight" unicode="8" horiz-adv-x="1390" 
d="M497 770c-117.333 110.667 -176 224.33 -176 340.997c0 135.333 46.333 242.333 139 321c92 78 214.333 117 367 117c134.667 0 245 -31 331 -93c87.333 -63.333 131 -145.333 131 -246c0 -152.667 -69.667 -266.667 -209 -342
c-40.667 -21.333 -82.334 -39.666 -125.001 -54.999c78.667 -61.333 134.334 -114.666 167.001 -159.999c61.333 -86.667 92 -166.667 92 -240s-14.5 -136.166 -43.5 -188.499s-69.167 -96.5 -120.5 -132.5c-106 -74.667 -243.333 -112 -412 -112
c-150 0 -272 32.333 -366 97c-97.333 66.667 -146 157.667 -146 273c0 159.333 77.667 280 233 362c44.667 24 90.667 43.333 138 58zM822 913.996c104.667 68.667 156.999 157.334 156.999 266.001c0 49.333 -17.667 89 -53 119c-32 27.333 -65.833 41 -101.5 41
s-63.667 -5 -84 -15s-37.166 -23.667 -50.499 -41c-27.333 -36.667 -41 -84.667 -41 -144c0 -53.333 35 -110 105 -170c21.333 -18.667 44 -37.334 68 -56.001zM622.999 664.996c-108 -68.667 -162.001 -157.666 -162.001 -266.999c0 -56 23 -104.333 69 -145
c42.667 -38 92.334 -57 149.001 -57s101.167 16.167 133.5 48.5s48.5 75.5 48.5 129.5c0 67.333 -49.667 140.666 -149 219.999z" />
    <glyph glyph-name="nine" unicode="9" horiz-adv-x="1293" 
d="M744 160c-70.667 -38 -145.665 -57 -224.998 -57s-143.333 11.833 -192 35.5s-89.667 55.5 -123 95.5c-68.667 81.333 -103 181 -103 299c0 166 45 306.333 135 421c105.333 134.667 258.666 202 459.999 202c165.333 0 290.333 -51 375 -153
c76.667 -92 115 -217.333 115 -376c0 -163.333 -38.667 -323 -116 -479c-76 -152.667 -182 -284.667 -318 -396c-141.333 -116.667 -298.333 -195.667 -471 -237l-79 211c174.667 56.667 328 160.667 460 312c45.333 52 72.666 92.667 81.999 122zM614.002 349
c68 0 127.333 15.667 178 47c14 8 24.333 16 31 24c23.333 73.333 35 136.333 35 189s-5.16699 98 -15.5 136s-24.5 69.667 -42.5 95c-35.333 52 -77.333 78 -126 78s-87.667 -12 -117 -36s-53 -53.667 -71 -89c-33.333 -65.333 -50 -141 -50 -227
c0 -72.667 18 -128 54 -166c30.667 -34 72 -51 124 -51z" />
    <glyph glyph-name="colon" unicode=":" horiz-adv-x="526" 
d="M51.5 13.5c-27.667 28.333 -41.499 60.667 -41.499 97s4.83301 67.5 14.5 93.5s23.5 48.667 41.5 68c40 44 90.667 66 152 66c82.667 0 133.334 -30.667 152.001 -92c6 -18 9 -40.167 9 -66.5s-5 -53 -15 -80s-24.333 -50.167 -43 -69.5
c-38.667 -39.333 -86.334 -59 -143.001 -59s-98.834 14.167 -126.501 42.5zM143.501 822.501c-27.667 28.333 -41.499 60.667 -41.499 97s4.83301 67.5 14.5 93.5s23.5 48.667 41.5 68c40 44 90.667 66 152 66c82.667 0 133.334 -30.667 152.001 -92
c6 -18 9 -40.167 9 -66.5s-5 -53 -15 -80s-24.333 -50.167 -43 -69.5c-38.667 -39.333 -86.334 -59 -143.001 -59s-98.834 14.167 -126.501 42.5z" />
    <glyph glyph-name="semicolon" unicode=";" horiz-adv-x="526" 
d="M46 107l155.999 187.999c102 -39.333 165.667 -119.666 191 -240.999c6.66699 -31.333 10 -67.166 10 -107.499s-7.83301 -86.333 -23.5 -138s-38.167 -99.167 -67.5 -142.5c-62 -90.667 -145.667 -152.334 -251 -185.001l-93 127l3 21c70.667 36 118.334 96 143.001 180
c7.33301 24.667 11 48.5 11 71.5s-2.5 44 -7.5 63s-11.5 35.833 -19.5 50.5c-16 29.333 -35.667 49 -59 59zM146.499 822.499c-27.667 28.333 -41.499 60.667 -41.499 97s4.83301 67.5 14.5 93.5s23.5 48.667 41.5 68c40 44 90.667 66 152 66
c82.667 0 133.334 -30.667 152.001 -92c6 -18 9 -40.167 9 -66.5s-5 -53 -15 -80s-24.333 -50.167 -43 -69.5c-38.667 -39.333 -86.334 -59 -143.001 -59s-98.834 14.167 -126.501 42.5z" />
    <glyph glyph-name="less" unicode="&#x3c;" horiz-adv-x="1395" 
d="M215 830l1029 520l-37 -311l-622 -286l548 -290l-26 -283l-908 520z" />
    <glyph glyph-name="equal" unicode="=" horiz-adv-x="1085" 
d="M198 1056h840l-37 -248h-840zM143 563h840l-37 -248h-840z" />
    <glyph glyph-name="greater" unicode="&#x3e;" horiz-adv-x="1395" 
d="M1284.01 703.051l-1028.94 -519.969l36.998 310.981l621.962 285.982l-547.967 289.982l25.998 282.982l907.944 -519.968z" />
    <glyph glyph-name="question" unicode="?" horiz-adv-x="1060" 
d="M348 464c-50.667 34.667 -88.002 92.0049 -112.002 172.005c-7.33301 24 -11 49.333 -11 76s3.5 52.5 10.5 77.5s19.833 49.167 38.5 72.5c35.333 45.333 103 93 203 143c139.333 62.667 226.333 122 261 178c2 4.66699 4 11.667 6 21l8 31c6 25.333 9 51.166 9 77.499
s-7 52 -21 77s-34 47.167 -60 66.5c-58 41.333 -132.333 62 -223 62c-78.667 0 -147.667 -7.66699 -207 -23l56 230c28 23.333 78.667 39.666 152 48.999c22 2.66699 43 4 63 4c186 0 328.333 -41.333 427 -124c89.333 -74.667 134 -177 134 -307
c0 -156.667 -62.333 -280.334 -187 -371.001c-35.333 -25.333 -71.666 -48.333 -108.999 -69l-108 -59c-78.667 -40.667 -132.667 -80.334 -162 -119.001c-16.667 -22.667 -25 -44.5 -25 -65.5s1.83301 -37.333 5.5 -49s7.83398 -22.834 12.501 -33.501l13 -29
c4.66699 -9.33301 8 -17 10 -23l-167 -66zM368.498 13.5049c-27.667 28.333 -41.498 60.667 -41.498 97s4.83301 67.5 14.5 93.5s23.5 48.667 41.5 68c40 44 90.667 66 152 66c82.667 0 133.667 -30.667 153 -92c5.33301 -18 8 -40.167 8 -66.5s-5 -53 -15 -80
s-24.333 -50.167 -43 -69.5c-38.667 -39.333 -86.334 -59 -143.001 -59s-98.834 14.167 -126.501 42.5z" />
    <glyph glyph-name="at" unicode="@" horiz-adv-x="2028" 
d="M1306 -153l59.001 -170.996c-72.667 -54 -173 -90 -301 -108c-40.667 -5.33301 -82.334 -8 -125.001 -8c-248 0 -448.333 71 -601 213c-157.333 147.333 -236 347.666 -236 600.999c0 234.667 50.667 443 152 625c97.333 173.333 231.666 307.666 402.999 402.999
c170.667 95.333 360.334 143 569.001 143c226 0 406 -57.667 540 -173c134 -114 201 -268.333 201 -463c0 -179.333 -33.667 -341.666 -101 -486.999c-60.667 -128.667 -142 -230.334 -244 -305.001c-96.667 -70.667 -194.667 -106 -294 -106c-40 0 -70 14.5 -90 43.5
s-30 65.833 -30 110.5c0 46.667 1.66699 89 5 127l7 79c-73.333 -172.667 -160.333 -285 -261 -337c-34.667 -18 -69.667 -27 -105 -27s-71.333 9 -108 27c-80.667 38.667 -139.334 110.667 -176.001 216c-17.333 52 -26 112 -26 180c0 178 49.333 334 148 468
c66 89.333 150 151.666 252 186.999c51.333 18 96 27 134 27s66.667 -1 86 -3s39.333 -5 60 -9c49.333 -10.667 86 -24.667 110 -42l195 30c-26 -99.333 -52.333 -292 -79 -578l-10 -110c-4.66699 -43.333 -8.33398 -73.333 -11.001 -90c-4 -24.667 -6 -45.334 -6 -62.001
s4.33301 -25 13 -25c72.667 0 137.334 68.333 194.001 205c54.667 132 82 276 82 432c0 325.333 -179 488 -537 488c-164 0 -311.667 -46.333 -443 -139c-121.333 -86 -216.333 -201 -285 -345c-67.333 -141.333 -101 -290 -101 -446c0 -289.333 104.333 -482 313 -578
c87.333 -40.667 193.333 -61 318 -61s234.334 22.667 329.001 68zM1198 840.004c-26 28.667 -63.1689 43 -111.502 43s-87 -13.333 -116 -40s-53.167 -60 -72.5 -100c-38.667 -80 -58 -166.333 -58 -259c0 -92 14 -150 42 -174c11.333 -9.33301 25.333 -14 42 -14
s34.334 9.66699 53.001 29s37.5 44.5 56.5 75.5s37.667 66.167 56 105.5s34.833 79.333 49.5 120c32.667 90 52.334 161.333 59.001 214z" />
    <glyph glyph-name="A" unicode="A" horiz-adv-x="1345" 
d="M617 1530h450l227 -1530l-355 -1l-33 287h-522l-117 -286l-390 -1zM879 527l-76 675l-6 119l-39 -119l-276 -675h397z" />
    <glyph glyph-name="B" unicode="B" horiz-adv-x="1352" 
d="M532 -16l-305 16.001h-155l219 1530h187c48 1.33301 98.333 4.16602 151 8.49902s105 6.5 157 6.5c338.667 0 508 -115.667 508 -347c0 -158 -56.333 -272 -169 -342c-38 -24 -82.333 -41.333 -133 -52c90.667 -18.667 160 -55.5 208 -110.5s72 -122.833 72 -203.5
c0 -337.333 -246.667 -506 -740 -506zM556 907.001c30 -2 59.999 -2.99902 89.999 -2.99902c92 0 162.167 20 210.5 60s72.5 104.667 72.5 194c0 79.333 -40.667 124.666 -122 135.999c-25.333 4 -51.666 6 -78.999 6c-54.667 0 -93.667 -1 -117 -3zM459.999 240.002
c28 -4.66699 67.002 -6.99805 117.002 -6.99805s94.167 3.16699 132.5 9.5s71.166 18.166 98.499 35.499c58.667 37.333 88 102.666 88 195.999c0 74 -21.333 125.333 -64 154c-39.333 27.333 -107.333 41 -204 41c-48.667 0 -84.334 -1.33301 -107.001 -4z" />
    <glyph glyph-name="C" unicode="C" horiz-adv-x="1192" 
d="M1145 1141c-81.333 70.667 -177.003 105.996 -287.003 105.996c-182.667 0 -307 -108.667 -373 -326c-27.333 -90 -41 -176.833 -41 -260.5s5 -147.667 15 -192s26 -81.166 48 -110.499c43.333 -58 114 -87 212 -87c90.667 0 176 20 256 60
c21.333 10.667 38.666 20.667 51.999 30l46 -249c-63.333 -47.333 -161 -84.666 -293 -111.999c-49.333 -10.667 -104.833 -16 -166.5 -16s-119.5 8.5 -173.5 25.5s-101 40.333 -141 70s-73.833 64.834 -101.5 105.501s-50.167 84.667 -67.5 132c-31.333 88 -47 182 -47 282
s8.83301 188.833 26.5 266.5s43.334 150.667 77.001 219s74.334 130.833 122.001 187.5s101.5 105.334 161.5 146.001c126.667 85.333 268.334 128 425.001 128c110.667 0 210.334 -18.667 299.001 -56l53 -14z" />
    <glyph glyph-name="D" unicode="D" horiz-adv-x="1423" 
d="M447 1530l387 16c387.333 0 581 -204.667 581 -614c0 -264.667 -69.333 -484.667 -208 -660c-96 -120.667 -221.667 -204.667 -377 -252c-78.667 -24 -165.667 -36 -261 -36c-30.667 0 -71 1.66699 -121 5c-110 7.33301 -187.333 11 -232 11h-144l219 1530h156zM464 264
c42 -14 96.833 -21 164.5 -21s128.5 18.5 182.5 55.5s99 86.833 135 149.5c70 124.667 105 287.667 105 489c0 134 -23.667 226.667 -71 278c-42 46.667 -115 70 -219 70c-58.667 0 -109.667 -4.33301 -153 -13z" />
    <glyph glyph-name="E" unicode="E" horiz-adv-x="1204" 
d="M291 1530h914l-37 -275l-562 2l-48 -337l419 5l-36 -276l-421 9l-55 -388l633 10l-37 -280h-989z" />
    <glyph glyph-name="F" unicode="F" horiz-adv-x="1080" 
d="M291 1530h857l-42 -275l-500 4l-53 -372l428 6l-36 -291l-432 7l-87 -609h-354z" />
    <glyph glyph-name="G" unicode="G" horiz-adv-x="1427" 
d="M433 623c0 -249.333 99.0039 -373.998 297.004 -373.998c84 0 150.333 11 199 33l45 288h-248l33 280h576l-107 -771c-27.333 -2.66699 -59 -9 -95 -19l-102 -28c-118 -32 -225.5 -48 -322.5 -48s-175.167 8.5 -234.5 25.5s-111.333 40.167 -156 69.5
s-82.5 64 -113.5 104s-56.167 83 -75.5 129c-36.667 87.333 -55 193.333 -55 318s21 244.667 63 360s99.667 214.166 173 296.499s159.166 146.166 257.499 191.499s203.833 68 316.5 68c134 0 257 -18.667 369 -56l95 -33l-74 -322c-66.667 48 -154.667 84 -264 108
c-42.667 9.33301 -89.5 14 -140.5 14s-98.333 -9 -142 -27s-81.834 -42.333 -114.501 -73s-60.334 -66.667 -83.001 -108s-41.334 -85.333 -56.001 -132c-27.333 -90 -41 -188 -41 -294z" />
    <glyph glyph-name="H" unicode="H" horiz-adv-x="1500" 
d="M279 1530h354l-95 -664h482l95 664h358l-219 -1530h-358l89 622h-482l-89 -622h-354z" />
    <glyph glyph-name="I" unicode="I" horiz-adv-x="706" 
d="M317 1530h354l-219 -1530h-354z" />
    <glyph glyph-name="J" unicode="J" horiz-adv-x="697" 
d="M108 110c10 49.333 21.332 112.332 33.999 188.999s25 156.334 37 239.001s23.667 167.334 35 254.001l97 738h356l-171 -1186c-23.333 -153.333 -38.666 -243 -45.999 -269c-39.333 -157.333 -118 -272 -236 -344c-96 -58.667 -212.667 -88 -350 -88l-44 118
c80 20 146 63 198 129c42 55.333 72 128.666 90 219.999z" />
    <glyph glyph-name="K" unicode="K" horiz-adv-x="1337" 
d="M291 1530l354.001 0.000976562l-95 -662l526 662h404l-607 -673c209.333 -412 329.166 -645.833 359.499 -701.5s60.833 -107.834 91.5 -156.501l-417 2c-4 6 -10.333 18.333 -19 37l-121 268l-126 292l-154 -171l-61 -427h-354z" />
    <glyph glyph-name="L" unicode="L" horiz-adv-x="1068" 
d="M291 1530h354l-180 -1253l497 11l-42 -288h-848z" />
    <glyph glyph-name="M" unicode="M" horiz-adv-x="1988" 
d="M388 1530h515l68 -1053l6 -225l48 225l355 1053h517l-24 -1530h-353l89 1139l27 234l-74 -234l-437 -1142l-389 -15l-120 1157l-2 234l-48 -234l-248 -1139h-349z" />
    <glyph glyph-name="N" unicode="N" horiz-adv-x="1500" 
d="M291 1530h307l356 -792l79 -260l13 260l97 792h342l-219 -1530h-297l-348 833l-99 275l3 -275l-115 -833h-338z" />
    <glyph glyph-name="O" unicode="O" horiz-adv-x="1394" 
d="M100.5 348c-23 72 -34.502 149.999 -34.502 233.999s7.66699 166.833 23 248.5s37.833 158.5 67.5 230.5s66.334 137.667 110.001 197s93.5 110.333 149.5 153c117.333 90 252.333 135 405 135c172.667 0 308.334 -59.333 407.001 -178
c90.667 -109.333 136 -250 136 -422c0 -269.333 -66 -494.666 -198 -675.999c-88.667 -121.333 -199 -205 -331 -251c-67.333 -23.333 -143.333 -35 -228 -35s-161.5 15.667 -230.5 47s-126.5 74 -172.5 128s-80.5 117 -103.5 189zM552.998 266.999
c26.667 -11.333 58.168 -17.0029 94.501 -17.0029s70.5 9.66699 102.5 29s61 45.5 87 78.5s49.167 71.833 69.5 116.5s37.5 92.667 51.5 144c28 101.333 42 196 42 284s-4.66699 154.167 -14 198.5s-23.333 79.833 -42 106.5c-33.333 48.667 -87 73 -161 73
c-70 0 -133.667 -36.667 -191 -110c-77.333 -99.333 -128 -238.666 -152 -417.999c-6.66699 -53.333 -10 -109.166 -10 -167.499s4.66699 -109.666 14 -153.999s23.166 -79.833 41.499 -106.5s40.833 -45.667 67.5 -57z" />
    <glyph glyph-name="P" unicode="P" horiz-adv-x="1298" 
d="M558 488l-62.001 1l-70 -489h-354l218 1530h156c39.333 0 87.333 2.66699 144 8s118.334 8 185.001 8c172 0 304.5 -36.5 397.5 -109.5s139.833 -182.833 140.5 -329.5c0 -178.667 -56.333 -324.667 -169 -438c-120 -121.333 -282.333 -182 -487 -182zM533.999 764
c28.667 -8 71.667 -12 129 -12c188 0 288.333 108 301 324c0.666992 8 1 20.5 1 37.5s-3.33301 37.833 -10 62.5s-19.667 46.667 -39 66c-40.667 38.667 -109 58 -205 58c-30 0 -63.333 -3.33301 -100 -10z" />
    <glyph glyph-name="Q" unicode="Q" horiz-adv-x="1395" 
d="M1257 -115l0.000976562 -203.002c-45.333 -43.333 -138.333 -74.666 -279 -93.999c-38.667 -5.33301 -75.667 -8 -111 -8s-72.333 2.66699 -111 8s-74.667 14 -108 26c-118 43.333 -177 123.333 -177 240c0 40.667 8.66699 87.667 26 141
c-138.667 24.667 -246.334 92.334 -323.001 203.001c-72 103.333 -108 230 -108 380c0 272 66.667 498.667 200 680c90 122 201.667 206 335 252c68 24 144.333 36 229 36s160.834 -16 228.501 -48s124.167 -75.333 169.5 -130c90.667 -109.333 136 -250 136 -422
c0 -249.333 -57.333 -462 -172 -638c-55.333 -85.333 -123.166 -156 -203.499 -212s-171.5 -91 -273.5 -105c-0.666992 -7.33301 -1 -17.333 -1 -30s4 -26.5 12 -41.5s22.333 -27.5 43 -37.5c33.333 -15.333 107.666 -23 222.999 -23s203.666 8.66699 264.999 26z
M553.001 266.998c26.667 -11.333 58.168 -17.0029 94.501 -17.0029s70.5 9.66699 102.5 29s61 45.5 87 78.5s49.167 71.833 69.5 116.5s37.5 92.667 51.5 144c28 101.333 42 196 42 284s-4.66699 154.167 -14 198.5s-23.333 79.833 -42 106.5c-33.333 48.667 -87 73 -161 73
c-70 0 -133.667 -36.667 -191 -110c-77.333 -99.333 -128 -238.666 -152 -417.999c-6.66699 -53.333 -10 -109.166 -10 -167.499s4.66699 -109.666 14 -153.999s23.166 -79.833 41.499 -106.5s40.833 -45.667 67.5 -57z" />
    <glyph glyph-name="R" unicode="R" horiz-adv-x="1344" 
d="M290 1530h202.001c38 0 76 2 114 6c72.667 6.66699 145 10 217 10s142.667 -8.83301 212 -26.5s125.666 -43.167 168.999 -76.5c83.333 -63.333 125 -160 125 -290c0 -192.667 -58.333 -337 -175 -433c-42 -34.667 -92.667 -61 -152 -79c58 -48 105 -139.333 141 -274
l52 -160c33.333 -103.333 62.333 -172.333 87 -207h-392c-10 14 -19.667 40 -29 78l-58 228c-30 124.667 -65.667 208 -107 250c-10.667 11.333 -20 17 -28 17h-157l-85 -573h-354zM548.001 848c13.333 -0.666992 29.001 -1.33301 47.001 -2h55
c18.667 -0.666992 36 -1 52 -1h41c86.667 0 151 33.667 193 101c32 50 48 110.667 48 182c0 93.333 -46 148 -138 164c-28.667 5.33301 -55.334 8 -80.001 8s-43.5 -0.333008 -56.5 -1s-25.5 -1.66699 -37.5 -3c-31.333 -2 -52 -4 -62 -6z" />
    <glyph glyph-name="S" unicode="S" horiz-adv-x="1058" 
d="M115 368c57.333 -42.667 128.33 -73.3311 212.997 -91.998c28 -6 57.833 -9 89.5 -9s60.334 4 86.001 12s46.5 19 62.5 33c29.333 24.667 44.666 60.667 45.999 108c1.33301 42.667 -8.66699 77.334 -30 104.001c-30.667 39.333 -72.334 78.833 -125.001 118.5
s-94.167 74.167 -124.5 103.5s-57.833 61.666 -82.5 96.999c-54.667 80 -82 158.5 -82 235.5s12.667 143.667 38 200s61.333 104.166 108 143.499c96.667 82.667 226 124 388 124c120 0 222.333 -18.667 307 -56c22.667 -10 40.667 -19.667 54 -29l-112 -281
c-38 38 -99 64.667 -183 80c-25.333 4.66699 -52.333 7 -81 7s-54.667 -3.83301 -78 -11.5s-42.666 -17.834 -57.999 -30.501c-30 -24.667 -45 -53 -45 -85s4.66699 -58.167 14 -78.5s22.5 -40.5 39.5 -60.5s37.167 -39.667 60.5 -59l77 -63
c83.333 -66 141.333 -120 174 -162c68.667 -86.667 103 -171 103 -253s-14.167 -152.5 -42.5 -211.5s-68.166 -108.5 -119.499 -148.5c-101.333 -80 -241.666 -120 -420.999 -120c-113.333 0 -225.666 22 -336.999 66c-28 10.667 -47.667 20.667 -59 30z" />
    <glyph glyph-name="T" unicode="T" horiz-adv-x="1153" 
d="M495 1266l-359 -11l44 275h1067l-40 -275l-352 11l-181 -1266h-360z" />
    <glyph glyph-name="U" unicode="U" horiz-adv-x="1440" 
d="M114 432l-0.000976562 27.999c0 34.667 4.33301 80.334 13 137.001l133 933h353l-126 -888c-7.33301 -50.667 -11 -104.667 -11 -162s3.66699 -98.5 11 -123.5s18.666 -45.167 33.999 -60.5c29.333 -27.333 72.333 -41 129 -41s100.334 5.83301 131.001 17.5
s57.334 32.167 80.001 61.5c43.333 54.667 76 154.667 98 300l127 896h352l-130 -933c-30.667 -219.333 -100 -377 -208 -473c-106 -93.333 -266 -140 -480 -140c-254 0 -412.667 87.333 -476 262c-20 54.667 -30 116.667 -30 186z" />
    <glyph glyph-name="V" unicode="V" horiz-adv-x="1233" 
d="M103 1530h354l118 -980l17 -262l77 262l356 980h375l-660 -1530h-412z" />
    <glyph glyph-name="W" unicode="W" horiz-adv-x="1803" 
d="M97 1530h357l59 -980l20 -222l68 222l257 641l-36 339h345l60 -980l23 -222l53 222l334 980h364l-595 -1530h-413l-75 713l-261 -713h-375z" />
    <glyph glyph-name="X" unicode="X" horiz-adv-x="1244" 
d="M464 808l-321 722h380l177 -493l317 493h386l-544 -795l347 -735l-386 -1l-201 531l-322 -530h-396z" />
    <glyph glyph-name="Y" unicode="Y" horiz-adv-x="1164" 
d="M402 590l-319 940h372l141 -525l25 -134l58 134l284 525h393l-600 -940l-85 -590h-354z" />
    <glyph glyph-name="Z" unicode="Z" horiz-adv-x="1158" 
d="M-68 89l774 1099l93 67l-587 -10l46 285h976l23 -86l-742 -1088l-84 -74l618 10l-47 -292h-1043z" />
    <glyph glyph-name="bracketleft" unicode="[" horiz-adv-x="854" 
d="M346 1513c20.667 146.667 71.999 237 153.999 271c28.667 12 61.334 18 98.001 18c76.667 0 188 -15.667 334 -47l-26 -175h-255l-214 -1610h255l-22 -173l-70 -20c-84.667 -24 -175.667 -36 -273 -36c-63.333 0 -112 16.5 -146 49.5s-51 77.167 -51 132.5
c0 41.333 2.66699 78 8 110z" />
    <glyph glyph-name="backslash" unicode="\" horiz-adv-x="854" 
d="M6 1597h268l577 -1959h-269z" />
    <glyph glyph-name="bracketright" unicode="]" horiz-adv-x="854" 
d="M570.021 43.0918c-20.665 -146.657 -71.9961 -236.985 -153.991 -270.982c-28.665 -11.999 -61.3301 -17.999 -97.9951 -17.999c-76.6611 0 -187.987 15.666 -333.979 46.9971l25.999 174.989h254.984l213.986 1609.9h-254.984l21.999 172.989l69.9961 19.999
c84.6611 23.999 175.655 35.998 272.982 35.998c63.3291 0 111.993 -16.499 145.991 -49.4971s50.9971 -77.1621 50.9971 -132.492c0 -41.3311 -2.66602 -77.9951 -7.99902 -109.993z" />
    <glyph glyph-name="asciicircum" unicode="^" horiz-adv-x="1364" 
d="M657 1531h267l267 -1021h-271l-161 650l-358 -650h-275z" />
    <glyph glyph-name="underscore" unicode="_" horiz-adv-x="1335" 
d="M1287 -187l-20 -201h-1378l20 201h1378z" />
    <glyph glyph-name="grave" unicode="`" horiz-adv-x="546" 
d="M408 1226c-54 20 -134.667 75.333 -242 166c-98 84 -157 144.667 -177 182l209 200l334 -449z" />
    <glyph glyph-name="a" unicode="a" horiz-adv-x="1268" 
d="M774 1156c78.667 0 161 -15 247 -45l184 45l-161 -1156h-320l11 248c-54 -118 -125.667 -198 -215 -240c-34.667 -16 -78.167 -24 -130.5 -24s-99.833 11.5 -142.5 34.5s-77 54.167 -103 93.5c-49.333 72 -74 172 -74 300c0 200 58.667 370 176 510
c130 156 306 234 528 234zM442 433c0 -139.333 29.6699 -209.002 89.0029 -209.002c44.667 0 93 46 145 138c42 74.667 75.333 156 100 244l47 335c-18.667 3.33301 -44.334 5 -77.001 5s-63.334 -7.16699 -92.001 -21.5s-54.334 -33.666 -77.001 -57.999
s-42.5 -53.166 -59.5 -86.499s-30.833 -69 -41.5 -107c-22.667 -77.333 -34 -157.333 -34 -240z" />
    <glyph glyph-name="b" unicode="b" horiz-adv-x="1290" 
d="M514 -16c-80.667 0 -165 15.999 -253 47.999v2l-185 -34l225 1634h343l-85 -658l-21 -121c48.667 130.667 122.334 221.334 221.001 272.001c37.333 19.333 83.166 29 137.499 29s103 -11.667 146 -35s77.5 -55 103.5 -95c49.333 -73.333 74 -174 74 -302
c0 -198.667 -58.667 -368 -176 -508c-129.333 -154.667 -306 -232 -530 -232zM846 702.999c0 139.333 -29.3359 209.001 -88.0029 209.001c-64.667 0 -131 -82 -199 -246c-23.333 -56.667 -41.666 -112.334 -54.999 -167.001l1 56l-45 -356
c21.333 -3.33301 48.666 -5 81.999 -5s64.333 7 93 21s54.334 33.167 77.001 57.5s42.334 52.833 59.001 85.5s30.334 68 41.001 106c22.667 76 34 155.667 34 239z" />
    <glyph glyph-name="c" unicode="c" horiz-adv-x="956" 
d="M95 279c-14 54.667 -20.9971 121.666 -20.9971 200.999s15.5 162.833 46.5 250.5s74.167 162.834 129.5 225.501c116.667 133.333 265 200 445 200c106 0 192 -14.333 258 -43l-86 -342c-38.667 38.667 -76.667 66.167 -114 82.5s-68.333 24.5 -93 24.5
s-51 -7.5 -79 -22.5s-52.333 -38.167 -73 -69.5c-46.667 -69.333 -70 -165.333 -70 -288c0 -90 7.83301 -150.167 23.5 -180.5s33 -50.666 52 -60.999s40.667 -15.5 65 -15.5s48.166 3.66699 71.499 11s45.666 16.666 66.999 27.999c45.333 25.333 79.333 50.666 102 75.999
l89 -171c-56.667 -86.667 -145.334 -147 -266.001 -181c-45.333 -13.333 -101.666 -20 -168.999 -20s-127.333 13.667 -180 41s-95.334 62.833 -128.001 106.5s-56 92.834 -70 147.501z" />
    <glyph glyph-name="d" unicode="d" horiz-adv-x="1274" 
d="M528 12c-36.667 -18.667 -82.001 -28 -136.001 -28s-102.333 11.5 -145 34.5s-77 54.167 -103 93.5c-49.333 72 -74 172 -74 300c0 200 58.667 370 176 510c130 156 305.667 234 527 234c26 0 52.667 -2 80 -6l67 484h344l-211 -1634h-319l14 279
c-51.333 -129.333 -124.666 -218.333 -219.999 -267zM530.999 228c75.333 0 150.001 104.665 224.001 313.998c10 28.667 18.333 54.667 25 78l44 317c-22 6 -48.667 9 -80 9s-61.333 -7.16699 -90 -21.5s-54.334 -33.666 -77.001 -57.999s-42.5 -53.166 -59.5 -86.499
s-30.833 -69 -41.5 -107c-22.667 -77.333 -34 -157.333 -34 -240c0 -136.667 29.667 -205 89 -205z" />
    <glyph glyph-name="e" unicode="e" horiz-adv-x="1112" 
d="M73 476c0 81.333 16.666 165.669 49.999 253.002s79 162.666 137 225.999c122.667 134 274.667 201 456 201c171.333 0 278 -51.333 320 -154c13.333 -32.667 20 -77.667 20 -135s-16 -113.333 -48 -168s-75.333 -101.667 -130 -141
c-96.667 -69.333 -239.667 -127.666 -429 -174.999c0 -52.667 7.33301 -88.334 22 -107.001c26 -33.333 67 -50 123 -50c58.667 0 122.334 19.333 191.001 58c60.667 33.333 104.667 68.333 132 105l92 -171c-37.333 -54.667 -96.333 -104.334 -177 -149.001
c-101.333 -56.667 -210 -85 -326 -85c-145.333 0 -256 46.667 -332 140c-67.333 82 -101 199.333 -101 352zM443.999 561.003c64 4.66699 123.333 35 178 91c60 61.333 90 130.333 90 207c0 35.333 -5.83301 61 -17.5 77s-29.5 24 -53.5 24s-44.833 -6.66699 -62.5 -20
s-33.5 -30.833 -47.5 -52.5s-26.333 -46.5 -37 -74.5s-19.667 -57 -27 -87c-14 -55.333 -21.667 -110.333 -23 -165z" />
    <glyph glyph-name="f" unicode="f" horiz-adv-x="765" 
d="M237 924l-121.998 -0.000976562l41 216h111l19 105c17.333 125.333 69.666 227 156.999 305c88.667 80 199.667 120 333 120c77.333 0 137 -8.66699 179 -26l-62 -238c-32 32 -73.667 48 -125 48c-32.667 0 -56.334 -7.33301 -71.001 -22
c-28 -27.333 -47.667 -71.666 -59 -132.999l-28 -159h189l-27 -216h-187l-113 -828l-9 -60c-1.33301 -10.667 -3 -22.667 -5 -36v0h-348z" />
    <glyph glyph-name="g" unicode="g" horiz-adv-x="1269" 
d="M773 1156c78.667 0 160.999 -15 246.999 -45l188 45l-164 -1185c-30.667 -230.667 -153.334 -380.334 -368.001 -449.001c-82.667 -26 -176.667 -39 -282 -39c-74 0 -135.167 6.33301 -183.5 19s-77.5 21.334 -87.5 26.001l52 255c13.333 -13.333 41 -28 83 -44
c82 -31.333 145.333 -47 190 -47s79.334 5.16699 104.001 15.5s45.334 24.833 62.001 43.5c28 31.333 48.667 82 62 152l63 353c-34.667 -76.667 -70.667 -133 -108 -169c-73.333 -68.667 -145 -103 -215 -103s-126.333 11.5 -169 34.5s-77 54.167 -103 93.5
c-49.333 72 -74 172 -74 300c0 200 58.667 370 176 510c130 156 305.667 234 527 234zM821.999 941c-18.667 3.33301 -44.167 4.99707 -76.5 4.99707s-62.833 -7.16699 -91.5 -21.5s-54.334 -33.666 -77.001 -57.999s-42.5 -53.166 -59.5 -86.499s-30.833 -69 -41.5 -107
c-22.667 -77.333 -34 -157.333 -34 -240c0 -136.667 29.667 -205 89 -205c58 0 120 72.667 186 218c24.667 54.667 44.334 108.334 59.001 161.001z" />
    <glyph glyph-name="h" unicode="h" horiz-adv-x="1314" 
d="M825 801c0 57.333 -27 85.998 -81 85.998c-58 0 -116.667 -37 -176 -111c-18 -23.333 -34.333 -49.333 -49 -78l-94 -698h-347l220 1634h348l-75 -562l-29 -151c69.333 112.667 157.333 185.667 264 219c36 10.667 74.5 16 115.5 16s78.667 -5.16699 113 -15.5
s63.5 -27.5 87.5 -51.5c49.333 -49.333 74 -127.666 74 -234.999c0 -33.333 -5.33301 -89 -16 -167l-24 -176c-6 -46 -12.667 -92.667 -20 -140l-52 -371h-357c29.333 202.667 47 327.334 53 374.001l17 136c18.667 151.333 28 248.333 28 291z" />
    <glyph glyph-name="i" unicode="i" horiz-adv-x="664" 
d="M236 1140h359l-158 -1140h-357zM546 1329c-26.667 -10.667 -54.668 -15.998 -84.001 -15.998s-54.333 4.33301 -75 13c-41.333 17.333 -71.666 46.666 -90.999 87.999c-8.66699 19.333 -13 41.5 -13 66.5s5.33301 50.167 16 75.5s25 47.333 43 66
c40 39.333 90.333 59 151 59c52 0 95 -16.333 129 -49c32 -30.667 48 -68 48 -112c0 -94.667 -41.333 -158.334 -124 -191.001z" />
    <glyph glyph-name="j" unicode="j" horiz-adv-x="665" 
d="M-185 -313c8.66699 -6 28.332 -8.99902 58.999 -8.99902s59.834 10.667 87.501 32s49.5 49.666 65.5 84.999c23.333 50 44.333 140 63 270l147 1075h359l-158 -1140c-23.333 -168 -86.333 -299.333 -189 -394c-96.667 -89.333 -210.667 -134 -342 -134
c-89.333 0 -149.333 11.333 -180 34zM547.998 1329c-26.667 -10.667 -54.668 -15.998 -84.001 -15.998s-54.333 4.33301 -75 13c-41.333 17.333 -71.666 46.666 -90.999 87.999c-8.66699 19.333 -13 41.5 -13 66.5s5.33301 50.167 16 75.5s25 47.333 43 66
c40 39.333 90.333 59 151 59c52 0 95 -16.333 129 -49c32 -30.667 48 -68 48 -112c0 -94.667 -41.333 -158.334 -124 -191.001z" />
    <glyph glyph-name="k" unicode="k" horiz-adv-x="1226" 
d="M298 1634h349l-221 -1634h-348zM543 630h3l-3 1c88 49.333 159.333 126.333 214 231c17.333 32.667 33.333 65.334 48 98.001c28 64 49 124 63 180h353c-4 -96.667 -38.333 -192.667 -103 -288c-66.667 -100.667 -147.667 -177.334 -243 -230.001l324 -622h-408z" />
    <glyph glyph-name="l" unicode="l" horiz-adv-x="665" 
d="M303 1634h359l-222 -1634h-357z" />
    <glyph glyph-name="m" unicode="m" horiz-adv-x="1965" 
d="M835 801c0 57.333 -27.002 86.001 -81.002 86.001c-56.667 0 -114.667 -35.667 -174 -107c-18 -22.667 -34.333 -47.667 -49 -75l-98 -705h-357l156 1140h344l-15 -204c98.667 146.667 225.334 220 380.001 220s241.667 -76.667 261 -230
c100 153.333 227.333 230 382 230c178.667 0 268 -100.667 268 -302c0 -32.667 -5.33301 -88.334 -16 -167.001l-61 -444l-35 -243h-356l52 376c6 46 12 94.667 18 146l18 146c6.66699 61.333 10 105.666 10 132.999c0 57.333 -27 86 -81 86
c-35.333 0 -71.666 -15.5 -108.999 -46.5s-70.333 -72.5 -99 -124.5c-3.33301 -29.333 -7.33301 -61.333 -12 -96l-15 -109c-6 -46 -12.667 -92.667 -20 -140l-52 -371h-357c29.333 202.667 47 327.334 53 374.001l17 136c18.667 151.333 28 248.333 28 291z" />
    <glyph glyph-name="n" unicode="n" horiz-adv-x="1319" 
d="M835 801c0 57.333 -27 85.999 -81 85.999c-58 0 -116.667 -37 -176 -111c-18 -23.333 -34.333 -49.333 -49 -78l-96 -698h-357l156 1140h341l-13 -206c96 148 219 222 369 222c184.667 0 277 -100.667 277 -302c0 -33.333 -5.33301 -89 -16 -167l-24 -176
c-6 -46 -12.667 -92.667 -20 -140l-52 -371h-357c29.333 202.667 47 327.334 53 374.001l17 136c18.667 151.333 28 248.333 28 291z" />
    <glyph glyph-name="o" unicode="o" horiz-adv-x="1181" 
d="M65 466c0 62.667 6 122.668 18 180.001s29.833 111.5 53.5 162.5s53.167 97.667 88.5 140s76.333 78.833 123 109.5c98.667 65.333 216.334 98 353.001 98c140 0 246.333 -48 319 -144c64 -85.333 96 -199 96 -341c0 -192.667 -53 -352.334 -159 -479.001
c-115.333 -138.667 -274 -208 -476 -208c-140.667 0 -247.334 48 -320.001 144c-64 85.333 -96 198 -96 338zM419 429.001c0 -154 36.667 -230.999 110 -230.999c100.667 0 169.667 90.333 207 271c14.667 73.333 22 152 22 236c0 158 -36.667 237 -110 237
c-98 0 -166.667 -93.333 -206 -280c-15.333 -72.667 -23 -150.334 -23 -233.001z" />
    <glyph glyph-name="p" unicode="p" horiz-adv-x="1285" 
d="M360 -492l-352 0.000976562l223 1632h327l-3 -234c52 111.333 123 187.333 213 228c33.333 14.667 75.833 22 127.5 22s99 -11.333 142 -34s77.833 -53.334 104.5 -92.001c48.667 -72 73 -171.667 73 -299c0 -200 -58.667 -370.667 -176 -512
c-130 -156.667 -305.667 -235 -527 -235c-27.333 0 -55.333 2 -84 6zM458 199.001c20 -3.33301 46.6689 -4.99902 80.002 -4.99902s64.166 7.16699 92.499 21.5s53.833 33.833 76.5 58.5s42.5 53.834 59.5 87.501s30.833 69.5 41.5 107.5
c22.667 77.333 34 157.666 34 240.999c0 134.667 -29.333 202 -88 202c-62.667 0 -127.334 -77 -194.001 -231c-24.667 -56.667 -43.667 -111.334 -57 -164.001z" />
    <glyph glyph-name="q" unicode="q" horiz-adv-x="1278" 
d="M778 1156c81.333 0 164.333 -15.333 249 -46l180 46l-220 -1648h-350l65 492l45 276c-54 -130 -127 -218 -219 -264c-36.667 -18.667 -82 -28 -136 -28s-102.333 11.5 -145 34.5s-77 54.167 -103 93.5c-49.333 72 -74 172 -74 300c0 200 58.667 370 176 510
c130 156 307.333 234 532 234zM819 942c-22.667 2.66699 -48.667 3.99805 -78 3.99805s-58.333 -7.16699 -87 -21.5s-54.334 -33.666 -77.001 -57.999s-42.5 -53.166 -59.5 -86.499s-30.833 -69 -41.5 -107c-22.667 -77.333 -34 -157.333 -34 -240
c0 -136.667 29.667 -205 89 -205c70.667 0 142.334 96 215.001 288c10 27.333 18.667 53 26 77z" />
    <glyph glyph-name="r" unicode="r" horiz-adv-x="905" 
d="M761 807c-80 0 -154.335 -29.333 -223.002 -88l-3 3l-100 -722h-357l156 1140h344l-16 -228l-1 -8l1 1c22.667 67.333 59.334 125 110.001 173c54.667 52 115 78 181 78c32.667 0 56.334 -4.66699 71.001 -14l-63 -361c-12.667 17.333 -46 26 -100 26z" />
    <glyph glyph-name="s" unicode="s" horiz-adv-x="977" 
d="M379 233c96.667 0 145 27.665 145 82.998c0 38 -45.333 89 -136 153c-116.667 82 -187.334 167.333 -212.001 256c-8.66699 29.333 -13 66 -13 110s11 86.5 33 127.5s53.333 75.833 94 104.5c83.333 59.333 195.333 89 336 89c110 0 199 -12.333 267 -37l-38 -299
c-36.667 36.667 -91 63.334 -163 80.001c-24.667 6 -54 9 -88 9s-60.833 -7.83301 -80.5 -23.5s-29.5 -33.167 -29.5 -52.5s3.66699 -35.5 11 -48.5s18 -26 32 -39s31.333 -27.5 52 -43.5l76 -60.5c30 -24.333 57.667 -48 83 -71s46.333 -46.5 63 -70.5
c33.333 -49.333 50 -106.333 50 -171s-13.5 -119.167 -40.5 -163.5s-62.5 -80.166 -106.5 -107.499c-82 -49.333 -191 -74 -327 -74c-103.333 0 -197.333 15.333 -282 46c-23.333 8 -39.666 15.667 -48.999 23l56 280c38 -35.333 103 -65 195 -89
c26.667 -7.33301 50.667 -11 72 -11z" />
    <glyph glyph-name="t" unicode="t" horiz-adv-x="839" 
d="M790 136c-130 -104 -273.332 -156 -429.999 -156c-72 0 -129.167 18.667 -171.5 56s-63.5 90.333 -63.5 159c0 12.667 1.66699 33 5 61l8 76c2 22.667 4.66699 44.667 8 66l72 526h-84l36 216h105l98 276h267l-37 -276h222l-23 -216h-227l-80 -582
c-2.66699 -20 -4 -38 -4 -54c0 -42.667 23.333 -64 70 -64c36.667 0 81.667 17.333 135 52c15.333 10 28.666 20 39.999 30z" />
    <glyph glyph-name="u" unicode="u" horiz-adv-x="1292" 
d="M145.5 114c-15.667 32.667 -23.668 66.832 -24.001 102.499s0.5 67.834 2.5 96.501s4.66699 58.667 8 90c6 54 14.333 117.667 25 191l75 546h353l-70 -551l-10 -74c-11.333 -86 -17 -146.333 -17 -181s7 -60 21 -76s30 -24 48 -24c50.667 0 104.667 38 162 114
c16.667 22 32 45 46 69l101 723h357l-156 -1140h-318l6 194c-61.333 -96.667 -141.666 -162 -240.999 -196c-35.333 -12 -72 -18 -110 -18s-73.667 4.16699 -107 12.5s-63 22.5 -89 42.5s-46.833 46.333 -62.5 79z" />
    <glyph glyph-name="v" unicode="v" horiz-adv-x="1138" 
d="M1096 1140c7.33301 -51.333 11.001 -112.836 11.001 -184.503s-14.833 -152 -44.5 -241s-69.834 -175.167 -120.501 -258.5c-100.667 -165.333 -232 -314.666 -394 -447.999l-20 -17l-278 -12l-55 376l-102 785h351l62 -665l14 -199l49 65
c88.667 142.667 145.667 301.334 171 476.001c18 112.667 27 220.334 27 323.001h329z" />
    <glyph glyph-name="w" unicode="w" horiz-adv-x="1763" 
d="M1720 1140c7.33301 -44 10.998 -103.668 10.998 -179.001s-13.5 -155.666 -40.5 -240.999s-65.167 -168.666 -114.5 -249.999c-95.333 -155.333 -234.666 -309.333 -417.999 -462l-20 -17l-259 -12l-54 360c-71.333 -116.667 -164.666 -227 -279.999 -331l-20 -17
l-275 -12l-55 376l-103 785h361l59 -665l13 -209l59 76c98 150.667 161.667 306.667 191 468l-34 330h343l48 -665l13 -209l59 76c96 151.333 156 331 180 539c12 101.333 18 187.666 18 258.999h318z" />
    <glyph glyph-name="x" unicode="x" horiz-adv-x="1053" 
d="M346 601l-300 539h408l128 -315l195 315h356l-423 -581l323 -559h-408l-147 332l-215 -332h-368z" />
    <glyph glyph-name="y" unicode="y" horiz-adv-x="1140" 
d="M1094 1140c4 -20 6 -65.333 6 -136s-3.83301 -134.5 -11.5 -191.5s-18.5 -113.167 -32.5 -168.5c-70 -282 -194.667 -546 -374 -792l-104 -142c-69.333 -96.667 -147.333 -162.667 -234 -198c-48 -19.333 -96.167 -29 -144.5 -29s-85 2.33301 -110 7
s-48.5 10.667 -70.5 18c-36.667 11.333 -73.667 28 -111 50l89 244c57.333 -40.667 115.333 -61 174 -61c56 0 105.667 17.667 149 53c40.667 32.667 91 94.667 151 186h-206l-170 1160h352l107 -1003c41.333 84.667 75.166 167.167 101.499 247.5s44.833 138.5 55.5 174.5
s19.667 73.667 27 113c12.667 68.667 21.834 144.167 27.501 226.5s8.5 136.833 8.5 163.5v78h320z" />
    <glyph glyph-name="z" unicode="z" horiz-adv-x="984" 
d="M-45 45l554 790l52 38h-428l37 267h822l35 -44l-545 -793l-44 -31h457l-28 -272h-877z" />
    <glyph glyph-name="braceleft" unicode="{" horiz-adv-x="1024" 
d="M190 -166c-6 22 -9.00098 40.667 -9.00098 56s1.33301 33.333 4 54c10.667 82 18.667 141.667 24 179l59 423c0 28 -14 51.5 -42 70.5s-56.667 32.667 -86 41s-59 16.166 -89 23.499l32 203c32.667 8 66.334 15.833 101.001 23.5s62.667 17.167 84 28.5
c42.667 22 66.667 47.333 72 76l88 538c16 98.667 45.333 167.334 88 206.001c42 37.333 107.667 56 197 56c70.667 0 180.667 -19 330 -57l-31 -176h-276l-94 -619c-4 -27.333 -13 -49 -27 -65s-29.5 -29.333 -46.5 -40s-36.5 -20 -58.5 -28l-69 -25
c-28 -10 -58.667 -20.333 -92 -31c14.667 -8 31.667 -16.333 51 -25l56 -25c42 -20 68.333 -35.333 79 -46l24 -25c18.667 -20.667 25.667 -50 21 -88l-92 -592h275c-1.33301 -4 -3 -14.667 -5 -32c-4 -38 -9.66699 -82.333 -17 -133c-128 -51.333 -249.667 -77 -365 -77
c-104 0 -166 35.333 -186 106z" />
    <glyph glyph-name="bar" unicode="|" horiz-adv-x="854" 
d="M320 1780h253v-1966h-253v1966z" />
    <glyph glyph-name="braceright" unicode="}" horiz-adv-x="1024" 
d="M883.012 1711.99c5.99902 -21.999 8.99902 -40.6582 8.99902 -55.9912s-1.33301 -33.332 -3.99902 -53.9971c-10.666 -81.9951 -18.666 -141.658 -23.999 -178.989l-58.9961 -422.975c0 -27.998 13.999 -51.4971 41.9971 -70.4961
c27.999 -18.999 56.6641 -32.665 85.9951 -40.998s58.9961 -16.166 88.9941 -23.499l-31.998 -202.988c-32.665 -7.99902 -66.3291 -15.832 -100.993 -23.498c-34.665 -7.66699 -62.6631 -17.167 -83.9951 -28.5c-42.6641 -21.998 -66.6631 -47.3301 -71.9961 -75.9951
l-87.9941 -537.967c-15.999 -98.6611 -45.3311 -167.323 -87.9951 -205.987c-41.9971 -37.3311 -107.659 -55.9971 -196.986 -55.9971c-70.6631 0 -180.656 18.999 -329.98 56.9971l30.998 175.989h275.983l93.9941 618.962c4 27.3311 12.999 48.9961 26.998 64.9951
s29.498 29.3311 46.4971 39.9971s36.498 19.999 58.4971 27.999l68.9961 24.998c27.998 9.99902 58.6631 20.332 91.9941 30.998c-14.666 7.99902 -31.665 16.332 -50.9971 24.999l-55.9971 24.998c-41.9971 19.999 -68.3291 35.3311 -78.9951 45.9971l-23.998 24.999
c-18.665 20.665 -25.665 49.9961 -20.999 87.9932l91.9941 591.964h-274.982c1.33301 4 2.99902 14.666 4.99805 31.998c4 37.9971 9.66602 82.3281 16.999 132.992c127.992 51.3301 249.651 76.9951 364.979 76.9951c103.993 0 165.989 -35.3311 185.988 -105.993z" />
    <glyph glyph-name="asciitilde" unicode="~" horiz-adv-x="1137" 
d="M224 745l-148 141c16.667 52.667 59.334 102 128.001 148c70.667 48 142 72 214 72s147 -28.667 225 -86l59 -42c43.333 -29.333 82.666 -44 117.999 -44c70 0 130.667 35.667 182 107l134 -139c-15.333 -58 -56 -110.667 -122 -158c-68.667 -48 -138.667 -72 -210 -72
c-78 0 -152.333 30.333 -223 91s-133.5 91 -188.5 91s-111.167 -36.333 -168.5 -109z" />
    <glyph glyph-name="DEL" 
 />
    <glyph glyph-name="nonbreakingspace" unicode="&#xa0;" horiz-adv-x="485" 
 />
    <glyph glyph-name="exclamdown" unicode="&#xa1;" horiz-adv-x="686" 
d="M383.021 -433.892h-364.978l242.985 1289.92h257.984zM583.508 1330.5c27.665 -28.3311 41.4971 -60.6621 41.4971 -96.9932s-4.83301 -67.4961 -14.499 -93.4941c-9.66602 -25.999 -23.499 -48.6641 -41.498 -67.9961
c-39.9971 -43.9971 -90.6602 -65.9961 -151.989 -65.9961c-82.6611 0 -133.658 30.665 -152.991 91.9941c-5.33301 17.999 -7.99902 40.1641 -7.99902 66.4951c0 26.332 5 52.9971 14.999 79.9951c9.99902 26.999 24.3311 50.1641 42.9961 69.4961
c38.665 39.3311 86.3291 58.9961 142.992 58.9961s98.8271 -14.166 126.492 -42.4971z" />
    <glyph glyph-name="cent" unicode="&#xa2;" horiz-adv-x="1077" 
d="M346 10c-86 30.667 -151.997 89.332 -197.997 175.999c-38 72.667 -57 155.834 -57 249.501s11.333 179 34 256s54.667 145.833 96 206.5c85.333 124.667 198.666 204.334 339.999 239.001l66 291h240l-64 -278c74 -8 129.667 -20.333 167 -37l-86 -342
c-38.667 38.667 -76.667 66.167 -114 82.5s-68.333 24.5 -93 24.5s-51 -7.5 -79 -22.5s-52.667 -38.167 -74 -69.5c-46 -69.333 -69 -165.333 -69 -288c0 -90 7.83301 -150.167 23.5 -180.5s33 -50.666 52 -60.999s40.667 -15.5 65 -15.5s48.166 3.66699 71.499 11
s45.666 16.666 66.999 27.999c45.333 25.333 79.333 50.666 102 75.999l89 -171c-50.667 -75.333 -123.667 -131 -219 -167c-36.667 -14 -78 -23.667 -124 -29l-48 -264h-240z" />
    <glyph glyph-name="sterling" unicode="&#xa3;" horiz-adv-x="1426" 
d="M154 -12c-20 -5.33301 -41.335 -8 -64.002 -8s-44.167 4 -64.5 12s-36.833 18.667 -49.5 32c-25.333 24.667 -38 54 -38 88s8.5 63.167 25.5 87.5s38.833 45.166 65.5 62.499c56.667 36.667 117.667 55 183 55c34.667 44.667 57.667 99.334 69 164.001l41 238h-169
l30 232h179l26 149c34.667 198.667 138.334 334 311.001 406c62.667 26 132 39 208 39s137.833 -4.83301 185.5 -14.5s87.834 -21.167 120.501 -34.5c43.333 -17.333 84 -40.666 122 -69.999l-172 -256c-8.66699 26 -27 50.333 -55 73c-57.333 46.667 -113.333 70 -168 70
c-90.667 0 -153.334 -41.667 -188.001 -125c-12 -30.667 -21.667 -68.334 -29 -113.001l-21 -124h306l-30 -232h-314l-28 -173c-11.333 -68 -27.333 -123.5 -48 -166.5s-39.667 -73.833 -57 -92.5c50.667 -18.667 110.334 -32 179.001 -40s115.667 -12 141 -12
c86 0 150.833 13.333 194.5 40s65.5 61.667 65.5 105c0 36 -17.667 70 -53 102c-8 8 -14.333 13.333 -19 16l209 169c50 -23.333 91 -65 123 -125c30.667 -56 46 -111 46 -165c0 -204.667 -99.667 -331 -299 -379c-51.333 -12 -111.5 -18 -180.5 -18
s-132.333 4.66699 -190 14s-111.5 20 -161.5 32l-144 36c-44.667 11.333 -87.667 19 -129 23c-40 -48 -93 -80.333 -159 -97z" />
    <glyph glyph-name="currency" unicode="&#xa4;" horiz-adv-x="1540" 
d="M1014 317c-71.333 -43.333 -147.833 -65 -229.5 -65s-157.5 20.333 -227.5 61l-211 -211l-142 141l208 208c-46.667 73.333 -70 153 -70 239c0 84.667 22.667 163 68 235l-209 210l141 142l211 -213c72.667 42.667 150.5 64 233.5 64s161.167 -23.333 234.5 -70l207 206
l141 -142l-209 -209c41.333 -70 62 -145.667 62 -227s-22 -157 -66 -227l211 -211l-142 -141zM576 690c0 -59.333 20 -110 60 -152c40 -42.667 88.667 -64 146 -64s106 21.333 146 64c40 42 60 92.667 60 152s-20 110 -60 152c-40 42.667 -88.667 64 -146 64
s-106 -21.333 -146 -64c-40 -42 -60 -92.667 -60 -152z" />
    <glyph glyph-name="yen" unicode="&#xa5;" horiz-adv-x="1469" 
d="M125 506h407l22 174h-408l19 182h318l-259 668h355l167 -559l28 -109l46 109l275 559h422l-461 -668h304l-19 -182h-410l-25 -174h411l-16 -182h-421l-45 -324h-367l41 324h-403z" />
    <glyph glyph-name="brokenbar" unicode="&#xa6;" horiz-adv-x="854" 
d="M320 1780h253v-864h-253v864zM320 678h253v-864h-253v864z" />
    <glyph glyph-name="section" unicode="&#xa7;" horiz-adv-x="1194" 
d="M982 356c23.333 -45.333 35.3291 -95.8379 35.9961 -151.505s-9.33301 -106.167 -30 -151.5s-52.667 -85.666 -96 -120.999c-96 -79.333 -231 -119 -405 -119c-126 0 -246.667 27.667 -362 83c-27.333 12.667 -46.666 23.334 -57.999 32.001l57 251
c52 -58 160.333 -95 325 -111c20.667 -2 44.834 -3 72.501 -3s54.5 2.83301 80.5 8.5s46.667 13.834 62 24.501c26 18.667 39.167 42.5 39.5 71.5s-5 51.167 -16 66.5s-27 30 -48 44s-46.5 28 -76.5 42l-101 50c-170 84.667 -281.333 189.334 -334 314.001
c-19.333 44 -29 93.333 -29 148c0 116 62.333 212.333 187 289c-26 48 -39 101.5 -39 160.5s11.167 111.5 33.5 157.5s55.833 86.333 100.5 121c96.667 74 229 111 397 111c128 0 238.667 -24.667 332 -74c22.667 -12 39 -22.333 49 -31l-67 -221
c-27.333 38 -97.333 64.667 -210 80c-34 4.66699 -68.333 7 -103 7s-65.5 -3 -92.5 -9s-49.167 -14.333 -66.5 -25c-34 -20 -51 -48 -51 -84c-1.33301 -37.333 17.667 -69.333 57 -96c18.667 -12.667 42.334 -26 71.001 -40l99 -48
c238.667 -121.333 359.334 -276.333 362.001 -465c0 -89.333 -34 -171.666 -102 -246.999c-22 -24 -46.667 -45.333 -74 -64zM421.996 988.995c-21.333 -34 -32.335 -67.999 -33.002 -101.999s2.33301 -61.333 9 -82s19.334 -41 38.001 -61c36 -39.333 87.333 -77 154 -113
s117.334 -62.333 152.001 -79s68 -34.667 100 -54c23.333 35.333 35 70 35 104s-3.33301 60.833 -10 80.5s-19 39.5 -37 59.5c-34 38 -101.333 84.667 -202 140l-106 52c-34.667 17.333 -68 35.666 -100 54.999z" />
    <glyph glyph-name="dieresis" unicode="&#xa8;" horiz-adv-x="817" 
d="M699 1354c-24 -10.667 -49 -16.002 -75 -16.002s-48.167 4.83301 -66.5 14.5s-34.166 22.167 -47.499 37.5c-45.333 54 -55.333 118 -30 192c17.333 48.667 48 83.334 92 104.001c22.667 10 47 15 73 15s49 -4.66699 69 -14c39.333 -18.667 66.666 -48 81.999 -88
c6.66699 -18 10 -38.833 10 -62.5s-4 -48.167 -12 -73.5s-19.833 -47.166 -35.5 -65.499s-35.5 -32.833 -59.5 -43.5zM227 1354c-23.333 -10.667 -48.165 -16.0029 -74.498 -16.0029s-48.5 4.66699 -66.5 14c-38 20.667 -65.333 51.334 -82 92.001
c-7.33301 18.667 -11 39.834 -11 63.501s4.5 47.834 13.5 72.501s21.5 46 37.5 64c33.333 38 77.666 57 132.999 57c46 0 84 -17 114 -51c27.333 -30.667 41 -63 41 -97s-3.83301 -63.833 -11.5 -89.5s-19.334 -47.667 -35.001 -66s-35.167 -32.833 -58.5 -43.5z" />
    <glyph glyph-name="copyright" unicode="&#xa9;" horiz-adv-x="2091" 
d="M175 962c0 81.333 10.167 159.5 30.5 234.5s49.333 144.833 87 209.5s82.834 123.5 135.501 176.5s111.334 98.5 176.001 136.5c134 79.333 281 119 441 119c159.333 0 306.666 -39.667 441.999 -119c202 -118.667 334.667 -293 398 -523
c20.667 -74.667 31 -152.5 31 -233.5s-10.333 -159 -31 -234s-49.667 -145 -87 -210s-82.333 -124.167 -135 -177.5s-111.334 -99 -176.001 -137c-136 -80 -283.333 -120 -442 -120s-305.667 40 -441 120c-130.667 77.333 -234.667 182 -312 314
c-78 135.333 -117 283.333 -117 444zM317 962c0 -68.667 8.33105 -134.83 24.998 -198.497s40.334 -123.334 71.001 -179.001s67.667 -106.334 111 -152.001s92 -84.5 146 -116.5c114 -68.667 239 -103 375 -103s261 34.333 375 103c108 64.667 193.667 154 257 268
c64 116.667 96 243 96 379c0 207.333 -69 383.666 -207 528.999c-87.333 92.667 -194.666 157 -321.999 193c-62.667 18 -129 27 -199 27c-136 0 -261 -34 -375 -102c-108 -64.667 -193.667 -154.334 -257 -269.001c-64 -115.333 -96 -241.666 -96 -378.999zM1324 747.004
l43.999 -173.001c-53.333 -46 -126.666 -77.333 -219.999 -94c-32 -6 -73.5 -9 -124.5 -9s-104.167 13 -159.5 39s-102.666 61.333 -141.999 106c-82 92 -123 204.667 -123 338v7c0 144.667 41.667 261.334 125 350.001c89.333 96 212.666 144 369.999 144
c75.333 0 146.333 -12.333 213 -37c17.333 -6 31 -12 41 -18l-37 -205c-53.333 36.667 -124.333 55 -213 55c-72.667 0 -132 -23.667 -178 -71c-46.667 -48 -70 -110.333 -70 -187v-45c0 -27.333 6 -60 18 -98s29.333 -69.333 52 -94c42.667 -47.333 106.167 -71 190.5 -71
s155.5 21 213.5 63z" />
    <glyph glyph-name="ordfeminine" unicode="&#xaa;" horiz-adv-x="963" 
d="M665 880c-99.333 -102.667 -202.665 -153.999 -309.998 -153.999c-126.667 0 -208.334 53.333 -245.001 160c-12 33.333 -18 79.666 -18 138.999s15 124 45 194s71.667 131.667 125 185c115.333 115.333 258.666 173 429.999 173c68 0 134 -10.667 198 -32l161 28
l-161 -847h-218zM407.501 944.501c11 -19 31.501 -28.501 61.501 -28.501c55.333 0 114.666 38.333 177.999 115l88 395c-16 4 -37 6 -63 6s-53.167 -6.83301 -81.5 -20.5s-53.5 -31.667 -75.5 -54s-40.833 -47.666 -56.5 -75.999s-28.5 -57.5 -38.5 -87.5
c-19.333 -57.333 -29 -108.5 -29 -153.5s5.5 -77 16.5 -96z" />
    <glyph glyph-name="guillemotleft" unicode="&#xab;" horiz-adv-x="1996" 
d="M206 720l742 396l58 -205l-430 -306l364 -301l-110 -172l-656 398zM1012 720l742 396l58 -205l-430 -306l364 -301l-110 -172l-656 398z" />
    <glyph glyph-name="logicalnot" unicode="&#xac;" horiz-adv-x="1370" 
d="M228 853h960l-62 -531h-257l36 304h-703z" />
    <glyph glyph-name="uni00AD" unicode="&#xad;" horiz-adv-x="1706" 
 />
    <glyph glyph-name="registered" unicode="&#xae;" horiz-adv-x="2091" 
d="M171 962c0 80.667 10.3311 158.501 30.998 233.501s49.834 144.833 87.501 209.5s83 123.667 136 177s111.833 99 176.5 137c136 79.333 283.667 119 443 119c160 0 307.667 -39.667 443 -119c130.667 -76.667 235 -181.334 313 -314.001
c79.333 -135.333 119 -283 119 -443c0 -160.667 -39.667 -308.667 -119 -444c-77.333 -132.667 -181.666 -237.667 -312.999 -315c-136 -80 -283.667 -120 -443 -120c-158 0 -305.667 40 -443 120c-131.333 77.333 -235.333 182.333 -312 315c-79.333 136 -119 284 -119 444
zM312.998 962.001c0 -208 70 -384.669 210 -530.002c140.667 -146 314.667 -219 522 -219s381.333 73 522 219c88.667 92.667 150.334 202.667 185.001 330c16.667 64 25 130.5 25 199.5s-8.5 135.333 -25.5 199s-41 123.334 -72 179.001s-68.5 106.167 -112.5 151.5
s-93 84.333 -147 117c-113.333 68 -238.333 102 -375 102c-206 0 -380 -73 -522 -219c-88.667 -91.333 -150.334 -201.666 -185.001 -330.999c-16.667 -63.333 -25 -129.333 -25 -198zM1016 834.999l-42.001 -1h-49v-348h-225v963h97c20.667 0 40 0.333008 58 1l57 2
c58.667 2 113.5 3 164.5 3s99.5 -7 145.5 -21s84 -33.333 114 -58c61.333 -48.667 92 -114.334 92 -197.001c0 -175.333 -64.667 -281.666 -194 -318.999c53.333 -30.667 104 -97 152 -199c12.667 -26 24.667 -49 36 -69l30 -50c8.66699 -14 22 -32.333 40 -55h-255
c-10.667 11.333 -19.167 24 -25.5 38s-14.333 30.5 -24 49.5s-19.667 41.5 -30 67.5s-22.166 51.667 -35.499 77c-30.667 60 -66 98.667 -106 116zM1031 1290h-38c-23.333 0 -46 -3.66699 -68 -11v-281c20.667 -4.66699 60.667 -7 120 -7c104.667 0 157 53 157 159
c0 45.333 -13 80 -39 104s-70 36 -132 36z" />
    <glyph glyph-name="macron" unicode="&#xaf;" horiz-adv-x="620" 
d="M44 1614h577l-18 -209h-577z" />
    <glyph glyph-name="degree" unicode="&#xb0;" horiz-adv-x="957" 
d="M562 915c-52.667 0 -100.997 9.66797 -144.997 29.001c-88.667 38 -151.334 102 -188.001 192c-16 40 -24 83 -24 129v10c1.33301 102 37.666 187.333 108.999 256s160.666 103 267.999 103c102 0 188.333 -35.333 259 -106c66.667 -66.667 100 -149.334 100 -248.001
c0 -104.667 -37 -192 -111 -262c-72.667 -68.667 -162 -103 -268 -103zM505.503 1115c19.667 -9.33301 41.167 -13.9971 64.5 -13.9971s45.166 4.5 65.499 13.5s38.166 21.167 53.499 36.5c32 33.333 48 75 48 125v20.5c0 11.667 -4 27.667 -12 48
s-19.333 38.166 -34 53.499c-30.667 34 -69 51 -115 51c-74 0 -125.333 -35 -154 -105c-8.66699 -20.667 -13 -37.667 -13 -51v-37.5c0 -11.667 3.83301 -27.834 11.5 -48.501s18.834 -38.834 33.501 -54.501s31.834 -28.167 51.501 -37.5z" />
    <glyph glyph-name="plusminus" unicode="&#xb1;" horiz-adv-x="1356" 
d="M530 526l25 135l-124 -7h-249l35 263h249l117 -11l9 139l30 279h272l-26 -279l-25 -138l98 10h275l-35 -263h-274l-97 7l-6 -135l-34 -276h-273zM180 207h905l-16 -207h-906z" />
    <glyph glyph-name="twosuperior" unicode="&#xb2;" horiz-adv-x="1163" 
d="M619 1411c-117.333 0 -210.333 -32.668 -279 -98.001l-112 145c34 46.667 92 88 174 124c96 43.333 183 65 261 65s141 -6.66699 189 -20s88.667 -32.333 122 -57c67.333 -51.333 101 -122 101 -212c0 -92 -40.333 -194 -121 -306
c-87.333 -119.333 -197.333 -214.666 -330 -285.999l465 26l-17 -246h-848l-73 175c108 58 225.667 144.333 353 259c151.333 138 227 244.333 227 319s-37.333 112 -112 112z" />
    <glyph glyph-name="threesuperior" unicode="&#xb3;" horiz-adv-x="1071" 
d="M973 1408c0 -145.333 -62.332 -242.333 -186.999 -291c142.667 -24.667 214 -107 214 -247c0 -117.333 -50.667 -211.666 -152 -282.999c-96.667 -68.667 -218 -103 -364 -103c-108.667 0 -209 16 -301 48c-28.667 10 -52.667 21 -72 33l44 191
c62 -40 145.333 -60 250 -60c127.333 0 213.666 34.333 258.999 103c15.333 23.333 23 51.666 23 84.999c0 64.667 -36.333 99.334 -109 104.001l-238 -59l35 209c104 26 171.833 49.667 203.5 71s51.834 40 60.501 56s13 30.5 13 43.5s-2 25.167 -6 36.5s-10.667 22 -20 32
c-22.667 24 -55 36 -97 36c-90.667 0 -166.334 -22.333 -227.001 -67l-75 180c112.667 78.667 249.667 118 411 118c124 0 214.667 -28 272 -84c42 -40.667 63 -91.334 63 -152.001z" />
    <glyph glyph-name="acute" unicode="&#xb4;" horiz-adv-x="565" 
d="M19 1325l334 449l209 -200c-20 -37.333 -79.333 -98 -178 -182c-106.667 -90.667 -187 -146 -241 -166z" />
    <glyph glyph-name="mu" unicode="&#xb5;" horiz-adv-x="1364" 
d="M521 378c0 -91.333 35.002 -136.999 105.002 -136.999c31.333 0 60.666 11.333 87.999 34c52.667 44 82 90 88 138l94 727h352l-109 -862c-3.33301 -26 -1.33301 -46.333 6 -61s16 -22 26 -22s20.167 2.16699 30.5 6.5s20.5 9.83301 30.5 16.5
c20.667 14 37.334 30 50.001 48l78 -133l-50 -49c-70.667 -68 -159.334 -102 -266.001 -102c-54.667 0 -94 7.33301 -118 22c-42 26 -68 65.333 -78 118c-55.333 -92 -129 -138 -221 -138c-56 0 -103 12.333 -141 37c-15.333 10 -27.333 23 -36 39l-64 -432h-335l165 1173
c6.66699 47.333 2.66699 80.666 -12 99.999c-4.66699 6 -10.334 9 -17.001 9c-27.333 0 -56.333 -15.333 -87 -46l-48 165c42 42 113.333 78.667 214 110c36.667 11.333 72.5 17 107.5 17s66.167 -4 93.5 -12c82.667 -22.667 124 -76 124 -160
c0 -9.33301 -0.666992 -19.333 -2 -30l-64 -519c-2.66699 -21.333 -4 -40.333 -4 -57z" />
    <glyph glyph-name="paragraph" unicode="&#xb6;" horiz-adv-x="1364" 
d="M441 678c-106 2.66699 -192.669 42 -260.002 118c-68 76.667 -102 173 -102 289c0 223.333 112.333 372 337 446c81.333 26.667 181 40 299 40c56.667 0 114.334 -2.33301 173.001 -7c112.667 -8 186.334 -12 221.001 -12h348l-25 -192l-167 -33l-175 -1327h-279
l171 1322h-194l-173 -1322h-276z" />
    <glyph glyph-name="periodcentered" unicode="&#xb7;" horiz-adv-x="686" 
d="M190.5 659.5c-27.667 28.333 -41.499 60.667 -41.499 97s4.83301 67.5 14.5 93.5s23.5 48.667 41.5 68c40 44 90.667 66 152 66c82.667 0 133.334 -30.667 152.001 -92c6 -18 9 -40.167 9 -66.5s-5 -53 -15 -80s-24.333 -50.167 -43 -69.5
c-38.667 -39.333 -86.334 -59 -143.001 -59s-98.834 14.167 -126.501 42.5z" />
    <glyph glyph-name="cedilla" unicode="&#xb8;" horiz-adv-x="484" 
d="M217.5 -187.5c9.66699 16.333 15.167 35.668 16.5 58.001s2 48.666 2 78.999s-3 57.166 -9 80.499l100 4l89 -4c22.667 -31.333 41.334 -96.666 56.001 -195.999c4 -27.333 6 -54.5 6 -81.5s-5.33301 -54.667 -16 -83s-28 -52.833 -52 -73.5
c-50.667 -44.667 -128.334 -67 -233.001 -67c-54 0 -106 4.83301 -156 14.5s-78 16.5 -84 20.5l36 203c23.333 -10.667 48.833 -16 76.5 -16s52.167 1.66699 73.5 5s40 9.5 56 18.5s28.833 21.667 38.5 38z" />
    <glyph glyph-name="onesuperior" unicode="&#xb9;" horiz-adv-x="1020" 
d="M526 1360l-230.999 -52.001l-13 158c96 24.667 201.333 65.334 316 122.001c47.333 23.333 80.666 42.333 99.999 57l169 -21l-148 -1078h-305z" />
    <glyph glyph-name="ordmasculine" unicode="&#xba;" horiz-adv-x="946" 
d="M671 749c-64.667 -22 -127.501 -33.001 -188.501 -33.001s-113.667 8 -158 24s-83.166 39.333 -116.499 70c-72 65.333 -108 152.333 -108 261c0 158.667 54 286.334 162 383.001c100 90 221.667 135 365 135c114 0 204.333 -31 271 -93c70 -64 105 -151.333 105 -262
c0 -164 -53.667 -293 -161 -387c-49.333 -43.333 -106.333 -76 -171 -98zM389.999 1076c0 -128 35 -192.001 105 -192.001c104.667 0 171.667 69.333 201 208c9.33301 46.667 14 99.334 14 158.001s-7.66699 103 -23 133s-40.5 45 -75.5 45s-63 -6 -84 -18
s-39.333 -27.667 -55 -47s-28.667 -41.5 -39 -66.5s-18.833 -50.5 -25.5 -76.5c-12 -46.667 -18 -94.667 -18 -144z" />
    <glyph glyph-name="guillemotright" unicode="&#xbb;" horiz-adv-x="1996" 
d="M1013.01 518.044l-741.955 -395.976l-57.9961 204.987l429.974 305.981l-363.978 300.981l109.993 171.989l655.96 -397.976zM1819.01 518.044l-741.955 -395.976l-57.9961 204.987l429.974 305.981l-363.978 300.981l109.993 171.989l655.96 -397.976z" />
    <glyph glyph-name="onequarter" unicode="&#xbc;" horiz-adv-x="2560" 
d="M1306 185l550 926l68 1l213 -104l-445 -669l-66 -86l302 10l35 249l267 23l-32 -262l192 7l-24 -223h-194l-35 -293h-278l40 293h-532zM556 1360l-230.999 -52.001l-13 158c96 24.667 201.333 65.334 316 122.001c47.333 23.333 80.666 42.333 99.999 57l169 -21
l-148 -1078h-305zM1409 1530h259l-681 -1530h-259z" />
    <glyph glyph-name="onehalf" unicode="&#xbd;" horiz-adv-x="2560" 
d="M1853 697c-117.333 0 -210.333 -32.668 -279 -98.001l-112 145c34 46.667 92 88 174 124c96 43.333 183 65 261 65s141 -6.66699 189 -20s88.667 -32.333 122 -57c67.333 -51.333 101 -122 101 -212c0 -92 -40.333 -194 -121 -306
c-87.333 -119.333 -197.333 -214.666 -330 -285.999l465 26l-17 -246h-848l-73 175c108 58 225.667 144.333 353 259c151.333 138 227 244.333 227 319s-37.333 112 -112 112zM556 1360l-230.999 -52.001l-13 158c96 24.667 201.333 65.334 316 122.001
c47.333 23.333 80.666 42.333 99.999 57l169 -21l-148 -1078h-305zM1409 1530h259l-681 -1530h-259z" />
    <glyph glyph-name="threequarters" unicode="&#xbe;" horiz-adv-x="2560" 
d="M1306 185l550 926l68 1l213 -104l-445 -669l-66 -86l302 10l35 249l267 23l-32 -262l192 7l-24 -223h-194l-35 -293h-278l40 293h-532zM931 1465c0 -145.333 -62.332 -242.333 -186.999 -291c142.667 -24.667 214 -107 214 -247
c0 -117.333 -50.667 -211.666 -152 -282.999c-96.667 -68.667 -218 -103 -364 -103c-108.667 0 -209 16 -301 48c-28.667 10 -52.667 21 -72 33l44 191c62 -40 145.333 -60 250 -60c127.333 0 213.666 34.333 258.999 103c15.333 23.333 23 51.666 23 84.999
c0 64.667 -36.333 99.334 -109 104.001l-238 -59l35 209c104 26 171.833 49.667 203.5 71s51.834 40 60.501 56s13 30.5 13 43.5s-2 25.167 -6 36.5s-10.667 22 -20 32c-22.667 24 -55 36 -97 36c-90.667 0 -166.334 -22.333 -227.001 -67l-75 180
c112.667 78.667 249.667 118 411 118c124 0 214.667 -28 272 -84c42 -40.667 63 -91.334 63 -152.001zM1409 1530h259l-681 -1530h-259z" />
    <glyph glyph-name="questiondown" unicode="&#xbf;" horiz-adv-x="1068" 
d="M679.5 1114c-25.667 -12 -53.833 -18.001 -84.5 -18.001s-56.334 4 -77.001 12s-37.334 18.667 -50.001 32c-24 26 -36 58.167 -36 96.5s5 71 15 98s24.333 50.167 43 69.5c38.667 39.333 86.334 59 143.001 59s98.834 -14.167 126.501 -42.5s41.5 -60.666 41.5 -96.999
s-4.83301 -67.5 -14.5 -93.5s-23.5 -48.833 -41.5 -68.5s-39.833 -35.5 -65.5 -47.5zM46.001 85.999c0 61.333 8.50293 114.827 25.5029 160.494s39.333 85.834 67 120.501s59.167 64.834 94.5 90.501s71.666 48.834 108.999 69.501l108 59
c78.667 40.667 132.667 80.334 162 119.001c16.667 22.667 25 44.5 25 65.5s-1.83301 37.333 -5.5 49s-7.83398 22.834 -12.501 33.501l-13 29c-4.66699 9.33301 -8 17 -10 23l167 66l17 -1c50.667 -34.667 88 -92 112 -172c7.33301 -24.667 11 -50.167 11 -76.5
s-3.5 -52 -10.5 -77s-19.833 -49.167 -38.5 -72.5c-35.333 -45.333 -103 -93 -203 -143c-139.333 -62.667 -226.333 -122 -261 -178c-15.333 -40.667 -23 -79 -23 -115s7 -66.667 21 -92s34 -47.333 60 -66c57.333 -41.333 131.666 -62 222.999 -62
c78.667 0 147.667 7.66699 207 23l-56 -230c-28 -23.333 -78.667 -39.666 -152 -48.999c-22 -2.66699 -43 -4 -63 -4c-186 0 -328.333 41.333 -427 124c-89.333 74.667 -134 176.667 -134 306z" />
    <glyph glyph-name="Agrave" unicode="&#xc0;" horiz-adv-x="1345" 
d="M617 1530h450l227 -1530l-355 -1l-33 287h-522l-117 -286l-390 -1zM879 527l-76 675l-6 119l-39 -119l-276 -675h397zM807 1550c-77.333 28.667 -162.333 84.667 -255 168c-44 40 -74.333 76.333 -91 109l210 187l279 -342z" />
    <glyph glyph-name="Aacute" unicode="&#xc1;" horiz-adv-x="1345" 
d="M617 1530h450l227 -1530l-355 -1l-33 287h-522l-117 -286l-390 -1zM879 527l-76 675l-6 119l-39 -119l-276 -675h397zM723 1672l279 341.999l210 -187c-33.333 -63.333 -108.333 -133.666 -225 -210.999c-46.667 -31.333 -87 -53.333 -121 -66z" />
    <glyph glyph-name="Acircumflex" unicode="&#xc2;" horiz-adv-x="1345" 
d="M617 1530h450l227 -1530l-355 -1l-33 287h-522l-117 -286l-390 -1zM879 527l-76 675l-6 119l-39 -119l-276 -675h397zM457 1666l371 348h180l212 -337l-145 -78l-183 167l-287 -167z" />
    <glyph glyph-name="Atilde" unicode="&#xc3;" horiz-adv-x="1345" 
d="M617 1530h450l227 -1530l-355 -1l-33 287h-522l-117 -286l-390 -1zM879 527l-76 675l-6 119l-39 -119l-276 -675h397zM440 1783c24 47.333 66.667 91.6709 128 133.004c64.667 42.667 124 64 178 64c49.333 0 87.833 -8.83301 115.5 -26.5s48.334 -32.834 62.001 -45.501
s27.167 -24.334 40.5 -35.001c30.667 -24.667 58.667 -37 84 -37s46.166 3.33301 62.499 10s31.333 15.167 45 25.5s26.167 21.833 37.5 34.5l32 40l119 -145c-21.333 -50.667 -61.666 -97.334 -120.999 -140.001c-63.333 -46 -123 -69 -179 -69
c-74.667 0 -138.334 23.333 -191.001 70c-32.667 30 -59.167 49.667 -79.5 59s-40.333 14.166 -60 14.499s-37 -2 -52 -7s-29.333 -11.667 -43 -20s-26.5 -17.833 -38.5 -28.5l-34 -33z" />
    <glyph glyph-name="Adieresis" unicode="&#xc4;" horiz-adv-x="1345" 
d="M617 1530h450l227 -1530l-355 -1l-33 287h-522l-117 -286l-390 -1zM879 527l-76 675l-6 119l-39 -119l-276 -675h397zM1139 1648c-24 -10.667 -49.002 -16.002 -75.002 -16.002s-48.167 4.83301 -66.5 14.5s-34.166 22.167 -47.499 37.5c-45.333 54 -55 118 -29 192
c16.667 48.667 47.334 83.334 92.001 104.001c22 10 46 15 72 15s48.667 -4.66699 68 -14c40 -18.667 67.667 -48 83 -88c6.66699 -18 10 -38.833 10 -62.5s-4 -48.167 -12 -73.5s-19.833 -47.166 -35.5 -65.499s-35.5 -32.833 -59.5 -43.5zM666.998 1648
c-23.333 -10.667 -48.166 -16.0029 -74.499 -16.0029s-48.833 4.66699 -67.5 14c-37.333 20.667 -64.333 51.334 -81 92.001c-7.33301 18.667 -11 39.834 -11 63.501s4.5 47.834 13.5 72.501s21.167 46 36.5 64c34 38 78.667 57 134 57c46 0 84 -17 114 -51
c27.333 -30.667 41 -63 41 -97s-3.83301 -63.833 -11.5 -89.5s-19.334 -47.667 -35.001 -66s-35.167 -32.833 -58.5 -43.5z" />
    <glyph glyph-name="Aring" unicode="&#xc5;" horiz-adv-x="1345" 
d="M1186 1781c0 -110 -47.332 -193.668 -141.999 -251.001h23l227 -1530l-355 -1l-33 287h-522l-117 -286l-390 -1l732 1515c-79.333 40.667 -119 106.334 -119 197.001c0 106 45.333 185.667 136 239c72 42.667 156.667 64 254 64c143.333 0 237.666 -43.333 282.999 -130
c15.333 -28.667 23 -63 23 -103zM867.001 1878c-27.333 0 -51 -2.5 -71 -7.5s-38 -13.167 -54 -24.5c-37.333 -24.667 -56 -62 -56 -112c0 -34.667 14.667 -64 44 -88c28.667 -24 56.667 -36 84 -36c54 0 97 10.667 129 32s48 54 48 98s-13.833 78 -41.5 102
s-55.167 36 -82.5 36zM879.001 526.999l-76 675l-6 119l-39 -119l-276 -675h397z" />
    <glyph glyph-name="AE" unicode="&#xc6;" horiz-adv-x="1984" 
d="M642 1328l-242 32l28 170h1557l-37 -275l-562 2l-48 -337l419 5l-36 -276l-421 9l-55 -388l633 10l-37 -280h-989l42 296h-465l-158 -296h-392zM930 547l104 723l-80 8l-391 -731h367z" />
    <glyph glyph-name="Ccedilla" unicode="&#xc7;" horiz-adv-x="1204" 
d="M270 -231c23.333 -10.667 48.8291 -16.001 76.4961 -16.001s52.167 1.66699 73.5 5s40 9.33301 56 18c34 19.333 52.333 53.333 55 102c2.66699 40 2.33398 78 -0.999023 114c-199.333 31.333 -331.333 148.333 -396 351c-26 82 -39 170.167 -39 264.5
s8.83301 180.333 26.5 258s43.334 150.667 77.001 219s74.334 130.833 122.001 187.5s101.5 105.334 161.5 146.001c126.667 85.333 268.334 128 425.001 128c110.667 0 210.334 -18.667 299.001 -56l53 -14l-102 -335c-81.333 70.667 -177 106 -287 106
c-182.667 0 -307 -108.667 -373 -326c-27.333 -90 -41 -176.833 -41 -260.5s5 -147.667 15 -192s26 -81.166 48 -110.499c43.333 -58 114 -87 212 -87c90.667 0 176 20 256 60c21.333 10.667 38.666 20.667 51.999 30l46 -249c-53.333 -38 -129.333 -70.667 -228 -98
c-38.667 -10.667 -80 -18.667 -124 -24c28 -80.667 42 -146.834 42 -198.501s-5.33301 -91.667 -16 -120s-27.667 -52.833 -51 -73.5c-51.333 -44.667 -129.333 -67 -234 -67c-54 0 -106 4.83301 -156 14.5s-78 16.5 -84 20.5z" />
    <glyph glyph-name="Egrave" unicode="&#xc8;" horiz-adv-x="1204" 
d="M745 1550c-77.333 28.667 -162.333 84.667 -255 168c-44 40 -74.333 76.333 -91 109l210 187l279 -342zM291 1530h914l-37 -275l-562 2l-48 -337l419 5l-36 -276l-421 9l-55 -388l633 10l-37 -280h-989z" />
    <glyph glyph-name="Eacute" unicode="&#xc9;" horiz-adv-x="1204" 
d="M661 1672l279 341.999l210 -187c-33.333 -63.333 -108.333 -133.666 -225 -210.999c-46.667 -31.333 -87 -53.333 -121 -66zM291 1530h914l-37 -275l-562 2l-48 -337l419 5l-36 -276l-421 9l-55 -388l633 10l-37 -280h-989z" />
    <glyph glyph-name="Ecircumflex" unicode="&#xca;" horiz-adv-x="1204" 
d="M291 1530h914l-37 -275l-562 2l-48 -337l419 5l-36 -276l-421 9l-55 -388l633 10l-37 -280h-989zM395 1666l371 348h180l212 -337l-145 -78l-183 167l-287 -167z" />
    <glyph glyph-name="Edieresis" unicode="&#xcb;" horiz-adv-x="1204" 
d="M1077 1648c-24 -10.667 -49.002 -16.002 -75.002 -16.002s-48.167 4.83301 -66.5 14.5s-34.166 22.167 -47.499 37.5c-45.333 54 -55 118 -29 192c16.667 48.667 47.334 83.334 92.001 104.001c22 10 46 15 72 15s48.667 -4.66699 68 -14c40 -18.667 67.667 -48 83 -88
c6.66699 -18 10 -38.833 10 -62.5s-4 -48.167 -12 -73.5s-19.833 -47.166 -35.5 -65.499s-35.5 -32.833 -59.5 -43.5zM604.998 1648c-23.333 -10.667 -48.166 -16.0029 -74.499 -16.0029s-48.833 4.66699 -67.5 14c-37.333 20.667 -64.333 51.334 -81 92.001
c-7.33301 18.667 -11 39.834 -11 63.501s4.5 47.834 13.5 72.501s21.167 46 36.5 64c34 38 78.667 57 134 57c46 0 84 -17 114 -51c27.333 -30.667 41 -63 41 -97s-3.83301 -63.833 -11.5 -89.5s-19.334 -47.667 -35.001 -66s-35.167 -32.833 -58.5 -43.5zM290.998 1530h914
l-37 -275l-562 2l-48 -337l419 5l-36 -276l-421 9l-55 -388l633 10l-37 -280h-989z" />
    <glyph glyph-name="Igrave" unicode="&#xcc;" horiz-adv-x="706" 
d="M317 1530h354l-219 -1530h-354zM486 1550c-77.333 28.667 -162.333 84.667 -255 168c-44 40 -74.333 76.333 -91 109l210 187l279 -342z" />
    <glyph glyph-name="Iacute" unicode="&#xcd;" horiz-adv-x="706" 
d="M317 1530h354l-219 -1530h-354zM402 1672l279 341.999l210 -187c-33.333 -63.333 -108.333 -133.666 -225 -210.999c-46.667 -31.333 -87 -53.333 -121 -66z" />
    <glyph glyph-name="Icircumflex" unicode="&#xce;" horiz-adv-x="706" 
d="M317 1530h354l-219 -1530h-354zM136 1666l371 348h180l212 -337l-145 -78l-183 167l-287 -167z" />
    <glyph glyph-name="Idieresis" unicode="&#xcf;" horiz-adv-x="706" 
d="M317 1530h354l-219 -1530h-354zM819 1648c-24 -10.667 -49.002 -16.002 -75.002 -16.002s-48.167 4.83301 -66.5 14.5s-34.166 22.167 -47.499 37.5c-45.333 54 -55 118 -29 192c16.667 48.667 47.334 83.334 92.001 104.001c22 10 46 15 72 15s48.667 -4.66699 68 -14
c40 -18.667 67.667 -48 83 -88c6.66699 -18 10 -38.833 10 -62.5s-4 -48.167 -12 -73.5s-19.833 -47.166 -35.5 -65.499s-35.5 -32.833 -59.5 -43.5zM346.998 1648c-23.333 -10.667 -48.166 -16.0029 -74.499 -16.0029s-48.833 4.66699 -67.5 14
c-37.333 20.667 -64.333 51.334 -81 92.001c-7.33301 18.667 -11 39.834 -11 63.501s4.5 47.834 13.5 72.501s21.167 46 36.5 64c34 38 78.667 57 134 57c46 0 84 -17 114 -51c27.333 -30.667 41 -63 41 -97s-3.83301 -63.833 -11.5 -89.5s-19.334 -47.667 -35.001 -66
s-35.167 -32.833 -58.5 -43.5z" />
    <glyph glyph-name="Eth" unicode="&#xd0;" horiz-adv-x="1438" 
d="M460 1532l386.999 16c387.333 0 581 -204.667 581 -614c0 -264.667 -69.333 -484.667 -208 -660c-96 -120.667 -221.333 -204.667 -376 -252c-79.333 -24 -166.666 -36 -261.999 -36c-30.667 0 -71 1.66699 -121 5c-110 7.33301 -187.333 11 -232 11h-144l96 671h-152
l25 251h163l87 608h156zM476.999 266c42 -14 96.833 -21 164.5 -21s128.5 18.5 182.5 55.5s98.667 86.833 134 149.5c70.667 124.667 106 287.667 106 489c0 134 -23.333 226.667 -70 278c-42.667 46.667 -116 70 -220 70c-58.667 0 -109.667 -4.33301 -153 -13l-50 -350
h294l-26 -251h-304z" />
    <glyph glyph-name="Ntilde" unicode="&#xd1;" horiz-adv-x="1512" 
d="M495 1783c24 47.333 66.667 91.6709 128 133.004c64.667 42.667 124 64 178 64c49.333 0 87.833 -8.83301 115.5 -26.5s48.334 -32.834 62.001 -45.501s27.167 -24.334 40.5 -35.001c30.667 -24.667 58.667 -37 84 -37s46.166 3.33301 62.499 10s31.333 15.167 45 25.5
s26.167 21.833 37.5 34.5l32 40l119 -145c-21.333 -50.667 -61.666 -97.334 -120.999 -140.001c-63.333 -46 -123 -69 -179 -69c-74.667 0 -138.334 23.333 -191.001 70c-32.667 30 -59.167 49.667 -79.5 59s-40.333 14.166 -60 14.499s-37 -2 -52 -7
s-29.333 -11.667 -43 -20s-26.5 -17.833 -38.5 -28.5l-34 -33zM303 1530h307l356 -792l79 -260l13 260l97 792h342l-219 -1530h-297l-348 833l-99 275l3 -275l-115 -833h-338z" />
    <glyph glyph-name="Ograve" unicode="&#xd2;" horiz-adv-x="1394" 
d="M853 1550c-77.333 28.667 -162.333 84.667 -255 168c-44 40 -74.333 76.333 -91 109l210 187l279 -342zM100.5 348c-23 72 -34.502 149.999 -34.502 233.999s7.66699 166.833 23 248.5s37.833 158.5 67.5 230.5s66.334 137.667 110.001 197s93.5 110.333 149.5 153
c117.333 90 252.333 135 405 135c172.667 0 308.334 -59.333 407.001 -178c90.667 -109.333 136 -250 136 -422c0 -269.333 -66 -494.666 -198 -675.999c-88.667 -121.333 -199 -205 -331 -251c-67.333 -23.333 -143.333 -35 -228 -35s-161.5 15.667 -230.5 47
s-126.5 74 -172.5 128s-80.5 117 -103.5 189zM552.998 266.999c26.667 -11.333 58.168 -17.0029 94.501 -17.0029s70.5 9.66699 102.5 29s61 45.5 87 78.5s49.167 71.833 69.5 116.5s37.5 92.667 51.5 144c28 101.333 42 196 42 284s-4.66699 154.167 -14 198.5
s-23.333 79.833 -42 106.5c-33.333 48.667 -87 73 -161 73c-70 0 -133.667 -36.667 -191 -110c-77.333 -99.333 -128 -238.666 -152 -417.999c-6.66699 -53.333 -10 -109.166 -10 -167.499s4.66699 -109.666 14 -153.999s23.166 -79.833 41.499 -106.5
s40.833 -45.667 67.5 -57z" />
    <glyph glyph-name="Oacute" unicode="&#xd3;" horiz-adv-x="1394" 
d="M769 1672l279 341.999l210 -187c-33.333 -63.333 -108.333 -133.666 -225 -210.999c-46.667 -31.333 -87 -53.333 -121 -66zM100.5 347.999c-23 72 -34.502 149.999 -34.502 233.999s7.66699 166.833 23 248.5s37.833 158.5 67.5 230.5s66.334 137.667 110.001 197
s93.5 110.333 149.5 153c117.333 90 252.333 135 405 135c172.667 0 308.334 -59.333 407.001 -178c90.667 -109.333 136 -250 136 -422c0 -269.333 -66 -494.666 -198 -675.999c-88.667 -121.333 -199 -205 -331 -251c-67.333 -23.333 -143.333 -35 -228 -35
s-161.5 15.667 -230.5 47s-126.5 74 -172.5 128s-80.5 117 -103.5 189zM552.998 266.998c26.667 -11.333 58.168 -17.0029 94.501 -17.0029s70.5 9.66699 102.5 29s61 45.5 87 78.5s49.167 71.833 69.5 116.5s37.5 92.667 51.5 144c28 101.333 42 196 42 284
s-4.66699 154.167 -14 198.5s-23.333 79.833 -42 106.5c-33.333 48.667 -87 73 -161 73c-70 0 -133.667 -36.667 -191 -110c-77.333 -99.333 -128 -238.666 -152 -417.999c-6.66699 -53.333 -10 -109.166 -10 -167.499s4.66699 -109.666 14 -153.999
s23.166 -79.833 41.499 -106.5s40.833 -45.667 67.5 -57z" />
    <glyph glyph-name="Ocircumflex" unicode="&#xd4;" horiz-adv-x="1394" 
d="M100.5 348c-23 72 -34.502 149.999 -34.502 233.999s7.66699 166.833 23 248.5s37.833 158.5 67.5 230.5s66.334 137.667 110.001 197s93.5 110.333 149.5 153c117.333 90 252.333 135 405 135c172.667 0 308.334 -59.333 407.001 -178
c90.667 -109.333 136 -250 136 -422c0 -269.333 -66 -494.666 -198 -675.999c-88.667 -121.333 -199 -205 -331 -251c-67.333 -23.333 -143.333 -35 -228 -35s-161.5 15.667 -230.5 47s-126.5 74 -172.5 128s-80.5 117 -103.5 189zM552.998 266.999
c26.667 -11.333 58.168 -17.0029 94.501 -17.0029s70.5 9.66699 102.5 29s61 45.5 87 78.5s49.167 71.833 69.5 116.5s37.5 92.667 51.5 144c28 101.333 42 196 42 284s-4.66699 154.167 -14 198.5s-23.333 79.833 -42 106.5c-33.333 48.667 -87 73 -161 73
c-70 0 -133.667 -36.667 -191 -110c-77.333 -99.333 -128 -238.666 -152 -417.999c-6.66699 -53.333 -10 -109.166 -10 -167.499s4.66699 -109.666 14 -153.999s23.166 -79.833 41.499 -106.5s40.833 -45.667 67.5 -57zM502.999 1666l371 348h180l212 -337l-145 -78
l-183 167l-287 -167z" />
    <glyph glyph-name="Otilde" unicode="&#xd5;" horiz-adv-x="1394" 
d="M486 1783c24 47.333 66.667 91.6709 128 133.004c64.667 42.667 124 64 178 64c49.333 0 87.833 -8.83301 115.5 -26.5s48.334 -32.834 62.001 -45.501s27.167 -24.334 40.5 -35.001c30.667 -24.667 58.667 -37 84 -37s46.166 3.33301 62.499 10s31.333 15.167 45 25.5
s26.167 21.833 37.5 34.5l32 40l119 -145c-21.333 -50.667 -61.666 -97.334 -120.999 -140.001c-63.333 -46 -123 -69 -179 -69c-74.667 0 -138.334 23.333 -191.001 70c-32.667 30 -59.167 49.667 -79.5 59s-40.333 14.166 -60 14.499s-37 -2 -52 -7
s-29.333 -11.667 -43 -20s-26.5 -17.833 -38.5 -28.5l-34 -33zM100.5 348.005c-23 72 -34.502 149.999 -34.502 233.999s7.66699 166.833 23 248.5s37.833 158.5 67.5 230.5s66.334 137.667 110.001 197s93.5 110.333 149.5 153c117.333 90 252.333 135 405 135
c172.667 0 308.334 -59.333 407.001 -178c90.667 -109.333 136 -250 136 -422c0 -269.333 -66 -494.666 -198 -675.999c-88.667 -121.333 -199 -205 -331 -251c-67.333 -23.333 -143.333 -35 -228 -35s-161.5 15.667 -230.5 47s-126.5 74 -172.5 128s-80.5 117 -103.5 189z
M552.998 267.004c26.667 -11.333 58.168 -17.0029 94.501 -17.0029s70.5 9.66699 102.5 29s61 45.5 87 78.5s49.167 71.833 69.5 116.5s37.5 92.667 51.5 144c28 101.333 42 196 42 284s-4.66699 154.167 -14 198.5s-23.333 79.833 -42 106.5c-33.333 48.667 -87 73 -161 73
c-70 0 -133.667 -36.667 -191 -110c-77.333 -99.333 -128 -238.666 -152 -417.999c-6.66699 -53.333 -10 -109.166 -10 -167.499s4.66699 -109.666 14 -153.999s23.166 -79.833 41.499 -106.5s40.833 -45.667 67.5 -57z" />
    <glyph glyph-name="Odieresis" unicode="&#xd6;" horiz-adv-x="1394" 
d="M1185 1648c-24 -10.667 -49.002 -16.002 -75.002 -16.002s-48.167 4.83301 -66.5 14.5s-34.166 22.167 -47.499 37.5c-45.333 54 -55 118 -29 192c16.667 48.667 47.334 83.334 92.001 104.001c22 10 46 15 72 15s48.667 -4.66699 68 -14c40 -18.667 67.667 -48 83 -88
c6.66699 -18 10 -38.833 10 -62.5s-4 -48.167 -12 -73.5s-19.833 -47.166 -35.5 -65.499s-35.5 -32.833 -59.5 -43.5zM712.998 1648c-23.333 -10.667 -48.166 -16.0029 -74.499 -16.0029s-48.833 4.66699 -67.5 14c-37.333 20.667 -64.333 51.334 -81 92.001
c-7.33301 18.667 -11 39.834 -11 63.501s4.5 47.834 13.5 72.501s21.167 46 36.5 64c34 38 78.667 57 134 57c46 0 84 -17 114 -51c27.333 -30.667 41 -63 41 -97s-3.83301 -63.833 -11.5 -89.5s-19.334 -47.667 -35.001 -66s-35.167 -32.833 -58.5 -43.5zM100.498 347.995
c-23 72 -34.502 149.999 -34.502 233.999s7.66699 166.833 23 248.5s37.833 158.5 67.5 230.5s66.334 137.667 110.001 197s93.5 110.333 149.5 153c117.333 90 252.333 135 405 135c172.667 0 308.334 -59.333 407.001 -178c90.667 -109.333 136 -250 136 -422
c0 -269.333 -66 -494.666 -198 -675.999c-88.667 -121.333 -199 -205 -331 -251c-67.333 -23.333 -143.333 -35 -228 -35s-161.5 15.667 -230.5 47s-126.5 74 -172.5 128s-80.5 117 -103.5 189zM552.996 266.994c26.667 -11.333 58.168 -17.0029 94.501 -17.0029
s70.5 9.66699 102.5 29s61 45.5 87 78.5s49.167 71.833 69.5 116.5s37.5 92.667 51.5 144c28 101.333 42 196 42 284s-4.66699 154.167 -14 198.5s-23.333 79.833 -42 106.5c-33.333 48.667 -87 73 -161 73c-70 0 -133.667 -36.667 -191 -110
c-77.333 -99.333 -128 -238.666 -152 -417.999c-6.66699 -53.333 -10 -109.166 -10 -167.499s4.66699 -109.666 14 -153.999s23.166 -79.833 41.499 -106.5s40.833 -45.667 67.5 -57z" />
    <glyph glyph-name="multiply" unicode="&#xd7;" horiz-adv-x="1397" 
d="M166 454l385 336l-313 337l209 185l291 -361l379 361l173 -207l-393 -336l321 -337l-209 -185l-299 361l-371 -360z" />
    <glyph glyph-name="Oslash" unicode="&#xd8;" horiz-adv-x="1393" 
d="M598 -14c-90 0 -175.001 20.998 -255.001 62.998l-113 -181l-89 49l119 188c-129.333 108 -194 266.333 -194 475c0 272 66.667 498.667 200 680c90 122 201.667 206 335 252c68 24 148.167 36 240.5 36s178.833 -23.333 259.5 -70l110 192l89 -49l-117 -204
c120.667 -111.333 181 -267.666 181 -468.999c0 -269.333 -66 -494.666 -198 -675.999c-139.333 -190.667 -328.666 -286 -567.999 -286zM926.999 1230c-32 34.667 -80 51.999 -144 51.999c-70 0 -133.667 -36.667 -191 -110c-77.333 -99.333 -128 -238.666 -152 -417.999
c-6.66699 -53.333 -10 -103.333 -10 -150c0 -87.333 7.66699 -157.333 23 -210zM509.999 295.997c32 -29.333 72 -43.999 120 -43.999s88 9.66699 120 29s61 45.5 87 78.5s49.167 71.833 69.5 116.5s37.5 92.667 51.5 144c28 101.333 42 198.666 42 291.999
s-6.33301 163.333 -19 210z" />
    <glyph glyph-name="Ugrave" unicode="&#xd9;" horiz-adv-x="1440" 
d="M833 1550c-77.333 28.667 -162.333 84.667 -255 168c-44 40 -74.333 76.333 -91 109l210 187l279 -342zM114 432l-0.000976562 27.999c0 34.667 4.33301 80.334 13 137.001l133 933h353l-126 -888c-7.33301 -50.667 -11 -104.667 -11 -162s3.66699 -98.5 11 -123.5
s18.666 -45.167 33.999 -60.5c29.333 -27.333 72.333 -41 129 -41s100.334 5.83301 131.001 17.5s57.334 32.167 80.001 61.5c43.333 54.667 76 154.667 98 300l127 896h352l-130 -933c-30.667 -219.333 -100 -377 -208 -473c-106 -93.333 -266 -140 -480 -140
c-254 0 -412.667 87.333 -476 262c-20 54.667 -30 116.667 -30 186z" />
    <glyph glyph-name="Uacute" unicode="&#xda;" horiz-adv-x="1440" 
d="M749 1672l279 341.999l210 -187c-33.333 -63.333 -108.333 -133.666 -225 -210.999c-46.667 -31.333 -87 -53.333 -121 -66zM114 431.999l-0.000976562 27.999c0 34.667 4.33301 80.334 13 137.001l133 933h353l-126 -888c-7.33301 -50.667 -11 -104.667 -11 -162
s3.66699 -98.5 11 -123.5s18.666 -45.167 33.999 -60.5c29.333 -27.333 72.333 -41 129 -41s100.334 5.83301 131.001 17.5s57.334 32.167 80.001 61.5c43.333 54.667 76 154.667 98 300l127 896h352l-130 -933c-30.667 -219.333 -100 -377 -208 -473
c-106 -93.333 -266 -140 -480 -140c-254 0 -412.667 87.333 -476 262c-20 54.667 -30 116.667 -30 186z" />
    <glyph glyph-name="Ucircumflex" unicode="&#xdb;" horiz-adv-x="1440" 
d="M114 432l-0.000976562 27.999c0 34.667 4.33301 80.334 13 137.001l133 933h353l-126 -888c-7.33301 -50.667 -11 -104.667 -11 -162s3.66699 -98.5 11 -123.5s18.666 -45.167 33.999 -60.5c29.333 -27.333 72.333 -41 129 -41s100.334 5.83301 131.001 17.5
s57.334 32.167 80.001 61.5c43.333 54.667 76 154.667 98 300l127 896h352l-130 -933c-30.667 -219.333 -100 -377 -208 -473c-106 -93.333 -266 -140 -480 -140c-254 0 -412.667 87.333 -476 262c-20 54.667 -30 116.667 -30 186zM482.999 1666l371 348h180l212 -337
l-145 -78l-183 167l-287 -167z" />
    <glyph glyph-name="Udieresis" unicode="&#xdc;" horiz-adv-x="1440" 
d="M1165 1648c-24 -10.667 -49.002 -16.002 -75.002 -16.002s-48.167 4.83301 -66.5 14.5s-34.166 22.167 -47.499 37.5c-45.333 54 -55 118 -29 192c16.667 48.667 47.334 83.334 92.001 104.001c22 10 46 15 72 15s48.667 -4.66699 68 -14c40 -18.667 67.667 -48 83 -88
c6.66699 -18 10 -38.833 10 -62.5s-4 -48.167 -12 -73.5s-19.833 -47.166 -35.5 -65.499s-35.5 -32.833 -59.5 -43.5zM692.998 1648c-23.333 -10.667 -48.166 -16.0029 -74.499 -16.0029s-48.833 4.66699 -67.5 14c-37.333 20.667 -64.333 51.334 -81 92.001
c-7.33301 18.667 -11 39.834 -11 63.501s4.5 47.834 13.5 72.501s21.167 46 36.5 64c34 38 78.667 57 134 57c46 0 84 -17 114 -51c27.333 -30.667 41 -63 41 -97s-3.83301 -63.833 -11.5 -89.5s-19.334 -47.667 -35.001 -66s-35.167 -32.833 -58.5 -43.5zM113.998 431.995
l-0.000976562 27.999c0 34.667 4.33301 80.334 13 137.001l133 933h353l-126 -888c-7.33301 -50.667 -11 -104.667 -11 -162s3.66699 -98.5 11 -123.5s18.666 -45.167 33.999 -60.5c29.333 -27.333 72.333 -41 129 -41s100.334 5.83301 131.001 17.5
s57.334 32.167 80.001 61.5c43.333 54.667 76 154.667 98 300l127 896h352l-130 -933c-30.667 -219.333 -100 -377 -208 -473c-106 -93.333 -266 -140 -480 -140c-254 0 -412.667 87.333 -476 262c-20 54.667 -30 116.667 -30 186z" />
    <glyph glyph-name="Yacute" unicode="&#xdd;" horiz-adv-x="1176" 
d="M414 590l-319 940h372l141 -525l25 -134l58 134l284 525h393l-600 -940l-85 -590h-354zM605 1672l279 341.999l210 -187c-33.333 -63.333 -108.333 -133.666 -225 -210.999c-46.667 -31.333 -87 -53.333 -121 -66z" />
    <glyph glyph-name="Thorn" unicode="&#xde;" horiz-adv-x="1306" 
d="M631 258c-32 0 -83.999 3.99902 -155.999 11.999l-38 -270h-361l215 1530h360l-35 -247c53.333 3.33301 97.666 5 132.999 5c172 0 304.5 -35.833 397.5 -107.5s139.833 -177.5 140.5 -317.5c0 -173.333 -56.333 -315.666 -169 -426.999
c-120 -118.667 -282.333 -178 -487 -178zM686.001 1042c-49.333 0 -83 -1.66699 -101 -5l-3 3l-70 -506c29.333 -7.33301 71 -11 125 -11c96 0 169 27.333 219 82c56.667 62 85 144.333 85 247c0 126.667 -85 190 -255 190z" />
    <glyph glyph-name="germandbls" unicode="&#xdf;" horiz-adv-x="1329" 
d="M754 226c103.333 0 155.001 39.6592 155.001 118.992c0 42 -23.333 89 -70 141c-64.667 71.333 -110 147.333 -136 228c-7.33301 22 -11 44.5 -11 67.5s3.83301 44.833 11.5 65.5s17.834 40.334 30.501 59.001c18.667 28.667 48 63 88 103c89.333 78 134 157.333 134 238
c0 52 -26 87.667 -78 107c-16.667 6.66699 -38.334 10 -65.001 10s-55.167 -8.83301 -85.5 -26.5s-58.166 -46.167 -83.499 -85.5c-56 -85.333 -94 -213.666 -114 -384.999l-118 -867h-347l124 927c40 270.667 132.333 455.334 277 554.001
c79.333 54.667 169.666 87 270.999 97c46.667 4.66699 96.167 7 148.5 7s103.666 -6.66699 153.999 -20s93.833 -33 130.5 -59c76 -53.333 114 -127.666 114 -222.999c0 -120 -39.333 -215.667 -118 -287l-58 -52c-40.667 -40 -61 -78.333 -61 -115
c0 -33.333 10.167 -66.333 30.5 -99s38.5 -59.667 54.5 -81s31.5 -43.166 46.5 -65.499s28.167 -46.166 39.5 -71.499c26.667 -58 40 -116.667 40 -176s-10.333 -110.666 -31 -153.999s-50 -79.666 -88 -108.999c-76.667 -59.333 -180 -89 -310 -89s-224.667 15.667 -284 47
l24 264c28 -30 72.333 -51 133 -63c18.667 -4 36 -6 52 -6z" />
    <glyph glyph-name="agrave" unicode="&#xe0;" horiz-adv-x="1268" 
d="M774 1156c78.667 0 161 -15 247 -45l184 45l-161 -1156h-320l11 248c-54 -118 -125.667 -198 -215 -240c-34.667 -16 -78.167 -24 -130.5 -24s-99.833 11.5 -142.5 34.5s-77 54.167 -103 93.5c-49.333 72 -74 172 -74 300c0 200 58.667 370 176 510
c130 156 306 234 528 234zM442 433c0 -139.333 29.6699 -209.002 89.0029 -209.002c44.667 0 93 46 145 138c42 74.667 75.333 156 100 244l47 335c-18.667 3.33301 -44.334 5 -77.001 5s-63.334 -7.16699 -92.001 -21.5s-54.334 -33.666 -77.001 -57.999
s-42.5 -53.166 -59.5 -86.499s-30.833 -69 -41.5 -107c-22.667 -77.333 -34 -157.333 -34 -240zM774.003 1226c-54 20 -134.667 75.333 -242 166c-98 84 -157 144.667 -177 182l209 200l334 -449z" />
    <glyph glyph-name="aacute" unicode="&#xe1;" horiz-adv-x="1268" 
d="M774 1156c78.667 0 161 -15 247 -45l184 45l-161 -1156h-320l11 248c-54 -118 -125.667 -198 -215 -240c-34.667 -16 -78.167 -24 -130.5 -24s-99.833 11.5 -142.5 34.5s-77 54.167 -103 93.5c-49.333 72 -74 172 -74 300c0 200 58.667 370 176 510
c130 156 306 234 528 234zM442 433c0 -139.333 29.6699 -209.002 89.0029 -209.002c44.667 0 93 46 145 138c42 74.667 75.333 156 100 244l47 335c-18.667 3.33301 -44.334 5 -77.001 5s-63.334 -7.16699 -92.001 -21.5s-54.334 -33.666 -77.001 -57.999
s-42.5 -53.166 -59.5 -86.499s-30.833 -69 -41.5 -107c-22.667 -77.333 -34 -157.333 -34 -240zM666.003 1325l334 449l209 -200c-20 -37.333 -79.333 -98 -178 -182c-106.667 -90.667 -187 -146 -241 -166z" />
    <glyph glyph-name="acircumflex" unicode="&#xe2;" horiz-adv-x="1268" 
d="M774 1156c78.667 0 161 -15 247 -45l184 45l-161 -1156h-320l11 248c-54 -118 -125.667 -198 -215 -240c-34.667 -16 -78.167 -24 -130.5 -24s-99.833 11.5 -142.5 34.5s-77 54.167 -103 93.5c-49.333 72 -74 172 -74 300c0 200 58.667 370 176 510
c130 156 306 234 528 234zM442 433c0 -139.333 29.6699 -209.002 89.0029 -209.002c44.667 0 93 46 145 138c42 74.667 75.333 156 100 244l47 335c-18.667 3.33301 -44.334 5 -77.001 5s-63.334 -7.16699 -92.001 -21.5s-54.334 -33.666 -77.001 -57.999
s-42.5 -53.166 -59.5 -86.499s-30.833 -69 -41.5 -107c-22.667 -77.333 -34 -157.333 -34 -240zM424.003 1296l371 374h180l212 -374l-155 -68l-180 174l-290 -173z" />
    <glyph glyph-name="atilde" unicode="&#xe3;" horiz-adv-x="1268" 
d="M774 1156c78.667 0 161 -15 247 -45l184 45l-161 -1156h-320l11 248c-54 -118 -125.667 -198 -215 -240c-34.667 -16 -78.167 -24 -130.5 -24s-99.833 11.5 -142.5 34.5s-77 54.167 -103 93.5c-49.333 72 -74 172 -74 300c0 200 58.667 370 176 510
c130 156 306 234 528 234zM442 433c0 -139.333 29.6699 -209.002 89.0029 -209.002c44.667 0 93 46 145 138c42 74.667 75.333 156 100 244l47 335c-18.667 3.33301 -44.334 5 -77.001 5s-63.334 -7.16699 -92.001 -21.5s-54.334 -33.666 -77.001 -57.999
s-42.5 -53.166 -59.5 -86.499s-30.833 -69 -41.5 -107c-22.667 -77.333 -34 -157.333 -34 -240zM366.003 1501c24 47.333 66.667 91.668 128 133.001c64.667 42.667 124 64 178 64c66 0 125.333 -25.667 178 -77c32.667 -32 58 -52.833 76 -62.5s36.833 -14.5 56.5 -14.5
s37.667 3.33301 54 10s31.333 15.167 45 25.5s25.834 21.833 36.501 34.5l33 40l119 -145c-21.333 -50.667 -61.333 -97.334 -120 -140.001c-64 -46 -124 -69 -180 -69c-75.333 0 -138.666 25.333 -189.999 76c-32.667 31.333 -59.334 52 -80.001 62
s-40.834 15.167 -60.501 15.5s-37 -2 -52 -7s-29.333 -11.667 -43 -20s-26.5 -17.833 -38.5 -28.5l-34 -33z" />
    <glyph glyph-name="adieresis" unicode="&#xe4;" horiz-adv-x="1268" 
d="M774 1156c78.667 0 161 -15 247 -45l184 45l-161 -1156h-320l11 248c-54 -118 -125.667 -198 -215 -240c-34.667 -16 -78.167 -24 -130.5 -24s-99.833 11.5 -142.5 34.5s-77 54.167 -103 93.5c-49.333 72 -74 172 -74 300c0 200 58.667 370 176 510
c130 156 306 234 528 234zM442 433c0 -139.333 29.6699 -209.002 89.0029 -209.002c44.667 0 93 46 145 138c42 74.667 75.333 156 100 244l47 335c-18.667 3.33301 -44.334 5 -77.001 5s-63.334 -7.16699 -92.001 -21.5s-54.334 -33.666 -77.001 -57.999
s-42.5 -53.166 -59.5 -86.499s-30.833 -69 -41.5 -107c-22.667 -77.333 -34 -157.333 -34 -240zM1122 1354c-24 -10.667 -49 -16.002 -75 -16.002s-48.167 4.83301 -66.5 14.5s-34.166 22.167 -47.499 37.5c-45.333 54 -55.333 118 -30 192
c17.333 48.667 48 83.334 92 104.001c22.667 10 47 15 73 15s49 -4.66699 69 -14c39.333 -18.667 66.666 -48 81.999 -88c6.66699 -18 10 -38.833 10 -62.5s-4 -48.167 -12 -73.5s-19.833 -47.166 -35.5 -65.499s-35.5 -32.833 -59.5 -43.5zM650.003 1354
c-23.333 -10.667 -48.165 -16.0029 -74.498 -16.0029s-48.5 4.66699 -66.5 14c-38 20.667 -65.333 51.334 -82 92.001c-7.33301 18.667 -11 39.834 -11 63.501s4.5 47.834 13.5 72.501s21.5 46 37.5 64c33.333 38 77.666 57 132.999 57c46 0 84 -17 114 -51
c27.333 -30.667 41 -63 41 -97s-3.83301 -63.833 -11.5 -89.5s-19.334 -47.667 -35.001 -66s-35.167 -32.833 -58.5 -43.5z" />
    <glyph glyph-name="aring" unicode="&#xe5;" horiz-adv-x="1268" 
d="M774 1156c78.667 0 161 -15 247 -45l184 45l-161 -1156h-320l11 248c-54 -118 -125.667 -198 -215 -240c-34.667 -16 -78.167 -24 -130.5 -24s-99.833 11.5 -142.5 34.5s-77 54.167 -103 93.5c-49.333 72 -74 172 -74 300c0 200 58.667 370 176 510
c130 156 306 234 528 234zM442 433c0 -139.333 29.6699 -209.002 89.0029 -209.002c44.667 0 93 46 145 138c42 74.667 75.333 156 100 244l47 335c-18.667 3.33301 -44.334 5 -77.001 5s-63.334 -7.16699 -92.001 -21.5s-54.334 -33.666 -77.001 -57.999
s-42.5 -53.166 -59.5 -86.499s-30.833 -69 -41.5 -107c-22.667 -77.333 -34 -157.333 -34 -240zM950.003 1272c-45.333 -12.667 -91.499 -18.999 -138.499 -18.999s-89.667 5.33301 -128 16s-71.166 26.334 -98.499 47.001c-56.667 42.667 -85 98.167 -85 166.5
s13 122.166 39 161.499s58.333 70.666 97 93.999c72 44 156.667 66 254 66c143.333 0 237.666 -44 282.999 -132c15.333 -29.333 23 -67.5 23 -114.5s-11.333 -90.167 -34 -129.5s-52.334 -72 -89.001 -98s-77.667 -45.333 -123 -58zM877.004 1664
c-27.333 0 -51 -2.5 -71 -7.5s-38 -13.167 -54 -24.5c-37.333 -24.667 -56 -62 -56 -112c0 -34.667 14.667 -64 44 -88c28.667 -24 56.667 -36 84 -36c54 0 97 10.667 129 32s48 54 48 98s-13.833 78 -41.5 102s-55.167 36 -82.5 36z" />
    <glyph glyph-name="ae" unicode="&#xe6;" horiz-adv-x="1770" 
d="M1084 1090c90.667 44 187.332 66.001 289.999 66.001c171.333 0 278 -51.333 320 -154c13.333 -32.667 20 -77.667 20 -135s-16 -113.333 -48 -168s-75.333 -101.667 -130 -141c-96.667 -69.333 -239.667 -127.666 -429 -174.999c0 -52.667 7.33301 -88.334 22 -107.001
c26 -33.333 67 -50 123 -50c58.667 0 122.334 19.333 191.001 58c60.667 33.333 104.667 68.333 132 105l92 -171c-37.333 -54.667 -96.333 -104.334 -177 -149.001c-101.333 -56.667 -210 -85 -326 -85c-171.333 0 -293.666 62.667 -366.999 188
c-22 38 -38.333 78.667 -49 122c-60.667 -138.667 -139.334 -232.667 -236.001 -282c-36 -18.667 -80.5 -28 -133.5 -28s-100.333 11.5 -142 34.5s-75.167 54.167 -100.5 93.5c-45.333 70.667 -68 170.667 -68 300c0 126.667 28 245.667 84 357
c90 181.333 236 300.333 438 357c70 20 151.833 30 245.5 30s176.5 -22 248.5 -66zM1102 561.001c64 4.66699 123.333 35 178 91c60 61.333 90 130.333 90 207c0 35.333 -5.83301 61 -17.5 77s-29.5 24 -53.5 24s-44.833 -6.66699 -62.5 -20s-33.5 -30.833 -47.5 -52.5
s-26.333 -46.5 -37 -74.5s-19.667 -57 -27 -87c-14 -55.333 -21.667 -110.333 -23 -165zM889.998 934.001c-34.667 8 -69.002 11.9961 -103.002 11.9961s-67.667 -7.16699 -101 -21.5s-63.166 -33.666 -89.499 -57.999s-49.333 -53.166 -69 -86.499s-36.167 -69 -49.5 -107
c-25.333 -75.333 -38 -151.166 -38 -227.499s5.66699 -128.666 17 -156.999s28.833 -42.5 52.5 -42.5s46.5 9.5 68.5 28.5s43.667 44.167 65 75.5c48.667 70 81.334 147.333 98.001 232c21.333 140 71 257.333 149 352z" />
    <glyph glyph-name="ccedilla" unicode="&#xe7;" horiz-adv-x="956" 
d="M170 -233c23.333 -10.667 48.832 -15.999 76.499 -15.999s52.167 1.66699 73.5 5s40 9.33301 56 18c34 19.333 52.333 53.333 55 102c2.66699 38.667 2.33398 75.667 -0.999023 111c-122 12 -214.333 66 -277 162c-52.667 80 -79 175 -79 285s15.5 208.833 46.5 296.5
s74.167 162.834 129.5 225.501c116.667 133.333 265 200 445 200c106 0 192 -14.333 258 -43l-86 -342c-38.667 38.667 -76.667 66.167 -114 82.5s-68.333 24.5 -93 24.5s-51 -7.5 -79 -22.5s-52.333 -38.167 -73 -69.5c-46.667 -69.333 -70 -165.333 -70 -288
c0 -90 7.83301 -150.167 23.5 -180.5s33 -50.666 52 -60.999s40.667 -15.5 65 -15.5s48.166 3.66699 71.499 11s45.666 16.666 66.999 27.999c45.333 25.333 79.333 50.666 102 75.999l89 -171c-64 -94.667 -157.333 -156.334 -280 -185.001c31.333 -76.667 47 -156 47 -238
c0 -110 -53.667 -181.667 -161 -215c-38 -12 -74.167 -18 -108.5 -18s-63.666 1 -87.999 3s-49.166 4.66699 -74.499 8c-62.667 9.33301 -99 17.333 -109 24z" />
    <glyph glyph-name="egrave" unicode="&#xe8;" horiz-adv-x="1112" 
d="M73 476c0 81.333 16.666 165.669 49.999 253.002s79 162.666 137 225.999c122.667 134 274.667 201 456 201c171.333 0 278 -51.333 320 -154c13.333 -32.667 20 -77.667 20 -135s-16 -113.333 -48 -168s-75.333 -101.667 -130 -141
c-96.667 -69.333 -239.667 -127.666 -429 -174.999c0 -52.667 7.33301 -88.334 22 -107.001c26 -33.333 67 -50 123 -50c58.667 0 122.334 19.333 191.001 58c60.667 33.333 104.667 68.333 132 105l92 -171c-37.333 -54.667 -96.333 -104.334 -177 -149.001
c-101.333 -56.667 -210 -85 -326 -85c-145.333 0 -256 46.667 -332 140c-67.333 82 -101 199.333 -101 352zM443.999 561.003c64 4.66699 123.333 35 178 91c60 61.333 90 130.333 90 207c0 35.333 -5.83301 61 -17.5 77s-29.5 24 -53.5 24s-44.833 -6.66699 -62.5 -20
s-33.5 -30.833 -47.5 -52.5s-26.333 -46.5 -37 -74.5s-19.667 -57 -27 -87c-14 -55.333 -21.667 -110.333 -23 -165zM693.999 1226c-54 20 -134.667 75.333 -242 166c-98 84 -157 144.667 -177 182l209 200l334 -449z" />
    <glyph glyph-name="eacute" unicode="&#xe9;" horiz-adv-x="1112" 
d="M586 1325l334 449l209 -200c-20 -37.333 -79.333 -98 -178 -182c-106.667 -90.667 -187 -146 -241 -166zM73 476c0 81.333 16.666 165.669 49.999 253.002s79 162.666 137 225.999c122.667 134 274.667 201 456 201c171.333 0 278 -51.333 320 -154
c13.333 -32.667 20 -77.667 20 -135s-16 -113.333 -48 -168s-75.333 -101.667 -130 -141c-96.667 -69.333 -239.667 -127.666 -429 -174.999c0 -52.667 7.33301 -88.334 22 -107.001c26 -33.333 67 -50 123 -50c58.667 0 122.334 19.333 191.001 58
c60.667 33.333 104.667 68.333 132 105l92 -171c-37.333 -54.667 -96.333 -104.334 -177 -149.001c-101.333 -56.667 -210 -85 -326 -85c-145.333 0 -256 46.667 -332 140c-67.333 82 -101 199.333 -101 352zM443.999 561.003c64 4.66699 123.333 35 178 91
c60 61.333 90 130.333 90 207c0 35.333 -5.83301 61 -17.5 77s-29.5 24 -53.5 24s-44.833 -6.66699 -62.5 -20s-33.5 -30.833 -47.5 -52.5s-26.333 -46.5 -37 -74.5s-19.667 -57 -27 -87c-14 -55.333 -21.667 -110.333 -23 -165z" />
    <glyph glyph-name="ecircumflex" unicode="&#xea;" horiz-adv-x="1112" 
d="M344 1296l371 374h180l212 -374l-155 -68l-180 174l-290 -173zM73 476c0 81.333 16.666 165.669 49.999 253.002s79 162.666 137 225.999c122.667 134 274.667 201 456 201c171.333 0 278 -51.333 320 -154c13.333 -32.667 20 -77.667 20 -135s-16 -113.333 -48 -168
s-75.333 -101.667 -130 -141c-96.667 -69.333 -239.667 -127.666 -429 -174.999c0 -52.667 7.33301 -88.334 22 -107.001c26 -33.333 67 -50 123 -50c58.667 0 122.334 19.333 191.001 58c60.667 33.333 104.667 68.333 132 105l92 -171
c-37.333 -54.667 -96.333 -104.334 -177 -149.001c-101.333 -56.667 -210 -85 -326 -85c-145.333 0 -256 46.667 -332 140c-67.333 82 -101 199.333 -101 352zM443.999 561.003c64 4.66699 123.333 35 178 91c60 61.333 90 130.333 90 207c0 35.333 -5.83301 61 -17.5 77
s-29.5 24 -53.5 24s-44.833 -6.66699 -62.5 -20s-33.5 -30.833 -47.5 -52.5s-26.333 -46.5 -37 -74.5s-19.667 -57 -27 -87c-14 -55.333 -21.667 -110.333 -23 -165z" />
    <glyph glyph-name="edieresis" unicode="&#xeb;" horiz-adv-x="1112" 
d="M1042 1354c-24 -10.667 -49 -16.002 -75 -16.002s-48.167 4.83301 -66.5 14.5s-34.166 22.167 -47.499 37.5c-45.333 54 -55.333 118 -30 192c17.333 48.667 48 83.334 92 104.001c22.667 10 47 15 73 15s49 -4.66699 69 -14c39.333 -18.667 66.666 -48 81.999 -88
c6.66699 -18 10 -38.833 10 -62.5s-4 -48.167 -12 -73.5s-19.833 -47.166 -35.5 -65.499s-35.5 -32.833 -59.5 -43.5zM570 1354c-23.333 -10.667 -48.165 -16.0029 -74.498 -16.0029s-48.5 4.66699 -66.5 14c-38 20.667 -65.333 51.334 -82 92.001
c-7.33301 18.667 -11 39.834 -11 63.501s4.5 47.834 13.5 72.501s21.5 46 37.5 64c33.333 38 77.666 57 132.999 57c46 0 84 -17 114 -51c27.333 -30.667 41 -63 41 -97s-3.83301 -63.833 -11.5 -89.5s-19.334 -47.667 -35.001 -66s-35.167 -32.833 -58.5 -43.5z
M73.001 475.995c0 81.333 16.666 165.669 49.999 253.002s79 162.666 137 225.999c122.667 134 274.667 201 456 201c171.333 0 278 -51.333 320 -154c13.333 -32.667 20 -77.667 20 -135s-16 -113.333 -48 -168s-75.333 -101.667 -130 -141
c-96.667 -69.333 -239.667 -127.666 -429 -174.999c0 -52.667 7.33301 -88.334 22 -107.001c26 -33.333 67 -50 123 -50c58.667 0 122.334 19.333 191.001 58c60.667 33.333 104.667 68.333 132 105l92 -171c-37.333 -54.667 -96.333 -104.334 -177 -149.001
c-101.333 -56.667 -210 -85 -326 -85c-145.333 0 -256 46.667 -332 140c-67.333 82 -101 199.333 -101 352zM444 560.998c64 4.66699 123.333 35 178 91c60 61.333 90 130.333 90 207c0 35.333 -5.83301 61 -17.5 77s-29.5 24 -53.5 24s-44.833 -6.66699 -62.5 -20
s-33.5 -30.833 -47.5 -52.5s-26.333 -46.5 -37 -74.5s-19.667 -57 -27 -87c-14 -55.333 -21.667 -110.333 -23 -165z" />
    <glyph glyph-name="igrave" unicode="&#xec;" horiz-adv-x="664" 
d="M236 1140h359l-158 -1140h-357zM423 1226c-54 20 -134.667 75.333 -242 166c-98 84 -157 144.667 -177 182l209 200l334 -449z" />
    <glyph glyph-name="iacute" unicode="&#xed;" horiz-adv-x="664" 
d="M315 1325l334 449l209 -200c-20 -37.333 -79.333 -98 -178 -182c-106.667 -90.667 -187 -146 -241 -166zM236 1140h359l-158 -1140h-357z" />
    <glyph glyph-name="icircumflex" unicode="&#xee;" horiz-adv-x="664" 
d="M73 1296l371 374h180l212 -374l-155 -68l-180 174l-290 -173zM236 1140h359l-158 -1140h-357z" />
    <glyph glyph-name="idieresis" unicode="&#xef;" horiz-adv-x="664" 
d="M771 1354c-24 -10.667 -49 -16.002 -75 -16.002s-48.167 4.83301 -66.5 14.5s-34.166 22.167 -47.499 37.5c-45.333 54 -55.333 118 -30 192c17.333 48.667 48 83.334 92 104.001c22.667 10 47 15 73 15s49 -4.66699 69 -14c39.333 -18.667 66.666 -48 81.999 -88
c6.66699 -18 10 -38.833 10 -62.5s-4 -48.167 -12 -73.5s-19.833 -47.166 -35.5 -65.499s-35.5 -32.833 -59.5 -43.5zM299 1354c-23.333 -10.667 -48.165 -16.0029 -74.498 -16.0029s-48.5 4.66699 -66.5 14c-38 20.667 -65.333 51.334 -82 92.001
c-7.33301 18.667 -11 39.834 -11 63.501s4.5 47.834 13.5 72.501s21.5 46 37.5 64c33.333 38 77.666 57 132.999 57c46 0 84 -17 114 -51c27.333 -30.667 41 -63 41 -97s-3.83301 -63.833 -11.5 -89.5s-19.334 -47.667 -35.001 -66s-35.167 -32.833 -58.5 -43.5z
M236.001 1140h359l-158 -1140h-357z" />
    <glyph glyph-name="eth" unicode="&#xf0;" horiz-adv-x="1212" 
d="M428 1814c106 -26.667 209.001 -75.333 309.001 -146l134 153l118 -115l-126 -140c96.667 -95.333 169.667 -215.333 219 -360c42.667 -125.333 64 -252.833 64 -382.5s-13.167 -244.334 -39.5 -344.001s-65.833 -186.167 -118.5 -259.5
c-112.667 -157.333 -270 -236 -472 -236c-144 0 -257.333 46.333 -340 139c-73.333 81.333 -110 180.333 -110 297s13.167 220.334 39.5 311.001s63.833 167.667 112.5 231c99.333 130.667 233.666 196 402.999 196c86.667 0 147 -15.667 181 -47
c-4 96.667 -36.667 189 -98 277l-102 -113l-126 114l119 121c-66 59.333 -141.667 101 -227 125zM500.501 200.001c13 -12 30 -18 51 -18s42.667 9.66699 65 29s42.5 45.666 60.5 78.999c43.333 80 72.666 199.667 87.999 359l6 65c2 22 3.66699 43 5 63l4 55
c0.666992 17.333 1 31.166 1 41.499s-3 21.333 -9 33s-15.333 22.834 -28 33.501c-29.333 23.333 -59.666 35 -90.999 35s-56.5 -8.16699 -75.5 -24.5s-35.833 -38.5 -50.5 -66.5s-27.5 -60.667 -38.5 -98s-19.833 -76.666 -26.5 -117.999
c-14.667 -85.333 -22 -157.5 -22 -216.5s2.33301 -102.5 7 -130.5s11.5 -52.167 20.5 -72.5s20 -36.5 33 -48.5z" />
    <glyph glyph-name="ntilde" unicode="&#xf1;" horiz-adv-x="1319" 
d="M835 801c0 57.333 -27 85.999 -81 85.999c-58 0 -116.667 -37 -176 -111c-18 -23.333 -34.333 -49.333 -49 -78l-96 -698h-357l156 1140h341l-13 -206c96 148 219 222 369 222c184.667 0 277 -100.667 277 -302c0 -33.333 -5.33301 -89 -16 -167l-24 -176
c-6 -46 -12.667 -92.667 -20 -140l-52 -371h-357c29.333 202.667 47 327.334 53 374.001l17 136c18.667 151.333 28 248.333 28 291zM419 1501c24 47.333 66.667 91.668 128 133.001c64.667 42.667 124 64 178 64c66 0 125.333 -25.667 178 -77
c32.667 -32 58 -52.833 76 -62.5s36.833 -14.5 56.5 -14.5s37.667 3.33301 54 10s31.333 15.167 45 25.5s25.834 21.833 36.501 34.5l33 40l119 -145c-21.333 -50.667 -61.333 -97.334 -120 -140.001c-64 -46 -124 -69 -180 -69c-75.333 0 -138.666 25.333 -189.999 76
c-32.667 31.333 -59.334 52 -80.001 62s-40.834 15.167 -60.501 15.5s-37 -2 -52 -7s-29.333 -11.667 -43 -20s-26.5 -17.833 -38.5 -28.5l-34 -33z" />
    <glyph glyph-name="ograve" unicode="&#xf2;" horiz-adv-x="1181" 
d="M65 466c0 62.667 6 122.668 18 180.001s29.833 111.5 53.5 162.5s53.167 97.667 88.5 140s76.333 78.833 123 109.5c98.667 65.333 216.334 98 353.001 98c140 0 246.333 -48 319 -144c64 -85.333 96 -199 96 -341c0 -192.667 -53 -352.334 -159 -479.001
c-115.333 -138.667 -274 -208 -476 -208c-140.667 0 -247.334 48 -320.001 144c-64 85.333 -96 198 -96 338zM419 429.001c0 -154 36.667 -230.999 110 -230.999c100.667 0 169.667 90.333 207 271c14.667 73.333 22 152 22 236c0 158 -36.667 237 -110 237
c-98 0 -166.667 -93.333 -206 -280c-15.333 -72.667 -23 -150.334 -23 -233.001zM702 1226c-54 20 -134.667 75.333 -242 166c-98 84 -157 144.667 -177 182l209 200l334 -449z" />
    <glyph glyph-name="oacute" unicode="&#xf3;" horiz-adv-x="1181" 
d="M594 1325l334 449l209 -200c-20 -37.333 -79.333 -98 -178 -182c-106.667 -90.667 -187 -146 -241 -166zM65 466c0 62.667 6 122.668 18 180.001s29.833 111.5 53.5 162.5s53.167 97.667 88.5 140s76.333 78.833 123 109.5c98.667 65.333 216.334 98 353.001 98
c140 0 246.333 -48 319 -144c64 -85.333 96 -199 96 -341c0 -192.667 -53 -352.334 -159 -479.001c-115.333 -138.667 -274 -208 -476 -208c-140.667 0 -247.334 48 -320.001 144c-64 85.333 -96 198 -96 338zM419 429.001c0 -154 36.667 -230.999 110 -230.999
c100.667 0 169.667 90.333 207 271c14.667 73.333 22 152 22 236c0 158 -36.667 237 -110 237c-98 0 -166.667 -93.333 -206 -280c-15.333 -72.667 -23 -150.334 -23 -233.001z" />
    <glyph glyph-name="ocircumflex" unicode="&#xf4;" horiz-adv-x="1181" 
d="M352 1296l371 374h180l212 -374l-155 -68l-180 174l-290 -173zM65 466c0 62.667 6 122.668 18 180.001s29.833 111.5 53.5 162.5s53.167 97.667 88.5 140s76.333 78.833 123 109.5c98.667 65.333 216.334 98 353.001 98c140 0 246.333 -48 319 -144
c64 -85.333 96 -199 96 -341c0 -192.667 -53 -352.334 -159 -479.001c-115.333 -138.667 -274 -208 -476 -208c-140.667 0 -247.334 48 -320.001 144c-64 85.333 -96 198 -96 338zM419 429.001c0 -154 36.667 -230.999 110 -230.999c100.667 0 169.667 90.333 207 271
c14.667 73.333 22 152 22 236c0 158 -36.667 237 -110 237c-98 0 -166.667 -93.333 -206 -280c-15.333 -72.667 -23 -150.334 -23 -233.001z" />
    <glyph glyph-name="otilde" unicode="&#xf5;" horiz-adv-x="1181" 
d="M65 466c0 62.667 6 122.668 18 180.001s29.833 111.5 53.5 162.5s53.167 97.667 88.5 140s76.333 78.833 123 109.5c98.667 65.333 216.334 98 353.001 98c140 0 246.333 -48 319 -144c64 -85.333 96 -199 96 -341c0 -192.667 -53 -352.334 -159 -479.001
c-115.333 -138.667 -274 -208 -476 -208c-140.667 0 -247.334 48 -320.001 144c-64 85.333 -96 198 -96 338zM419 429.001c0 -154 36.667 -230.999 110 -230.999c100.667 0 169.667 90.333 207 271c14.667 73.333 22 152 22 236c0 158 -36.667 237 -110 237
c-98 0 -166.667 -93.333 -206 -280c-15.333 -72.667 -23 -150.334 -23 -233.001zM294 1501c24 47.333 66.667 91.668 128 133.001c64.667 42.667 124 64 178 64c66 0 125.333 -25.667 178 -77c32.667 -32 58 -52.833 76 -62.5s36.833 -14.5 56.5 -14.5s37.667 3.33301 54 10
s31.333 15.167 45 25.5s25.834 21.833 36.501 34.5l33 40l119 -145c-21.333 -50.667 -61.333 -97.334 -120 -140.001c-64 -46 -124 -69 -180 -69c-75.333 0 -138.666 25.333 -189.999 76c-32.667 31.333 -59.334 52 -80.001 62s-40.834 15.167 -60.501 15.5s-37 -2 -52 -7
s-29.333 -11.667 -43 -20s-26.5 -17.833 -38.5 -28.5l-34 -33z" />
    <glyph glyph-name="odieresis" unicode="&#xf6;" horiz-adv-x="1181" 
d="M1050 1354c-24 -10.667 -49 -16.002 -75 -16.002s-48.167 4.83301 -66.5 14.5s-34.166 22.167 -47.499 37.5c-45.333 54 -55.333 118 -30 192c17.333 48.667 48 83.334 92 104.001c22.667 10 47 15 73 15s49 -4.66699 69 -14c39.333 -18.667 66.666 -48 81.999 -88
c6.66699 -18 10 -38.833 10 -62.5s-4 -48.167 -12 -73.5s-19.833 -47.166 -35.5 -65.499s-35.5 -32.833 -59.5 -43.5zM578 1354c-23.333 -10.667 -48.165 -16.0029 -74.498 -16.0029s-48.5 4.66699 -66.5 14c-38 20.667 -65.333 51.334 -82 92.001
c-7.33301 18.667 -11 39.834 -11 63.501s4.5 47.834 13.5 72.501s21.5 46 37.5 64c33.333 38 77.666 57 132.999 57c46 0 84 -17 114 -51c27.333 -30.667 41 -63 41 -97s-3.83301 -63.833 -11.5 -89.5s-19.334 -47.667 -35.001 -66s-35.167 -32.833 -58.5 -43.5z
M65.001 465.995c0 62.667 6 122.668 18 180.001s29.833 111.5 53.5 162.5s53.167 97.667 88.5 140s76.333 78.833 123 109.5c98.667 65.333 216.334 98 353.001 98c140 0 246.333 -48 319 -144c64 -85.333 96 -199 96 -341c0 -192.667 -53 -352.334 -159 -479.001
c-115.333 -138.667 -274 -208 -476 -208c-140.667 0 -247.334 48 -320.001 144c-64 85.333 -96 198 -96 338zM419.001 428.996c0 -154 36.667 -230.999 110 -230.999c100.667 0 169.667 90.333 207 271c14.667 73.333 22 152 22 236c0 158 -36.667 237 -110 237
c-98 0 -166.667 -93.333 -206 -280c-15.333 -72.667 -23 -150.334 -23 -233.001z" />
    <glyph glyph-name="divide" unicode="&#xf7;" horiz-adv-x="1397" 
d="M847.5 1070.5c-26.333 -10.333 -59.668 -15.499 -100.001 -15.499s-74.333 14.167 -102 42.5s-41.5 60.666 -41.5 96.999s4.83301 67.5 14.5 93.5s23.5 48.667 41.5 68c40 44 90.667 66 152 66c82.667 0 133.334 -30.667 152.001 -92c6 -18 9 -40.167 9 -66.5
s-5 -53 -15 -80s-24.333 -50 -43 -69s-41.167 -33.667 -67.5 -44zM259.998 918.001l960 -2l-34 -263h-962zM533.498 185.501c-27.667 28.333 -41.499 60.667 -41.499 97s4.83301 67.5 14.5 93.5s23.5 48.667 41.5 68c40 44 90.667 66 152 66
c82.667 0 133.334 -30.667 152.001 -92c6 -18 9 -40.167 9 -66.5s-5 -53 -15 -80s-24.333 -50.167 -43 -69.5c-38.667 -39.333 -86.334 -59 -143.001 -59s-98.834 14.167 -126.501 42.5z" />
    <glyph glyph-name="oslash" unicode="&#xf8;" horiz-adv-x="1180" 
d="M486 -14c-66 0 -122.333 9.33496 -169 28.002l-91 -146l-89 49l92 145c-109.333 84 -164 220.333 -164 409c0 192 53.333 351.667 160 479c115.333 138.667 274 208 476 208c58 0 111.333 -9 160 -27l98 172l89 -49l-98 -171c110.667 -84.667 166 -221.334 166 -410.001
c0 -192.667 -53 -352.334 -159 -479.001c-115.333 -138.667 -272.333 -208 -471 -208zM709 919.002c-16 16.667 -37 25 -63 25s-49.833 -7.5 -71.5 -22.5s-41 -35.167 -58 -60.5s-31.667 -55 -44 -89s-22.5 -70 -30.5 -108c-15.333 -72.667 -23 -136.5 -23 -191.5
s1 -93.5 3 -115.5zM464 229.002c16.667 -19.333 38.5 -28.999 65.5 -28.999s51.667 7 74 21s42 33.333 59 58s31.5 53.5 43.5 86.5s22 68.167 30 105.5c14.667 73.333 22 134.666 22 183.999c0 64.667 -1.33301 109 -4 133z" />
    <glyph glyph-name="ugrave" unicode="&#xf9;" horiz-adv-x="1292" 
d="M145.5 114c-15.667 32.667 -23.668 66.832 -24.001 102.499s0.5 67.834 2.5 96.501s4.66699 58.667 8 90c6 54 14.333 117.667 25 191l75 546h353l-70 -551l-10 -74c-11.333 -86 -17 -146.333 -17 -181s7 -60 21 -76s30 -24 48 -24c50.667 0 104.667 38 162 114
c16.667 22 32 45 46 69l101 723h357l-156 -1140h-318l6 194c-61.333 -96.667 -141.666 -162 -240.999 -196c-35.333 -12 -72 -18 -110 -18s-73.667 4.16699 -107 12.5s-63 22.5 -89 42.5s-46.833 46.333 -62.5 79zM742.999 1226c-54 20 -134.667 75.333 -242 166
c-98 84 -157 144.667 -177 182l209 200l334 -449z" />
    <glyph glyph-name="uacute" unicode="&#xfa;" horiz-adv-x="1292" 
d="M635 1325l334 449l209 -200c-20 -37.333 -79.333 -98 -178 -182c-106.667 -90.667 -187 -146 -241 -166zM145.5 114c-15.667 32.667 -23.668 66.832 -24.001 102.499s0.5 67.834 2.5 96.501s4.66699 58.667 8 90c6 54 14.333 117.667 25 191l75 546h353l-70 -551l-10 -74
c-11.333 -86 -17 -146.333 -17 -181s7 -60 21 -76s30 -24 48 -24c50.667 0 104.667 38 162 114c16.667 22 32 45 46 69l101 723h357l-156 -1140h-318l6 194c-61.333 -96.667 -141.666 -162 -240.999 -196c-35.333 -12 -72 -18 -110 -18s-73.667 4.16699 -107 12.5
s-63 22.5 -89 42.5s-46.833 46.333 -62.5 79z" />
    <glyph glyph-name="ucircumflex" unicode="&#xfb;" horiz-adv-x="1292" 
d="M393 1296l371 374h180l212 -374l-155 -68l-180 174l-290 -173zM145.5 114c-15.667 32.667 -23.668 66.832 -24.001 102.499s0.5 67.834 2.5 96.501s4.66699 58.667 8 90c6 54 14.333 117.667 25 191l75 546h353l-70 -551l-10 -74c-11.333 -86 -17 -146.333 -17 -181
s7 -60 21 -76s30 -24 48 -24c50.667 0 104.667 38 162 114c16.667 22 32 45 46 69l101 723h357l-156 -1140h-318l6 194c-61.333 -96.667 -141.666 -162 -240.999 -196c-35.333 -12 -72 -18 -110 -18s-73.667 4.16699 -107 12.5s-63 22.5 -89 42.5s-46.833 46.333 -62.5 79z
" />
    <glyph glyph-name="udieresis" unicode="&#xfc;" horiz-adv-x="1292" 
d="M1091 1354c-24 -10.667 -49 -16.002 -75 -16.002s-48.167 4.83301 -66.5 14.5s-34.166 22.167 -47.499 37.5c-45.333 54 -55.333 118 -30 192c17.333 48.667 48 83.334 92 104.001c22.667 10 47 15 73 15s49 -4.66699 69 -14c39.333 -18.667 66.666 -48 81.999 -88
c6.66699 -18 10 -38.833 10 -62.5s-4 -48.167 -12 -73.5s-19.833 -47.166 -35.5 -65.499s-35.5 -32.833 -59.5 -43.5zM619 1354c-23.333 -10.667 -48.165 -16.0029 -74.498 -16.0029s-48.5 4.66699 -66.5 14c-38 20.667 -65.333 51.334 -82 92.001
c-7.33301 18.667 -11 39.834 -11 63.501s4.5 47.834 13.5 72.501s21.5 46 37.5 64c33.333 38 77.666 57 132.999 57c46 0 84 -17 114 -51c27.333 -30.667 41 -63 41 -97s-3.83301 -63.833 -11.5 -89.5s-19.334 -47.667 -35.001 -66s-35.167 -32.833 -58.5 -43.5z
M145.501 113.995c-15.667 32.667 -23.668 66.832 -24.001 102.499s0.5 67.834 2.5 96.501s4.66699 58.667 8 90c6 54 14.333 117.667 25 191l75 546h353l-70 -551l-10 -74c-11.333 -86 -17 -146.333 -17 -181s7 -60 21 -76s30 -24 48 -24c50.667 0 104.667 38 162 114
c16.667 22 32 45 46 69l101 723h357l-156 -1140h-318l6 194c-61.333 -96.667 -141.666 -162 -240.999 -196c-35.333 -12 -72 -18 -110 -18s-73.667 4.16699 -107 12.5s-63 22.5 -89 42.5s-46.833 46.333 -62.5 79z" />
    <glyph glyph-name="yacute" unicode="&#xfd;" horiz-adv-x="1140" 
d="M1094 1140c4 -20 6 -65.333 6 -136s-3.83301 -134.5 -11.5 -191.5s-18.5 -113.167 -32.5 -168.5c-70 -282 -194.667 -546 -374 -792l-104 -142c-69.333 -96.667 -147.333 -162.667 -234 -198c-48 -19.333 -96.167 -29 -144.5 -29s-85 2.33301 -110 7
s-48.5 10.667 -70.5 18c-36.667 11.333 -73.667 28 -111 50l89 244c57.333 -40.667 115.333 -61 174 -61c56 0 105.667 17.667 149 53c40.667 32.667 91 94.667 151 186h-206l-170 1160h352l107 -1003c41.333 84.667 75.166 167.167 101.499 247.5s44.833 138.5 55.5 174.5
s19.667 73.667 27 113c12.667 68.667 21.834 144.167 27.501 226.5s8.5 136.833 8.5 163.5v78h320zM471 1325l334 449l209 -200c-20 -37.333 -79.333 -98 -178 -182c-106.667 -90.667 -187 -146 -241 -166z" />
    <glyph glyph-name="thorn" unicode="&#xfe;" horiz-adv-x="1290" 
d="M732 13c-65.333 -19.333 -126.332 -29.001 -182.999 -29.001s-102.334 3.33301 -137.001 10l-10 -136l-40 -350h-354l293 2126h343l-85 -658l-21 -121c48.667 130.667 122.334 221.334 221.001 272.001c37.333 19.333 83.166 29 137.499 29s103 -11.667 146 -35
s77.5 -55 103.5 -95c49.333 -73.333 74 -174 74 -302c0 -198.667 -58.667 -368 -176 -508c-81.333 -97.333 -185.333 -165 -312 -203zM846.001 702.999c0 139.333 -29.3359 209.001 -88.0029 209.001c-64.667 0 -131 -82 -199 -246
c-23.333 -56.667 -41.666 -112.334 -54.999 -167.001l1 56l-45 -356c21.333 -3.33301 48.666 -5 81.999 -5s64.333 7 93 21s54.334 33.167 77.001 57.5s42.334 52.833 59.001 85.5s30.334 68 41.001 106c22.667 76 34 155.667 34 239z" />
    <glyph glyph-name="ydieresis" unicode="&#xff;" horiz-adv-x="1140" 
d="M1094 1140c4 -20 6 -65.333 6 -136s-3.83301 -134.5 -11.5 -191.5s-18.5 -113.167 -32.5 -168.5c-70 -282 -194.667 -546 -374 -792l-104 -142c-69.333 -96.667 -147.333 -162.667 -234 -198c-48 -19.333 -96.167 -29 -144.5 -29s-85 2.33301 -110 7
s-48.5 10.667 -70.5 18c-36.667 11.333 -73.667 28 -111 50l89 244c57.333 -40.667 115.333 -61 174 -61c56 0 105.667 17.667 149 53c40.667 32.667 91 94.667 151 186h-206l-170 1160h352l107 -1003c41.333 84.667 75.166 167.167 101.499 247.5s44.833 138.5 55.5 174.5
s19.667 73.667 27 113c12.667 68.667 21.834 144.167 27.501 226.5s8.5 136.833 8.5 163.5v78h320zM927 1354c-24 -10.667 -49 -16.002 -75 -16.002s-48.167 4.83301 -66.5 14.5s-34.166 22.167 -47.499 37.5c-45.333 54 -55.333 118 -30 192
c17.333 48.667 48 83.334 92 104.001c22.667 10 47 15 73 15s49 -4.66699 69 -14c39.333 -18.667 66.666 -48 81.999 -88c6.66699 -18 10 -38.833 10 -62.5s-4 -48.167 -12 -73.5s-19.833 -47.166 -35.5 -65.499s-35.5 -32.833 -59.5 -43.5zM455 1354
c-23.333 -10.667 -48.165 -16.0029 -74.498 -16.0029s-48.5 4.66699 -66.5 14c-38 20.667 -65.333 51.334 -82 92.001c-7.33301 18.667 -11 39.834 -11 63.501s4.5 47.834 13.5 72.501s21.5 46 37.5 64c33.333 38 77.666 57 132.999 57c46 0 84 -17 114 -51
c27.333 -30.667 41 -63 41 -97s-3.83301 -63.833 -11.5 -89.5s-19.334 -47.667 -35.001 -66s-35.167 -32.833 -58.5 -43.5z" />
    <glyph glyph-name="Amacron" unicode="&#x100;" horiz-adv-x="1345" 
d="M617 1530h450l227 -1530l-355 -1l-33 287h-522l-117 -286l-390 -1zM879 527l-76 675l-6 119l-39 -119l-276 -675h397zM569 1916h577l-20 -209h-577z" />
    <glyph glyph-name="amacron" unicode="&#x101;" horiz-adv-x="1268" 
d="M774 1156c78.667 0 161 -15 247 -45l184 45l-161 -1156h-320l11 248c-54 -118 -125.667 -198 -215 -240c-34.667 -16 -78.167 -24 -130.5 -24s-99.833 11.5 -142.5 34.5s-77 54.167 -103 93.5c-49.333 72 -74 172 -74 300c0 200 58.667 370 176 510
c130 156 306 234 528 234zM442 433c0 -139.333 29.6699 -209.002 89.0029 -209.002c44.667 0 93 46 145 138c42 74.667 75.333 156 100 244l47 335c-18.667 3.33301 -44.334 5 -77.001 5s-63.334 -7.16699 -92.001 -21.5s-54.334 -33.666 -77.001 -57.999
s-42.5 -53.166 -59.5 -86.499s-30.833 -69 -41.5 -107c-22.667 -77.333 -34 -157.333 -34 -240zM534.003 1614h577l-18 -209h-577z" />
    <glyph glyph-name="Abreve" unicode="&#x102;" horiz-adv-x="1345" 
d="M617 1530h450l227 -1530l-355 -1l-33 287h-522l-117 -286l-390 -1zM879 527l-76 675l-6 119l-39 -119l-276 -675h397zM721 2014c-2.66699 -14.667 -4.00098 -30.834 -4.00098 -48.501s2 -34 6 -49s11.333 -27.167 22 -36.5c22 -20 60.667 -30 116 -30
c76.667 0 126.334 34.667 149.001 104c6 20 10.667 40 14 60h184c0.666992 -5.33301 1 -11 1 -17v-17c0 -90.667 -29 -168.334 -87 -233.001c-67.333 -76 -159.666 -114 -276.999 -114c-168.667 0 -271 57.667 -307 173c-11.333 36.667 -17 67.834 -17 93.501
s0.333008 42.334 1 50.001s1.66699 15.5 3 23.5l4 23c1.33301 7.33301 2.66602 13.333 3.99902 18h188z" />
    <glyph glyph-name="abreve" unicode="&#x103;" horiz-adv-x="1268" 
d="M774 1156c78.667 0 161 -15 247 -45l184 45l-161 -1156h-320l11 248c-54 -118 -125.667 -198 -215 -240c-34.667 -16 -78.167 -24 -130.5 -24s-99.833 11.5 -142.5 34.5s-77 54.167 -103 93.5c-49.333 72 -74 172 -74 300c0 200 58.667 370 176 510
c130 156 306 234 528 234zM442 433c0 -139.333 29.6699 -209.002 89.0029 -209.002c44.667 0 93 46 145 138c42 74.667 75.333 156 100 244l47 335c-18.667 3.33301 -44.334 5 -77.001 5s-63.334 -7.16699 -92.001 -21.5s-54.334 -33.666 -77.001 -57.999
s-42.5 -53.166 -59.5 -86.499s-30.833 -69 -41.5 -107c-22.667 -77.333 -34 -157.333 -34 -240zM696.003 1681c-2.66699 -14.667 -4.00098 -30.833 -4.00098 -48.5s2 -34 6 -49s11.333 -27.5 22 -37.5c22 -19.333 60.667 -29 116 -29c76.667 0 126.334 35 149.001 105
c6 19.333 10.667 39 14 59h184c0.666992 -5.33301 1 -11 1 -17v-17c0 -90.667 -29 -168.334 -87 -233.001c-67.333 -76 -159.666 -114 -276.999 -114c-168.667 0 -271 58 -307 174c-11.333 36 -17 66.833 -17 92.5s0.333008 42.334 1 50.001s1.66699 15.5 3 23.5l4 23
c1.33301 7.33301 2.66602 13.333 3.99902 18h188z" />
    <glyph glyph-name="Aogonek" unicode="&#x104;" horiz-adv-x="1357" 
d="M1265 -387c-79.333 -82 -189 -123 -329 -123c-62.667 0 -114.334 19.333 -155.001 58c-38.667 36 -58 76.667 -58 122s9.66699 84.666 29 117.999s43.333 64 72 92c54.667 54 112 93.667 172 119h-45l-33 287h-522l-117 -286l-390 -1l740 1531h450l227 -1530h-56
c-109.333 -45.333 -184.666 -96.666 -225.999 -153.999c-13.333 -18 -20 -35 -20 -51c0 -48 22.833 -72 68.5 -72s96.167 21.667 151.5 65zM891 527l-76 675l-6 119l-39 -119l-276 -675h397z" />
    <glyph glyph-name="aogonek" unicode="&#x105;" horiz-adv-x="1268" 
d="M1059 -387c-79.333 -82 -189 -123.001 -329 -123.001c-62.667 0 -114.334 19.333 -155.001 58c-38.667 36 -58 76.667 -58 122s9.83301 84.833 29.5 118.5s43.5 64.5 71.5 92.5c54.667 54 112.667 93.667 174 119h-68l11 248c-54 -118 -125.667 -198 -215 -240
c-34.667 -16 -78.167 -24 -130.5 -24s-99.833 11.5 -142.5 34.5s-77 54.167 -103 93.5c-49.333 72 -74 172 -74 300c0 200 58.667 370 176 510c130 156 305.667 234 527 234c79.333 0 162 -15 248 -45l184 45l-161 -1156
c-109.333 -45.333 -184.666 -96.666 -225.999 -153.999c-13.333 -18 -20 -35 -20 -51c0 -48 22.833 -72 68.5 -72s96.167 21.667 151.5 65zM442 432.999c0 -139.333 29.6699 -209.002 89.0029 -209.002c44.667 0 93 46 145 138c42 74.667 75.333 156 100 244l47 335
c-18.667 3.33301 -44.334 5 -77.001 5s-63.334 -7.16699 -92.001 -21.5s-54.334 -33.666 -77.001 -57.999s-42.5 -53.166 -59.5 -86.499s-30.833 -69 -41.5 -107c-22.667 -77.333 -34 -157.333 -34 -240z" />
    <glyph glyph-name="Cacute" unicode="&#x106;" horiz-adv-x="1204" 
d="M1157 1141c-81.333 70.667 -177.003 105.996 -287.003 105.996c-182.667 0 -307 -108.667 -373 -326c-27.333 -90 -41 -176.833 -41 -260.5s5 -147.667 15 -192s26 -81.166 48 -110.499c43.333 -58 114 -87 212 -87c90.667 0 176 20 256 60
c21.333 10.667 38.666 20.667 51.999 30l46 -249c-63.333 -47.333 -161 -84.666 -293 -111.999c-49.333 -10.667 -104.833 -16 -166.5 -16s-119.5 8.5 -173.5 25.5s-101 40.333 -141 70s-73.833 64.834 -101.5 105.501s-50.167 84.667 -67.5 132c-31.333 88 -47 182 -47 282
s8.83301 188.833 26.5 266.5s43.334 150.667 77.001 219s74.334 130.833 122.001 187.5s101.5 105.334 161.5 146.001c126.667 85.333 268.334 128 425.001 128c110.667 0 210.334 -18.667 299.001 -56l53 -14zM771.997 1672l279 341.999l210 -187
c-33.333 -63.333 -108.333 -133.666 -225 -210.999c-46.667 -31.333 -87 -53.333 -121 -66z" />
    <glyph glyph-name="cacute" unicode="&#x107;" horiz-adv-x="956" 
d="M601 1325l334 449l209 -200c-20 -37.333 -79.333 -98 -178 -182c-106.667 -90.667 -187 -146 -241 -166zM95 279c-14 54.667 -20.9971 121.666 -20.9971 200.999s15.5 162.833 46.5 250.5s74.167 162.834 129.5 225.501c116.667 133.333 265 200 445 200
c106 0 192 -14.333 258 -43l-86 -342c-38.667 38.667 -76.667 66.167 -114 82.5s-68.333 24.5 -93 24.5s-51 -7.5 -79 -22.5s-52.333 -38.167 -73 -69.5c-46.667 -69.333 -70 -165.333 -70 -288c0 -90 7.83301 -150.167 23.5 -180.5s33 -50.666 52 -60.999
s40.667 -15.5 65 -15.5s48.166 3.66699 71.499 11s45.666 16.666 66.999 27.999c45.333 25.333 79.333 50.666 102 75.999l89 -171c-56.667 -86.667 -145.334 -147 -266.001 -181c-45.333 -13.333 -101.666 -20 -168.999 -20s-127.333 13.667 -180 41
s-95.334 62.833 -128.001 106.5s-56 92.834 -70 147.501z" />
    <glyph glyph-name="Ccircumflex" unicode="&#x108;" horiz-adv-x="1204" 
d="M1157 1141c-81.333 70.667 -177.003 105.996 -287.003 105.996c-182.667 0 -307 -108.667 -373 -326c-27.333 -90 -41 -176.833 -41 -260.5s5 -147.667 15 -192s26 -81.166 48 -110.499c43.333 -58 114 -87 212 -87c90.667 0 176 20 256 60
c21.333 10.667 38.666 20.667 51.999 30l46 -249c-63.333 -47.333 -161 -84.666 -293 -111.999c-49.333 -10.667 -104.833 -16 -166.5 -16s-119.5 8.5 -173.5 25.5s-101 40.333 -141 70s-73.833 64.834 -101.5 105.501s-50.167 84.667 -67.5 132c-31.333 88 -47 182 -47 282
s8.83301 188.833 26.5 266.5s43.334 150.667 77.001 219s74.334 130.833 122.001 187.5s101.5 105.334 161.5 146.001c126.667 85.333 268.334 128 425.001 128c110.667 0 210.334 -18.667 299.001 -56l53 -14zM505.997 1666l371 348h180l212 -337l-145 -78l-183 167
l-287 -167z" />
    <glyph glyph-name="ccircumflex" unicode="&#x109;" horiz-adv-x="956" 
d="M359 1296l371 374h180l212 -374l-155 -68l-180 174l-290 -173zM95 279c-14 54.667 -20.9971 121.666 -20.9971 200.999s15.5 162.833 46.5 250.5s74.167 162.834 129.5 225.501c116.667 133.333 265 200 445 200c106 0 192 -14.333 258 -43l-86 -342
c-38.667 38.667 -76.667 66.167 -114 82.5s-68.333 24.5 -93 24.5s-51 -7.5 -79 -22.5s-52.333 -38.167 -73 -69.5c-46.667 -69.333 -70 -165.333 -70 -288c0 -90 7.83301 -150.167 23.5 -180.5s33 -50.666 52 -60.999s40.667 -15.5 65 -15.5s48.166 3.66699 71.499 11
s45.666 16.666 66.999 27.999c45.333 25.333 79.333 50.666 102 75.999l89 -171c-56.667 -86.667 -145.334 -147 -266.001 -181c-45.333 -13.333 -101.666 -20 -168.999 -20s-127.333 13.667 -180 41s-95.334 62.833 -128.001 106.5s-56 92.834 -70 147.501z" />
    <glyph glyph-name="Cdotaccent" unicode="&#x10a;" horiz-adv-x="1204" 
d="M968 1628c-26.667 -10.667 -55.334 -15.999 -86.001 -15.999s-56.667 4.33301 -78 13c-44 18 -74.667 47.667 -92 89c-8 18.667 -12 40.667 -12 66s5.33301 50.166 16 74.499s25.334 45.5 44.001 63.5c39.333 38 89.333 57 150 57c56 0 101.333 -16 136 -48
c30.667 -29.333 46 -65.333 46 -108c0 -94 -41.333 -157.667 -124 -191zM1157 1141c-81.333 70.667 -177.003 105.996 -287.003 105.996c-182.667 0 -307 -108.667 -373 -326c-27.333 -90 -41 -176.833 -41 -260.5s5 -147.667 15 -192s26 -81.166 48 -110.499
c43.333 -58 114 -87 212 -87c90.667 0 176 20 256 60c21.333 10.667 38.666 20.667 51.999 30l46 -249c-63.333 -47.333 -161 -84.666 -293 -111.999c-49.333 -10.667 -104.833 -16 -166.5 -16s-119.5 8.5 -173.5 25.5s-101 40.333 -141 70s-73.833 64.834 -101.5 105.501
s-50.167 84.667 -67.5 132c-31.333 88 -47 182 -47 282s8.83301 188.833 26.5 266.5s43.334 150.667 77.001 219s74.334 130.833 122.001 187.5s101.5 105.334 161.5 146.001c126.667 85.333 268.334 128 425.001 128c110.667 0 210.334 -18.667 299.001 -56l53 -14z" />
    <glyph glyph-name="cdotaccent" unicode="&#x10b;" horiz-adv-x="956" 
d="M95 279c-14 54.667 -20.9971 121.666 -20.9971 200.999s15.5 162.833 46.5 250.5s74.167 162.834 129.5 225.501c116.667 133.333 265 200 445 200c106 0 192 -14.333 258 -43l-86 -342c-38.667 38.667 -76.667 66.167 -114 82.5s-68.333 24.5 -93 24.5
s-51 -7.5 -79 -22.5s-52.333 -38.167 -73 -69.5c-46.667 -69.333 -70 -165.333 -70 -288c0 -90 7.83301 -150.167 23.5 -180.5s33 -50.666 52 -60.999s40.667 -15.5 65 -15.5s48.166 3.66699 71.499 11s45.666 16.666 66.999 27.999c45.333 25.333 79.333 50.666 102 75.999
l89 -171c-56.667 -86.667 -145.334 -147 -266.001 -181c-45.333 -13.333 -101.666 -20 -168.999 -20s-127.333 13.667 -180 41s-95.334 62.833 -128.001 106.5s-56 92.834 -70 147.501zM838.003 1329c-26.667 -10.667 -54.668 -15.998 -84.001 -15.998
s-54.333 4.33301 -75 13c-41.333 17.333 -71.666 46.666 -90.999 87.999c-8.66699 19.333 -13 41.5 -13 66.5s5.33301 50.167 16 75.5s25 47.333 43 66c40 39.333 90.333 59 151 59c52 0 95 -16.333 129 -49c32 -30.667 48 -68 48 -112
c0 -94.667 -41.333 -158.334 -124 -191.001z" />
    <glyph glyph-name="Ccaron" unicode="&#x10c;" horiz-adv-x="1204" 
d="M1157 1141c-81.333 70.667 -177.003 105.996 -287.003 105.996c-182.667 0 -307 -108.667 -373 -326c-27.333 -90 -41 -176.833 -41 -260.5s5 -147.667 15 -192s26 -81.166 48 -110.499c43.333 -58 114 -87 212 -87c90.667 0 176 20 256 60
c21.333 10.667 38.666 20.667 51.999 30l46 -249c-63.333 -47.333 -161 -84.666 -293 -111.999c-49.333 -10.667 -104.833 -16 -166.5 -16s-119.5 8.5 -173.5 25.5s-101 40.333 -141 70s-73.833 64.834 -101.5 105.501s-50.167 84.667 -67.5 132c-31.333 88 -47 182 -47 282
s8.83301 188.833 26.5 266.5s43.334 150.667 77.001 219s74.334 130.833 122.001 187.5s101.5 105.334 161.5 146.001c126.667 85.333 268.334 128 425.001 128c110.667 0 210.334 -18.667 299.001 -56l53 -14zM541.997 1936l145 78l183 -177l287 177l148 -67l-371 -348
h-180z" />
    <glyph glyph-name="ccaron" unicode="&#x10d;" horiz-adv-x="956" 
d="M387 1602l126 68l213 -190l276 189l148 -67l-372 -374h-179zM95 279c-14 54.667 -20.9971 121.666 -20.9971 200.999s15.5 162.833 46.5 250.5s74.167 162.834 129.5 225.501c116.667 133.333 265 200 445 200c106 0 192 -14.333 258 -43l-86 -342
c-38.667 38.667 -76.667 66.167 -114 82.5s-68.333 24.5 -93 24.5s-51 -7.5 -79 -22.5s-52.333 -38.167 -73 -69.5c-46.667 -69.333 -70 -165.333 -70 -288c0 -90 7.83301 -150.167 23.5 -180.5s33 -50.666 52 -60.999s40.667 -15.5 65 -15.5s48.166 3.66699 71.499 11
s45.666 16.666 66.999 27.999c45.333 25.333 79.333 50.666 102 75.999l89 -171c-56.667 -86.667 -145.334 -147 -266.001 -181c-45.333 -13.333 -101.666 -20 -168.999 -20s-127.333 13.667 -180 41s-95.334 62.833 -128.001 106.5s-56 92.834 -70 147.501z" />
    <glyph glyph-name="Dcaron" unicode="&#x10e;" horiz-adv-x="1435" 
d="M541 1936l145 78l183 -177l287 177l148 -67l-371 -348h-180zM459 1530l387 16c387.333 0 581 -204.667 581 -614c0 -264.667 -69.333 -484.667 -208 -660c-96 -120.667 -221.667 -204.667 -377 -252c-78.667 -24 -165.667 -36 -261 -36c-30.667 0 -71 1.66699 -121 5
c-110 7.33301 -187.333 11 -232 11h-144l219 1530h156zM476 264c42 -14 96.833 -21 164.5 -21s128.5 18.5 182.5 55.5s99 86.833 135 149.5c70 124.667 105 287.667 105 489c0 134 -23.667 226.667 -71 278c-42 46.667 -115 70 -219 70
c-58.667 0 -109.667 -4.33301 -153 -13z" />
    <glyph glyph-name="dcaron" unicode="&#x10f;" horiz-adv-x="1600" 
d="M528 12c-36.667 -18.667 -82.001 -28 -136.001 -28s-102.333 11.5 -145 34.5s-77 54.167 -103 93.5c-49.333 72 -74 172 -74 300c0 200 58.667 370 176 510c130 156 305.667 234 527 234c26 0 52.667 -2 80 -6l67 484h344l-211 -1634h-319l14 279
c-51.333 -129.333 -124.666 -218.333 -219.999 -267zM530.999 228c75.333 0 150.001 104.665 224.001 313.998c10 28.667 18.333 54.667 25 78l44 317c-22 6 -48.667 9 -80 9s-61.333 -7.16699 -90 -21.5s-54.334 -33.666 -77.001 -57.999s-42.5 -53.166 -59.5 -86.499
s-30.833 -69 -41.5 -107c-22.667 -77.333 -34 -157.333 -34 -240c0 -136.667 29.667 -205 89 -205zM1649 1682c26 -26 39 -89 39 -189c0 -133.333 -28 -254.666 -84 -363.999c-18 -36 -39 -66.667 -63 -92l-151 28l-6 25c27.333 72.667 41 168.167 41 286.5
s-8 190.166 -24 215.499l19 42z" />
    <glyph glyph-name="Dcroat" unicode="&#x110;" horiz-adv-x="1438" 
d="M460 1532l386.999 16c387.333 0 581 -204.667 581 -614c0 -264.667 -69.333 -484.667 -208 -660c-96 -120.667 -221.333 -204.667 -376 -252c-79.333 -24 -166.666 -36 -261.999 -36c-30.667 0 -71 1.66699 -121 5c-110 7.33301 -187.333 11 -232 11h-144l96 671h-152
l25 251h163l87 608h156zM476.999 266c42 -14 96.833 -21 164.5 -21s128.5 18.5 182.5 55.5s98.667 86.833 134 149.5c70.667 124.667 106 287.667 106 489c0 134 -23.333 226.667 -70 278c-42.667 46.667 -116 70 -220 70c-58.667 0 -109.667 -4.33301 -153 -13l-50 -350
h294l-26 -251h-304z" />
    <glyph glyph-name="dcroat" unicode="&#x111;" horiz-adv-x="1274" 
d="M528 12c-36.667 -18.667 -82.001 -28 -136.001 -28s-102.333 11.5 -145 34.5s-77 54.167 -103 93.5c-49.333 72 -74 172 -74 300c0 200 58.667 370 176 510c130 156 305.667 234 527 234c26 0 52.667 -2 80 -6l15 112h-226l16 130h228l34 242h344l-31 -242h167l-16 -130
h-168l-163 -1262h-319l14 279c-51.333 -129.333 -124.666 -218.333 -219.999 -267zM530.999 228c75.333 0 150.001 104.665 224.001 313.998c10 28.667 18.333 54.667 25 78l44 317c-22 6 -48.667 9 -80 9s-61.333 -7.16699 -90 -21.5s-54.334 -33.666 -77.001 -57.999
s-42.5 -53.166 -59.5 -86.499s-30.833 -69 -41.5 -107c-22.667 -77.333 -34 -157.333 -34 -240c0 -136.667 29.667 -205 89 -205z" />
    <glyph glyph-name="Emacron" unicode="&#x112;" horiz-adv-x="1204" 
d="M507 1916h577l-20 -209h-577zM291 1530h914l-37 -275l-562 2l-48 -337l419 5l-36 -276l-421 9l-55 -388l633 10l-37 -280h-989z" />
    <glyph glyph-name="emacron" unicode="&#x113;" horiz-adv-x="1112" 
d="M73 476c0 81.333 16.666 165.669 49.999 253.002s79 162.666 137 225.999c122.667 134 274.667 201 456 201c171.333 0 278 -51.333 320 -154c13.333 -32.667 20 -77.667 20 -135s-16 -113.333 -48 -168s-75.333 -101.667 -130 -141
c-96.667 -69.333 -239.667 -127.666 -429 -174.999c0 -52.667 7.33301 -88.334 22 -107.001c26 -33.333 67 -50 123 -50c58.667 0 122.334 19.333 191.001 58c60.667 33.333 104.667 68.333 132 105l92 -171c-37.333 -54.667 -96.333 -104.334 -177 -149.001
c-101.333 -56.667 -210 -85 -326 -85c-145.333 0 -256 46.667 -332 140c-67.333 82 -101 199.333 -101 352zM443.999 561.003c64 4.66699 123.333 35 178 91c60 61.333 90 130.333 90 207c0 35.333 -5.83301 61 -17.5 77s-29.5 24 -53.5 24s-44.833 -6.66699 -62.5 -20
s-33.5 -30.833 -47.5 -52.5s-26.333 -46.5 -37 -74.5s-19.667 -57 -27 -87c-14 -55.333 -21.667 -110.333 -23 -165zM453.999 1614h577l-18 -209h-577z" />
    <glyph glyph-name="Ebreve" unicode="&#x114;" horiz-adv-x="1204" 
d="M659 2014c-2.66699 -14.667 -4.00098 -30.834 -4.00098 -48.501s2 -34 6 -49s11.333 -27.167 22 -36.5c22 -20 60.667 -30 116 -30c76.667 0 126.334 34.667 149.001 104c6 20 10.667 40 14 60h184c0.666992 -5.33301 1 -11 1 -17v-17
c0 -90.667 -29 -168.334 -87 -233.001c-67.333 -76 -159.666 -114 -276.999 -114c-168.667 0 -271 57.667 -307 173c-11.333 36.667 -17 67.834 -17 93.501s0.333008 42.334 1 50.001s1.66699 15.5 3 23.5l4 23c1.33301 7.33301 2.66602 13.333 3.99902 18h188z
M290.999 1530h914l-37 -275l-562 2l-48 -337l419 5l-36 -276l-421 9l-55 -388l633 10l-37 -280h-989z" />
    <glyph glyph-name="ebreve" unicode="&#x115;" horiz-adv-x="1112" 
d="M73 476c0 81.333 16.666 165.669 49.999 253.002s79 162.666 137 225.999c122.667 134 274.667 201 456 201c171.333 0 278 -51.333 320 -154c13.333 -32.667 20 -77.667 20 -135s-16 -113.333 -48 -168s-75.333 -101.667 -130 -141
c-96.667 -69.333 -239.667 -127.666 -429 -174.999c0 -52.667 7.33301 -88.334 22 -107.001c26 -33.333 67 -50 123 -50c58.667 0 122.334 19.333 191.001 58c60.667 33.333 104.667 68.333 132 105l92 -171c-37.333 -54.667 -96.333 -104.334 -177 -149.001
c-101.333 -56.667 -210 -85 -326 -85c-145.333 0 -256 46.667 -332 140c-67.333 82 -101 199.333 -101 352zM443.999 561.003c64 4.66699 123.333 35 178 91c60 61.333 90 130.333 90 207c0 35.333 -5.83301 61 -17.5 77s-29.5 24 -53.5 24s-44.833 -6.66699 -62.5 -20
s-33.5 -30.833 -47.5 -52.5s-26.333 -46.5 -37 -74.5s-19.667 -57 -27 -87c-14 -55.333 -21.667 -110.333 -23 -165zM615.999 1681c-2.66699 -14.667 -4.00098 -30.833 -4.00098 -48.5s2 -34 6 -49s11.333 -27.5 22 -37.5c22 -19.333 60.667 -29 116 -29
c76.667 0 126.334 35 149.001 105c6 19.333 10.667 39 14 59h184c0.666992 -5.33301 1 -11 1 -17v-17c0 -90.667 -29 -168.334 -87 -233.001c-67.333 -76 -159.666 -114 -276.999 -114c-168.667 0 -271 58 -307 174c-11.333 36 -17 66.833 -17 92.5
s0.333008 42.334 1 50.001s1.66699 15.5 3 23.5l4 23c1.33301 7.33301 2.66602 13.333 3.99902 18h188z" />
    <glyph glyph-name="Edotaccent" unicode="&#x116;" horiz-adv-x="1204" 
d="M857 1628c-26.667 -10.667 -55.334 -15.999 -86.001 -15.999s-56.667 4.33301 -78 13c-44 18 -74.667 47.667 -92 89c-8 18.667 -12 40.667 -12 66s5.33301 50.166 16 74.499s25.334 45.5 44.001 63.5c39.333 38 89.333 57 150 57c56 0 101.333 -16 136 -48
c30.667 -29.333 46 -65.333 46 -108c0 -94 -41.333 -157.667 -124 -191zM291 1530h914l-37 -275l-562 2l-48 -337l419 5l-36 -276l-421 9l-55 -388l633 10l-37 -280h-989z" />
    <glyph glyph-name="edotaccent" unicode="&#x117;" horiz-adv-x="1112" 
d="M73 476c0 81.333 16.666 165.669 49.999 253.002s79 162.666 137 225.999c122.667 134 274.667 201 456 201c171.333 0 278 -51.333 320 -154c13.333 -32.667 20 -77.667 20 -135s-16 -113.333 -48 -168s-75.333 -101.667 -130 -141
c-96.667 -69.333 -239.667 -127.666 -429 -174.999c0 -52.667 7.33301 -88.334 22 -107.001c26 -33.333 67 -50 123 -50c58.667 0 122.334 19.333 191.001 58c60.667 33.333 104.667 68.333 132 105l92 -171c-37.333 -54.667 -96.333 -104.334 -177 -149.001
c-101.333 -56.667 -210 -85 -326 -85c-145.333 0 -256 46.667 -332 140c-67.333 82 -101 199.333 -101 352zM443.999 561.003c64 4.66699 123.333 35 178 91c60 61.333 90 130.333 90 207c0 35.333 -5.83301 61 -17.5 77s-29.5 24 -53.5 24s-44.833 -6.66699 -62.5 -20
s-33.5 -30.833 -47.5 -52.5s-26.333 -46.5 -37 -74.5s-19.667 -57 -27 -87c-14 -55.333 -21.667 -110.333 -23 -165zM822.999 1329c-26.667 -10.667 -54.668 -15.998 -84.001 -15.998s-54.333 4.33301 -75 13c-41.333 17.333 -71.666 46.666 -90.999 87.999
c-8.66699 19.333 -13 41.5 -13 66.5s5.33301 50.167 16 75.5s25 47.333 43 66c40 39.333 90.333 59 151 59c52 0 95 -16.333 129 -49c32 -30.667 48 -68 48 -112c0 -94.667 -41.333 -158.334 -124 -191.001z" />
    <glyph glyph-name="Eogonek" unicode="&#x118;" horiz-adv-x="1216" 
d="M1095 -387c-79.333 -82 -189 -123.001 -329 -123.001c-62.667 0 -114.334 19.333 -155.001 58c-38.667 36 -58 76.667 -58 122s9.83301 84.833 29.5 118.5s43.5 64.5 71.5 92.5c54.667 54 112.667 93.667 174 119h-744l219 1530h914l-37 -275l-562 2l-48 -337l419 5
l-36 -276l-421 9l-55 -388l633 10l-37 -279l7 -1c-109.333 -45.333 -184.666 -96.666 -225.999 -153.999c-13.333 -18 -20 -35 -20 -51c0 -48 22.833 -72 68.5 -72s96.167 21.667 151.5 65z" />
    <glyph glyph-name="eogonek" unicode="&#x119;" horiz-adv-x="1112" 
d="M817 -387c-79.333 -82 -189 -122.997 -329 -122.997c-62.667 0 -114.334 19.333 -155.001 58c-38.667 36 -58 81.333 -58 136c0 85.333 54.333 168.666 163 249.999c28.667 20.667 55.334 37.667 80.001 51l-12 -1c-145.333 0 -256 46.667 -332 140
c-67.333 82 -101 181.5 -101 298.5s16.667 219.167 50 306.5s79 162.666 137 225.999c122.667 134 274.667 201 456 201c171.333 0 278 -51.333 320 -154c13.333 -32.667 20 -77.667 20 -135s-16 -113.333 -48 -168s-75.333 -101.667 -130 -141
c-96.667 -69.333 -239.667 -127.666 -429 -174.999c0 -52.667 7.33301 -88.334 22 -107.001c26 -33.333 67 -50 123 -50c58.667 0 122.334 19.333 191.001 58c60.667 33.333 104.667 68.333 132 105l92 -171c-38.667 -56.667 -101.334 -108.334 -188.001 -155.001
c-63.333 -38 -115 -76.667 -155 -116c-73.333 -71.333 -110 -122 -110 -152c0 -48 22.833 -72 68.5 -72s96.167 21.667 151.5 65zM444 561.003c64 4.66699 123.333 35 178 91c60 61.333 90 130.333 90 207c0 35.333 -5.83301 61 -17.5 77s-29.5 24 -53.5 24
s-44.833 -6.66699 -62.5 -20s-33.5 -30.833 -47.5 -52.5s-26.333 -46.5 -37 -74.5s-19.667 -57 -27 -87c-14 -55.333 -21.667 -110.333 -23 -165z" />
    <glyph glyph-name="Ecaron" unicode="&#x11a;" horiz-adv-x="1204" 
d="M431 1936l145 78l183 -177l287 177l148 -67l-371 -348h-180zM291 1530h914l-37 -275l-562 2l-48 -337l419 5l-36 -276l-421 9l-55 -388l633 10l-37 -280h-989z" />
    <glyph glyph-name="ecaron" unicode="&#x11b;" horiz-adv-x="1112" 
d="M372 1602l126 68l213 -190l276 189l148 -67l-372 -374h-179zM73 476c0 81.333 16.666 165.669 49.999 253.002s79 162.666 137 225.999c122.667 134 274.667 201 456 201c171.333 0 278 -51.333 320 -154c13.333 -32.667 20 -77.667 20 -135s-16 -113.333 -48 -168
s-75.333 -101.667 -130 -141c-96.667 -69.333 -239.667 -127.666 -429 -174.999c0 -52.667 7.33301 -88.334 22 -107.001c26 -33.333 67 -50 123 -50c58.667 0 122.334 19.333 191.001 58c60.667 33.333 104.667 68.333 132 105l92 -171
c-37.333 -54.667 -96.333 -104.334 -177 -149.001c-101.333 -56.667 -210 -85 -326 -85c-145.333 0 -256 46.667 -332 140c-67.333 82 -101 199.333 -101 352zM443.999 561.003c64 4.66699 123.333 35 178 91c60 61.333 90 130.333 90 207c0 35.333 -5.83301 61 -17.5 77
s-29.5 24 -53.5 24s-44.833 -6.66699 -62.5 -20s-33.5 -30.833 -47.5 -52.5s-26.333 -46.5 -37 -74.5s-19.667 -57 -27 -87c-14 -55.333 -21.667 -110.333 -23 -165z" />
    <glyph glyph-name="Gcircumflex" unicode="&#x11c;" horiz-adv-x="1439" 
d="M445 623c0 -249.333 99.0039 -373.998 297.004 -373.998c84 0 150.333 11 199 33l45 288h-248l33 280h576l-107 -771c-27.333 -2.66699 -59 -9 -95 -19l-102 -28c-118 -32 -225.5 -48 -322.5 -48s-175.167 8.5 -234.5 25.5s-111.333 40.167 -156 69.5
s-82.5 64 -113.5 104s-56.167 83 -75.5 129c-36.667 87.333 -55 193.333 -55 318s21 244.667 63 360s99.667 214.166 173 296.499s159.166 146.166 257.499 191.499s203.833 68 316.5 68c134 0 257 -18.667 369 -56l95 -33l-74 -322c-66.667 48 -154.667 84 -264 108
c-42.667 9.33301 -89.5 14 -140.5 14s-98.333 -9 -142 -27s-81.834 -42.333 -114.501 -73s-60.334 -66.667 -83.001 -108s-41.334 -85.333 -56.001 -132c-27.333 -90 -41 -188 -41 -294zM564.004 1666l371 348h180l212 -337l-145 -78l-183 167l-287 -167z" />
    <glyph glyph-name="gcircumflex" unicode="&#x11d;" horiz-adv-x="1269" 
d="M427 1296l371 374h180l212 -374l-155 -68l-180 174l-290 -173zM773 1156c78.667 0 160.999 -15 246.999 -45l188 45l-164 -1185c-30.667 -230.667 -153.334 -380.334 -368.001 -449.001c-82.667 -26 -176.667 -39 -282 -39c-74 0 -135.167 6.33301 -183.5 19
s-77.5 21.334 -87.5 26.001l52 255c13.333 -13.333 41 -28 83 -44c82 -31.333 145.333 -47 190 -47s79.334 5.16699 104.001 15.5s45.334 24.833 62.001 43.5c28 31.333 48.667 82 62 152l63 353c-34.667 -76.667 -70.667 -133 -108 -169
c-73.333 -68.667 -145 -103 -215 -103s-126.333 11.5 -169 34.5s-77 54.167 -103 93.5c-49.333 72 -74 172 -74 300c0 200 58.667 370 176 510c130 156 305.667 234 527 234zM821.999 941c-18.667 3.33301 -44.167 4.99707 -76.5 4.99707s-62.833 -7.16699 -91.5 -21.5
s-54.334 -33.666 -77.001 -57.999s-42.5 -53.166 -59.5 -86.499s-30.833 -69 -41.5 -107c-22.667 -77.333 -34 -157.333 -34 -240c0 -136.667 29.667 -205 89 -205c58 0 120 72.667 186 218c24.667 54.667 44.334 108.334 59.001 161.001z" />
    <glyph glyph-name="Gbreve" unicode="&#x11e;" horiz-adv-x="1439" 
d="M828 2014c-2.66699 -14.667 -4.00098 -30.834 -4.00098 -48.501s2 -34 6 -49s11.333 -27.167 22 -36.5c22 -20 60.667 -30 116 -30c76.667 0 126.334 34.667 149.001 104c6 20 10.667 40 14 60h184c0.666992 -5.33301 1 -11 1 -17v-17
c0 -90.667 -29 -168.334 -87 -233.001c-67.333 -76 -159.666 -114 -276.999 -114c-168.667 0 -271 57.667 -307 173c-11.333 36.667 -17 67.834 -17 93.501s0.333008 42.334 1 50.001s1.66699 15.5 3 23.5l4 23c1.33301 7.33301 2.66602 13.333 3.99902 18h188zM444.999 623
c0 -249.333 99.0039 -373.998 297.004 -373.998c84 0 150.333 11 199 33l45 288h-248l33 280h576l-107 -771c-27.333 -2.66699 -59 -9 -95 -19l-102 -28c-118 -32 -225.5 -48 -322.5 -48s-175.167 8.5 -234.5 25.5s-111.333 40.167 -156 69.5s-82.5 64 -113.5 104
s-56.167 83 -75.5 129c-36.667 87.333 -55 193.333 -55 318s21 244.667 63 360s99.667 214.166 173 296.499s159.166 146.166 257.499 191.499s203.833 68 316.5 68c134 0 257 -18.667 369 -56l95 -33l-74 -322c-66.667 48 -154.667 84 -264 108
c-42.667 9.33301 -89.5 14 -140.5 14s-98.333 -9 -142 -27s-81.834 -42.333 -114.501 -73s-60.334 -66.667 -83.001 -108s-41.334 -85.333 -56.001 -132c-27.333 -90 -41 -188 -41 -294z" />
    <glyph glyph-name="gbreve" unicode="&#x11f;" horiz-adv-x="1269" 
d="M773 1156c78.667 0 160.999 -15 246.999 -45l188 45l-164 -1185c-30.667 -230.667 -153.334 -380.334 -368.001 -449.001c-82.667 -26 -176.667 -39 -282 -39c-74 0 -135.167 6.33301 -183.5 19s-77.5 21.334 -87.5 26.001l52 255c13.333 -13.333 41 -28 83 -44
c82 -31.333 145.333 -47 190 -47s79.334 5.16699 104.001 15.5s45.334 24.833 62.001 43.5c28 31.333 48.667 82 62 152l63 353c-34.667 -76.667 -70.667 -133 -108 -169c-73.333 -68.667 -145 -103 -215 -103s-126.333 11.5 -169 34.5s-77 54.167 -103 93.5
c-49.333 72 -74 172 -74 300c0 200 58.667 370 176 510c130 156 305.667 234 527 234zM821.999 941c-18.667 3.33301 -44.167 4.99707 -76.5 4.99707s-62.833 -7.16699 -91.5 -21.5s-54.334 -33.666 -77.001 -57.999s-42.5 -53.166 -59.5 -86.499s-30.833 -69 -41.5 -107
c-22.667 -77.333 -34 -157.333 -34 -240c0 -136.667 29.667 -205 89 -205c58 0 120 72.667 186 218c24.667 54.667 44.334 108.334 59.001 161.001zM698.999 1681c-2.66699 -14.667 -4.00098 -30.833 -4.00098 -48.5s2 -34 6 -49s11.333 -27.5 22 -37.5
c22 -19.333 60.667 -29 116 -29c76.667 0 126.334 35 149.001 105c6 19.333 10.667 39 14 59h184c0.666992 -5.33301 1 -11 1 -17v-17c0 -90.667 -29 -168.334 -87 -233.001c-67.333 -76 -159.666 -114 -276.999 -114c-168.667 0 -271 58 -307 174
c-11.333 36 -17 66.833 -17 92.5s0.333008 42.334 1 50.001s1.66699 15.5 3 23.5l4 23c1.33301 7.33301 2.66602 13.333 3.99902 18h188z" />
    <glyph glyph-name="Gdotaccent" unicode="&#x120;" horiz-adv-x="1439" 
d="M1026 1628c-26.667 -10.667 -55.334 -15.999 -86.001 -15.999s-56.667 4.33301 -78 13c-44 18 -74.667 47.667 -92 89c-8 18.667 -12 40.667 -12 66s5.33301 50.166 16 74.499s25.334 45.5 44.001 63.5c39.333 38 89.333 57 150 57c56 0 101.333 -16 136 -48
c30.667 -29.333 46 -65.333 46 -108c0 -94 -41.333 -157.667 -124 -191zM445 623.001c0 -249.333 99.0039 -373.998 297.004 -373.998c84 0 150.333 11 199 33l45 288h-248l33 280h576l-107 -771c-27.333 -2.66699 -59 -9 -95 -19l-102 -28c-118 -32 -225.5 -48 -322.5 -48
s-175.167 8.5 -234.5 25.5s-111.333 40.167 -156 69.5s-82.5 64 -113.5 104s-56.167 83 -75.5 129c-36.667 87.333 -55 193.333 -55 318s21 244.667 63 360s99.667 214.166 173 296.499s159.166 146.166 257.499 191.499s203.833 68 316.5 68c134 0 257 -18.667 369 -56
l95 -33l-74 -322c-66.667 48 -154.667 84 -264 108c-42.667 9.33301 -89.5 14 -140.5 14s-98.333 -9 -142 -27s-81.834 -42.333 -114.501 -73s-60.334 -66.667 -83.001 -108s-41.334 -85.333 -56.001 -132c-27.333 -90 -41 -188 -41 -294z" />
    <glyph glyph-name="gdotaccent" unicode="&#x121;" horiz-adv-x="1269" 
d="M773 1156c78.667 0 160.999 -15 246.999 -45l188 45l-164 -1185c-30.667 -230.667 -153.334 -380.334 -368.001 -449.001c-82.667 -26 -176.667 -39 -282 -39c-74 0 -135.167 6.33301 -183.5 19s-77.5 21.334 -87.5 26.001l52 255c13.333 -13.333 41 -28 83 -44
c82 -31.333 145.333 -47 190 -47s79.334 5.16699 104.001 15.5s45.334 24.833 62.001 43.5c28 31.333 48.667 82 62 152l63 353c-34.667 -76.667 -70.667 -133 -108 -169c-73.333 -68.667 -145 -103 -215 -103s-126.333 11.5 -169 34.5s-77 54.167 -103 93.5
c-49.333 72 -74 172 -74 300c0 200 58.667 370 176 510c130 156 305.667 234 527 234zM821.999 941c-18.667 3.33301 -44.167 4.99707 -76.5 4.99707s-62.833 -7.16699 -91.5 -21.5s-54.334 -33.666 -77.001 -57.999s-42.5 -53.166 -59.5 -86.499s-30.833 -69 -41.5 -107
c-22.667 -77.333 -34 -157.333 -34 -240c0 -136.667 29.667 -205 89 -205c58 0 120 72.667 186 218c24.667 54.667 44.334 108.334 59.001 161.001zM905.999 1329c-26.667 -10.667 -54.668 -15.998 -84.001 -15.998s-54.333 4.33301 -75 13
c-41.333 17.333 -71.666 46.666 -90.999 87.999c-8.66699 19.333 -13 41.5 -13 66.5s5.33301 50.167 16 75.5s25 47.333 43 66c40 39.333 90.333 59 151 59c52 0 95 -16.333 129 -49c32 -30.667 48 -68 48 -112c0 -94.667 -41.333 -158.334 -124 -191.001z" />
    <glyph glyph-name="Gcommaaccent" unicode="&#x122;" horiz-adv-x="1439" 
d="M754 -37c44.667 -9.33301 82.667 -34 114 -74c30 -39.333 45 -82.833 45 -130.5s-7 -89.5 -21 -125.5s-32 -67.667 -54 -95c-46 -55.333 -97.333 -88 -154 -98l-101 70l3 26c27.333 15.333 48 42 62 80c4.66699 14.667 7 29.667 7 45s-1.66699 28.833 -5 40.5
s-8 22.167 -14 31.5c-12.667 19.333 -29 30.333 -49 33l11 93zM445 623c0 -249.333 99.0039 -373.998 297.004 -373.998c84 0 150.333 11 199 33l45 288h-248l33 280h576l-107 -771c-27.333 -2.66699 -59 -9 -95 -19l-102 -28c-118 -32 -225.5 -48 -322.5 -48
s-175.167 8.5 -234.5 25.5s-111.333 40.167 -156 69.5s-82.5 64 -113.5 104s-56.167 83 -75.5 129c-36.667 87.333 -55 193.333 -55 318s21 244.667 63 360s99.667 214.166 173 296.499s159.166 146.166 257.499 191.499s203.833 68 316.5 68c134 0 257 -18.667 369 -56
l95 -33l-74 -322c-66.667 48 -154.667 84 -264 108c-42.667 9.33301 -89.5 14 -140.5 14s-98.333 -9 -142 -27s-81.834 -42.333 -114.501 -73s-60.334 -66.667 -83.001 -108s-41.334 -85.333 -56.001 -132c-27.333 -90 -41 -188 -41 -294z" />
    <glyph glyph-name="gcommaaccent" unicode="&#x123;" horiz-adv-x="1269" 
d="M779 1249c-44.667 9.33301 -82.333 34 -113 74c-30.667 39.333 -46 82.833 -46 130.5s7 89.5 21 125.5s32.333 67.667 55 95c45.333 55.333 96.333 88 153 98l101 -70l-3 -26c-27.333 -15.333 -47.666 -42 -60.999 -80c-5.33301 -14.667 -8 -29.667 -8 -45
s1.66699 -28.833 5 -40.5s8 -22.167 14 -31.5c13.333 -20.667 29.666 -31.667 48.999 -33l-11 -93zM773.001 1156c78.667 0 160.999 -15 246.999 -45l188 45l-164 -1185c-30.667 -230.667 -153.334 -380.334 -368.001 -449.001c-82.667 -26 -176.667 -39 -282 -39
c-74 0 -135.167 6.33301 -183.5 19s-77.5 21.334 -87.5 26.001l52 255c13.333 -13.333 41 -28 83 -44c82 -31.333 145.333 -47 190 -47s79.334 5.16699 104.001 15.5s45.334 24.833 62.001 43.5c28 31.333 48.667 82 62 152l63 353c-34.667 -76.667 -70.667 -133 -108 -169
c-73.333 -68.667 -145 -103 -215 -103s-126.333 11.5 -169 34.5s-77 54.167 -103 93.5c-49.333 72 -74 172 -74 300c0 200 58.667 370 176 510c130 156 305.667 234 527 234zM822 941c-18.667 3.33301 -44.167 4.99707 -76.5 4.99707s-62.833 -7.16699 -91.5 -21.5
s-54.334 -33.666 -77.001 -57.999s-42.5 -53.166 -59.5 -86.499s-30.833 -69 -41.5 -107c-22.667 -77.333 -34 -157.333 -34 -240c0 -136.667 29.667 -205 89 -205c58 0 120 72.667 186 218c24.667 54.667 44.334 108.334 59.001 161.001z" />
    <glyph glyph-name="Hcircumflex" unicode="&#x124;" horiz-adv-x="1512" 
d="M291 1530h354l-95 -664h482l95 664h358l-219 -1530h-358l89 622h-482l-89 -622h-354zM515 1666l371 348h180l212 -337l-145 -78l-183 167l-287 -167z" />
    <glyph glyph-name="hcircumflex" unicode="&#x125;" horiz-adv-x="1314" 
d="M825 801c0 57.333 -27 85.998 -81 85.998c-58 0 -116.667 -37 -176 -111c-18 -23.333 -34.333 -49.333 -49 -78l-94 -698h-347l220 1634h348l-6 -41l232 217h180l212 -337l-145 -78l-183 167l-287 -167l-33 15l-45 -338l-29 -151c69.333 112.667 157.333 185.667 264 219
c36 10.667 74.5 16 115.5 16s78.667 -5.16699 113 -15.5s63.5 -27.5 87.5 -51.5c49.333 -49.333 74 -127.666 74 -234.999c0 -33.333 -5.33301 -89 -16 -167l-24 -176c-6 -46 -12.667 -92.667 -20 -140l-52 -371h-357c29.333 202.667 47 327.334 53 374.001l17 136
c18.667 151.333 28 248.333 28 291z" />
    <glyph glyph-name="Hbar" unicode="&#x126;" horiz-adv-x="1512" 
d="M215 917h-216l25 251h227l52 362h354l-52 -362h482l52 362h358l-52 -362h194l-26 -251h-204l-131 -917h-358l63 441h-482l-63 -441h-354zM1019 692l32 225h-482l-32 -225h482z" />
    <glyph glyph-name="hbar" unicode="&#x127;" horiz-adv-x="1314" 
d="M825 801c0 57.333 -27 85.998 -81 85.998c-58 0 -116.667 -37 -176 -111c-18 -23.333 -34.333 -49.333 -49 -78l-94 -698h-347l170 1262h-122l16 130h123l33 242h348l-32 -242h210l-16 -130h-212l-25 -190l-29 -151c69.333 112.667 157.333 185.667 264 219
c36 10.667 74.5 16 115.5 16s78.667 -5.16699 113 -15.5s63.5 -27.5 87.5 -51.5c49.333 -49.333 74 -127.666 74 -234.999c0 -33.333 -5.33301 -89 -16 -167l-24 -176c-6 -46 -12.667 -92.667 -20 -140l-52 -371h-357c29.333 202.667 47 327.334 53 374.001l17 136
c18.667 151.333 28 248.333 28 291z" />
    <glyph glyph-name="Itilde" unicode="&#x128;" horiz-adv-x="706" 
d="M317 1530h354l-219 -1530h-354zM119 1783c24 47.333 66.667 91.6709 128 133.004c64.667 42.667 124 64 178 64c49.333 0 87.833 -8.83301 115.5 -26.5s48.334 -32.834 62.001 -45.501s27.167 -24.334 40.5 -35.001c30.667 -24.667 58.667 -37 84 -37
s46.166 3.33301 62.499 10s31.333 15.167 45 25.5s26.167 21.833 37.5 34.5l32 40l119 -145c-21.333 -50.667 -61.666 -97.334 -120.999 -140.001c-63.333 -46 -123 -69 -179 -69c-74.667 0 -138.334 23.333 -191.001 70c-32.667 30 -59.167 49.667 -79.5 59
s-40.333 14.166 -60 14.499s-37 -2 -52 -7s-29.333 -11.667 -43 -20s-26.5 -17.833 -38.5 -28.5l-34 -33z" />
    <glyph glyph-name="itilde" unicode="&#x129;" horiz-adv-x="664" 
d="M236 1140h359l-158 -1140h-357zM15 1501c24 47.333 66.667 91.668 128 133.001c64.667 42.667 124 64 178 64c66 0 125.333 -25.667 178 -77c32.667 -32 58 -52.833 76 -62.5s36.833 -14.5 56.5 -14.5s37.667 3.33301 54 10s31.333 15.167 45 25.5
s25.834 21.833 36.501 34.5l33 40l119 -145c-21.333 -50.667 -61.333 -97.334 -120 -140.001c-64 -46 -124 -69 -180 -69c-75.333 0 -138.666 25.333 -189.999 76c-32.667 31.333 -59.334 52 -80.001 62s-40.834 15.167 -60.501 15.5s-37 -2 -52 -7s-29.333 -11.667 -43 -20
s-26.5 -17.833 -38.5 -28.5l-34 -33z" />
    <glyph glyph-name="Imacron" unicode="&#x12a;" horiz-adv-x="706" 
d="M317 1530h354l-219 -1530h-354zM248 1916h577l-20 -209h-577z" />
    <glyph glyph-name="imacron" unicode="&#x12b;" horiz-adv-x="664" 
d="M236 1140h359l-158 -1140h-357zM183 1614h577l-18 -209h-577z" />
    <glyph glyph-name="Ibreve" unicode="&#x12c;" horiz-adv-x="706" 
d="M317 1530h354l-219 -1530h-354zM400 2014c-2.66699 -14.667 -4.00098 -30.834 -4.00098 -48.501s2 -34 6 -49s11.333 -27.167 22 -36.5c22 -20 60.667 -30 116 -30c76.667 0 126.334 34.667 149.001 104c6 20 10.667 40 14 60h184c0.666992 -5.33301 1 -11 1 -17v-17
c0 -90.667 -29 -168.334 -87 -233.001c-67.333 -76 -159.666 -114 -276.999 -114c-168.667 0 -271 57.667 -307 173c-11.333 36.667 -17 67.834 -17 93.501s0.333008 42.334 1 50.001s1.66699 15.5 3 23.5l4 23c1.33301 7.33301 2.66602 13.333 3.99902 18h188z" />
    <glyph glyph-name="ibreve" unicode="&#x12d;" horiz-adv-x="664" 
d="M236 1140h359l-158 -1140h-357zM345 1681c-2.66699 -14.667 -4.00098 -30.833 -4.00098 -48.5s2 -34 6 -49s11.333 -27.5 22 -37.5c22 -19.333 60.667 -29 116 -29c76.667 0 126.334 35 149.001 105c6 19.333 10.667 39 14 59h184c0.666992 -5.33301 1 -11 1 -17v-17
c0 -90.667 -29 -168.334 -87 -233.001c-67.333 -76 -159.666 -114 -276.999 -114c-168.667 0 -271 58 -307 174c-11.333 36 -17 66.833 -17 92.5s0.333008 42.334 1 50.001s1.66699 15.5 3 23.5l4 23c1.33301 7.33301 2.66602 13.333 3.99902 18h188z" />
    <glyph glyph-name="Iogonek" unicode="&#x12e;" horiz-adv-x="706" 
d="M376 -387c-79.333 -82 -189 -123.001 -329 -123.001c-62.667 0 -114.334 19.333 -155.001 58c-38.667 36 -58 76.667 -58 122s9.83301 84.833 29.5 118.5s43.834 64.5 72.501 92.5c54 54 111.667 93.667 173 119h-11l219 1530h354l-219 -1530h-91
c-109.333 -45.333 -185 -96.666 -227 -153.999c-12.667 -18 -19 -35 -19 -51c0 -48 22.833 -72 68.5 -72s96.167 21.667 151.5 65z" />
    <glyph glyph-name="iogonek" unicode="&#x12f;" horiz-adv-x="664" 
d="M600 1329c-27.333 -10.667 -55.6689 -15.998 -85.002 -15.998s-54.333 4.33301 -75 13c-41.333 17.333 -71.666 46.666 -90.999 87.999c-8.66699 19.333 -13 41.5 -13 66.5s5.33301 50.167 16 75.5s25.334 47.333 44.001 66c39.333 39.333 89.333 59 150 59
c52 0 95.333 -16.333 130 -49c31.333 -30.667 47 -68 47 -112c0 -94.667 -41 -158.334 -123 -191.001zM451.997 -386.998c-79.333 -82 -189 -123.001 -329 -123.001c-62.667 0 -114.334 19.333 -155.001 58c-38.667 36 -58 76.667 -58 122s9.83301 84.833 29.5 118.5
s43.834 64.5 72.501 92.5c54 54 111.667 93.667 173 119h-105l156 1140h359l-158 -1140c-109.333 -45.333 -185 -96.666 -227 -153.999c-12.667 -18 -19 -35 -19 -51c0 -48 22.833 -72 68.5 -72s96.167 21.667 151.5 65z" />
    <glyph glyph-name="Idotaccent" unicode="&#x130;" horiz-adv-x="706" 
d="M317 1530h354l-219 -1530h-354zM598 1628c-26.667 -10.667 -55.334 -15.999 -86.001 -15.999s-56.667 4.33301 -78 13c-44 18 -74.667 47.667 -92 89c-8 18.667 -12 40.667 -12 66s5.33301 50.166 16 74.499s25.334 45.5 44.001 63.5c39.333 38 89.333 57 150 57
c56 0 101.333 -16 136 -48c30.667 -29.333 46 -65.333 46 -108c0 -94 -41.333 -157.667 -124 -191z" />
    <glyph glyph-name="dotlessi" unicode="&#x131;" horiz-adv-x="664" 
d="M236 1140h359l-158 -1140h-357z" />
    <glyph glyph-name="IJ" unicode="&#x132;" horiz-adv-x="1415" 
d="M317 1530h354l-219 -1530h-354zM826 110c10 49.333 21.332 112.332 33.999 188.999s25 156.334 37 239.001s23.667 167.334 35 254.001l97 738h356l-171 -1186c-23.333 -153.333 -38.666 -243 -45.999 -269c-39.333 -157.333 -118 -272 -236 -344
c-96 -58.667 -212.667 -88 -350 -88l-44 118c80 20 146 63 198 129c42 55.333 72 128.666 90 219.999z" />
    <glyph glyph-name="ij" unicode="&#x133;" horiz-adv-x="1329" 
d="M479 -313c8.66699 -6 28.332 -8.99902 58.999 -8.99902s59.834 10.667 87.501 32s49.5 49.666 65.5 84.999c23.333 50 44.333 140 63 270l147 1075h359l-158 -1140c-23.333 -168 -86.333 -299.333 -189 -394c-96.667 -89.333 -210.667 -134 -342 -134
c-89.333 0 -149.333 11.333 -180 34zM235.998 1140h359l-158 -1140h-357zM540.998 1329c-26.667 -10.667 -54.668 -15.998 -84.001 -15.998s-54.333 4.33301 -75 13c-41.333 17.333 -71.666 46.666 -90.999 87.999c-8.66699 19.333 -13 41.5 -13 66.5
s5.33301 50.167 16 75.5s25 47.333 43 66c40 39.333 90.333 59 151 59c52 0 95 -16.333 129 -49c32 -30.667 48 -68 48 -112c0 -94.667 -41.333 -158.334 -124 -191.001zM1227 1329c-26.667 -10.667 -54.668 -15.998 -84.001 -15.998s-54.333 4.33301 -75 13
c-41.333 17.333 -71.666 46.666 -90.999 87.999c-8.66699 19.333 -13 41.5 -13 66.5s5.33301 50.167 16 75.5s25 47.333 43 66c40 39.333 90.333 59 151 59c52 0 95 -16.333 129 -49c32 -30.667 48 -68 48 -112c0 -94.667 -41.333 -158.334 -124 -191.001z" />
    <glyph glyph-name="Jcircumflex" unicode="&#x134;" horiz-adv-x="709" 
d="M120 110c10 49.333 21.332 112.332 33.999 188.999s25 156.334 37 239.001s23.667 167.334 35 254.001l97 738h356l-171 -1186c-23.333 -153.333 -38.666 -243 -45.999 -269c-39.333 -157.333 -118 -272 -236 -344c-96 -58.667 -212.667 -88 -350 -88l-44 118
c80 20 146 63 198 129c42 55.333 72 128.666 90 219.999zM125.999 1666l371 348h180l212 -337l-145 -78l-183 167l-287 -167z" />
    <glyph glyph-name="jcircumflex" unicode="&#x135;" horiz-adv-x="664" 
d="M-186 -313c8.66699 -6 28.332 -8.99902 58.999 -8.99902s59.834 10.667 87.501 32s49.5 49.666 65.5 84.999c23.333 50 44.333 140 63 270l147 1075h359l-158 -1140c-23.333 -168 -86.333 -299.333 -189 -394c-96.667 -89.333 -210.667 -134 -342 -134
c-89.333 0 -149.333 11.333 -180 34zM68.998 1296l371 374h180l212 -374l-155 -68l-180 174l-290 -173z" />
    <glyph glyph-name="Kcommaaccent" unicode="&#x136;" horiz-adv-x="1349" 
d="M651 -35c44.667 -9.33301 82.667 -34 114 -74c30 -39.333 45 -82.833 45 -130.5s-7 -89.5 -21 -125.5s-32 -67.667 -54 -95c-46 -55.333 -97.333 -88 -154 -98l-101 70l3 26c27.333 15.333 48 42 62 80c4.66699 14.667 7 29.667 7 45s-1.66699 28.833 -5 40.5
s-8 22.167 -14 31.5c-12.667 19.333 -29 30.333 -49 33l11 93zM303 1530l354.001 0.000976562l-95 -662l526 662h404l-607 -673c209.333 -412 329.166 -645.833 359.499 -701.5s60.833 -107.834 91.5 -156.501l-417 2c-4 6 -10.333 18.333 -19 37l-121 268l-126 292
l-154 -171l-61 -427h-354z" />
    <glyph glyph-name="kcommaaccent" unicode="&#x137;" horiz-adv-x="1226" 
d="M626 -37c44.667 -9.33301 82.667 -34 114 -74c30 -39.333 45 -82.833 45 -130.5s-7 -89.5 -21 -125.5s-32 -67.667 -54 -95c-46 -55.333 -97.333 -88 -154 -98l-101 70l3 26c27.333 15.333 48 42 62 80c4.66699 14.667 7 29.667 7 45s-1.66699 28.833 -5 40.5
s-8 22.167 -14 31.5c-12.667 19.333 -29 30.333 -49 33l11 93zM298 1634h349l-221 -1634h-348zM543 630h3l-3 1c88 49.333 159.333 126.333 214 231c17.333 32.667 33.333 65.334 48 98.001c28 64 49 124 63 180h353c-4 -96.667 -38.333 -192.667 -103 -288
c-66.667 -100.667 -147.667 -177.334 -243 -230.001l324 -622h-408z" />
    <glyph glyph-name="kgreenlandic" unicode="&#x138;" horiz-adv-x="1225" 
d="M543 630l2.99902 -0.000976562l-3 1c88 49.333 159 126.333 213 231c16.667 32.667 32.334 65.334 47.001 98.001c28 64 49 124 63 180h353c-6 -136 -66 -265 -180 -387c-52 -55.333 -106.667 -99 -164 -131l321 -622h-385zM230.999 1140h357l-155 -1140h-357z" />
    <glyph glyph-name="Lacute" unicode="&#x139;" horiz-adv-x="1080" 
d="M421 1674l279 341.999l210 -187c-33.333 -63.333 -108.333 -133.666 -225 -210.999c-46.667 -31.333 -87 -53.333 -121 -66zM303 1530h354l-180 -1253l497 11l-42 -288h-848z" />
    <glyph glyph-name="lacute" unicode="&#x13a;" horiz-adv-x="665" 
d="M289 1530h359l-208 -1530h-357zM334 1672l279 341.999l210 -187c-33.333 -63.333 -108.333 -133.666 -225 -210.999c-46.667 -31.333 -87 -53.333 -121 -66z" />
    <glyph glyph-name="Lcommaaccent" unicode="&#x13b;" horiz-adv-x="1080" 
d="M463 -35c44.667 -9.33301 82.667 -34 114 -74c30 -39.333 45 -82.833 45 -130.5s-7 -89.5 -21 -125.5s-32 -67.667 -54 -95c-46 -55.333 -97.333 -88 -154 -98l-101 70l3 26c27.333 15.333 48 42 62 80c4.66699 14.667 7 29.667 7 45s-1.66699 28.833 -5 40.5
s-8 22.167 -14 31.5c-12.667 19.333 -29 30.333 -49 33l11 93zM303 1530h354l-180 -1253l497 11l-42 -288h-848z" />
    <glyph glyph-name="lcommaaccent" unicode="&#x13c;" horiz-adv-x="665" 
d="M221 -37c44.667 -9.33301 82.667 -34 114 -74c30 -39.333 45 -82.833 45 -130.5s-7 -89.5 -21 -125.5s-32 -67.667 -54 -95c-46 -55.333 -97.333 -88 -154 -98l-101 70l3 26c27.333 15.333 48 42 62 80c4.66699 14.667 7 29.667 7 45s-1.66699 28.833 -5 40.5
s-8 22.167 -14 31.5c-12.667 19.333 -29 30.333 -49 33l11 93zM303 1634h359l-222 -1634h-357z" />
    <glyph glyph-name="Lcaron" unicode="&#x13d;" horiz-adv-x="1080" 
d="M303 1530h354l-180 -1253l497 11l-42 -288h-848zM1107 1653c26 -26 39 -89 39 -189c0 -133.333 -28 -254.666 -84 -363.999c-18 -36 -39 -66.667 -63 -92l-151 28l-6 25c27.333 72.667 41 168.167 41 286.5s-8 190.166 -24 215.499l19 42z" />
    <glyph glyph-name="lcaron" unicode="&#x13e;" horiz-adv-x="842" 
d="M304 1636h359l-222 -1634h-357zM1022 1653c26 -26 39 -89 39 -189c0 -133.333 -28 -254.666 -84 -363.999c-18 -36 -39 -66.667 -63 -92l-151 28l-6 25c27.333 72.667 41 168.167 41 286.5s-8 190.166 -24 215.499l19 42z" />
    <glyph glyph-name="Ldot" unicode="&#x13f;" horiz-adv-x="1176" 
d="M303 1530h354l-180 -1253l497 11l-42 -288h-848zM845.5 789.5c-27.667 28.333 -41.499 60.667 -41.499 97s4.83301 67.5 14.5 93.5s23.5 48.667 41.5 68c40 44 90.667 66 152 66c82.667 0 133.334 -30.667 152.001 -92c6 -18 9 -40.167 9 -66.5s-5 -53 -15 -80
s-24.333 -50.167 -43 -69.5c-38.667 -39.333 -86.334 -59 -143.001 -59s-98.834 14.167 -126.501 42.5z" />
    <glyph glyph-name="ldot" unicode="&#x140;" horiz-adv-x="895" 
d="M303 1634h359l-222 -1634h-357zM675.5 666.5c-27.667 28.333 -41.499 60.667 -41.499 97s4.83301 67.5 14.5 93.5s23.5 48.667 41.5 68c40 44 90.667 66 152 66c82.667 0 133.334 -30.667 152.001 -92c6 -18 9 -40.167 9 -66.5s-5 -53 -15 -80s-24.333 -50.167 -43 -69.5
c-38.667 -39.333 -86.334 -59 -143.001 -59s-98.834 14.167 -126.501 42.5z" />
    <glyph glyph-name="Lslash" unicode="&#x141;" horiz-adv-x="1080" 
d="M161 538l-134 -45l-58 184l223 78l111 777h354l-93 -647l363 128l57 -193l-452 -155l-55 -386l497 11l-42 -288h-848z" />
    <glyph glyph-name="lslash" unicode="&#x142;" horiz-adv-x="665" 
d="M177 700l-169 -67v197l198 81l97 723h359l-77 -568l173 71v-207l-203 -81l-115 -849h-357z" />
    <glyph glyph-name="Nacute" unicode="&#x143;" horiz-adv-x="1512" 
d="M778 1672l279 341.999l210 -187c-33.333 -63.333 -108.333 -133.666 -225 -210.999c-46.667 -31.333 -87 -53.333 -121 -66zM303 1530h307l356 -792l79 -260l13 260l97 792h342l-219 -1530h-297l-348 833l-99 275l3 -275l-115 -833h-338z" />
    <glyph glyph-name="nacute" unicode="&#x144;" horiz-adv-x="1319" 
d="M719 1325l334 449l209 -200c-20 -37.333 -79.333 -98 -178 -182c-106.667 -90.667 -187 -146 -241 -166zM835 801c0 57.333 -27 85.999 -81 85.999c-58 0 -116.667 -37 -176 -111c-18 -23.333 -34.333 -49.333 -49 -78l-96 -698h-357l156 1140h341l-13 -206
c96 148 219 222 369 222c184.667 0 277 -100.667 277 -302c0 -33.333 -5.33301 -89 -16 -167l-24 -176c-6 -46 -12.667 -92.667 -20 -140l-52 -371h-357c29.333 202.667 47 327.334 53 374.001l17 136c18.667 151.333 28 248.333 28 291z" />
    <glyph glyph-name="Ncommaaccent" unicode="&#x145;" horiz-adv-x="1512" 
d="M708 -37c44.667 -9.33301 82.667 -34 114 -74c30 -39.333 45 -82.833 45 -130.5s-7 -89.5 -21 -125.5s-32 -67.667 -54 -95c-46 -55.333 -97.333 -88 -154 -98l-101 70l3 26c27.333 15.333 48 42 62 80c4.66699 14.667 7 29.667 7 45s-1.66699 28.833 -5 40.5
s-8 22.167 -14 31.5c-12.667 19.333 -29 30.333 -49 33l11 93zM303 1530h307l356 -792l79 -260l13 260l97 792h342l-219 -1530h-297l-348 833l-99 275l3 -275l-115 -833h-338z" />
    <glyph glyph-name="ncommaaccent" unicode="&#x146;" horiz-adv-x="1319" 
d="M581 -37c44.667 -9.33301 82.667 -34 114 -74c30 -39.333 45 -82.833 45 -130.5s-7 -89.5 -21 -125.5s-32 -67.667 -54 -95c-46 -55.333 -97.333 -88 -154 -98l-101 70l3 26c27.333 15.333 48 42 62 80c4.66699 14.667 7 29.667 7 45s-1.66699 28.833 -5 40.5
s-8 22.167 -14 31.5c-12.667 19.333 -29 30.333 -49 33l11 93zM835 801c0 57.333 -27 85.999 -81 85.999c-58 0 -116.667 -37 -176 -111c-18 -23.333 -34.333 -49.333 -49 -78l-96 -698h-357l156 1140h341l-13 -206c96 148 219 222 369 222c184.667 0 277 -100.667 277 -302
c0 -33.333 -5.33301 -89 -16 -167l-24 -176c-6 -46 -12.667 -92.667 -20 -140l-52 -371h-357c29.333 202.667 47 327.334 53 374.001l17 136c18.667 151.333 28 248.333 28 291z" />
    <glyph glyph-name="Ncaron" unicode="&#x147;" horiz-adv-x="1512" 
d="M548 1936l145 78l183 -177l287 177l148 -67l-371 -348h-180zM303 1530h307l356 -792l79 -260l13 260l97 792h342l-219 -1530h-297l-348 833l-99 275l3 -275l-115 -833h-338z" />
    <glyph glyph-name="ncaron" unicode="&#x148;" horiz-adv-x="1319" 
d="M505 1602l126 68l213 -190l276 189l148 -67l-372 -374h-179zM835 801c0 57.333 -27 85.999 -81 85.999c-58 0 -116.667 -37 -176 -111c-18 -23.333 -34.333 -49.333 -49 -78l-96 -698h-357l156 1140h341l-13 -206c96 148 219 222 369 222
c184.667 0 277 -100.667 277 -302c0 -33.333 -5.33301 -89 -16 -167l-24 -176c-6 -46 -12.667 -92.667 -20 -140l-52 -371h-357c29.333 202.667 47 327.334 53 374.001l17 136c18.667 151.333 28 248.333 28 291z" />
    <glyph glyph-name="Eng" unicode="&#x14a;" horiz-adv-x="1512" 
d="M303 1530h306.999l356 -792l79 -260l13 260l97 792h342l-219 -1530c-18.667 -104 -76.667 -194 -174 -270c-109.333 -84.667 -245.666 -132.667 -408.999 -144l-57 128c160 64 258.667 141.333 296 232c12.667 30 21.667 63.667 27 101l-328 786l-99 275l3 -275
l-115 -833h-338z" />
    <glyph glyph-name="eng" unicode="&#x14b;" horiz-adv-x="1322" 
d="M835 801c0 57.333 -27.001 85.999 -81.001 85.999c-58 0 -116.667 -37 -176 -111c-18 -23.333 -34.333 -49.333 -49 -78l-96 -698h-357l156 1140h341l-13 -206c96 148 219 222 369 222c184.667 0 277 -100.667 277 -302c0 -34 -5 -91 -15 -171
c-22 -171.333 -38.333 -292.333 -49 -363l-48 -320c-34.667 -208 -92.667 -350 -174 -426c-42 -39.333 -91.167 -66.166 -147.5 -80.499s-107.666 -21.5 -153.999 -21.5s-79.833 0.833008 -100.5 2.5s-40.334 4.16699 -59.001 7.5c-42.667 6.66699 -69 15.667 -79 27l38 121
c18.667 -8 45.334 -12 80.001 -12s65.5 8 92.5 24s49.833 40 68.5 72c32 54.667 58 150 78 286c65.333 461.333 98 728.333 98 801z" />
    <glyph glyph-name="Omacron" unicode="&#x14c;" horiz-adv-x="1394" 
d="M615 1916h577l-20 -209h-577zM100.5 348c-23 72 -34.502 149.999 -34.502 233.999s7.66699 166.833 23 248.5s37.833 158.5 67.5 230.5s66.334 137.667 110.001 197s93.5 110.333 149.5 153c117.333 90 252.333 135 405 135c172.667 0 308.334 -59.333 407.001 -178
c90.667 -109.333 136 -250 136 -422c0 -269.333 -66 -494.666 -198 -675.999c-88.667 -121.333 -199 -205 -331 -251c-67.333 -23.333 -143.333 -35 -228 -35s-161.5 15.667 -230.5 47s-126.5 74 -172.5 128s-80.5 117 -103.5 189zM552.998 266.999
c26.667 -11.333 58.168 -17.0029 94.501 -17.0029s70.5 9.66699 102.5 29s61 45.5 87 78.5s49.167 71.833 69.5 116.5s37.5 92.667 51.5 144c28 101.333 42 196 42 284s-4.66699 154.167 -14 198.5s-23.333 79.833 -42 106.5c-33.333 48.667 -87 73 -161 73
c-70 0 -133.667 -36.667 -191 -110c-77.333 -99.333 -128 -238.666 -152 -417.999c-6.66699 -53.333 -10 -109.166 -10 -167.499s4.66699 -109.666 14 -153.999s23.166 -79.833 41.499 -106.5s40.833 -45.667 67.5 -57z" />
    <glyph glyph-name="omacron" unicode="&#x14d;" horiz-adv-x="1181" 
d="M462 1614h577l-18 -209h-577zM65 466c0 62.667 6 122.668 18 180.001s29.833 111.5 53.5 162.5s53.167 97.667 88.5 140s76.333 78.833 123 109.5c98.667 65.333 216.334 98 353.001 98c140 0 246.333 -48 319 -144c64 -85.333 96 -199 96 -341
c0 -192.667 -53 -352.334 -159 -479.001c-115.333 -138.667 -274 -208 -476 -208c-140.667 0 -247.334 48 -320.001 144c-64 85.333 -96 198 -96 338zM419 429.001c0 -154 36.667 -230.999 110 -230.999c100.667 0 169.667 90.333 207 271c14.667 73.333 22 152 22 236
c0 158 -36.667 237 -110 237c-98 0 -166.667 -93.333 -206 -280c-15.333 -72.667 -23 -150.334 -23 -233.001z" />
    <glyph glyph-name="Obreve" unicode="&#x14e;" horiz-adv-x="1394" 
d="M767 2014c-2.66699 -14.667 -4.00098 -30.834 -4.00098 -48.501s2 -34 6 -49s11.333 -27.167 22 -36.5c22 -20 60.667 -30 116 -30c76.667 0 126.334 34.667 149.001 104c6 20 10.667 40 14 60h184c0.666992 -5.33301 1 -11 1 -17v-17
c0 -90.667 -29 -168.334 -87 -233.001c-67.333 -76 -159.666 -114 -276.999 -114c-168.667 0 -271 57.667 -307 173c-11.333 36.667 -17 67.834 -17 93.501s0.333008 42.334 1 50.001s1.66699 15.5 3 23.5l4 23c1.33301 7.33301 2.66602 13.333 3.99902 18h188zM100.499 348
c-23 72 -34.502 149.999 -34.502 233.999s7.66699 166.833 23 248.5s37.833 158.5 67.5 230.5s66.334 137.667 110.001 197s93.5 110.333 149.5 153c117.333 90 252.333 135 405 135c172.667 0 308.334 -59.333 407.001 -178c90.667 -109.333 136 -250 136 -422
c0 -269.333 -66 -494.666 -198 -675.999c-88.667 -121.333 -199 -205 -331 -251c-67.333 -23.333 -143.333 -35 -228 -35s-161.5 15.667 -230.5 47s-126.5 74 -172.5 128s-80.5 117 -103.5 189zM552.997 266.999c26.667 -11.333 58.168 -17.0029 94.501 -17.0029
s70.5 9.66699 102.5 29s61 45.5 87 78.5s49.167 71.833 69.5 116.5s37.5 92.667 51.5 144c28 101.333 42 196 42 284s-4.66699 154.167 -14 198.5s-23.333 79.833 -42 106.5c-33.333 48.667 -87 73 -161 73c-70 0 -133.667 -36.667 -191 -110
c-77.333 -99.333 -128 -238.666 -152 -417.999c-6.66699 -53.333 -10 -109.166 -10 -167.499s4.66699 -109.666 14 -153.999s23.166 -79.833 41.499 -106.5s40.833 -45.667 67.5 -57z" />
    <glyph glyph-name="obreve" unicode="&#x14f;" horiz-adv-x="1181" 
d="M65 466c0 62.667 6 122.668 18 180.001s29.833 111.5 53.5 162.5s53.167 97.667 88.5 140s76.333 78.833 123 109.5c98.667 65.333 216.334 98 353.001 98c140 0 246.333 -48 319 -144c64 -85.333 96 -199 96 -341c0 -192.667 -53 -352.334 -159 -479.001
c-115.333 -138.667 -274 -208 -476 -208c-140.667 0 -247.334 48 -320.001 144c-64 85.333 -96 198 -96 338zM419 429.001c0 -154 36.667 -230.999 110 -230.999c100.667 0 169.667 90.333 207 271c14.667 73.333 22 152 22 236c0 158 -36.667 237 -110 237
c-98 0 -166.667 -93.333 -206 -280c-15.333 -72.667 -23 -150.334 -23 -233.001zM624 1681c-2.66699 -14.667 -4.00098 -30.833 -4.00098 -48.5s2 -34 6 -49s11.333 -27.5 22 -37.5c22 -19.333 60.667 -29 116 -29c76.667 0 126.334 35 149.001 105
c6 19.333 10.667 39 14 59h184c0.666992 -5.33301 1 -11 1 -17v-17c0 -90.667 -29 -168.334 -87 -233.001c-67.333 -76 -159.666 -114 -276.999 -114c-168.667 0 -271 58 -307 174c-11.333 36 -17 66.833 -17 92.5s0.333008 42.334 1 50.001s1.66699 15.5 3 23.5l4 23
c1.33301 7.33301 2.66602 13.333 3.99902 18h188z" />
    <glyph glyph-name="Ohungarumlaut" unicode="&#x150;" horiz-adv-x="1394" 
d="M100.5 348c-23 72 -34.502 149.999 -34.502 233.999s7.66699 166.833 23 248.5s37.833 158.5 67.5 230.5s66.334 137.667 110.001 197s93.5 110.333 149.5 153c117.333 90 252.333 135 405 135c172.667 0 308.334 -59.333 407.001 -178
c90.667 -109.333 136 -250 136 -422c0 -269.333 -66 -494.666 -198 -675.999c-88.667 -121.333 -199 -205 -331 -251c-67.333 -23.333 -143.333 -35 -228 -35s-161.5 15.667 -230.5 47s-126.5 74 -172.5 128s-80.5 117 -103.5 189zM552.998 266.999
c26.667 -11.333 58.168 -17.0029 94.501 -17.0029s70.5 9.66699 102.5 29s61 45.5 87 78.5s49.167 71.833 69.5 116.5s37.5 92.667 51.5 144c28 101.333 42 196 42 284s-4.66699 154.167 -14 198.5s-23.333 79.833 -42 106.5c-33.333 48.667 -87 73 -161 73
c-70 0 -133.667 -36.667 -191 -110c-77.333 -99.333 -128 -238.666 -152 -417.999c-6.66699 -53.333 -10 -109.166 -10 -167.499s4.66699 -109.666 14 -153.999s23.166 -79.833 41.499 -106.5s40.833 -45.667 67.5 -57zM973.999 1645l285 369l180 -144
c-36.667 -61.333 -79 -115 -127 -161c-86.667 -82 -160 -132 -220 -150zM479.999 1645l284 368.999l183 -143c-25.333 -56 -75 -117.667 -149 -185c-70.667 -65.333 -135.667 -107.666 -195 -126.999z" />
    <glyph glyph-name="ohungarumlaut" unicode="&#x151;" horiz-adv-x="1181" 
d="M820 1306l269 447l216 -143c-14 -51.333 -63.333 -123.333 -148 -216c-82 -88 -151 -145 -207 -171zM332 1306l264 446.999l210 -137c-14.667 -53.333 -61 -125.666 -139 -216.999c-80.667 -93.333 -146 -152 -196 -176zM65 465.999c0 62.667 6 122.668 18 180.001
s29.833 111.5 53.5 162.5s53.167 97.667 88.5 140s76.333 78.833 123 109.5c98.667 65.333 216.334 98 353.001 98c140 0 246.333 -48 319 -144c64 -85.333 96 -199 96 -341c0 -192.667 -53 -352.334 -159 -479.001c-115.333 -138.667 -274 -208 -476 -208
c-140.667 0 -247.334 48 -320.001 144c-64 85.333 -96 198 -96 338zM419 429c0 -154 36.667 -230.999 110 -230.999c100.667 0 169.667 90.333 207 271c14.667 73.333 22 152 22 236c0 158 -36.667 237 -110 237c-98 0 -166.667 -93.333 -206 -280
c-15.333 -72.667 -23 -150.334 -23 -233.001z" />
    <glyph glyph-name="OE" unicode="&#x152;" horiz-adv-x="2211" 
d="M1107 199c-133.333 -143.333 -296.333 -215 -489 -215c-176.667 0 -314.667 58.333 -414 175c-92 108 -138 247.667 -138 419c0 272 66.667 498.667 200 680c90 122 201.667 206 335 252c68 24 147.833 36 239.5 36s174.5 -21.167 248.5 -63.5s133.333 -98.5 178 -168.5
l31 216h914l-37 -275l-562 2l-48 -337l419 5l-36 -276l-421 9l-55 -388l633 10l-37 -280h-989zM553 267c26.667 -11.333 58.168 -17.0029 94.501 -17.0029s70.5 9.66699 102.5 29s61 45.5 87 78.5s49.167 71.833 69.5 116.5s37.5 92.667 51.5 144c28 101.333 42 196 42 284
s-4.66699 154.167 -14 198.5s-23.333 79.833 -42 106.5c-33.333 48.667 -87 73 -161 73c-70 0 -133.667 -36.667 -191 -110c-77.333 -99.333 -128 -238.666 -152 -417.999c-6.66699 -53.333 -10 -109.166 -10 -167.499s4.66699 -109.666 14 -153.999
s23.166 -79.833 41.499 -106.5s40.833 -45.667 67.5 -57z" />
    <glyph glyph-name="oe" unicode="&#x153;" horiz-adv-x="1775" 
d="M852 106c-102.667 -81.333 -226.334 -121.999 -371.001 -121.999c-141.333 0 -248 46.667 -320 140c-64 83.333 -96 195.333 -96 336c0 194 53 355.333 159 484c116.667 141.333 275.667 212 477 212c130 0 229.667 -43.333 299 -130c110 86.667 236.333 130 379 130
c171.333 0 278 -51.333 320 -154c13.333 -32.667 20 -77.667 20 -135s-16 -113.333 -48 -168s-75.667 -101.667 -131 -141c-96 -69.333 -238.667 -127.666 -428 -174.999c0 -52.667 7.33301 -88.334 22 -107.001c26 -33.333 67 -50 123 -50
c58.667 0 122.334 19.333 191.001 58c60.667 33.333 104.667 68.333 132 105l92 -171c-37.333 -54.667 -96 -104.334 -176 -149.001c-102 -56.667 -216 -85 -342 -85s-226.667 40.667 -302 122zM1107 561.001c64 4.66699 123.333 35 178 91c60 61.333 90 130.333 90 207
c0 35.333 -5.83301 61 -17.5 77s-29.5 24 -53.5 24s-44.833 -6.66699 -62.5 -20s-33.5 -30.833 -47.5 -52.5s-26.333 -46.5 -37 -74.5s-19.667 -57 -27 -87c-14 -55.333 -21.667 -110.333 -23 -165zM419 420.001c0 -148 36.668 -222.002 110.001 -222.002
c57.333 0 105 35.333 143 106c43.333 78.667 70.666 188.334 81.999 329.001c2.66699 34 4 67.333 4 100s-2.5 63.334 -7.5 92.001s-12.167 51.667 -21.5 69c-17.333 32 -42 48 -74 48s-58.833 -7.66699 -80.5 -23s-41 -36.166 -58 -62.499s-31.667 -56.833 -44 -91.5
s-22.5 -71.334 -30.5 -110.001c-15.333 -74 -23 -152.333 -23 -235z" />
    <glyph glyph-name="Racute" unicode="&#x154;" horiz-adv-x="1356" 
d="M302 1530h202.001c38 0 76 2 114 6c72.667 6.66699 145 10 217 10s142.667 -8.83301 212 -26.5s125.666 -43.167 168.999 -76.5c83.333 -63.333 125 -160 125 -290c0 -192.667 -58.333 -337 -175 -433c-42 -34.667 -92.667 -61 -152 -79c58 -48 105 -139.333 141 -274
l52 -160c33.333 -103.333 62.333 -172.333 87 -207h-392c-10 14 -19.667 40 -29 78l-58 228c-30 124.667 -65.667 208 -107 250c-10.667 11.333 -20 17 -28 17h-157l-85 -573h-354zM560.001 848c13.333 -0.666992 29.001 -1.33301 47.001 -2h55
c18.667 -0.666992 36 -1 52 -1h41c86.667 0 151 33.667 193 101c32 50 48 110.667 48 182c0 93.333 -46 148 -138 164c-28.667 5.33301 -55.334 8 -80.001 8s-43.5 -0.333008 -56.5 -1s-25.5 -1.66699 -37.5 -3c-31.333 -2 -52 -4 -62 -6zM716.002 1672l279 341.999
l210 -187c-33.333 -63.333 -108.333 -133.666 -225 -210.999c-46.667 -31.333 -87 -53.333 -121 -66z" />
    <glyph glyph-name="racute" unicode="&#x155;" horiz-adv-x="905" 
d="M492 1325l334 449l209 -200c-20 -37.333 -79.333 -98 -178 -182c-106.667 -90.667 -187 -146 -241 -166zM761 807c-80 0 -154.335 -29.333 -223.002 -88l-3 3l-100 -722h-357l156 1140h344l-16 -228l-1 -8l1 1c22.667 67.333 59.334 125 110.001 173
c54.667 52 115 78 181 78c32.667 0 56.334 -4.66699 71.001 -14l-63 -361c-12.667 17.333 -46 26 -100 26z" />
    <glyph glyph-name="Rcommaaccent" unicode="&#x156;" horiz-adv-x="1356" 
d="M642 -37c44.667 -9.33301 82.667 -34 114 -74c30 -39.333 45 -82.833 45 -130.5s-7 -89.5 -21 -125.5s-32 -67.667 -54 -95c-46 -55.333 -97.333 -88 -154 -98l-101 70l3 26c27.333 15.333 48 42 62 80c4.66699 14.667 7 29.667 7 45s-1.66699 28.833 -5 40.5
s-8 22.167 -14 31.5c-12.667 19.333 -29 30.333 -49 33l11 93zM302 1530h202.001c38 0 76 2 114 6c72.667 6.66699 145 10 217 10s142.667 -8.83301 212 -26.5s125.666 -43.167 168.999 -76.5c83.333 -63.333 125 -160 125 -290c0 -192.667 -58.333 -337 -175 -433
c-42 -34.667 -92.667 -61 -152 -79c58 -48 105 -139.333 141 -274l52 -160c33.333 -103.333 62.333 -172.333 87 -207h-392c-10 14 -19.667 40 -29 78l-58 228c-30 124.667 -65.667 208 -107 250c-10.667 11.333 -20 17 -28 17h-157l-85 -573h-354zM560.001 848
c13.333 -0.666992 29.001 -1.33301 47.001 -2h55c18.667 -0.666992 36 -1 52 -1h41c86.667 0 151 33.667 193 101c32 50 48 110.667 48 182c0 93.333 -46 148 -138 164c-28.667 5.33301 -55.334 8 -80.001 8s-43.5 -0.333008 -56.5 -1s-25.5 -1.66699 -37.5 -3
c-31.333 -2 -52 -4 -62 -6z" />
    <glyph glyph-name="rcommaaccent" unicode="&#x157;" horiz-adv-x="905" 
d="M263 -37c44.667 -9.33301 82.667 -34 114 -74c30 -39.333 45 -82.833 45 -130.5s-7 -89.5 -21 -125.5s-32 -67.667 -54 -95c-46 -55.333 -97.333 -88 -154 -98l-101 70l3 26c27.333 15.333 48 42 62 80c4.66699 14.667 7 29.667 7 45s-1.66699 28.833 -5 40.5
s-8 22.167 -14 31.5c-12.667 19.333 -29 30.333 -49 33l11 93zM761 807c-80 0 -154.335 -29.333 -223.002 -88l-3 3l-100 -722h-357l156 1140h344l-16 -228l-1 -8l1 1c22.667 67.333 59.334 125 110.001 173c54.667 52 115 78 181 78c32.667 0 56.334 -4.66699 71.001 -14
l-63 -361c-12.667 17.333 -46 26 -100 26z" />
    <glyph glyph-name="Rcaron" unicode="&#x158;" horiz-adv-x="1356" 
d="M486 1936l145 78l183 -177l287 177l148 -67l-371 -348h-180zM302 1530h202.001c38 0 76 2 114 6c72.667 6.66699 145 10 217 10s142.667 -8.83301 212 -26.5s125.666 -43.167 168.999 -76.5c83.333 -63.333 125 -160 125 -290c0 -192.667 -58.333 -337 -175 -433
c-42 -34.667 -92.667 -61 -152 -79c58 -48 105 -139.333 141 -274l52 -160c33.333 -103.333 62.333 -172.333 87 -207h-392c-10 14 -19.667 40 -29 78l-58 228c-30 124.667 -65.667 208 -107 250c-10.667 11.333 -20 17 -28 17h-157l-85 -573h-354zM560.001 848
c13.333 -0.666992 29.001 -1.33301 47.001 -2h55c18.667 -0.666992 36 -1 52 -1h41c86.667 0 151 33.667 193 101c32 50 48 110.667 48 182c0 93.333 -46 148 -138 164c-28.667 5.33301 -55.334 8 -80.001 8s-43.5 -0.333008 -56.5 -1s-25.5 -1.66699 -37.5 -3
c-31.333 -2 -52 -4 -62 -6z" />
    <glyph glyph-name="rcaron" unicode="&#x159;" horiz-adv-x="905" 
d="M278 1602l126 68l213 -190l276 189l148 -67l-372 -374h-179zM761 807c-80 0 -154.335 -29.333 -223.002 -88l-3 3l-100 -722h-357l156 1140h344l-16 -228l-1 -8l1 1c22.667 67.333 59.334 125 110.001 173c54.667 52 115 78 181 78c32.667 0 56.334 -4.66699 71.001 -14
l-63 -361c-12.667 17.333 -46 26 -100 26z" />
    <glyph glyph-name="Sacute" unicode="&#x15a;" horiz-adv-x="1070" 
d="M127 368c57.333 -42.667 128.33 -73.3311 212.997 -91.998c28 -6 57.833 -9 89.5 -9s60.334 4 86.001 12s46.5 19 62.5 33c29.333 24.667 44.666 60.667 45.999 108c1.33301 42.667 -8.66699 77.334 -30 104.001c-30.667 39.333 -72.334 78.833 -125.001 118.5
s-94.167 74.167 -124.5 103.5s-57.833 61.666 -82.5 96.999c-54.667 80 -82 158.5 -82 235.5s12.667 143.667 38 200s61.333 104.166 108 143.499c96.667 82.667 226 124 388 124c120 0 222.333 -18.667 307 -56c22.667 -10 40.667 -19.667 54 -29l-112 -281
c-38 38 -99 64.667 -183 80c-25.333 4.66699 -52.333 7 -81 7s-54.667 -3.83301 -78 -11.5s-42.666 -17.834 -57.999 -30.501c-30 -24.667 -45 -53 -45 -85s4.66699 -58.167 14 -78.5s22.5 -40.5 39.5 -60.5s37.167 -39.667 60.5 -59l77 -63
c83.333 -66 141.333 -120 174 -162c68.667 -86.667 103 -171 103 -253s-14.167 -152.5 -42.5 -211.5s-68.166 -108.5 -119.499 -148.5c-101.333 -80 -241.666 -120 -420.999 -120c-113.333 0 -225.666 22 -336.999 66c-28 10.667 -47.667 20.667 -59 30zM580.997 1672
l279 341.999l210 -187c-33.333 -63.333 -108.333 -133.666 -225 -210.999c-46.667 -31.333 -87 -53.333 -121 -66z" />
    <glyph glyph-name="sacute" unicode="&#x15b;" horiz-adv-x="977" 
d="M502 1325l334 449l209 -200c-20 -37.333 -79.333 -98 -178 -182c-106.667 -90.667 -187 -146 -241 -166zM379 233c96.667 0 145 27.665 145 82.998c0 38 -45.333 89 -136 153c-116.667 82 -187.334 167.333 -212.001 256c-8.66699 29.333 -13 66 -13 110
s11 86.5 33 127.5s53.333 75.833 94 104.5c83.333 59.333 195.333 89 336 89c110 0 199 -12.333 267 -37l-38 -299c-36.667 36.667 -91 63.334 -163 80.001c-24.667 6 -54 9 -88 9s-60.833 -7.83301 -80.5 -23.5s-29.5 -33.167 -29.5 -52.5s3.66699 -35.5 11 -48.5
s18 -26 32 -39s31.333 -27.5 52 -43.5l76 -60.5c30 -24.333 57.667 -48 83 -71s46.333 -46.5 63 -70.5c33.333 -49.333 50 -106.333 50 -171s-13.5 -119.167 -40.5 -163.5s-62.5 -80.166 -106.5 -107.499c-82 -49.333 -191 -74 -327 -74c-103.333 0 -197.333 15.333 -282 46
c-23.333 8 -39.666 15.667 -48.999 23l56 280c38 -35.333 103 -65 195 -89c26.667 -7.33301 50.667 -11 72 -11z" />
    <glyph glyph-name="Scircumflex" unicode="&#x15c;" horiz-adv-x="1070" 
d="M127 368c57.333 -42.667 128.33 -73.3311 212.997 -91.998c28 -6 57.833 -9 89.5 -9s60.334 4 86.001 12s46.5 19 62.5 33c29.333 24.667 44.666 60.667 45.999 108c1.33301 42.667 -8.66699 77.334 -30 104.001c-30.667 39.333 -72.334 78.833 -125.001 118.5
s-94.167 74.167 -124.5 103.5s-57.833 61.666 -82.5 96.999c-54.667 80 -82 158.5 -82 235.5s12.667 143.667 38 200s61.333 104.166 108 143.499c96.667 82.667 226 124 388 124c120 0 222.333 -18.667 307 -56c22.667 -10 40.667 -19.667 54 -29l-112 -281
c-38 38 -99 64.667 -183 80c-25.333 4.66699 -52.333 7 -81 7s-54.667 -3.83301 -78 -11.5s-42.666 -17.834 -57.999 -30.501c-30 -24.667 -45 -53 -45 -85s4.66699 -58.167 14 -78.5s22.5 -40.5 39.5 -60.5s37.167 -39.667 60.5 -59l77 -63
c83.333 -66 141.333 -120 174 -162c68.667 -86.667 103 -171 103 -253s-14.167 -152.5 -42.5 -211.5s-68.166 -108.5 -119.499 -148.5c-101.333 -80 -241.666 -120 -420.999 -120c-113.333 0 -225.666 22 -336.999 66c-28 10.667 -47.667 20.667 -59 30zM314.997 1666
l371 348h180l212 -337l-145 -78l-183 167l-287 -167z" />
    <glyph glyph-name="scircumflex" unicode="&#x15d;" horiz-adv-x="977" 
d="M260 1296l371 374h180l212 -374l-155 -68l-180 174l-290 -173zM379 233c96.667 0 145 27.665 145 82.998c0 38 -45.333 89 -136 153c-116.667 82 -187.334 167.333 -212.001 256c-8.66699 29.333 -13 66 -13 110s11 86.5 33 127.5s53.333 75.833 94 104.5
c83.333 59.333 195.333 89 336 89c110 0 199 -12.333 267 -37l-38 -299c-36.667 36.667 -91 63.334 -163 80.001c-24.667 6 -54 9 -88 9s-60.833 -7.83301 -80.5 -23.5s-29.5 -33.167 -29.5 -52.5s3.66699 -35.5 11 -48.5s18 -26 32 -39s31.333 -27.5 52 -43.5l76 -60.5
c30 -24.333 57.667 -48 83 -71s46.333 -46.5 63 -70.5c33.333 -49.333 50 -106.333 50 -171s-13.5 -119.167 -40.5 -163.5s-62.5 -80.166 -106.5 -107.499c-82 -49.333 -191 -74 -327 -74c-103.333 0 -197.333 15.333 -282 46c-23.333 8 -39.666 15.667 -48.999 23l56 280
c38 -35.333 103 -65 195 -89c26.667 -7.33301 50.667 -11 72 -11z" />
    <glyph glyph-name="Scedilla" unicode="&#x15e;" horiz-adv-x="1070" 
d="M142 -233c23.333 -10.667 48.8301 -15.9961 76.4971 -15.9961s52.167 1.66699 73.5 5s40 9.33301 56 18c34 19.333 52.333 53.333 55 102c0.666992 21.333 1 41 1 59s-0.333008 34.333 -1 49c-113.333 0 -225.666 22 -336.999 66c-28 10.667 -47.667 20.667 -59 30
l120 288c57.333 -42.667 128.333 -73.334 213 -92.001c28 -6 57.833 -9 89.5 -9s60.334 4 86.001 12s46.5 19 62.5 33c29.333 24.667 44.666 60.667 45.999 108c1.33301 42.667 -8.66699 77.334 -30 104.001c-30.667 39.333 -72.334 78.833 -125.001 118.5
s-94.167 74.167 -124.5 103.5s-57.833 61.666 -82.5 96.999c-54.667 80 -82 158.5 -82 235.5s12.667 143.667 38 200s61.333 104.166 108 143.499c96.667 82.667 226 124 388 124c120 0 222.333 -18.667 307 -56c22.667 -10 40.667 -19.667 54 -29l-112 -281
c-38 38 -99 64.667 -183 80c-25.333 4.66699 -52.333 7 -81 7s-54.667 -3.83301 -78 -11.5s-42.666 -17.834 -57.999 -30.501c-30 -24.667 -45 -53 -45 -85s4.66699 -58.167 14 -78.5s22.5 -40.5 39.5 -60.5s37.167 -39.667 60.5 -59l77 -63
c83.333 -66 141.333 -120 174 -162c68.667 -86.667 103 -173 103 -259c0 -183.333 -75.333 -315.333 -226 -396c-48 -26 -101.667 -45.333 -161 -58c32 -74.667 48 -155.334 48 -242.001c0 -110 -53.667 -181.667 -161 -215c-38 -12 -74.167 -18 -108.5 -18
s-63.666 1 -87.999 3s-49.166 4.66699 -74.499 8c-62.667 9.33301 -99 17.333 -109 24z" />
    <glyph glyph-name="scedilla" unicode="&#x15f;" horiz-adv-x="977" 
d="M50 -233c23.333 -10.667 48.833 -15.999 76.5 -15.999s52.167 1.66699 73.5 5s40 9.33301 56 18c34 19.333 52.333 53.333 55 102c2.66699 38.667 2.33398 76 -0.999023 112c-128 12 -212.667 33.667 -254 65l56 280c38 -35.333 103 -65 195 -89
c26.667 -7.33301 50.667 -11 72 -11c96.667 0 145 27.667 145 83c0 38 -45.333 89 -136 153c-116.667 82 -187.334 167.333 -212.001 256c-8.66699 29.333 -13 66 -13 110s11 86.5 33 127.5s53.333 75.833 94 104.5c83.333 59.333 195.333 89 336 89
c110 0 199 -12.333 267 -37l-38 -299c-36.667 36.667 -91 63.334 -163 80.001c-24.667 6 -54 9 -88 9s-60.833 -7.83301 -80.5 -23.5s-29.5 -33.167 -29.5 -52.5s3.66699 -35.5 11 -48.5s18 -26 32 -39s31.333 -27.5 52 -43.5l76 -60.5c30 -24.333 57.667 -48 83 -71
s46.333 -46.5 63 -70.5c33.333 -49.333 50 -103.333 50 -162s-9.33301 -107.834 -28 -147.501s-43.667 -73.167 -75 -100.5c-58.667 -50.667 -140.667 -83.334 -246 -98.001c28.667 -82.667 43 -150 43 -202s-5.33301 -92.167 -16 -120.5s-27.667 -52.833 -51 -73.5
c-51.333 -44.667 -129.333 -67 -234 -67c-54 0 -106 4.83301 -156 14.5s-78 16.5 -84 20.5z" />
    <glyph glyph-name="Scaron" unicode="&#x160;" horiz-adv-x="1070" 
d="M127 368c57.333 -42.667 128.33 -73.3311 212.997 -91.998c28 -6 57.833 -9 89.5 -9s60.334 4 86.001 12s46.5 19 62.5 33c29.333 24.667 44.666 60.667 45.999 108c1.33301 42.667 -8.66699 77.334 -30 104.001c-30.667 39.333 -72.334 78.833 -125.001 118.5
s-94.167 74.167 -124.5 103.5s-57.833 61.666 -82.5 96.999c-54.667 80 -82 158.5 -82 235.5s12.667 143.667 38 200s61.333 104.166 108 143.499c96.667 82.667 226 124 388 124c120 0 222.333 -18.667 307 -56c22.667 -10 40.667 -19.667 54 -29l-112 -281
c-38 38 -99 64.667 -183 80c-25.333 4.66699 -52.333 7 -81 7s-54.667 -3.83301 -78 -11.5s-42.666 -17.834 -57.999 -30.501c-30 -24.667 -45 -53 -45 -85s4.66699 -58.167 14 -78.5s22.5 -40.5 39.5 -60.5s37.167 -39.667 60.5 -59l77 -63
c83.333 -66 141.333 -120 174 -162c68.667 -86.667 103 -171 103 -253s-14.167 -152.5 -42.5 -211.5s-68.166 -108.5 -119.499 -148.5c-101.333 -80 -241.666 -120 -420.999 -120c-113.333 0 -225.666 22 -336.999 66c-28 10.667 -47.667 20.667 -59 30zM350.997 1936
l145 78l183 -177l287 177l148 -67l-371 -348h-180z" />
    <glyph glyph-name="scaron" unicode="&#x161;" horiz-adv-x="977" 
d="M288 1602l126 68l213 -190l276 189l148 -67l-372 -374h-179zM379 233c96.667 0 145 27.665 145 82.998c0 38 -45.333 89 -136 153c-116.667 82 -187.334 167.333 -212.001 256c-8.66699 29.333 -13 66 -13 110s11 86.5 33 127.5s53.333 75.833 94 104.5
c83.333 59.333 195.333 89 336 89c110 0 199 -12.333 267 -37l-38 -299c-36.667 36.667 -91 63.334 -163 80.001c-24.667 6 -54 9 -88 9s-60.833 -7.83301 -80.5 -23.5s-29.5 -33.167 -29.5 -52.5s3.66699 -35.5 11 -48.5s18 -26 32 -39s31.333 -27.5 52 -43.5l76 -60.5
c30 -24.333 57.667 -48 83 -71s46.333 -46.5 63 -70.5c33.333 -49.333 50 -106.333 50 -171s-13.5 -119.167 -40.5 -163.5s-62.5 -80.166 -106.5 -107.499c-82 -49.333 -191 -74 -327 -74c-103.333 0 -197.333 15.333 -282 46c-23.333 8 -39.666 15.667 -48.999 23l56 280
c38 -35.333 103 -65 195 -89c26.667 -7.33301 50.667 -11 72 -11z" />
    <glyph glyph-name="uni0162" unicode="&#x162;" horiz-adv-x="1165" 
d="M127 -233c23.333 -10.667 48.8311 -16 76.498 -16s52.167 1.66699 73.5 5s40 9.33301 56 18c34 19.333 52.333 53.333 55 102c1.33301 20 2 41 2 63s-1.33301 42.333 -4 61h-60l181 1266l-359 -11l44 275h1067l-40 -275l-352 11l-181 -1266h-101
c31.333 -76.667 47 -156 47 -238c0 -110 -53.333 -181.667 -160 -215c-38.667 -12 -75.167 -18 -109.5 -18s-63.666 1 -87.999 3s-49.166 4.66699 -74.499 8c-62.667 9.33301 -99 17.333 -109 24z" />
    <glyph glyph-name="uni0163" unicode="&#x163;" horiz-adv-x="839" 
d="M-6 -233c23.333 -10.667 48.834 -16.0029 76.501 -16.0029s52.167 1.66699 73.5 5s40 9.33301 56 18c34 19.333 52.333 53.333 55 102c1.33301 19.333 2 34.333 2 45c0 32.667 -1.33301 58.334 -4 77.001c-85.333 30.667 -128 96.334 -128 197.001
c0 12.667 1.66699 33 5 61l8 76c2 22.667 4.66699 44.667 8 66l72 526h-84l36 216h105l98 276h267l-37 -276h222l-23 -216h-227l-80 -582c-2.66699 -20 -4 -38 -4 -54c0 -42.667 23.333 -64 70 -64c36.667 0 81.667 17.333 135 52c15.333 10 28.666 20 39.999 30l54 -170
c-99.333 -79.333 -210.333 -129 -333 -149c28 -80.667 42 -146.667 42 -198s-5.33301 -91.166 -16 -119.499s-27.667 -52.833 -51 -73.5c-51.333 -44.667 -129.333 -67 -234 -67c-54 0 -106 4.83301 -156 14.5s-78 16.5 -84 20.5z" />
    <glyph glyph-name="Tcaron" unicode="&#x164;" horiz-adv-x="1165" 
d="M395 1936l145 78l183 -177l287 177l148 -67l-371 -348h-180zM507 1266l-359 -11l44 275h1067l-40 -275l-352 11l-181 -1266h-360z" />
    <glyph glyph-name="tcaron" unicode="&#x165;" horiz-adv-x="839" 
d="M790 136c-130 -104 -273.332 -156 -429.999 -156c-72 0 -129.167 18.667 -171.5 56s-63.5 90.333 -63.5 159c0 12.667 1.66699 33 5 61l8 76c2 22.667 4.66699 44.667 8 66l72 526h-84l36 216h105l98 276h267l-37 -276h222l-23 -216h-227l-80 -582
c-2.66699 -20 -4 -38 -4 -54c0 -42.667 23.333 -64 70 -64c36.667 0 81.667 17.333 135 52c15.333 10 28.666 20 39.999 30zM1041 1892c26 -26 39 -89 39 -189c0 -133.333 -28 -254.666 -84 -363.999c-18 -36 -39 -66.667 -63 -92l-151 28l-6 25
c27.333 72.667 41 168.167 41 286.5s-8 190.166 -24 215.499l19 42z" />
    <glyph glyph-name="Tbar" unicode="&#x166;" horiz-adv-x="1165" 
d="M417 635h-229l30 251h235l54 380l-359 -11l44 275h1067l-40 -275l-352 11l-54 -380h245l-31 -251h-250l-91 -635h-360z" />
    <glyph glyph-name="tbar" unicode="&#x167;" horiz-adv-x="839" 
d="M790 136c-130 -104 -273.332 -156 -429.999 -156c-72 0 -129.167 18.667 -171.5 56s-63.5 90.333 -63.5 159c0 12.667 1.66699 33 5 61l8 76c2 22.667 4.66699 44.667 8 66l30 223h-60l16 130h62l24 173h-84l36 216h105l98 276h267l-37 -276h222l-23 -216h-227l-24 -173
h163l-16 -130h-165l-38 -279c-2.66699 -20 -4 -38 -4 -54c0 -42.667 23.333 -64 70 -64c36.667 0 81.667 17.333 135 52c15.333 10 28.666 20 39.999 30z" />
    <glyph glyph-name="Utilde" unicode="&#x168;" horiz-adv-x="1440" 
d="M466 1783c24 47.333 66.667 91.6709 128 133.004c64.667 42.667 124 64 178 64c49.333 0 87.833 -8.83301 115.5 -26.5s48.334 -32.834 62.001 -45.501s27.167 -24.334 40.5 -35.001c30.667 -24.667 58.667 -37 84 -37s46.166 3.33301 62.499 10s31.333 15.167 45 25.5
s26.167 21.833 37.5 34.5l32 40l119 -145c-21.333 -50.667 -61.666 -97.334 -120.999 -140.001c-63.333 -46 -123 -69 -179 -69c-74.667 0 -138.334 23.333 -191.001 70c-32.667 30 -59.167 49.667 -79.5 59s-40.333 14.166 -60 14.499s-37 -2 -52 -7
s-29.333 -11.667 -43 -20s-26.5 -17.833 -38.5 -28.5l-34 -33zM114 432.005l-0.000976562 27.999c0 34.667 4.33301 80.334 13 137.001l133 933h353l-126 -888c-7.33301 -50.667 -11 -104.667 -11 -162s3.66699 -98.5 11 -123.5s18.666 -45.167 33.999 -60.5
c29.333 -27.333 72.333 -41 129 -41s100.334 5.83301 131.001 17.5s57.334 32.167 80.001 61.5c43.333 54.667 76 154.667 98 300l127 896h352l-130 -933c-30.667 -219.333 -100 -377 -208 -473c-106 -93.333 -266 -140 -480 -140c-254 0 -412.667 87.333 -476 262
c-20 54.667 -30 116.667 -30 186z" />
    <glyph glyph-name="utilde" unicode="&#x169;" horiz-adv-x="1292" 
d="M145.5 114c-15.667 32.667 -23.668 66.832 -24.001 102.499s0.5 67.834 2.5 96.501s4.66699 58.667 8 90c6 54 14.333 117.667 25 191l75 546h353l-70 -551l-10 -74c-11.333 -86 -17 -146.333 -17 -181s7 -60 21 -76s30 -24 48 -24c50.667 0 104.667 38 162 114
c16.667 22 32 45 46 69l101 723h357l-156 -1140h-318l6 194c-61.333 -96.667 -141.666 -162 -240.999 -196c-35.333 -12 -72 -18 -110 -18s-73.667 4.16699 -107 12.5s-63 22.5 -89 42.5s-46.833 46.333 -62.5 79zM334.999 1501c24 47.333 66.667 91.668 128 133.001
c64.667 42.667 124 64 178 64c66 0 125.333 -25.667 178 -77c32.667 -32 58 -52.833 76 -62.5s36.833 -14.5 56.5 -14.5s37.667 3.33301 54 10s31.333 15.167 45 25.5s25.834 21.833 36.501 34.5l33 40l119 -145c-21.333 -50.667 -61.333 -97.334 -120 -140.001
c-64 -46 -124 -69 -180 -69c-75.333 0 -138.666 25.333 -189.999 76c-32.667 31.333 -59.334 52 -80.001 62s-40.834 15.167 -60.501 15.5s-37 -2 -52 -7s-29.333 -11.667 -43 -20s-26.5 -17.833 -38.5 -28.5l-34 -33z" />
    <glyph glyph-name="Umacron" unicode="&#x16a;" horiz-adv-x="1440" 
d="M595 1916h577l-20 -209h-577zM114 432l-0.000976562 27.999c0 34.667 4.33301 80.334 13 137.001l133 933h353l-126 -888c-7.33301 -50.667 -11 -104.667 -11 -162s3.66699 -98.5 11 -123.5s18.666 -45.167 33.999 -60.5c29.333 -27.333 72.333 -41 129 -41
s100.334 5.83301 131.001 17.5s57.334 32.167 80.001 61.5c43.333 54.667 76 154.667 98 300l127 896h352l-130 -933c-30.667 -219.333 -100 -377 -208 -473c-106 -93.333 -266 -140 -480 -140c-254 0 -412.667 87.333 -476 262c-20 54.667 -30 116.667 -30 186z" />
    <glyph glyph-name="umacron" unicode="&#x16b;" horiz-adv-x="1292" 
d="M145.5 114c-15.667 32.667 -23.668 66.832 -24.001 102.499s0.5 67.834 2.5 96.501s4.66699 58.667 8 90c6 54 14.333 117.667 25 191l75 546h353l-70 -551l-10 -74c-11.333 -86 -17 -146.333 -17 -181s7 -60 21 -76s30 -24 48 -24c50.667 0 104.667 38 162 114
c16.667 22 32 45 46 69l101 723h357l-156 -1140h-318l6 194c-61.333 -96.667 -141.666 -162 -240.999 -196c-35.333 -12 -72 -18 -110 -18s-73.667 4.16699 -107 12.5s-63 22.5 -89 42.5s-46.833 46.333 -62.5 79zM502.999 1614h577l-18 -209h-577z" />
    <glyph glyph-name="Ubreve" unicode="&#x16c;" horiz-adv-x="1440" 
d="M747 2014c-2.66699 -14.667 -4.00098 -30.834 -4.00098 -48.501s2 -34 6 -49s11.333 -27.167 22 -36.5c22 -20 60.667 -30 116 -30c76.667 0 126.334 34.667 149.001 104c6 20 10.667 40 14 60h184c0.666992 -5.33301 1 -11 1 -17v-17
c0 -90.667 -29 -168.334 -87 -233.001c-67.333 -76 -159.666 -114 -276.999 -114c-168.667 0 -271 57.667 -307 173c-11.333 36.667 -17 67.834 -17 93.501s0.333008 42.334 1 50.001s1.66699 15.5 3 23.5l4 23c1.33301 7.33301 2.66602 13.333 3.99902 18h188zM113.999 432
l-0.000976562 27.999c0 34.667 4.33301 80.334 13 137.001l133 933h353l-126 -888c-7.33301 -50.667 -11 -104.667 -11 -162s3.66699 -98.5 11 -123.5s18.666 -45.167 33.999 -60.5c29.333 -27.333 72.333 -41 129 -41s100.334 5.83301 131.001 17.5
s57.334 32.167 80.001 61.5c43.333 54.667 76 154.667 98 300l127 896h352l-130 -933c-30.667 -219.333 -100 -377 -208 -473c-106 -93.333 -266 -140 -480 -140c-254 0 -412.667 87.333 -476 262c-20 54.667 -30 116.667 -30 186z" />
    <glyph glyph-name="ubreve" unicode="&#x16d;" horiz-adv-x="1292" 
d="M145.5 114c-15.667 32.667 -23.668 66.832 -24.001 102.499s0.5 67.834 2.5 96.501s4.66699 58.667 8 90c6 54 14.333 117.667 25 191l75 546h353l-70 -551l-10 -74c-11.333 -86 -17 -146.333 -17 -181s7 -60 21 -76s30 -24 48 -24c50.667 0 104.667 38 162 114
c16.667 22 32 45 46 69l101 723h357l-156 -1140h-318l6 194c-61.333 -96.667 -141.666 -162 -240.999 -196c-35.333 -12 -72 -18 -110 -18s-73.667 4.16699 -107 12.5s-63 22.5 -89 42.5s-46.833 46.333 -62.5 79zM664.999 1681
c-2.66699 -14.667 -4.00098 -30.833 -4.00098 -48.5s2 -34 6 -49s11.333 -27.5 22 -37.5c22 -19.333 60.667 -29 116 -29c76.667 0 126.334 35 149.001 105c6 19.333 10.667 39 14 59h184c0.666992 -5.33301 1 -11 1 -17v-17c0 -90.667 -29 -168.334 -87 -233.001
c-67.333 -76 -159.666 -114 -276.999 -114c-168.667 0 -271 58 -307 174c-11.333 36 -17 66.833 -17 92.5s0.333008 42.334 1 50.001s1.66699 15.5 3 23.5l4 23c1.33301 7.33301 2.66602 13.333 3.99902 18h188z" />
    <glyph glyph-name="Uring" unicode="&#x16e;" horiz-adv-x="1440" 
d="M114 432l-0.000976562 27.999c0 34.667 4.33301 80.334 13 137.001l133 933h353l-126 -888c-7.33301 -50.667 -11 -104.667 -11 -162s3.66699 -98.5 11 -123.5s18.666 -45.167 33.999 -60.5c29.333 -27.333 72.333 -41 129 -41s100.334 5.83301 131.001 17.5
s57.334 32.167 80.001 61.5c43.333 54.667 76 154.667 98 300l127 896h352l-130 -933c-30.667 -219.333 -100 -377 -208 -473c-106 -93.333 -266 -140 -480 -140c-254 0 -412.667 87.333 -476 262c-20 54.667 -30 116.667 -30 186zM990.499 1489.5
c-44.333 -12.333 -89.999 -18.5 -136.999 -18.5s-90.167 5.16699 -129.5 15.5s-73.333 25.5 -102 45.5c-60 42 -90 97 -90 165s13 121.5 39 160.5s58.667 69.833 98 92.5c71.333 42.667 155.666 64 252.999 64c143.333 0 237.666 -43.333 282.999 -130
c15.333 -28.667 23 -66.334 23 -113.001s-10.833 -89.5 -32.5 -128.5s-50.167 -71.167 -85.5 -96.5s-75.166 -44.166 -119.499 -56.499zM909 1878c-27.333 0 -51 -2.5 -71 -7.5s-38.333 -13.167 -55 -24.5c-36.667 -24.667 -55 -62 -55 -112c0 -34.667 14.667 -64 44 -88
c28.667 -24 56.667 -36 84 -36c54 0 97 10.667 129 32s48 54 48 98s-13.833 78 -41.5 102s-55.167 36 -82.5 36z" />
    <glyph glyph-name="uring" unicode="&#x16f;" horiz-adv-x="1292" 
d="M919 1272c-45.333 -12.667 -91.499 -18.999 -138.499 -18.999s-89.667 5.33301 -128 16s-71.166 26.334 -98.499 47.001c-56.667 42.667 -85 98.167 -85 166.5s13 122.166 39 161.499s58.333 70.666 97 93.999c72 44 156.667 66 254 66
c143.333 0 237.666 -44 282.999 -132c15.333 -29.333 23 -67.5 23 -114.5s-11.333 -90.167 -34 -129.5s-52.334 -72 -89.001 -98s-77.667 -45.333 -123 -58zM846.001 1664c-27.333 0 -51 -2.5 -71 -7.5s-38 -13.167 -54 -24.5c-37.333 -24.667 -56 -62 -56 -112
c0 -34.667 14.667 -64 44 -88c28.667 -24 56.667 -36 84 -36c54 0 97 10.667 129 32s48 54 48 98s-13.833 78 -41.5 102s-55.167 36 -82.5 36zM145.501 114.001c-15.667 32.667 -23.668 66.832 -24.001 102.499s0.5 67.834 2.5 96.501s4.66699 58.667 8 90
c6 54 14.333 117.667 25 191l75 546h353l-70 -551l-10 -74c-11.333 -86 -17 -146.333 -17 -181s7 -60 21 -76s30 -24 48 -24c50.667 0 104.667 38 162 114c16.667 22 32 45 46 69l101 723h357l-156 -1140h-318l6 194c-61.333 -96.667 -141.666 -162 -240.999 -196
c-35.333 -12 -72 -18 -110 -18s-73.667 4.16699 -107 12.5s-63 22.5 -89 42.5s-46.833 46.333 -62.5 79z" />
    <glyph glyph-name="Uhungarumlaut" unicode="&#x170;" horiz-adv-x="1440" 
d="M114 432l-0.000976562 27.999c0 34.667 4.33301 80.334 13 137.001l133 933h353l-126 -888c-7.33301 -50.667 -11 -104.667 -11 -162s3.66699 -98.5 11 -123.5s18.666 -45.167 33.999 -60.5c29.333 -27.333 72.333 -41 129 -41s100.334 5.83301 131.001 17.5
s57.334 32.167 80.001 61.5c43.333 54.667 76 154.667 98 300l127 896h352l-130 -933c-30.667 -219.333 -100 -377 -208 -473c-106 -93.333 -266 -140 -480 -140c-254 0 -412.667 87.333 -476 262c-20 54.667 -30 116.667 -30 186zM953.999 1645l285 369l180 -144
c-36.667 -61.333 -79 -115 -127 -161c-86.667 -82 -160 -132 -220 -150zM459.999 1645l284 368.999l183 -143c-25.333 -56 -75 -117.667 -149 -185c-70.667 -65.333 -135.667 -107.666 -195 -126.999z" />
    </font>
</defs>
</svg>
